<svg width="31" height="32" viewBox="0 0 31 32" fill="none" xmlns="http://www.w3.org/2000/svg">
<path d="M21.5739 4.49706C21.5463 4.53531 21.5155 4.57108 21.4817 4.60398L15.8073 10.2784L15.9886 10.2122C16.1668 10.1485 16.3547 10.1164 16.5439 10.1173L19.7264 10.1173C20.1361 10.1077 20.4931 10.3944 20.5724 10.7963C20.6411 11.2406 20.3367 11.6563 19.8924 11.725C19.8565 11.7306 19.8203 11.7337 19.784 11.7344L14.029 11.7344C13.5795 11.7347 13.2149 11.3705 13.2147 10.921C13.2147 10.9207 13.2147 10.9204 13.2147 10.9201L13.2147 5.1651C13.2153 4.71562 13.5802 4.35175 14.0297 4.35236C14.0651 4.35241 14.1004 4.35477 14.1355 4.35941C14.5375 4.43872 14.8241 4.79576 14.8146 5.20539L14.8203 8.38789C14.8204 8.55685 14.7942 8.7248 14.7426 8.88569L14.6477 9.13603L20.299 3.48465C20.5821 3.17975 21.0454 3.12718 21.3896 3.36092C21.7542 3.62378 21.8367 4.13243 21.5739 4.49706Z" fill="white"/>
<path fill-rule="evenodd" clip-rule="evenodd" d="M20.7913 29.3C10.8162 29.3 2.7 21.1838 2.7 11.2087C2.7 9.2741 4.2741 7.7 6.21 7.7C6.35715 7.7 6.5043 7.7081 6.6528 7.72835L8.08515 13.9654C7.84755 14.0896 7.58835 14.2246 7.3494 14.3501C6.17355 14.9643 5.3244 15.4099 5.7591 16.4926C7.34535 21.011 10.989 24.6546 15.4534 26.2206C16.5969 26.6783 17.0343 25.8251 17.6486 24.6506C17.7754 24.4103 17.9104 24.1524 18.0347 23.9148L24.2717 25.3472C24.2906 25.4916 24.3 25.6402 24.3 25.79C24.3 27.7259 22.7259 29.3 20.7913 29.3ZM26.9136 24.7613C26.8596 24.4238 26.7745 24.0931 26.6639 23.7758C26.5126 23.337 26.1441 23.0063 25.6919 22.9023L17.6405 21.0542C17.1963 20.9557 16.7319 21.0812 16.4039 21.3958C16.2108 21.5807 16.2067 21.5847 15.3292 23.2614C12.4402 21.9452 10.0791 19.5881 8.74125 16.6694C10.4139 15.7933 10.4193 15.7892 10.6042 15.5962C10.9188 15.2681 11.047 14.8024 10.9458 14.3595L9.09765 6.30815C8.99235 5.85455 8.66295 5.48735 8.2242 5.33615C7.90425 5.2241 7.57215 5.1404 7.24275 5.08775C6.9066 5.0297 6.56235 5 6.21 5C2.7864 5 0 7.78505 0 11.2087C0 22.6728 9.3258 32 20.7913 32C24.215 32 27 29.2136 27 25.79C27 25.4403 26.9703 25.0961 26.9136 24.7613Z" fill="white"/>
<rect x="25" y="9" width="2" height="10" rx="1" fill="white"/>
<rect x="21" y="13" width="10" height="2" rx="1" fill="white"/>
</svg>
