<svg width="28" height="32" viewBox="0 0 28 32" fill="none" xmlns="http://www.w3.org/2000/svg">
<mask id="path-1-inside-1_3377_11775" fill="white">
<path fill-rule="evenodd" clip-rule="evenodd" d="M28 30.2213C28 31.2027 27.106 31.9991 26 31.9991C24.894 31.9991 24 31.2027 24 30.2213C24 25.32 19.514 21.3325 14 21.3325C8.486 21.3325 4 25.32 4 30.2213C4 31.2027 3.106 31.9991 2 31.9991C0.894 31.9991 0 31.2027 0 30.2213C0 23.3592 6.282 17.777 14 17.777C21.718 17.777 28 23.3592 28 30.2213ZM14 4C16.206 4 18 5.794 18 8C18 10.206 16.206 12 14 12C11.794 12 10 10.206 10 8C10 5.794 11.794 4 14 4ZM14 16C18.412 16 22 12.412 22 8C22 3.588 18.412 0 14 0C9.588 0 6 3.588 6 8C6 12.412 9.588 16 14 16Z"/>
</mask>
<path fill-rule="evenodd" clip-rule="evenodd" d="M28 30.2213C28 31.2027 27.106 31.9991 26 31.9991C24.894 31.9991 24 31.2027 24 30.2213C24 25.32 19.514 21.3325 14 21.3325C8.486 21.3325 4 25.32 4 30.2213C4 31.2027 3.106 31.9991 2 31.9991C0.894 31.9991 0 31.2027 0 30.2213C0 23.3592 6.282 17.777 14 17.777C21.718 17.777 28 23.3592 28 30.2213ZM14 4C16.206 4 18 5.794 18 8C18 10.206 16.206 12 14 12C11.794 12 10 10.206 10 8C10 5.794 11.794 4 14 4ZM14 16C18.412 16 22 12.412 22 8C22 3.588 18.412 0 14 0C9.588 0 6 3.588 6 8C6 12.412 9.588 16 14 16Z" fill="#276899"/>
<path d="M26 30.2213C26 30.1583 26.0152 30.0997 26.0367 30.0545C26.0571 30.0116 26.0782 29.9904 26.0855 29.9838C26.098 29.9727 26.0739 29.9991 26 29.9991V33.9991C27.984 33.9991 30 32.521 30 30.2213H26ZM26 29.9991C25.9261 29.9991 25.902 29.9727 25.9145 29.9838C25.9218 29.9904 25.9429 30.0116 25.9633 30.0544C25.9848 30.0997 26 30.1583 26 30.2213H22C22 32.521 24.016 33.9991 26 33.9991V29.9991ZM26 30.2213C26 24.0005 20.3906 19.3325 14 19.3325V23.3325C18.6374 23.3325 22 26.6396 22 30.2213H26ZM14 19.3325C7.60941 19.3325 2 24.0005 2 30.2213H6C6 26.6396 9.36259 23.3325 14 23.3325V19.3325ZM2 30.2213C2 30.1583 2.01522 30.0997 2.03673 30.0545C2.05709 30.0116 2.07819 29.9904 2.08552 29.9838C2.09804 29.9727 2.0739 29.9991 2 29.9991V33.9991C3.98396 33.9991 6 32.521 6 30.2213H2ZM2 29.9991C1.9261 29.9991 1.90196 29.9727 1.91448 29.9838C1.92181 29.9904 1.94291 30.0116 1.96327 30.0545C1.98478 30.0997 2 30.1583 2 30.2213H-2C-2 32.521 0.0160404 33.9991 2 33.9991V29.9991ZM2 30.2213C2 24.6789 7.1584 19.777 14 19.777V15.777C5.4056 15.777 -2 22.0395 -2 30.2213H2ZM14 19.777C20.8416 19.777 26 24.6789 26 30.2213H30C30 22.0395 22.5944 15.777 14 15.777V19.777ZM14 6C15.1014 6 16 6.89857 16 8H20C20 4.68943 17.3106 2 14 2V6ZM16 8C16 9.10143 15.1014 10 14 10V14C17.3106 14 20 11.3106 20 8H16ZM14 10C12.8986 10 12 9.10143 12 8H8C8 11.3106 10.6894 14 14 14V10ZM12 8C12 6.89857 12.8986 6 14 6V2C10.6894 2 8 4.68943 8 8H12ZM14 18C19.5166 18 24 13.5166 24 8H20C20 11.3074 17.3074 14 14 14V18ZM24 8C24 2.48343 19.5166 -2 14 -2V2C17.3074 2 20 4.69257 20 8H24ZM14 -2C8.48343 -2 4 2.48343 4 8H8C8 4.69257 10.6926 2 14 2V-2ZM4 8C4 13.5166 8.48343 18 14 18V14C10.6926 14 8 11.3074 8 8H4Z" fill="#276899" mask="url(#path-1-inside-1_3377_11775)"/>
</svg>
