<svg width="89" height="80" viewBox="0 0 89 80" fill="none" xmlns="http://www.w3.org/2000/svg">
<g filter="url(#filter0_d)">
<rect x="17" y="16" width="57" height="48" rx="8" fill="#17212B"/>
</g>
<g filter="url(#filter1_d)">
<path fill-rule="evenodd" clip-rule="evenodd" d="M38.0625 38.5625H32.4375V32.9375C32.4375 32.4191 32.0175 32 31.5 32C30.9825 32 30.5625 32.4191 30.5625 32.9375V38.5625H24.9375C24.42 38.5625 24 38.9816 24 39.5C24 40.0184 24.42 40.4375 24.9375 40.4375H30.5625V46.0625C30.5625 46.5809 30.9825 47 31.5 47C32.0175 47 32.4375 46.5809 32.4375 46.0625V40.4375H38.0625C38.58 40.4375 39 40.0184 39 39.5C39 38.9816 38.58 38.5625 38.0625 38.5625Z" fill="#276899"/>
</g>
<g filter="url(#filter2_d)">
<path fill-rule="evenodd" clip-rule="evenodd" d="M67 44.5865C67 45.4149 66.4253 46.0872 65.7143 46.0872C65.0033 46.0872 64.4286 45.4149 64.4286 44.5865C64.4286 40.4492 61.5447 37.0832 58 37.0832C54.4553 37.0832 51.5714 40.4492 51.5714 44.5865C51.5714 45.4149 50.9967 46.0872 50.2857 46.0872C49.5747 46.0872 49 45.4149 49 44.5865C49 38.794 53.0384 34.0819 58 34.0819C62.9616 34.0819 67 38.794 67 44.5865ZM58.1878 30.6969C60.1315 30.6969 61.4379 29.2709 61.4379 27.8485C61.4379 26.426 60.1315 25 58.1878 25C56.244 25 54.9376 26.426 54.9376 27.8485C54.9376 29.2709 56.244 30.6969 58.1878 30.6969ZM63.4379 27.8485C63.4379 30.5224 61.0832 32.6969 58.1878 32.6969C55.2923 32.6969 52.9376 30.5224 52.9376 27.8485C52.9376 25.1745 55.2923 23 58.1878 23C61.0832 23 63.4379 25.1745 63.4379 27.8485Z" fill="#276899"/>
</g>
<mask id="path-4-inside-1" fill="white">
<path fill-rule="evenodd" clip-rule="evenodd" d="M49.5 50.7051C50.8788 50.7051 52 51.7405 52 53.0138C52 54.2871 50.8788 55.3225 49.5 55.3225C48.1213 55.3225 47 54.2871 47 53.0138C47 51.7405 48.1213 50.7051 49.5 50.7051Z"/>
</mask>
<path d="M49.5 54.7051C48.9754 54.7051 48 54.2435 48 53.0138H56C56 49.2376 52.7821 46.7051 49.5 46.7051V54.7051ZM48 53.0138C48 51.7841 48.9754 51.3225 49.5 51.3225V59.3225C52.7821 59.3225 56 56.79 56 53.0138H48ZM49.5 51.3225C50.0246 51.3225 51 51.7841 51 53.0138H43C43 56.79 46.2179 59.3225 49.5 59.3225V51.3225ZM51 53.0138C51 54.2435 50.0246 54.7051 49.5 54.7051V46.7051C46.2179 46.7051 43 49.2376 43 53.0138H51Z" fill="#276899" mask="url(#path-4-inside-1)"/>
<mask id="path-6-inside-2" fill="white">
<path fill-rule="evenodd" clip-rule="evenodd" d="M58 52.459C59.6545 52.459 61 53.7015 61 55.2294C61 56.7574 59.6545 57.9999 58 57.9999C56.3455 57.9999 55 56.7574 55 55.2294C55 53.7015 56.3455 52.459 58 52.459Z"/>
</mask>
<path d="M58 57.459C57.2753 57.459 56 56.8302 56 55.2294H66C66 50.5728 62.0337 47.459 58 47.459V57.459ZM56 55.2294C56 53.6287 57.2753 52.9999 58 52.9999V62.9999C62.0337 62.9999 66 59.8861 66 55.2294H56ZM58 52.9999C58.7247 52.9999 60 53.6287 60 55.2294H50C50 59.8861 53.9663 62.9999 58 62.9999V52.9999ZM60 55.2294C60 56.8302 58.7247 57.459 58 57.459V47.459C53.9663 47.459 50 50.5728 50 55.2294H60Z" fill="#276899" mask="url(#path-6-inside-2)"/>
<mask id="path-8-inside-3" fill="white">
<path fill-rule="evenodd" clip-rule="evenodd" d="M66.5 50.7051C67.8788 50.7051 69 51.7405 69 53.0138C69 54.2871 67.8788 55.3225 66.5 55.3225C65.1213 55.3225 64 54.2871 64 53.0138C64 51.7405 65.1213 50.7051 66.5 50.7051Z"/>
</mask>
<path d="M66.5 54.7051C65.9754 54.7051 65 54.2435 65 53.0138H73C73 49.2376 69.7821 46.7051 66.5 46.7051V54.7051ZM65 53.0138C65 51.7841 65.9754 51.3225 66.5 51.3225V59.3225C69.7821 59.3225 73 56.79 73 53.0138H65ZM66.5 51.3225C67.0246 51.3225 68 51.7841 68 53.0138H60C60 56.79 63.2179 59.3225 66.5 59.3225V51.3225ZM68 53.0138C68 54.2435 67.0246 54.7051 66.5 54.7051V46.7051C63.2179 46.7051 60 49.2376 60 53.0138H68Z" fill="#276899" mask="url(#path-8-inside-3)"/>
<mask id="path-10-inside-4" fill="white">
<path fill-rule="evenodd" clip-rule="evenodd" d="M58 39.6221C59.103 39.6221 60 40.4504 60 41.469C60 42.4877 59.103 43.316 58 43.316C56.897 43.316 56 42.4877 56 41.469C56 40.4504 56.897 39.6221 58 39.6221Z"/>
</mask>
<path d="M58 42.6221C57.7968 42.6221 57.5702 42.5447 57.3783 42.3675C57.1827 42.1869 57 41.8716 57 41.469H63C63 38.5732 60.5305 36.6221 58 36.6221V42.6221ZM57 41.469C57 41.0664 57.1827 40.7512 57.3783 40.5706C57.5702 40.3934 57.7968 40.316 58 40.316V46.316C60.5305 46.316 63 44.3649 63 41.469H57ZM58 40.316C58.2032 40.316 58.4298 40.3934 58.6217 40.5706C58.8173 40.7512 59 41.0664 59 41.469H53C53 44.3649 55.4695 46.316 58 46.316V40.316ZM59 41.469C59 41.8716 58.8173 42.1869 58.6217 42.3675C58.4298 42.5447 58.2032 42.6221 58 42.6221V36.6221C55.4695 36.6221 53 38.5732 53 41.469H59Z" fill="#276899" mask="url(#path-10-inside-4)"/>
<path d="M58.5 43.3164C58.5 43.0403 58.2761 42.8164 58 42.8164C57.7239 42.8164 57.5 43.0403 57.5 43.3164H58.5ZM51.304 51.1678L50.844 51.3639L51.2361 52.2838L51.696 52.0878L51.304 51.1678ZM57.5 52.3652C57.5 52.6414 57.7239 52.8652 58 52.8652C58.2761 52.8652 58.5 52.6414 58.5 52.3652H57.5ZM64.304 52.0878L64.7639 52.2838L65.156 51.3639L64.696 51.1678L64.304 52.0878ZM57.5 43.3164V48.8573H58.5V43.3164H57.5ZM57.804 48.3974L51.304 51.1678L51.696 52.0878L58.196 49.3173L57.804 48.3974ZM57.5 48.8573V52.3652H58.5V48.8573H57.5ZM57.804 49.3173L64.304 52.0878L64.696 51.1678L58.196 48.3974L57.804 49.3173Z" fill="#276899"/>
<defs>
<filter id="filter0_d" x="0" y="0" width="89" height="80" filterUnits="userSpaceOnUse" color-interpolation-filters="sRGB">
<feFlood flood-opacity="0" result="BackgroundImageFix"/>
<feColorMatrix in="SourceAlpha" type="matrix" values="0 0 0 0 0 0 0 0 0 0 0 0 0 0 0 0 0 0 127 0"/>
<feOffset dx="-1"/>
<feGaussianBlur stdDeviation="8"/>
<feColorMatrix type="matrix" values="0 0 0 0 0 0 0 0 0 0 0 0 0 0 0 0 0 0 0.15 0"/>
<feBlend mode="normal" in2="BackgroundImageFix" result="effect1_dropShadow"/>
<feBlend mode="normal" in="SourceGraphic" in2="effect1_dropShadow" result="shape"/>
</filter>
<filter id="filter1_d" x="20" y="32" width="23" height="23" filterUnits="userSpaceOnUse" color-interpolation-filters="sRGB">
<feFlood flood-opacity="0" result="BackgroundImageFix"/>
<feColorMatrix in="SourceAlpha" type="matrix" values="0 0 0 0 0 0 0 0 0 0 0 0 0 0 0 0 0 0 127 0"/>
<feOffset dy="4"/>
<feGaussianBlur stdDeviation="2"/>
<feColorMatrix type="matrix" values="0 0 0 0 0 0 0 0 0 0 0 0 0 0 0 0 0 0 0.25 0"/>
<feBlend mode="normal" in2="BackgroundImageFix" result="effect1_dropShadow"/>
<feBlend mode="normal" in="SourceGraphic" in2="effect1_dropShadow" result="shape"/>
</filter>
<filter id="filter2_d" x="45" y="23" width="26" height="31.0872" filterUnits="userSpaceOnUse" color-interpolation-filters="sRGB">
<feFlood flood-opacity="0" result="BackgroundImageFix"/>
<feColorMatrix in="SourceAlpha" type="matrix" values="0 0 0 0 0 0 0 0 0 0 0 0 0 0 0 0 0 0 127 0"/>
<feOffset dy="4"/>
<feGaussianBlur stdDeviation="2"/>
<feColorMatrix type="matrix" values="0 0 0 0 0 0 0 0 0 0 0 0 0 0 0 0 0 0 0.25 0"/>
<feBlend mode="normal" in2="BackgroundImageFix" result="effect1_dropShadow"/>
<feBlend mode="normal" in="SourceGraphic" in2="effect1_dropShadow" result="shape"/>
</filter>
</defs>
</svg>
