<svg width="57" height="48" viewBox="0 0 57 48" fill="none" xmlns="http://www.w3.org/2000/svg">
<rect width="57" height="48" rx="8" fill="#17212B"/>
<mask id="path-2-inside-1" fill="white">
<path fill-rule="evenodd" clip-rule="evenodd" d="M50 38.2213C50 39.2027 49.106 39.9991 48 39.9991C46.894 39.9991 46 39.2027 46 38.2213C46 33.32 41.514 29.3325 36 29.3325C30.486 29.3325 26 33.32 26 38.2213C26 39.2027 25.106 39.9991 24 39.9991C22.894 39.9991 22 39.2027 22 38.2213C22 31.3592 28.282 25.777 36 25.777C43.718 25.777 50 31.3592 50 38.2213ZM36 12C38.206 12 40 13.794 40 16C40 18.206 38.206 20 36 20C33.794 20 32 18.206 32 16C32 13.794 33.794 12 36 12ZM36 24C40.412 24 44 20.412 44 16C44 11.588 40.412 8 36 8C31.588 8 28 11.588 28 16C28 20.412 31.588 24 36 24Z"/>
</mask>
<path fill-rule="evenodd" clip-rule="evenodd" d="M50 38.2213C50 39.2027 49.106 39.9991 48 39.9991C46.894 39.9991 46 39.2027 46 38.2213C46 33.32 41.514 29.3325 36 29.3325C30.486 29.3325 26 33.32 26 38.2213C26 39.2027 25.106 39.9991 24 39.9991C22.894 39.9991 22 39.2027 22 38.2213C22 31.3592 28.282 25.777 36 25.777C43.718 25.777 50 31.3592 50 38.2213ZM36 12C38.206 12 40 13.794 40 16C40 18.206 38.206 20 36 20C33.794 20 32 18.206 32 16C32 13.794 33.794 12 36 12ZM36 24C40.412 24 44 20.412 44 16C44 11.588 40.412 8 36 8C31.588 8 28 11.588 28 16C28 20.412 31.588 24 36 24Z" fill="#276899"/>
<path d="M48 38.2213C48 38.1583 48.0152 38.0997 48.0367 38.0545C48.0571 38.0116 48.0782 37.9904 48.0855 37.9838C48.098 37.9727 48.0739 37.9991 48 37.9991V41.9991C49.984 41.9991 52 40.521 52 38.2213H48ZM48 37.9991C47.9261 37.9991 47.902 37.9727 47.9145 37.9838C47.9218 37.9904 47.9429 38.0116 47.9633 38.0544C47.9848 38.0997 48 38.1583 48 38.2213H44C44 40.521 46.016 41.9991 48 41.9991V37.9991ZM48 38.2213C48 32.0005 42.3906 27.3325 36 27.3325V31.3325C40.6374 31.3325 44 34.6396 44 38.2213H48ZM36 27.3325C29.6094 27.3325 24 32.0005 24 38.2213H28C28 34.6396 31.3626 31.3325 36 31.3325V27.3325ZM24 38.2213C24 38.1583 24.0152 38.0997 24.0367 38.0545C24.0571 38.0116 24.0782 37.9904 24.0855 37.9838C24.098 37.9727 24.0739 37.9991 24 37.9991V41.9991C25.984 41.9991 28 40.521 28 38.2213H24ZM24 37.9991C23.9261 37.9991 23.902 37.9727 23.9145 37.9838C23.9218 37.9904 23.9429 38.0116 23.9633 38.0545C23.9848 38.0997 24 38.1583 24 38.2213H20C20 40.521 22.016 41.9991 24 41.9991V37.9991ZM24 38.2213C24 32.6789 29.1584 27.777 36 27.777V23.777C27.4056 23.777 20 30.0395 20 38.2213H24ZM36 27.777C42.8416 27.777 48 32.6789 48 38.2213H52C52 30.0395 44.5944 23.777 36 23.777V27.777ZM36 14C37.1014 14 38 14.8986 38 16H42C42 12.6894 39.3106 10 36 10V14ZM38 16C38 17.1014 37.1014 18 36 18V22C39.3106 22 42 19.3106 42 16H38ZM36 18C34.8986 18 34 17.1014 34 16H30C30 19.3106 32.6894 22 36 22V18ZM34 16C34 14.8986 34.8986 14 36 14V10C32.6894 10 30 12.6894 30 16H34ZM36 26C41.5166 26 46 21.5166 46 16H42C42 19.3074 39.3074 22 36 22V26ZM46 16C46 10.4834 41.5166 6 36 6V10C39.3074 10 42 12.6926 42 16H46ZM36 6C30.4834 6 26 10.4834 26 16H30C30 12.6926 32.6926 10 36 10V6ZM26 16C26 21.5166 30.4834 26 36 26V22C32.6926 22 30 19.3074 30 16H26Z" fill="#276899" mask="url(#path-2-inside-1)"/>
<path fill-rule="evenodd" clip-rule="evenodd" d="M21.0625 23.5625H15.4375V17.9375C15.4375 17.4191 15.0175 17 14.5 17C13.9825 17 13.5625 17.4191 13.5625 17.9375V23.5625H7.9375C7.42 23.5625 7 23.9816 7 24.5C7 25.0184 7.42 25.4375 7.9375 25.4375H13.5625V31.0625C13.5625 31.5809 13.9825 32 14.5 32C15.0175 32 15.4375 31.5809 15.4375 31.0625V25.4375H21.0625C21.58 25.4375 22 25.0184 22 24.5C22 23.9816 21.58 23.5625 21.0625 23.5625Z" fill="#276899"/>
</svg>
