<svg width="20" height="26" viewBox="0 0 20 26" fill="none" xmlns="http://www.w3.org/2000/svg">
<mask id="path-1-inside-1_3477_10501" fill="white">
<path fill-rule="evenodd" clip-rule="evenodd" d="M5.70898 19.7589V6.24133L13.7347 12.9988L5.70898 19.7589ZM8.11143 1.17758C6.68857 -0.0236354 4.61143 -0.335638 2.82286 0.379368C1.08 1.07097 0 2.55039 0 4.2378V21.7646C0 23.452 1.08 24.9314 2.82286 25.623C3.46 25.8778 4.13714 26 4.80286 26C6.01143 26 7.19714 25.597 8.10857 24.8274L18.5143 16.0653C19.46 15.2697 20 14.1543 20 12.9999C20 11.8481 19.46 10.7301 18.5143 9.93705L8.11143 1.17758Z"/>
</mask>
<path fill-rule="evenodd" clip-rule="evenodd" d="M5.70898 19.7589V6.24133L13.7347 12.9988L5.70898 19.7589ZM8.11143 1.17758C6.68857 -0.0236354 4.61143 -0.335638 2.82286 0.379368C1.08 1.07097 0 2.55039 0 4.2378V21.7646C0 23.452 1.08 24.9314 2.82286 25.623C3.46 25.8778 4.13714 26 4.80286 26C6.01143 26 7.19714 25.597 8.10857 24.8274L18.5143 16.0653C19.46 15.2697 20 14.1543 20 12.9999C20 11.8481 19.46 10.7301 18.5143 9.93705L8.11143 1.17758Z" fill="#8AA8D4"/>
<path d="M5.70898 19.7589H4.70898C4.70898 20.1478 4.93454 20.5015 5.28722 20.6656C5.6399 20.8296 6.05571 20.7743 6.35321 20.5237L5.70898 19.7589ZM5.70898 6.24133L6.35306 5.47637C6.05554 5.22587 5.63976 5.1706 5.28713 5.33467C4.9345 5.49874 4.70898 5.8524 4.70898 6.24133H5.70898ZM13.7347 12.9988L14.3789 13.7636C14.6045 13.5736 14.7347 13.2937 14.7347 12.9987C14.7347 12.7037 14.6044 12.4238 14.3788 12.2338L13.7347 12.9988ZM8.11143 1.17758L7.46635 1.94169L7.46733 1.94252L8.11143 1.17758ZM2.82286 0.379368L3.1917 1.30886L3.19406 1.30792L2.82286 0.379368ZM2.82286 25.623L3.19418 24.6945L3.1917 24.6935L2.82286 25.623ZM8.10857 24.8274L7.46446 24.0625L7.46341 24.0633L8.10857 24.8274ZM18.5143 16.0653L17.8705 15.3001L17.8702 15.3004L18.5143 16.0653ZM18.5143 9.93705L17.8702 10.702L17.8718 10.7033L18.5143 9.93705ZM6.70898 19.7589V6.24133H4.70898V19.7589H6.70898ZM5.06491 7.00629L13.0906 13.7638L14.3788 12.2338L6.35306 5.47637L5.06491 7.00629ZM13.0905 12.234L5.06476 18.994L6.35321 20.5237L14.3789 13.7636L13.0905 12.234ZM8.75651 0.413463C7.03856 -1.03687 4.56759 -1.39506 2.45166 -0.549184L3.19406 1.30792C4.65526 0.723784 6.33858 0.989603 7.46635 1.94169L8.75651 0.413463ZM2.45401 -0.550123C0.383646 0.271447 -1 2.08581 -1 4.2378H1C1 3.01497 1.77635 1.8705 3.1917 1.30886L2.45401 -0.550123ZM-1 4.2378V21.7646H1V4.2378H-1ZM-1 21.7646C-1 23.9166 0.383646 25.7309 2.45401 26.5525L3.1917 24.6935C1.77635 24.1319 1 22.9874 1 21.7646H-1ZM2.45154 26.5515C3.2124 26.8558 4.01614 27 4.80286 27V25C4.25814 25 3.7076 24.8998 3.19418 24.6945L2.45154 26.5515ZM4.80286 27C6.22848 27 7.64777 26.5253 8.75373 25.5914L7.46341 24.0633C6.74651 24.6687 5.79437 25 4.80286 25V27ZM8.75268 25.5923L19.1584 16.8302L17.8702 15.3004L7.46446 24.0625L8.75268 25.5923ZM19.1581 16.8305C20.3119 15.8598 21 14.4718 21 12.9999H19C19 13.8367 18.6081 14.6796 17.8705 15.3001L19.1581 16.8305ZM21 12.9999C21 11.5311 20.3123 10.1397 19.1568 9.17079L17.8718 10.7033C18.6077 11.3204 19 12.1651 19 12.9999H21ZM19.1584 9.17211L8.75553 0.412635L7.46733 1.94252L17.8702 10.702L19.1584 9.17211Z" fill="white" mask="url(#path-1-inside-1_3477_10501)"/>
</svg>
