<svg width="268" height="60" viewBox="0 0 268 60" fill="none" xmlns="http://www.w3.org/2000/svg">
<g filter="url(#filter0_d)">
<rect x="12" width="244" height="52" rx="8" fill="#232C36"/>
</g>
<g filter="url(#filter1_d)">
<circle cx="212" cy="26" r="16" fill="#515960"/>
</g>
<path fill-rule="evenodd" clip-rule="evenodd" d="M202.885 24.5465C204.224 25.0061 205.291 26.1269 205.737 27.5477L205.785 27.6917C206.296 29.1989 206.089 30.8213 205.232 32.0381C205.076 32.2589 205.111 32.5229 205.275 32.6477L207.761 34.5365C207.849 34.6025 207.934 34.6025 207.987 34.5965C208.047 34.5869 208.135 34.5545 208.205 34.4537L208.483 34.0601C209.309 32.8877 210.641 32.1641 212.048 32.1233C213.627 32.0909 215.045 32.8145 215.928 34.0901L216.07 34.2953C216.141 34.3961 216.227 34.4297 216.288 34.4393C216.341 34.4501 216.427 34.4465 216.514 34.3793L218.987 32.5133C219.16 32.3837 219.198 32.1065 219.07 31.9205L218.758 31.4705C217.954 30.3089 217.715 28.8017 218.119 27.4397C218.558 25.9565 219.676 24.7829 221.109 24.3029L221.351 24.2213C221.544 24.1577 221.648 23.9177 221.58 23.6969L220.635 20.6717C220.591 20.5301 220.5 20.4665 220.449 20.4401C220.378 20.4029 220.3 20.3969 220.225 20.4221L219.817 20.5577C218.422 21.0221 216.882 20.7701 215.7 19.8809L215.571 19.7837C214.447 18.9389 213.779 17.5769 213.784 16.1417L213.786 15.8057C213.786 15.6461 213.711 15.5465 213.665 15.5009C213.622 15.4565 213.549 15.4037 213.446 15.4037L210.389 15.4001C210.202 15.4001 210.05 15.5789 210.049 15.7997L210.047 16.0901C210.041 17.5481 209.359 18.9353 208.221 19.8029L208.066 19.9205C206.815 20.8721 205.183 21.1409 203.705 20.6369C203.648 20.6177 203.595 20.6213 203.545 20.6477C203.507 20.6669 203.437 20.7161 203.403 20.8253L202.423 23.9405C202.352 24.1673 202.469 24.4037 202.688 24.4793L202.885 24.5465ZM207.938 37C207.355 37 206.789 36.8104 206.311 36.4468L203.825 34.5592C202.637 33.6592 202.374 31.9276 203.238 30.7C203.687 30.064 203.779 29.2468 203.515 28.4716L203.449 28.27C203.23 27.5716 202.728 27.0292 202.108 26.8168H202.107L201.911 26.7484C200.449 26.248 199.67 24.6988 200.134 23.2204L201.113 20.1064C201.335 19.402 201.814 18.8332 202.462 18.5056C203.095 18.1864 203.812 18.1372 204.481 18.3664C205.2 18.6112 205.998 18.478 206.613 18.01L206.768 17.8924C207.315 17.4748 207.645 16.7968 207.648 16.0804L207.649 15.7912C207.655 14.2504 208.885 13 210.388 13H210.393L213.449 13.0036C214.172 13.0048 214.853 13.2904 215.367 13.8076C215.898 14.3416 216.189 15.0556 216.186 15.8176L216.184 16.1524C216.182 16.8316 216.492 17.4736 217.017 17.8672L217.145 17.9644C217.696 18.3784 218.414 18.4972 219.058 18.2812L219.465 18.1456C220.157 17.9152 220.894 17.9716 221.543 18.304C222.209 18.6448 222.701 19.2316 222.926 19.9576L223.871 22.9828C224.327 24.4444 223.537 26.0212 222.113 26.4976L221.872 26.578C221.181 26.8108 220.637 27.3868 220.42 28.1212C220.221 28.7944 220.336 29.5348 220.731 30.1036L221.043 30.5536C221.899 31.792 221.626 33.5296 220.433 34.4284L217.96 36.2956C217.366 36.7444 216.638 36.9256 215.907 36.8092C215.17 36.6904 214.527 36.2824 214.096 35.6608L213.955 35.4544C213.535 34.8496 212.863 34.4824 212.158 34.522C211.453 34.5412 210.843 34.876 210.445 35.4424L210.168 35.836C209.733 36.4516 209.089 36.8536 208.356 36.9688C208.215 36.9904 208.076 37 207.938 37ZM212.001 23.1997C211.009 23.1997 210.201 24.0073 210.201 24.9997C210.201 25.9921 211.009 26.7997 212.001 26.7997C212.993 26.7997 213.801 25.9921 213.801 24.9997C213.801 24.0073 212.993 23.1997 212.001 23.1997ZM212.001 29.1999C209.686 29.1999 207.802 27.3159 207.802 24.9999C207.802 22.6839 209.686 20.7999 212.001 20.7999C214.317 20.7999 216.201 22.6839 216.201 24.9999C216.201 27.3159 214.317 29.1999 212.001 29.1999Z" fill="#232C36"/>
<path d="M81.8184 29.3633H77.1953L76.3164 32H73.5127L78.2764 19.2031H80.7197L85.5098 32H82.7061L81.8184 29.3633ZM77.9072 27.2275H81.1064L79.498 22.4375L77.9072 27.2275ZM88.4541 22.4902L88.5332 23.5889C89.2129 22.7393 90.124 22.3145 91.2666 22.3145C92.2744 22.3145 93.0244 22.6104 93.5166 23.2021C94.0088 23.7939 94.2607 24.6787 94.2725 25.8564V32H91.7324V25.918C91.7324 25.3789 91.6152 24.9893 91.3809 24.749C91.1465 24.5029 90.7568 24.3799 90.2119 24.3799C89.4971 24.3799 88.9609 24.6846 88.6035 25.2939V32H86.0635V22.4902H88.4541ZM98.5439 22.4902L98.623 23.5889C99.3027 22.7393 100.214 22.3145 101.356 22.3145C102.364 22.3145 103.114 22.6104 103.606 23.2021C104.099 23.7939 104.351 24.6787 104.362 25.8564V32H101.822V25.918C101.822 25.3789 101.705 24.9893 101.471 24.749C101.236 24.5029 100.847 24.3799 100.302 24.3799C99.5869 24.3799 99.0508 24.6846 98.6934 25.2939V32H96.1533V22.4902H98.5439ZM105.9 27.1572C105.9 26.2139 106.082 25.373 106.445 24.6348C106.809 23.8965 107.33 23.3252 108.01 22.9209C108.695 22.5166 109.489 22.3145 110.392 22.3145C111.675 22.3145 112.721 22.707 113.529 23.4922C114.344 24.2773 114.798 25.3438 114.892 26.6914L114.909 27.3418C114.909 28.8008 114.502 29.9727 113.688 30.8574C112.873 31.7363 111.78 32.1758 110.409 32.1758C109.038 32.1758 107.942 31.7363 107.122 30.8574C106.308 29.9785 105.9 28.7832 105.9 27.2715V27.1572ZM108.44 27.3418C108.44 28.2441 108.61 28.9355 108.95 29.416C109.29 29.8906 109.776 30.1279 110.409 30.1279C111.024 30.1279 111.505 29.8936 111.851 29.4248C112.196 28.9502 112.369 28.1943 112.369 27.1572C112.369 26.2725 112.196 25.5869 111.851 25.1006C111.505 24.6143 111.019 24.3711 110.392 24.3711C109.771 24.3711 109.29 24.6143 108.95 25.1006C108.61 25.5811 108.44 26.3281 108.44 27.3418ZM122.169 31.0332C121.542 31.7949 120.675 32.1758 119.567 32.1758C118.548 32.1758 117.769 31.8828 117.229 31.2969C116.696 30.7109 116.424 29.8525 116.412 28.7217V22.4902H118.952V28.6338C118.952 29.624 119.403 30.1191 120.306 30.1191C121.167 30.1191 121.759 29.8203 122.081 29.2227V22.4902H124.63V32H122.239L122.169 31.0332ZM128.884 22.4902L128.963 23.5889C129.643 22.7393 130.554 22.3145 131.696 22.3145C132.704 22.3145 133.454 22.6104 133.946 23.2021C134.438 23.7939 134.69 24.6787 134.702 25.8564V32H132.162V25.918C132.162 25.3789 132.045 24.9893 131.811 24.749C131.576 24.5029 131.187 24.3799 130.642 24.3799C129.927 24.3799 129.391 24.6846 129.033 25.2939V32H126.493V22.4902H128.884ZM140.591 30.1279C141.06 30.1279 141.44 29.999 141.733 29.7412C142.026 29.4834 142.179 29.1406 142.19 28.7129H144.572C144.566 29.3574 144.391 29.9492 144.045 30.4883C143.699 31.0215 143.225 31.4375 142.621 31.7363C142.023 32.0293 141.361 32.1758 140.635 32.1758C139.275 32.1758 138.203 31.7451 137.418 30.8838C136.633 30.0166 136.24 28.8213 136.24 27.2979V27.1309C136.24 25.666 136.63 24.4971 137.409 23.624C138.188 22.751 139.258 22.3145 140.617 22.3145C141.807 22.3145 142.759 22.6543 143.474 23.334C144.194 24.0078 144.561 24.9072 144.572 26.0322H142.19C142.179 25.54 142.026 25.1416 141.733 24.8369C141.44 24.5264 141.054 24.3711 140.573 24.3711C139.981 24.3711 139.533 24.5879 139.229 25.0215C138.93 25.4492 138.78 26.1465 138.78 27.1133V27.377C138.78 28.3555 138.93 29.0586 139.229 29.4863C139.527 29.9141 139.981 30.1279 140.591 30.1279ZM148.404 22.4902L148.483 23.5537C149.157 22.7275 150.068 22.3145 151.217 22.3145C152.441 22.3145 153.282 22.7979 153.739 23.7646C154.407 22.7979 155.359 22.3145 156.596 22.3145C157.627 22.3145 158.395 22.6162 158.898 23.2197C159.402 23.8174 159.654 24.7197 159.654 25.9268V32H157.105V25.9355C157.105 25.3965 157 25.0039 156.789 24.7578C156.578 24.5059 156.206 24.3799 155.673 24.3799C154.911 24.3799 154.384 24.7432 154.091 25.4697L154.1 32H151.56V25.9443C151.56 25.3936 151.451 24.9951 151.234 24.749C151.018 24.5029 150.648 24.3799 150.127 24.3799C149.406 24.3799 148.885 24.6787 148.562 25.2764V32H146.022V22.4902H148.404ZM165.991 32.1758C164.597 32.1758 163.46 31.748 162.581 30.8926C161.708 30.0371 161.271 28.8975 161.271 27.4736V27.2275C161.271 26.2725 161.456 25.4199 161.825 24.6699C162.194 23.9141 162.716 23.334 163.39 22.9297C164.069 22.5195 164.843 22.3145 165.71 22.3145C167.011 22.3145 168.033 22.7246 168.777 23.5449C169.527 24.3652 169.902 25.5283 169.902 27.0342V28.0713H163.847C163.929 28.6924 164.175 29.1904 164.585 29.5654C165.001 29.9404 165.525 30.1279 166.158 30.1279C167.137 30.1279 167.901 29.7734 168.452 29.0645L169.7 30.4619C169.319 31.001 168.804 31.4229 168.153 31.7275C167.503 32.0264 166.782 32.1758 165.991 32.1758ZM165.701 24.3711C165.197 24.3711 164.787 24.541 164.471 24.8809C164.16 25.2207 163.961 25.707 163.873 26.3398H167.406V26.1377C167.395 25.5752 167.242 25.1416 166.949 24.8369C166.656 24.5264 166.24 24.3711 165.701 24.3711ZM173.69 22.4902L173.77 23.5889C174.449 22.7393 175.36 22.3145 176.503 22.3145C177.511 22.3145 178.261 22.6104 178.753 23.2021C179.245 23.7939 179.497 24.6787 179.509 25.8564V32H176.969V25.918C176.969 25.3789 176.852 24.9893 176.617 24.749C176.383 24.5029 175.993 24.3799 175.448 24.3799C174.733 24.3799 174.197 24.6846 173.84 25.2939V32H171.3V22.4902H173.69ZM184.483 20.1523V22.4902H186.109V24.3535H184.483V29.0996C184.483 29.4512 184.551 29.7031 184.686 29.8555C184.82 30.0078 185.078 30.084 185.459 30.084C185.74 30.084 185.989 30.0635 186.206 30.0225V31.9473C185.708 32.0996 185.195 32.1758 184.668 32.1758C182.887 32.1758 181.979 31.2764 181.943 29.4775V24.3535H180.555V22.4902H181.943V20.1523H184.483Z" fill="white"/>
<circle cx="12" cy="27" r="12" fill="#276899"/>
<circle cx="256" cy="27" r="12" fill="#276899"/>
<path d="M261 26H251C250.448 26 250 26.4477 250 27C250 27.5523 250.448 28 251 28H261C261.552 28 262 27.5523 262 27C262 26.4477 261.552 26 261 26Z" fill="white"/>
<path d="M255 22V32C255 32.5523 255.448 33 256 33C256.552 33 257 32.5523 257 32V22C257 21.4477 256.552 21 256 21C255.448 21 255 21.4477 255 22Z" fill="white"/>
<defs>
<filter id="filter0_d" x="8" y="0" width="252" height="60" filterUnits="userSpaceOnUse" color-interpolation-filters="sRGB">
<feFlood flood-opacity="0" result="BackgroundImageFix"/>
<feColorMatrix in="SourceAlpha" type="matrix" values="0 0 0 0 0 0 0 0 0 0 0 0 0 0 0 0 0 0 127 0"/>
<feOffset dy="4"/>
<feGaussianBlur stdDeviation="2"/>
<feColorMatrix type="matrix" values="0 0 0 0 0 0 0 0 0 0 0 0 0 0 0 0 0 0 0.25 0"/>
<feBlend mode="normal" in2="BackgroundImageFix" result="effect1_dropShadow"/>
<feBlend mode="normal" in="SourceGraphic" in2="effect1_dropShadow" result="shape"/>
</filter>
<filter id="filter1_d" x="196" y="10" width="40" height="40" filterUnits="userSpaceOnUse" color-interpolation-filters="sRGB">
<feFlood flood-opacity="0" result="BackgroundImageFix"/>
<feColorMatrix in="SourceAlpha" type="matrix" values="0 0 0 0 0 0 0 0 0 0 0 0 0 0 0 0 0 0 127 0"/>
<feOffset dx="4" dy="4"/>
<feGaussianBlur stdDeviation="2"/>
<feColorMatrix type="matrix" values="0 0 0 0 0 0 0 0 0 0 0 0 0 0 0 0 0 0 0.25 0"/>
<feBlend mode="normal" in2="BackgroundImageFix" result="effect1_dropShadow"/>
<feBlend mode="normal" in="SourceGraphic" in2="effect1_dropShadow" result="shape"/>
</filter>
</defs>
</svg>
