<svg width="78" height="73" viewBox="0 0 78 73" fill="none" xmlns="http://www.w3.org/2000/svg">
<g filter="url(#filter0_d)">
<path d="M48.3958 34.7888C49.7663 35.5074 52.835 36.3159 54.0862 36.3159H54.98L55.0694 38.4718C55.1588 40.4481 55.2184 40.6577 55.8142 40.7475C56.6186 40.8673 56.8867 40.1187 56.7378 38.0227L56.6484 36.4656L58.287 36.256C64.617 35.4077 65.9679 33.3874 68.8932 30.7464C74.4942 25.147 75.6263 16.2238 71.6043 9.06731C71.0978 8.169 69.7572 6.46222 68.5953 5.29443C64.5732 1.282 59.5085 -0.484665 53.6989 0.114204C49.5876 0.563358 46.3104 2.21025 43.063 5.44415C40.322 8.19895 38.8324 11.0136 38.0876 14.8464L37.5811 17.4215L35.4956 17.5114C33.6485 17.6012 33.4102 17.6611 33.4102 18.2001C33.4102 18.7391 33.6485 18.7989 35.5254 18.8888L37.6407 18.9786L37.9982 21.0447C38.4153 23.56 40.1973 27.3987 40.1973 27.3987C40.43 28.0034 41.0911 28.7461 41.2754 29.0097C41.6031 29.7583 45.1187 33.0221 46.221 33.621L48.3958 34.7888ZM61.4152 2.44979C63.8582 3.31816 66.9865 5.53398 68.5953 7.51025C71.2468 10.7741 72.4087 14.0379 72.4087 18.2001C72.4087 28.6803 63.024 36.4057 52.5966 34.5492C49.1705 33.9504 44.9697 31.3153 42.8246 28.4408C37.6109 21.5238 38.2664 12.3012 44.4036 6.22268C46.37 4.27635 49.23 2.6594 51.7922 2.00064C54.116 1.40177 59.151 1.64132 61.4152 2.44979Z" fill="#276899"/>
<path d="M48.3958 34.7888C49.7663 35.5074 52.835 36.3159 54.0862 36.3159H54.98L55.0694 38.4718C55.1588 40.4481 55.2184 40.6577 55.8142 40.7475C56.6186 40.8673 56.8867 40.1187 56.7378 38.0227L56.6484 36.4656L58.287 36.256C64.617 35.4077 65.9679 33.3874 68.8932 30.7464C74.4942 25.147 75.6263 16.2238 71.6043 9.06731C71.0978 8.169 69.7572 6.46222 68.5953 5.29443C64.5732 1.282 59.5085 -0.484665 53.6989 0.114204C49.5876 0.563358 46.3104 2.21025 43.063 5.44415C40.322 8.19895 38.8324 11.0136 38.0876 14.8464L37.5811 17.4215L35.4956 17.5114C33.6485 17.6012 33.4102 17.6611 33.4102 18.2001C33.4102 18.7391 33.6485 18.7989 35.5254 18.8888L37.6407 18.9786L37.9982 21.0447C38.4153 23.56 40.1973 27.3987 40.1973 27.3987C40.43 28.0034 41.0911 28.7461 41.2754 29.0097C41.6031 29.7583 45.1187 33.0221 46.221 33.621L48.3958 34.7888ZM61.4152 2.44979C63.8582 3.31816 66.9865 5.53398 68.5953 7.51025C71.2468 10.7741 72.4087 14.0379 72.4087 18.2001C72.4087 28.6803 63.024 36.4057 52.5966 34.5492C49.1705 33.9504 44.9697 31.3153 42.8246 28.4408C37.6109 21.5238 38.2664 12.3012 44.4036 6.22268C46.37 4.27635 49.23 2.6594 51.7922 2.00064C54.116 1.40177 59.151 1.64132 61.4152 2.44979Z" fill="url(#paint0_linear)" fill-opacity="0.3"/>
<path d="M55.3652 4.93517C55.1566 5.14478 55.0076 5.95325 55.0076 6.73178C55.0076 7.92953 54.9183 8.16907 54.4714 8.16907C53.3393 8.16907 50.8069 9.72613 50.0025 10.9239C48.5724 13.1397 49.1981 16.2538 51.3134 17.5114C51.8198 17.8109 53.8159 18.4696 55.7525 18.9487C60.0128 20.0267 60.9662 20.7154 60.9662 22.7216C60.9662 24.9674 58.7317 26.734 55.9014 26.734C53.4286 26.734 50.8367 24.9674 50.8367 23.2905C50.8367 22.3323 50.0919 21.7634 49.496 22.2425C48.9299 22.7216 49.1385 24.0391 50.0025 25.4764C50.6579 26.5544 52.5349 27.7521 54.0543 28.0815C54.9778 28.2612 55.0076 28.3211 55.0076 29.7284C55.0076 31.1357 55.5439 32.064 56.1398 31.7047C56.2887 31.6148 56.5271 30.8064 56.6164 29.9081C56.825 28.3809 56.8846 28.2612 57.7784 28.0516C60.9364 27.3928 63.0814 24.5182 62.4558 21.7934C61.9493 19.4877 60.5193 18.4097 56.8846 17.5713C53.2201 16.7329 52.654 16.5533 51.7305 15.7747C50.9856 15.1459 50.8367 14.7866 50.8367 13.7086C50.8367 8.82783 59.9532 8.19902 60.9364 13.0199C61.1449 14.038 62.0387 14.547 62.4558 13.8583C62.7835 13.3493 62.3366 11.6425 61.5918 10.6244C60.9364 9.69619 58.2848 8.16907 57.3315 8.16907C56.8846 8.16907 56.7952 7.92953 56.7952 6.73178C56.7952 5.44421 56.4377 4.57585 55.9014 4.57585C55.812 4.57585 55.5737 4.72557 55.3652 4.93517Z" fill="#276899"/>
<path d="M55.3652 4.93517C55.1566 5.14478 55.0076 5.95325 55.0076 6.73178C55.0076 7.92953 54.9183 8.16907 54.4714 8.16907C53.3393 8.16907 50.8069 9.72613 50.0025 10.9239C48.5724 13.1397 49.1981 16.2538 51.3134 17.5114C51.8198 17.8109 53.8159 18.4696 55.7525 18.9487C60.0128 20.0267 60.9662 20.7154 60.9662 22.7216C60.9662 24.9674 58.7317 26.734 55.9014 26.734C53.4286 26.734 50.8367 24.9674 50.8367 23.2905C50.8367 22.3323 50.0919 21.7634 49.496 22.2425C48.9299 22.7216 49.1385 24.0391 50.0025 25.4764C50.6579 26.5544 52.5349 27.7521 54.0543 28.0815C54.9778 28.2612 55.0076 28.3211 55.0076 29.7284C55.0076 31.1357 55.5439 32.064 56.1398 31.7047C56.2887 31.6148 56.5271 30.8064 56.6164 29.9081C56.825 28.3809 56.8846 28.2612 57.7784 28.0516C60.9364 27.3928 63.0814 24.5182 62.4558 21.7934C61.9493 19.4877 60.5193 18.4097 56.8846 17.5713C53.2201 16.7329 52.654 16.5533 51.7305 15.7747C50.9856 15.1459 50.8367 14.7866 50.8367 13.7086C50.8367 8.82783 59.9532 8.19902 60.9364 13.0199C61.1449 14.038 62.0387 14.547 62.4558 13.8583C62.7835 13.3493 62.3366 11.6425 61.5918 10.6244C60.9364 9.69619 58.2848 8.16907 57.3315 8.16907C56.8846 8.16907 56.7952 7.92953 56.7952 6.73178C56.7952 5.44421 56.4377 4.57585 55.9014 4.57585C55.812 4.57585 55.5737 4.72557 55.3652 4.93517Z" fill="url(#paint1_linear)" fill-opacity="0.3"/>
<path d="M45.4737 9.57588C44.9375 10.1747 44.0735 11.5821 43.567 12.6601C42.7924 14.3069 42.6434 15.0555 42.5541 17.481C42.4051 20.6849 43.001 23.5295 43.8947 23.8589C44.8183 24.2182 44.9673 23.5595 44.431 21.5233C43.418 17.7504 44.282 13.5284 46.6654 10.5041C47.1719 9.90525 47.5592 9.18661 47.5592 8.94706C47.5592 8.10865 46.4569 8.43802 45.4737 9.57588Z" fill="#276899"/>
<path d="M45.4737 9.57588C44.9375 10.1747 44.0735 11.5821 43.567 12.6601C42.7924 14.3069 42.6434 15.0555 42.5541 17.481C42.4051 20.6849 43.001 23.5295 43.8947 23.8589C44.8183 24.2182 44.9673 23.5595 44.431 21.5233C43.418 17.7504 44.282 13.5284 46.6654 10.5041C47.1719 9.90525 47.5592 9.18661 47.5592 8.94706C47.5592 8.10865 46.4569 8.43802 45.4737 9.57588Z" fill="url(#paint2_linear)" fill-opacity="0.3"/>
<path d="M67.0749 12.6602C66.9557 12.8399 67.1046 13.8879 67.3728 14.9958C68.3261 18.7987 67.6409 22.332 65.2575 25.5659C64.1552 27.0631 64.0658 28.0512 65.049 27.8715C65.7938 27.7218 67.7303 25.0568 68.4751 23.1405C69.3689 20.7749 69.5476 16.7026 68.8028 14.3071C68.2666 12.5704 67.5515 11.8817 67.0749 12.6602Z" fill="#276899"/>
<path d="M67.0749 12.6602C66.9557 12.8399 67.1046 13.8879 67.3728 14.9958C68.3261 18.7987 67.6409 22.332 65.2575 25.5659C64.1552 27.0631 64.0658 28.0512 65.049 27.8715C65.7938 27.7218 67.7303 25.0568 68.4751 23.1405C69.3689 20.7749 69.5476 16.7026 68.8028 14.3071C68.2666 12.5704 67.5515 11.8817 67.0749 12.6602Z" fill="url(#paint3_linear)" fill-opacity="0.3"/>
<path d="M24.7381 32.5729C24.4997 33.1419 25.4475 39.2262 25.1552 36.9147C25.2744 36.9147 25.1361 36.2859 25.1361 36.9147C25.1659 37.5735 25.8404 40.1486 26.4959 41.526C28.8197 46.4368 34.5399 50.6289 39.5152 51.0481C40.409 51.1379 40.558 51.0481 40.6474 50.4791C40.7367 49.9701 40.558 49.7605 39.9025 49.6407C34.1823 48.413 30.1306 45.4786 27.9259 40.9571C26.8832 38.8311 26.1085 35.8667 26.1085 33.8904C26.1085 32.9023 25.9596 32.4232 25.6319 32.3034C24.9764 32.0639 24.9168 32.0639 24.7381 32.5729Z" fill="#276899"/>
<path d="M24.7381 32.5729C24.4997 33.1419 25.4475 39.2262 25.1552 36.9147C25.2744 36.9147 25.1361 36.2859 25.1361 36.9147C25.1659 37.5735 25.8404 40.1486 26.4959 41.526C28.8197 46.4368 34.5399 50.6289 39.5152 51.0481C40.409 51.1379 40.558 51.0481 40.6474 50.4791C40.7367 49.9701 40.558 49.7605 39.9025 49.6407C34.1823 48.413 30.1306 45.4786 27.9259 40.9571C26.8832 38.8311 26.1085 35.8667 26.1085 33.8904C26.1085 32.9023 25.9596 32.4232 25.6319 32.3034C24.9764 32.0639 24.9168 32.0639 24.7381 32.5729Z" fill="url(#paint4_linear)" fill-opacity="0.3"/>
<path d="M32.1588 33.9799C31.7119 34.5188 32.1588 37.1239 32.9036 38.6211C33.4994 39.7889 35.3466 41.6454 36.4787 42.2742C36.8064 42.4539 37.6108 42.6934 38.2663 42.8731C39.2196 43.0827 39.5771 43.0527 39.8453 42.6934C40.3219 42.1245 39.7559 41.6155 38.1769 41.1663C35.7637 40.4776 34.1251 38.4714 33.4101 35.2974C33.0525 33.7403 32.6652 33.351 32.1588 33.9799Z" fill="#276899"/>
<path d="M32.1588 33.9799C31.7119 34.5188 32.1588 37.1239 32.9036 38.6211C33.4994 39.7889 35.3466 41.6454 36.4787 42.2742C36.8064 42.4539 37.6108 42.6934 38.2663 42.8731C39.2196 43.0827 39.5771 43.0527 39.8453 42.6934C40.3219 42.1245 39.7559 41.6155 38.1769 41.1663C35.7637 40.4776 34.1251 38.4714 33.4101 35.2974C33.0525 33.7403 32.6652 33.351 32.1588 33.9799Z" fill="url(#paint5_linear)" fill-opacity="0.3"/>
<path d="M45.4708 43.2011C45.2027 43.4706 45.1133 46.2853 45.1133 53.9808C45.1133 63.952 45.1431 64.4011 45.6793 64.7006C46.0666 64.8802 49.9397 65 56.2557 65C64.9254 65 66.2958 64.9401 66.6831 64.5209C67.1002 64.1316 67.1598 62.904 67.1598 55.7774V47.513L69.1857 45.6565C71.0627 43.8898 71.152 43.7701 70.6754 43.261C70.1987 42.7819 70.1093 42.8119 68.6793 44.0096L67.1598 45.2972V44.4288C67.1598 43.9497 67.0109 43.4107 66.8023 43.2011C66.2958 42.6921 45.9773 42.6921 45.4708 43.2011ZM65.3723 45.6266C65.3723 46.7345 65.1935 47.0639 64.1806 48.0819C63.0187 49.2198 62.9889 49.2198 62.9889 48.5011C62.9889 47.0938 62.6909 47.0339 55.928 47.0339C48.5096 47.0339 49.1949 46.5848 49.3438 51.3757C49.4332 54.2203 49.463 54.3701 50.0887 54.4599C50.7441 54.5497 50.7441 54.4599 50.8335 51.6153L50.9228 48.6808H56.1366H61.3503L61.2609 49.7288C61.1715 50.5972 60.7544 51.1362 58.8775 52.9328C57.6262 54.1305 56.4345 55.0588 56.2557 55.0288C56.077 54.9989 55.1534 54.0407 54.2 52.9328C52.5019 50.8966 51.8166 50.5672 51.8166 51.765C51.8166 52.5435 55.4513 57.2147 56.077 57.2147C56.2855 57.2147 57.5368 56.2565 58.7881 55.1186C60.0692 53.9509 61.1715 53.0226 61.2311 53.0226C61.2907 53.0226 61.3205 54.3701 61.2609 56.017L61.1715 59.0113H58.5498C56.5537 59.0113 55.8088 59.1311 55.5407 59.4605C55.2428 59.8198 55.2428 59.9994 55.5407 60.3588C56.0174 60.9277 62.0653 61.0175 62.6313 60.4486C62.8697 60.209 62.9889 58.7119 62.9889 55.7175V51.3458L64.1806 50.178L65.3723 49.0102V56.1068V63.2034H56.1366H46.9008V53.7712V44.339H56.1366H65.3723V45.6266Z" fill="#276899"/>
<path d="M45.4708 43.2011C45.2027 43.4706 45.1133 46.2853 45.1133 53.9808C45.1133 63.952 45.1431 64.4011 45.6793 64.7006C46.0666 64.8802 49.9397 65 56.2557 65C64.9254 65 66.2958 64.9401 66.6831 64.5209C67.1002 64.1316 67.1598 62.904 67.1598 55.7774V47.513L69.1857 45.6565C71.0627 43.8898 71.152 43.7701 70.6754 43.261C70.1987 42.7819 70.1093 42.8119 68.6793 44.0096L67.1598 45.2972V44.4288C67.1598 43.9497 67.0109 43.4107 66.8023 43.2011C66.2958 42.6921 45.9773 42.6921 45.4708 43.2011ZM65.3723 45.6266C65.3723 46.7345 65.1935 47.0639 64.1806 48.0819C63.0187 49.2198 62.9889 49.2198 62.9889 48.5011C62.9889 47.0938 62.6909 47.0339 55.928 47.0339C48.5096 47.0339 49.1949 46.5848 49.3438 51.3757C49.4332 54.2203 49.463 54.3701 50.0887 54.4599C50.7441 54.5497 50.7441 54.4599 50.8335 51.6153L50.9228 48.6808H56.1366H61.3503L61.2609 49.7288C61.1715 50.5972 60.7544 51.1362 58.8775 52.9328C57.6262 54.1305 56.4345 55.0588 56.2557 55.0288C56.077 54.9989 55.1534 54.0407 54.2 52.9328C52.5019 50.8966 51.8166 50.5672 51.8166 51.765C51.8166 52.5435 55.4513 57.2147 56.077 57.2147C56.2855 57.2147 57.5368 56.2565 58.7881 55.1186C60.0692 53.9509 61.1715 53.0226 61.2311 53.0226C61.2907 53.0226 61.3205 54.3701 61.2609 56.017L61.1715 59.0113H58.5498C56.5537 59.0113 55.8088 59.1311 55.5407 59.4605C55.2428 59.8198 55.2428 59.9994 55.5407 60.3588C56.0174 60.9277 62.0653 61.0175 62.6313 60.4486C62.8697 60.209 62.9889 58.7119 62.9889 55.7175V51.3458L64.1806 50.178L65.3723 49.0102V56.1068V63.2034H56.1366H46.9008V53.7712V44.339H56.1366H65.3723V45.6266Z" fill="url(#paint6_linear)" fill-opacity="0.3"/>
<path d="M30.3613 18.1165C30.3613 25.2303 24.6244 30.9908 17.5556 30.9908C10.4869 30.9908 4.75 25.2303 4.75 18.1165C4.75 11.0026 10.4869 5.24219 17.5556 5.24219C24.6244 5.24219 30.3613 11.0026 30.3613 18.1165Z" stroke="#276899" stroke-width="1.5"/>
<rect x="17.1094" y="26.9502" width="1.19171" height="4.19209" rx="0.595853" fill="#276899"/>
<rect x="26.9375" y="18.8652" width="1.19774" height="4.17097" rx="0.59887" transform="rotate(-90 26.9375 18.8652)" fill="#276899"/>
<rect x="18.3008" y="8.68457" width="1.19171" height="4.19209" rx="0.595853" transform="rotate(-180 18.3008 8.68457)" fill="#276899"/>
<path d="M18.3008 17.3203H17.1091V11.3286C17.1091 10.9995 17.3758 10.7327 17.7049 10.7327C18.034 10.7327 18.3008 10.9995 18.3008 11.3286V17.3203Z" fill="#276899"/>
<path d="M17.1094 17.3184L17.95 16.4694L24.2339 22.7549C24.4671 22.9882 24.468 23.3674 24.2359 23.6018C24.0038 23.8362 23.6265 23.8371 23.3932 23.6038L17.1094 17.3184Z" fill="#276899"/>
<rect x="8.17188" y="17.3682" width="1.19774" height="4.17097" rx="0.59887" transform="rotate(90 8.17188 17.3682)" fill="#276899"/>
</g>
<defs>
<filter id="filter0_d" x="0" y="0" width="78.0006" height="73" filterUnits="userSpaceOnUse" color-interpolation-filters="sRGB">
<feFlood flood-opacity="0" result="BackgroundImageFix"/>
<feColorMatrix in="SourceAlpha" type="matrix" values="0 0 0 0 0 0 0 0 0 0 0 0 0 0 0 0 0 0 127 0"/>
<feOffset dy="4"/>
<feGaussianBlur stdDeviation="2"/>
<feColorMatrix type="matrix" values="0 0 0 0 0 0 0 0 0 0 0 0 0 0 0 0 0 0 0.5 0"/>
<feBlend mode="normal" in2="BackgroundImageFix" result="effect1_dropShadow"/>
<feBlend mode="normal" in="SourceGraphic" in2="effect1_dropShadow" result="shape"/>
</filter>
<linearGradient id="paint0_linear" x1="53.7054" y1="40.7598" x2="53.7054" y2="0.000247955" gradientUnits="userSpaceOnUse">
<stop stop-color="white"/>
<stop offset="1" stop-color="white" stop-opacity="0"/>
</linearGradient>
<linearGradient id="paint1_linear" x1="55.8722" y1="31.7822" x2="55.8722" y2="4.57585" gradientUnits="userSpaceOnUse">
<stop stop-color="white"/>
<stop offset="1" stop-color="white" stop-opacity="0"/>
</linearGradient>
<linearGradient id="paint2_linear" x1="45.0452" y1="23.9521" x2="45.0452" y2="8.47743" gradientUnits="userSpaceOnUse">
<stop stop-color="white"/>
<stop offset="1" stop-color="white" stop-opacity="0"/>
</linearGradient>
<linearGradient id="paint3_linear" x1="66.8176" y1="27.8926" x2="66.8176" y2="12.3421" gradientUnits="userSpaceOnUse">
<stop stop-color="white"/>
<stop offset="1" stop-color="white" stop-opacity="0"/>
</linearGradient>
<linearGradient id="paint4_linear" x1="32.684" y1="51.0781" x2="32.684" y2="32.1482" gradientUnits="userSpaceOnUse">
<stop stop-color="white"/>
<stop offset="1" stop-color="white" stop-opacity="0"/>
</linearGradient>
<linearGradient id="paint5_linear" x1="35.9948" y1="43.0039" x2="35.9948" y2="33.6928" gradientUnits="userSpaceOnUse">
<stop stop-color="white"/>
<stop offset="1" stop-color="white" stop-opacity="0"/>
</linearGradient>
<linearGradient id="paint6_linear" x1="58.0162" y1="65" x2="58.0162" y2="42.8194" gradientUnits="userSpaceOnUse">
<stop stop-color="white"/>
<stop offset="1" stop-color="white" stop-opacity="0"/>
</linearGradient>
</defs>
</svg>
