<svg width="55" height="55" viewBox="0 0 55 55" fill="none" xmlns="http://www.w3.org/2000/svg">
<g clip-path="url(#clip0_6997_20449)">
<rect width="55" height="55" rx="27.5" fill="white"/>
<mask id="path-2-inside-1_6997_20449" fill="white">
<path fill-rule="evenodd" clip-rule="evenodd" d="M42 41.2213C42 42.2027 41.106 42.9991 40 42.9991C38.894 42.9991 38 42.2027 38 41.2213C38 36.32 33.514 32.3325 28 32.3325C22.486 32.3325 18 36.32 18 41.2213C18 42.2027 17.106 42.9991 16 42.9991C14.894 42.9991 14 42.2027 14 41.2213C14 34.3592 20.282 28.777 28 28.777C35.718 28.777 42 34.3592 42 41.2213ZM28 27C32.412 27 36 23.412 36 19C36 14.588 32.412 11 28 11C23.588 11 20 14.588 20 19C20 23.412 23.588 27 28 27Z"/>
</mask>
<path fill-rule="evenodd" clip-rule="evenodd" d="M42 41.2213C42 42.2027 41.106 42.9991 40 42.9991C38.894 42.9991 38 42.2027 38 41.2213C38 36.32 33.514 32.3325 28 32.3325C22.486 32.3325 18 36.32 18 41.2213C18 42.2027 17.106 42.9991 16 42.9991C14.894 42.9991 14 42.2027 14 41.2213C14 34.3592 20.282 28.777 28 28.777C35.718 28.777 42 34.3592 42 41.2213ZM28 27C32.412 27 36 23.412 36 19C36 14.588 32.412 11 28 11C23.588 11 20 14.588 20 19C20 23.412 23.588 27 28 27Z" fill="#276899"/>
<path d="M40 41.2213C40 41.1583 40.0152 41.0997 40.0367 41.0545C40.0571 41.0116 40.0782 40.9904 40.0855 40.9838C40.098 40.9727 40.0739 40.9991 40 40.9991V44.9991C41.984 44.9991 44 43.521 44 41.2213H40ZM40 40.9991C39.9261 40.9991 39.902 40.9727 39.9145 40.9838C39.9218 40.9904 39.9429 41.0116 39.9633 41.0544C39.9848 41.0997 40 41.1583 40 41.2213H36C36 43.521 38.016 44.9991 40 44.9991V40.9991ZM40 41.2213C40 35.0005 34.3906 30.3325 28 30.3325V34.3325C32.6374 34.3325 36 37.6396 36 41.2213H40ZM28 30.3325C21.6094 30.3325 16 35.0005 16 41.2213H20C20 37.6396 23.3626 34.3325 28 34.3325V30.3325ZM16 41.2213C16 41.1583 16.0152 41.0997 16.0367 41.0545C16.0571 41.0116 16.0782 40.9904 16.0855 40.9838C16.098 40.9727 16.0739 40.9991 16 40.9991V44.9991C17.984 44.9991 20 43.521 20 41.2213H16ZM16 40.9991C15.9261 40.9991 15.902 40.9727 15.9145 40.9838C15.9218 40.9904 15.9429 41.0116 15.9633 41.0545C15.9848 41.0997 16 41.1583 16 41.2213H12C12 43.521 14.016 44.9991 16 44.9991V40.9991ZM16 41.2213C16 35.6789 21.1584 30.777 28 30.777V26.777C19.4056 26.777 12 33.0395 12 41.2213H16ZM28 30.777C34.8416 30.777 40 35.6789 40 41.2213H44C44 33.0395 36.5944 26.777 28 26.777V30.777ZM28 29C33.5166 29 38 24.5166 38 19H34C34 22.3074 31.3074 25 28 25V29ZM38 19C38 13.4834 33.5166 9 28 9V13C31.3074 13 34 15.6926 34 19H38ZM28 9C22.4834 9 18 13.4834 18 19H22C22 15.6926 24.6926 13 28 13V9ZM18 19C18 24.5166 22.4834 29 28 29V25C24.6926 25 22 22.3074 22 19H18Z" fill="#276899" mask="url(#path-2-inside-1_6997_20449)"/>
<path d="M41.9997 40C43 45 34.5 44 27.9997 44C20.2677 44 13 44.5 13.9997 40C14.9994 35.5 20.2677 32 27.9997 32C35.7317 32 40 33 41.9997 40Z" fill="#276899"/>
</g>
<defs>
<clipPath id="clip0_6997_20449">
<rect width="55" height="55" rx="27.5" fill="white"/>
</clipPath>
</defs>
</svg>
