<svg width="31" height="31" viewBox="0 0 31 31" fill="none" xmlns="http://www.w3.org/2000/svg">
<path d="M9.60873 7.50129L9.23525 8.42893C8.98444 8.32795 8.7852 8.12971 8.68297 7.8794C8.58074 7.62909 8.58422 7.34805 8.69262 7.10036L9.60873 7.50129ZM6.20888 22.5326C5.89301 22.0796 6.00421 21.4562 6.45725 21.1404C6.9103 20.8245 7.53362 20.9357 7.84949 21.3887L6.20888 22.5326ZM13.6724 8.05934C14.1847 8.2656 14.4328 8.84813 14.2265 9.36045C14.0203 9.87277 13.4377 10.1209 12.9254 9.91462L13.6724 8.05934ZM10.1549 3.75905C10.3764 3.2531 10.966 3.02245 11.472 3.24388C11.9779 3.4653 12.2086 4.05496 11.9871 4.56092L10.1549 3.75905ZM20.9166 23.7199C25.1688 20.7553 26.2125 14.9049 23.2478 10.6528L24.8884 9.5089C28.4848 14.6671 27.2187 21.7641 22.0605 25.3605L20.9166 23.7199ZM23.2478 10.6528C20.2832 6.40063 14.4328 5.35693 10.1807 8.32159L9.0368 6.68099C14.195 3.08459 21.292 4.35069 24.8884 9.5089L23.2478 10.6528ZM7.84949 21.3887C10.8141 25.6409 16.6645 26.6846 20.9166 23.7199L22.0605 25.3605C16.9023 28.9569 9.80528 27.6908 6.20888 22.5326L7.84949 21.3887ZM9.98221 6.57365L13.6724 8.05934L12.9254 9.91462L9.23525 8.42893L9.98221 6.57365ZM8.69262 7.10036L10.1549 3.75905L11.9871 4.56092L10.5248 7.90222L8.69262 7.10036Z" fill="#276899"/>
<path d="M6.48375 17.038V15.458H9.03375V17.038H6.48375ZM15.6638 17.458V18.998H10.4738V17.458H12.1038V14.348H10.4738V13.188C10.9205 13.1614 11.4205 13.0447 11.9738 12.838C12.5272 12.6247 13.0105 12.3814 13.4238 12.108H14.0938V17.458H15.6638ZM19.4338 11.998C20.5071 11.998 21.2604 12.3047 21.6938 12.918C22.1338 13.5247 22.3538 14.4047 22.3538 15.558C22.3538 16.7114 22.1338 17.5947 21.6938 18.208C21.2604 18.8147 20.5071 19.118 19.4338 19.118C18.3538 19.118 17.5938 18.8147 17.1538 18.208C16.7204 17.5947 16.5038 16.7114 16.5038 15.558C16.5038 14.4047 16.7204 13.5247 17.1538 12.918C17.5938 12.3047 18.3538 11.998 19.4338 11.998ZM19.4338 13.348C19.0871 13.348 18.8404 13.4814 18.6938 13.748C18.5471 14.0147 18.4738 14.4514 18.4738 15.058V16.048C18.4738 16.6614 18.5471 17.1014 18.6938 17.368C18.8404 17.6347 19.0871 17.768 19.4338 17.768C19.7804 17.768 20.0238 17.6347 20.1638 17.368C20.3038 17.1014 20.3738 16.6614 20.3738 16.048V15.058C20.3738 14.4447 20.3038 14.008 20.1638 13.748C20.0238 13.4814 19.7804 13.348 19.4338 13.348Z" fill="#276899"/>
</svg>
