<svg width="49" height="49" viewBox="0 0 49 49" fill="none" xmlns="http://www.w3.org/2000/svg">
<path d="M1 44.5168V5.8352C1 4.55283 1.49778 3.32297 2.38383 2.4162C3.26988 1.50942 4.47162 1 5.72468 1H29.3481C30.6012 1 31.8029 1.50942 32.689 2.4162C33.575 3.32297 34.0728 4.55283 34.0728 5.8352V44.5168L26.9858 39.6816L22.2611 44.5168L17.5364 39.6816L12.8117 44.5168L8.08702 39.6816L1 44.5168Z" stroke="#9799A6" stroke-width="2" stroke-linecap="round" stroke-linejoin="round"/>
<path d="M12.7512 21.8887V20.4708C15.3243 20.0383 16.6677 18.3446 16.6677 16.6615C16.6677 15.1978 15.9888 12.741 11.4457 12.741C8.83464 12.741 8.83464 11.923 8.83464 11.4342C8.83464 10.8017 9.7498 9.704 11.4457 9.704C12.9927 9.704 13.2551 10.9612 13.2734 11.4577L14.5789 11.4342H15.8844C15.8844 10.0934 15.0149 8.2077 12.7512 7.67191V6.22266H10.1401V7.62487C7.567 8.05742 6.22363 9.75105 6.22363 11.4342C6.22363 12.8979 6.9025 15.3547 11.4457 15.3547C14.0567 15.3547 14.0567 16.2381 14.0567 16.6615C14.0567 17.2038 13.2472 18.4074 11.4457 18.4074C9.04222 18.4074 8.849 16.8483 8.83464 16.6615H6.22363C6.22363 17.8611 7.08657 19.9978 10.1401 20.4774V21.8887H12.7512Z" fill="#9799A6"/>
<rect x="18.4053" y="18.4062" width="10.444" height="3.48135" rx="1.74067" fill="#9799A6"/>
<rect x="18.4053" y="11.4434" width="10.444" height="3.48135" rx="1.74067" fill="#9799A6"/>
<rect x="6.22363" y="25.3691" width="22.6288" height="3.48135" rx="1.74067" fill="#9799A6"/>
<rect x="6.22363" y="32.332" width="22.6288" height="3.48135" rx="1.74067" fill="#9799A6"/>
<path fill-rule="evenodd" clip-rule="evenodd" d="M35.8156 23.6289C29.0969 23.6289 23.6309 29.095 23.6309 35.8136C23.6309 42.5323 29.0969 47.9983 35.8156 47.9983C42.5342 47.9983 48.0003 42.5323 48.0003 35.8136C48.0003 29.095 42.5342 23.6289 35.8156 23.6289Z" fill="#EFEFF5"/>
<path d="M35.8156 22.6289C28.5446 22.6289 22.6309 28.5427 22.6309 35.8136H24.6309C24.6309 29.6473 29.6492 24.6289 35.8156 24.6289V22.6289ZM22.6309 35.8136C22.6309 43.0846 28.5446 48.9983 35.8156 48.9983V46.9983C29.6492 46.9983 24.6309 41.98 24.6309 35.8136H22.6309ZM35.8156 48.9983C43.0865 48.9983 49.0003 43.0846 49.0003 35.8136H47.0003C47.0003 41.98 41.9819 46.9983 35.8156 46.9983V48.9983ZM49.0003 35.8136C49.0003 28.5427 43.0865 22.6289 35.8156 22.6289V24.6289C41.9819 24.6289 47.0003 29.6473 47.0003 35.8136H49.0003Z" fill="#9799A6"/>
<path fill-rule="evenodd" clip-rule="evenodd" d="M31.2422 32.4619C31.2422 30.1103 33.1552 28.1973 35.5068 28.1973C37.8585 28.1973 39.7715 30.1103 39.7715 32.4619C39.7715 34.3871 38.4799 35.9991 36.7253 36.528V37.945C36.7253 38.6188 36.1807 39.1635 35.5068 39.1635C34.833 39.1635 34.2884 38.6188 34.2884 37.945V35.5081C34.2884 34.8343 34.833 34.2896 35.5068 34.2896C36.5145 34.2896 37.3345 33.4696 37.3345 32.4619C37.3345 31.4542 36.5145 30.6342 35.5068 30.6342C34.4992 30.6342 33.6791 31.4542 33.6791 32.4619C33.6791 33.1357 33.1345 33.6804 32.4607 33.6804C31.7868 33.6804 31.2422 33.1357 31.2422 32.4619ZM34.2894 41.6004C34.2894 40.9265 34.834 40.3819 35.5078 40.3819C36.1816 40.3819 36.7263 40.9265 36.7263 41.6004C36.7263 42.2742 36.1816 42.8188 35.5078 42.8188C34.834 42.8188 34.2894 42.2742 34.2894 41.6004Z" fill="#9799A6"/>
</svg>
