<svg width="57" height="57" viewBox="0 0 57 57" fill="none" xmlns="http://www.w3.org/2000/svg">
<path fill-rule="evenodd" clip-rule="evenodd" d="M12.88 6.06094C8.8648 6.06094 5.6 9.32574 5.6 13.3409C5.6 34.0273 22.4308 50.8609 43.12 50.8609C47.1324 50.8609 50.4 47.5961 50.4 43.5809C50.4 43.2701 50.3804 42.9649 50.3412 42.6625L37.4052 39.6945C37.1476 40.1873 36.8648 40.7221 36.6072 41.2205C35.3304 43.6565 34.4064 45.4261 32.0488 44.4769C22.792 41.2289 15.2348 33.6689 11.9448 24.3001C10.9452 22.1021 12.8492 21.1053 15.2628 19.8453C15.7528 19.5877 16.282 19.3105 16.7664 19.0585L13.7984 6.11974C13.4876 6.08054 13.1852 6.06094 12.88 6.06094ZM43.12 56.4609C19.3424 56.4609 0 37.1185 0 13.3409C0 6.23734 5.7764 0.460938 12.88 0.460938C13.608 0.460938 14.3276 0.522537 15.0248 0.642937C15.7052 0.752138 16.3884 0.925738 17.0548 1.15534C17.9648 1.47174 18.6508 2.23614 18.8664 3.17694L22.6996 19.8761C22.9124 20.7945 22.6464 21.7577 21.9912 22.4409C21.6104 22.8385 21.602 22.8469 18.13 24.6641C20.9412 30.7513 25.8272 35.6205 31.7912 38.3365C33.6112 34.8617 33.6224 34.8505 34.02 34.4697C34.7032 33.8145 35.672 33.5597 36.5848 33.7613L53.2868 37.5945C54.2248 37.8101 54.9892 38.4933 55.3028 39.4033C55.5324 40.0641 55.706 40.7473 55.8208 41.4501C55.9384 42.1417 56 42.8585 56 43.5809C56 50.6845 50.2208 56.4609 43.12 56.4609Z" fill="#78ABCE"/>
<path d="M36.8998 22.5068C36.8998 22.966 36.7244 23.4064 36.4122 23.7311C36.1 24.0557 35.6766 24.2382 35.2351 24.2382C34.7935 24.2382 34.3701 24.0557 34.0579 23.7311C33.7457 23.4064 33.5703 22.966 33.5703 22.5068C33.5703 22.0476 33.7457 21.6072 34.0579 21.2825C34.3701 20.9578 34.7935 20.7754 35.2351 20.7754C35.6766 20.7754 36.1 20.9578 36.4122 21.2825C36.7244 21.6072 36.8998 22.0476 36.8998 22.5068Z" fill="#78ABCE"/>
<path d="M40.2338 19.0458C40.2338 19.505 40.0584 19.9454 39.7462 20.2701C39.434 20.5948 39.0106 20.7772 38.569 20.7772C38.1275 20.7772 37.7041 20.5948 37.3919 20.2701C37.0797 19.9454 36.9043 19.505 36.9043 19.0458C36.9043 18.5866 37.0797 18.1463 37.3919 17.8216C37.7041 17.4969 38.1275 17.3145 38.569 17.3145C39.0106 17.3145 39.434 17.4969 39.7462 17.8216C40.0584 18.1463 40.2338 18.5866 40.2338 19.0458Z" fill="#78ABCE"/>
<path d="M43.558 15.5829C43.558 16.0421 43.3826 16.4825 43.0704 16.8072C42.7582 17.1319 42.3348 17.3143 41.8933 17.3143C41.4517 17.3143 41.0283 17.1319 40.7161 16.8072C40.4039 16.4825 40.2285 16.0421 40.2285 15.5829C40.2285 15.1238 40.4039 14.6834 40.7161 14.3587C41.0283 14.034 41.4517 13.8516 41.8933 13.8516C42.3348 13.8516 42.7582 14.034 43.0704 14.3587C43.3826 14.6834 43.558 15.1238 43.558 15.5829Z" fill="#78ABCE"/>
<path d="M55.2166 20.7766C54.775 20.7766 54.3516 20.5942 54.0394 20.2695C53.7272 19.9448 53.5518 19.5044 53.5518 19.0452V5.91095L46.4067 13.3455C46.2521 13.5065 46.0686 13.6342 45.8666 13.7214C45.6645 13.8086 45.448 13.8536 45.2292 13.8538C45.0105 13.8539 44.7939 13.8093 44.5917 13.7224C44.3896 13.6355 44.2059 13.508 44.0511 13.3472C43.8963 13.1865 43.7735 12.9956 43.6896 12.7855C43.6058 12.5754 43.5625 12.3501 43.5624 12.1227C43.5622 11.8952 43.6052 11.6699 43.6887 11.4596C43.7723 11.2494 43.8948 11.0583 44.0494 10.8973L51.1979 3.46277L38.569 3.46277C38.1275 3.46277 37.7041 3.28036 37.3919 2.95566C37.0797 2.63096 36.9043 2.19058 36.9043 1.73138C36.9043 1.27219 37.0797 0.831809 37.3919 0.507111C37.7041 0.182414 38.1275 0 38.569 0L55.2166 0C55.6581 0 56.0815 0.182414 56.3937 0.507111C56.7059 0.831809 56.8813 1.27219 56.8813 1.73138V19.0452C56.8813 19.5044 56.7059 19.9448 56.3937 20.2695C56.0815 20.5942 55.6581 20.7766 55.2166 20.7766Z" fill="#78ABCE"/>
</svg>
