<svg width="17" height="17" viewBox="0 0 17 17" fill="none" xmlns="http://www.w3.org/2000/svg">
<path d="M17 8.5C17 6.22957 16.1159 4.09504 14.5104 2.4896C12.905 0.884133 10.7704 0 8.5 0C6.22957 0 4.09504 0.884133 2.4896 2.4896C0.884133 4.09504 0 6.22957 0 8.5C0 10.7704 0.884133 12.905 2.4896 14.5104C4.09504 16.1159 6.22957 17 8.5 17C9.40668 17 10.2977 16.8579 11.1507 16.5781C11.6929 16.8479 12.3036 17 12.9492 17C15.1828 17 17 15.1828 17 12.9492C17 12.3036 16.8479 11.6928 16.5781 11.1506C16.8578 10.2975 17 9.40645 17 8.5ZM8.5 16.3359C4.17924 16.3359 0.664062 12.8208 0.664062 8.5C0.664062 4.17924 4.17924 0.664062 8.5 0.664062C12.8208 0.664062 16.3359 4.17924 16.3359 8.5C16.3359 9.14816 16.2573 9.78765 16.1018 10.4087C15.8725 10.1248 15.6058 9.87222 15.3091 9.65882C15.3734 9.27772 15.4062 8.88884 15.4062 8.5C15.4062 4.6919 12.3081 1.59375 8.5 1.59375C4.6919 1.59375 1.59375 4.6919 1.59375 8.5C1.59375 12.3081 4.6919 15.4062 8.5 15.4062C8.88884 15.4062 9.27772 15.3734 9.65882 15.3091C9.87219 15.6058 10.1247 15.8725 10.4086 16.1017C9.78762 16.2571 9.14826 16.3359 8.5 16.3359ZM14.692 9.29296C14.1638 9.04018 13.5728 8.89844 12.9492 8.89844C10.7156 8.89844 8.89844 10.7156 8.89844 12.9492C8.89844 13.5728 9.04018 14.1638 9.29296 14.692C9.03069 14.7252 8.76539 14.7422 8.5 14.7422C5.05803 14.7422 2.25781 11.942 2.25781 8.5C2.25781 5.05803 5.05803 2.25781 8.5 2.25781C11.942 2.25781 14.7422 5.05803 14.7422 8.5C14.7422 8.76539 14.7252 9.03069 14.692 9.29296ZM12.9492 16.3359C11.0818 16.3359 9.5625 14.8167 9.5625 12.9492C9.5625 11.0818 11.0818 9.5625 12.9492 9.5625C14.8167 9.5625 16.3359 11.0818 16.3359 12.9492C16.3359 14.8167 14.8167 16.3359 12.9492 16.3359Z" fill="#4B535A"/>
<path d="M4.04049 8.5C4.04049 8.31662 3.89184 8.16797 3.70846 8.16797H3.25391C3.07053 8.16797 2.92188 8.31662 2.92188 8.5C2.92188 8.68338 3.07053 8.83203 3.25391 8.83203H3.70846C3.89184 8.83203 4.04049 8.68338 4.04049 8.5Z" fill="#4B535A"/>
<path d="M12.4805 5.81677C12.3217 5.90844 12.2673 6.11151 12.359 6.27032C12.4205 6.37684 12.5321 6.43637 12.6468 6.43637C12.7032 6.43637 12.7603 6.42203 12.8126 6.39185L13.2062 6.16457C13.365 6.0729 13.4194 5.86983 13.3277 5.71102C13.236 5.55217 13.033 5.49775 12.8742 5.58949L12.4805 5.81677Z" fill="#4B535A"/>
<path d="M4.18082 10.609L3.78717 10.8363C3.62836 10.928 3.57394 11.131 3.66564 11.2898C3.72714 11.3964 3.83873 11.4559 3.95348 11.4559C4.00979 11.4559 4.0669 11.4416 4.1192 11.4114L4.51286 11.1841C4.67167 11.0924 4.72609 10.8894 4.63438 10.7305C4.5427 10.5717 4.3396 10.5173 4.18082 10.609Z" fill="#4B535A"/>
<path d="M5.82065 4.52848C5.88215 4.635 5.99374 4.69453 6.10849 4.69453C6.1648 4.69453 6.22191 4.68018 6.27421 4.65C6.43302 4.55833 6.48744 4.35526 6.39573 4.19645L6.16846 3.80279C6.07678 3.64398 5.87368 3.58956 5.7149 3.68127C5.55609 3.77294 5.50167 3.97601 5.59338 4.13482L5.82065 4.52848Z" fill="#4B535A"/>
<path d="M11.2859 3.68125C11.1271 3.58958 10.9241 3.64397 10.8324 3.80278L10.6051 4.19643C10.5134 4.35525 10.5678 4.55832 10.7266 4.64999C10.7789 4.68017 10.836 4.69452 10.8923 4.69452C11.0071 4.69452 11.1187 4.63498 11.1802 4.52847L11.4074 4.13481C11.4992 3.976 11.4447 3.77293 11.2859 3.68125Z" fill="#4B535A"/>
<path d="M6.26444 12.3629C6.1057 12.2712 5.9026 12.3256 5.81089 12.4844L5.58361 12.8781C5.49191 13.0369 5.54633 13.2399 5.70514 13.3316C5.75743 13.3618 5.81451 13.3761 5.87085 13.3761C5.9856 13.3761 6.0972 13.3166 6.15869 13.2101L6.38597 12.8164C6.47767 12.6577 6.42329 12.4546 6.26444 12.3629Z" fill="#4B535A"/>
<path d="M4.52067 5.82452L4.12701 5.59725C3.96827 5.50561 3.76516 5.55999 3.67346 5.71877C3.58175 5.87758 3.63617 6.08065 3.79498 6.17233L4.18864 6.3996C4.24093 6.42978 4.29801 6.44413 4.35435 6.44413C4.4691 6.44413 4.5807 6.38459 4.64219 6.27808C4.7339 6.11927 4.67948 5.9162 4.52067 5.82452Z" fill="#4B535A"/>
<path d="M8.83562 7.49142L8.8322 3.26536C8.83207 3.08208 8.68345 2.93359 8.50017 2.93359C8.5001 2.93359 8.50001 2.93359 8.49991 2.93359C8.31656 2.93373 8.16801 3.08251 8.16814 3.26589L8.17156 7.4891C7.85032 7.59352 7.59638 7.84673 7.4909 8.1675H6.10742C5.92404 8.1675 5.77539 8.31615 5.77539 8.49953C5.77539 8.68291 5.92404 8.83156 6.10742 8.83156H7.4909C7.63035 9.2557 8.02938 9.56203 8.50017 9.56203C9.08697 9.56203 9.56267 9.08633 9.56267 8.49953C9.56267 8.03001 9.25797 7.6319 8.83562 7.49142Z" fill="#4B535A"/>
<path d="M13.4453 12.6148C13.3915 12.5957 13.3367 12.576 13.2819 12.5558V11.4675C13.4063 11.5151 13.4862 11.5715 13.4911 11.575C13.6372 11.6841 13.8442 11.655 13.9544 11.5095C14.0651 11.3633 14.0364 11.1551 13.8902 11.0443C13.8745 11.0324 13.6363 10.8556 13.2819 10.7756V10.5586C13.2819 10.3752 13.1332 10.2266 12.9499 10.2266C12.7665 10.2266 12.6178 10.3752 12.6178 10.5586V10.7737C12.5868 10.7808 12.5556 10.7886 12.524 10.7981C12.1227 10.9187 11.8228 11.2612 11.7415 11.692C11.6668 12.0874 11.7949 12.4698 12.0757 12.69C12.2146 12.799 12.3858 12.8987 12.6178 13.003V14.4542C12.4451 14.4348 12.3225 14.3832 12.1252 14.2541C11.9717 14.1537 11.7659 14.1967 11.6655 14.3502C11.5652 14.5036 11.6082 14.7094 11.7616 14.8098C12.0963 15.0287 12.3289 15.1001 12.6179 15.1208V15.3398C12.6179 15.5232 12.7665 15.6719 12.9499 15.6719C13.1333 15.6719 13.2819 15.5232 13.2819 15.3398V15.0815C13.836 14.9334 14.191 14.457 14.27 13.9871C14.3741 13.3673 14.0504 12.8287 13.4453 12.6148ZM12.4855 12.1675C12.4019 12.1019 12.366 11.9636 12.394 11.8152C12.4165 11.696 12.4867 11.5563 12.6178 11.4772V12.2574C12.5693 12.2281 12.5247 12.1982 12.4855 12.1675ZM13.6151 13.877C13.5841 14.0616 13.4709 14.2554 13.2819 14.3678V13.2639C13.6471 13.4237 13.6377 13.7425 13.6151 13.877Z" fill="#4B535A"/>
</svg>
