<svg width="22" height="23" viewBox="0 0 22 23" fill="none" xmlns="http://www.w3.org/2000/svg">
<g filter="url(#filter0_d)">
<path d="M15.9928 18.4213L15.0354 12.6041H15.3587C15.6189 12.6041 15.8284 12.3832 15.8284 12.1091V8.45431C15.8284 8.1802 15.6189 7.95939 15.3587 7.95939H10.9148V4.49492C10.9148 4.22081 10.7053 4 10.4452 4H7.55484C7.29471 4 7.08517 4.22081 7.08517 4.49492V7.95939H2.64129C2.38116 7.95939 2.17161 8.1802 2.17161 8.45431V12.1091C2.17161 12.3832 2.38116 12.6041 2.64129 12.6041H2.96465L2.00723 18.4213C2.00181 18.4499 2 18.4784 2 18.5051C2 18.7792 2.20955 19 2.46968 19H15.5303C15.5574 19 15.5845 18.9981 15.6098 18.9924C15.8663 18.9467 16.0379 18.6897 15.9928 18.4213ZM3.43613 9.29188H8.34968V5.33249H9.65033V9.29188H14.5639V11.2716H3.43613V9.29188ZM11.8903 17.6675V14.698C11.8903 14.6142 11.8253 14.5457 11.7458 14.5457H10.8787C10.7992 14.5457 10.7342 14.6142 10.7342 14.698V17.6675H7.26581V14.698C7.26581 14.6142 7.20078 14.5457 7.1213 14.5457H6.2542C6.17471 14.5457 6.10968 14.6142 6.10968 14.698V17.6675H3.41445L4.22916 12.7183H13.769L14.5838 17.6675H11.8903Z" fill="#276899"/>
</g>
<defs>
<filter id="filter0_d" x="0" y="0" width="22" height="23" filterUnits="userSpaceOnUse" color-interpolation-filters="sRGB">
<feFlood flood-opacity="0" result="BackgroundImageFix"/>
<feColorMatrix in="SourceAlpha" type="matrix" values="0 0 0 0 0 0 0 0 0 0 0 0 0 0 0 0 0 0 127 0"/>
<feOffset dx="2"/>
<feGaussianBlur stdDeviation="2"/>
<feColorMatrix type="matrix" values="0 0 0 0 0 0 0 0 0 0 0 0 0 0 0 0 0 0 0.5 0"/>
<feBlend mode="normal" in2="BackgroundImageFix" result="effect1_dropShadow"/>
<feBlend mode="normal" in="SourceGraphic" in2="effect1_dropShadow" result="shape"/>
</filter>
</defs>
</svg>
