<svg width="34" height="34" viewBox="0 0 34 34" fill="none" xmlns="http://www.w3.org/2000/svg">
<path d="M29 19H23C20.7909 19 19 20.7909 19 23V28C19 30.2091 20.7909 32 23 32H29C31.2091 32 33 30.2091 33 28V23C33 20.7909 31.2091 19 29 19Z" stroke="#276899"/>
<path d="M11 32.5C10.6588 32.5 10.3257 32.5 10 32.5M11 32.5H10M11 32.5C11.5 32.5 10.6527 32.5 11.5 32.5M33 11V10.25M10 32.5C6.51968 32.5 6.15719 32.5 5.0011 32.5C2.79196 32.5 1 30.7091 1 28.5V5C1 2.79086 2.79086 1 5 1H29C31.2091 1 33 2.79086 33 5V10.25M11.5 32.5L11.3536 32.6464C11.2231 32.7769 11 32.6845 11 32.5V32.5C11 32.3155 11.2231 32.2231 11.3536 32.3536L11.5 32.5ZM33 10.25V11.75M33 11.75L32.7774 11.416C32.6588 11.2382 32.7863 11 33 11V11C33.2137 11 33.3412 11.2382 33.2226 11.416L33 11.75Z" stroke="#276899"/>
<path d="M11.9292 12.9007C11.5268 12.4982 11.1244 12.0958 10.7065 11.6779C9.29797 10.2694 7.90495 8.8764 6.49646 7.46791C6.15595 7.1274 6.17104 6.8337 6.4815 6.49229C6.80912 6.13371 7.13544 6.11695 7.47596 6.45746C8.88445 7.86595 10.2775 9.25896 11.6859 10.6675C12.0884 11.0699 12.5063 11.4878 12.9706 11.9521C13.0334 11.3631 12.8799 10.8665 12.8072 10.382C12.7725 10.1072 12.7206 9.84945 12.686 9.57458C12.6408 9.18635 12.9203 8.81397 13.2998 8.71311C13.6295 8.63108 13.9595 8.85822 14.0218 9.2293C14.1723 10.1003 14.3074 10.9559 14.4424 11.8114C14.5394 12.4573 14.6364 13.1033 14.7317 13.7819C14.8149 14.3797 14.3861 14.8086 13.8037 14.7409C12.3022 14.5088 10.7836 14.2939 9.2821 14.0619C8.91102 13.9996 8.63577 13.6557 8.71781 13.326C8.80151 12.9637 9.1241 12.7031 9.53117 12.6984C10.1821 12.6975 10.7733 12.9112 11.4226 12.943C11.5686 12.9517 11.6974 12.9777 11.8589 13.0019C11.8932 12.9676 11.9121 12.9178 11.9292 12.9007Z" fill="white"/>
<path d="M22.0957 11.9167C22.4963 11.5161 22.8968 11.1155 23.3128 10.6996C24.7148 9.29757 26.1014 7.911 27.5033 6.50902C27.8423 6.17008 28.1365 6.18696 28.4802 6.49991C28.8413 6.83015 28.86 7.15703 28.5211 7.49597C27.1191 8.89795 25.7325 10.2845 24.3306 11.6865C23.93 12.0871 23.514 12.503 23.0518 12.9652C23.6421 13.0317 24.1385 12.881 24.6232 12.811C24.8982 12.778 25.156 12.7276 25.431 12.6945C25.8195 12.6516 26.1941 12.9338 26.2974 13.3144C26.3815 13.645 26.156 13.9742 25.7848 14.0343C24.9135 14.1798 24.0575 14.3099 23.2016 14.44C22.5554 14.5332 21.9091 14.6264 21.2301 14.7178C20.632 14.7975 20.1999 14.3655 20.2642 13.7827C20.4875 12.2805 20.6936 10.761 20.9169 9.25884C20.9771 8.88762 21.3197 8.61405 21.6504 8.69819C22.0137 8.7842 22.2767 9.1088 22.2838 9.51647C22.2886 10.1684 22.0781 10.759 22.0503 11.409C22.0424 11.5552 22.0172 11.6841 21.9939 11.8457C22.0284 11.8802 22.0784 11.8994 22.0957 11.9167Z" fill="white"/>
<path d="M11.9864 21.5507C11.5559 21.9553 11.1253 22.3598 10.6782 22.7798C9.17122 24.1956 7.68081 25.5958 6.17384 27.0115C5.80952 27.3538 5.49254 27.3151 5.12145 26.9533C4.7317 26.5716 4.71071 26.2174 5.07503 25.8751C6.582 24.4594 8.07241 23.0592 9.57938 21.6434C10.0099 21.2389 10.4571 20.8188 10.9539 20.3521C10.3178 20.2392 9.78346 20.3673 9.26146 20.409C8.96525 20.4256 8.68769 20.462 8.39147 20.4785C7.97303 20.4977 7.56882 20.167 7.45663 19.7489C7.3652 19.3861 7.6073 19.0465 8.00708 19.0074C8.94541 18.9111 9.86719 18.8304 10.789 18.7496C11.485 18.694 12.1809 18.6384 12.9122 18.5871C13.5564 18.5428 14.0229 19.0393 13.955 19.6639C13.718 21.2701 13.4997 22.896 13.2628 24.5022C13.1988 24.8987 12.8303 25.1702 12.4739 25.0563C12.0823 24.9381 11.7982 24.5693 11.7896 24.1287C11.7828 23.4247 12.0081 22.8017 12.0366 22.1019C12.0448 21.9447 12.0716 21.8073 12.0963 21.6345C12.059 21.5948 12.0051 21.5706 11.9864 21.5507Z" fill="white"/>
</svg>
