<svg width="25" height="25" viewBox="0 0 25 25" fill="none" xmlns="http://www.w3.org/2000/svg">
<path d="M22.7154 24.0011H5.57281C5.23182 24.0011 4.9048 23.8657 4.66368 23.6246C4.42257 23.3834 4.28711 23.0564 4.28711 22.7154V5.14424C4.28711 4.91692 4.37741 4.6989 4.53816 4.53816C4.6989 4.37741 4.91692 4.28711 5.14424 4.28711H22.7154C23.0564 4.28711 23.3834 4.42257 23.6246 4.66368C23.8657 4.9048 24.0011 5.23182 24.0011 5.57281V22.7154C24.0011 23.0564 23.8657 23.3834 23.6246 23.6246C23.3834 23.8657 23.0564 24.0011 22.7154 24.0011Z" fill="#276899"/>
<path d="M4.28566 2.57139H19.714V1.2857C19.714 0.944709 19.5786 0.617687 19.3374 0.376572C19.0963 0.135457 18.7693 0 18.4283 0H1.49998C1.10216 0 0.720635 0.158033 0.439334 0.439334C0.158033 0.720635 0 1.10216 0 1.49998V18.4283C0 18.7693 0.135457 19.0963 0.376572 19.3374C0.617687 19.5786 0.944709 19.714 1.2857 19.714H2.57139V4.28566C2.57139 3.83101 2.752 3.39498 3.07349 3.07349C3.39498 2.752 3.83101 2.57139 4.28566 2.57139Z" fill="#276899"/>
</svg>
