<svg width="30" height="28" viewBox="0 0 30 28" fill="none" xmlns="http://www.w3.org/2000/svg">

    <path fill-rule="evenodd" clip-rule="evenodd"
          d="M11.0526 15.5549C4.95947 15.5549 0 20.4393 0 26.4437C0 27.3024 0.70579 27.9992 1.57895 27.9992C2.45211 27.9992 3.15789 27.3024 3.15789 26.4437C3.15789 22.1551 6.69947 18.666 11.0526 18.666C15.4058 18.666 18.9474 22.1551 18.9474 26.4437C18.9474 27.3024 19.6532 27.9992 20.5263 27.9992C21.3995 27.9992 22.1053 27.3024 22.1053 26.4437C22.1053 20.4393 17.1458 15.5549 11.0526 15.5549ZM7.89478 6.22052C7.89478 7.93628 9.31109 9.33159 11.0527 9.33159C12.7942 9.33159 14.2106 7.93628 14.2106 6.22052C14.2106 4.50477 12.7942 3.10945 11.0527 3.10945C9.31109 3.10945 7.89478 4.50477 7.89478 6.22052ZM4.73687 6.22214C4.73687 2.79063 7.5695 0 11.0527 0C14.5358 0 17.3684 2.79063 17.3684 6.22214C17.3684 9.65365 14.5358 12.4443 11.0527 12.4443C7.5695 12.4443 4.73687 9.65365 4.73687 6.22214ZM29.9999 6.22326C29.9999 7.0788 29.2894 7.77879 28.421 7.77879H26.842V9.33433C26.842 10.1899 26.1315 10.8899 25.2631 10.8899C24.3947 10.8899 23.6841 10.1899 23.6841 9.33433V7.77879H22.1052C21.2368 7.77879 20.5262 7.0788 20.5262 6.22326C20.5262 5.36771 21.2368 4.66772 22.1052 4.66772H23.6841V3.11218C23.6841 2.25664 24.3947 1.55665 25.2631 1.55665C26.1315 1.55665 26.842 2.25664 26.842 3.11218V4.66772H28.421C29.2894 4.66772 29.9999 5.36771 29.9999 6.22326Z"
          fill="white" stroke="none"/>

</svg>
