<svg width="10" height="10" viewBox="0 0 10 10" fill="none" xmlns="http://www.w3.org/2000/svg">
<path d="M0.757249 0.757888C1.14777 0.367364 1.78094 0.367364 2.17146 0.757888L9.24253 7.82896C9.63305 8.21948 9.63305 8.85264 9.24253 9.24317C8.85201 9.63369 8.21884 9.63369 7.82832 9.24317L0.757249 2.1721C0.366724 1.78158 0.366724 1.14841 0.757249 0.757888Z" fill="#FF3A29"/>
<path d="M0.7574 9.24226C0.366875 8.85174 0.366875 8.21857 0.7574 7.82805L7.82847 0.756982C8.21899 0.366457 8.85216 0.366458 9.24268 0.756982C9.63321 1.14751 9.63321 1.78067 9.24268 2.1712L2.17161 9.24226C1.78109 9.63279 1.14792 9.63279 0.7574 9.24226Z" fill="#FF3A29"/>
</svg>
