<svg width="26" height="26" viewBox="0 0 26 26" fill="none" xmlns="http://www.w3.org/2000/svg">
<path d="M7.28571 1C6.34588 1 5.57143 1.79335 5.57143 2.7561V3.92683H2.71429C1.77445 3.92683 1 4.72018 1 5.68293V23.2439C1 24.2067 1.77445 25 2.71429 25H23.2857C24.2255 25 25 24.2067 25 23.2439V5.68293C25 4.72018 24.2255 3.92683 23.2857 3.92683H20.4286V2.7561C20.4286 1.79335 19.6541 1 18.7143 1C17.7745 1 17 1.79335 17 2.7561V3.92683H9V2.7561C9 1.79335 8.22555 1 7.28571 1ZM7.28571 2.17073C7.61217 2.17073 7.85714 2.42168 7.85714 2.7561V6.26829C7.85714 6.60271 7.61217 6.85366 7.28571 6.85366C6.95926 6.85366 6.71429 6.60271 6.71429 6.26829V2.7561C6.71429 2.42168 6.95926 2.17073 7.28571 2.17073ZM18.7143 2.17073C19.0407 2.17073 19.2857 2.42168 19.2857 2.7561V6.26829C19.2857 6.60271 19.0407 6.85366 18.7143 6.85366C18.3878 6.85366 18.1429 6.60271 18.1429 6.26829V2.7561C18.1429 2.42168 18.3878 2.17073 18.7143 2.17073ZM2.71429 5.09756H5.57143V6.26829C5.57143 7.23104 6.34588 8.02439 7.28571 8.02439C8.22555 8.02439 9 7.23104 9 6.26829V5.09756H17V6.26829C17 7.23104 17.7745 8.02439 18.7143 8.02439C19.6541 8.02439 20.4286 7.23104 20.4286 6.26829V5.09756H23.2857C23.6121 5.09756 23.8571 5.34857 23.8571 5.68293V9.19512H2.14286V5.68293C2.14286 5.34857 2.38789 5.09756 2.71429 5.09756ZM2.14286 10.3659H23.8571V23.2439C23.8571 23.5783 23.6121 23.8293 23.2857 23.8293H2.71429C2.38789 23.8293 2.14286 23.5783 2.14286 23.2439V10.3659Z" fill="white" stroke="white" stroke-width="0.5"/>
</svg>
