<svg width="12" height="12" viewBox="0 0 12 12" fill="none" xmlns="http://www.w3.org/2000/svg">
<circle cx="6" cy="6" r="6" fill="#FF3A29"/>
<path fill-rule="evenodd" clip-rule="evenodd" d="M6.68052 6.00003L8.74743 3.93308C8.93568 3.74482 8.93568 3.44053 8.74743 3.25228C8.55918 3.06402 8.25489 3.06402 8.06664 3.25228L5.99973 5.31923L3.93281 3.25228C3.74456 3.06402 3.44028 3.06402 3.25203 3.25228C3.06378 3.44053 3.06378 3.74482 3.25203 3.93308L5.31894 6.00003L3.25203 8.06699C3.06378 8.25525 3.06378 8.55954 3.25203 8.74779C3.34591 8.84168 3.46917 8.88886 3.59242 8.88886C3.71568 8.88886 3.83893 8.84168 3.93281 8.74779L5.99973 6.68083L8.06664 8.74779C8.16053 8.84168 8.28378 8.88886 8.40704 8.88886C8.53029 8.88886 8.65354 8.84168 8.74743 8.74779C8.93568 8.55954 8.93568 8.25525 8.74743 8.06699L6.68052 6.00003Z" fill="white"/>
</svg>
