<svg width="32" height="21" viewBox="0 0 32 21" fill="none" xmlns="http://www.w3.org/2000/svg">
<path opacity="0.34" d="M8.0017 1.24437C8.52415 0.614481 9.3 0.25 10.1184 0.25H29C30.5188 0.25 31.75 1.48122 31.75 3V18C31.75 19.5188 30.5188 20.75 29 20.75H10.1184C9.3 20.75 8.52415 20.3855 8.0017 19.7556L1.78098 12.2556C0.93653 11.2375 0.936528 9.76248 1.78097 8.74437L8.0017 1.24437Z" fill="white" stroke="#84898C" stroke-width="0.5"/>
<path d="M18.8479 10.196L19.2014 10.5496L19.555 10.196L23.5218 6.22919L23.7748 6.48217L19.808 10.449L19.4544 10.8026L19.808 11.1561L23.7748 15.1229L23.5218 15.3759L19.555 11.4091L19.2014 11.0555L18.8479 11.4091L14.8811 15.3759L14.6281 15.1229L18.5949 11.1561L18.9485 10.8026L18.5949 10.449L14.6281 6.48217L14.8811 6.22919L18.8479 10.196Z" fill="#1E3242" stroke="white"/>
</svg>
