<svg width="26" height="30" viewBox="0 0 26 30" fill="none" xmlns="http://www.w3.org/2000/svg">
<g filter="url(#filter0_d)">
<path fill-rule="evenodd" clip-rule="evenodd" d="M22 19.9688C22 20.6664 21.4253 21.2326 20.7143 21.2326C20.0033 21.2326 19.4286 20.6664 19.4286 19.9688C19.4286 16.4844 16.5447 13.6496 13 13.6496C9.45529 13.6496 6.57143 16.4844 6.57143 19.9688C6.57143 20.6664 5.99671 21.2326 5.28571 21.2326C4.57471 21.2326 4 20.6664 4 19.9688C4 15.0903 8.03843 11.1219 13 11.1219C17.9616 11.1219 22 15.0903 22 19.9688ZM13.1878 7.76728C15.1174 7.76728 16.4379 6.33856 16.4379 4.88364C16.4379 3.42872 15.1174 2 13.1878 2C11.2581 2 9.93762 3.42872 9.93762 4.88364C9.93762 6.33856 11.2581 7.76728 13.1878 7.76728ZM18.4379 4.88364C18.4379 7.57697 16.0832 9.76728 13.1878 9.76728C10.2923 9.76728 7.93762 7.57697 7.93762 4.88364C7.93762 2.19031 10.2923 0 13.1878 0C16.0832 0 18.4379 2.19031 18.4379 4.88364Z" fill="#898E92"/>
</g>
<mask id="path-2-inside-1" fill="white">
<path fill-rule="evenodd" clip-rule="evenodd" d="M13 15.7969C14.103 15.7969 15 16.6344 15 17.6643C15 18.6942 14.103 19.5318 13 19.5318C11.897 19.5318 11 18.6942 11 17.6643C11 16.6344 11.897 15.7969 13 15.7969Z"/>
</mask>
<path d="M13 18.7969C12.6432 18.7969 12 18.4817 12 17.6643H18C18 14.7871 15.5628 12.7969 13 12.7969V18.7969ZM12 17.6643C12 16.8469 12.6432 16.5318 13 16.5318V22.5318C15.5628 22.5318 18 20.5415 18 17.6643H12ZM13 16.5318C13.3568 16.5318 14 16.8469 14 17.6643H8C8 20.5415 10.4372 22.5318 13 22.5318V16.5318ZM14 17.6643C14 18.4817 13.3568 18.7969 13 18.7969V12.7969C10.4372 12.7969 8 14.7871 8 17.6643H14Z" fill="#8B8F94" mask="url(#path-2-inside-1)"/>
<mask id="path-4-inside-2" fill="white">
<path fill-rule="evenodd" clip-rule="evenodd" d="M5 22.2441C6.103 22.2441 7 23.0817 7 24.1116C7 25.1415 6.103 25.979 5 25.979C3.897 25.979 3 25.1415 3 24.1116C3 23.0817 3.897 22.2441 5 22.2441Z"/>
</mask>
<path d="M5 25.2441C4.64325 25.2441 4 24.929 4 24.1116H10C10 21.2344 7.56275 19.2441 5 19.2441V25.2441ZM4 24.1116C4 23.2942 4.64325 22.979 5 22.979V28.979C7.56275 28.979 10 26.9888 10 24.1116H4ZM5 22.979C5.35675 22.979 6 23.2942 6 24.1116H0C0 26.9888 2.43725 28.979 5 28.979V22.979ZM6 24.1116C6 24.929 5.35675 25.2441 5 25.2441V19.2441C2.43725 19.2441 0 21.2344 0 24.1116H6Z" fill="#8B8F94" mask="url(#path-4-inside-2)"/>
<mask id="path-6-inside-3" fill="white">
<path fill-rule="evenodd" clip-rule="evenodd" d="M13 24.2656C14.103 24.2656 15 25.1032 15 26.1331C15 27.163 14.103 28.0005 13 28.0005C11.897 28.0005 11 27.163 11 26.1331C11 25.1032 11.897 24.2656 13 24.2656Z"/>
</mask>
<path d="M13 27.2656C12.6432 27.2656 12 26.9505 12 26.1331H18C18 23.2559 15.5628 21.2656 13 21.2656V27.2656ZM12 26.1331C12 25.3156 12.6432 25.0005 13 25.0005V31.0005C15.5628 31.0005 18 29.0103 18 26.1331H12ZM13 25.0005C13.3568 25.0005 14 25.3156 14 26.1331H8C8 29.0103 10.4372 31.0005 13 31.0005V25.0005ZM14 26.1331C14 26.9505 13.3568 27.2656 13 27.2656V21.2656C10.4372 21.2656 8 23.2559 8 26.1331H14Z" fill="#8B8F94" mask="url(#path-6-inside-3)"/>
<mask id="path-8-inside-4" fill="white">
<path fill-rule="evenodd" clip-rule="evenodd" d="M21 22.2441C22.103 22.2441 23 23.0817 23 24.1116C23 25.1415 22.103 25.979 21 25.979C19.897 25.979 19 25.1415 19 24.1116C19 23.0817 19.897 22.2441 21 22.2441Z"/>
</mask>
<path d="M21 25.2441C20.6432 25.2441 20 24.929 20 24.1116H26C26 21.2344 23.5628 19.2441 21 19.2441V25.2441ZM20 24.1116C20 23.2942 20.6432 22.979 21 22.979V28.979C23.5628 28.979 26 26.9888 26 24.1116H20ZM21 22.979C21.3568 22.979 22 23.2942 22 24.1116H16C16 26.9888 18.4372 28.979 21 28.979V22.979ZM22 24.1116C22 24.929 21.3568 25.2441 21 25.2441V19.2441C18.4372 19.2441 16 21.2344 16 24.1116H22Z" fill="#8B8F94" mask="url(#path-8-inside-4)"/>
<path d="M6.38418 23.3679L5.89778 23.4838L6.12942 24.4566L6.61582 24.3407L6.38418 23.3679ZM12.5 24.2663C12.5 24.5425 12.7239 24.7663 13 24.7663C13.2761 24.7663 13.5 24.5425 13.5 24.2663H12.5ZM19.3842 24.3407L19.8706 24.4566L20.1022 23.4838L19.6158 23.3679L19.3842 24.3407ZM12.5 19.2109V22.3065H13.5V19.2109H12.5ZM12.8842 21.8201L6.38418 23.3679L6.61582 24.3407L13.1158 22.7929L12.8842 21.8201ZM12.5 22.3065V24.2663H13.5V22.3065H12.5ZM12.8842 22.7929L19.3842 24.3407L19.6158 23.3679L13.1158 21.8201L12.8842 22.7929Z" fill="#8B8F94"/>
<defs>
<filter id="filter0_d" x="0" y="0" width="26" height="29.2326" filterUnits="userSpaceOnUse" color-interpolation-filters="sRGB">
<feFlood flood-opacity="0" result="BackgroundImageFix"/>
<feColorMatrix in="SourceAlpha" type="matrix" values="0 0 0 0 0 0 0 0 0 0 0 0 0 0 0 0 0 0 127 0"/>
<feOffset dy="4"/>
<feGaussianBlur stdDeviation="2"/>
<feColorMatrix type="matrix" values="0 0 0 0 0 0 0 0 0 0 0 0 0 0 0 0 0 0 0.25 0"/>
<feBlend mode="normal" in2="BackgroundImageFix" result="effect1_dropShadow"/>
<feBlend mode="normal" in="SourceGraphic" in2="effect1_dropShadow" result="shape"/>
</filter>
</defs>
</svg>
