<svg width="31" height="29" viewBox="0 0 31 29" fill="none" xmlns="http://www.w3.org/2000/svg">
<mask id="path-1-inside-1" fill="white">
<path fill-rule="evenodd" clip-rule="evenodd" d="M26.3857 25.6822C25.9177 23.99 24.2097 22.732 22.181 22.732C20.1486 22.732 18.438 23.9946 17.9738 25.6916C18.3043 26.0255 18.6772 26.3225 19.0874 26.5738C19.1136 25.0635 20.4913 23.8422 22.181 23.8422C23.868 23.8422 25.244 25.0596 25.2744 26.5665C25.6839 26.3145 26.056 26.0168 26.3857 25.6822ZM23.4184 19.6784C23.4184 18.9896 22.8633 18.4294 22.1808 18.4294C21.4983 18.4294 20.9432 18.9896 20.9432 19.6784C20.9432 20.3671 21.4983 20.9273 22.1808 20.9273C22.8633 20.9273 23.4184 20.3671 23.4184 19.6784ZM24.6567 19.6785C24.6567 21.056 23.5466 22.1763 22.1815 22.1763C20.8165 22.1763 19.7064 21.056 19.7064 19.6785C19.7064 18.3009 20.8165 17.1807 22.1815 17.1807C23.5466 17.1807 24.6567 18.3009 24.6567 19.6785Z"/>
</mask>
<path fill-rule="evenodd" clip-rule="evenodd" d="M26.3857 25.6822C25.9177 23.99 24.2097 22.732 22.181 22.732C20.1486 22.732 18.438 23.9946 17.9738 25.6916C18.3043 26.0255 18.6772 26.3225 19.0874 26.5738C19.1136 25.0635 20.4913 23.8422 22.181 23.8422C23.868 23.8422 25.244 25.0596 25.2744 26.5665C25.6839 26.3145 26.056 26.0168 26.3857 25.6822ZM23.4184 19.6784C23.4184 18.9896 22.8633 18.4294 22.1808 18.4294C21.4983 18.4294 20.9432 18.9896 20.9432 19.6784C20.9432 20.3671 21.4983 20.9273 22.1808 20.9273C22.8633 20.9273 23.4184 20.3671 23.4184 19.6784ZM24.6567 19.6785C24.6567 21.056 23.5466 22.1763 22.1815 22.1763C20.8165 22.1763 19.7064 21.056 19.7064 19.6785C19.7064 18.3009 20.8165 17.1807 22.1815 17.1807C23.5466 17.1807 24.6567 18.3009 24.6567 19.6785Z" fill="#276899"/>
<path d="M26.3857 25.6822L27.8102 27.0861L28.6213 26.2629L28.3133 25.1491L26.3857 25.6822ZM17.9738 25.6916L16.0446 25.1639L15.7399 26.2779L16.5524 27.0987L17.9738 25.6916ZM19.0874 26.5738L18.0429 28.2793L21.0266 30.1065L21.0871 26.6084L19.0874 26.5738ZM25.2744 26.5665L23.2748 26.6069L23.3454 30.1027L26.3229 28.2697L25.2744 26.5665ZM22.181 24.732C23.4197 24.732 24.2577 25.4908 24.458 26.2153L28.3133 25.1491C27.5777 22.4891 24.9997 20.732 22.181 20.732V24.732ZM19.9029 26.2194C20.1014 25.4936 20.9397 24.732 22.181 24.732V20.732C19.3574 20.732 16.7746 22.4957 16.0446 25.1639L19.9029 26.2194ZM16.5524 27.0987C16.995 27.5458 17.4942 27.9433 18.0429 28.2793L20.1319 24.8682C19.8602 24.7017 19.6136 24.5053 19.3951 24.2846L16.5524 27.0987ZM22.181 21.8422C19.6028 21.8422 17.1361 23.746 17.0877 26.5391L21.0871 26.6084C21.0895 26.4746 21.1491 26.3045 21.3351 26.14C21.5236 25.9733 21.8177 25.8422 22.181 25.8422V21.8422ZM27.274 26.5262C27.2178 23.7398 24.7555 21.8422 22.181 21.8422V25.8422C22.5437 25.8422 22.8374 25.9729 23.026 26.1392C23.2122 26.3034 23.2722 26.4735 23.2748 26.6069L27.274 26.5262ZM26.3229 28.2697C26.8706 27.9325 27.3687 27.534 27.8102 27.0861L24.9612 24.2784C24.7432 24.4995 24.4972 24.6964 24.226 24.8634L26.3229 28.2697ZM22.1808 20.4294C21.7416 20.4294 21.4184 20.0769 21.4184 19.6784H25.4184C25.4184 17.9022 23.985 16.4294 22.1808 16.4294V20.4294ZM22.9432 19.6784C22.9432 20.0769 22.62 20.4294 22.1808 20.4294V16.4294C20.3765 16.4294 18.9432 17.9022 18.9432 19.6784H22.9432ZM22.1808 18.9273C22.62 18.9273 22.9432 19.2798 22.9432 19.6784H18.9432C18.9432 21.4545 20.3765 22.9273 22.1808 22.9273V18.9273ZM21.4184 19.6784C21.4184 19.2798 21.7416 18.9273 22.1808 18.9273V22.9273C23.985 22.9273 25.4184 21.4545 25.4184 19.6784H21.4184ZM22.1815 24.1763C24.6683 24.1763 26.6567 22.1434 26.6567 19.6785H22.6567C22.6567 19.9687 22.4249 20.1763 22.1815 20.1763V24.1763ZM17.7064 19.6785C17.7064 22.1434 19.6948 24.1763 22.1815 24.1763V20.1763C21.9382 20.1763 21.7064 19.9687 21.7064 19.6785H17.7064ZM22.1815 15.1807C19.6948 15.1807 17.7064 17.2136 17.7064 19.6785H21.7064C21.7064 19.3883 21.9382 19.1807 22.1815 19.1807V15.1807ZM26.6567 19.6785C26.6567 17.2136 24.6683 15.1807 22.1815 15.1807V19.1807C22.4249 19.1807 22.6567 19.3883 22.6567 19.6785H26.6567Z" fill="#276899" mask="url(#path-1-inside-1)"/>
<mask id="path-3-inside-2" fill="white">
<path fill-rule="evenodd" clip-rule="evenodd" d="M12.251 25.6822C11.783 23.99 10.075 22.732 8.04636 22.732C6.01394 22.732 4.30337 23.9946 3.83911 25.6916C4.16966 26.0255 4.54255 26.3225 4.95279 26.5738C4.97895 25.0635 6.35665 23.8422 8.04636 23.8422C9.73339 23.8422 11.1094 25.0596 11.1398 26.5665C11.5493 26.3145 11.9213 26.0168 12.251 25.6822ZM9.28372 19.6784C9.28372 18.9896 8.72867 18.4294 8.04614 18.4294C7.36362 18.4294 6.80856 18.9896 6.80856 19.6784C6.80856 20.3671 7.36362 20.9273 8.04614 20.9273C8.72867 20.9273 9.28372 20.3671 9.28372 19.6784ZM10.5218 19.6785C10.5218 21.056 9.41171 22.1763 8.04665 22.1763C6.6816 22.1763 5.57149 21.056 5.57149 19.6785C5.57149 18.3009 6.6816 17.1807 8.04665 17.1807C9.41171 17.1807 10.5218 18.3009 10.5218 19.6785Z"/>
</mask>
<path fill-rule="evenodd" clip-rule="evenodd" d="M12.251 25.6822C11.783 23.99 10.075 22.732 8.04636 22.732C6.01394 22.732 4.30337 23.9946 3.83911 25.6916C4.16966 26.0255 4.54255 26.3225 4.95279 26.5738C4.97895 25.0635 6.35665 23.8422 8.04636 23.8422C9.73339 23.8422 11.1094 25.0596 11.1398 26.5665C11.5493 26.3145 11.9213 26.0168 12.251 25.6822ZM9.28372 19.6784C9.28372 18.9896 8.72867 18.4294 8.04614 18.4294C7.36362 18.4294 6.80856 18.9896 6.80856 19.6784C6.80856 20.3671 7.36362 20.9273 8.04614 20.9273C8.72867 20.9273 9.28372 20.3671 9.28372 19.6784ZM10.5218 19.6785C10.5218 21.056 9.41171 22.1763 8.04665 22.1763C6.6816 22.1763 5.57149 21.056 5.57149 19.6785C5.57149 18.3009 6.6816 17.1807 8.04665 17.1807C9.41171 17.1807 10.5218 18.3009 10.5218 19.6785Z" fill="#276899"/>
<path d="M12.251 25.6822L13.6755 27.0861L14.4867 26.2629L14.1787 25.1491L12.251 25.6822ZM3.83911 25.6916L1.91 25.1639L1.60524 26.2779L2.41775 27.0987L3.83911 25.6916ZM4.95279 26.5738L3.90829 28.2793L6.89192 30.1065L6.95249 26.6084L4.95279 26.5738ZM11.1398 26.5665L9.1402 26.6069L9.21073 30.1027L12.1883 28.2697L11.1398 26.5665ZM8.04636 24.732C9.28506 24.732 10.123 25.4908 10.3234 26.2153L14.1787 25.1491C13.4431 22.4891 10.865 20.732 8.04636 20.732V24.732ZM5.76822 26.2194C5.96677 25.4936 6.8051 24.732 8.04636 24.732V20.732C5.22277 20.732 2.63996 22.4957 1.91 25.1639L5.76822 26.2194ZM2.41775 27.0987C2.86036 27.5458 3.35956 27.9433 3.90829 28.2793L5.9973 24.8682C5.72554 24.7017 5.47896 24.5053 5.26048 24.2846L2.41775 27.0987ZM8.04636 21.8422C5.46817 21.8422 3.00146 23.746 2.95309 26.5391L6.95249 26.6084C6.95481 26.4746 7.01443 26.3045 7.20044 26.14C7.389 25.9733 7.68309 25.8422 8.04636 25.8422V21.8422ZM13.1394 26.5262C13.0832 23.7398 10.6208 21.8422 8.04636 21.8422V25.8422C8.40905 25.8422 8.70279 25.9729 8.8914 26.1392C9.07756 26.3034 9.13751 26.4735 9.1402 26.6069L13.1394 26.5262ZM12.1883 28.2697C12.736 27.9325 13.2341 27.534 13.6755 27.0861L10.8265 24.2784C10.6086 24.4995 10.3626 24.6964 10.0913 24.8634L12.1883 28.2697ZM8.04614 20.4294C7.60695 20.4294 7.28372 20.0769 7.28372 19.6784H11.2837C11.2837 17.9022 9.85039 16.4294 8.04614 16.4294V20.4294ZM8.80856 19.6784C8.80856 20.0769 8.48534 20.4294 8.04614 20.4294V16.4294C6.2419 16.4294 4.80856 17.9022 4.80856 19.6784H8.80856ZM8.04614 18.9273C8.48534 18.9273 8.80856 19.2798 8.80856 19.6784H4.80856C4.80856 21.4545 6.2419 22.9273 8.04614 22.9273V18.9273ZM7.28372 19.6784C7.28372 19.2798 7.60695 18.9273 8.04614 18.9273V22.9273C9.85039 22.9273 11.2837 21.4545 11.2837 19.6784H7.28372ZM8.04665 24.1763C10.5334 24.1763 12.5218 22.1434 12.5218 19.6785H8.52181C8.52181 19.9687 8.28998 20.1763 8.04665 20.1763V24.1763ZM3.57149 19.6785C3.57149 22.1434 5.55988 24.1763 8.04665 24.1763V20.1763C7.80333 20.1763 7.57149 19.9687 7.57149 19.6785H3.57149ZM8.04665 15.1807C5.55988 15.1807 3.57149 17.2136 3.57149 19.6785H7.57149C7.57149 19.3883 7.80333 19.1807 8.04665 19.1807V15.1807ZM12.5218 19.6785C12.5218 17.2136 10.5334 15.1807 8.04665 15.1807V19.1807C8.28998 19.1807 8.52181 19.3883 8.52181 19.6785H12.5218Z" fill="#276899" mask="url(#path-3-inside-2)"/>
<path d="M7.21406 13.5889C7.68671 13.3077 8.27536 13.3077 8.74802 13.5889L13.6598 16.5113C14.1143 16.7818 14.3928 17.2715 14.3928 17.8004V23.7506C14.3928 24.2795 14.1143 24.7693 13.6598 25.0397L8.74802 27.9621C8.27536 28.2433 7.68671 28.2433 7.21406 27.9621L2.30228 25.0397C1.84777 24.7693 1.56926 24.2795 1.56926 23.7506V17.8004C1.56926 17.2715 1.84777 16.7818 2.30228 16.5113L7.21406 13.5889Z" stroke="#276899"/>
<mask id="path-6-inside-3" fill="white">
<path fill-rule="evenodd" clip-rule="evenodd" d="M19.2988 13.0637C18.8045 11.4057 17.1151 10.1812 15.1136 10.1812C13.1084 10.1812 11.4165 11.4102 10.9257 13.0729C11.2522 13.3997 11.6195 13.6906 12.0229 13.9373C12.0985 12.4668 13.4559 11.2914 15.1136 11.2914C16.7686 11.2914 18.1243 12.4631 18.2038 13.9303C18.6065 13.6828 18.973 13.3912 19.2988 13.0637ZM10.8734 14.3572C10.9767 14.4373 11.0825 14.5146 11.1908 14.589C11.0579 14.5461 10.9463 14.4635 10.8734 14.3572ZM19.0151 14.5955C19.1351 14.5133 19.2522 14.4275 19.3661 14.3384C19.2902 14.4595 19.1651 14.5525 19.0151 14.5955ZM16.3509 7.12758C16.3509 6.43881 15.7959 5.87867 15.1134 5.87867C14.4308 5.87867 13.8758 6.43881 13.8758 7.12758C13.8758 7.81636 14.4308 8.3765 15.1134 8.3765C15.7959 8.3765 16.3509 7.81636 16.3509 7.12758ZM17.5891 7.12771C17.5891 8.50527 16.479 9.62554 15.114 9.62554C13.7489 9.62554 12.6388 8.50527 12.6388 7.12771C12.6388 5.75016 13.7489 4.62988 15.114 4.62988C16.479 4.62988 17.5891 5.75016 17.5891 7.12771Z"/>
</mask>
<path fill-rule="evenodd" clip-rule="evenodd" d="M19.2988 13.0637C18.8045 11.4057 17.1151 10.1812 15.1136 10.1812C13.1084 10.1812 11.4165 11.4102 10.9257 13.0729C11.2522 13.3997 11.6195 13.6906 12.0229 13.9373C12.0985 12.4668 13.4559 11.2914 15.1136 11.2914C16.7686 11.2914 18.1243 12.4631 18.2038 13.9303C18.6065 13.6828 18.973 13.3912 19.2988 13.0637ZM10.8734 14.3572C10.9767 14.4373 11.0825 14.5146 11.1908 14.589C11.0579 14.5461 10.9463 14.4635 10.8734 14.3572ZM19.0151 14.5955C19.1351 14.5133 19.2522 14.4275 19.3661 14.3384C19.2902 14.4595 19.1651 14.5525 19.0151 14.5955ZM16.3509 7.12758C16.3509 6.43881 15.7959 5.87867 15.1134 5.87867C14.4308 5.87867 13.8758 6.43881 13.8758 7.12758C13.8758 7.81636 14.4308 8.3765 15.1134 8.3765C15.7959 8.3765 16.3509 7.81636 16.3509 7.12758ZM17.5891 7.12771C17.5891 8.50527 16.479 9.62554 15.114 9.62554C13.7489 9.62554 12.6388 8.50527 12.6388 7.12771C12.6388 5.75016 13.7489 4.62988 15.114 4.62988C16.479 4.62988 17.5891 5.75016 17.5891 7.12771Z" fill="#276899"/>
<path d="M19.2988 13.0637L20.7167 14.4742L21.555 13.6315L21.2154 12.4923L19.2988 13.0637ZM10.9257 13.0729L9.00749 12.5066L8.67112 13.646L9.51082 14.4864L10.9257 13.0729ZM12.0229 13.9373L10.9794 15.6435L13.8477 17.3978L14.0203 14.04L12.0229 13.9373ZM18.2038 13.9303L16.2068 14.0386L16.3887 17.3938L19.2512 15.6341L18.2038 13.9303ZM10.8734 14.3572L12.0984 12.7763L9.22396 15.4883L10.8734 14.3572ZM11.1908 14.589L10.5755 16.492L12.3239 12.941L11.1908 14.589ZM19.0151 14.5955L17.8847 12.9456L19.5662 16.5181L19.0151 14.5955ZM19.3661 14.3384L21.0608 15.4005L18.1341 12.7629L19.3661 14.3384ZM15.1136 12.1812C16.3337 12.1812 17.1688 12.9197 17.3822 13.6351L21.2154 12.4923C20.4401 9.89182 17.8964 8.18123 15.1136 8.18123V12.1812ZM12.8438 13.6391C13.0554 12.9224 13.8909 12.1812 15.1136 12.1812V8.18123C12.3259 8.18123 9.77756 9.89808 9.00749 12.5066L12.8438 13.6391ZM9.51082 14.4864C9.94807 14.9241 10.4398 15.3135 10.9794 15.6435L13.0664 12.2311C12.7992 12.0677 12.5563 11.8753 12.3405 11.6593L9.51082 14.4864ZM15.1136 9.29137C12.5797 9.29137 10.165 11.1223 10.0256 13.8347L14.0203 14.04C14.0321 13.8113 14.3321 13.2914 15.1136 13.2914V9.29137ZM20.2009 13.8221C20.0542 11.1164 17.6438 9.29137 15.1136 9.29137V13.2914C15.8934 13.2914 16.1944 13.8098 16.2068 14.0386L20.2009 13.8221ZM19.2512 15.6341C19.7898 15.3031 20.2805 14.9127 20.7167 14.4742L17.8809 11.6532C17.6656 11.8696 17.4232 12.0625 17.1565 12.2265L19.2512 15.6341ZM9.64842 15.9382C9.7816 16.0414 9.91806 16.1411 10.0577 16.2371L12.3239 12.941C12.2469 12.8881 12.1718 12.8331 12.0984 12.7763L9.64842 15.9382ZM11.8061 12.686C12.0696 12.7712 12.3318 12.9475 12.5229 13.2262L9.22396 15.4883C9.56077 15.9795 10.0463 16.3209 10.5755 16.492L11.8061 12.686ZM20.1454 16.2454C20.3003 16.1394 20.4512 16.0288 20.598 15.914L18.1341 12.7629C18.0532 12.8262 17.97 12.8871 17.8847 12.9456L20.1454 16.2454ZM17.6713 13.2764C17.874 12.9531 18.1705 12.7571 18.4639 12.673L19.5662 16.5181C20.1598 16.3479 20.7064 15.966 21.0608 15.4005L17.6713 13.2764ZM15.1134 7.87867C14.6742 7.87867 14.3509 7.52614 14.3509 7.12758H18.3509C18.3509 5.35147 16.9176 3.87867 15.1134 3.87867V7.87867ZM15.8758 7.12758C15.8758 7.52615 15.5525 7.87867 15.1134 7.87867V3.87867C13.3091 3.87867 11.8758 5.35147 11.8758 7.12758H15.8758ZM15.1134 6.3765C15.5525 6.3765 15.8758 6.72902 15.8758 7.12758H11.8758C11.8758 8.9037 13.3091 10.3765 15.1134 10.3765V6.3765ZM14.3509 7.12758C14.3509 6.72902 14.6742 6.3765 15.1134 6.3765V10.3765C16.9176 10.3765 18.3509 8.9037 18.3509 7.12758H14.3509ZM15.114 11.6255C17.6008 11.6255 19.5891 9.5926 19.5891 7.12771H15.5891C15.5891 7.41793 15.3573 7.62554 15.114 7.62554V11.6255ZM10.6388 7.12771C10.6388 9.5926 12.6272 11.6255 15.114 11.6255V7.62554C14.8706 7.62554 14.6388 7.41793 14.6388 7.12771H10.6388ZM15.114 2.62988C12.6272 2.62988 10.6388 4.66282 10.6388 7.12771H14.6388C14.6388 6.8375 14.8706 6.62988 15.114 6.62988V2.62988ZM19.5891 7.12771C19.5891 4.66282 17.6008 2.62988 15.114 2.62988V6.62988C15.3573 6.62988 15.5891 6.8375 15.5891 7.12771H19.5891Z" fill="#276899" mask="url(#path-6-inside-3)"/>
<path d="M14.2813 1.03814C14.754 0.756926 15.3426 0.756926 15.8153 1.03814L20.7271 3.96055C21.1816 4.23098 21.4601 4.72077 21.4601 5.24964V11.1998C21.4601 11.7287 21.1816 12.2185 20.7271 12.4889L15.8153 15.4113C15.3426 15.6925 14.754 15.6925 14.2813 15.4113L9.36954 12.4889C8.91503 12.2185 8.63652 11.7287 8.63652 11.1998V5.24964C8.63652 4.72077 8.91503 4.23098 9.36954 3.96055L14.2813 1.03814Z" stroke="#276899"/>
<path d="M21.3485 13.5889C21.8211 13.3077 22.4098 13.3077 22.8824 13.5889L27.7942 16.5113C28.2487 16.7818 28.5272 17.2715 28.5272 17.8004V23.7506C28.5272 24.2795 28.2487 24.7693 27.7942 25.0397L22.8824 27.9621C22.4098 28.2433 21.8211 28.2433 21.3485 27.9621L16.4367 25.0397C15.9822 24.7693 15.7037 24.2795 15.7037 23.7506V17.8004C15.7037 17.2715 15.9822 16.7818 16.4367 16.5113L21.3485 13.5889Z" stroke="#276899"/>
</svg>
