<svg width="22" height="24" viewBox="0 0 22 24" fill="none" xmlns="http://www.w3.org/2000/svg">
<rect x="9.19922" y="17" width="3.7" height="5" fill="#276899"/>
<path d="M9 22C9.58647 19.9162 9.59877 18.7461 9.5 17H12.5C12.2733 18.8623 12.5334 20.2661 13 22H9Z" stroke="#979797"/>
<rect width="22" height="17" rx="1" fill="#276899"/>
<path d="M7 23H15" stroke="#979797"/>
<path d="M5.16406 10.4961L6.39844 6.3125H6.78516L6.47266 7.55469L5.15625 12H4.78516L5.16406 10.4961ZM3.73047 6.3125L4.76953 10.457L5.08203 12H4.69531L3.23828 6.3125H3.73047ZM8.44922 10.457L9.47266 6.3125H9.96484L8.51172 12H8.125L8.44922 10.457ZM6.82812 6.3125L8.04688 10.4961L8.42188 12H8.05078L6.76172 7.55469L6.44531 6.3125H6.82812ZM14.4297 11.5898V12H11.2305V11.5898H14.4297ZM11.375 6.3125V12H10.8945V6.3125H11.375ZM14.0312 8.86328V9.27344H11.2305V8.86328H14.0312ZM14.4102 6.3125V6.72656H11.2305V6.3125H14.4102ZM17.4062 9.26562H15.8047L15.7969 8.85938H17.1758C17.457 8.85938 17.6966 8.81901 17.8945 8.73828C18.0924 8.65755 18.2422 8.53776 18.3438 8.37891C18.4479 8.21745 18.5 8.01953 18.5 7.78516C18.5 7.54557 18.4492 7.34766 18.3477 7.19141C18.2461 7.03255 18.0938 6.91536 17.8906 6.83984C17.6875 6.76432 17.4323 6.72656 17.125 6.72656H15.9297V12H15.4492V6.3125H17.125C17.4141 6.3125 17.6732 6.34115 17.9023 6.39844C18.1315 6.45573 18.3268 6.54557 18.4883 6.66797C18.6497 6.79036 18.7721 6.94531 18.8555 7.13281C18.9414 7.31771 18.9844 7.53906 18.9844 7.79688C18.9844 8.03125 18.9323 8.24349 18.8281 8.43359C18.724 8.62109 18.5768 8.77474 18.3867 8.89453C18.1992 9.01172 17.974 9.08464 17.7109 9.11328L17.4062 9.26562ZM17.3711 12H15.6523L15.8984 11.5898H17.3711C17.6523 11.5898 17.8919 11.543 18.0898 11.4492C18.2904 11.3529 18.444 11.2161 18.5508 11.0391C18.6576 10.862 18.7109 10.651 18.7109 10.4062C18.7109 10.1901 18.6641 9.99609 18.5703 9.82422C18.4766 9.65234 18.3333 9.51693 18.1406 9.41797C17.9479 9.31641 17.7031 9.26562 17.4062 9.26562H16.4102L16.418 8.85938H17.8281L17.9141 9.00391C18.1693 9.02995 18.3919 9.10938 18.582 9.24219C18.7747 9.3724 18.9232 9.53776 19.0273 9.73828C19.1341 9.9388 19.1875 10.1589 19.1875 10.3984C19.1875 10.7422 19.1107 11.0339 18.957 11.2734C18.806 11.5104 18.5938 11.6914 18.3203 11.8164C18.0495 11.9388 17.7331 12 17.3711 12Z" fill="white"/>
</svg>
