<svg width="283" height="35" viewBox="0 0 283 35" fill="none" xmlns="http://www.w3.org/2000/svg">
<rect width="283" height="35" fill="#276899"/>
<path d="M62.4854 24V11.2031H66.0977C67.2109 11.2031 68.1953 11.4492 69.0508 11.9414C69.9062 12.4336 70.5654 13.1338 71.0283 14.042C71.4971 14.9502 71.7344 15.9932 71.7402 17.1709V17.9883C71.7402 19.1953 71.5059 20.2529 71.0371 21.1611C70.5742 22.0693 69.9092 22.7666 69.042 23.2529C68.1807 23.7393 67.1758 23.9883 66.0273 24H62.4854ZM64.1729 12.5918V22.6201H65.9482C67.249 22.6201 68.2598 22.2158 68.9805 21.4072C69.707 20.5986 70.0703 19.4473 70.0703 17.9531V17.2061C70.0703 15.7529 69.7275 14.625 69.042 13.8223C68.3623 13.0137 67.3955 12.6035 66.1416 12.5918H64.1729ZM75.8096 24H74.1836V14.4902H75.8096V24ZM74.0518 11.9678C74.0518 11.7041 74.1309 11.4814 74.2891 11.2998C74.4531 11.1182 74.6934 11.0273 75.0098 11.0273C75.3262 11.0273 75.5664 11.1182 75.7305 11.2998C75.8945 11.4814 75.9766 11.7041 75.9766 11.9678C75.9766 12.2314 75.8945 12.4512 75.7305 12.627C75.5664 12.8027 75.3262 12.8906 75.0098 12.8906C74.6934 12.8906 74.4531 12.8027 74.2891 12.627C74.1309 12.4512 74.0518 12.2314 74.0518 11.9678ZM84.291 24C84.1973 23.8125 84.1211 23.4785 84.0625 22.998C83.3066 23.7832 82.4043 24.1758 81.3555 24.1758C80.418 24.1758 79.6475 23.9121 79.0439 23.3848C78.4463 22.8516 78.1475 22.1777 78.1475 21.3633C78.1475 20.373 78.5225 19.6055 79.2725 19.0605C80.0283 18.5098 81.0889 18.2344 82.4541 18.2344H84.0361V17.4873C84.0361 16.9189 83.8662 16.4678 83.5264 16.1338C83.1865 15.7939 82.6855 15.624 82.0234 15.624C81.4434 15.624 80.957 15.7705 80.5645 16.0635C80.1719 16.3564 79.9756 16.7109 79.9756 17.127H78.3408C78.3408 16.6523 78.5078 16.1953 78.8418 15.7559C79.1816 15.3105 79.6387 14.959 80.2129 14.7012C80.793 14.4434 81.4287 14.3145 82.1201 14.3145C83.2158 14.3145 84.0742 14.5898 84.6953 15.1406C85.3164 15.6855 85.6387 16.4385 85.6621 17.3994V21.7764C85.6621 22.6494 85.7734 23.3438 85.9961 23.8594V24H84.291ZM81.5928 22.7607C82.1025 22.7607 82.5859 22.6289 83.043 22.3652C83.5 22.1016 83.8311 21.7588 84.0361 21.3369V19.3857H82.7617C80.7695 19.3857 79.7734 19.9688 79.7734 21.1348C79.7734 21.6445 79.9434 22.043 80.2832 22.3301C80.623 22.6172 81.0596 22.7607 81.5928 22.7607ZM89.9775 24H88.3516V10.5H89.9775V24ZM106.721 19.9395C106.562 21.293 106.062 22.3389 105.218 23.0771C104.38 23.8096 103.264 24.1758 101.869 24.1758C100.357 24.1758 99.1445 23.6338 98.2305 22.5498C97.3223 21.4658 96.8682 20.0156 96.8682 18.1992V16.9688C96.8682 15.7793 97.0791 14.7334 97.501 13.8311C97.9287 12.9287 98.5322 12.2373 99.3115 11.7568C100.091 11.2705 100.993 11.0273 102.019 11.0273C103.378 11.0273 104.468 11.4082 105.288 12.1699C106.108 12.9258 106.586 13.9746 106.721 15.3164H105.024C104.878 14.2969 104.559 13.5586 104.066 13.1016C103.58 12.6445 102.897 12.416 102.019 12.416C100.94 12.416 100.094 12.8145 99.4785 13.6113C98.8691 14.4082 98.5645 15.542 98.5645 17.0127V18.252C98.5645 19.6406 98.8545 20.7451 99.4346 21.5654C100.015 22.3857 100.826 22.7959 101.869 22.7959C102.807 22.7959 103.524 22.585 104.022 22.1631C104.526 21.7354 104.86 20.9941 105.024 19.9395H106.721ZM108.347 19.1572C108.347 18.2256 108.528 17.3877 108.892 16.6436C109.261 15.8994 109.771 15.3252 110.421 14.9209C111.077 14.5166 111.824 14.3145 112.662 14.3145C113.957 14.3145 115.003 14.7627 115.8 15.6592C116.603 16.5557 117.004 17.748 117.004 19.2363V19.3506C117.004 20.2764 116.825 21.1084 116.468 21.8467C116.116 22.5791 115.609 23.1504 114.947 23.5605C114.291 23.9707 113.535 24.1758 112.68 24.1758C111.391 24.1758 110.345 23.7275 109.542 22.8311C108.745 21.9346 108.347 20.748 108.347 19.2715V19.1572ZM109.981 19.3506C109.981 20.4053 110.225 21.252 110.711 21.8906C111.203 22.5293 111.859 22.8486 112.68 22.8486C113.506 22.8486 114.162 22.5264 114.648 21.8818C115.135 21.2314 115.378 20.3232 115.378 19.1572C115.378 18.1143 115.129 17.2705 114.631 16.626C114.139 15.9756 113.482 15.6504 112.662 15.6504C111.859 15.6504 111.212 15.9697 110.72 16.6084C110.228 17.2471 109.981 18.1611 109.981 19.3506ZM120.581 14.4902L120.634 15.6855C121.36 14.7715 122.31 14.3145 123.481 14.3145C125.491 14.3145 126.505 15.4482 126.522 17.7158V24H124.896V17.707C124.891 17.0215 124.732 16.5146 124.422 16.1865C124.117 15.8584 123.64 15.6943 122.989 15.6943C122.462 15.6943 121.999 15.835 121.601 16.1162C121.202 16.3975 120.892 16.7666 120.669 17.2236V24H119.043V14.4902H120.581ZM129.774 24V15.7471H128.271V14.4902H129.774V13.5146C129.774 12.4951 130.047 11.707 130.592 11.1504C131.137 10.5938 131.907 10.3154 132.903 10.3154C133.278 10.3154 133.65 10.3652 134.02 10.4648L133.932 11.7832C133.656 11.7305 133.363 11.7041 133.053 11.7041C132.525 11.7041 132.118 11.8594 131.831 12.1699C131.544 12.4746 131.4 12.9141 131.4 13.4883V14.4902H133.431V15.7471H131.4V24H129.774ZM136.999 24H135.373V14.4902H136.999V24ZM135.241 11.9678C135.241 11.7041 135.32 11.4814 135.479 11.2998C135.643 11.1182 135.883 11.0273 136.199 11.0273C136.516 11.0273 136.756 11.1182 136.92 11.2998C137.084 11.4814 137.166 11.7041 137.166 11.9678C137.166 12.2314 137.084 12.4512 136.92 12.627C136.756 12.8027 136.516 12.8906 136.199 12.8906C135.883 12.8906 135.643 12.8027 135.479 12.627C135.32 12.4512 135.241 12.2314 135.241 11.9678ZM139.223 19.166C139.223 17.6836 139.565 16.5059 140.251 15.6328C140.937 14.7539 141.845 14.3145 142.976 14.3145C144.136 14.3145 145.041 14.7246 145.691 15.5449L145.771 14.4902H147.256V23.7715C147.256 25.002 146.89 25.9717 146.157 26.6807C145.431 27.3896 144.452 27.7441 143.222 27.7441C142.536 27.7441 141.865 27.5977 141.209 27.3047C140.553 27.0117 140.052 26.6104 139.706 26.1006L140.55 25.125C141.247 25.9863 142.1 26.417 143.107 26.417C143.898 26.417 144.514 26.1943 144.953 25.749C145.398 25.3037 145.621 24.6768 145.621 23.8682V23.0508C144.971 23.8008 144.083 24.1758 142.958 24.1758C141.845 24.1758 140.942 23.7275 140.251 22.8311C139.565 21.9346 139.223 20.7129 139.223 19.166ZM140.857 19.3506C140.857 20.4229 141.077 21.2666 141.517 21.8818C141.956 22.4912 142.571 22.7959 143.362 22.7959C144.388 22.7959 145.141 22.3301 145.621 21.3984V17.0566C145.123 16.1484 144.376 15.6943 143.38 15.6943C142.589 15.6943 141.971 16.002 141.525 16.6172C141.08 17.2324 140.857 18.1436 140.857 19.3506ZM155.588 23.0596C154.955 23.8037 154.026 24.1758 152.802 24.1758C151.788 24.1758 151.015 23.8828 150.481 23.2969C149.954 22.7051 149.688 21.832 149.682 20.6777V14.4902H151.308V20.6338C151.308 22.0752 151.894 22.7959 153.065 22.7959C154.308 22.7959 155.134 22.333 155.544 21.4072V14.4902H157.17V24H155.623L155.588 23.0596ZM164.245 15.9492C163.999 15.9082 163.732 15.8877 163.445 15.8877C162.379 15.8877 161.655 16.3418 161.274 17.25V24H159.648V14.4902H161.23L161.257 15.5889C161.79 14.7393 162.546 14.3145 163.524 14.3145C163.841 14.3145 164.081 14.3555 164.245 14.4375V15.9492ZM171.268 24C171.174 23.8125 171.098 23.4785 171.039 22.998C170.283 23.7832 169.381 24.1758 168.332 24.1758C167.395 24.1758 166.624 23.9121 166.021 23.3848C165.423 22.8516 165.124 22.1777 165.124 21.3633C165.124 20.373 165.499 19.6055 166.249 19.0605C167.005 18.5098 168.065 18.2344 169.431 18.2344H171.013V17.4873C171.013 16.9189 170.843 16.4678 170.503 16.1338C170.163 15.7939 169.662 15.624 169 15.624C168.42 15.624 167.934 15.7705 167.541 16.0635C167.148 16.3564 166.952 16.7109 166.952 17.127H165.317C165.317 16.6523 165.484 16.1953 165.818 15.7559C166.158 15.3105 166.615 14.959 167.189 14.7012C167.77 14.4434 168.405 14.3145 169.097 14.3145C170.192 14.3145 171.051 14.5898 171.672 15.1406C172.293 15.6855 172.615 16.4385 172.639 17.3994V21.7764C172.639 22.6494 172.75 23.3438 172.973 23.8594V24H171.268ZM168.569 22.7607C169.079 22.7607 169.562 22.6289 170.02 22.3652C170.477 22.1016 170.808 21.7588 171.013 21.3369V19.3857H169.738C167.746 19.3857 166.75 19.9688 166.75 21.1348C166.75 21.6445 166.92 22.043 167.26 22.3301C167.6 22.6172 168.036 22.7607 168.569 22.7607ZM177.394 12.1875V14.4902H179.169V15.7471H177.394V21.6445C177.394 22.0254 177.473 22.3125 177.631 22.5059C177.789 22.6934 178.059 22.7871 178.439 22.7871C178.627 22.7871 178.885 22.752 179.213 22.6816V24C178.785 24.1172 178.369 24.1758 177.965 24.1758C177.238 24.1758 176.69 23.9561 176.321 23.5166C175.952 23.0771 175.768 22.4531 175.768 21.6445V15.7471H174.036V14.4902H175.768V12.1875H177.394ZM182.843 24H181.217V14.4902H182.843V24ZM181.085 11.9678C181.085 11.7041 181.164 11.4814 181.322 11.2998C181.486 11.1182 181.727 11.0273 182.043 11.0273C182.359 11.0273 182.6 11.1182 182.764 11.2998C182.928 11.4814 183.01 11.7041 183.01 11.9678C183.01 12.2314 182.928 12.4512 182.764 12.627C182.6 12.8027 182.359 12.8906 182.043 12.8906C181.727 12.8906 181.486 12.8027 181.322 12.627C181.164 12.4512 181.085 12.2314 181.085 11.9678ZM185.022 19.1572C185.022 18.2256 185.204 17.3877 185.567 16.6436C185.937 15.8994 186.446 15.3252 187.097 14.9209C187.753 14.5166 188.5 14.3145 189.338 14.3145C190.633 14.3145 191.679 14.7627 192.476 15.6592C193.278 16.5557 193.68 17.748 193.68 19.2363V19.3506C193.68 20.2764 193.501 21.1084 193.144 21.8467C192.792 22.5791 192.285 23.1504 191.623 23.5605C190.967 23.9707 190.211 24.1758 189.355 24.1758C188.066 24.1758 187.021 23.7275 186.218 22.8311C185.421 21.9346 185.022 20.748 185.022 19.2715V19.1572ZM186.657 19.3506C186.657 20.4053 186.9 21.252 187.387 21.8906C187.879 22.5293 188.535 22.8486 189.355 22.8486C190.182 22.8486 190.838 22.5264 191.324 21.8818C191.811 21.2314 192.054 20.3232 192.054 19.1572C192.054 18.1143 191.805 17.2705 191.307 16.626C190.814 15.9756 190.158 15.6504 189.338 15.6504C188.535 15.6504 187.888 15.9697 187.396 16.6084C186.903 17.2471 186.657 18.1611 186.657 19.3506ZM197.257 14.4902L197.31 15.6855C198.036 14.7715 198.985 14.3145 200.157 14.3145C202.167 14.3145 203.181 15.4482 203.198 17.7158V24H201.572V17.707C201.566 17.0215 201.408 16.5146 201.098 16.1865C200.793 15.8584 200.315 15.6943 199.665 15.6943C199.138 15.6943 198.675 15.835 198.276 16.1162C197.878 16.3975 197.567 16.7666 197.345 17.2236V24H195.719V14.4902H197.257Z" fill="white"/>
<path d="M27 12L37.9779 23L48.9558 12" stroke="white" stroke-width="2"/>
<path d="M244.587 24.2222C244.587 25.2 245.377 26 246.343 26H253.366C254.332 26 255.122 25.2 255.122 24.2222V13.5556H244.587V24.2222ZM256 10.8889H252.927L252.049 10H247.66L246.782 10.8889H243.709V12.6667H256V10.8889Z" fill="white"/>
<rect x="247.808" y="10.4102" width="4.09706" height="0.410256" fill="#276899"/>
<rect x="246.169" y="14.9238" width="0.819412" height="9.4359" fill="#276899"/>
<rect x="249.44" y="14.9238" width="0.819412" height="9.4359" fill="#276899"/>
<rect x="252.723" y="14.9238" width="0.819412" height="9.4359" fill="#276899"/>
</svg>
