<svg width="32" height="32" viewBox="0 0 32 32" fill="none" xmlns="http://www.w3.org/2000/svg">
<mask id="path-1-inside-1" fill="white">
<path fill-rule="evenodd" clip-rule="evenodd" d="M7.6256 25.6832C8.1936 24.8888 8.1056 23.7011 7.4304 23.0291C4.7008 20.3298 3.2 16.8305 3.2 13.1768C3.2 9.52314 4.7008 6.02383 7.4304 3.32452C8.1056 2.65252 8.1936 1.46475 7.6256 0.670397C7.0544 -0.123959 6.0464 -0.227489 5.3696 0.440749C1.9072 3.87041 0 8.39372 0 13.1768C0 17.9599 1.9072 22.4832 5.3696 25.9128C5.6704 26.2084 6.0352 26.3533 6.3984 26.3533C6.8544 26.3533 7.3072 26.1255 7.6256 25.6832ZM26.6303 25.913C30.0927 22.4833 31.9999 17.96 31.9999 13.177C31.9999 8.39389 30.0927 3.87058 26.6303 0.440918C25.9519 -0.225437 24.9455 -0.121907 24.3743 0.670566C23.8063 1.46492 23.8943 2.65269 24.5695 3.32469C27.2991 6.024 28.7999 9.5233 28.7999 13.177C28.7999 16.8306 27.2991 20.3299 24.5695 23.0292C23.8943 23.7012 23.8063 24.889 24.3743 25.6834C24.6927 26.1257 25.1455 26.3535 25.6015 26.3535C25.9647 26.3535 26.3295 26.2085 26.6303 25.913ZM8.8 13.1774C8.8 10.9317 9.7344 8.767 11.4304 7.08793C12.1056 6.41781 12.1936 5.23004 11.624 4.43569C11.056 3.64133 10.048 3.53404 9.3696 4.20792C6.9392 6.61546 5.6 9.80041 5.6 13.1774C5.6 16.5543 6.9392 19.7393 9.3696 22.1468C9.6704 22.4442 10.0352 22.5892 10.3984 22.5892C10.8544 22.5892 11.3072 22.3614 11.624 21.919C12.1936 21.1247 12.1056 19.9369 11.4304 19.2668C9.7344 17.5877 8.8 15.423 8.8 13.1774ZM26.4001 13.1775C26.4001 16.5545 25.0609 19.7394 22.6305 22.147C22.3297 22.4444 21.9649 22.5893 21.6017 22.5893C21.1457 22.5893 20.6929 22.3616 20.3761 21.9192C19.8065 21.1249 19.8945 19.9371 20.5697 19.267C22.2657 17.5879 23.2001 15.4232 23.2001 13.1775C23.2001 10.9319 22.2657 8.76717 20.5697 7.0881C19.8945 6.41798 19.8065 5.23021 20.3761 4.43586C20.9441 3.64338 21.9537 3.53609 22.6305 4.20809C25.0609 6.61563 26.4001 9.80058 26.4001 13.1775ZM15.9999 15.0585C15.1167 15.0585 14.3999 14.2152 14.3999 13.1761C14.3999 12.137 15.1167 11.2937 15.9999 11.2937C16.8831 11.2937 17.5999 12.137 17.5999 13.1761C17.5999 14.2152 16.8831 15.0585 15.9999 15.0585ZM15.9974 7.52969C13.351 7.52969 11.1974 10.0633 11.1974 13.1768C11.1974 15.6502 12.5654 17.7358 14.4534 18.4963C14.4358 18.6074 14.3974 18.7071 14.3974 18.8238V30.118C14.3974 31.1589 15.1126 32.0004 15.9974 32.0004C16.8822 32.0004 17.5974 31.1589 17.5974 30.118V18.8238C17.5974 18.7071 17.559 18.6074 17.5414 18.4963C19.4294 17.7358 20.7974 15.6502 20.7974 13.1768C20.7974 10.0633 18.6438 7.52969 15.9974 7.52969Z"/>
</mask>
<path fill-rule="evenodd" clip-rule="evenodd" d="M7.6256 25.6832C8.1936 24.8888 8.1056 23.7011 7.4304 23.0291C4.7008 20.3298 3.2 16.8305 3.2 13.1768C3.2 9.52314 4.7008 6.02383 7.4304 3.32452C8.1056 2.65252 8.1936 1.46475 7.6256 0.670397C7.0544 -0.123959 6.0464 -0.227489 5.3696 0.440749C1.9072 3.87041 0 8.39372 0 13.1768C0 17.9599 1.9072 22.4832 5.3696 25.9128C5.6704 26.2084 6.0352 26.3533 6.3984 26.3533C6.8544 26.3533 7.3072 26.1255 7.6256 25.6832ZM26.6303 25.913C30.0927 22.4833 31.9999 17.96 31.9999 13.177C31.9999 8.39389 30.0927 3.87058 26.6303 0.440918C25.9519 -0.225437 24.9455 -0.121907 24.3743 0.670566C23.8063 1.46492 23.8943 2.65269 24.5695 3.32469C27.2991 6.024 28.7999 9.5233 28.7999 13.177C28.7999 16.8306 27.2991 20.3299 24.5695 23.0292C23.8943 23.7012 23.8063 24.889 24.3743 25.6834C24.6927 26.1257 25.1455 26.3535 25.6015 26.3535C25.9647 26.3535 26.3295 26.2085 26.6303 25.913ZM8.8 13.1774C8.8 10.9317 9.7344 8.767 11.4304 7.08793C12.1056 6.41781 12.1936 5.23004 11.624 4.43569C11.056 3.64133 10.048 3.53404 9.3696 4.20792C6.9392 6.61546 5.6 9.80041 5.6 13.1774C5.6 16.5543 6.9392 19.7393 9.3696 22.1468C9.6704 22.4442 10.0352 22.5892 10.3984 22.5892C10.8544 22.5892 11.3072 22.3614 11.624 21.919C12.1936 21.1247 12.1056 19.9369 11.4304 19.2668C9.7344 17.5877 8.8 15.423 8.8 13.1774ZM26.4001 13.1775C26.4001 16.5545 25.0609 19.7394 22.6305 22.147C22.3297 22.4444 21.9649 22.5893 21.6017 22.5893C21.1457 22.5893 20.6929 22.3616 20.3761 21.9192C19.8065 21.1249 19.8945 19.9371 20.5697 19.267C22.2657 17.5879 23.2001 15.4232 23.2001 13.1775C23.2001 10.9319 22.2657 8.76717 20.5697 7.0881C19.8945 6.41798 19.8065 5.23021 20.3761 4.43586C20.9441 3.64338 21.9537 3.53609 22.6305 4.20809C25.0609 6.61563 26.4001 9.80058 26.4001 13.1775ZM15.9999 15.0585C15.1167 15.0585 14.3999 14.2152 14.3999 13.1761C14.3999 12.137 15.1167 11.2937 15.9999 11.2937C16.8831 11.2937 17.5999 12.137 17.5999 13.1761C17.5999 14.2152 16.8831 15.0585 15.9999 15.0585ZM15.9974 7.52969C13.351 7.52969 11.1974 10.0633 11.1974 13.1768C11.1974 15.6502 12.5654 17.7358 14.4534 18.4963C14.4358 18.6074 14.3974 18.7071 14.3974 18.8238V30.118C14.3974 31.1589 15.1126 32.0004 15.9974 32.0004C16.8822 32.0004 17.5974 31.1589 17.5974 30.118V18.8238C17.5974 18.7071 17.559 18.6074 17.5414 18.4963C19.4294 17.7358 20.7974 15.6502 20.7974 13.1768C20.7974 10.0633 18.6438 7.52969 15.9974 7.52969Z" fill="#454D54"/>
<path d="M7.4304 23.0291L7.57149 22.8873L7.57103 22.8869L7.4304 23.0291ZM7.6256 25.6832L7.78793 25.8L7.78829 25.7995L7.6256 25.6832ZM7.4304 3.32452L7.57103 3.46673L7.57149 3.46628L7.4304 3.32452ZM7.6256 0.670397L7.78829 0.554067L7.78798 0.553635L7.6256 0.670397ZM5.3696 0.440749L5.22908 0.29843L5.22885 0.298658L5.3696 0.440749ZM5.3696 25.9128L5.22885 26.0549L5.22943 26.0555L5.3696 25.9128ZM26.6303 25.913L26.7705 26.0557L26.7711 26.0551L26.6303 25.913ZM26.6303 0.440918L26.7711 0.298825L26.7705 0.298236L26.6303 0.440918ZM24.3743 0.670566L24.2121 0.553621L24.2117 0.554236L24.3743 0.670566ZM24.5695 3.32469L24.4285 3.46645L24.4289 3.4669L24.5695 3.32469ZM24.5695 23.0292L24.4289 22.887L24.4285 22.8875L24.5695 23.0292ZM24.3743 25.6834L24.2117 25.7997L24.212 25.8002L24.3743 25.6834ZM11.4304 7.08793L11.5711 7.23006L11.5713 7.22989L11.4304 7.08793ZM11.624 4.43569L11.4613 4.55202L11.4615 4.55223L11.624 4.43569ZM9.3696 4.20792L9.51035 4.35001L9.51055 4.34981L9.3696 4.20792ZM9.3696 22.1468L9.22885 22.2889L9.22898 22.289L9.3696 22.1468ZM11.624 21.919L11.4615 21.8025L11.4614 21.8026L11.624 21.919ZM11.4304 19.2668L11.5713 19.1248L11.5711 19.1247L11.4304 19.2668ZM22.6305 22.147L22.7711 22.2892L22.7712 22.2891L22.6305 22.147ZM20.3761 21.9192L20.5387 21.8028L20.5386 21.8027L20.3761 21.9192ZM20.5697 19.267L20.4289 19.1248L20.4288 19.125L20.5697 19.267ZM20.5697 7.0881L20.4288 7.23005L20.4289 7.23023L20.5697 7.0881ZM20.3761 4.43586L20.5386 4.5524L20.5386 4.55237L20.3761 4.43586ZM22.6305 4.20809L22.4895 4.35001L22.4897 4.35018L22.6305 4.20809ZM14.4534 18.4963L14.6509 18.5276L14.6758 18.3703L14.5281 18.3108L14.4534 18.4963ZM17.5414 18.4963L17.4666 18.3108L17.3189 18.3703L17.3438 18.5276L17.5414 18.4963ZM7.28932 23.1708C7.89262 23.7713 7.97595 24.8494 7.46291 25.5669L7.78829 25.7995C8.41125 24.9283 8.31859 23.6309 7.57149 22.8873L7.28932 23.1708ZM3 13.1768C3 16.8867 4.52425 20.4365 7.28977 23.1713L7.57103 22.8869C4.87735 20.2231 3.4 16.7742 3.4 13.1768H3ZM7.28977 3.18232C4.52425 5.91714 3 9.46686 3 13.1768H3.4C3.4 9.57941 4.87735 6.13052 7.57103 3.46673L7.28977 3.18232ZM7.46291 0.786726C7.97595 1.50422 7.89262 2.58232 7.28932 3.18277L7.57149 3.46628C8.31859 2.72272 8.41125 1.42529 7.78829 0.554068L7.46291 0.786726ZM5.51012 0.583068C6.09444 0.00614028 6.95949 0.0866285 7.46322 0.787159L7.78798 0.553635C7.14931 -0.334546 5.99836 -0.461117 5.22908 0.29843L5.51012 0.583068ZM0.2 13.1768C0.2 8.44822 2.08506 3.97574 5.51035 0.582841L5.22885 0.298658C1.72934 3.76508 -0.2 8.33922 -0.2 13.1768H0.2ZM5.51035 25.7708C2.08506 22.3778 0.2 17.9054 0.2 13.1768H-0.2C-0.2 18.0144 1.72934 22.5885 5.22885 26.0549L5.51035 25.7708ZM6.3984 26.1533C6.09031 26.1533 5.77512 26.0309 5.50977 25.7702L5.22943 26.0555C5.56568 26.3859 5.98009 26.5533 6.3984 26.5533V26.1533ZM7.46328 25.5664C7.17937 25.9608 6.78495 26.1533 6.3984 26.1533V26.5533C6.92385 26.5533 7.43503 26.2903 7.78792 25.8L7.46328 25.5664ZM31.7999 13.177C31.7999 17.9055 29.9149 22.378 26.4896 25.7709L26.7711 26.0551C30.2706 22.5887 32.1999 18.0145 32.1999 13.177H31.7999ZM26.4896 0.58301C29.9149 3.97591 31.7999 8.44839 31.7999 13.177H32.1999C32.1999 8.33939 30.2706 3.76524 26.7711 0.298826L26.4896 0.58301ZM24.5366 0.78751C25.0402 0.0887859 25.9041 0.00790085 26.4902 0.5836L26.7705 0.298236C25.9998 -0.458775 24.8509 -0.332601 24.2121 0.553622L24.5366 0.78751ZM24.7106 3.18294C24.1073 2.58249 24.024 1.50439 24.537 0.786895L24.2117 0.554236C23.5887 1.42545 23.6814 2.72289 24.4285 3.46645L24.7106 3.18294ZM28.9999 13.177C28.9999 9.46702 27.4757 5.91731 24.7102 3.18248L24.4289 3.4669C27.1226 6.13069 28.5999 9.57958 28.5999 13.177H28.9999ZM24.7102 23.1714C27.4757 20.4366 28.9999 16.8869 28.9999 13.177H28.5999C28.5999 16.7743 27.1226 20.2232 24.4289 22.887L24.7102 23.1714ZM24.537 25.567C24.024 24.8495 24.1073 23.7714 24.7106 23.171L24.4285 22.8875C23.6814 23.631 23.5887 24.9285 24.2117 25.7997L24.537 25.567ZM25.6015 26.1535C25.215 26.1535 24.8206 25.961 24.5367 25.5665L24.212 25.8002C24.5649 26.2905 25.0761 26.5535 25.6015 26.5535V26.1535ZM26.4902 25.7703C26.2248 26.031 25.9096 26.1535 25.6015 26.1535V26.5535C26.0199 26.5535 26.4343 26.386 26.7705 26.0557L26.4902 25.7703ZM11.2897 6.9458C9.55835 8.65986 8.6 10.8748 8.6 13.1774H9C9 10.9887 9.91045 8.87414 11.5711 7.23006L11.2897 6.9458ZM11.4615 4.55223C11.976 5.26975 11.8925 6.34756 11.2895 6.94598L11.5713 7.22989C12.3187 6.48806 12.4112 5.19033 11.7865 4.31914L11.4615 4.55223ZM9.51055 4.34981C10.0962 3.76809 10.9606 3.85175 11.4613 4.55202L11.7867 4.31936C11.1514 3.43091 9.99983 3.29998 9.22865 4.06603L9.51055 4.34981ZM5.8 13.1774C5.8 9.8546 7.11728 6.72057 9.51035 4.35001L9.22885 4.06583C6.76112 6.51035 5.4 9.74622 5.4 13.1774H5.8ZM9.51035 22.0047C7.11728 19.6342 5.8 16.5001 5.8 13.1774H5.4C5.4 16.6085 6.76112 19.8444 9.22885 22.2889L9.51035 22.0047ZM10.3984 22.3892C10.0904 22.3892 9.77544 22.2668 9.51022 22.0046L9.22898 22.289C9.56536 22.6216 9.97999 22.7892 10.3984 22.7892V22.3892ZM11.4614 21.8026C11.1792 22.1966 10.785 22.3892 10.3984 22.3892V22.7892C10.9238 22.7892 11.4352 22.5262 11.7866 22.0355L11.4614 21.8026ZM11.2895 19.4088C11.8925 20.0072 11.976 21.085 11.4615 21.8025L11.7865 22.0356C12.4112 21.1644 12.3187 19.8667 11.5713 19.1248L11.2895 19.4088ZM8.6 13.1774C8.6 15.48 9.55835 17.6949 11.2897 19.4089L11.5711 19.1247C9.91045 17.4806 9 15.3661 9 13.1774H8.6ZM22.7712 22.2891C25.2389 19.8445 26.6001 16.6087 26.6001 13.1775H26.2001C26.2001 16.5003 24.8828 19.6343 22.4897 22.0049L22.7712 22.2891ZM21.6017 22.7893C22.0201 22.7893 22.4347 22.6218 22.7711 22.2892L22.4898 22.0048C22.2246 22.267 21.9096 22.3893 21.6017 22.3893V22.7893ZM20.2135 22.0357C20.5649 22.5264 21.0763 22.7893 21.6017 22.7893V22.3893C21.215 22.3893 20.8208 22.1968 20.5387 21.8028L20.2135 22.0357ZM20.4288 19.125C19.6813 19.8668 19.5888 21.1646 20.2135 22.0358L20.5386 21.8027C20.0241 21.0851 20.1076 20.0073 20.7105 19.4089L20.4288 19.125ZM23.0001 13.1775C23.0001 15.3662 22.0896 17.4808 20.4289 19.1248L20.7104 19.4091C22.4417 17.695 23.4001 15.4801 23.4001 13.1775H23.0001ZM20.4289 7.23023C22.0896 8.8743 23.0001 10.9888 23.0001 13.1775H23.4001C23.4001 10.8749 22.4417 8.66003 20.7104 6.94597L20.4289 7.23023ZM20.2135 4.31931C19.5888 5.1905 19.6813 6.48823 20.4288 7.23005L20.7105 6.94615C20.1076 6.34773 20.0241 5.26992 20.5386 4.5524L20.2135 4.31931ZM22.7714 4.06617C22.0017 3.30199 20.8487 3.43308 20.2135 4.31934L20.5386 4.55237C21.0394 3.85368 21.9056 3.77019 22.4895 4.35001L22.7714 4.06617ZM26.6001 13.1775C26.6001 9.74639 25.2389 6.51052 22.7712 4.066L22.4897 4.35018C24.8828 6.72074 26.2001 9.85477 26.2001 13.1775H26.6001ZM15.9999 14.8585C15.2564 14.8585 14.5999 14.1364 14.5999 13.1761H14.1999C14.1999 14.2939 14.977 15.2585 15.9999 15.2585V14.8585ZM14.5999 13.1761C14.5999 12.2158 15.2564 11.4937 15.9999 11.4937V11.0938C14.977 11.0938 14.1999 12.0583 14.1999 13.1761H14.5999ZM15.9999 11.4937C16.7434 11.4937 17.3999 12.2158 17.3999 13.1761H17.7999C17.7999 12.0583 17.0228 11.0938 15.9999 11.0938V11.4937ZM17.3999 13.1761C17.3999 14.1364 16.7434 14.8585 15.9999 14.8585V15.2585C17.0228 15.2585 17.7999 14.2939 17.7999 13.1761H17.3999ZM15.9974 7.32969C13.2113 7.32969 10.9974 9.9846 10.9974 13.1768H11.3974C11.3974 10.1421 13.4907 7.72969 15.9974 7.72969V7.32969ZM10.9974 13.1768C10.9974 15.72 12.4046 17.8867 14.3786 18.6818L14.5281 18.3108C12.7262 17.585 11.3974 15.5804 11.3974 13.1768H10.9974ZM14.2558 18.465C14.2483 18.5127 14.2377 18.5505 14.2235 18.6148C14.2106 18.673 14.1974 18.7438 14.1974 18.8238H14.5974C14.5974 18.7872 14.6033 18.7497 14.6141 18.7011C14.6235 18.6586 14.6409 18.591 14.6509 18.5276L14.2558 18.465ZM14.1974 18.8238V30.118H14.5974V18.8238H14.1974ZM14.1974 30.118C14.1974 31.2377 14.9729 32.2004 15.9974 32.2004V31.8004C15.2523 31.8004 14.5974 31.0802 14.5974 30.118H14.1974ZM15.9974 32.2004C17.0219 32.2004 17.7974 31.2377 17.7974 30.118H17.3974C17.3974 31.0802 16.7425 31.8004 15.9974 31.8004V32.2004ZM17.7974 30.118V18.8238H17.3974V30.118H17.7974ZM17.7974 18.8238C17.7974 18.7438 17.7841 18.673 17.7713 18.6148C17.7571 18.5505 17.7465 18.5127 17.7389 18.465L17.3438 18.5276C17.3539 18.591 17.3713 18.6586 17.3807 18.7011C17.3914 18.7497 17.3974 18.7872 17.3974 18.8238H17.7974ZM17.6161 18.6818C19.5902 17.8867 20.9974 15.72 20.9974 13.1768H20.5974C20.5974 15.5804 19.2686 17.585 17.4666 18.3108L17.6161 18.6818ZM20.9974 13.1768C20.9974 9.9846 18.7835 7.32969 15.9974 7.32969V7.72969C18.5041 7.72969 20.5974 10.1421 20.5974 13.1768H20.9974Z" fill="#454D54" mask="url(#path-1-inside-1)"/>
</svg>
