<svg width="24" height="26" viewBox="0 0 24 26" fill="none" xmlns="http://www.w3.org/2000/svg">
<path fill-rule="evenodd" clip-rule="evenodd" d="M10.5048 13.737C10.502 13.7017 10.5006 13.6661 10.5006 13.6301V2.34085C10.5006 1.56189 11.1711 0.929688 12.0006 0.929688C12.8301 0.929688 13.5006 1.56189 13.5006 2.34085V13.6292L17.1003 11.0896C17.7633 10.6197 18.7038 10.7481 19.2003 11.3718C19.6983 11.9956 19.5633 12.8804 18.9003 13.3475L12.9003 17.5809C12.6348 17.7686 12.3168 17.8632 12.0003 17.8632C11.6988 17.8632 11.3973 17.7771 11.1378 17.6063L5.13782 13.6353C4.45982 13.1866 4.29632 12.306 4.77332 11.6696C5.25032 11.0317 6.18482 10.8779 6.86282 11.3267L10.5048 13.737ZM3 20.6825V22.3931H21V20.6825C21 19.9064 21.675 19.2713 22.5 19.2713C23.325 19.2713 24 19.9064 24 20.6825V23.5048C24 23.5554 23.9971 23.6053 23.9916 23.6545C23.9971 23.7037 24 23.7537 24 23.8042C24 24.5804 23.325 25.2154 22.5 25.2154H1.5C0.675 25.2154 0 24.5804 0 23.8042C0 23.7537 0.00286241 23.7037 0.00844225 23.6545C0.00286241 23.6053 0 23.5554 0 23.5048V20.6825C0 19.9064 0.675 19.2713 1.5 19.2713C2.325 19.2713 3 19.9064 3 20.6825Z" fill="#276899"/>
</svg>
