<svg width="31" height="30" viewBox="0 0 31 30" fill="none" xmlns="http://www.w3.org/2000/svg">
<path d="M11.3271 25.1972H13.3111L13.7356 23.4896C13.9288 22.712 14.3282 22.0016 14.8921 21.4352L17.1134 19.1996H11.326V25.1996L11.3271 25.1972ZM19.0748 11.3996V17.2256L21.9268 14.3552C22.3306 13.9481 22.8182 13.635 23.3552 13.438C23.8923 13.241 24.4657 13.165 25.0351 13.2152V11.3972H19.0736L19.0748 11.3996ZM25.0363 9.59961V7.49961C25.0363 6.46526 24.628 5.47328 23.9013 4.74189C23.1746 4.0105 22.189 3.59961 21.1613 3.59961H19.0748V9.59961H25.0363ZM17.2863 3.59961H11.3248V9.59961H17.2863V3.59961ZM9.5363 3.59961H7.45215C6.42443 3.59961 5.43881 4.0105 4.71211 4.74189C3.98541 5.47328 3.57715 6.46526 3.57715 7.49961V9.59961H9.53869V3.59961H9.5363ZM3.57715 11.3996V17.3984H9.53869V11.3984H3.57715V11.3996ZM3.57715 19.1984V21.2984C3.57715 22.3328 3.98541 23.3247 4.71211 24.0561C5.43881 24.7875 6.42443 25.1984 7.45215 25.1984H9.53869V19.1984H3.57715ZM17.2875 11.3984V17.3984H11.326V11.3984H17.2875Z" fill="#276899"/>
<mask id="path-2-inside-1" fill="white">
<path fill-rule="evenodd" clip-rule="evenodd" d="M25.645 20.4986L23.0339 17.867L24.9213 15.9639L27.5313 18.5945L25.645 20.4986ZM18.9176 27.2811L16.0333 27.5458L16.2891 24.6593L21.7311 19.1746L24.3431 21.8071L18.9176 27.2811ZM28.924 17.2376L28.9231 17.2367L26.2704 14.5631C25.5524 13.8415 24.3191 13.8073 23.639 14.4958L14.9232 23.28C14.6074 23.5973 14.4117 24.0192 14.371 24.4654L14.0038 28.5372C13.9786 28.8253 14.0803 29.1104 14.2838 29.3155C14.4669 29.5 14.7139 29.6016 14.9687 29.6016C14.9988 29.6016 15.0278 29.6006 15.0569 29.5977L19.097 29.2276C19.5407 29.1866 19.9583 28.9903 20.2732 28.673L28.9899 19.8878C29.6952 19.1749 29.6652 17.9856 28.924 17.2376Z"/>
</mask>
<path fill-rule="evenodd" clip-rule="evenodd" d="M25.645 20.4986L23.0339 17.867L24.9213 15.9639L27.5313 18.5945L25.645 20.4986ZM18.9176 27.2811L16.0333 27.5458L16.2891 24.6593L21.7311 19.1746L24.3431 21.8071L18.9176 27.2811ZM28.924 17.2376L28.9231 17.2367L26.2704 14.5631C25.5524 13.8415 24.3191 13.8073 23.639 14.4958L14.9232 23.28C14.6074 23.5973 14.4117 24.0192 14.371 24.4654L14.0038 28.5372C13.9786 28.8253 14.0803 29.1104 14.2838 29.3155C14.4669 29.5 14.7139 29.6016 14.9687 29.6016C14.9988 29.6016 15.0278 29.6006 15.0569 29.5977L19.097 29.2276C19.5407 29.1866 19.9583 28.9903 20.2732 28.673L28.9899 19.8878C29.6952 19.1749 29.6652 17.9856 28.924 17.2376Z" fill="#276899"/>
<path d="M25.645 20.4986L25.432 20.7099L25.6452 20.9247L25.8581 20.7097L25.645 20.4986ZM23.0339 17.867L22.8209 17.6558L22.6114 17.8671L22.821 18.0783L23.0339 17.867ZM24.9213 15.9639L25.1342 15.7526L24.9212 15.5379L24.7082 15.7526L24.9213 15.9639ZM27.5313 18.5945L27.7445 18.8056L27.9538 18.5943L27.7443 18.3832L27.5313 18.5945ZM18.9176 27.2811L18.945 27.5799L19.0537 27.5699L19.1306 27.4923L18.9176 27.2811ZM16.0333 27.5458L15.7345 27.5193L15.7027 27.8773L16.0607 27.8445L16.0333 27.5458ZM16.2891 24.6593L16.0761 24.448L15.9998 24.525L15.9902 24.6329L16.2891 24.6593ZM21.7311 19.1746L21.9441 18.9633L21.7311 18.7486L21.5181 18.9633L21.7311 19.1746ZM24.3431 21.8071L24.5562 22.0183L24.7656 21.807L24.5561 21.5958L24.3431 21.8071ZM28.924 17.2376L29.1371 17.0265L29.137 17.0263L28.924 17.2376ZM28.9231 17.2367L28.7101 17.448L28.7101 17.448L28.9231 17.2367ZM26.2704 14.5631L26.4833 14.3518L26.483 14.3515L26.2704 14.5631ZM23.639 14.4958L23.8519 14.7071L23.8524 14.7066L23.639 14.4958ZM14.9232 23.28L15.1358 23.4916L15.1362 23.4913L14.9232 23.28ZM14.371 24.4654L14.0722 24.4382L14.0722 24.4385L14.371 24.4654ZM14.0038 28.5372L13.705 28.5103L13.7049 28.5111L14.0038 28.5372ZM14.2838 29.3155L14.0708 29.5268L14.2838 29.3155ZM15.0569 29.5977L15.0295 29.2989L15.0268 29.2992L15.0569 29.5977ZM19.097 29.2276L19.1244 29.5263L19.1246 29.5263L19.097 29.2276ZM20.2732 28.673L20.4861 28.8843L20.2732 28.673ZM28.9899 19.8878L29.2029 20.0991L29.2032 20.0988L28.9899 19.8878ZM25.8579 20.2873L23.2469 17.6557L22.821 18.0783L25.432 20.7099L25.8579 20.2873ZM23.247 18.0782L25.1343 16.1751L24.7082 15.7526L22.8209 17.6558L23.247 18.0782ZM24.7083 16.1752L27.3184 18.8058L27.7443 18.3832L25.1342 15.7526L24.7083 16.1752ZM27.3182 18.3833L25.4319 20.2874L25.8581 20.7097L27.7445 18.8056L27.3182 18.3833ZM18.8902 26.9824L16.0059 27.247L16.0607 27.8445L18.945 27.5799L18.8902 26.9824ZM16.3321 27.5722L16.5879 24.6858L15.9902 24.6329L15.7345 27.5193L16.3321 27.5722ZM16.502 24.8706L21.9441 19.3859L21.5181 18.9633L16.0761 24.448L16.502 24.8706ZM21.5181 19.3859L24.1301 22.0184L24.5561 21.5958L21.9441 18.9633L21.5181 19.3859ZM24.13 21.5959L18.7045 27.07L19.1306 27.4923L24.5562 22.0183L24.13 21.5959ZM29.137 17.0263L29.136 17.0254L28.7101 17.448L28.7111 17.449L29.137 17.0263ZM29.136 17.0254L26.4833 14.3518L26.0574 14.7744L28.7101 17.448L29.136 17.0254ZM26.483 14.3515C25.6589 13.5232 24.2339 13.4668 23.4256 14.2849L23.8524 14.7066C24.4043 14.1479 25.446 14.1598 26.0577 14.7747L26.483 14.3515ZM23.426 14.2844L14.7103 23.0687L15.1362 23.4913L23.8519 14.7071L23.426 14.2844ZM14.7106 23.0683C14.345 23.4357 14.1192 23.9229 14.0722 24.4382L14.6697 24.4926C14.7041 24.1154 14.8697 23.759 15.1358 23.4916L14.7106 23.0683ZM14.0722 24.4385L13.705 28.5103L14.3026 28.5642L14.6698 24.4923L14.0722 24.4385ZM13.7049 28.5111C13.6721 28.886 13.8044 29.2583 14.0708 29.5268L14.4967 29.1042C14.3562 28.9625 14.285 28.7646 14.3026 28.5634L13.7049 28.5111ZM14.0708 29.5268C14.3104 29.7682 14.6342 29.9016 14.9687 29.9016V29.3016C14.7937 29.3016 14.6234 29.2318 14.4967 29.1042L14.0708 29.5268ZM14.9687 29.9016C15.0051 29.9016 15.0448 29.9004 15.087 29.8962L15.0268 29.2992C15.0109 29.3008 14.9925 29.3016 14.9687 29.3016V29.9016ZM15.0843 29.8964L19.1244 29.5263L19.0696 28.9288L15.0295 29.2989L15.0843 29.8964ZM19.1246 29.5263C19.6383 29.4788 20.1215 29.2517 20.4861 28.8843L20.0602 28.4617C19.7951 28.7289 19.4432 28.8943 19.0694 28.9289L19.1246 29.5263ZM20.4861 28.8843L29.2029 20.0991L28.7769 19.6765L20.0602 28.4617L20.4861 28.8843ZM29.2032 20.0988C30.0338 19.2593 29.9842 17.8814 29.1371 17.0265L28.7109 17.4488C29.3462 18.0899 29.3566 19.0906 28.7767 19.6768L29.2032 20.0988Z" fill="#202933" mask="url(#path-2-inside-1)"/>
</svg>
