<svg width="33" height="33" viewBox="0 0 33 33" fill="none" xmlns="http://www.w3.org/2000/svg">
<path d="M28.5 1H4.5C2.29086 1 0.5 2.79086 0.5 5V28.5C0.5 30.7091 2.29086 32.5 4.5 32.5H28.5C30.7091 32.5 32.5 30.7091 32.5 28.5V5C32.5 2.79086 30.7091 1 28.5 1Z" stroke="#515960"/>
<path d="M6.31128 25.8601C6.73694 25.4344 7.1626 25.0088 7.60464 24.5667C9.09447 23.0769 10.5679 21.6035 12.0577 20.1136C12.4179 19.7534 12.7651 19.8059 13.2033 20.2114C13.6637 20.6391 13.722 21.0248 13.3618 21.385C11.872 22.8748 10.3986 24.3483 8.90874 25.8381C8.48307 26.2638 8.04104 26.7058 7.54988 27.1969C8.25005 27.3405 8.81587 27.2187 9.37699 27.1904C9.69612 27.1821 9.99305 27.1516 10.3122 27.1433C10.7634 27.1361 11.2344 27.5088 11.3978 27.967C11.5333 28.3644 11.3052 28.7257 10.8762 28.7551C9.86968 28.8291 8.87954 28.8868 7.8894 28.9444C7.14125 28.9821 6.39309 29.0198 5.60636 29.0517C4.91315 29.0788 4.3581 28.5237 4.36887 27.8469C4.46421 26.1086 4.53735 24.3481 4.63268 22.6098C4.66207 22.1808 5.0339 21.8978 5.4313 22.0332C5.86728 22.1745 6.21197 22.5847 6.26556 23.0639C6.3436 23.8296 6.16216 24.4995 6.20162 25.2593C6.20857 25.43 6.19331 25.5784 6.18389 25.7655C6.2283 25.8099 6.28907 25.8379 6.31128 25.8601Z" fill="#276899"/>
<path d="M26.0192 7.9745C25.5937 8.40024 25.1682 8.82598 24.7264 9.26809C23.2373 10.7582 21.7645 12.2319 20.2753 13.722C19.9153 14.0822 19.5992 14.0609 19.2265 13.7211C18.835 13.3625 18.8111 13.0113 19.1711 12.6511C20.6602 11.161 22.133 9.68732 23.6221 8.19724C24.0476 7.77151 24.4894 7.32939 24.9804 6.83816C24.3458 6.76037 23.8146 6.91678 23.2949 6.98658C23 7.01911 22.7238 7.07038 22.4289 7.10291C22.0122 7.1447 21.6067 6.83767 21.4914 6.42786C21.3972 6.07193 21.6355 5.72095 22.0334 5.66041C22.9673 5.5137 23.8849 5.38337 24.8024 5.25303C25.4953 5.15997 26.1881 5.0669 26.9161 4.97621C27.5575 4.89715 28.0264 5.36577 27.9641 5.99082C27.7417 7.60136 27.5381 9.23065 27.3157 10.8412C27.2554 11.2391 26.8906 11.5291 26.5346 11.4352C26.1435 11.3389 25.8574 10.9875 25.845 10.5497C25.8323 9.84963 26.0514 9.2177 26.0738 8.52004C26.0806 8.36319 26.1062 8.22508 26.1293 8.05185C26.0918 8.01436 26.0379 7.99325 26.0192 7.9745Z" fill="#276899"/>
<path d="M25.9469 26.5144C25.5231 26.0907 25.0994 25.6669 24.6593 25.2269C23.1762 23.7437 21.7093 22.2769 20.2262 20.7937C19.8676 20.4352 19.8909 20.1185 20.2334 19.7435C20.5947 19.3495 20.9465 19.3237 21.3051 19.6823C22.7882 21.1654 24.2551 22.6322 25.7382 24.1154C26.162 24.5391 26.602 24.9792 27.091 25.4681C27.1727 24.8323 27.0192 24.3012 26.9524 23.7813C26.9216 23.4861 26.872 23.2098 26.8411 22.9147C26.8018 22.4977 27.1117 22.09 27.5227 21.9723C27.8797 21.8761 28.2297 22.1128 28.2879 22.511C28.4292 23.4453 28.5543 24.3634 28.6793 25.2815C28.7683 25.9748 28.8573 26.668 28.9438 27.3965C29.0191 28.0383 28.5471 28.5104 27.9216 28.4513C26.3102 28.2373 24.68 28.0421 23.0686 27.8281C22.6705 27.7698 22.3823 27.4061 22.4785 27.0491C22.5773 26.657 22.9309 26.3686 23.3693 26.3539C24.0704 26.3374 24.7018 26.5534 25.4003 26.5721C25.5573 26.578 25.6954 26.6029 25.8688 26.6251C25.9065 26.5874 25.928 26.5333 25.9469 26.5144Z" fill="#276899"/>
<path d="M7.99957 6.90528C8.42726 7.33269 8.85494 7.76011 9.29907 8.20396C10.796 9.69991 12.2764 11.1794 13.7733 12.6754C14.1352 13.037 14.1133 13.355 13.7711 13.7304C13.4099 14.1246 13.0567 14.1491 12.6948 13.7875C11.1979 12.2915 9.71743 10.812 8.22054 9.31607C7.79286 8.88866 7.34872 8.4448 6.85524 7.95163C6.77618 8.59002 6.93283 9.12415 7.00237 9.64674C7.03471 9.94337 7.08593 10.2211 7.11827 10.5177C7.15977 10.9368 6.85042 11.345 6.43807 11.4615C6.07993 11.5567 5.7272 11.3175 5.66682 10.9173C5.52045 9.97814 5.39053 9.05538 5.26061 8.13262C5.16789 7.43583 5.07517 6.73905 4.98488 6.00693C4.90618 5.3619 5.37815 4.88963 6.00677 4.95149C7.62645 5.17311 9.26502 5.37585 10.8847 5.59747C11.2849 5.6576 11.5761 6.02416 11.4812 6.38236C11.3838 6.7759 11.03 7.06416 10.5896 7.07714C9.88543 7.09085 9.25008 6.87124 8.54837 6.84961C8.39061 6.84298 8.25173 6.81746 8.07752 6.79439C8.03976 6.83217 8.01845 6.88639 7.99957 6.90528Z" fill="#276899"/>
</svg>
