<svg width="13" height="13" viewBox="0 0 13 13" fill="none" xmlns="http://www.w3.org/2000/svg">
<circle cx="6.5" cy="6.5" r="5.5" fill="#263037" stroke="#17212B" stroke-width="2"/>
<path d="M2.6001 6.49961C2.6001 6.14062 2.89111 5.84961 3.2501 5.84961H9.7501C10.1091 5.84961 10.4001 6.14062 10.4001 6.49961C10.4001 6.85859 10.1091 7.14961 9.7501 7.14961H3.2501C2.89111 7.14961 2.6001 6.85859 2.6001 6.49961Z" fill="#276899"/>
<path d="M6.4999 2.59961C6.85889 2.59961 7.1499 2.89062 7.1499 3.24961L7.1499 9.74961C7.1499 10.1086 6.85889 10.3996 6.4999 10.3996C6.14092 10.3996 5.8499 10.1086 5.8499 9.74961L5.8499 3.24961C5.8499 2.89062 6.14092 2.59961 6.4999 2.59961Z" fill="#276899"/>
</svg>
