<svg width="23" height="23" viewBox="0 0 23 23" fill="none" xmlns="http://www.w3.org/2000/svg">
<path d="M19.4064 20.1257C19.312 20.1258 19.2185 20.1073 19.1313 20.0711C19.0441 20.035 18.9649 19.9819 18.8984 19.915L3.08586 4.10248C2.95675 3.96659 2.88584 3.78564 2.88824 3.59822C2.89064 3.4108 2.96616 3.23173 3.0987 3.09919C3.23124 2.96665 3.41031 2.89113 3.59773 2.88873C3.78515 2.88633 3.9661 2.95724 4.10199 3.08634L19.9145 18.8988C20.0149 18.9994 20.0833 19.1274 20.111 19.2668C20.1388 19.4062 20.1245 19.5506 20.0701 19.6819C20.0158 19.8132 19.9237 19.9254 19.8056 20.0044C19.6874 20.0834 19.5485 20.1256 19.4064 20.1257ZM11.1408 14.1892L8.81429 11.8627C8.80096 11.8495 8.78382 11.8408 8.76529 11.8378C8.74675 11.8348 8.72775 11.8377 8.71095 11.8461C8.69414 11.8545 8.68039 11.8679 8.67161 11.8845C8.66283 11.9011 8.65947 11.92 8.66201 11.9386C8.75593 12.5422 9.03934 13.1003 9.47127 13.5323C9.90321 13.9642 10.4613 14.2476 11.0649 14.3415C11.0835 14.3441 11.1024 14.3407 11.119 14.3319C11.1356 14.3231 11.149 14.3094 11.1574 14.2926C11.1658 14.2758 11.1687 14.2568 11.1657 14.2382C11.1627 14.2197 11.154 14.2026 11.1408 14.1892ZM11.8595 8.81209L14.1896 11.1413C14.2029 11.1547 14.2201 11.1636 14.2388 11.1666C14.2574 11.1697 14.2765 11.1669 14.2934 11.1585C14.3103 11.1501 14.3242 11.1365 14.3329 11.1198C14.3417 11.1031 14.345 11.0841 14.3424 11.0654C14.2487 10.461 13.9651 9.90206 13.5326 9.46958C13.1001 9.0371 12.5412 8.75349 11.9368 8.6598C11.9181 8.65691 11.8989 8.66001 11.8821 8.66866C11.8652 8.6773 11.8516 8.69105 11.843 8.70794C11.8344 8.72483 11.8314 8.744 11.8344 8.7627C11.8374 8.7814 11.8462 8.79869 11.8595 8.81209Z" fill="#276899"/>
<path d="M22.0566 12.2798C22.2054 12.0464 22.284 11.7752 22.2832 11.4984C22.2824 11.2217 22.2022 10.9509 22.0521 10.7184C20.8635 8.88016 19.3213 7.31867 17.5928 6.20236C15.6777 4.96611 13.5664 4.3125 11.4856 4.3125C10.3887 4.31401 9.29919 4.49286 8.25933 4.84213C8.23023 4.85181 8.20409 4.86878 8.1834 4.89142C8.16271 4.91406 8.14816 4.94162 8.14113 4.97148C8.13411 5.00133 8.13484 5.03249 8.14327 5.06198C8.15169 5.09147 8.16752 5.11832 8.18926 5.13996L10.3114 7.26207C10.3334 7.28416 10.3608 7.30012 10.3909 7.30839C10.421 7.31666 10.4527 7.31695 10.483 7.30924C11.2023 7.13394 11.9546 7.14679 12.6675 7.34654C13.3804 7.54628 14.0299 7.9262 14.5534 8.44972C15.0769 8.97324 15.4569 9.62272 15.6566 10.3356C15.8564 11.0485 15.8692 11.8009 15.6939 12.5202C15.6863 12.5503 15.6866 12.582 15.6949 12.612C15.7031 12.642 15.7191 12.6693 15.7411 12.6913L18.7935 15.746C18.8253 15.7778 18.8678 15.7966 18.9127 15.7986C18.9576 15.8006 19.0016 15.7857 19.0361 15.7568C20.2111 14.7553 21.2292 13.5833 22.0566 12.2798ZM11.5 15.8125C10.8472 15.8125 10.2029 15.6644 9.61563 15.3791C9.0284 15.0939 8.51359 14.6791 8.11002 14.166C7.70644 13.6528 7.42464 13.0547 7.28584 12.4168C7.14705 11.7789 7.1549 11.1178 7.30879 10.4834C7.31642 10.4532 7.31608 10.4216 7.30782 10.3916C7.29955 10.3616 7.28363 10.3343 7.26162 10.3123L4.25904 7.30834C4.2272 7.27646 4.18455 7.25771 4.13954 7.2558C4.09453 7.25389 4.05044 7.26895 4.01601 7.29801C2.92037 8.23283 1.90469 9.37025 0.97615 10.6995C0.813616 10.9328 0.724102 11.2091 0.718983 11.4934C0.713863 11.7777 0.79337 12.057 0.9474 12.296C2.13379 14.1526 3.66023 15.7164 5.36232 16.8174C7.28004 18.0586 9.34015 18.6875 11.4856 18.6875C12.5936 18.6845 13.6945 18.5095 14.7487 18.1687C14.7781 18.1593 14.8046 18.1425 14.8256 18.1199C14.8466 18.0974 14.8614 18.0698 14.8687 18.0398C14.876 18.0099 14.8754 17.9785 14.8671 17.9489C14.8587 17.9192 14.8429 17.8922 14.8211 17.8704L12.6886 15.7384C12.6666 15.7164 12.6393 15.7004 12.6093 15.6922C12.5793 15.6839 12.5476 15.6836 12.5175 15.6912C12.1843 15.7719 11.8428 15.8127 11.5 15.8125Z" fill="#276899"/>
</svg>
