<svg width="22" height="19" viewBox="0 0 22 19" fill="none" xmlns="http://www.w3.org/2000/svg">
<path d="M10.0011 9L15.7611 1.62C15.9235 1.41153 15.9968 1.14726 15.9649 0.88493C15.9331 0.622602 15.7987 0.383546 15.5911 0.22C15.4233 0.0850457 15.2163 0.00788566 15.0011 0H1.00111C0.775543 0.0013084 0.557047 0.0788394 0.381108 0.22C0.173543 0.383546 0.0391497 0.622602 0.00729555 0.88493C-0.0245586 1.14726 0.048716 1.41153 0.211108 1.62L6.00111 9V14.87C5.98302 15.0213 5.99974 15.1747 6.05 15.3186C6.10026 15.4624 6.18273 15.5929 6.29111 15.7L8.29111 17.7C8.47847 17.8863 8.73192 17.9908 8.99611 17.9908C9.26029 17.9908 9.51375 17.8863 9.70111 17.7C9.81128 17.5938 9.89562 17.4638 9.94763 17.3199C9.99964 17.176 10.0179 17.0221 10.0011 16.87V9ZM12.0011 14L17.0011 19L22.0011 14H12.0011Z" fill="#276899"/>
</svg>
