<svg width="31" height="31" viewBox="0 0 31 31" fill="none" xmlns="http://www.w3.org/2000/svg">
    <path
        d="M20.3991 7.50129L20.7726 8.42893C21.0234 8.32795 21.2226 8.12971 21.3248 7.8794C21.4271 7.62909 21.4236 7.34805 21.3152 7.10036L20.3991 7.50129ZM23.7989 22.5326C24.1148 22.0796 24.0036 21.4562 23.5506 21.1404C23.0975 20.8245 22.4742 20.9357 22.1583 21.3887L23.7989 22.5326ZM16.3355 8.05934C15.8231 8.2656 15.575 8.84813 15.7813 9.36045C15.9876 9.87277 16.5701 10.1209 17.0824 9.91462L16.3355 8.05934ZM19.8529 3.75905C19.6315 3.2531 19.0418 3.02245 18.5358 3.24388C18.0299 3.4653 17.7992 4.05496 18.0207 4.56092L19.8529 3.75905ZM9.09117 23.7199C4.83904 20.7553 3.79534 14.9049 6.76 10.6528L5.11939 9.5089C1.523 14.6671 2.7891 21.7641 7.94731 25.3605L9.09117 23.7199ZM6.76 10.6528C9.72466 6.40063 15.575 5.35693 19.8272 8.32159L20.971 6.68099C15.8128 3.08459 8.71579 4.35069 5.11939 9.5089L6.76 10.6528ZM22.1583 21.3887C19.1937 25.6409 13.3433 26.6846 9.09117 23.7199L7.94731 25.3605C13.1055 28.9569 20.2025 27.6908 23.7989 22.5326L22.1583 21.3887ZM20.0256 6.57365L16.3355 8.05934L17.0824 9.91462L20.7726 8.42893L20.0256 6.57365ZM21.3152 7.10036L19.8529 3.75905L18.0207 4.56092L19.483 7.90222L21.3152 7.10036Z"
        fill="#276899"/>
    <path
        d="M13.1541 17.458V18.998H7.96406V17.458H9.59406V14.348H7.96406V13.188C8.41073 13.1614 8.91073 13.0447 9.46406 12.838C10.0174 12.6247 10.5007 12.3814 10.9141 12.108H11.5841V17.458H13.1541ZM16.924 11.998C17.9973 11.998 18.7507 12.3047 19.184 12.918C19.624 13.5247 19.844 14.4047 19.844 15.558C19.844 16.7114 19.624 17.5947 19.184 18.208C18.7507 18.8147 17.9973 19.118 16.924 19.118C15.844 19.118 15.084 18.8147 14.644 18.208C14.2107 17.5947 13.994 16.7114 13.994 15.558C13.994 14.4047 14.2107 13.5247 14.644 12.918C15.084 12.3047 15.844 11.998 16.924 11.998ZM16.924 13.348C16.5773 13.348 16.3307 13.4814 16.184 13.748C16.0373 14.0147 15.964 14.4514 15.964 15.058V16.048C15.964 16.6614 16.0373 17.1014 16.184 17.368C16.3307 17.6347 16.5773 17.768 16.924 17.768C17.2707 17.768 17.514 17.6347 17.654 17.368C17.794 17.1014 17.864 16.6614 17.864 16.048V15.058C17.864 14.4447 17.794 14.008 17.654 13.748C17.514 13.4814 17.2707 13.348 16.924 13.348Z"
        fill="#276899"/>
    <path d="M25.94 14.7V16.02H23.96V18H22.64V16.02H20.66V14.7H22.64V12.72H23.96V14.7H25.94Z" fill="#276899"/>
</svg>
