<svg width="22" height="22" viewBox="0 0 22 22" fill="none" xmlns="http://www.w3.org/2000/svg">
<path fill-rule="evenodd" clip-rule="evenodd" d="M3.25005 10.6224C4.36523 11.0054 5.25359 11.9394 5.62532 13.1234L5.66529 13.2434C6.09098 14.4994 5.9181 15.8514 5.20462 16.8654C5.07472 17.0494 5.1037 17.2694 5.2406 17.3734L7.31109 18.9474C7.38403 19.0024 7.45498 19.0024 7.49895 18.9974C7.54891 18.9894 7.62186 18.9624 7.68082 18.8784L7.91165 18.5504C8.60014 17.5734 9.70934 16.9704 10.8805 16.9364C12.1955 16.9094 13.3767 17.5124 14.1121 18.5754L14.23 18.7464C14.289 18.8304 14.3609 18.8584 14.4119 18.8664C14.4559 18.8754 14.5278 18.8724 14.5998 18.8164L16.6593 17.2614C16.8032 17.1534 16.8351 16.9224 16.7282 16.7674L16.4684 16.3924C15.7989 15.4244 15.6 14.1684 15.9368 13.0334C16.3025 11.7974 17.2328 10.8194 18.427 10.4194L18.6278 10.3514C18.7887 10.2984 18.8756 10.0984 18.8187 9.91437L18.0323 7.39337C17.9953 7.27537 17.9193 7.22237 17.8774 7.20037C17.8174 7.16937 17.7525 7.16437 17.6905 7.18537L17.3508 7.29837C16.1886 7.68537 14.9065 7.47537 13.9223 6.73437L13.8143 6.65337C12.879 5.94937 12.3224 4.81437 12.3264 3.61837L12.3284 3.33837C12.3284 3.20537 12.2655 3.12237 12.2275 3.08437C12.1915 3.04737 12.1306 3.00337 12.0446 3.00337L9.49949 3.00037C9.3436 3.00037 9.21669 3.14937 9.2157 3.33337L9.2147 3.57537C9.2097 4.79037 8.64111 5.94637 7.69381 6.66937L7.5649 6.76737C6.52266 7.56037 5.16365 7.78437 3.93255 7.36437C3.88558 7.34837 3.84162 7.35137 3.79965 7.37337C3.76767 7.38937 3.70971 7.43037 3.68173 7.52137L2.86533 10.1174C2.80637 10.3064 2.9033 10.5034 3.08617 10.5664L3.25005 10.6224ZM7.45841 21C6.97276 21 6.50111 20.842 6.1034 20.539L4.03291 18.966C3.04363 18.216 2.82479 16.773 3.54426 15.75C3.91799 15.22 3.99494 14.539 3.7751 13.893L3.72014 13.725C3.53727 13.143 3.11957 12.691 2.60295 12.514L2.43907 12.457C1.22196 12.04 0.572434 10.749 0.959152 9.517L1.77456 6.922C1.95942 6.335 2.35813 5.861 2.89774 5.588C3.42535 5.322 4.02192 5.281 4.57951 5.472C5.17807 5.676 5.84259 5.565 6.35521 5.175L6.48412 5.077C6.93979 4.729 7.21459 4.164 7.21658 3.567L7.21758 3.326C7.22258 2.042 8.24683 1 9.49892 1H9.50292L12.0481 1.003C12.6496 1.004 13.2172 1.242 13.6449 1.673C14.0876 2.118 14.3294 2.713 14.3274 3.348L14.3254 3.627C14.3234 4.193 14.5822 4.728 15.0189 5.056L15.1258 5.137C15.5845 5.482 16.182 5.581 16.7186 5.401L17.0574 5.288C17.634 5.096 18.2475 5.143 18.7881 5.42C19.3427 5.704 19.7524 6.193 19.9403 6.798L20.7267 9.319C21.1064 10.537 20.4489 11.851 19.2628 12.248L19.0619 12.315C18.4864 12.509 18.0337 12.989 17.8528 13.601C17.6869 14.162 17.7829 14.779 18.1116 15.253L18.3714 15.628C19.0849 16.66 18.8571 18.108 17.8638 18.857L15.8043 20.413C15.3097 20.787 14.7031 20.938 14.0946 20.841C13.481 20.742 12.9454 20.402 12.5867 19.884L12.4688 19.712C12.119 19.208 11.5594 18.902 10.9728 18.935C10.3853 18.951 9.87764 19.23 9.54588 19.702L9.31505 20.03C8.95332 20.543 8.41671 20.878 7.80615 20.974C7.68924 20.992 7.57332 21 7.45841 21ZM10.8407 9.49939C10.0143 9.49939 9.34182 10.1724 9.34182 10.9994C9.34182 11.8264 10.0143 12.4994 10.8407 12.4994C11.6671 12.4994 12.3396 11.8264 12.3396 10.9994C12.3396 10.1724 11.6671 9.49939 10.8407 9.49939ZM10.8425 14.5006C8.91396 14.5006 7.3451 12.9306 7.3451 11.0006C7.3451 9.07061 8.91396 7.50061 10.8425 7.50061C12.7711 7.50061 14.34 9.07061 14.34 11.0006C14.34 12.9306 12.7711 14.5006 10.8425 14.5006Z" fill="#212A33"/>
<path d="M3.25005 10.6224L3.34749 10.3386L3.34706 10.3385L3.25005 10.6224ZM5.62532 13.1234L5.33905 13.2132L5.34069 13.2182L5.62532 13.1234ZM5.66529 13.2434L5.38066 13.3382L5.38116 13.3397L5.66529 13.2434ZM5.20462 16.8654L5.4497 17.0384L5.44997 17.038L5.20462 16.8654ZM5.2406 17.3734L5.42215 17.1345L5.42207 17.1345L5.2406 17.3734ZM7.31109 18.9474L7.12953 19.1862L7.13048 19.1869L7.31109 18.9474ZM7.49895 18.9974L7.53288 19.2958L7.54638 19.2936L7.49895 18.9974ZM7.68082 18.8784L7.43548 18.7057L7.43526 18.706L7.68082 18.8784ZM7.91165 18.5504L7.66642 18.3776L7.66631 18.3777L7.91165 18.5504ZM10.8805 16.9364L10.8743 16.6364L10.8718 16.6365L10.8805 16.9364ZM14.1121 18.5754L14.3591 18.4051L14.3588 18.4047L14.1121 18.5754ZM14.23 18.7464L13.9831 18.9167L13.9845 18.9187L14.23 18.7464ZM14.4119 18.8664L14.4721 18.5721L14.4584 18.57L14.4119 18.8664ZM14.5998 18.8164L14.419 18.5769L14.4155 18.5796L14.5998 18.8164ZM16.6593 17.2614L16.4792 17.0214L16.4785 17.0219L16.6593 17.2614ZM16.7282 16.7674L16.9752 16.597L16.9748 16.5965L16.7282 16.7674ZM16.4684 16.3924L16.2217 16.563L16.2218 16.5632L16.4684 16.3924ZM15.9368 13.0334L16.2244 13.1187L16.2245 13.1185L15.9368 13.0334ZM18.427 10.4194L18.5223 10.7038L18.5232 10.7035L18.427 10.4194ZM18.6278 10.3514L18.534 10.0664L18.5316 10.0672L18.6278 10.3514ZM18.8187 9.91437L19.1053 9.82565L19.1051 9.82503L18.8187 9.91437ZM18.0323 7.39337L18.3187 7.30403L18.3185 7.30367L18.0323 7.39337ZM17.8774 7.20037L18.0167 6.93465L18.0152 6.93388L17.8774 7.20037ZM17.6905 7.18537L17.7852 7.47004L17.7868 7.46949L17.6905 7.18537ZM17.3508 7.29837L17.2561 7.0137L17.256 7.01373L17.3508 7.29837ZM13.9223 6.73437L14.1027 6.49469L14.1023 6.49443L13.9223 6.73437ZM13.8143 6.65337L13.6339 6.89306L13.6343 6.8933L13.8143 6.65337ZM12.3264 3.61837L12.0264 3.61623L12.0264 3.61736L12.3264 3.61837ZM12.3284 3.33837L12.6284 3.34051V3.33837H12.3284ZM12.2275 3.08437L12.0124 3.29351L12.0153 3.29642L12.2275 3.08437ZM12.0446 3.00337L12.0443 3.30337H12.0446V3.00337ZM9.49949 3.00037L9.49984 2.70037H9.49949V3.00037ZM9.2157 3.33337L8.9157 3.33174L8.9157 3.33213L9.2157 3.33337ZM9.2147 3.57537L8.9147 3.57413V3.57413L9.2147 3.57537ZM7.69381 6.66937L7.87537 6.90819L7.87582 6.90785L7.69381 6.66937ZM7.5649 6.76737L7.38334 6.52855L7.38324 6.52862L7.5649 6.76737ZM3.93255 7.36437L4.02942 7.08043L4.02929 7.08039L3.93255 7.36437ZM3.79965 7.37337L3.93391 7.6417L3.93893 7.63907L3.79965 7.37337ZM3.68173 7.52137L3.96792 7.61137L3.96849 7.60953L3.68173 7.52137ZM2.86533 10.1174L2.57915 10.0274L2.57894 10.028L2.86533 10.1174ZM3.08617 10.5664L2.98845 10.85L2.98916 10.8502L3.08617 10.5664ZM6.1034 20.539L6.2852 20.3004L6.28488 20.3001L6.1034 20.539ZM4.03291 18.966L4.21439 18.7271L4.21415 18.7269L4.03291 18.966ZM3.54426 15.75L3.29909 15.5771L3.29888 15.5774L3.54426 15.75ZM3.7751 13.893L3.48995 13.9863L3.49109 13.9896L3.7751 13.893ZM3.72014 13.725L3.43391 13.8149L3.43501 13.8183L3.72014 13.725ZM2.60295 12.514L2.5044 12.7974L2.50572 12.7978L2.60295 12.514ZM2.43907 12.457L2.53762 12.1736L2.53631 12.1732L2.43907 12.457ZM0.959152 9.517L0.672948 9.42707L0.672922 9.42715L0.959152 9.517ZM1.77456 6.922L1.48841 6.83188L1.48835 6.83207L1.77456 6.922ZM2.89774 5.588L2.76268 5.32012L2.76231 5.32031L2.89774 5.588ZM4.57951 5.472L4.48229 5.75581L4.48273 5.75596L4.57951 5.472ZM6.35521 5.175L6.17365 4.93618L6.17357 4.93624L6.35521 5.175ZM6.48412 5.077L6.66568 5.31582L6.6662 5.31542L6.48412 5.077ZM7.21658 3.567L6.91659 3.56576L6.91659 3.566L7.21658 3.567ZM7.21758 3.326L7.51758 3.32724L7.51758 3.32717L7.21758 3.326ZM9.50292 1L9.50327 0.7H9.50292V1ZM12.0481 1.003L12.0486 0.703L12.0484 0.703L12.0481 1.003ZM13.6449 1.673L13.4319 1.88431L13.4322 1.88458L13.6449 1.673ZM14.3274 3.348L14.6274 3.35015L14.6274 3.34894L14.3274 3.348ZM14.3254 3.627L14.0254 3.62485L14.0254 3.62594L14.3254 3.627ZM15.0189 5.056L15.2 4.81687L15.1991 4.81613L15.0189 5.056ZM15.1258 5.137L14.9447 5.37613L14.9455 5.37675L15.1258 5.137ZM16.7186 5.401L16.6237 5.11642L16.6232 5.11658L16.7186 5.401ZM17.0574 5.288L16.9626 5.00337L16.9625 5.00342L17.0574 5.288ZM18.7881 5.42L18.6513 5.68699L18.6514 5.68703L18.7881 5.42ZM19.9403 6.798L19.6538 6.88696L19.6539 6.88734L19.9403 6.798ZM20.7267 9.319L21.0131 9.22971L21.0131 9.22966L20.7267 9.319ZM19.2628 12.248L19.3577 12.5326L19.358 12.5325L19.2628 12.248ZM19.0619 12.315L18.967 12.0304L18.9661 12.0307L19.0619 12.315ZM17.8528 13.601L18.1405 13.6861L18.1405 13.686L17.8528 13.601ZM18.1116 15.253L18.3582 15.0822L18.3581 15.082L18.1116 15.253ZM18.3714 15.628L18.6182 15.4574L18.618 15.4571L18.3714 15.628ZM17.8638 18.857L17.6832 18.6175L17.683 18.6176L17.8638 18.857ZM15.8043 20.413L15.6235 20.1736L15.6234 20.1737L15.8043 20.413ZM14.0946 20.841L14.0468 21.1372L14.0473 21.1373L14.0946 20.841ZM12.5867 19.884L12.3392 20.0536L12.34 20.0548L12.5867 19.884ZM12.4688 19.712L12.7162 19.5424L12.7152 19.541L12.4688 19.712ZM10.9728 18.935L10.981 19.235L10.9897 19.2345L10.9728 18.935ZM9.54588 19.702L9.79122 19.8747L9.79132 19.8745L9.54588 19.702ZM9.31505 20.03L9.56023 20.2029L9.56039 20.2027L9.31505 20.03ZM7.80615 20.974L7.8518 21.2705L7.85275 21.2704L7.80615 20.974ZM3.1526 10.9061C4.1725 11.2564 4.99425 12.1149 5.33909 13.2132L5.91154 13.0335C5.51293 11.7639 4.55797 10.7544 3.34749 10.3386L3.1526 10.9061ZM5.34069 13.2182L5.38066 13.3382L5.94991 13.1486L5.90994 13.0286L5.34069 13.2182ZM5.38116 13.3397C5.77853 14.5121 5.61345 15.763 4.95927 16.6927L5.44997 17.038C6.22275 15.9397 6.40342 14.4866 5.94941 13.1471L5.38116 13.3397ZM4.95955 16.6923C4.75769 16.9782 4.76607 17.3896 5.05912 17.6123L5.42207 17.1345C5.42872 17.1395 5.42291 17.14 5.42137 17.1227C5.4199 17.1063 5.42354 17.0754 5.4497 17.0384L4.95955 16.6923ZM5.05904 17.6122L7.12953 19.1862L7.49264 18.7085L5.42215 17.1345L5.05904 17.6122ZM7.13048 19.1869C7.28829 19.3059 7.44788 19.3051 7.53285 19.2954L7.46505 18.6993C7.46123 18.6997 7.46524 18.6989 7.47279 18.7003C7.47668 18.7011 7.4808 18.7023 7.48472 18.704C7.4887 18.7057 7.49104 18.7073 7.49169 18.7078L7.13048 19.1869ZM7.54638 19.2936C7.65916 19.2755 7.81166 19.2141 7.92637 19.0507L7.43526 18.706C7.433 18.7092 7.43199 18.71 7.43271 18.7093C7.43343 18.7087 7.43499 18.7074 7.43737 18.7061C7.44216 18.7033 7.44713 18.7018 7.45152 18.7011L7.54638 19.2936ZM7.92615 19.051L8.15698 18.723L7.66631 18.3777L7.43548 18.7057L7.92615 19.051ZM8.15687 18.7232C8.79223 17.8216 9.81471 17.2674 10.8892 17.2362L10.8718 16.6365C9.60396 16.6733 8.40806 17.3251 7.66642 18.3776L8.15687 18.7232ZM10.8866 17.2363C12.1021 17.2113 13.1878 17.7667 13.8654 18.7461L14.3588 18.4047C13.5655 17.258 12.2889 16.6074 10.8743 16.6364L10.8866 17.2363ZM13.8651 18.7457L13.9831 18.9167L14.477 18.5761L14.3591 18.4051L13.8651 18.7457ZM13.9845 18.9187C14.0973 19.0794 14.247 19.1442 14.3654 19.1627L14.4584 18.57C14.4645 18.5709 14.4702 18.5728 14.4751 18.5757C14.4775 18.5771 14.4789 18.5783 14.4793 18.5786C14.4796 18.579 14.4783 18.5778 14.4756 18.574L13.9845 18.9187ZM14.3517 19.1603C14.4689 19.1843 14.6333 19.1704 14.784 19.0531L14.4155 18.5796C14.4169 18.5785 14.4237 18.5742 14.4354 18.5718C14.4455 18.5697 14.4575 18.5695 14.4721 18.5725L14.3517 19.1603ZM14.7805 19.0558L16.84 17.5008L16.4785 17.0219L14.419 18.5769L14.7805 19.0558ZM16.8393 17.5013C17.1222 17.289 17.1661 16.8738 16.9752 16.597L16.4813 16.9377C16.4875 16.9468 16.4941 16.966 16.4907 16.9906C16.4872 17.0157 16.4771 17.023 16.4792 17.0214L16.8393 17.5013ZM16.9748 16.5965L16.715 16.2215L16.2218 16.5632L16.4816 16.9382L16.9748 16.5965ZM16.7151 16.2217C16.0977 15.3289 15.9133 14.1672 16.2244 13.1187L15.6492 12.948C15.2868 14.1696 15.5001 15.5198 16.2217 16.563L16.7151 16.2217ZM16.2245 13.1185C16.5633 11.9734 17.4238 11.0718 18.5223 10.7038L18.3317 10.1349C17.0419 10.5669 16.0418 11.6213 15.6491 12.9482L16.2245 13.1185ZM18.5232 10.7035L18.724 10.6355L18.5316 10.0672L18.3308 10.1352L18.5232 10.7035ZM18.7217 10.6363C19.0714 10.5211 19.1995 10.13 19.1053 9.82565L18.5321 10.0031C18.539 10.0252 18.5364 10.0472 18.53 10.0621C18.5234 10.0771 18.5201 10.071 18.534 10.0664L18.7217 10.6363ZM19.1051 9.82503L18.3187 7.30403L17.7459 7.48271L18.5323 10.0037L19.1051 9.82503ZM18.3185 7.30367C18.2509 7.08766 18.1053 6.98113 18.0167 6.93466L17.7381 7.46607C17.7372 7.4656 17.7373 7.46552 17.7379 7.46615C17.7382 7.46642 17.739 7.46736 17.7402 7.46941C17.7414 7.47141 17.7437 7.47564 17.746 7.48307L18.3185 7.30367ZM18.0152 6.93388C17.8844 6.86626 17.735 6.85352 17.5942 6.90124L17.7868 7.46949C17.7802 7.47172 17.7711 7.47323 17.7609 7.47242C17.7508 7.47162 17.7434 7.46883 17.7396 7.46685L18.0152 6.93388ZM17.5958 6.9007L17.2561 7.0137L17.4454 7.58303L17.7852 7.47003L17.5958 6.9007ZM17.256 7.01373C16.1878 7.36945 15.0085 7.17664 14.1027 6.49469L13.7418 6.97404C14.8046 7.77409 16.1894 8.00129 17.4455 7.583L17.256 7.01373ZM14.1023 6.49443L13.9944 6.41343L13.6343 6.8933L13.7422 6.9743L14.1023 6.49443ZM13.9948 6.41368C13.1369 5.76797 12.6227 4.72314 12.6264 3.61937L12.0264 3.61736C12.0221 4.90559 12.6212 6.13076 13.6339 6.89306L13.9948 6.41368ZM12.6264 3.62051L12.6284 3.34051L12.0284 3.33623L12.0264 3.61623L12.6264 3.62051ZM12.6284 3.33837C12.6284 3.10172 12.5142 2.94684 12.4397 2.87231L12.0153 3.29642C12.0161 3.29726 12.0195 3.30095 12.0224 3.30694C12.0247 3.31161 12.0284 3.32099 12.0284 3.33837H12.6284ZM12.4426 2.87524C12.3745 2.80518 12.2409 2.70337 12.0446 2.70337V3.30337C12.0402 3.30337 12.0351 3.30277 12.03 3.30144C12.0249 3.30014 12.0208 3.29844 12.0179 3.29695C12.0127 3.29429 12.0113 3.29239 12.0124 3.29349L12.4426 2.87524ZM12.045 2.70337L9.49984 2.70037L9.49914 3.30037L12.0443 3.30337L12.045 2.70337ZM9.49949 2.70037C9.13404 2.70037 8.91733 3.03106 8.9157 3.33174L9.51569 3.335C9.51582 3.31068 9.52435 3.29655 9.52786 3.29244C9.52936 3.29067 9.52836 3.29252 9.52322 3.29508C9.51761 3.29788 9.50919 3.30037 9.49949 3.30037V2.70037ZM8.9157 3.33213L8.9147 3.57413L9.51469 3.5766L9.51569 3.3346L8.9157 3.33213ZM8.9147 3.57413C8.91008 4.69807 8.38348 5.7656 7.5118 6.43089L7.87582 6.90785C8.89875 6.12713 9.50932 4.88266 9.51469 3.5766L8.9147 3.57413ZM7.51224 6.43055L7.38334 6.52855L7.74646 7.00619L7.87537 6.90819L7.51224 6.43055ZM7.38324 6.52862C6.41973 7.26172 5.165 7.46785 4.02942 7.08043L3.83569 7.6483C5.1623 8.10088 6.62559 7.85901 7.74656 7.00612L7.38324 6.52862ZM4.02929 7.08039C3.90843 7.03922 3.7788 7.04558 3.66037 7.10766L3.93893 7.63907C3.92576 7.64598 3.90696 7.65241 3.88453 7.65393C3.86245 7.65543 3.84537 7.6516 3.83581 7.64834L4.02929 7.08039ZM3.66541 7.10508C3.57934 7.14814 3.45271 7.24543 3.39498 7.4332L3.96849 7.60953C3.96858 7.60923 3.96632 7.61554 3.95881 7.62361C3.9523 7.6306 3.94412 7.63654 3.93389 7.64166L3.66541 7.10508ZM3.39555 7.43137L2.57915 10.0274L3.15151 10.2074L3.96792 7.61137L3.39555 7.43137ZM2.57894 10.028C2.47353 10.3659 2.64633 10.7321 2.98845 10.85L3.18389 10.2827C3.16028 10.2746 3.13921 10.2468 3.15172 10.2067L2.57894 10.028ZM2.98916 10.8502L3.15304 10.9062L3.34706 10.3385L3.18318 10.2825L2.98916 10.8502ZM7.45841 20.7C7.03895 20.7 6.63107 20.5639 6.2852 20.3004L5.92159 20.7776C6.37115 21.1201 6.90657 21.3 7.45841 21.3V20.7ZM6.28488 20.3001L4.21439 18.7271L3.85142 19.2049L5.92191 20.7779L6.28488 20.3001ZM4.21415 18.7269C3.3553 18.0758 3.16185 16.8152 3.78965 15.9226L3.29888 15.5774C2.48773 16.7308 2.73196 18.3562 3.85167 19.2051L4.21415 18.7269ZM3.78944 15.9229C4.22416 15.3064 4.30656 14.5235 4.0591 13.7964L3.49109 13.9896C3.68331 14.5545 3.61183 15.1336 3.29909 15.5771L3.78944 15.9229ZM4.06023 13.7997L4.00527 13.6317L3.43501 13.8183L3.48997 13.9863L4.06023 13.7997ZM4.00634 13.6351C3.79864 12.974 3.31827 12.442 2.70019 12.2302L2.50572 12.7978C2.92088 12.94 3.2759 13.312 3.43393 13.8149L4.00634 13.6351ZM2.7015 12.2306L2.53762 12.1737L2.34052 12.7404L2.5044 12.7973L2.7015 12.2306ZM2.53631 12.1732C1.47413 11.8093 0.907043 10.6847 1.24538 9.60685L0.672922 9.42715C0.237825 10.8133 0.969793 12.2707 2.34184 12.7408L2.53631 12.1732ZM1.24536 9.60693L2.06076 7.01193L1.48835 6.83207L0.672948 9.42707L1.24536 9.60693ZM2.0607 7.01212C2.22183 6.50049 2.56723 6.09142 3.03317 5.85569L2.76231 5.32031C2.14903 5.63058 1.69702 6.1695 1.48841 6.83188L2.0607 7.01212ZM3.03279 5.85588C3.48841 5.62618 4.00124 5.59103 4.48229 5.75581L4.67673 5.18819C4.04259 4.97097 3.36229 5.01782 2.76268 5.32012L3.03279 5.85588ZM4.48273 5.75596C5.17785 5.99287 5.94644 5.86294 6.53686 5.41376L6.17357 4.93624C5.73873 5.26706 5.17829 5.35913 4.67629 5.18804L4.48273 5.75596ZM6.53678 5.41382L6.66568 5.31582L6.30256 4.83818L6.17365 4.93618L6.53678 5.41382ZM6.6662 5.31542C7.19908 4.90846 7.51429 4.25409 7.51658 3.568L6.91659 3.566C6.91489 4.07391 6.68049 4.54954 6.30203 4.83858L6.6662 5.31542ZM7.51658 3.56824L7.51758 3.32724L6.91759 3.32476L6.91659 3.56576L7.51658 3.56824ZM7.51758 3.32717C7.52196 2.20198 8.4184 1.3 9.49892 1.3V0.7C8.07526 0.7 6.9232 1.88202 6.91759 3.32483L7.51758 3.32717ZM9.49892 1.3H9.50292V0.7H9.49892V1.3ZM9.50256 1.3L12.0477 1.303L12.0484 0.703L9.50327 0.7L9.50256 1.3ZM12.0476 1.303C12.5686 1.30387 13.0599 1.50941 13.4319 1.88431L13.8578 1.46169C13.3745 0.974589 12.7307 0.704134 12.0486 0.703L12.0476 1.303ZM13.4322 1.88458C13.8178 2.27217 14.0291 2.79032 14.0274 3.34706L14.6274 3.34894C14.6296 2.63568 14.3574 1.96383 13.8576 1.46142L13.4322 1.88458ZM14.0274 3.34585L14.0254 3.62485L14.6254 3.62915L14.6274 3.35015L14.0274 3.34585ZM14.0254 3.62594C14.0231 4.28212 14.3227 4.90831 14.8387 5.29587L15.1991 4.81613C14.8417 4.54769 14.6237 4.10388 14.6254 3.62806L14.0254 3.62594ZM14.8377 5.29513L14.9447 5.37613L15.307 4.89787L15.2 4.81687L14.8377 5.29513ZM14.9455 5.37675C15.4818 5.78015 16.1822 5.89736 16.8141 5.68542L16.6232 5.11658C16.1818 5.26464 15.6872 5.18385 15.3061 4.89725L14.9455 5.37675ZM16.8136 5.68558L17.1523 5.57258L16.9625 5.00342L16.6237 5.11642L16.8136 5.68558ZM17.1522 5.57263C17.6523 5.40611 18.1824 5.44669 18.6513 5.68699L18.9249 5.15301C18.3127 4.83931 17.6157 4.78589 16.9626 5.00337L17.1522 5.57263ZM18.6514 5.68703C19.1331 5.93371 19.4895 6.35794 19.6538 6.88696L20.2268 6.70903C20.0153 6.02806 19.5523 5.47429 18.9249 5.15298L18.6514 5.68703ZM19.6539 6.88734L20.4403 9.40834L21.0131 9.22966L20.2267 6.70866L19.6539 6.88734ZM20.4403 9.40829C20.773 10.4754 20.194 11.62 19.1676 11.9635L19.358 12.5325C20.7038 12.0821 21.4399 10.5986 21.0131 9.22971L20.4403 9.40829ZM19.1679 11.9634L18.967 12.0304L19.1569 12.5996L19.3577 12.5326L19.1679 11.9634ZM18.9661 12.0307C18.2931 12.2576 17.7722 12.8153 17.5651 13.516L18.1405 13.686C18.2952 13.1627 18.6796 12.7604 19.1578 12.5993L18.9661 12.0307ZM17.5651 13.5159C17.374 14.1622 17.4835 14.8737 17.8651 15.424L18.3581 15.082C18.0823 14.6843 17.9999 14.1618 18.1405 13.6861L17.5651 13.5159ZM17.865 15.4239L18.1248 15.7989L18.618 15.4571L18.3582 15.0822L17.865 15.4239ZM18.1247 15.7986C18.7479 16.7001 18.5463 17.9666 17.6832 18.6175L18.0444 19.0965C19.1679 18.2494 19.4219 16.6199 18.6182 15.4574L18.1247 15.7986ZM17.683 18.6176L15.6235 20.1736L15.9852 20.6524L18.0447 19.0964L17.683 18.6176ZM15.6234 20.1737C15.1938 20.4985 14.6696 20.6289 14.1418 20.5447L14.0473 21.1373C14.7367 21.2471 15.4256 21.0755 15.9853 20.6523L15.6234 20.1737ZM14.1424 20.5448C13.6107 20.459 13.1463 20.1652 12.8333 19.7132L12.34 20.0548C12.7445 20.6388 13.3514 21.025 14.0468 21.1372L14.1424 20.5448ZM12.8341 19.7144L12.7162 19.5424L12.2213 19.8816L12.3392 20.0536L12.8341 19.7144ZM12.7152 19.541C12.3143 18.9632 11.6605 18.5958 10.956 18.6355L10.9897 19.2345C11.4584 19.2082 11.9237 19.4528 12.2223 19.883L12.7152 19.541ZM10.9647 18.6351C10.281 18.6537 9.68595 18.981 9.30045 19.5295L9.79132 19.8745C10.0693 19.479 10.4895 19.2483 10.981 19.2349L10.9647 18.6351ZM9.30055 19.5293L9.06972 19.8573L9.56039 20.2027L9.79122 19.8747L9.30055 19.5293ZM9.06988 19.8571C8.75428 20.3047 8.28887 20.5944 7.75956 20.6776L7.85275 21.2704C8.54454 21.1616 9.15235 20.7813 9.56023 20.2029L9.06988 19.8571ZM7.7605 20.6775C7.65993 20.693 7.55934 20.7 7.45841 20.7V21.3C7.5873 21.3 7.71855 21.291 7.8518 21.2705L7.7605 20.6775ZM10.8407 9.19939C9.84844 9.19939 9.04182 10.0069 9.04182 10.9994H9.64182C9.64182 10.3379 10.1802 9.79939 10.8407 9.79939V9.19939ZM9.04182 10.9994C9.04182 11.9919 9.84844 12.7994 10.8407 12.7994V12.1994C10.1802 12.1994 9.64182 11.6609 9.64182 10.9994H9.04182ZM10.8407 12.7994C11.833 12.7994 12.6396 11.9919 12.6396 10.9994H12.0396C12.0396 11.6609 11.5012 12.1994 10.8407 12.1994V12.7994ZM12.6396 10.9994C12.6396 10.0069 11.833 9.19939 10.8407 9.19939V9.79939C11.5012 9.79939 12.0396 10.3379 12.0396 10.9994H12.6396ZM10.8425 14.2006C9.07985 14.2006 7.6451 12.7651 7.6451 11.0006H7.0451C7.0451 13.0961 8.74806 14.8006 10.8425 14.8006V14.2006ZM7.6451 11.0006C7.6451 9.23609 9.07985 7.80061 10.8425 7.80061V7.20061C8.74806 7.20061 7.0451 8.90513 7.0451 11.0006H7.6451ZM10.8425 7.80061C12.6052 7.80061 14.04 9.23609 14.04 11.0006H14.64C14.64 8.90513 12.937 7.20061 10.8425 7.20061V7.80061ZM14.04 11.0006C14.04 12.7651 12.6052 14.2006 10.8425 14.2006V14.8006C12.937 14.8006 14.64 13.0961 14.64 11.0006H14.04Z" fill="#515960"/>
</svg>
