<svg width="20" height="10" viewBox="0 0 20 10" fill="none" xmlns="http://www.w3.org/2000/svg">
<path fill-rule="evenodd" clip-rule="evenodd" d="M2.57829 4.58001C6.49152 0.52816 13.11 0.642866 17.3311 4.83569C18.1497 5.64884 18.1983 6.94986 17.4389 7.73622C17.3811 7.79599 17.32 7.85235 17.2532 7.90416L14.052 5.86439C14.0926 5.71568 14.1372 5.55365 14.1778 5.40382C14.3792 4.66801 14.5238 4.13583 13.8951 3.85731C11.3607 2.60241 8.38948 2.55092 5.97541 3.70612C5.33317 3.97822 5.52262 4.51451 5.77866 5.25769C5.83057 5.41024 5.88672 5.57346 5.93854 5.72378L2.88565 7.65516C2.81711 7.60212 2.75057 7.54354 2.68716 7.48055C1.86795 6.66684 1.81937 5.36581 2.57829 4.58001ZM2.09715 8.97457C2.26116 9.0945 2.43448 9.19897 2.61216 9.28735C2.85714 9.41036 3.14168 9.39968 3.36309 9.25967L7.30371 6.76606C7.51965 6.62708 7.6487 6.38567 7.64429 6.1202C7.64176 5.96405 7.64163 5.9607 7.27636 4.8995C8.96669 4.27926 10.8904 4.31093 12.6503 4.99431C12.3649 6.042 12.3645 6.0459 12.3736 6.20217C12.3891 6.46782 12.5358 6.71569 12.7629 6.86068L16.895 9.49419C17.1283 9.64208 17.4129 9.66263 17.649 9.54796C17.8219 9.4651 17.9876 9.36538 18.1391 9.25371C18.2956 9.14157 18.4432 9.01422 18.5814 8.8711C19.9245 7.48045 19.839 5.178 18.3903 3.73897C13.5391 -1.07975 5.93366 -1.21212 1.43575 3.44512C0.0926737 4.83577 0.179208 7.13824 1.62795 8.57727C1.77591 8.72424 1.93324 8.85688 2.09715 8.97457Z" fill="#FF3A29"/>
</svg>
