<svg width="27" height="18" viewBox="0 0 27 18" fill="none" xmlns="http://www.w3.org/2000/svg">
<path d="M16.5146 10.9797L15.6209 10.0313C16.1388 9.48164 16.7733 9.0717 17.4713 8.83585L17.7797 10.1315C17.2195 10.3452 16.8356 10.6457 16.5146 10.9797ZM20.2971 11.2268L22.1538 9.00075L22.0594 8.8826L20.2971 7.01929C20.2528 6.97314 20.1965 6.94196 20.1355 6.92967C20.0744 6.91739 20.0113 6.92456 19.9541 6.95027C19.8969 6.97598 19.8482 7.01909 19.814 7.07416C19.7798 7.12922 19.7618 7.19379 19.7622 7.25972V8.46853C19.2524 8.48189 19.1013 8.23498 18.7048 8.30844V9.89106C19.0069 9.84431 19.3657 9.81091 19.7622 9.80424V10.993C19.763 11.0584 19.782 11.122 19.8166 11.1761C19.8512 11.2301 19.9 11.2722 19.957 11.2971C20.014 11.322 20.0766 11.3286 20.137 11.3161C20.1975 11.3036 20.2532 11.2725 20.2971 11.2268ZM20.2971 17.9053L22.0531 16.042C22.179 15.9084 22.179 15.7014 22.0531 15.5678L20.2971 13.7045C20.102 13.4908 19.7622 13.6377 19.7622 13.9382V15.127C17.4461 15.0602 16.7727 14.2722 16.0615 13.4307C15.7846 13.0968 15.4825 12.7561 15.0859 12.4623C15.3943 12.2352 15.6398 11.9748 15.8664 11.7076L14.979 10.7659C14.444 11.387 14.0097 11.7944 12.8391 11.7944H10.3216C9.97546 11.7944 9.69224 12.095 9.69224 12.4623C9.69224 12.8296 9.97546 13.1301 10.3216 13.1301H12.8391C14.1104 13.1301 14.5132 13.6043 15.1237 14.3256C15.9041 15.2472 16.8734 16.3826 19.7622 16.4627V17.6649C19.7618 17.7308 19.7798 17.7954 19.814 17.8504C19.8482 17.9055 19.8969 17.9486 19.9541 17.9743C20.0113 18 20.0744 18.0072 20.1355 17.9949C20.1965 17.9826 20.2528 17.9514 20.2971 17.9053Z" fill="#898D92"/>
<path d="M16.5146 7.02034L15.6209 7.96869C16.1388 8.51836 16.7733 8.9283 17.4713 9.16415L17.7797 7.86852C17.2195 7.6548 16.8356 7.35427 16.5146 7.02034ZM20.2972 6.77324L22.0594 8.89027C22.1852 9.02384 22.1853 8.98383 22.0594 9.1174L20.2972 10.9807C20.2528 11.0269 20.1965 11.058 20.1355 11.0703C20.0745 11.0826 20.0114 11.0754 19.9542 11.0497C19.8969 11.024 19.8482 10.9809 19.814 10.9258C19.7799 10.8708 19.7618 10.8062 19.7622 10.7403V9.53147C19.2524 9.51811 19.1014 9.60493 18.7049 9.53147V8.10894C19.007 8.15569 19.3657 8.18909 19.7622 8.19576V7.00699C19.7631 6.94163 19.782 6.87798 19.8166 6.82392C19.8513 6.76987 19.9001 6.72779 19.957 6.7029C20.014 6.67801 20.0766 6.67141 20.137 6.68392C20.1975 6.69642 20.2532 6.72748 20.2972 6.77324ZM20.2972 0.0947104L22.0531 1.95802C22.179 2.09159 22.179 2.29862 22.0531 2.43219L20.2972 4.2955C20.1021 4.50922 19.7622 4.36229 19.7622 4.06176V2.87298C17.4461 2.93976 16.7727 3.72783 16.0615 4.56932C15.7846 4.90325 15.4825 5.24385 15.086 5.53771C15.3944 5.76478 15.6398 6.02524 15.8664 6.29238L14.979 7.23406C14.444 6.61295 14.0098 6.20556 12.8391 6.20556H10.3216C9.97549 6.20556 9.69227 5.90503 9.69227 5.53771C9.69227 5.17039 9.97549 4.86986 10.3216 4.86986H12.8391C14.1105 4.86986 14.5132 4.39568 15.1237 3.6744C15.9042 2.75276 16.8734 1.61741 19.7622 1.53727V0.335135C19.7618 0.269209 19.7799 0.204645 19.814 0.149577C19.8482 0.0945091 19.8969 0.0514021 19.9542 0.0256901C20.0114 -2.09808e-05 20.0745 -0.00718784 20.1355 0.00509453C20.1965 0.0173779 20.2528 0.0485592 20.2972 0.0947104Z" fill="#898D92"/>
<circle cx="6.23077" cy="9.0003" r="5.48077" stroke="#898D92" stroke-width="1.5"/>
<circle cx="24.2307" cy="9.00075" r="1.72692" stroke="#898D92" stroke-width="0.7"/>
<circle cx="24.2307" cy="15.9226" r="1.72692" stroke="#898D92" stroke-width="0.7"/>
<circle cx="24.2307" cy="2.07692" r="1.72692" stroke="#898D92" stroke-width="0.7"/>
</svg>
