<svg width="28" height="25" viewBox="4 -6 28 25" fill="none" xmlns="http://www.w3.org/2000/svg">
<g filter="url(#filter0_d)">
<path d="M8.64646 11.8207C8.64646 12.2629 8.11463 12.4874 7.79774 12.179L4.36958 8.84267C4.16734 8.64586 4.16795 8.32078 4.37093 8.12472L7.7991 4.81347C8.1165 4.50689 8.64646 4.73182 8.64646 5.1731V7.004H15.0993C15.3755 7.004 15.5993 7.22786 15.5993 7.504V9.496C15.5993 9.77214 15.3755 9.996 15.0993 9.996L8.64646 9.996V11.8207ZM11.8131 3.97614C11.6052 4.14683 11.2996 4.14121 11.1103 3.95004L10.0167 2.84567C9.81917 2.64621 9.82397 2.32213 10.0361 2.13827C11.6806 0.712755 13.4509 0 15.3468 0C17.7823 0 19.8333 0.813166 21.5 2.4395C23.1667 4.06583 24 6.09733 24 8.534C24 10.064 23.6184 11.4807 22.8552 12.784C22.092 14.0873 21.0623 15.1158 19.766 15.8695C18.4697 16.6232 17.064 17 15.5488 17C13.6291 17 11.8015 16.2752 10.066 14.8257C9.84811 14.6437 9.83892 14.3153 10.0378 14.1126L11.1018 13.0279C11.2909 12.8351 11.5978 12.8288 11.8062 13.0005C12.9791 13.9668 14.2211 14.45 15.532 14.45C17.2043 14.45 18.6156 13.8607 19.766 12.682C20.9164 11.5033 21.5 10.0556 21.5 8.35558C21.5 6.76892 20.908 5.40325 19.7239 4.25858C18.5398 3.11392 17.151 2.54158 15.5572 2.54158C14.2264 2.54158 12.9784 3.01977 11.8131 3.97614Z" fill="#515960"/>
</g>
<defs>
<filter id="filter0_d" x="0.21875" y="0" width="27.7817" height="25" filterUnits="userSpaceOnUse" color-interpolation-filters="sRGB">
<feFlood flood-opacity="0" result="BackgroundImageFix"/>
<feColorMatrix in="SourceAlpha" type="matrix" values="0 0 0 0 0 0 0 0 0 0 0 0 0 0 0 0 0 0 127 0"/>
<feOffset dy="4"/>
<feGaussianBlur stdDeviation="2"/>
<feColorMatrix type="matrix" values="0 0 0 0 0 0 0 0 0 0 0 0 0 0 0 0 0 0 0.25 0"/>
<feBlend mode="normal" in2="BackgroundImageFix" result="effect1_dropShadow"/>
<feBlend mode="normal" in="SourceGraphic" in2="effect1_dropShadow" result="shape"/>
</filter>
</defs>
</svg>
