<svg width="125" height="36" viewBox="0 0 125 36" fill="none" xmlns="http://www.w3.org/2000/svg">
<g filter="url(#filter0_d)">
<rect x="4" width="117" height="28" rx="2" fill="#17212B"/>
<rect x="4.5" y="0.5" width="116" height="27" rx="1.5" stroke="#FF3A29"/>
</g>
<g filter="url(#filter1_d)">
<path d="M39.5244 19.2246H45.334V21H37.3008V8.20312H39.5244V19.2246ZM56.6895 14.9355C56.6895 16.1895 56.4727 17.291 56.0391 18.2402C55.6055 19.1836 54.9844 19.9102 54.1758 20.4199C53.373 20.9238 52.4473 21.1758 51.3984 21.1758C50.3613 21.1758 49.4355 20.9238 48.6211 20.4199C47.8125 19.9102 47.1855 19.1865 46.7402 18.249C46.3008 17.3115 46.0781 16.2305 46.0723 15.0059V14.2852C46.0723 13.0371 46.292 11.9355 46.7314 10.9805C47.1768 10.0254 47.8008 9.2959 48.6035 8.79199C49.4121 8.28223 50.3379 8.02734 51.3809 8.02734C52.4238 8.02734 53.3467 8.2793 54.1494 8.7832C54.958 9.28125 55.582 10.002 56.0215 10.9453C56.4609 11.8828 56.6836 12.9756 56.6895 14.2236V14.9355ZM54.4658 14.2676C54.4658 12.8496 54.1963 11.7627 53.6572 11.0068C53.124 10.251 52.3652 9.87305 51.3809 9.87305C50.4199 9.87305 49.667 10.251 49.1221 11.0068C48.583 11.7568 48.3076 12.8203 48.2959 14.1973V14.9355C48.2959 16.3418 48.5684 17.4287 49.1133 18.1963C49.6641 18.9639 50.4258 19.3477 51.3984 19.3477C52.3828 19.3477 53.1387 18.9727 53.666 18.2227C54.1992 17.4727 54.4658 16.377 54.4658 14.9355V14.2676ZM68.7129 19.3389C68.25 19.9424 67.6084 20.3994 66.7881 20.71C65.9678 21.0205 65.0361 21.1758 63.9932 21.1758C62.9209 21.1758 61.9717 20.9326 61.1455 20.4463C60.3193 19.96 59.6807 19.2656 59.2295 18.3633C58.7842 17.4551 58.5527 16.3975 58.5352 15.1904V14.1885C58.5352 12.2549 58.998 10.7461 59.9238 9.66211C60.8496 8.57227 62.1416 8.02734 63.7998 8.02734C65.2236 8.02734 66.3545 8.37891 67.1924 9.08203C68.0303 9.78516 68.5342 10.7988 68.7041 12.123H66.5244C66.2783 10.582 65.3848 9.81152 63.8438 9.81152C62.8477 9.81152 62.0889 10.1719 61.5674 10.8926C61.0518 11.6074 60.7852 12.6592 60.7676 14.0479V15.0322C60.7676 16.415 61.0576 17.4902 61.6377 18.2578C62.2236 19.0195 63.0352 19.4004 64.0723 19.4004C65.209 19.4004 66.0176 19.1426 66.498 18.627V16.1221H63.8613V14.4346H68.7129V19.3389ZM81.3691 14.9355C81.3691 16.1895 81.1523 17.291 80.7188 18.2402C80.2852 19.1836 79.6641 19.9102 78.8555 20.4199C78.0527 20.9238 77.127 21.1758 76.0781 21.1758C75.041 21.1758 74.1152 20.9238 73.3008 20.4199C72.4922 19.9102 71.8652 19.1865 71.4199 18.249C70.9805 17.3115 70.7578 16.2305 70.752 15.0059V14.2852C70.752 13.0371 70.9717 11.9355 71.4111 10.9805C71.8564 10.0254 72.4805 9.2959 73.2832 8.79199C74.0918 8.28223 75.0176 8.02734 76.0605 8.02734C77.1035 8.02734 78.0264 8.2793 78.8291 8.7832C79.6377 9.28125 80.2617 10.002 80.7012 10.9453C81.1406 11.8828 81.3633 12.9756 81.3691 14.2236V14.9355ZM79.1455 14.2676C79.1455 12.8496 78.876 11.7627 78.3369 11.0068C77.8037 10.251 77.0449 9.87305 76.0605 9.87305C75.0996 9.87305 74.3467 10.251 73.8018 11.0068C73.2627 11.7568 72.9873 12.8203 72.9756 14.1973V14.9355C72.9756 16.3418 73.248 17.4287 73.793 18.1963C74.3438 18.9639 75.1055 19.3477 76.0781 19.3477C77.0625 19.3477 77.8184 18.9727 78.3457 18.2227C78.8789 17.4727 79.1455 16.377 79.1455 14.9355V14.2676ZM92.9443 8.20312V16.7549C92.9443 18.1143 92.5078 19.1924 91.6348 19.9893C90.7676 20.7803 89.6104 21.1758 88.1631 21.1758C86.6982 21.1758 85.5352 20.7861 84.6738 20.0068C83.8125 19.2217 83.3818 18.1348 83.3818 16.7461V8.20312H85.5967V16.7637C85.5967 17.6191 85.8135 18.2725 86.2471 18.7236C86.6807 19.1748 87.3193 19.4004 88.1631 19.4004C89.874 19.4004 90.7295 18.498 90.7295 16.6934V8.20312H92.9443ZM104.572 9.99609H100.582V21H98.376V9.99609H94.4209V8.20312H104.572V9.99609Z" fill="#FF3A29"/>
</g>
<g filter="url(#filter2_d)">
<path d="M25.3535 11.1793C25.3535 10.7371 25.8854 10.5126 26.2023 10.821L29.6304 14.1573C29.8327 14.3541 29.832 14.6792 29.6291 14.8753L26.2009 18.1865C25.8835 18.4931 25.3535 18.2682 25.3535 17.8269V15.996H18.9007C18.6245 15.996 18.4007 15.7721 18.4007 15.496V13.504C18.4007 13.2279 18.6245 13.004 18.9007 13.004H25.3535V11.1793ZM22.1869 19.0239C22.3948 18.8532 22.7004 18.8588 22.8897 19.05L23.9833 20.1543C24.1808 20.3538 24.176 20.6779 23.9639 20.8617C22.3194 22.2872 20.5491 23 18.6532 23C16.2177 23 14.1667 22.1868 12.5 20.5605C10.8333 18.9342 10 16.9027 10 14.466C10 12.936 10.3816 11.5193 11.1448 10.216C11.908 8.91267 12.9377 7.88417 14.234 7.1305C15.5303 6.37683 16.936 6 18.4512 6C20.3709 6 22.1985 6.72475 23.934 8.17426C24.1519 8.35629 24.1611 8.68473 23.9622 8.88743L22.8982 9.97209C22.7091 10.1649 22.4022 10.1712 22.1938 9.99951C21.0209 9.03317 19.7789 8.55 18.468 8.55C16.7957 8.55 15.3844 9.13933 14.234 10.318C13.0836 11.4967 12.5 12.9444 12.5 14.6444C12.5 16.2311 13.092 17.5968 14.2761 18.7414C15.4602 19.8861 16.849 20.4584 18.4428 20.4584C19.7736 20.4584 21.0216 19.9802 22.1869 19.0239Z" fill="#FF3A29"/>
</g>
<defs>
<filter id="filter0_d" x="0" y="0" width="125" height="36" filterUnits="userSpaceOnUse" color-interpolation-filters="sRGB">
<feFlood flood-opacity="0" result="BackgroundImageFix"/>
<feColorMatrix in="SourceAlpha" type="matrix" values="0 0 0 0 0 0 0 0 0 0 0 0 0 0 0 0 0 0 127 0"/>
<feOffset dy="4"/>
<feGaussianBlur stdDeviation="2"/>
<feColorMatrix type="matrix" values="0 0 0 0 0 0 0 0 0 0 0 0 0 0 0 0 0 0 0.25 0"/>
<feBlend mode="normal" in2="BackgroundImageFix" result="effect1_dropShadow"/>
<feBlend mode="normal" in="SourceGraphic" in2="effect1_dropShadow" result="shape"/>
</filter>
<filter id="filter1_d" x="33.3008" y="8.02734" width="75.2715" height="21.1484" filterUnits="userSpaceOnUse" color-interpolation-filters="sRGB">
<feFlood flood-opacity="0" result="BackgroundImageFix"/>
<feColorMatrix in="SourceAlpha" type="matrix" values="0 0 0 0 0 0 0 0 0 0 0 0 0 0 0 0 0 0 127 0"/>
<feOffset dy="4"/>
<feGaussianBlur stdDeviation="2"/>
<feColorMatrix type="matrix" values="0 0 0 0 0 0 0 0 0 0 0 0 0 0 0 0 0 0 0.25 0"/>
<feBlend mode="normal" in2="BackgroundImageFix" result="effect1_dropShadow"/>
<feBlend mode="normal" in="SourceGraphic" in2="effect1_dropShadow" result="shape"/>
</filter>
<filter id="filter2_d" x="6" y="6" width="27.7817" height="25" filterUnits="userSpaceOnUse" color-interpolation-filters="sRGB">
<feFlood flood-opacity="0" result="BackgroundImageFix"/>
<feColorMatrix in="SourceAlpha" type="matrix" values="0 0 0 0 0 0 0 0 0 0 0 0 0 0 0 0 0 0 127 0"/>
<feOffset dy="4"/>
<feGaussianBlur stdDeviation="2"/>
<feColorMatrix type="matrix" values="0 0 0 0 0 0 0 0 0 0 0 0 0 0 0 0 0 0 0.25 0"/>
<feBlend mode="normal" in2="BackgroundImageFix" result="effect1_dropShadow"/>
<feBlend mode="normal" in="SourceGraphic" in2="effect1_dropShadow" result="shape"/>
</filter>
</defs>
</svg>
