<svg width="101" height="24" viewBox="0 0 101 24" fill="none" xmlns="http://www.w3.org/2000/svg">
<path d="M11.3209 23.9745L11.1359 23.952C10.6433 23.8945 10.1636 23.7556 9.7167 23.5408L9.77684 23.5588C9.88358 23.5903 10.2279 23.6908 10.2504 23.6563C10.2369 23.6278 10.2038 23.6083 9.69114 23.3277L9.5408 23.2496C9.65055 23.2196 9.79788 23.1821 9.90914 23.1566L9.95424 23.1821C10.2294 23.3322 10.506 23.4222 10.4594 23.2916C10.4225 23.2205 10.3713 23.1577 10.3091 23.1071C10.1474 22.9531 9.9509 22.8403 9.73624 22.7784C9.12434 21.995 8.95145 21.3122 8.74999 20.5273C8.70038 20.3097 8.6658 20.014 8.62971 19.7919C8.6658 20.014 8.70639 20.3082 8.74999 20.5273H8.78607C9.2371 20.5798 9.413 20.2121 9.31829 19.8264C9.16794 19.2006 8.41623 18.7504 7.98624 19.025C6.96842 17.8244 6.63315 17.3532 5.9521 16.4272C6.03259 16.3232 6.09004 16.2034 6.12062 16.0756C6.15121 15.9477 6.15424 15.8149 6.1295 15.6858C6.1034 15.4843 6.034 15.2909 5.92606 15.1186C5.81811 14.9464 5.67417 14.7994 5.50407 14.6878C5.66779 13.7395 5.88666 12.8014 6.15957 11.8784H6.1731C6.36404 11.8964 6.48732 11.7164 6.49634 11.5303C6.50686 11.3277 6.38509 11.1176 6.1701 11.1311C5.81545 9.85647 5.59228 8.54902 5.50407 7.22911C6.15957 6.82991 6.90077 6.37669 8.02684 5.76138L8.0539 5.82291C8.47336 6.57329 9.54982 6.17559 9.78736 5.38319C9.78736 5.35618 9.8054 5.31716 9.81141 5.28864C9.97379 4.49325 9.24913 4.001 8.56056 4.43922C8.52899 4.45873 8.4899 4.48724 8.45983 4.50975C7.72315 3.42471 7.60588 2.94897 7.45704 2.34717C8.01881 1.74645 8.62163 1.18532 9.26116 0.667833C9.37391 0.696348 9.58289 0.574786 9.71219 0.445722C9.84148 0.316657 9.8911 0.201101 9.77233 0.204102C9.58593 0.244961 9.4168 0.34248 9.28822 0.483241L9.55884 0.391696L9.28672 0.483241C8.65076 0.703851 8.535 0.742871 8.17267 0.874937L7.88251 0.98149L8.1862 0.877939C8.24634 0.790895 8.42825 0.523762 8.1411 0.577789C7.85394 0.631816 7.25407 0.942471 6.84514 1.36118L6.79101 1.41971C6.06786 1.71986 5.66945 1.89094 4.92676 2.26913C5.27706 1.83542 5.30562 1.8099 6.02577 1.16608C6.18663 1.08204 6.349 0.990494 6.78801 0.724862C7.51266 0.289644 7.62392 0.22211 7.65248 0.183091C7.37998 0.231917 7.12261 0.343417 6.90076 0.508754C6.92482 0.489245 6.95038 0.466733 6.97293 0.450225C7.1687 0.311503 7.37828 0.193317 7.59836 0.0975479L7.8374 0H7.84943L7.78178 0.0240114L7.61339 0.0945469L7.51868 0.136568L7.43448 0.174086C7.39389 0.190595 7.28414 0.237118 7.18792 0.285142H7.1789L7.44651 0.165082C7.23 0.260399 7.02435 0.378635 6.83311 0.517758C6.75944 0.556778 6.5655 0.658829 6.33698 0.798399C6.22532 0.819692 6.11708 0.856043 6.01524 0.906452L5.8649 0.996498C5.97022 0.942987 6.08258 0.904588 6.19866 0.882441L6.16709 0.903451C5.83784 1.12406 5.71606 1.25012 5.77169 1.25763H5.78672C4.84407 2.008 4.84407 2.008 4.41709 2.45823C4.31423 2.5228 4.22066 2.60106 4.13896 2.69085C3.7708 2.84543 3.43092 3.05995 3.13316 3.32566L3.22487 3.21911C3.17525 3.27314 3.12564 3.32716 3.07452 3.38269L2.96026 3.51326L2.85502 3.64082L2.73324 3.79089C2.67611 3.86143 2.62049 3.94097 2.56636 4.007C2.58591 3.97999 2.60696 3.95298 2.628 3.92746L2.6701 3.87194L2.64304 3.90795C2.50833 4.11145 2.38438 4.32185 2.27169 4.53827C2.22057 4.6088 2.17697 4.67334 2.13337 4.74687C2.08977 4.82041 2.06271 4.86693 2.03866 4.91646C1.76052 5.34117 1.41022 5.92346 1.16516 6.36918C1.17418 6.34217 1.17418 6.33767 1.16516 6.33317C1.15614 6.32866 1.16516 6.33317 1.03887 6.61831L1.16215 6.33467L1.20876 6.23262L1.1396 6.37218C1.11104 6.42621 1.07646 6.50125 1.07646 6.50275L1.11705 6.4082C1.08999 6.46823 1.06293 6.52826 1.03737 6.58829L1.01632 6.63632C0.962197 6.76088 0.917095 6.87194 0.890033 6.93647C0.881012 6.95748 0.871992 6.97999 0.864475 7.001L0.843427 7.05503C0.817869 7.11656 0.795315 7.17959 0.77126 7.24262L0.811854 7.13607V7.14807C0.789302 7.2081 0.777276 7.24562 0.768255 7.27714C0.625091 7.6399 0.508518 8.01257 0.419457 8.3922C0.497636 8.12206 0.599869 7.8054 0.76224 7.31015C0.76224 7.31015 0.76224 7.31016 0.787798 7.26964V7.26063C0.526201 8.23161 0.395402 8.72086 0.390892 9.91996C0.0661497 10.7229 0.045102 11.092 0.00601273 11.8274C0.00601273 11.8019 0.00601273 11.7779 0.00601273 11.7524C0.00601273 11.7959 0.00601273 11.8394 0.00601273 11.8814C0.00601273 11.9565 0.00601273 12.0315 0.00601273 12.1036C0.0180402 12.3782 0.039088 12.6513 0.0691567 12.9215V12.965V12.974C0.0691567 12.965 0.0691567 12.9575 0.0691567 12.9485C0.0541224 12.7984 0.0390882 12.6393 0.0270607 12.4592C0.0270607 12.3647 0.00902061 12.1786 0 11.9745C0 11.1686 0.127792 10.8009 0.383376 10.0655C0.457045 11.068 0.497637 11.6203 0.834407 12.7144C0.78954 12.8679 0.786424 13.0305 0.825384 13.1856C0.825384 13.2081 0.834406 13.2306 0.840419 13.2516C0.616408 14.1071 0.616408 14.1071 0.610394 14.952C0.571305 14.8649 0.545746 14.8319 0.535222 14.8514C0.533366 14.8618 0.533366 14.8725 0.535222 14.8829C0.263101 14.092 0.245059 13.9825 0.0766743 12.974C0.085695 13.052 0.0947159 13.1241 0.10524 13.2081C0.207474 13.909 0.227019 13.969 0.54725 14.9835C0.572054 15.1031 0.604698 15.2209 0.644973 15.3362V15.3527C0.681624 15.5505 0.728292 15.7464 0.784793 15.9395L0.73969 15.8194C0.762241 15.8824 0.786296 15.944 0.810351 16.007C0.834406 16.07 0.856958 16.1286 0.881013 16.1886C0.921606 16.2876 0.962197 16.3867 1.00429 16.4887C1.03587 16.5608 1.06744 16.6388 1.10051 16.7064L1.10803 16.7199V16.7304V16.7199C1.43728 17.3937 1.48239 17.4582 2.04617 18.2461C2.24374 18.6155 2.47902 18.9635 2.74828 19.2846C2.91751 19.4949 3.10355 19.6912 3.30455 19.8714C3.61877 20.2376 4.05627 20.7043 4.40657 21.042C4.40657 21.042 4.40657 21.042 4.39755 21.042C4.4799 21.1245 4.5678 21.2012 4.66065 21.2716L4.70274 21.3047L4.57495 21.1921L4.70274 21.3047C4.88316 21.4547 5.13573 21.6408 5.32216 21.7834L5.5146 21.914C5.2951 21.7639 5.01395 21.5433 4.80347 21.3797C4.82452 21.3947 4.83354 21.4007 4.83655 21.3992L4.82753 21.3887C5.41511 21.8178 6.03713 22.1977 6.68728 22.5248C6.74741 22.5623 6.81808 22.6028 6.90227 22.6463C7.02032 22.7659 7.16219 22.8595 7.31872 22.921L7.47808 22.9915C7.31929 22.9303 7.17381 22.8391 7.04961 22.7229C7.1789 22.7874 7.29917 22.8474 7.41494 22.903L7.19544 22.7919H7.21198C7.24772 22.8104 7.28558 22.8245 7.32473 22.8339C7.2645 22.7856 7.19831 22.7453 7.12778 22.7139C7.10938 22.7044 7.09028 22.6964 7.07065 22.6898L7.10523 22.7019C7.33375 22.7784 7.36232 22.7874 7.83891 22.9255C8.9304 23.4267 9.38143 23.6338 10.8578 23.9025C10.8578 23.9025 10.9901 23.928 11.148 23.9445H11.0848C10.8052 23.916 10.6338 23.8934 10.4684 23.8694L10.2203 23.8259L10.1677 23.8154L9.99032 23.7794L9.78285 23.7374C9.16795 23.5891 8.56493 23.3954 7.97873 23.1581C8.53998 23.3977 9.12163 23.5865 9.7167 23.7224L9.64453 23.7074C9.73365 23.7324 9.82397 23.7529 9.91515 23.7689L9.96326 23.7794L9.91665 23.7689L10.2414 23.8319L9.96477 23.7809H9.99333L10.1106 23.8034C10.3797 23.8559 10.5466 23.8814 10.712 23.9055C10.7902 23.916 11.0307 23.949 11.2713 23.973C11.0187 23.9445 10.933 23.934 10.7345 23.9055L10.5376 23.8769L10.6879 23.8979C10.9209 23.928 11.0938 23.946 11.2893 23.964L11.4005 23.976C11.5749 23.994 11.6667 24 11.6757 24C11.5494 23.994 11.4351 23.988 11.3209 23.9745ZM9.99032 23.7794L10.1888 23.8214C10.064 23.7974 9.9377 23.7719 9.79788 23.7419L9.99032 23.7794ZM0.798324 15.4892C0.795033 15.4797 0.790483 15.4706 0.784793 15.4622L0.796821 15.4802C1.25537 16.1121 1.81314 16.5158 2.4055 16.942C2.46632 17.149 2.55482 17.3469 2.6686 17.5303C2.70017 17.5828 2.72122 17.6158 2.7558 17.6653C2.60545 18.1681 2.60545 18.1771 2.60545 18.4397C2.60545 18.5088 2.61898 18.5898 2.628 18.6693C2.61571 18.5933 2.60818 18.5167 2.60545 18.4397C2.24613 18.003 2.00408 17.8004 1.95447 17.8874C1.35309 16.8819 1.33204 16.8369 0.811854 15.6048C0.807629 15.5669 0.801103 15.5293 0.792311 15.4922L0.798324 15.4892ZM1.12006 13.1091C1.11629 13.0681 1.10976 13.0275 1.10051 12.9875L1.03436 13.091L1.10051 12.9875C1.57861 12.2956 1.87629 12.0165 2.52878 11.4027L2.5393 11.4342C2.58424 11.5669 2.66548 11.6844 2.77384 11.7734C2.50923 13.6133 2.50171 14.5348 2.73625 16.2546C2.68691 16.2284 2.63065 16.2181 2.57519 16.2251C2.51974 16.2321 2.46781 16.256 2.42654 16.2936L2.91516 17.074L2.42654 16.2936C1.88152 15.3689 1.44275 14.3857 1.11856 13.3627C1.1295 13.2785 1.13 13.1933 1.12006 13.1091ZM2.43857 4.43322C2.90838 3.88223 3.42278 3.37076 3.97658 2.90395C3.97658 2.95348 4.04574 2.90395 4.07882 2.87994C4.07882 2.87994 4.08934 2.86943 4.09385 2.86493C3.93298 3.2101 3.93148 3.22211 3.8067 3.84492C3.71755 3.93708 3.6375 4.0376 3.56765 4.14507C3.16366 4.23809 2.76871 4.36665 2.38745 4.52926L2.34085 4.55177L2.43857 4.43322ZM5.94909 3.63031L5.84084 3.96948C5.80175 4.08654 5.76417 4.2051 5.73109 4.30565L5.84084 3.96948L5.9521 3.63182C6.29488 2.78689 6.31443 2.75388 6.85416 1.89845C7.01487 1.8553 7.16728 1.78583 7.30519 1.69285C7.31783 1.68538 7.32903 1.67573 7.33826 1.66433V1.67484C7.3285 1.90951 7.33301 2.14456 7.3518 2.37869C7.01202 2.75388 6.56851 3.26413 6.24226 3.65283C6.15123 3.61138 6.04845 3.60341 5.9521 3.63031H5.94909ZM5.37779 7.15408C5.10115 7.33267 4.73281 7.56978 4.45919 7.75438C4.44735 7.70684 4.42609 7.66217 4.39665 7.62298C4.36721 7.5838 4.3302 7.55091 4.2878 7.52626C4.25472 7.62081 4.21563 7.73937 4.17804 7.84742L4.2878 7.52626C4.53161 6.83959 4.81627 6.16807 5.14024 5.51526H5.16881C5.25229 5.5217 5.33621 5.51097 5.41537 5.48374L5.50858 4.8099L5.41838 5.48224C5.36876 6.02101 5.36876 6.02101 5.38079 7.15408H5.37779ZM5.9957 18.6933L6.30691 18.8269L5.9957 18.6933C4.81851 18.1801 4.43664 17.985 3.6759 17.5948C3.65134 17.5047 3.62173 17.416 3.5872 17.3292C3.53973 17.2121 3.48448 17.0982 3.42182 16.9885L3.29854 17.1086L3.42182 16.9885C3.83794 16.633 4.28412 16.3141 4.75536 16.0355L4.77341 16.0655C5.05004 16.4902 5.36275 16.5773 5.48453 16.5953H5.51009C5.68559 17.2318 5.90049 17.8568 6.15356 18.4667C6.10384 18.4773 6.05995 18.5061 6.03067 18.5476C6.0014 18.5891 5.9889 18.6401 5.9957 18.6903V18.6933ZM5.48002 20.2136C5.45446 20.1791 5.43341 20.1551 5.42139 20.1416L5.37779 20.2226L5.42139 20.1416C5.62886 19.7694 5.84385 19.5593 6.23474 19.1796L6.24677 19.1901C6.30207 19.2443 6.36484 19.2903 6.4332 19.3267C6.70832 20.2781 6.82259 20.6773 7.42546 21.6108C6.53693 21.0495 6.38809 20.943 5.5612 20.3577C5.54109 20.3061 5.51376 20.2576 5.48002 20.2136ZM3.18578 19.2411L3.03544 19.0325C2.92418 18.8749 2.80842 18.7189 2.69115 18.5688C2.69866 18.6303 2.70318 18.7039 2.71069 18.7759C2.70167 18.7039 2.69265 18.6258 2.69115 18.5688C2.73024 18.1186 2.73775 18.0345 2.83397 17.8004L2.86104 17.8334C3.16172 18.1906 3.45038 18.3542 3.61275 18.2506C3.43685 17.9925 3.1963 17.6503 3.02942 17.3877L2.93621 17.5798C2.964 17.5142 2.99511 17.4501 3.02942 17.3877C3.1963 17.6503 3.43685 17.988 3.61275 18.2491C4.04823 18.8495 4.52178 19.4215 5.03049 19.9615C5.02707 19.9973 5.0344 20.0334 5.05154 20.065L5.17181 20.1101L5.05154 20.065C4.41287 19.8335 3.79098 19.5582 3.19029 19.2411H3.18578ZM6.11597 19.034L6.13251 19.058C5.80707 19.3361 5.52841 19.6644 5.30713 20.0305C5.24574 19.9656 5.16188 19.9264 5.07259 19.921L5.25901 20.1191L5.07259 19.921C4.57066 19.3791 4.10413 18.8057 3.6759 18.2041C3.69845 18.1681 3.77062 18.0615 3.72401 17.7704C3.72223 17.7572 3.71972 17.7442 3.71649 17.7314C4.61855 18.1966 5.01095 18.3752 6.02577 18.8209C6.04625 18.8964 6.07819 18.9682 6.12048 19.034H6.11597ZM6.349 18.6753C6.38058 18.7474 6.41064 18.8254 6.43771 18.8824L6.349 18.6753ZM4.66065 15.8434C4.66065 15.8584 4.67267 15.8719 4.68019 15.8869C4.20584 16.1661 3.75708 16.4865 3.33913 16.8444C3.20973 16.6319 3.03713 16.4489 2.83247 16.3072C2.57839 14.5153 2.61598 13.7018 2.87306 11.8319H2.8881C2.9495 11.851 3.01485 11.8537 3.07762 11.8397C3.1404 11.8258 3.19842 11.7957 3.24592 11.7524L3.26245 11.7389C3.2384 11.6653 3.20983 11.5888 3.18127 11.5002L3.26245 11.7389C3.66044 12.7882 4.15098 13.8002 4.7283 14.7629C4.47121 15.075 4.52534 15.5253 4.66065 15.8434ZM2.64905 10.2591L2.79939 10.4932C2.85202 10.5758 2.90614 10.6583 2.94974 10.7274L2.79939 10.4932L2.64905 10.2591C2.37632 9.83002 2.14141 9.3781 1.94695 8.90845C2.07655 8.66267 2.17744 8.40284 2.24763 8.13407C2.32244 7.86317 2.36136 7.58365 2.3634 7.30265C3.12617 6.52928 3.94801 5.81627 4.82151 5.17008V5.1986C4.83199 5.26122 4.85796 5.32024 4.89708 5.37029C4.9362 5.42035 4.98723 5.45986 5.04553 5.48524C4.71748 6.13687 4.42979 6.80796 4.18406 7.49475C3.90743 7.48124 3.58269 7.85042 3.58269 8.34717C3.58193 8.47714 3.6284 8.60297 3.71348 8.70135C3.55111 9.09305 3.35566 9.62281 3.20983 10.0205C3.01439 9.92746 2.80992 10.0145 2.64905 10.2591ZM3.77663 4.2006V4.10305V4.2006ZM3.4579 4.71986C3.60824 4.74987 3.84729 4.53377 4.01718 4.30565L4.03221 4.28614C4.54488 4.4092 4.57495 4.41671 4.97486 4.49625C4.92261 4.59136 4.88125 4.69204 4.85158 4.7964C4.82687 4.88129 4.81372 4.96913 4.81249 5.05753C3.93734 5.69678 3.11438 6.40436 2.35137 7.17359C2.35038 7.02694 2.30477 6.88406 2.22057 6.76388C2.68814 5.85593 2.74677 5.76888 3.44737 4.71386L3.4579 4.71986ZM6.88723 1.75888L7.11125 1.46773L6.88723 1.75888ZM7.4435 1.21561C7.43298 1.24412 7.42396 1.27714 7.41494 1.30865V1.28464C7.42291 1.25956 7.43245 1.235 7.4435 1.21111V1.21561ZM6.59256 1.84592C6.60308 1.86543 6.63015 1.91946 6.7429 1.91646H6.76095C6.27534 2.65483 6.24978 2.71186 5.83784 3.66783C5.5109 3.8145 5.23584 4.05613 5.04853 4.36118L5.33419 4.41521L5.04853 4.36118C4.4667 4.23962 4.41859 4.23062 4.1149 4.15408C4.1974 4.03072 4.25368 3.89179 4.28028 3.74587L4.09987 3.92296L3.91795 4.10155L4.09987 3.92296L4.28028 3.74587C5.00556 3.06075 5.77441 2.4231 6.58204 1.83692L6.59256 1.84592ZM3.90893 3.75938C3.96005 3.38869 3.96456 3.37819 4.19909 2.78839C4.2442 2.74637 4.28028 2.71036 4.29832 2.69085L4.34793 2.63832L4.75687 2.41321C4.43062 2.84242 4.42311 2.86343 3.97959 3.70385C3.93599 3.73087 3.90893 3.75488 3.90893 3.75488V3.75938ZM2.28372 4.69435L2.29274 4.68084C2.67673 4.51611 3.07472 4.38603 3.48196 4.29215L3.47293 4.30865C3.3707 4.51876 3.37822 4.62381 3.40378 4.67484C2.82044 5.51676 2.78436 5.58429 2.17096 6.72036C1.93041 6.57028 1.63574 6.96948 1.63423 6.97399C1.73196 6.14557 1.78458 5.73136 2.15442 4.87294C2.17246 4.85343 2.21907 4.79039 2.28372 4.69285V4.69435ZM1.59965 8.22711C1.49742 8.61281 1.3576 9.12756 1.27341 9.51776H1.29446C1.51396 9.53127 1.71692 9.28514 1.84923 9.07654C1.85674 9.06453 1.86576 9.04802 1.87328 9.03752C2.07474 9.52226 2.10331 9.57028 2.57689 10.3882C2.47827 10.6226 2.44302 10.8788 2.47465 11.1311C2.47465 11.1626 2.48217 11.1911 2.48969 11.2331C1.94528 11.6989 1.46412 12.2337 1.05842 12.8239C1.0465 12.7898 1.03088 12.7571 1.01181 12.7264C0.969715 11.3562 1.07646 10.7003 1.27341 9.51025C1.34708 9.12456 1.49742 8.61131 1.59965 8.22561V8.22711ZM3.29403 19.4017C3.28501 19.3882 3.27448 19.3762 3.26546 19.3642C3.86718 19.6783 4.49011 19.9501 5.12972 20.1776C5.18169 20.2479 5.24287 20.311 5.31164 20.3652C5.59578 21.0555 5.60029 21.069 5.87693 21.4592C5.57624 21.2971 5.57624 21.3887 5.59127 21.4217C5.60631 21.4547 5.59127 21.4397 6.0423 21.7219L5.59127 21.4352C4.86307 20.9429 4.17258 20.3971 3.52555 19.8024C3.45524 19.6645 3.37796 19.5303 3.29403 19.4002V19.4017ZM6.51438 21.9065C6.34805 21.7696 6.17331 21.6433 5.99119 21.5283C6.04681 21.5943 6.11297 21.6783 6.17611 21.7534L5.99119 21.5283C5.61984 20.9445 5.56271 20.8544 5.4274 20.4432H5.43792C5.53715 20.4897 5.56872 20.4642 5.57774 20.4357L5.37779 20.2856L5.57774 20.4357C6.4798 21.0735 6.73839 21.2341 7.50214 21.7129C8.05089 22.3792 8.08247 22.4182 8.54101 22.7904L8.86125 23.014C8.74698 22.939 8.63272 22.8639 8.54101 22.7904C8.30648 22.7334 8.34256 22.8189 8.3591 22.8474C8.37988 22.8851 8.4127 22.9146 8.45231 22.9315L8.42224 22.9195C7.75021 22.6298 7.6615 22.5863 6.80906 22.1691C6.71539 22.0761 6.61704 21.9879 6.51438 21.905V21.9065ZM9.43105 23.1896C9.17341 23.0435 8.90383 22.9195 8.62521 22.8189C8.74698 22.903 8.89282 23.008 9.03564 23.1041C8.89343 23.017 8.75639 22.9218 8.62521 22.8189C7.98775 22.2516 7.96369 22.2291 7.63594 21.7969C8.46584 22.2936 9.02662 22.5863 9.62048 22.8969C9.67244 22.9748 9.73939 23.0417 9.81743 23.0935C9.70166 23.1191 9.54681 23.1581 9.43105 23.1881V23.1896ZM9.67611 22.7754C9.62349 22.7754 9.59793 22.8039 9.60244 22.8459L9.85351 22.975L9.60244 22.8459C8.73646 22.3957 8.19221 22.07 7.56077 21.6933C7.1368 21.0075 6.8301 20.5138 6.55648 19.3702H6.57452C6.60432 19.3777 6.63547 19.3782 6.66548 19.3715C6.69549 19.3649 6.72353 19.3513 6.74735 19.3319C6.77117 19.3125 6.79011 19.2878 6.80265 19.2598C6.81519 19.2318 6.82099 19.2012 6.81958 19.1706C6.82033 19.1641 6.82033 19.1576 6.81958 19.1511C7.12027 19.2681 7.50966 19.4212 7.80433 19.5368C7.83572 19.7038 7.90516 19.8615 8.00729 19.9975C8.1651 20.2218 8.3866 20.3938 8.64324 20.4912C8.93792 21.7414 9.26116 22.1976 9.67611 22.7739V22.7754ZM7.91709 19.0955C7.83885 19.1847 7.79652 19.2997 7.79832 19.4182L8.39969 19.6463L7.79832 19.4182C7.49763 19.3042 7.10222 19.1466 6.80454 19.0295C6.80454 19.0115 6.79252 18.986 6.78199 18.9545C6.73921 18.8397 6.67039 18.7363 6.58093 18.6525C6.49147 18.5686 6.38379 18.5066 6.26631 18.4712C6.01624 17.8605 5.80386 17.235 5.63036 16.5983H5.64389C5.71912 16.5887 5.79114 16.562 5.85438 16.5203L5.86941 16.5098C6.65721 17.5873 6.98346 17.9865 7.91709 19.094V19.0955ZM5.46047 15.914L5.6018 16.1196L5.46047 15.914ZM5.3838 14.6293C5.29338 14.5886 5.19397 14.5719 5.09519 14.5809C4.99642 14.5898 4.90163 14.6241 4.82001 14.6803C4.15249 13.4977 3.86232 12.965 3.35416 11.6458C3.45716 11.5011 3.52556 11.3348 3.55412 11.1596C3.55412 11.1476 3.55412 11.1326 3.55412 11.1221C4.42311 11.2976 5.11168 11.4147 5.9085 11.5513C5.9085 11.5693 5.9085 11.5858 5.91601 11.6038C5.93171 11.6838 5.97158 11.7572 6.03028 11.8139C5.759 12.7372 5.54313 13.6758 5.3838 14.6248V14.6293ZM5.10717 15.1456L4.9463 14.8844L5.10717 15.1456ZM3.14218 11.0335L3.29252 11.0665L3.14218 11.0335ZM6.27233 11.4837L6.20919 11.2496C6.23174 11.3232 6.25429 11.4087 6.27233 11.4732V11.4837ZM6.04531 11.2001C5.99026 11.2463 5.95044 11.308 5.93105 11.3772C4.817 11.1911 4.24269 11.077 3.57818 10.9495C3.5872 10.7334 3.56314 10.3372 3.30756 10.0925C3.2399 10.3162 3.14819 10.6148 3.07903 10.8429L3.30756 10.0925C3.44738 9.69335 3.65335 9.16658 3.8082 8.77188L3.83225 8.78089C4.11189 8.85593 4.38702 8.53477 4.4667 8.18059C4.48912 8.0873 4.49673 7.99109 4.48926 7.89545L4.38402 7.96898L4.48926 7.89545C4.75837 7.71836 5.11619 7.48124 5.39132 7.30865C5.48002 8.90245 5.74312 9.97249 6.04531 11.1941V11.2001ZM5.50558 7.08204C5.50558 6.5898 5.5131 5.93397 5.54166 5.44322C5.82113 5.29329 6.0529 5.06816 6.21069 4.7934L6.22723 4.76488C7.00901 4.93747 7.20596 4.97649 8.03135 5.13857L8.68985 5.26163L8.03135 5.13857C7.99701 5.24577 7.97977 5.35769 7.98023 5.47023C7.98037 5.52616 7.98591 5.58195 7.99677 5.63682C7.08268 6.13957 6.4783 6.47574 5.50558 7.07604V7.08204ZM8.51245 5.50775L8.92288 5.28714L8.51245 5.50775ZM8.3621 4.61631C8.25129 4.72656 8.16026 4.85499 8.09299 4.996C7.19093 4.81891 7.01653 4.78289 6.3039 4.62681C6.3039 4.61631 6.31593 4.6013 6.32194 4.58929C6.36554 4.48724 6.57452 3.96348 6.30691 3.70385L5.92955 4.1991C6.05734 4.02651 6.19114 3.84792 6.30691 3.70385C6.61812 3.32716 7.03908 2.83342 7.35931 2.47023C7.5292 3.32266 7.91258 3.91996 8.35609 4.6103L8.3621 4.61631ZM9.53478 0.42171L9.54982 0.435217L9.53478 0.42171ZM9.25214 0.571786C9.24546 0.582967 9.2412 0.595424 9.23965 0.608349C9.2381 0.621275 9.23928 0.634382 9.24312 0.646823C8.61241 1.14584 8.01712 1.68791 7.46155 2.26913C7.44802 2.04673 7.44802 1.82371 7.46155 1.6013C7.61757 1.488 7.76437 1.36255 7.90055 1.22611C7.98414 1.14362 8.06295 1.05644 8.13659 0.964983L7.86747 1.06553L8.13659 0.964983C8.84471 0.697849 8.84471 0.697848 9.24612 0.558278L9.25214 0.571786ZM7.40893 1.16908L7.10824 1.28614L7.40893 1.16908ZM6.71885 1.50375L6.70381 1.52476C6.64352 1.5969 6.60402 1.68405 6.58955 1.77689C5.77731 2.35544 5.00482 2.98767 4.27727 3.66933C4.23668 3.54327 4.07431 3.64082 4.0728 3.64232C4.29381 3.16508 4.30433 3.15007 4.83956 2.36668C5.41988 2.07404 5.80175 1.88494 6.71133 1.50375H6.71885ZM4.47723 2.43422C5.34772 1.6088 5.35223 1.6043 5.83032 1.24862C5.85835 1.24357 5.88563 1.23499 5.9115 1.22311C5.49205 1.56828 5.46047 1.6088 4.83805 2.30815L4.42762 2.52726C4.4652 2.47324 4.47723 2.44322 4.4637 2.43422L4.31335 2.58429L4.47723 2.43422ZM2.73775 3.7984C2.77384 3.75338 2.83999 3.67234 2.93771 3.55528L3.03694 3.43972C3.35867 3.13957 3.56013 3.04202 4.04725 2.7959L4.0247 2.82741C3.47187 3.28941 2.95889 3.79695 2.49119 4.34467C2.49119 4.32966 2.50773 4.29215 2.48067 4.30715C2.4388 4.3412 2.40051 4.37942 2.3664 4.42121C2.45661 4.22911 2.61147 3.98149 2.73024 3.7984H2.73775ZM2.0146 4.999C2.0146 4.999 2.0146 5.03352 2.05219 4.999L2.07925 4.97349C2.07925 4.97349 2.07925 4.96448 2.08677 4.96148C1.78608 5.73887 1.63574 6.12906 1.56508 7.07003C1.56508 7.1991 1.56508 7.34917 1.56508 7.49925C1.56508 7.34917 1.56508 7.1991 1.56508 7.07003C1.44896 7.24037 1.35119 7.42247 1.27341 7.61331L1.43578 7.78139C1.37715 7.72436 1.31851 7.66583 1.27341 7.61331C1.06594 7.31316 0.960695 7.16308 0.972722 6.86293L0.981743 6.84342C1.01783 6.75338 1.08849 6.58079 1.13209 6.44122L1.05691 6.6018L1.13209 6.44122C1.37865 6.006 1.72895 5.42221 2.00708 4.996L2.0146 4.999ZM0.841922 7.18859C0.864474 7.14057 0.885523 7.09104 0.906571 7.03852C0.910649 7.02845 0.913184 7.01783 0.914089 7.007V7.02801C0.91236 7.30773 1.02027 7.57703 1.21478 7.77839C1.2689 7.83392 1.33204 7.89995 1.39669 7.96448C1.33054 7.90145 1.26589 7.83692 1.21478 7.77839C1.13499 7.99634 1.07659 8.22151 1.04038 8.45072C1.02038 8.57484 1.00933 8.70022 1.0073 8.82591C0.826889 9.12606 0.607388 9.52676 0.45103 9.83592C0.476589 8.78389 0.494631 8.30515 0.834407 7.18559L0.841922 7.18859ZM0.448023 9.98299C0.598366 9.67084 0.826888 9.26713 1.00429 8.96848V9.01801C1.03136 9.27164 1.096 9.41871 1.21327 9.49525C0.953176 10.8069 0.951674 11.4687 0.948667 12.6693C0.941455 12.6656 0.933467 12.6637 0.925364 12.6637C0.91726 12.6637 0.909273 12.6656 0.902061 12.6693C0.628436 11.6563 0.479595 11.0995 0.440505 9.97999L0.448023 9.98299ZM0.947164 13.0265L0.972722 13.0985L0.947164 13.0265ZM0.914089 13.4122L0.923109 13.4287C1.01031 13.5788 1.07345 13.5188 1.08849 13.4857C1.51696 14.7809 1.80863 15.3122 2.38896 16.3702C2.3388 16.5121 2.33199 16.6656 2.36941 16.8114L2.87006 17.1356L2.36941 16.8114C1.41924 16.1586 1.11254 15.7789 0.75773 15.3392L0.73969 15.2806C0.727662 15.2401 0.708117 15.1801 0.682558 15.1096L0.694586 15.2476L0.682558 15.1096C0.681055 14.2811 0.681056 14.2811 0.906571 13.4092L0.914089 13.4122ZM1.08247 16.6253C1.06443 16.5818 1.01933 16.4752 0.95468 16.3252L0.864475 16.1031C0.808848 15.932 0.762241 15.6963 0.723152 15.5193V15.5283C0.772765 15.6423 0.795316 15.6573 0.802834 15.6573C0.772765 15.5778 0.733675 15.4697 0.703606 15.3887L0.802834 15.6573C1.24484 16.7349 1.28544 16.8024 1.94845 17.9355C1.95839 18.0156 1.98124 18.0937 2.01611 18.1666C1.53501 17.5078 1.51696 17.4762 1.07495 16.6223L1.08247 16.6253ZM2.81593 19.1271C2.87306 19.1886 2.93621 19.2546 3.00236 19.3222C2.99033 19.3102 2.9768 19.2997 2.96628 19.2876C2.91817 19.2411 2.86104 19.1751 2.81593 19.1271C2.98582 19.3747 3.20833 19.7079 3.39325 19.945C3.20231 19.7109 2.98582 19.3717 2.81593 19.1271ZM3.39325 19.945L3.4143 19.9615C3.46542 19.999 3.61726 20.1116 3.59471 19.975C3.58846 19.9506 3.58093 19.9266 3.57216 19.903C3.56705 19.8943 3.56253 19.8852 3.55863 19.8759C4.20793 20.4695 4.9004 21.0143 5.63036 21.5058C5.69423 21.5851 5.76573 21.658 5.84385 21.7234L6.09342 21.8029L5.84385 21.7234C5.42409 21.5947 5.01778 21.4258 4.63058 21.2191L4.59299 21.1966L4.63058 21.2191C4.58397 21.1801 4.53586 21.1426 4.48775 21.1051C4.14948 20.7779 3.70897 20.3052 3.39325 19.942V19.945ZM6.63466 22.4872C5.98436 22.1562 5.36281 21.7717 4.77641 21.3377L4.76288 21.3257H4.75386H4.76138C5.14535 21.5291 5.54814 21.6949 5.96413 21.8209C6.00923 21.8554 6.0844 21.9155 6.2137 22.001L6.32946 22.076C6.47463 22.24 6.62924 22.3953 6.79252 22.5413C6.73779 22.5059 6.67722 22.4805 6.61361 22.4662C6.61361 22.4767 6.61361 22.4767 6.88573 22.6163L6.63466 22.4872ZM6.99247 22.6373L6.9594 22.6268L6.99247 22.6373L6.93234 22.6058C6.76692 22.4649 6.6098 22.3146 6.46176 22.1556L6.49183 22.1721C6.6012 22.236 6.7165 22.2893 6.83612 22.3312C7.10373 22.4962 7.45854 22.7244 7.73818 22.8759C7.46155 22.7934 7.46155 22.7934 6.99247 22.6403V22.6373ZM7.80132 22.8864C7.52619 22.7244 7.15635 22.5128 6.89024 22.3357H6.89776C6.92632 22.3357 6.95489 22.3237 6.87972 22.2351L6.86919 22.2246C7.5307 22.5578 7.65699 22.6118 8.48238 22.975C8.5612 23.0326 8.64355 23.0852 8.72894 23.1326L9.10931 23.2226L8.72894 23.1326C8.33655 23.029 8.32452 23.029 7.80132 22.8894V22.8864ZM7.93513 22.957C8.28092 23.05 8.36812 23.071 8.83719 23.1881C8.98648 23.2638 9.13952 23.332 9.29574 23.3922C9.39045 23.4282 9.46412 23.4567 9.5874 23.4972C10.0865 23.7524 10.3707 23.8079 10.9961 23.931L10.9134 23.9205C9.73324 23.6848 9.23861 23.5873 7.93513 22.96V22.957Z" fill="white"/>
<path d="M13.8215 17.8467C13.773 17.942 13.6986 18.022 13.6068 18.078C13.515 18.1339 13.4093 18.1635 13.3015 18.1635C13.1937 18.1635 13.0879 18.1339 12.9961 18.078C12.9043 18.022 12.83 17.942 12.7814 17.8467L7.79276 7.88997C7.78683 7.87906 7.78388 7.86681 7.7842 7.85442C7.78453 7.84204 7.78812 7.82995 7.79462 7.81936C7.80111 7.80877 7.81029 7.80005 7.82124 7.79405C7.83219 7.78805 7.84454 7.78499 7.85706 7.78516H10.0053C10.1187 7.78593 10.2294 7.81923 10.3241 7.88101C10.4187 7.9428 10.4933 8.03042 10.5386 8.13327L12.6869 13.0555C12.7912 13.2919 12.8809 13.5344 12.9554 13.7816C13.0613 14.1073 13.1672 14.4928 13.2807 14.942C13.3513 14.6276 13.4383 14.3132 13.5416 13.9988C13.6493 13.6774 13.7756 13.3625 13.9199 13.0555L16.0681 8.13327C16.1127 8.02985 16.187 7.9417 16.2818 7.87979C16.3767 7.81789 16.4878 7.78498 16.6014 7.78516H18.7383C18.7508 7.78499 18.7632 7.78805 18.7741 7.79405C18.7851 7.80005 18.7943 7.80877 18.8008 7.81936C18.8073 7.82995 18.8109 7.84204 18.8112 7.85442C18.8115 7.86681 18.8086 7.87906 18.8026 7.88997L13.8215 17.8467Z" fill="white"/>
<path d="M20.1084 12.634C20.1055 11.9052 20.2558 11.1833 20.5504 10.5124C20.8449 9.84146 21.2775 9.23544 21.8219 8.73116C22.3603 8.22151 22.9981 7.8204 23.6983 7.55114C25.1382 7.00379 26.7391 7.00379 28.179 7.55114C28.8883 7.82892 29.5328 8.24138 30.0743 8.76414C30.6193 9.26829 31.0526 9.87422 31.348 10.5452C31.6387 11.2056 31.787 11.9163 31.784 12.634C31.7889 13.3642 31.6433 14.088 31.3556 14.7632C31.0654 15.4279 30.6371 16.0278 30.0971 16.5258C29.5377 17.0501 28.8804 17.4667 28.16 17.7535C26.7315 18.3057 25.1381 18.3057 23.7097 17.7535C22.2902 17.1863 21.155 16.1073 20.5444 14.7448C20.2546 14.0764 20.1064 13.3587 20.1084 12.634ZM29.2252 12.656C29.2472 11.7605 28.9057 10.8923 28.2737 10.2373C27.9786 9.92561 27.6196 9.67667 27.2195 9.50636C26.8195 9.33606 26.3871 9.24811 25.95 9.24811C25.5129 9.24811 25.0805 9.33606 24.6805 9.50636C24.2804 9.67667 23.9214 9.92561 23.6263 10.2373C23.0111 10.9019 22.671 11.7624 22.671 12.6542C22.671 13.546 23.0111 14.4064 23.6263 15.071C23.9207 15.3825 24.2791 15.6313 24.6785 15.8016C25.0779 15.9718 25.5097 16.0597 25.9462 16.0597C26.3827 16.0597 26.8145 15.9718 27.2139 15.8016C27.6133 15.6313 27.9717 15.3825 28.2661 15.071C28.9028 14.4198 29.2475 13.5518 29.2252 12.656Z" fill="white"/>
<path d="M45.4063 12.634C45.4021 11.9036 45.5531 11.1802 45.8498 10.5085C46.1452 9.83955 46.5771 9.23504 47.1197 8.73116C47.6581 8.22151 48.296 7.8204 48.9961 7.55114C50.436 7.00379 52.0369 7.00379 53.4768 7.55114C54.1861 7.82892 54.8306 8.24138 55.3721 8.76414C55.9139 9.2632 56.3449 9.86369 56.6388 10.529C56.9327 11.1943 57.0834 11.9105 57.0817 12.634C57.0881 13.3643 56.9424 14.0884 56.6534 14.7632C56.3632 15.4279 55.9348 16.0278 55.3949 16.5258C54.8355 17.0501 54.1782 17.4667 53.4578 17.7535C52.0294 18.3057 50.436 18.3057 49.0075 17.7535C47.5895 17.1881 46.4545 16.1118 45.8423 14.7522C45.5515 14.0815 45.4033 13.3612 45.4063 12.634ZM54.523 12.656C54.545 11.7605 54.2035 10.8923 53.5715 10.2373C53.2764 9.92561 52.9174 9.67667 52.5173 9.50636C52.1173 9.33606 51.6849 9.24811 51.2478 9.24811C50.8107 9.24811 50.3784 9.33606 49.9783 9.50636C49.5783 9.67667 49.2192 9.92561 48.9241 10.2373C48.309 10.9019 47.9689 11.7624 47.9689 12.6542C47.9689 13.546 48.309 14.4064 48.9241 15.071C49.2189 15.3826 49.5776 15.6315 49.9773 15.8018C50.3771 15.972 50.8091 16.06 51.2459 16.06C51.6827 16.06 52.1148 15.972 52.5145 15.8018C52.9143 15.6315 53.2729 15.3826 53.5677 15.071C54.2016 14.4183 54.5446 13.551 54.523 12.656Z" fill="white"/>
<path d="M60.9727 18.0952V7.58497C60.9736 7.56608 60.9816 7.5482 60.9951 7.53482C61.0086 7.52144 61.0267 7.51352 61.0458 7.51259H63.2004C63.2198 7.51259 63.2384 7.52021 63.2521 7.53379C63.2658 7.54736 63.2735 7.56578 63.2735 7.58497V9.2573C63.7014 8.58022 64.3011 8.02596 65.0127 7.64973C65.7695 7.29129 66.602 7.11756 67.4405 7.14308C68.1424 7.12518 68.8401 7.25503 69.4875 7.52402C70.0312 7.75705 70.4922 8.14575 70.811 8.64018C71.0087 8.9544 71.1469 9.30165 71.2189 9.66491C71.3243 10.3415 71.3668 11.0263 71.3459 11.7106V18.0952C71.3459 18.1144 71.3382 18.1328 71.3244 18.1463C71.3107 18.1599 71.2921 18.1675 71.2728 18.1675H68.9334C68.9236 18.1681 68.9139 18.1666 68.9048 18.1632C68.8956 18.1597 68.8874 18.1544 68.8805 18.1476C68.8736 18.1407 68.8682 18.1325 68.8647 18.1235C68.8612 18.1145 68.8597 18.1048 68.8603 18.0952V12.6934C68.8603 11.2954 68.6871 10.362 68.3409 9.9011C67.9946 9.44016 67.3867 9.21159 66.5094 9.21159C65.9789 9.20107 65.4528 9.30915 64.9703 9.52778C64.5397 9.71978 64.1718 10.0272 63.9084 10.4154C63.7076 10.7104 63.5761 11.0463 63.5236 11.3982C63.4369 12.0293 63.4008 12.6662 63.4159 13.3029V18.0952C63.4159 18.1144 63.4082 18.1328 63.3945 18.1463C63.3808 18.1599 63.3622 18.1675 63.3428 18.1675H61.0342C61.0169 18.1648 61.0011 18.156 60.9898 18.1427C60.9785 18.1294 60.9724 18.1125 60.9727 18.0952Z" fill="white"/>
<path d="M77.9246 7.00469C78.026 6.92088 78.1107 6.82678 78.1762 6.72524C78.258 6.63281 78.3231 6.53285 78.3698 6.42789C78.4384 6.28248 78.4775 6.13037 78.486 5.97648C78.4926 5.78695 78.4471 5.5984 78.3522 5.42231C78.2572 5.24622 78.1149 5.08627 77.9338 4.9522C77.7527 4.81814 77.5366 4.71276 77.2987 4.64248C77.0608 4.57221 76.8061 4.53851 76.5501 4.54344C76.2943 4.54147 76.0406 4.57791 75.8043 4.65058C75.5681 4.72324 75.3542 4.8306 75.1756 4.96618C74.9901 5.09523 74.8428 5.2513 74.7429 5.42456C74.6429 5.59782 74.5925 5.78451 74.5948 5.97289C74.6071 6.3501 74.815 6.70934 75.1754 6.97614C75.5358 7.24294 76.0211 7.39684 76.5307 7.40594C77.9827 7.95766 74.9917 8.87838 74.9917 11.6477V18.0964C74.991 18.1055 74.9928 18.1146 74.9972 18.1231C75.0016 18.1316 75.0083 18.1393 75.017 18.1457C75.0257 18.1521 75.0361 18.1571 75.0476 18.1604C75.0591 18.1636 75.0714 18.165 75.0836 18.1645H77.9875C78.0119 18.1645 78.0353 18.1573 78.0525 18.1446C78.0698 18.1318 78.0794 18.1145 78.0794 18.0964V9.75971C78.0794 9.16858 77.3777 8.81389 77.3777 8.00781C77.3777 7.20172 77.6584 7.21606 77.9246 7.00469Z" fill="white"/>
<path d="M89.5144 10.2474C89.515 10.2612 89.5111 10.2749 89.5034 10.2864C89.4958 10.298 89.4846 10.3068 89.4716 10.3117C89.4586 10.3166 89.4444 10.3172 89.431 10.3136C89.4177 10.3099 89.4058 10.3021 89.3971 10.2913C89.0695 9.95919 88.681 9.69304 88.2528 9.50739C87.763 9.29724 87.2347 9.1912 86.7016 9.19601C86.2731 9.17679 85.8455 9.24958 85.4475 9.40946C85.0496 9.56934 84.6906 9.8126 84.3948 10.1228C83.8322 10.8308 83.526 11.7081 83.526 12.612C83.526 13.5159 83.8322 14.3932 84.3948 15.1012C84.7095 15.4131 85.0863 15.6554 85.5007 15.8126C85.9151 15.9697 86.358 16.0381 86.8006 16.0134C87.3266 16.0226 87.848 15.9137 88.3262 15.6947C88.7332 15.4984 89.0943 15.2188 89.3861 14.8741C89.3954 14.8639 89.4075 14.8568 89.4209 14.8535C89.4343 14.8502 89.4483 14.851 89.4613 14.8557C89.4742 14.8604 89.4855 14.8688 89.4937 14.8799C89.5018 14.891 89.5065 14.9043 89.5071 14.9181V17.3871C89.5073 17.3999 89.5039 17.4124 89.4975 17.4234C89.491 17.4344 89.4816 17.4434 89.4704 17.4494C89.0447 17.6852 88.5897 17.8638 88.1172 17.9806C87.6011 18.1064 87.0714 18.168 86.5402 18.1637C85.8144 18.1917 85.0907 18.0698 84.4143 17.8057C83.7378 17.5416 83.1232 17.141 82.6088 16.6288C82.0988 16.1038 81.7009 15.4808 81.4393 14.7976C81.1777 14.1143 81.0578 13.3851 81.0868 12.6542C81.0553 11.9154 81.1793 11.1783 81.451 10.4905C81.7226 9.80263 82.1358 9.17942 82.6638 8.66117C83.7127 7.64766 85.0843 7.14091 86.7786 7.14091C87.272 7.13625 87.7643 7.18911 88.2455 7.29843C88.6711 7.39438 89.0809 7.54977 89.4631 7.76C89.4753 7.76515 89.4856 7.77383 89.4928 7.78493C89.5 7.79604 89.5037 7.80905 89.5034 7.82227L89.5144 10.2474Z" fill="white"/>
<path d="M92.772 15.8453L94.5038 14.8628C94.512 14.8581 94.5212 14.8553 94.5306 14.8548C94.54 14.8543 94.5494 14.8561 94.558 14.86C94.5667 14.8638 94.5744 14.8697 94.5806 14.8772C94.5868 14.8846 94.5913 14.8935 94.5939 14.903C94.7105 15.3471 94.9701 15.7345 95.3281 15.9987C95.7519 16.2811 96.2474 16.42 96.7483 16.3967C97.1668 16.4215 97.5806 16.2924 97.919 16.0315C98.0581 15.9138 98.1688 15.7632 98.2422 15.5918C98.3157 15.4205 98.3497 15.2333 98.3415 15.0454C98.3415 14.4903 97.8382 14.0155 96.8314 13.6211C96.485 13.4933 96.2287 13.3837 96.0451 13.2997C95.2403 12.9987 94.5016 12.5291 93.8734 11.9192C93.4898 11.4934 93.27 10.9323 93.2569 10.3451C93.2408 9.89223 93.3266 9.44174 93.5072 9.03044C93.6878 8.61915 93.9581 8.25871 94.296 7.97856C95.0712 7.39055 96.0126 7.09701 96.9665 7.14587C97.6324 7.12711 98.2929 7.27742 98.8923 7.58413C99.3852 7.83869 99.7864 8.25525 100.035 8.77108C100.043 8.78627 100.046 8.80409 100.042 8.821C100.038 8.83791 100.028 8.85268 100.014 8.86238L98.5528 9.9215C98.5451 9.92716 98.5363 9.93093 98.5271 9.93251C98.5178 9.9341 98.5084 9.93346 98.4994 9.93065C98.4904 9.92784 98.4821 9.92294 98.4752 9.91629C98.4682 9.90965 98.4628 9.90145 98.4593 9.89229C98.3399 9.60302 98.1376 9.36038 97.8809 9.19837C97.5776 9.00395 97.2278 8.90511 96.8729 8.91351C96.5103 8.89495 96.1524 9.007 95.8581 9.23125C95.7342 9.3296 95.6347 9.45792 95.5677 9.60539C95.5008 9.75286 95.4685 9.91515 95.4736 10.0785C95.4736 10.6081 96.0486 11.0938 97.2055 11.5394C97.5518 11.6745 97.8462 11.7877 98.0437 11.8717C98.7671 12.131 99.423 12.5649 99.9591 13.139C100.351 13.6307 100.557 14.2575 100.538 14.8994C100.558 15.3577 100.475 15.8146 100.294 16.232C100.113 16.6494 99.8405 17.0152 99.4984 17.2988C98.8057 17.8759 97.8382 18.1644 96.5959 18.1644C95.776 18.1956 94.9623 18.0031 94.2336 17.6056C93.6068 17.2207 93.1046 16.6454 92.7927 15.9548C92.7839 15.9497 92.7762 15.9426 92.7702 15.934C92.7643 15.9254 92.7602 15.9156 92.7582 15.9051C92.7562 15.8947 92.7564 15.8839 92.7588 15.8736C92.7612 15.8633 92.7657 15.8536 92.772 15.8453Z" fill="white"/>
<path d="M45.7944 19.7366C45.6999 19.6059 45.5862 19.4898 45.457 19.3922C45.3655 19.3241 45.2661 19.2669 45.1609 19.2219C45.0587 19.1624 44.9491 19.1163 44.8348 19.0848C44.5424 19.0256 44.3888 19.1404 43.924 18.4478C43.4592 17.7552 43.6991 17.1515 43.358 16.6404L42.5034 15.3812L40.7417 12.9183C40.6741 12.8235 40.6378 12.7103 40.6378 12.5943C40.6378 12.4783 40.6741 12.3651 40.7417 12.2702L43.8228 7.89626C43.8303 7.88586 43.8347 7.87364 43.8357 7.86092C43.8367 7.84819 43.8342 7.83545 43.8284 7.82404C43.8226 7.81262 43.8138 7.80297 43.8029 7.79612C43.792 7.78927 43.7795 7.78548 43.7666 7.78516H41.5738C41.4798 7.78593 41.3873 7.80925 41.3044 7.85312C41.2215 7.89699 41.1506 7.96008 41.0978 8.037L39.8234 9.92583C39.6472 10.2147 39.501 10.4592 39.3886 10.6666C39.2761 10.874 39.1712 11.0369 39.0849 11.2184C38.9875 11.0073 38.8825 10.7999 38.7626 10.5962C38.6426 10.3925 38.5077 10.1814 38.354 9.96287L37.0534 8.07033C37.0011 7.99296 36.9303 7.92951 36.8472 7.88559C36.7642 7.84167 36.6715 7.81862 36.5773 7.81849H34.3771C34.3644 7.8193 34.352 7.82333 34.3413 7.83016C34.3306 7.837 34.3218 7.84642 34.3158 7.85755C34.3098 7.86868 34.3068 7.88113 34.307 7.89374C34.3072 7.90635 34.3107 7.91868 34.3171 7.92959L37.402 12.2776C37.4697 12.3738 37.506 12.4882 37.506 12.6054C37.506 12.7226 37.4697 12.8369 37.402 12.9331L33.7436 18.0663C33.736 18.077 33.7315 18.0895 33.7306 18.1026C33.7298 18.1156 33.7326 18.1287 33.7389 18.1402C33.7451 18.1517 33.7544 18.1613 33.7659 18.1679C33.7773 18.1745 33.7904 18.1778 33.8036 18.1774H36.0188C36.1118 18.1778 36.2034 18.1558 36.2857 18.1132C36.368 18.0706 36.4386 18.0087 36.4911 17.933L38.2228 15.4701C38.3615 15.2664 38.5002 15.0442 38.6352 14.8072C38.7701 14.5701 38.9125 14.3146 39.0625 14.0368C39.2569 14.4912 39.5007 14.9233 39.7896 15.3257L39.8796 15.459L40.7267 16.6442C41.0078 17.0516 41.5288 17.796 41.5288 17.796C42.1361 18.5034 44.6811 18.3848 43.7103 19.3441C43.5443 19.4516 43.4021 19.5915 43.2926 19.7552C43.183 19.9188 43.1083 20.1028 43.0731 20.2959C43.031 20.4862 43.0289 20.683 43.067 20.8741C43.105 21.0652 43.1824 21.2466 43.2943 21.407C43.4017 21.5697 43.5422 21.7086 43.7067 21.8151C43.8712 21.9215 44.0562 21.9932 44.2501 22.0255C44.443 22.0648 44.642 22.0654 44.8352 22.0272C45.0284 21.9891 45.2118 21.9129 45.3746 21.8033C45.5419 21.6996 45.6861 21.5633 45.7983 21.4026C45.9105 21.2419 45.9882 21.0603 46.0268 20.8689C46.0654 20.6775 46.0641 20.4803 46.0228 20.2894C45.9815 20.0985 45.9013 19.918 45.7869 19.7589L45.7944 19.7366Z" fill="white"/>
</svg>
