<svg width="28" height="28" viewBox="0 0 28 28" fill="none" xmlns="http://www.w3.org/2000/svg">
<path d="M20.4154 12.832C16.234 12.832 12.832 16.234 12.832 20.4154C12.832 24.5967 16.234 27.9987 20.4154 27.9987C24.5967 27.9987 27.9987 24.5967 27.9987 20.4154C27.9987 16.234 24.5967 12.832 20.4154 12.832ZM20.4154 25.6654C19.9324 25.6654 19.5404 25.2734 19.5404 24.7904C19.5404 24.3074 19.9324 23.9154 20.4154 23.9154C20.8984 23.9154 21.2904 24.3074 21.2904 24.7904C21.2904 25.2734 20.8984 25.6654 20.4154 25.6654ZM22.1549 20.5997C21.3919 21.1854 21.2904 21.7255 21.2904 22.457C21.2904 22.94 20.8984 23.332 20.4154 23.332C19.9324 23.332 19.5404 22.94 19.5404 22.457C19.5404 21.176 19.9265 20.1039 21.0885 19.2114C21.3977 18.9745 21.582 18.5884 21.582 18.18C21.582 17.4824 21.0582 16.9165 20.4154 16.9165C19.7725 16.9165 19.2487 17.4835 19.2487 18.18C19.2487 18.663 18.8567 19.055 18.3737 19.055C17.8907 19.055 17.4987 18.663 17.4987 18.1789C17.4987 16.5175 18.8077 15.1654 20.4154 15.1654C22.023 15.1654 23.332 16.5175 23.332 18.1789C23.332 19.1285 22.8922 20.0327 22.1549 20.5997Z" fill="#276899"/>
<path d="M20.978 0.126111C17.9563 -0.317222 15.2846 0.406111 12.8346 2.33111C10.3846 0.406111 7.71297 -0.317222 4.6913 0.126111C3.6763 0.266111 2.91797 1.14111 2.91797 2.14444V14.9428C2.91797 15.5144 3.16297 16.0628 3.59464 16.4478C4.0263 16.8444 4.6213 17.0311 5.20464 16.9611C7.05964 16.7511 8.8563 17.1361 10.513 18.0811C10.5946 18.1161 10.6646 18.1628 10.7463 18.2094C10.758 18.1628 10.7696 18.1278 10.7813 18.0811C10.9096 17.5444 11.0846 17.0194 11.3063 16.5178C9.70797 15.6194 7.9813 15.1528 6.1963 15.1528C5.79964 15.1528 5.41464 15.1761 5.0063 15.2228C4.87797 15.2344 4.7963 15.1761 4.7613 15.1411C4.70297 15.0944 4.66797 15.0244 4.66797 14.9428V2.14444C4.66797 2.00444 4.78464 1.87611 4.9363 1.85278C7.57297 1.46778 9.81297 2.12111 11.9596 3.88278C12.0646 3.95278 12.158 4.04611 12.263 4.12778C12.5896 4.41944 13.0796 4.41944 13.4063 4.12778C13.5113 4.04611 13.6046 3.95278 13.7096 3.88278C15.8563 2.12111 18.0963 1.47944 20.733 1.85278C20.8846 1.87611 21.0013 2.00444 21.0013 2.14444V10.5094C21.5963 10.5444 22.1796 10.6378 22.7513 10.7778V2.14444C22.7513 1.14111 21.993 0.266111 20.978 0.126111Z" fill="#276899"/>
<path d="M10.78 18.082C10.7683 18.1287 10.7567 18.1637 10.745 18.2104C10.6283 18.7354 10.5467 19.2837 10.5117 19.832H2.04167C0.921667 19.832 0 18.9104 0 17.7904V4.3737C0 3.2537 0.91 2.3437 2.03 2.33203H3.5C3.97833 2.33203 4.375 2.71703 4.375 3.20703C4.375 3.68536 3.99 4.08203 3.5 4.08203H2.04167C1.87833 4.08203 1.75 4.22203 1.75 4.3737V17.7904C1.75 17.9537 1.87833 18.082 2.04167 18.082H10.78Z" fill="#276899"/>
<path d="M25.668 4.3737V12.0037C25.1196 11.6654 24.5363 11.3737 23.918 11.1404V4.3737C23.918 4.21036 23.7896 4.08203 23.6263 4.08203H22.168C21.6896 4.08203 21.293 3.68536 21.293 3.20703C21.293 2.7287 21.6896 2.33203 22.168 2.33203H23.6263C24.7463 2.33203 25.668 3.2537 25.668 4.3737Z" fill="#276899"/>
<path d="M13.707 3.49805V13.123C13.0304 13.7414 12.4354 14.453 11.957 15.2464V3.49805C11.957 3.01971 12.3537 2.62305 12.832 2.62305C13.3104 2.62305 13.707 3.01971 13.707 3.49805Z" fill="#276899"/>
</svg>
