<svg width="16" height="24" viewBox="0 0 16 24" fill="none" xmlns="http://www.w3.org/2000/svg">
<path d="M3.75 5C3.75 2.65279 5.65279 0.75 8 0.75C10.3472 0.75 12.25 2.65279 12.25 5V13C12.25 15.3472 10.3472 17.25 8 17.25C5.65279 17.25 3.75 15.3472 3.75 13V5Z" stroke="white" stroke-width="1.5"/>
<path d="M14.2222 11V13.4375C14.2222 14.9459 13.5667 16.3926 12.3998 17.4592C11.2329 18.5258 9.65024 19.125 8 19.125C6.34976 19.125 4.76712 18.5258 3.60022 17.4592C2.43333 16.3926 1.77778 14.9459 1.77778 13.4375V11H0V13.4375C0.000933753 15.2356 0.726626 16.9704 2.03842 18.3103C3.35021 19.6503 5.15613 20.5015 7.11111 20.7013V22.375H3.55556V24H12.4444V22.375H8.88889V20.7013C10.8439 20.5015 12.6498 19.6503 13.9616 18.3103C15.2734 16.9704 15.9991 15.2356 16 13.4375V11H14.2222Z" fill="white"/>
<rect x="7" y="17" width="2" height="3" fill="white"/>
</svg>
