<svg width="16" height="17" viewBox="0 0 16 17" fill="none" xmlns="http://www.w3.org/2000/svg">
<path fill-rule="evenodd" clip-rule="evenodd" d="M10.362 3.25391L6.81187 6.26126C6.69565 6.35841 6.55854 6.41171 6.41796 6.41171H5.34869L6.971 8.32297L10.362 4.32803V3.25391ZM11.7547 2.68723V1.62243C11.7547 1.30261 11.6114 1.0103 11.3831 0.861568C11.1548 0.711975 10.8785 0.731749 10.6656 0.912293L6.20303 4.69254H3.88943L1.28951 1.62956C1.11081 1.41904 0.795281 1.39323 0.584754 1.57193C0.374228 1.75063 0.348427 2.06616 0.527125 2.27669L2.58834 4.70502C2.26073 4.77462 2.01123 5.12698 2.01123 5.55228V11.4475C2.01123 11.9229 2.32302 12.3072 2.7072 12.3072H2.98508L0.55792 14.6901C0.360868 14.8835 0.357954 15.2001 0.55141 15.3972C0.744866 15.5942 1.06144 15.5971 1.25849 15.4037L4.41249 12.3072H6.20303L10.6656 16.0875C10.7832 16.1872 10.921 16.2379 11.0588 16.2379C11.1701 16.2379 11.2815 16.2044 11.3831 16.1382C11.6114 15.9894 11.7547 15.6971 11.7547 15.3782V14.4921L12.6833 15.4037C12.8803 15.5971 13.1969 15.5942 13.3904 15.3972C13.5838 15.2001 13.5809 14.8835 13.3839 14.6901L11.7547 13.0907V4.23252L13.4149 2.27669C13.5936 2.06616 13.5678 1.75063 13.3573 1.57193C13.1467 1.39323 12.8312 1.41904 12.6525 1.62956L11.7547 2.68723ZM10.362 5.87332L7.65348 9.06424L10.362 11.7233V5.87332ZM6.28843 9.06412L4.03701 6.41171H3.40234V10.5874H4.7368L6.28843 9.06412ZM10.362 13.7452V13.1247L6.97089 9.79548L6.16422 10.5874H6.41796C6.55854 10.5874 6.69565 10.6407 6.81187 10.7379L10.362 13.7452ZM14.3845 11.6193C14.2474 11.83 14.0456 11.94 13.8423 11.94C13.6885 11.94 13.5347 11.8773 13.406 11.75C13.1067 11.4517 13.0594 10.9109 13.3002 10.5412C14.0205 9.43476 14.0205 7.56656 13.3002 6.46094C13.0594 6.09039 13.1067 5.54962 13.406 5.25129C13.7052 4.95554 14.1437 5.01315 14.3845 5.38283C15.5238 7.13153 15.5238 9.86978 14.3845 11.6193Z" fill="white"/>
</svg>
