<svg width="15" height="16" viewBox="0 0 15 16" fill="none" xmlns="http://www.w3.org/2000/svg">
<path fill-rule="evenodd" clip-rule="evenodd" d="M9.95379 2.49219L6.40367 5.49954C6.28745 5.59669 6.15034 5.64999 6.00976 5.64999H4.94049L6.5628 7.56125L9.95379 3.56631V2.49219ZM11.3465 1.92551V0.860714C11.3465 0.540893 11.2032 0.248584 10.9749 0.0998496C10.7466 -0.0497441 10.4703 -0.0299702 10.2573 0.150574L5.79482 3.93082H3.48122L0.881306 0.867844C0.702607 0.657317 0.387077 0.631516 0.176551 0.810215C-0.0339756 0.988914 -0.0597763 1.30444 0.118922 1.51497L2.18014 3.9433C1.85252 4.0129 1.60303 4.36527 1.60303 4.79056V10.6858C1.60303 11.1612 1.91482 11.5455 2.29899 11.5455H2.57687L0.149716 13.9284C-0.0473351 14.1218 -0.0502494 14.4384 0.143207 14.6354C0.336663 14.8325 0.653232 14.8354 0.850284 14.6419L4.00429 11.5455H5.79482L10.2573 15.3257C10.375 15.4255 10.5128 15.4762 10.6506 15.4762C10.7619 15.4762 10.8733 15.4427 10.9749 15.3765C11.2032 15.2277 11.3465 14.9354 11.3465 14.6165V13.7303L12.2751 14.6419C12.4721 14.8354 12.7887 14.8325 12.9822 14.6354C13.1756 14.4384 13.1727 14.1218 12.9757 13.9284L11.3465 12.329V3.4708L13.0067 1.51497C13.1854 1.30444 13.1596 0.988913 12.9491 0.810215C12.7385 0.631516 12.423 0.657317 12.2443 0.867843L11.3465 1.92551ZM9.95379 5.1116L7.24527 8.30252L9.95379 10.9616V5.1116ZM5.88023 8.3024L3.62881 5.64999H2.99414V9.82572H4.3286L5.88023 8.3024ZM9.95379 12.9835V12.363L6.56269 9.03376L5.75602 9.82572H6.00976C6.15034 9.82572 6.28745 9.87902 6.40367 9.97617L9.95379 12.9835ZM13.9763 10.8576C13.8392 11.0683 13.6373 11.1783 13.4341 11.1783C13.2803 11.1783 13.1265 11.1155 12.9978 10.9883C12.6985 10.69 12.6512 10.1492 12.892 9.77952C13.6123 8.67304 13.6123 6.80484 12.892 5.69922C12.6512 5.32868 12.6985 4.7879 12.9978 4.48957C13.297 4.19383 13.7355 4.25143 13.9763 4.62111C15.1156 6.36981 15.1156 9.10807 13.9763 10.8576Z" fill="#276899"/>
</svg>
