<svg width="13" height="13" viewBox="0 0 13 13" fill="none" xmlns="http://www.w3.org/2000/svg">
<path fill-rule="evenodd" clip-rule="evenodd" d="M8.90345 2.09364L5.92135 4.61982C5.82372 4.70142 5.70855 4.7462 5.59046 4.7462H4.79863L6.05556 6.227L8.90345 2.87188V2.09364ZM10.0736 1.49329V0.723C10.0736 0.45435 9.95319 0.20881 9.76143 0.0838736C9.56968 -0.0417851 9.33759 -0.025175 9.1587 0.126482L5.41018 3.30189H3.57267L1.34409 0.676386C1.16539 0.46586 0.849864 0.440059 0.639338 0.618758C0.428811 0.797456 0.403011 1.11299 0.581709 1.32351L2.29137 3.33768C2.05785 3.43221 1.88907 3.70347 1.88907 4.02407V8.97603C1.88907 9.3754 2.15098 9.69821 2.47368 9.69821H2.59314L0.612617 11.6426C0.415566 11.8361 0.412651 12.1526 0.606108 12.3497C0.799564 12.5467 1.11613 12.5496 1.31318 12.3562L4.02055 9.69821H5.41018L9.1587 12.8736C9.2575 12.9574 9.37325 13 9.48901 13C9.58254 13 9.67608 12.9718 9.76143 12.9162C9.95319 12.7913 10.0736 12.5458 10.0736 12.2778V11.6451L10.7979 12.3562C10.995 12.5496 11.3116 12.5467 11.505 12.3497C11.6985 12.1526 11.6955 11.8361 11.4985 11.6426L10.0736 10.2437V3.03859L11.5294 1.32351C11.7081 1.11299 11.6823 0.797456 11.4718 0.618757C11.2613 0.440059 10.9457 0.46586 10.767 0.676386L10.0736 1.49329ZM8.90345 4.41717L6.7377 6.96866L8.90345 9.09489V4.41717ZM5.37342 6.96866L3.48695 4.7462H3.05735V8.25381H4.06438L5.37342 6.96866ZM8.90345 10.9064V10.4963L6.05556 7.70033L5.49179 8.25381H5.59046C5.70855 8.25381 5.82372 8.29858 5.92135 8.38019L8.90345 10.9064ZM12.2824 9.12085C12.1672 9.29778 11.9977 9.39022 11.827 9.39022C11.6978 9.39022 11.5686 9.3375 11.4604 9.23062C11.2091 8.98002 11.1693 8.52577 11.3716 8.21524C11.9767 7.2858 11.9767 5.71651 11.3716 4.78779C11.1693 4.47653 11.2091 4.02228 11.4604 3.77168C11.7118 3.52326 12.0801 3.57164 12.2824 3.88218C13.2394 5.35108 13.2394 7.65122 12.2824 9.12085Z" fill="white"/>
</svg>
