<svg width="24" height="24" viewBox="0 0 24 24" fill="none" xmlns="http://www.w3.org/2000/svg">
    <path d="M18.8571 22.2859H1.71429V5.143H10.2857C10.7591 5.143 11.1429 4.75924 11.1429 4.28585C11.1429 3.81247 10.7591 3.42871 10.2857 3.42871H1.71429C1.25977 3.42916 0.823997 3.60992 0.502604 3.93132C0.181211 4.25271 0.000453837 4.68848 0 5.143V22.2859C0.000453837 22.7404 0.181211 23.1761 0.502604 23.4975C0.823997 23.8189 1.25977 23.9997 1.71429 24.0001H18.8571C19.3117 23.9997 19.7474 23.8189 20.0688 23.4975C20.3902 23.1761 20.571 22.7404 20.5714 22.2859V13.7144C20.5714 13.241 20.1877 12.8573 19.7143 12.8573C19.2409 12.8573 18.8571 13.241 18.8571 13.7144V22.2859Z" fill="#276899"/>
    <path d="M20.8 3.2V0.8C20.8 0.358173 20.4418 0 20 0C19.5582 0 19.2 0.358172 19.2 0.8V3.2H16.8C16.3582 3.2 16 3.55817 16 4C16 4.44183 16.3582 4.8 16.8 4.8H19.2V7.2C19.2 7.64183 19.5582 8 20 8C20.4418 8 20.8 7.64183 20.8 7.2V4.8H23.2C23.6418 4.8 24 4.44183 24 4C24 3.55817 23.6418 3.2 23.2 3.2H20.8Z" fill="#276899"/>
    <path d="M11.9565 14.4207L11.4962 13.912C11.7629 13.6172 12.0897 13.3973 12.4491 13.2708L12.608 13.9658C12.3195 14.0804 12.1218 14.2416 11.9565 14.4207ZM13.9045 14.5533L14.8607 13.3592L14.8121 13.2958L13.9045 12.2963C13.8817 12.2716 13.8527 12.2548 13.8213 12.2483C13.7898 12.2417 13.7573 12.2455 13.7279 12.2593C13.6984 12.2731 13.6733 12.2962 13.6557 12.3258C13.6381 12.3553 13.6288 12.3899 13.629 12.4253V13.0737C13.3664 13.0809 13.2887 12.9484 13.0845 12.9879V13.8368C13.24 13.8117 13.4248 13.7938 13.629 13.7902V14.4279C13.6294 14.463 13.6392 14.4971 13.657 14.5261C13.6749 14.5551 13.7 14.5777 13.7293 14.591C13.7587 14.6044 13.7909 14.6079 13.822 14.6012C13.8532 14.5945 13.8819 14.5778 13.9045 14.5533ZM13.9045 18.1358L14.8088 17.1363C14.8737 17.0646 14.8737 16.9536 14.8088 16.8819L13.9045 15.8824C13.804 15.7678 13.629 15.8466 13.629 16.0078V16.6455C12.4362 16.6096 12.0894 16.1869 11.7231 15.7355C11.5805 15.5564 11.4249 15.3737 11.2207 15.2161C11.3795 15.0942 11.5059 14.9545 11.6226 14.8112L11.1656 14.3061C10.8901 14.6393 10.6664 14.8578 10.0635 14.8578H8.767C8.58872 14.8578 8.44286 15.019 8.44286 15.2161C8.44286 15.4131 8.58872 15.5743 8.767 15.5743H10.0635C10.7183 15.5743 10.9257 15.8287 11.2401 16.2156C11.6421 16.7099 12.1412 17.319 13.629 17.362V18.0068C13.6288 18.0422 13.6381 18.0768 13.6557 18.1063C13.6733 18.1359 13.6984 18.159 13.7279 18.1728C13.7573 18.1866 13.7898 18.1904 13.8213 18.1838C13.8527 18.1773 13.8817 18.1605 13.9045 18.1358Z" fill="#276899"/>
    <path d="M11.9565 12.299L11.4962 12.8077C11.7629 13.1026 12.0897 13.3224 12.4492 13.449L12.608 12.754C12.3195 12.6393 12.1218 12.4781 11.9565 12.299ZM13.9045 12.1664L14.8121 13.302C14.8769 13.3737 14.8769 13.3522 14.8121 13.4239L13.9045 14.4234C13.8817 14.4482 13.8527 14.4649 13.8213 14.4715C13.7898 14.4781 13.7573 14.4742 13.7279 14.4604C13.6984 14.4466 13.6733 14.4235 13.6557 14.394C13.6381 14.3644 13.6288 14.3298 13.629 14.2944V13.646C13.3665 13.6388 13.2887 13.6854 13.0845 13.646V12.8829C13.2401 12.908 13.4248 12.9259 13.629 12.9295V12.2918C13.6295 12.2568 13.6392 12.2226 13.657 12.1936C13.6749 12.1646 13.7 12.1421 13.7294 12.1287C13.7587 12.1154 13.7909 12.1118 13.8221 12.1185C13.8532 12.1252 13.8819 12.1419 13.9045 12.1664ZM13.9045 8.58395L14.8089 9.58346C14.8737 9.65511 14.8737 9.76617 14.8089 9.83782L13.9045 10.8373C13.804 10.952 13.629 10.8732 13.629 10.7119V10.0743C12.4362 10.1101 12.0894 10.5328 11.7231 10.9842C11.5805 11.1633 11.4249 11.346 11.2207 11.5037C11.3795 11.6255 11.5059 11.7652 11.6226 11.9085L11.1656 12.4136C10.8901 12.0805 10.6664 11.8619 10.0635 11.8619H8.76701C8.58874 11.8619 8.44288 11.7007 8.44288 11.5037C8.44288 11.3066 8.58874 11.1454 8.76701 11.1454H10.0635C10.7183 11.1454 10.9257 10.8911 11.2401 10.5042C11.6421 10.0098 12.1412 9.40076 13.629 9.35777V8.71292C13.6288 8.67755 13.6381 8.64292 13.6557 8.61338C13.6733 8.58384 13.6984 8.56072 13.7279 8.54693C13.7573 8.53313 13.7898 8.52929 13.8213 8.53588C13.8527 8.54247 13.8817 8.55919 13.9045 8.58395Z" fill="#276899"/>
    <path d="M16.65 13.3592C16.65 13.7948 16.3145 14.1233 15.9304 14.1233C15.5462 14.1233 15.2107 13.7948 15.2107 13.3592C15.2107 12.9236 15.5462 12.5951 15.9304 12.5951C16.3145 12.5951 16.65 12.9236 16.65 13.3592Z" stroke="#276899" stroke-width="0.7"/>
    <path d="M16.65 17.075C16.65 17.5106 16.3145 17.8391 15.9304 17.8391C15.5462 17.8391 15.2107 17.5106 15.2107 17.075C15.2107 16.6395 15.5462 16.3109 15.9304 16.3109C16.3145 16.3109 16.65 16.6395 16.65 17.075Z" stroke="#276899" stroke-width="0.7"/>
    <path d="M16.65 9.64633C16.65 10.0819 16.3145 10.4104 15.9304 10.4104C15.5462 10.4104 15.2107 10.0819 15.2107 9.64633C15.2107 9.21076 15.5462 8.88223 15.9304 8.88223C16.3145 8.88223 16.65 9.21076 16.65 9.64633Z" stroke="#276899" stroke-width="0.7"/>
    <path fill-rule="evenodd" clip-rule="evenodd" d="M6.65936 15.7012C7.84132 15.7012 8.86828 14.6913 8.86828 13.3589C8.86828 12.0265 7.84132 11.0166 6.65936 11.0166C5.4774 11.0166 4.45044 12.0265 4.45044 13.3589C4.45044 14.6913 5.4774 15.7012 6.65936 15.7012ZM6.65936 16.7012C8.4316 16.7012 9.86828 15.2048 9.86828 13.3589C9.86828 11.513 8.4316 10.0166 6.65936 10.0166C4.88712 10.0166 3.45044 11.513 3.45044 13.3589C3.45044 15.2048 4.88712 16.7012 6.65936 16.7012Z" fill="#454D54"/>
    <path d="M5.78095 12.5061C5.83559 12.4492 5.90969 12.4173 5.98695 12.4173C6.06422 12.4173 6.13832 12.4492 6.19295 12.5061L7.42895 13.7935C7.48359 13.8504 7.51428 13.9276 7.51428 14.0081C7.51428 14.0886 7.48359 14.1657 7.42895 14.2226C7.37432 14.2795 7.30022 14.3115 7.22295 14.3115C7.14569 14.3115 7.07159 14.2795 7.01695 14.2226L5.78095 12.9353C5.72632 12.8784 5.69562 12.8012 5.69562 12.7207C5.69562 12.6402 5.72632 12.563 5.78095 12.5061Z" fill="#276899"/>
    <path d="M7.42878 12.5066C7.48341 12.5635 7.51411 12.6406 7.51411 12.7211C7.51411 12.8016 7.48341 12.8788 7.42878 12.9357L6.19278 14.2231C6.13814 14.28 6.06404 14.3119 5.98678 14.3119C5.90951 14.3119 5.83541 14.28 5.78078 14.2231C5.72614 14.1662 5.69545 14.089 5.69545 14.0085C5.69545 13.928 5.72614 13.8508 5.78078 13.7939L7.01678 12.5066C7.07141 12.4496 7.14551 12.4177 7.22278 12.4177C7.30004 12.4177 7.37414 12.4496 7.42878 12.5066Z" fill="#276899"/>
    <path d="M5.34285 15.7483L5.97146 15.8651C5.95516 15.9994 5.78198 17.0686 4.68801 17.0475C4.59194 16.6089 4.15918 16.3281 3.72449 16.421C3.51549 16.4662 3.33352 16.5931 3.21847 16.774C3.10342 16.9548 3.06466 17.1748 3.11071 17.3858C3.20977 17.822 3.63954 18.1052 4.07423 18.0122C4.31311 17.9673 4.51493 17.8027 4.62279 17.5849C5.08913 17.6081 5.54488 17.4497 5.89548 17.1426C6.24608 16.8355 6.46463 16.4032 6.50577 15.9354L7.05984 16.057L6.36905 14.8254L5.34285 15.7483ZM3.93835 16.9624C4.0092 16.9717 4.07372 17.009 4.11771 17.066C4.16169 17.123 4.18154 17.195 4.1729 17.2663C4.16425 17.3376 4.12781 17.4022 4.07159 17.446C4.01537 17.4898 3.94399 17.5092 3.87313 17.4998C3.80228 17.4905 3.73777 17.4532 3.69378 17.3963C3.64979 17.3393 3.62994 17.2672 3.63859 17.196C3.64724 17.1247 3.68368 17.06 3.73989 17.0163C3.79611 16.9725 3.8675 16.9531 3.93835 16.9624Z" fill="#276899"/>
    <path d="M7.42827 10.6657L6.79966 10.549C6.81596 10.4146 6.98914 9.34543 8.08311 9.3666C8.17917 9.80513 8.61194 10.086 9.04663 9.99304C9.25563 9.94787 9.4376 9.82096 9.55265 9.64011C9.6677 9.45926 9.70645 9.23924 9.66041 9.02826C9.56135 8.59207 9.13158 8.3089 8.69689 8.40182C8.45801 8.44681 8.25619 8.61134 8.14833 8.82919C7.68199 8.80598 7.22624 8.96437 6.87564 9.27149C6.52503 9.57861 6.30649 10.0109 6.26535 10.4786L5.71128 10.357L6.40207 11.5886L7.42827 10.6657ZM8.83277 9.45165C8.76191 9.44232 8.6974 9.40506 8.65341 9.34807C8.60943 9.29109 8.58957 9.21903 8.59822 9.14777C8.60687 9.0765 8.64331 9.01186 8.69953 8.96807C8.75574 8.92427 8.82713 8.90491 8.89798 8.91423C8.96884 8.92356 9.03335 8.96082 9.07734 9.01781C9.12132 9.07479 9.14118 9.14684 9.13253 9.21811C9.12388 9.28938 9.08744 9.35402 9.03122 9.39781C8.97501 9.44161 8.90362 9.46097 8.83277 9.45165Z" fill="#276899"/>
</svg>
