<svg width="69" height="62" viewBox="0 0 69 62" fill="none" xmlns="http://www.w3.org/2000/svg">
<path d="M36.3152 16.3154H32.6836V21.2102H36.3152V16.3154Z" fill="#276899"/>
<path d="M36.3152 40.7891H32.6836V45.6838H36.3152V40.7891Z" fill="#276899"/>
<path d="M7.36674 29.1259L0.116212 28.625C0.0472111 29.4098 0 30.1995 0 31.0006C0 31.8392 0.0508426 32.6648 0.123475 33.4871L7.39398 32.9617C7.33587 32.3107 7.26324 31.6646 7.26324 31.0006C7.26324 30.3675 7.305 29.7443 7.36674 29.1259Z" fill="#276899"/>
<path d="M1.62891 40.3714C2.18273 41.9279 2.85821 43.4371 3.66624 44.8762L10.1796 41.9459C9.54402 40.8103 9.03922 39.6111 8.59798 38.3857L1.62891 40.3714Z" fill="#276899"/>
<path d="M13.5592 46.5713L7.9375 50.7481C9.09235 51.9963 10.3525 53.1629 11.7071 54.2332L16.5063 49.3417C15.4368 48.4966 14.469 47.5551 13.5592 46.5713Z" fill="#276899"/>
<path d="M18.1055 58.2425C19.6834 59.0093 21.334 59.6734 23.0481 60.2151L25.4577 54.064C24.1049 53.6349 22.8012 53.1112 21.5555 52.5059L18.1055 58.2425Z" fill="#276899"/>
<path d="M34.5038 61.1858C33.5941 61.1858 32.6571 61.1483 31.6657 61.0683L32.2722 56.2046C33.0475 56.2617 33.7847 56.2911 34.5038 56.2911C50.0235 56.2911 62.6488 44.9467 62.6488 31.0016C62.6488 17.0565 50.0235 5.71212 34.5038 5.71212C28.8875 5.71212 23.4382 7.22949 18.7462 10.1011L17.8401 10.6558L21.8603 14.2681L4.92969 18.4172L9.54729 3.20275L13.9633 7.17075L14.5934 6.75307C20.4222 2.86991 27.3077 0.817383 34.5038 0.817383C53.0269 0.817383 68.0963 14.3579 68.0963 31.0016C68.0963 47.6453 53.0269 61.1858 34.5038 61.1858Z" fill="#DFF0FE"/>
<path d="M34.4977 1.63158C52.5196 1.63158 67.1822 14.8066 67.1822 31C67.1822 47.1934 52.5196 60.3684 34.4977 60.3684C33.9021 60.3684 33.2956 60.3521 32.6655 60.3162L33.0704 57.0694C33.5571 57.0938 34.031 57.1053 34.4977 57.1053C50.5167 57.1053 63.5506 45.3938 63.5506 31C63.5506 16.6062 50.5167 4.89474 34.4977 4.89474C28.698 4.89474 23.0726 6.46105 18.228 9.42563L16.4158 10.5351L17.9665 11.9285L20.1056 13.8505L6.21644 17.2539L10.0042 4.774L12.7606 7.25074L13.8683 8.246L15.1266 7.40737C20.7992 3.62863 27.4977 1.63158 34.4977 1.63158ZM34.4977 0C26.8241 0 19.7696 2.28421 14.0444 6.09558L9.07634 1.63158L3.62891 19.5789L23.6028 14.6842L19.2503 10.7733C23.6028 8.11058 28.8342 6.52632 34.4977 6.52632C49.5398 6.52632 61.7348 17.484 61.7348 31C61.7348 44.516 49.5398 55.4737 34.4977 55.4737C33.4699 55.4737 32.4603 55.4133 31.4635 55.3138L30.6536 61.7977C31.9174 61.9233 33.1976 62 34.4977 62C53.551 62 68.9981 48.1202 68.9981 31C68.9981 13.8798 53.551 0 34.4977 0Z" fill="#276899"/>
<path d="M30.4514 25.6724C30.4514 24.3998 31.8078 23.3017 34.5987 23.3017C37.7364 23.3017 39.9971 24.0441 41.7603 24.9382V20.6471C40.4474 20.0418 38.4773 19.6861 35.8407 19.5801L33.0789 19.6437C30.771 19.8346 28.9188 20.5166 27.5189 21.6881C26.1189 22.8579 25.418 24.2758 25.418 25.9416C25.418 32.5201 38.5463 32.7224 38.5463 36.3282C38.5463 37.6123 36.6342 38.6043 34.5025 38.6043C30.1391 38.6043 26.6618 37.051 25.93 36.5518V40.9587C28.1362 41.9229 30.5186 42.4124 33.0807 42.4222L35.8425 42.3276C38.3266 42.0942 40.2368 41.44 41.5732 40.3648C42.9078 39.2879 43.5761 37.8684 43.5761 36.108C43.5761 29.0824 30.4514 29.6192 30.4514 25.6724Z" fill="#276899"/>
</svg>
