<svg width="20" height="24" viewBox="0 0 20 24" fill="none" xmlns="http://www.w3.org/2000/svg">
<path d="M19.808 17.8552C19.7127 17.3462 19.2228 17.011 18.7139 17.1064C18.205 17.2018 17.8697 17.6916 17.965 18.2005C18.0358 18.5781 17.8698 18.8471 17.7646 18.9739C17.6597 19.1003 17.4264 19.3125 17.0437 19.3125H2.81284C2.4301 19.3125 2.19685 19.1004 2.0919 18.9739C1.98671 18.8471 1.82073 18.5781 1.89151 18.2005C2.15743 16.7815 2.69101 15.8482 3.20701 14.9455C3.83368 13.8494 4.48168 12.7159 4.48168 10.9687V9.56245C4.48168 6.60619 6.88463 4.16845 9.83959 4.12556H10.0168C12.9618 4.16836 15.3567 6.60609 15.3567 9.5625V10.9688C15.3567 12.4558 15.8431 13.479 16.2991 14.3214C16.4688 14.6349 16.7913 14.8128 17.1244 14.8128C17.2751 14.8128 17.428 14.7764 17.5698 14.6996C18.0252 14.4532 18.1945 13.8842 17.948 13.4289C17.4944 12.5907 17.2317 11.9194 17.2317 10.9688V9.5625C17.2317 7.63308 16.4844 5.81077 15.1273 4.43128C13.9644 3.24905 12.4711 2.51128 10.8567 2.30766V0.9375C10.8567 0.419719 10.437 0 9.91923 0C9.40144 0 8.98173 0.419719 8.98173 0.9375V2.31042C5.39776 2.77542 2.60673 5.86786 2.60673 9.5625V10.9688C2.60673 12.2178 2.1533 13.0109 1.57927 14.015C1.01377 15.0042 0.372757 16.1254 0.0485698 17.8552C-0.106165 18.6809 0.112742 19.5251 0.649179 20.1714C1.1851 20.8172 1.97377 21.1875 2.81284 21.1875H7.12482C7.12482 22.7383 8.38651 24 9.93732 24C11.4881 24 12.7498 22.7383 12.7498 21.1875H17.0437C17.8828 21.1875 18.6714 20.8172 19.2074 20.1714C19.7438 19.5252 19.9627 18.6809 19.808 17.8552ZM9.93732 22.125C9.42038 22.125 8.99982 21.7044 8.99982 21.1875H10.8748C10.8748 21.7044 10.4543 22.125 9.93732 22.125Z" fill="white"/>
</svg>
