<svg width="28" height="27" viewBox="0 0 28 27" fill="none" xmlns="http://www.w3.org/2000/svg">
<ellipse cx="14.1043" cy="13.5" rx="13.491" ry="13.5" fill="#515960"/>
<path fill-rule="evenodd" clip-rule="evenodd" d="M15.5726 13.1068L15.5703 6.53203C15.5701 5.93321 15.086 5.44909 14.4872 5.44889C13.8884 5.44868 13.4046 5.93247 13.4048 6.53129L13.4071 13.106L6.8323 13.1038C6.23348 13.1036 5.74969 13.5874 5.7499 14.1862C5.7501 14.785 6.23422 15.2691 6.83304 15.2693L13.4078 15.2716L13.4101 21.8464C13.4103 22.4452 13.8944 22.9293 14.4932 22.9295C14.7918 22.9296 15.0629 22.8087 15.2589 22.6127C15.4548 22.4168 15.5757 22.1457 15.5756 21.8471L15.5733 15.2723L22.1481 15.2746C22.4468 15.2747 22.7178 15.1538 22.9138 14.9578C23.1097 14.7619 23.2306 14.4908 23.2305 14.1922C23.2303 13.5934 22.7462 13.1093 22.1474 13.109L15.5726 13.1068Z" fill="white"/>
</svg>
