<svg width="24" height="22" viewBox="0 0 24 22" fill="none" xmlns="http://www.w3.org/2000/svg">
<path fill-rule="evenodd" clip-rule="evenodd" d="M23.3913 0.554156C23.7179 0.851451 23.7179 1.36522 23.3914 1.66256L15.9647 8.42569H18.6675C19.1022 8.42569 19.4547 8.77811 19.4547 9.21285C19.4547 9.64758 19.1022 10 18.6675 10H13.8965C13.4014 10 13 9.59863 13 9.10352V4.998C13 4.51979 13.3877 4.13213 13.8659 4.13213C14.3441 4.13213 14.7317 4.51979 14.7317 4.998V7.30479L22.173 0.553138C22.5187 0.239475 23.0461 0.239916 23.3913 0.554156Z" fill="#EB5545"/>
<path fill-rule="evenodd" clip-rule="evenodd" d="M19.795 13.0869C19.4719 12.9655 19.126 12.903 18.7768 12.903C18.4504 12.886 18.1243 12.9404 17.8254 13.0617C17.5668 13.1761 17.3201 13.3118 17.0883 13.4671C16.8627 13.6172 16.6563 13.7901 16.4729 13.9826C16.2946 14.1711 16.1215 14.344 15.9518 14.4996C15.7977 14.6424 15.6315 14.7738 15.4547 14.8924C15.2761 15.0097 15.0576 15.0642 14.8389 15.046C14.6202 15.0278 14.4159 14.9382 14.2633 14.7934C14.0746 14.6312 13.8872 14.4678 13.701 14.3031C13.461 14.0894 13.1662 13.8317 12.8182 13.5284C12.454 13.2118 12.0923 12.8928 11.7331 12.5714L10.5674 11.528C9.85172 10.8865 9.15992 10.223 8.49323 9.53857C8.2538 9.29727 8.02999 9.04331 7.82298 8.778C7.66184 8.56586 7.58127 8.41029 7.58127 8.31129C7.57132 8.13391 7.63295 7.95938 7.75441 7.821C7.87955 7.67329 8.02868 7.52243 8.19668 7.36529C8.3681 7.21129 8.55495 7.04629 8.75894 6.875C8.96464 6.70214 9.15321 6.51829 9.32291 6.32186C9.49091 6.12543 9.6349 5.90071 9.75147 5.64614C9.86632 5.39471 9.9246 5.10714 9.9246 4.78814C9.92458 4.13969 9.64554 3.51742 9.14806 3.05643C8.82779 2.76823 8.52397 2.46507 8.23782 2.14814C7.91076 1.79113 7.55738 1.4551 7.18015 1.14243C6.81395 0.835222 6.41413 0.563496 5.98706 0.331571C5.59918 0.116331 5.1548 0.0017259 4.7014 0C3.99462 0.00043031 3.3165 0.256197 2.81405 0.711857C2.3495 1.13771 1.94323 1.518 1.59524 1.85429C1.26128 2.17268 0.964804 2.52242 0.710709 2.89771C0.464457 3.2701 0.283952 3.67582 0.175875 4.09986C0.0500428 4.624 -0.00863724 5.15981 0.00102495 5.69643C0.00102495 6.56386 0.15359 7.46428 0.457006 8.39771C0.760421 9.32957 1.17012 10.2599 1.68781 11.1839C2.2055 12.1094 2.83633 13.0177 3.57687 13.9103C4.31741 14.8013 5.12138 15.6483 5.98706 16.4513C6.85273 17.2527 7.77326 17.9944 8.74694 18.6733C9.7189 19.3521 10.7149 19.9383 11.7331 20.4286C12.7496 20.9204 13.773 21.3039 14.7998 21.582C15.7726 21.8531 16.783 21.9939 17.7997 22C18.3808 21.9997 18.9601 21.9418 19.5276 21.8271C19.9953 21.7304 20.4428 21.5648 20.8527 21.3369C21.247 21.1169 21.6241 20.8466 21.9909 20.5276C22.3578 20.207 22.7675 19.8393 23.2235 19.4213C23.7208 18.9602 23.9998 18.338 24 17.6896C23.9806 17.414 23.9218 17.1419 23.8252 16.8803C23.7249 16.6063 23.576 16.3493 23.3846 16.1197C23.1846 15.879 22.9741 15.6457 22.7538 15.4204C22.5268 15.1873 22.2858 14.9659 22.0321 14.7573C21.7871 14.556 21.5414 14.3553 21.295 14.1554C21.0793 13.9811 20.8695 13.8008 20.6659 13.6149C20.4175 13.3867 20.1213 13.207 19.795 13.0869ZM19.1659 20.2934C18.7187 20.392 18.2595 20.4374 17.7997 20.4286C16.9184 20.4133 16.0437 20.2853 15.2009 20.0483C14.258 19.787 13.3469 19.4374 12.4822 19.0049C10.5597 18.0398 8.80025 16.8239 7.259 15.3953C6.4756 14.669 5.73787 13.9025 5.04938 13.0994C4.38097 12.323 3.79004 11.4931 3.28374 10.6197C2.81186 9.81212 2.42553 8.96491 2.13008 8.08971C1.86163 7.30314 1.72183 6.48444 1.71524 5.66029C1.7148 5.24207 1.7689 4.8253 1.87637 4.41886C1.97408 4.07629 2.12151 3.76829 2.31864 3.49957C2.51406 3.22929 2.75576 2.96686 3.04032 2.71386C3.3266 2.45929 3.6523 2.16386 4.01743 1.82914C4.10631 1.74536 4.21306 1.67924 4.33102 1.6349C4.44899 1.59057 4.57564 1.56896 4.70311 1.57143C4.80939 1.56357 4.97396 1.628 5.1968 1.76786C5.41965 1.90771 5.66136 2.07429 5.9202 2.27071C6.47921 2.69816 6.99499 3.17098 7.46128 3.68343C7.67556 3.91914 7.85383 4.13757 7.99611 4.334C8.13839 4.53043 8.21039 4.68129 8.21039 4.78814C8.22578 4.96614 8.16352 5.14247 8.03725 5.27843C7.91212 5.41043 7.76298 5.56129 7.59499 5.73414C7.42357 5.90543 7.23672 6.06886 7.03273 6.22443C6.82702 6.38 6.63846 6.56386 6.46875 6.776C6.29841 6.9901 6.15466 7.22095 6.0402 7.46429C5.91941 7.73321 5.86047 8.02209 5.86706 8.31286C5.87563 8.64757 5.94763 8.96186 6.08134 9.25571C6.21505 9.55114 6.40704 9.81357 6.65731 10.0414L13.0445 15.8981C13.2902 16.1288 13.5842 16.3117 13.9087 16.4359C14.2333 16.5601 14.5818 16.623 14.9335 16.621C15.2552 16.6366 15.5764 16.5828 15.8712 16.4639C16.3862 16.2452 16.8465 15.9317 17.2237 15.543C17.4123 15.3544 17.5837 15.1816 17.7466 15.026C17.906 14.872 18.0723 14.74 18.242 14.6331C18.3982 14.5312 18.585 14.4757 18.7768 14.4744C18.9019 14.4744 19.0716 14.5404 19.2859 14.6709C19.5002 14.8013 19.7368 14.9694 19.9956 15.1737C20.2544 15.378 20.5219 15.6043 20.7996 15.8494C21.0756 16.0946 21.3224 16.3397 21.5367 16.5864C21.7492 16.8316 21.9292 17.0531 22.0715 17.2496C22.2138 17.446 22.2858 17.5953 22.2858 17.7037C22.287 17.818 22.2627 17.9314 22.2144 18.0368C22.166 18.1422 22.0947 18.2374 22.0047 18.3166C21.6207 18.6607 21.295 18.9609 21.0276 19.2123C20.7677 19.4599 20.4804 19.6822 20.1705 19.8754C19.8635 20.0653 19.5239 20.2066 19.1659 20.2934Z" fill="white"/>
</svg>
