<svg width="28" height="26" viewBox="0 0 28 26" fill="none" xmlns="http://www.w3.org/2000/svg">
<path fill-rule="evenodd" clip-rule="evenodd" d="M19.795 17.0869C19.4719 16.9655 19.126 16.903 18.7768 16.903C18.4504 16.886 18.1243 16.9404 17.8254 17.0617C17.5668 17.1761 17.3201 17.3118 17.0883 17.4671C16.8627 17.6172 16.6563 17.7901 16.4729 17.9826C16.2946 18.1711 16.1215 18.344 15.9518 18.4996C15.7977 18.6424 15.6315 18.7738 15.4547 18.8924C15.2761 19.0097 15.0576 19.0642 14.8389 19.046C14.6202 19.0278 14.4159 18.9382 14.2633 18.7934C14.0746 18.6312 13.8872 18.4678 13.701 18.3031C13.461 18.0894 13.1662 17.8317 12.8182 17.5284C12.454 17.2118 12.0923 16.8928 11.7331 16.5714L10.5674 15.528C9.85172 14.8865 9.15992 14.223 8.49323 13.5386C8.2538 13.2973 8.02999 13.0433 7.82298 12.778C7.66184 12.5659 7.58127 12.4103 7.58127 12.3113C7.57132 12.1339 7.63295 11.9594 7.75441 11.821C7.87955 11.6733 8.02868 11.5224 8.19668 11.3653C8.3681 11.2113 8.55495 11.0463 8.75894 10.875C8.96464 10.7021 9.15321 10.5183 9.32291 10.3219C9.49091 10.1254 9.6349 9.90071 9.75147 9.64614C9.86632 9.39471 9.9246 9.10714 9.9246 8.78814C9.92458 8.13969 9.64554 7.51742 9.14806 7.05643C8.82779 6.76823 8.52397 6.46507 8.23782 6.14814C7.91076 5.79113 7.55738 5.4551 7.18015 5.14243C6.81395 4.83522 6.41413 4.5635 5.98706 4.33157C5.59918 4.11633 5.1548 4.00173 4.7014 4C3.99462 4.00043 3.3165 4.2562 2.81405 4.71186C2.3495 5.13771 1.94323 5.518 1.59524 5.85429C1.26128 6.17268 0.964804 6.52242 0.710709 6.89771C0.464457 7.2701 0.283952 7.67582 0.175875 8.09986C0.0500428 8.624 -0.00863724 9.15981 0.00102495 9.69643C0.00102495 10.5639 0.15359 11.4643 0.457006 12.3977C0.760421 13.3296 1.17012 14.2599 1.68781 15.1839C2.2055 16.1094 2.83633 17.0177 3.57687 17.9103C4.31741 18.8013 5.12138 19.6483 5.98706 20.4513C6.85273 21.2527 7.77326 21.9944 8.74694 22.6733C9.7189 23.3521 10.7149 23.9383 11.7331 24.4286C12.7496 24.9204 13.773 25.3039 14.7998 25.582C15.7726 25.8531 16.783 25.9939 17.7997 26C18.3808 25.9997 18.9601 25.9418 19.5276 25.8271C19.9953 25.7304 20.4428 25.5648 20.8527 25.3369C21.247 25.1169 21.6241 24.8466 21.9909 24.5276C22.3578 24.207 22.7675 23.8393 23.2235 23.4213C23.7208 22.9602 23.9998 22.338 24 21.6896C23.9806 21.414 23.9218 21.1419 23.8252 20.8803C23.7249 20.6063 23.576 20.3493 23.3846 20.1197C23.1846 19.879 22.9741 19.6457 22.7538 19.4204C22.5268 19.1873 22.2858 18.9659 22.0321 18.7573C21.7871 18.556 21.5414 18.3553 21.295 18.1554C21.0793 17.9811 20.8695 17.8008 20.6659 17.6149C20.4175 17.3867 20.1213 17.207 19.795 17.0869ZM19.1659 24.2934C18.7187 24.392 18.2595 24.4374 17.7997 24.4286C16.9184 24.4133 16.0437 24.2853 15.2009 24.0483C14.258 23.787 13.3469 23.4374 12.4822 23.0049C10.5597 22.0398 8.80025 20.8239 7.259 19.3953C6.4756 18.669 5.73787 17.9025 5.04938 17.0994C4.38097 16.323 3.79004 15.4931 3.28374 14.6197C2.81186 13.8121 2.42553 12.9649 2.13008 12.0897C1.86163 11.3031 1.72183 10.4844 1.71524 9.66029C1.7148 9.24207 1.7689 8.8253 1.87637 8.41886C1.97408 8.07629 2.12151 7.76829 2.31864 7.49957C2.51406 7.22929 2.75576 6.96686 3.04032 6.71386C3.3266 6.45929 3.6523 6.16386 4.01743 5.82914C4.10631 5.74536 4.21306 5.67924 4.33102 5.6349C4.44899 5.59057 4.57564 5.56896 4.70311 5.57143C4.80939 5.56357 4.97396 5.628 5.1968 5.76786C5.41965 5.90771 5.66136 6.07429 5.9202 6.27071C6.47921 6.69816 6.99499 7.17098 7.46128 7.68343C7.67556 7.91914 7.85383 8.13757 7.99611 8.334C8.13839 8.53043 8.21039 8.68129 8.21039 8.78814C8.22578 8.96614 8.16352 9.14247 8.03725 9.27843C7.91212 9.41043 7.76298 9.56129 7.59499 9.73414C7.42357 9.90543 7.23672 10.0689 7.03273 10.2244C6.82702 10.38 6.63846 10.5639 6.46875 10.776C6.29841 10.9901 6.15466 11.221 6.0402 11.4643C5.91941 11.7332 5.86047 12.0221 5.86706 12.3129C5.87563 12.6476 5.94763 12.9619 6.08134 13.2557C6.21505 13.5511 6.40704 13.8136 6.65731 14.0414L13.0445 19.8981C13.2902 20.1288 13.5842 20.3117 13.9087 20.4359C14.2333 20.5601 14.5818 20.623 14.9335 20.621C15.2552 20.6366 15.5764 20.5828 15.8712 20.4639C16.3862 20.2452 16.8465 19.9317 17.2237 19.543C17.4123 19.3544 17.5837 19.1816 17.7466 19.026C17.906 18.872 18.0723 18.74 18.242 18.6331C18.3982 18.5312 18.585 18.4757 18.7768 18.4744C18.9019 18.4744 19.0716 18.5404 19.2859 18.6709C19.5002 18.8013 19.7368 18.9694 19.9956 19.1737C20.2544 19.378 20.5219 19.6043 20.7996 19.8494C21.0756 20.0946 21.3224 20.3397 21.5367 20.5864C21.7492 20.8316 21.9292 21.0531 22.0715 21.2496C22.2138 21.446 22.2858 21.5953 22.2858 21.7037C22.287 21.818 22.2627 21.9314 22.2144 22.0368C22.166 22.1422 22.0947 22.2374 22.0047 22.3166C21.6207 22.6607 21.295 22.9609 21.0276 23.2123C20.7677 23.4599 20.4804 23.6822 20.1705 23.8754C19.8635 24.0653 19.5239 24.2066 19.1659 24.2934Z" fill="#276899"/>
<path d="M17.6493 6.349C17.5967 6.35087 17.5447 6.36335 17.4965 6.3857C17.4483 6.40804 17.4048 6.4398 17.3686 6.47907C17.3325 6.51834 17.3044 6.56433 17.286 6.61427C17.2676 6.66422 17.2594 6.71712 17.2617 6.7698C17.2641 6.82248 17.277 6.87387 17.2997 6.9209C17.3224 6.96793 17.3545 7.00964 17.3939 7.04355C17.4334 7.07745 17.4794 7.10285 17.5293 7.11823C17.5792 7.13361 17.632 7.13866 17.6844 7.13308L18.9536 7.04298L15.8914 10.4846C15.8213 10.5633 15.7846 10.6661 15.7892 10.7701C15.7939 10.8741 15.8396 10.971 15.9163 11.0393C15.993 11.1077 16.0943 11.142 16.1981 11.1346C16.3019 11.1272 16.3996 11.0788 16.4697 11.0001L19.5319 7.55846L19.5889 8.83074C19.5894 8.88352 19.6005 8.93538 19.6215 8.98323C19.6425 9.03108 19.673 9.07394 19.7112 9.10925C19.7494 9.14456 19.7945 9.1716 19.8438 9.18876C19.8931 9.20591 19.9456 9.21283 19.9982 9.2091C20.0507 9.20537 20.1022 9.19107 20.1497 9.16704C20.1971 9.14302 20.2395 9.10977 20.2743 9.06928C20.3091 9.02879 20.3356 8.98188 20.3523 8.93136C20.3689 8.88083 20.3753 8.82773 20.371 8.77521L20.2716 6.55612C20.2669 6.45217 20.2212 6.35542 20.1446 6.28711C20.068 6.21881 19.9667 6.18455 19.863 6.19184L17.6493 6.349Z" fill="#276899"/>
<path d="M13.7617 4.58238C11.6787 6.75725 11.4866 10.0466 13.1701 12.3386C12.7716 14.1824 12.7716 14.1824 12.7716 14.1824C12.7716 14.1824 12.7716 14.1824 14.5926 13.7087C16.9443 15.3031 20.214 14.9779 22.297 12.803C24.6188 10.3788 24.5913 6.56985 22.2356 4.30096C19.8798 2.03206 16.0835 2.15814 13.7617 4.58238ZM21.4435 11.981C19.5885 13.9177 16.5464 14.0187 14.6644 12.2061C12.7823 10.3934 12.7603 7.3412 14.6152 5.40444C16.4702 3.46769 19.5123 3.36665 21.3943 5.17931C23.2763 6.99196 23.2984 10.0442 21.4435 11.981Z" fill="#276899"/>
</svg>
