<svg width="25" height="25" viewBox="0 0 25 25" fill="none" xmlns="http://www.w3.org/2000/svg">
<path fill-rule="evenodd" clip-rule="evenodd" d="M19.2512 22.5C10.015 22.5 2.5 14.985 2.5 5.74875C2.5 3.9575 3.9575 2.5 5.75 2.5C5.88625 2.5 6.0225 2.5075 6.16 2.52625L7.48625 8.30125C7.26625 8.41625 7.02625 8.54125 6.805 8.6575C5.71625 9.22625 4.93 9.63875 5.3325 10.6413C6.80125 14.825 10.175 18.1987 14.3087 19.6487C15.3675 20.0725 15.7725 19.2825 16.3412 18.195C16.4587 17.9725 16.5837 17.7337 16.6987 17.5137L22.4737 18.84C22.4912 18.9737 22.5 19.1112 22.5 19.25C22.5 21.0425 21.0425 22.5 19.2512 22.5ZM24.92 18.2975C24.87 17.985 24.7913 17.6787 24.6887 17.385C24.5487 16.9787 24.2075 16.6725 23.7887 16.5762L16.3337 14.865C15.9225 14.7737 15.4925 14.89 15.1888 15.1812C15.01 15.3525 15.0062 15.3562 14.1937 16.9087C11.5187 15.69 9.3325 13.5075 8.09375 10.805C9.6425 9.99375 9.6475 9.99 9.81875 9.81125C10.11 9.5075 10.2287 9.07625 10.135 8.66625L8.42375 1.21125C8.32625 0.79125 8.02125 0.45125 7.615 0.31125C7.31875 0.2075 7.01125 0.13 6.70625 0.08125C6.395 0.0275 6.07625 0 5.75 0C2.58 0 0 2.57875 0 5.74875C0 16.3638 8.635 25 19.2512 25C22.4212 25 25 22.42 25 19.25C25 18.9262 24.9725 18.6075 24.92 18.2975Z" fill="#FFB200"/>
</svg>
