<svg width="22" height="17" viewBox="0 0 22 17" fill="none" xmlns="http://www.w3.org/2000/svg">
<path d="M21.2202 9.61947C21.2201 9.61937 21.2201 9.61932 21.2201 9.61922L17.208 0.244777C17.1229 0.0455939 16.8802 -0.0516441 16.6662 0.0275923C16.666 0.0276408 16.6659 0.0276893 16.6657 0.0277864L0.389195 6.05888C0.322817 6.08556 0.265251 6.12816 0.222337 6.18232C0.0869744 6.24777 0.00146 6.37733 0 6.51925V16.6118C0 16.8262 0.186776 17 0.417144 17H17.9372C18.1675 17 18.3543 16.8262 18.3543 16.6118V11.0997L20.9873 10.1239C21.2013 10.0444 21.3056 9.8186 21.2202 9.61947ZM17.52 16.2236H0.834287V6.90743H17.52V16.2236ZM6.96004 6.13302L13.9447 3.54311C14.5681 4.15283 15.4318 4.49938 16.3362 4.50268L17.0328 6.13302H6.96004ZM18.3543 10.2659V6.51925C18.3543 6.30488 18.1675 6.13108 17.9372 6.13108H17.9305L17.0466 4.0652C17.0368 4.04798 17.0253 4.03158 17.0124 4.01629C16.9676 3.82934 16.7816 3.70177 16.5764 3.7174C15.735 3.78877 14.9118 3.45892 14.3894 2.8409C14.2594 2.69159 14.0309 2.65448 13.8542 2.75395C13.8344 2.75613 13.8147 2.75953 13.7954 2.76404L5.26811 5.92379C5.16491 5.96144 5.08237 6.03612 5.03909 6.13108H2.44947L16.5873 0.892642L20.2911 9.54702L18.3543 10.2659Z" fill="white"/>
<path d="M1.96581 13.6029C2.77569 13.8257 3.40944 14.4147 3.64982 15.168C3.70253 15.3325 3.86506 15.4451 4.04944 15.4452C4.07108 15.4439 4.09256 15.4409 4.11368 15.4362C4.1324 15.4412 4.15154 15.4448 4.17083 15.4471H14.1823C14.1995 15.445 14.2165 15.4418 14.2332 15.4374C14.4416 15.4846 14.6516 15.3656 14.7023 15.1717C14.7025 15.171 14.7027 15.1703 14.7029 15.1696C14.9426 14.4154 15.5765 13.8256 16.3869 13.6025C16.5834 13.5466 16.7055 13.3644 16.673 13.1755C16.6786 13.1567 16.6826 13.1375 16.6851 13.1181V10.0126C16.6827 9.99319 16.6785 9.97398 16.6726 9.9552C16.7053 9.7663 16.5831 9.58396 16.3865 9.5282C15.5761 9.30515 14.9424 8.71507 14.7033 7.96075C14.6429 7.77661 14.4451 7.66268 14.2411 7.69446C14.2218 7.68946 14.2021 7.68583 14.1823 7.68359H4.17083C4.14982 7.68592 4.12901 7.6898 4.10868 7.69524C3.90579 7.66515 3.71004 7.77875 3.64982 7.96153C3.40991 8.71551 2.77611 9.30515 1.96581 9.5282C1.76928 9.5841 1.64716 9.76635 1.67965 9.9552C1.67423 9.97407 1.67032 9.99324 1.66797 10.0126V13.1181C1.67037 13.1363 1.67428 13.1543 1.67965 13.172C1.64544 13.3621 1.76782 13.5464 1.96581 13.6029ZM2.50226 10.1702C3.33988 9.85718 4.00376 9.2394 4.34019 8.45995H14.0125C14.3491 9.2394 15.0131 9.85718 15.8508 10.1702V12.9605C15.0135 13.2739 14.3497 13.8915 14.0129 14.6708H4.34019C4.0034 13.8915 3.33962 13.2739 2.50226 12.9605V10.1702Z" fill="white"/>
<path d="M9.17474 13.8944C10.557 13.8944 11.6776 12.8517 11.6776 11.5654C11.6776 10.2791 10.557 9.23633 9.17474 9.23633C7.79243 9.23633 6.67188 10.2791 6.67188 11.5654C6.67323 12.8512 7.793 13.8932 9.17474 13.8944ZM9.17474 10.0127C10.0963 10.0127 10.8433 10.7079 10.8433 11.5654C10.8433 12.4229 10.0963 13.1181 9.17474 13.1181C8.25321 13.1181 7.50616 12.4229 7.50616 11.5654C7.50616 10.7079 8.25321 10.0127 9.17474 10.0127Z" fill="white"/>
<path d="M4.59056 12.1489C4.93611 12.1489 5.21627 11.8882 5.21627 11.5666C5.21627 11.2451 4.93611 10.9844 4.59056 10.9844C4.24501 10.9844 3.96484 11.2451 3.96484 11.5666C3.96484 11.8882 4.24501 12.1489 4.59056 12.1489ZM4.59056 11.3726C4.70574 11.3726 4.79913 11.4595 4.79913 11.5666C4.79913 11.6738 4.70574 11.7607 4.59056 11.7607C4.47538 11.7607 4.38199 11.6738 4.38199 11.5666C4.38199 11.4595 4.47538 11.3726 4.59056 11.3726Z" fill="white"/>
<path d="M13.7663 12.1489C14.1119 12.1489 14.3921 11.8882 14.3921 11.5666C14.3921 11.2451 14.1119 10.9844 13.7663 10.9844C13.4208 10.9844 13.1406 11.2451 13.1406 11.5666C13.1406 11.8882 13.4208 12.1489 13.7663 12.1489ZM13.7663 11.3726C13.8815 11.3726 13.9749 11.4595 13.9749 11.5666C13.9749 11.6738 13.8815 11.7607 13.7663 11.7607C13.6512 11.7607 13.5578 11.6738 13.5578 11.5666C13.5578 11.4595 13.6512 11.3726 13.7663 11.3726Z" fill="white"/>
</svg>
