<svg width="24" height="24" viewBox="0 0 24 24" fill="none" xmlns="http://www.w3.org/2000/svg">
<mask id="path-1-inside-1" fill="white">
<path fill-rule="evenodd" clip-rule="evenodd" d="M18.0269 9.99916L13.9844 5.95102L16.9064 3.02344L20.9474 7.07008L18.0269 9.99916ZM7.62077 20.4318L3.15527 20.8389L3.55127 16.3987L11.9768 7.96143L16.0208 12.0111L7.62077 20.4318ZM23.1058 4.98049L23.1043 4.97899L18.9973 0.86626C17.8858 -0.243787 15.9763 -0.29636 14.9233 0.762616L1.42934 14.2754C0.940344 14.7636 0.637344 15.4125 0.574344 16.099L0.00584403 22.3627C-0.033156 22.8058 0.124344 23.2444 0.439344 23.5599C0.722844 23.8438 1.10534 24 1.49984 24C1.54634 24 1.59134 23.9985 1.63634 23.994L7.89134 23.4247C8.57834 23.3616 9.22484 23.0597 9.71234 22.5715L23.2078 9.05718C24.2998 7.96065 24.2533 6.1311 23.1058 4.98049Z"/>
</mask>
<path fill-rule="evenodd" clip-rule="evenodd" d="M18.0269 9.99916L13.9844 5.95102L16.9064 3.02344L20.9474 7.07008L18.0269 9.99916ZM7.62077 20.4318L3.15527 20.8389L3.55127 16.3987L11.9768 7.96143L16.0208 12.0111L7.62077 20.4318ZM23.1058 4.98049L23.1043 4.97899L18.9973 0.86626C17.8858 -0.243787 15.9763 -0.29636 14.9233 0.762616L1.42934 14.2754C0.940344 14.7636 0.637344 15.4125 0.574344 16.099L0.00584403 22.3627C-0.033156 22.8058 0.124344 23.2444 0.439344 23.5599C0.722844 23.8438 1.10534 24 1.49984 24C1.54634 24 1.59134 23.9985 1.63634 23.994L7.89134 23.4247C8.57834 23.3616 9.22484 23.0597 9.71234 22.5715L23.2078 9.05718C24.2998 7.96065 24.2533 6.1311 23.1058 4.98049Z" fill="#276899"/>
<path d="M18.0269 9.99916L17.6731 10.3525L18.0271 10.707L18.3809 10.3522L18.0269 9.99916ZM13.9844 5.95102L13.6305 5.5978L13.2779 5.95111L13.6306 6.30432L13.9844 5.95102ZM16.9064 3.02344L17.2602 2.67013L16.9063 2.31575L16.5525 2.67022L16.9064 3.02344ZM20.9474 7.07008L21.3014 7.42311L21.6537 7.06981L21.3012 6.71677L20.9474 7.07008ZM7.62077 20.4318L7.66616 20.9297L7.84672 20.9133L7.97476 20.7849L7.62077 20.4318ZM3.15527 20.8389L2.65725 20.7945L2.60403 21.3912L3.20066 21.3368L3.15527 20.8389ZM3.55127 16.3987L3.19747 16.0454L3.06936 16.1737L3.05325 16.3543L3.55127 16.3987ZM11.9768 7.96143L12.3306 7.60812L11.9768 7.25383L11.623 7.60812L11.9768 7.96143ZM16.0208 12.0111L16.3748 12.3642L16.7272 12.0109L16.3746 11.6578L16.0208 12.0111ZM23.1043 4.97899L22.7505 5.3323L22.7506 5.33238L23.1043 4.97899ZM18.9973 0.86626L19.3511 0.512953L19.3507 0.512476L18.9973 0.86626ZM14.9233 0.762616L15.2771 1.11592L15.2779 1.11517L14.9233 0.762616ZM1.42934 14.2754L1.7826 14.6293L1.78314 14.6288L1.42934 14.2754ZM0.574344 16.099L0.0764363 16.0533L0.0763908 16.0538L0.574344 16.099ZM0.00584403 22.3627L-0.492111 22.3175L-0.492231 22.3189L0.00584403 22.3627ZM1.63634 23.994L1.59102 23.496L1.58652 23.4965L1.63634 23.994ZM7.89134 23.4247L7.93666 23.9226L7.93707 23.9226L7.89134 23.4247ZM9.71234 22.5715L9.35854 22.2182L9.71234 22.5715ZM23.2078 9.05718L23.5616 9.41048L23.5621 9.41L23.2078 9.05718ZM18.3807 9.64585L14.3382 5.59771L13.6306 6.30432L17.6731 10.3525L18.3807 9.64585ZM14.3383 6.30423L17.2603 3.37665L16.5525 2.67022L13.6305 5.5978L14.3383 6.30423ZM16.5526 3.37674L20.5936 7.42338L21.3012 6.71677L17.2602 2.67013L16.5526 3.37674ZM20.5933 6.71704L17.6728 9.64612L18.3809 10.3522L21.3014 7.42311L20.5933 6.71704ZM7.57538 19.9339L3.10988 20.3409L3.20066 21.3368L7.66616 20.9297L7.57538 19.9339ZM3.6533 20.8833L4.0493 16.4431L3.05325 16.3543L2.65725 20.7945L3.6533 20.8833ZM3.90507 16.752L12.3306 8.31473L11.623 7.60812L3.19747 16.0454L3.90507 16.752ZM11.623 8.31473L15.667 12.3644L16.3746 11.6578L12.3306 7.60812L11.623 8.31473ZM15.6668 11.658L7.26678 20.0787L7.97476 20.7849L16.3748 12.3642L15.6668 11.658ZM23.4596 4.6271L23.4581 4.6256L22.7506 5.33238L22.7521 5.33388L23.4596 4.6271ZM23.4581 4.62569L19.3511 0.512953L18.6435 1.21957L22.7505 5.3323L23.4581 4.62569ZM19.3507 0.512476C18.0623 -0.77418 15.8351 -0.863401 14.5688 0.410064L15.2779 1.11517C16.1176 0.270681 17.7094 0.286606 18.644 1.22004L19.3507 0.512476ZM14.5695 0.409309L1.07554 13.9221L1.78314 14.6288L15.2771 1.11592L14.5695 0.409309ZM1.07609 13.9216C0.503881 14.4928 0.15007 15.251 0.0764365 16.0533L1.07225 16.1447C1.12462 15.5741 1.37681 15.0344 1.7826 14.6293L1.07609 13.9216ZM0.0763908 16.0538L-0.492109 22.3175L0.503797 22.4079L1.0723 16.1442L0.0763908 16.0538ZM-0.492231 22.3189C-0.544072 22.9079 -0.334779 23.4923 0.0855442 23.9132L0.793144 23.2066C0.583467 22.9966 0.47776 22.7038 0.503919 22.4066L-0.492231 22.3189ZM0.0855442 23.9132C0.463425 24.2916 0.973456 24.5 1.49984 24.5V23.5C1.23723 23.5 0.982263 23.396 0.793144 23.2066L0.0855442 23.9132ZM1.49984 24.5C1.55679 24.5 1.61942 24.4982 1.68616 24.4915L1.58652 23.4965C1.56327 23.4988 1.5359 23.5 1.49984 23.5V24.5ZM1.68166 24.4919L7.93666 23.9226L7.84602 22.9268L1.59102 23.496L1.68166 24.4919ZM7.93707 23.9226C8.7398 23.8489 9.49551 23.4962 10.0661 22.9248L9.35854 22.2182C8.95417 22.6231 8.41689 22.8743 7.84562 22.9268L7.93707 23.9226ZM10.0661 22.9248L23.5616 9.41048L22.854 8.70387L9.35854 22.2182L10.0661 22.9248ZM23.5621 9.41C24.8648 8.10196 24.7852 5.95636 23.4599 4.62742L22.7518 5.33357C23.7215 6.30584 23.7349 7.81934 22.8536 8.70435L23.5621 9.41Z" fill="#232C36" mask="url(#path-1-inside-1)"/>
</svg>
