<svg width="13" height="13" viewBox="0 0 13 13" fill="none" xmlns="http://www.w3.org/2000/svg">
<circle cx="6.5" cy="6.5" r="6.5" fill="#FFB200"/>
<path d="M5.202 3.385H6.66C7.482 3.385 8.082 3.562 8.46 3.916C8.844 4.264 9.036 4.744 9.036 5.356C9.036 6.064 8.829 6.607 8.415 6.985C8.001 7.363 7.386 7.552 6.57 7.552H6.219V10H5.202V3.385ZM6.597 6.661C7.125 6.661 7.494 6.544 7.704 6.31C7.914 6.076 8.019 5.794 8.019 5.464C8.019 5.11 7.917 4.822 7.713 4.6C7.509 4.378 7.167 4.267 6.687 4.267H6.219V6.661H6.597Z" fill="#17212B"/>
</svg>
