<svg width="76" height="75" viewBox="0 0 76 75" fill="none" xmlns="http://www.w3.org/2000/svg">
<g filter="url(#filter0_dd_3971_10424)">
<rect x="4" width="66" height="67" rx="18" fill="#17212B"/>
<path d="M36.6717 55.9042L36.3196 55.864C35.3815 55.7616 34.4682 55.5136 33.6172 55.1303L33.7317 55.1624C33.935 55.2187 34.5905 55.3981 34.6335 55.3365C34.6077 55.2856 34.5447 55.2508 33.5686 54.75L33.2823 54.6108C33.4913 54.5572 33.7718 54.4903 33.9837 54.4448L34.0695 54.4903C34.5934 54.7581 35.1201 54.9188 35.0314 54.6858C34.9611 54.5588 34.8636 54.4467 34.7451 54.3564C34.4373 54.0816 34.0632 53.8804 33.6544 53.7699C32.4893 52.3721 32.1601 51.1536 31.7765 49.7531C31.6821 49.3648 31.6162 48.8373 31.5475 48.4409C31.6162 48.8373 31.6935 49.3621 31.7765 49.7531H31.8452C32.704 49.8468 33.039 49.1908 32.8586 48.5025C32.5723 47.3859 31.141 46.5825 30.3223 47.0726C28.3842 44.9302 27.7459 44.0894 26.4491 42.4371C26.6023 42.2516 26.7117 42.0377 26.77 41.8097C26.8282 41.5816 26.834 41.3446 26.7869 41.1143C26.7372 40.7547 26.605 40.4095 26.3995 40.1021C26.194 39.7948 25.9199 39.5326 25.596 39.3335C25.9077 37.6412 26.3245 35.9674 26.8441 34.3205H26.8699C27.2334 34.3526 27.4682 34.0313 27.4854 33.6992C27.5054 33.3377 27.2735 32.9628 26.8642 32.9869C26.1889 30.7125 25.764 28.3796 25.596 26.0244C26.8441 25.3121 28.2554 24.5033 30.3996 23.4054L30.4511 23.5152C31.2498 24.8541 33.2995 24.1445 33.7518 22.7306C33.7518 22.6824 33.7861 22.6127 33.7976 22.5619C34.1067 21.1426 32.7269 20.2642 31.4158 21.0462C31.3557 21.081 31.2813 21.1319 31.224 21.172C29.8213 19.2359 29.598 18.387 29.3146 17.3132C30.3843 16.2413 31.5321 15.24 32.7498 14.3167C32.9645 14.3675 33.3624 14.1506 33.6086 13.9203C33.8548 13.69 33.9493 13.4838 33.7231 13.4892C33.3682 13.5621 33.0462 13.7361 32.8014 13.9873L33.3166 13.8239L32.7985 13.9873C31.5876 14.3809 31.3672 14.4506 30.6773 14.6862L30.1248 14.8763L30.703 14.6916C30.8175 14.5362 31.1639 14.0596 30.6171 14.156C30.0704 14.2524 28.9282 14.8067 28.1495 15.5538L28.0464 15.6583C26.6695 16.1939 25.9109 16.4991 24.4967 17.174C25.1637 16.4001 25.2181 16.3545 26.5893 15.2057C26.8957 15.0558 27.2048 14.8924 28.0407 14.4184C29.4205 13.6418 29.6324 13.5213 29.6868 13.4517C29.1679 13.5388 28.6778 13.7378 28.2554 14.0328C28.3012 13.998 28.3499 13.9578 28.3928 13.9284C28.7656 13.6808 29.1647 13.4699 29.5837 13.2991L30.0389 13.125H30.0618L29.933 13.1678L29.6123 13.2937L29.432 13.3687L29.2717 13.4356C29.1944 13.4651 28.9854 13.5481 28.8022 13.6338H28.785L29.2946 13.4196C28.8823 13.5896 28.4907 13.8006 28.1266 14.0489C27.9863 14.1185 27.617 14.3006 27.1819 14.5496C26.9693 14.5876 26.7632 14.6525 26.5693 14.7424L26.283 14.9031C26.4836 14.8076 26.6975 14.7391 26.9186 14.6996L26.8584 14.7371C26.2315 15.1307 25.9996 15.3557 26.1056 15.3691H26.1342C24.3393 16.708 24.3393 16.708 23.5263 17.5114C23.3304 17.6266 23.1522 17.7662 22.9967 17.9264C22.2957 18.2023 21.6485 18.5851 21.0815 19.0592L21.2562 18.8691C21.1617 18.9655 21.0672 19.0619 20.9699 19.161L20.7523 19.3939L20.5519 19.6215L20.3201 19.8893C20.2113 20.0152 20.1054 20.1571 20.0023 20.275C20.0395 20.2268 20.0796 20.1785 20.1197 20.133L20.1998 20.0339L20.1483 20.0982C19.8918 20.4613 19.6558 20.8367 19.4412 21.2229C19.3439 21.3488 19.2609 21.4639 19.1779 21.5951C19.0948 21.7264 19.0433 21.8094 18.9975 21.8978C18.4679 22.6556 17.8009 23.6946 17.3343 24.4899C17.3515 24.4417 17.3515 24.4337 17.3343 24.4257C17.3171 24.4176 17.3343 24.4257 17.0938 24.9345L17.3286 24.4284L17.4173 24.2463L17.2856 24.4953C17.2312 24.5917 17.1654 24.7256 17.1654 24.7283L17.2427 24.5596C17.1912 24.6667 17.1396 24.7738 17.091 24.8809L17.0509 24.9666C16.9478 25.1889 16.862 25.387 16.8104 25.5022C16.7933 25.5397 16.7761 25.5798 16.7618 25.6173L16.7217 25.7137C16.673 25.8235 16.6301 25.936 16.5843 26.0485L16.6616 25.8583V25.8798C16.6186 25.9869 16.5957 26.0538 16.5786 26.1101C16.306 26.7574 16.084 27.4223 15.9144 28.0997C16.0633 27.6177 16.2579 27.0527 16.5671 26.169C16.5671 26.169 16.5671 26.169 16.6158 26.0967V26.0806C16.1177 27.8132 15.8686 28.6862 15.86 30.8258C15.2417 32.2585 15.2016 32.9172 15.1272 34.2294C15.1272 34.1839 15.1272 34.141 15.1272 34.0955C15.1272 34.1732 15.1272 34.2508 15.1272 34.3258C15.1272 34.4597 15.1272 34.5936 15.1272 34.7221C15.1501 35.2122 15.1901 35.6996 15.2474 36.1816V36.2593V36.2753C15.2474 36.2593 15.2474 36.2459 15.2474 36.2298C15.2188 35.962 15.1902 35.6782 15.1672 35.3568C15.1672 35.1881 15.1329 34.856 15.1157 34.4918C15.1157 33.0538 15.3591 32.3977 15.8457 31.0856C15.986 32.8744 16.0633 33.8599 16.7045 35.812C16.6191 36.0859 16.6131 36.3762 16.6873 36.6529C16.6873 36.6931 16.7045 36.7332 16.716 36.7707C16.2894 38.2971 16.2894 38.2971 16.278 39.8048C16.2035 39.6495 16.1549 39.5905 16.1348 39.6254C16.1313 39.6439 16.1313 39.663 16.1348 39.6816C15.6167 38.2703 15.5823 38.0749 15.2617 36.2753C15.2789 36.4146 15.2961 36.5431 15.3161 36.6931C15.5108 37.9436 15.548 38.0508 16.1577 39.861C16.205 40.0744 16.2671 40.2846 16.3438 40.4903V40.5198C16.4136 40.8728 16.5025 41.2222 16.61 41.5668L16.5242 41.3526C16.5671 41.4651 16.6129 41.5749 16.6587 41.6873C16.7045 41.7998 16.7475 41.9042 16.7933 42.0113C16.8705 42.1881 16.9478 42.3648 17.028 42.5469C17.0881 42.6755 17.1482 42.8147 17.2112 42.9352L17.2255 42.9593V42.9781V42.9593C17.8524 44.1617 17.9383 44.2768 19.0118 45.6827C19.388 46.3419 19.836 46.9629 20.3487 47.5358C20.6709 47.911 21.0252 48.2612 21.4079 48.5829C22.0062 49.2363 22.8392 50.0691 23.5062 50.6716C23.5062 50.6716 23.5062 50.6716 23.4891 50.6716C23.6459 50.8187 23.8132 50.9556 23.99 51.0813L24.0702 51.1403L23.8269 50.9394L24.0702 51.1403C24.4137 51.408 24.8946 51.7401 25.2496 51.9945L25.616 52.2275C25.1981 51.9597 24.6628 51.566 24.262 51.2742C24.3021 51.3009 24.3192 51.3116 24.325 51.309L24.3078 51.2902C25.4266 52.0559 26.611 52.7339 27.8489 53.3174C27.9634 53.3843 28.098 53.4566 28.2583 53.5343C28.4831 53.7477 28.7532 53.9147 29.0512 54.0243L29.3547 54.1502C29.0523 54.0409 28.7753 53.8782 28.5388 53.6709C28.785 53.786 29.014 53.8931 29.2345 53.9922L28.8165 53.794H28.848C28.9161 53.8271 28.9882 53.8522 29.0627 53.869C28.948 53.7829 28.822 53.7109 28.6877 53.6548C28.6526 53.638 28.6163 53.6236 28.5789 53.6119L28.6447 53.6334C29.0799 53.7699 29.1343 53.786 30.0417 54.0324C32.12 54.9268 32.9788 55.2963 35.79 55.7757C35.79 55.7757 36.0419 55.8212 36.3425 55.8507H36.2223C35.6898 55.7998 35.3635 55.7596 35.0486 55.7168L34.5762 55.6391L34.476 55.6204L34.1382 55.5561L33.7432 55.4811C32.5724 55.2165 31.4241 54.871 30.308 54.4474C31.3766 54.875 32.4842 55.212 33.6172 55.4543L33.4798 55.4276C33.6495 55.4722 33.8215 55.5089 33.9951 55.5373L34.0867 55.5561L33.998 55.5373L34.6163 55.6498L34.0896 55.5588H34.144L34.3672 55.5989C34.8797 55.6927 35.1974 55.7382 35.5123 55.781C35.6612 55.7998 36.1192 55.8587 36.5772 55.9015C36.0963 55.8507 35.9331 55.8319 35.5553 55.781L35.1802 55.7302L35.4665 55.7676C35.9102 55.8212 36.2394 55.8533 36.6116 55.8855L36.8234 55.9069C37.1555 55.939 37.3301 55.9497 37.3473 55.9497C37.1068 55.939 36.8893 55.9283 36.6717 55.9042ZM34.1382 55.5561L34.5161 55.6311C34.2785 55.5882 34.038 55.5427 33.7718 55.4891L34.1382 55.5561ZM16.6358 40.7635C16.6295 40.7464 16.6209 40.7302 16.61 40.7153L16.6329 40.7474C17.5061 41.8748 18.5681 42.5951 19.696 43.3556C19.8118 43.725 19.9803 44.0781 20.197 44.4054C20.2571 44.4991 20.2972 44.558 20.363 44.6464C20.0767 45.5435 20.0767 45.5595 20.0767 46.0282C20.0767 46.1514 20.1025 46.296 20.1197 46.4379C20.0963 46.3023 20.0819 46.1655 20.0767 46.0282C19.3926 45.2489 18.9317 44.8874 18.8372 45.0427C17.6921 43.2485 17.6521 43.1682 16.6616 40.9697C16.6535 40.9021 16.6411 40.835 16.6244 40.7688L16.6358 40.7635ZM17.2484 36.5163C17.2412 36.4433 17.2288 36.3709 17.2112 36.2994L17.0852 36.4842L17.2112 36.2994C18.1215 35.0649 18.6883 34.5668 19.9307 33.4716L19.9508 33.5278C20.0363 33.7646 20.191 33.9742 20.3974 34.133C19.8935 37.4161 19.8792 39.0603 20.3258 42.1292C20.2319 42.0824 20.1247 42.064 20.0191 42.0764C19.9135 42.0889 19.8147 42.1316 19.7361 42.1988L20.6665 43.5913L19.7361 42.1988C18.6983 40.5487 17.8629 38.7943 17.2456 36.9689C17.2664 36.8187 17.2673 36.6667 17.2484 36.5163ZM19.759 21.0355C20.6535 20.0523 21.633 19.1397 22.6875 18.3067C22.6875 18.3951 22.8192 18.3067 22.8822 18.2639C22.8822 18.2639 22.9022 18.2451 22.9108 18.2371C22.6045 18.853 22.6016 18.8744 22.364 19.9857C22.1943 20.1502 22.0419 20.3295 21.9089 20.5213C21.1396 20.6873 20.3876 20.9167 19.6617 21.2069L19.5729 21.247L19.759 21.0355ZM26.4433 19.6028L26.2372 20.208C26.1628 20.4169 26.0912 20.6284 26.0283 20.8079L26.2372 20.208L26.4491 19.6055C27.1018 18.0978 27.139 18.0389 28.1667 16.5125C28.4727 16.4355 28.7629 16.3116 29.0255 16.1457C29.0496 16.1323 29.0709 16.1151 29.0885 16.0948V16.1135C29.0699 16.5323 29.0785 16.9517 29.1142 17.3694C28.4673 18.0389 27.6228 18.9494 27.0016 19.643C26.8282 19.569 26.6325 19.5548 26.4491 19.6028H26.4433ZM25.3555 25.8905C24.8288 26.2091 24.1274 26.6323 23.6064 26.9616C23.5839 26.8768 23.5434 26.7971 23.4874 26.7272C23.4313 26.6573 23.3608 26.5986 23.2801 26.5546C23.2171 26.7233 23.1427 26.9349 23.0711 27.1277L23.2801 26.5546C23.7443 25.3293 24.2863 24.1311 24.9032 22.9662H24.9576C25.1166 22.9777 25.2764 22.9586 25.4271 22.91L25.6046 21.7076L25.4328 22.9073C25.3384 23.8687 25.3384 23.8687 25.3613 25.8905H25.3555ZM26.5321 46.4807L27.1247 46.7191L26.5321 46.4807C24.2906 45.5649 23.5635 45.2168 22.115 44.5205C22.0682 44.3597 22.0118 44.2015 21.9461 44.0465C21.8557 43.8376 21.7505 43.6345 21.6312 43.4387L21.3964 43.6529L21.6312 43.4387C22.4235 42.8043 23.2731 42.2354 24.1704 41.7382L24.2047 41.7918C24.7315 42.5496 25.3269 42.7049 25.5588 42.7371H25.6074C25.9416 43.8728 26.3508 44.9881 26.8327 46.0764C26.738 46.0952 26.6544 46.1467 26.5987 46.2207C26.5429 46.2947 26.5192 46.3857 26.5321 46.4754V46.4807ZM25.5502 49.1934C25.5015 49.1318 25.4614 49.089 25.4385 49.0649L25.3555 49.2095L25.4385 49.0649C25.8336 48.4008 26.243 48.0259 26.9873 47.3484L27.0102 47.3671C27.1154 47.4638 27.235 47.5458 27.3651 47.6108C27.889 49.3086 28.1066 50.0209 29.2545 51.6865C27.5627 50.685 27.2792 50.4949 25.7048 49.4505C25.6665 49.3584 25.6144 49.2719 25.5502 49.1934ZM21.1817 47.4582L20.8955 47.0859C20.6836 46.8048 20.4632 46.5263 20.2399 46.2585C20.2542 46.3683 20.2628 46.4995 20.2771 46.628C20.26 46.4995 20.2428 46.3602 20.2399 46.2585C20.3143 45.4551 20.3287 45.3051 20.5119 44.8874L20.5634 44.9463C21.1359 45.5836 21.6856 45.8755 21.9947 45.6908C21.6598 45.2302 21.2018 44.6196 20.884 44.151L20.7065 44.4937C20.7595 44.3768 20.8187 44.2623 20.884 44.151C21.2018 44.6196 21.6598 45.2221 21.9947 45.6881C22.8239 46.7594 23.7256 47.78 24.6942 48.7435C24.6877 48.8075 24.7017 48.8718 24.7343 48.9283L24.9633 49.0087L24.7343 48.9283C23.5182 48.5151 22.3341 48.0239 21.1903 47.4582H21.1817ZM26.7611 47.0886L26.7926 47.1315C26.1729 47.6276 25.6423 48.2134 25.221 48.8667C25.1041 48.7508 24.9444 48.6809 24.7744 48.6712L25.1294 49.0247L24.7744 48.6712C23.8187 47.7044 22.9304 46.6812 22.115 45.6077C22.1579 45.5435 22.2953 45.3534 22.2066 44.8338C22.2032 44.8104 22.1984 44.7872 22.1923 44.7642C23.9099 45.5944 24.657 45.913 26.5893 46.7084C26.6284 46.843 26.6892 46.9712 26.7697 47.0886H26.7611ZM27.2048 46.4486C27.2649 46.5771 27.3222 46.7164 27.3737 46.8181L27.2048 46.4486ZM23.99 41.3954C23.99 41.4222 24.0129 41.4463 24.0272 41.4731C23.124 41.9713 22.2696 42.543 21.4737 43.1816C21.2273 42.8024 20.8987 42.4759 20.509 42.2229C20.0252 39.0255 20.0968 37.5741 20.5863 34.2374H20.6149C20.7319 34.2715 20.8563 34.2763 20.9758 34.2514C21.0953 34.2265 21.2058 34.1728 21.2962 34.0955L21.3277 34.0714C21.2819 33.9402 21.2275 33.8036 21.1732 33.6456L21.3277 34.0714C22.0855 35.9438 23.0196 37.7495 24.1189 39.4674C23.6293 40.0244 23.7324 40.8277 23.99 41.3954ZM20.1598 31.431L20.446 31.8488C20.5462 31.9961 20.6493 32.1433 20.7323 32.2665L20.446 31.8488L20.1598 31.431C19.6405 30.6653 19.1932 29.8589 18.8229 29.0209C19.0697 28.5824 19.2618 28.1187 19.3954 27.6391C19.5379 27.1558 19.612 26.657 19.6159 26.1556C21.0682 24.7756 22.6331 23.5034 24.2963 22.3503V22.4012C24.3163 22.5129 24.3657 22.6182 24.4402 22.7076C24.5147 22.7969 24.6119 22.8674 24.7229 22.9127C24.0983 24.0754 23.5505 25.2729 23.0826 26.4984C22.5558 26.4743 21.9375 27.133 21.9375 28.0194C21.9361 28.2513 22.0245 28.4758 22.1865 28.6514C21.8774 29.3503 21.5052 30.2956 21.2275 31.0052C20.8554 30.8392 20.4661 30.9945 20.1598 31.431ZM22.3068 20.6204V20.4463V20.6204ZM21.6999 21.5469C21.9862 21.6005 22.4413 21.2149 22.7648 20.8079L22.7934 20.773C23.7696 20.9926 23.8269 21.006 24.5883 21.1479C24.4888 21.3177 24.4101 21.4973 24.3536 21.6835C24.3065 21.835 24.2815 21.9917 24.2792 22.1495C22.6128 23.2901 21.0458 24.5527 19.593 25.9253C19.5911 25.6636 19.5042 25.4087 19.3439 25.1942C20.2342 23.5741 20.3458 23.4188 21.6798 21.5362L21.6999 21.5469ZM28.2297 16.2635L28.6562 15.744L28.2297 16.2635ZM29.2889 15.2941C29.2688 15.345 29.2516 15.4039 29.2345 15.4601V15.4173C29.2496 15.3725 29.2678 15.3287 29.2889 15.2861V15.2941ZM27.6686 16.4188C27.6886 16.4536 27.7401 16.55 27.9548 16.5447H27.9892C27.0646 17.8622 27.0159 17.9639 26.2315 19.6698C25.609 19.9315 25.0853 20.3626 24.7286 20.9069L25.2725 21.0033L24.7286 20.9069C23.6207 20.69 23.5291 20.674 22.9509 20.5374C23.108 20.3173 23.2151 20.0694 23.2658 19.809L22.9223 20.125L22.5759 20.4437L22.9223 20.125L23.2658 19.809C24.6468 18.5865 26.1107 17.4487 27.6485 16.4027L27.6686 16.4188ZM22.5587 19.8331C22.656 19.1717 22.6646 19.1529 23.1112 18.1005C23.1971 18.0255 23.2658 17.9613 23.3001 17.9264L23.3946 17.8327L24.1732 17.431C23.552 18.1969 23.5377 18.2344 22.6932 19.734C22.6102 19.7822 22.5587 19.8251 22.5587 19.8251V19.8331ZM19.4641 21.5014L19.4813 21.4773C20.2125 21.1834 20.9703 20.9513 21.7457 20.7838L21.7285 20.8132C21.5338 21.1881 21.5482 21.3756 21.5968 21.4666C20.4861 22.9689 20.4174 23.0894 19.2494 25.1166C18.7914 24.8488 18.2303 25.5611 18.2275 25.5691C18.4135 24.0909 18.5137 23.3518 19.2179 21.8201C19.2523 21.7853 19.341 21.6728 19.4641 21.4987V21.5014ZM18.1616 27.8052C17.967 28.4934 17.7007 29.4119 17.5404 30.1081H17.5805C17.9984 30.1322 18.3849 29.6931 18.6368 29.3208C18.6511 29.2994 18.6683 29.27 18.6826 29.2512C19.0662 30.1162 19.1206 30.2019 20.0224 31.6613C19.8346 32.0796 19.7675 32.5367 19.8277 32.9869C19.8277 33.0431 19.842 33.094 19.8563 33.169C18.8197 34.0002 17.9036 34.9544 17.131 36.0075C17.1084 35.9466 17.0786 35.8883 17.0423 35.8335C16.9622 33.3886 17.1654 32.2183 17.5404 30.0948C17.6807 29.4065 17.967 28.4907 18.1616 27.8025V27.8052ZM21.3879 47.7447C21.3707 47.7206 21.3506 47.6992 21.3335 47.6778C22.4792 48.2382 23.6653 48.7232 24.8832 49.1292C24.9821 49.2547 25.0986 49.3673 25.2296 49.4639C25.7706 50.6957 25.7792 50.7198 26.3059 51.4161C25.7334 51.1269 25.7334 51.2902 25.762 51.3491C25.7907 51.408 25.762 51.3813 26.6208 51.8847L25.762 51.3732C24.3755 50.4947 23.0607 49.5208 21.8287 48.4597C21.6948 48.2137 21.5477 47.9741 21.3879 47.742V47.7447ZM27.5197 52.2141C27.203 51.97 26.8703 51.7446 26.5235 51.5393C26.6294 51.6571 26.7554 51.8071 26.8756 51.9409L26.5235 51.5393C25.8164 50.4976 25.7076 50.3369 25.45 49.6032H25.47C25.659 49.6862 25.7191 49.6406 25.7363 49.5898L25.3555 49.322L25.7363 49.5898C27.4539 50.7279 27.9463 51.0144 29.4005 51.8686C30.4454 53.0576 30.5055 53.1273 31.3786 53.7914L31.9884 54.1904C31.7708 54.0565 31.5532 53.9226 31.3786 53.7914C30.932 53.6896 31.0007 53.8422 31.0322 53.8931C31.0718 53.9603 31.1343 54.0131 31.2097 54.0431L31.1525 54.0217C29.8728 53.5048 29.7039 53.4272 28.0808 52.6827C27.9025 52.5168 27.7152 52.3595 27.5197 52.2114V52.2141ZM33.0733 54.5037C32.5828 54.243 32.0695 54.0218 31.5389 53.8422C31.7708 53.9922 32.0485 54.1797 32.3204 54.351C32.0497 54.1957 31.7887 54.0258 31.5389 53.8422C30.3251 52.83 30.2793 52.7898 29.6553 52.0186C31.2355 52.905 32.3033 53.4272 33.434 53.9815C33.533 54.1205 33.6604 54.2397 33.809 54.3323C33.5886 54.3778 33.2937 54.4474 33.0733 54.501V54.5037ZM33.5399 53.7646C33.4397 53.7646 33.3911 53.8155 33.3997 53.8904L33.8777 54.1207L33.3997 53.8904C31.7508 53.0871 30.7145 52.506 29.5121 51.8338C28.7049 50.61 28.1209 49.729 27.5999 47.6885H27.6342C27.691 47.7019 27.7503 47.7027 27.8074 47.6909C27.8646 47.679 27.918 47.6548 27.9633 47.6202C28.0087 47.5856 28.0447 47.5415 28.0686 47.4915C28.0925 47.4415 28.1035 47.387 28.1008 47.3323C28.1023 47.3207 28.1023 47.3091 28.1008 47.2975C28.6734 47.5064 29.4148 47.7795 29.9759 47.9857C30.0357 48.2838 30.1679 48.5651 30.3624 48.8078C30.6628 49.2081 31.0846 49.5149 31.5733 49.6888C32.1344 51.9195 32.7498 52.7336 33.5399 53.7619V53.7646ZM30.1906 47.1984C30.0416 47.3575 29.961 47.5627 29.9644 47.7742L31.1095 48.1812L29.9644 47.7742C29.3919 47.5706 28.639 47.2895 28.0722 47.0806C28.0722 47.0485 28.0493 47.0029 28.0293 46.9467C27.9478 46.7418 27.8168 46.5574 27.6464 46.4078C27.4761 46.2582 27.2711 46.1475 27.0474 46.0844C26.5712 44.9946 26.1668 43.8785 25.8365 42.7424H25.8622C26.0055 42.7253 26.1426 42.6777 26.263 42.6032L26.2916 42.5844C27.7917 44.5071 28.4129 45.2195 30.1906 47.1957V47.1984ZM25.513 41.5213L25.7821 41.8882L25.513 41.5213ZM25.367 39.229C25.1948 39.1564 25.0055 39.1267 24.8174 39.1426C24.6294 39.1586 24.4489 39.2197 24.2935 39.3201C23.0224 37.2099 22.4699 36.2592 21.5024 33.9054C21.6985 33.6472 21.8287 33.3504 21.8831 33.0378C21.8831 33.0163 21.8831 32.9896 21.8831 32.9708C23.5377 33.2841 24.8488 33.493 26.3661 33.7367C26.3661 33.7688 26.3661 33.7983 26.3804 33.8304C26.4102 33.9732 26.4862 34.1041 26.5979 34.2053C26.0814 35.8528 25.6704 37.5277 25.367 39.221V39.229ZM24.8402 40.1502L24.5339 39.6843L24.8402 40.1502ZM21.0987 32.8128L21.385 32.8717L21.0987 32.8128ZM27.0588 33.6162L26.9386 33.1984C26.9815 33.3296 27.0245 33.4823 27.0588 33.5974V33.6162ZM26.6266 33.1101C26.5217 33.1925 26.4459 33.3027 26.409 33.426C24.2877 33.094 23.1942 32.8905 21.9289 32.6628C21.9461 32.2772 21.9003 31.5703 21.4136 31.1338C21.2848 31.5328 21.1102 32.0657 20.9785 32.4727L21.4136 31.1338C21.6798 30.4215 22.072 29.4815 22.3669 28.7772L22.4127 28.7933C22.9452 28.9272 23.469 28.3541 23.6207 27.7222C23.6634 27.5557 23.6779 27.384 23.6637 27.2134L23.4633 27.3446L23.6637 27.2134C24.1761 26.8974 24.8574 26.4743 25.3813 26.1663C25.5502 29.0102 26.0512 30.9195 26.6266 33.0993V33.1101ZM25.5989 25.7619C25.5989 24.8836 25.6132 23.7134 25.6676 22.8377C26.1997 22.5702 26.641 22.1684 26.9415 21.6782L26.9729 21.6273C28.4615 21.9352 28.8365 22.0049 30.4082 22.2941L31.662 22.5137L30.4082 22.2941C30.3428 22.4854 30.3099 22.6851 30.3108 22.8859C30.3111 22.9857 30.3216 23.0852 30.3423 23.1831C28.6018 24.0802 27.451 24.6801 25.5989 25.7512V25.7619ZM31.3242 22.9528L32.1057 22.5592L31.3242 22.9528ZM31.0379 21.3622C30.8269 21.5589 30.6536 21.7881 30.5255 22.0397C28.8079 21.7237 28.4758 21.6594 27.1189 21.3809C27.1189 21.3622 27.1418 21.3354 27.1533 21.314C27.2363 21.1319 27.6342 20.1973 27.1247 19.734L26.4061 20.6177C26.6495 20.3098 26.9042 19.9911 27.1247 19.734C27.7172 19.0619 28.5188 18.1808 29.1285 17.5328C29.452 19.0538 30.182 20.1196 31.0265 21.3515L31.0379 21.3622ZM33.2708 13.8775L33.2995 13.9016L33.2708 13.8775ZM32.7327 14.1453C32.7199 14.1652 32.7118 14.1875 32.7089 14.2105C32.7059 14.2336 32.7082 14.257 32.7155 14.2792C31.5146 15.1696 30.3811 16.1368 29.3232 17.174C29.2974 16.7771 29.2974 16.3792 29.3232 15.9823C29.6203 15.7801 29.8998 15.5563 30.1591 15.3128C30.3183 15.1656 30.4683 15.0101 30.6085 14.8469L30.0961 15.0263L30.6085 14.8469C31.9569 14.3702 31.9569 14.3702 32.7212 14.1212L32.7327 14.1453ZM29.223 15.2111L28.6505 15.4199L29.223 15.2111ZM27.909 15.8082L27.8804 15.8457C27.7656 15.9744 27.6904 16.13 27.6629 16.2956C26.1163 17.328 24.6454 18.4561 23.26 19.6724C23.1828 19.4475 22.8736 19.6215 22.8707 19.6242C23.2915 18.7727 23.3116 18.7459 24.3307 17.348C25.4357 16.8258 26.1628 16.4884 27.8947 15.8082H27.909ZM23.6408 17.4685C25.2983 15.9957 25.3069 15.9877 26.2172 15.353C26.2706 15.344 26.3225 15.3287 26.3718 15.3075C25.5731 15.9234 25.513 15.9957 24.3278 17.2436L23.5463 17.6346C23.6179 17.5382 23.6408 17.4846 23.615 17.4685L23.3288 17.7363L23.6408 17.4685ZM20.3287 19.9027C20.3974 19.8224 20.5233 19.6778 20.7094 19.4689L20.8983 19.2627C21.5109 18.7271 21.8945 18.5531 22.8221 18.1139L22.7791 18.1701C21.7265 18.9945 20.7497 19.9001 19.8592 20.8775C19.8592 20.8507 19.8907 20.7838 19.8391 20.8105C19.7594 20.8713 19.6865 20.9395 19.6216 21.0141C19.7933 20.6713 20.0882 20.2294 20.3144 19.9027H20.3287ZM18.9517 22.045C18.9517 22.045 18.9517 22.1066 19.0233 22.045L19.0748 21.9995C19.0748 21.9995 19.0748 21.9834 19.0891 21.9781C18.5166 23.3652 18.2303 24.0615 18.0958 25.7405C18.0958 25.9708 18.0958 26.2386 18.0958 26.5064C18.0958 26.2386 18.0958 25.9708 18.0958 25.7405C17.8747 26.0445 17.6885 26.3694 17.5404 26.7099L17.8496 27.0098C17.7379 26.9081 17.6263 26.8036 17.5404 26.7099C17.1454 26.1743 16.945 25.9065 16.9679 25.371L16.9851 25.3362C17.0538 25.1755 17.1883 24.8675 17.2713 24.6185L17.1282 24.905L17.2713 24.6185C17.7408 23.8419 18.4078 22.8002 18.9374 22.0397L18.9517 22.045ZM16.7188 25.9521C16.7618 25.8664 16.8018 25.778 16.8419 25.6843C16.8497 25.6663 16.8545 25.6474 16.8562 25.628V25.6655C16.8529 26.1646 17.0584 26.6452 17.4288 27.0045C17.5318 27.1036 17.6521 27.2214 17.7752 27.3365C17.6492 27.2241 17.5261 27.1089 17.4288 27.0045C17.2769 27.3934 17.1656 27.7952 17.0967 28.2042C17.0586 28.4256 17.0376 28.6494 17.0337 28.8736C16.6902 29.4092 16.2722 30.1242 15.9745 30.6759C16.0232 28.7987 16.0575 27.9444 16.7045 25.9467L16.7188 25.9521ZM15.9688 30.9383C16.2551 30.3813 16.6902 29.6609 17.028 29.128V29.2164C17.0795 29.669 17.2026 29.9314 17.4259 30.068C16.9307 32.4085 16.9278 33.5894 16.9221 35.7317C16.9083 35.7251 16.8931 35.7217 16.8777 35.7217C16.8623 35.7217 16.8471 35.7251 16.8333 35.7317C16.3123 33.9241 16.0289 32.9306 15.9545 30.9329L15.9688 30.9383ZM16.9192 36.369L16.9679 36.4976L16.9192 36.369ZM16.8562 37.0573L16.8734 37.0867C17.0394 37.3545 17.1597 37.2474 17.1883 37.1885C18.0042 39.4995 18.5595 40.4475 19.6645 42.3354C19.569 42.5886 19.5561 42.8626 19.6273 43.1227L20.5806 43.7011L19.6273 43.1227C17.8181 41.9578 17.2341 41.2803 16.5585 40.4957L16.5242 40.3912C16.5013 40.3189 16.464 40.2118 16.4154 40.0859L16.4383 40.3323L16.4154 40.0859C16.4125 38.6078 16.4125 38.6078 16.8419 37.0519L16.8562 37.0573ZM17.1769 42.7906C17.1425 42.713 17.0566 42.5228 16.9335 42.255L16.7618 41.8587C16.6558 41.5534 16.5671 41.133 16.4927 40.817V40.8331C16.5871 41.0366 16.6301 41.0634 16.6444 41.0634C16.5871 40.9214 16.5127 40.7286 16.4555 40.584L16.6444 41.0634C17.486 42.9861 17.5633 43.1066 18.8258 45.1284C18.8447 45.2715 18.8882 45.4107 18.9546 45.5408C18.0385 44.3652 18.0042 44.309 17.1625 42.7853L17.1769 42.7906ZM20.4775 47.2546C20.5863 47.3644 20.7065 47.4823 20.8325 47.6028C20.8096 47.5813 20.7838 47.5626 20.7638 47.5412C20.6722 47.4582 20.5634 47.3403 20.4775 47.2546C20.801 47.6965 21.2247 48.291 21.5768 48.7141C21.2132 48.2963 20.801 47.6911 20.4775 47.2546ZM21.5768 48.7141L21.6169 48.7435C21.7142 48.8105 22.0033 49.0113 21.9604 48.7677C21.9485 48.7241 21.9341 48.6812 21.9174 48.6391C21.9077 48.6236 21.8991 48.6075 21.8917 48.5909C23.128 49.6501 24.4466 50.6222 25.8365 51.4991C25.9581 51.6407 26.0942 51.7707 26.243 51.8874L26.7182 52.0293L26.243 51.8874C25.4437 51.6578 24.67 51.3565 23.9328 50.9876L23.8612 50.9474L23.9328 50.9876C23.844 50.918 23.7524 50.851 23.6608 50.7841C23.0167 50.2003 22.178 49.3568 21.5768 48.7087V48.7141ZM27.7487 53.2504C26.5105 52.6597 25.327 51.9736 24.2105 51.1992L24.1847 51.1777H24.1675H24.1818C24.913 51.5407 25.6799 51.8367 26.472 52.0615C26.5579 52.123 26.701 52.2302 26.9472 52.3828L27.1676 52.5167C27.444 52.8092 27.7384 53.0864 28.0493 53.3468C27.9451 53.2837 27.8298 53.2384 27.7087 53.2129C27.7087 53.2317 27.7087 53.2317 28.2268 53.4807L27.7487 53.2504ZM28.43 53.5182L28.3671 53.4995L28.43 53.5182L28.3155 53.462C28.0006 53.2106 27.7014 52.9423 27.4195 52.6586L27.4768 52.6881C27.685 52.8022 27.9046 52.8973 28.1323 52.9719C28.6419 53.2665 29.3175 53.6735 29.8499 53.944C29.3232 53.7967 29.3232 53.7967 28.43 53.5236V53.5182ZM29.9702 53.9627C29.4463 53.6735 28.7421 53.296 28.2354 52.98H28.2497C28.3041 52.98 28.3585 52.9585 28.2153 52.8005L28.1953 52.7818C29.4549 53.3763 29.6954 53.4727 31.267 54.1207C31.417 54.2235 31.5738 54.3174 31.7364 54.4019L32.4607 54.5626L31.7364 54.4019C30.9893 54.2171 30.9664 54.2172 29.9702 53.9681V53.9627ZM30.2249 54.0886C30.8834 54.2546 31.0494 54.2921 31.9426 54.501C32.2268 54.6362 32.5182 54.7577 32.8157 54.8652C32.996 54.9295 33.1363 54.9803 33.371 55.0526C34.3214 55.5079 34.8625 55.607 36.0534 55.8266L35.8959 55.8078C33.6487 55.3874 32.7069 55.2133 30.2249 54.094V54.0886Z" fill="#276899"/>
<path d="M37.3283 55.9042L37.6804 55.864C38.6185 55.7616 39.5318 55.5136 40.3828 55.1303L40.2683 55.1624C40.065 55.2187 39.4095 55.3981 39.3665 55.3365C39.3923 55.2856 39.4553 55.2508 40.4314 54.75L40.7177 54.6108C40.5087 54.5572 40.2282 54.4903 40.0163 54.4448L39.9305 54.4903C39.4066 54.7581 38.8799 54.9188 38.9686 54.6858C39.0389 54.5588 39.1364 54.4467 39.2549 54.3564C39.5627 54.0816 39.9368 53.8804 40.3456 53.7699C41.5107 52.3721 41.8399 51.1536 42.2235 49.7531C42.3179 49.3648 42.3838 48.8373 42.4525 48.4409C42.3838 48.8373 42.3065 49.3621 42.2235 49.7531H42.1548C41.296 49.8468 40.961 49.1908 41.1414 48.5025C41.4277 47.3859 42.859 46.5825 43.6777 47.0726C45.6158 44.9302 46.2541 44.0894 47.5509 42.4371C47.3977 42.2516 47.2883 42.0377 47.23 41.8097C47.1718 41.5816 47.166 41.3446 47.2131 41.1143C47.2628 40.7547 47.395 40.4095 47.6005 40.1021C47.806 39.7948 48.0801 39.5326 48.404 39.3335C48.0923 37.6412 47.6755 35.9674 47.1559 34.3205H47.1301C46.7666 34.3526 46.5318 34.0313 46.5146 33.6992C46.4946 33.3377 46.7265 32.9628 47.1358 32.9869C47.8111 30.7125 48.236 28.3796 48.404 26.0244C47.1559 25.3121 45.7446 24.5033 43.6004 23.4054L43.5489 23.5152C42.7502 24.8541 40.7005 24.1445 40.2482 22.7306C40.2482 22.6824 40.2139 22.6127 40.2024 22.5619C39.8933 21.1426 41.2731 20.2642 42.5842 21.0462C42.6443 21.081 42.7187 21.1319 42.776 21.172C44.1787 19.2359 44.402 18.387 44.6854 17.3132C43.6157 16.2413 42.4679 15.24 41.2502 14.3167C41.0355 14.3675 40.6376 14.1506 40.3914 13.9203C40.1452 13.69 40.0507 13.4838 40.2769 13.4892C40.6318 13.5621 40.9538 13.7361 41.1986 13.9873L40.6834 13.8239L41.2015 13.9873C42.4124 14.3809 42.6328 14.4506 43.3227 14.6862L43.8752 14.8763L43.297 14.6916C43.1825 14.5362 42.8361 14.0596 43.3829 14.156C43.9296 14.2524 45.0718 14.8067 45.8505 15.5538L45.9535 15.6583C47.3305 16.1939 48.0891 16.4991 49.5033 17.174C48.8363 16.4001 48.7819 16.3545 47.4107 15.2057C47.1043 15.0558 46.7952 14.8924 45.9593 14.4184C44.5795 13.6418 44.3676 13.5213 44.3132 13.4517C44.8321 13.5388 45.3222 13.7378 45.7446 14.0328C45.6988 13.998 45.6501 13.9578 45.6072 13.9284C45.2344 13.6808 44.8353 13.4699 44.4163 13.2991L43.9611 13.125H43.9382L44.067 13.1678L44.3877 13.2937L44.568 13.3687L44.7283 13.4356C44.8056 13.4651 45.0146 13.5481 45.1978 13.6338H45.215L44.7054 13.4196C45.1177 13.5896 45.5093 13.8006 45.8734 14.0489C46.0137 14.1185 46.383 14.3006 46.8181 14.5496C47.0307 14.5876 47.2368 14.6525 47.4307 14.7424L47.717 14.9031C47.5164 14.8076 47.3025 14.7391 47.0814 14.6996L47.1416 14.7371C47.7685 15.1307 48.0004 15.3557 47.8944 15.3691H47.8658C49.6607 16.708 49.6607 16.708 50.4737 17.5114C50.6696 17.6266 50.8478 17.7662 51.0033 17.9264C51.7043 18.2023 52.3515 18.5851 52.9185 19.0592L52.7438 18.8691C52.8383 18.9655 52.9328 19.0619 53.0301 19.161L53.2477 19.3939L53.448 19.6215L53.6799 19.8893C53.7887 20.0152 53.8946 20.1571 53.9977 20.275C53.9605 20.2268 53.9204 20.1785 53.8803 20.133L53.8002 20.0339L53.8517 20.0982C54.1082 20.4613 54.3442 20.8367 54.5588 21.2229C54.6561 21.3488 54.7391 21.4639 54.8221 21.5951C54.9052 21.7264 54.9567 21.8094 55.0025 21.8978C55.5321 22.6556 56.1991 23.6946 56.6657 24.4899C56.6485 24.4417 56.6485 24.4337 56.6657 24.4257C56.6829 24.4176 56.6657 24.4257 56.9062 24.9345L56.6714 24.4284L56.5827 24.2463L56.7144 24.4953C56.7688 24.5917 56.8346 24.7256 56.8346 24.7283L56.7573 24.5596C56.8088 24.6667 56.8604 24.7738 56.909 24.8809L56.9491 24.9666C57.0522 25.1889 57.138 25.387 57.1896 25.5022C57.2067 25.5397 57.2239 25.5798 57.2382 25.6173L57.2783 25.7137C57.327 25.8235 57.3699 25.936 57.4157 26.0485L57.3384 25.8583V25.8798C57.3814 25.9869 57.4043 26.0538 57.4214 26.1101C57.694 26.7574 57.916 27.4223 58.0856 28.0997C57.9367 27.6177 57.7421 27.0527 57.4329 26.169C57.4329 26.169 57.4329 26.169 57.3842 26.0967V26.0806C57.8823 27.8132 58.1314 28.6862 58.14 30.8258C58.7583 32.2585 58.7984 32.9172 58.8728 34.2294C58.8728 34.1839 58.8728 34.141 58.8728 34.0955C58.8728 34.1732 58.8728 34.2508 58.8728 34.3258C58.8728 34.4597 58.8728 34.5936 58.8728 34.7221C58.8499 35.2122 58.8099 35.6996 58.7526 36.1816V36.2593V36.2753C58.7526 36.2593 58.7526 36.2459 58.7526 36.2298C58.7812 35.962 58.8098 35.6782 58.8328 35.3568C58.8328 35.1881 58.8671 34.856 58.8843 34.4918C58.8843 33.0538 58.6409 32.3977 58.1543 31.0856C58.014 32.8744 57.9367 33.8599 57.2955 35.812C57.3809 36.0859 57.3869 36.3762 57.3127 36.6529C57.3127 36.6931 57.2955 36.7332 57.284 36.7707C57.7106 38.2971 57.7106 38.2971 57.722 39.8048C57.7965 39.6495 57.8451 39.5905 57.8652 39.6254C57.8687 39.6439 57.8687 39.663 57.8652 39.6816C58.3833 38.2703 58.4177 38.0749 58.7383 36.2753C58.7211 36.4146 58.7039 36.5431 58.6839 36.6931C58.4892 37.9436 58.452 38.0508 57.8423 39.861C57.795 40.0744 57.7329 40.2846 57.6562 40.4903V40.5198C57.5864 40.8728 57.4975 41.2222 57.39 41.5668L57.4758 41.3526C57.4329 41.4651 57.3871 41.5749 57.3413 41.6873C57.2955 41.7998 57.2525 41.9042 57.2067 42.0113C57.1295 42.1881 57.0522 42.3648 56.972 42.5469C56.9119 42.6755 56.8518 42.8147 56.7888 42.9352L56.7745 42.9593V42.9781V42.9593C56.1476 44.1617 56.0617 44.2768 54.9882 45.6827C54.612 46.3419 54.164 46.9629 53.6513 47.5358C53.3291 47.911 52.9748 48.2612 52.5921 48.5829C51.9938 49.2363 51.1608 50.0691 50.4938 50.6716C50.4938 50.6716 50.4938 50.6716 50.5109 50.6716C50.3541 50.8187 50.1868 50.9556 50.01 51.0813L49.9298 51.1403L50.1731 50.9394L49.9298 51.1403C49.5863 51.408 49.1054 51.7401 48.7504 51.9945L48.384 52.2275C48.8019 51.9597 49.3372 51.566 49.738 51.2742C49.6979 51.3009 49.6808 51.3116 49.675 51.309L49.6922 51.2902C48.5734 52.0559 47.389 52.7339 46.1511 53.3174C46.0366 53.3843 45.902 53.4566 45.7417 53.5343C45.5169 53.7477 45.2468 53.9147 44.9488 54.0243L44.6453 54.1502C44.9477 54.0409 45.2247 53.8782 45.4612 53.6709C45.215 53.786 44.986 53.8931 44.7655 53.9922L45.1835 53.794H45.152C45.0839 53.8271 45.0118 53.8522 44.9373 53.869C45.052 53.7829 45.178 53.7109 45.3123 53.6548C45.3474 53.638 45.3837 53.6236 45.4211 53.6119L45.3553 53.6334C44.9201 53.7699 44.8657 53.786 43.9583 54.0324C41.88 54.9268 41.0212 55.2963 38.21 55.7757C38.21 55.7757 37.9581 55.8212 37.6575 55.8507H37.7777C38.3102 55.7998 38.6365 55.7596 38.9514 55.7168L39.4238 55.6391L39.524 55.6204L39.8618 55.5561L40.2568 55.4811C41.4276 55.2165 42.5759 54.871 43.692 54.4474C42.6234 54.875 41.5158 55.212 40.3828 55.4543L40.5202 55.4276C40.3505 55.4722 40.1785 55.5089 40.0049 55.5373L39.9133 55.5561L40.002 55.5373L39.3837 55.6498L39.9104 55.5588H39.856L39.6328 55.5989C39.1203 55.6927 38.8026 55.7382 38.4877 55.781C38.3388 55.7998 37.8808 55.8587 37.4228 55.9015C37.9037 55.8507 38.0669 55.8319 38.4447 55.781L38.8197 55.7302L38.5335 55.7676C38.0898 55.8212 37.7606 55.8533 37.3884 55.8855L37.1766 55.9069C36.8445 55.939 36.6699 55.9497 36.6527 55.9497C36.8932 55.939 37.1107 55.9283 37.3283 55.9042ZM39.8618 55.5561L39.4839 55.6311C39.7215 55.5882 39.962 55.5427 40.2282 55.4891L39.8618 55.5561ZM57.3642 40.7635C57.3705 40.7464 57.3791 40.7302 57.39 40.7153L57.3671 40.7474C56.4939 41.8748 55.4319 42.5951 54.304 43.3556C54.1882 43.725 54.0197 44.0781 53.803 44.4054C53.7429 44.4991 53.7028 44.558 53.637 44.6464C53.9233 45.5435 53.9233 45.5595 53.9233 46.0282C53.9233 46.1514 53.8975 46.296 53.8803 46.4379C53.9037 46.3023 53.9181 46.1655 53.9233 46.0282C54.6074 45.2489 55.0683 44.8874 55.1628 45.0427C56.3079 43.2485 56.3479 43.1682 57.3384 40.9697C57.3465 40.9021 57.3589 40.835 57.3756 40.7688L57.3642 40.7635ZM56.7516 36.5163C56.7588 36.4433 56.7712 36.3709 56.7888 36.2994L56.9148 36.4842L56.7888 36.2994C55.8785 35.0649 55.3117 34.5668 54.0693 33.4716L54.0492 33.5278C53.9637 33.7646 53.809 33.9742 53.6026 34.133C54.1065 37.4161 54.1208 39.0603 53.6742 42.1292C53.7681 42.0824 53.8753 42.064 53.9809 42.0764C54.0865 42.0889 54.1853 42.1316 54.2639 42.1988L53.3335 43.5913L54.2639 42.1988C55.3017 40.5487 56.1371 38.7943 56.7544 36.9689C56.7336 36.8187 56.7326 36.6667 56.7516 36.5163ZM54.241 21.0355C53.3465 20.0523 52.367 19.1397 51.3125 18.3067C51.3125 18.3951 51.1808 18.3067 51.1178 18.2639C51.1178 18.2639 51.0978 18.2451 51.0892 18.2371C51.3955 18.853 51.3984 18.8744 51.636 19.9857C51.8057 20.1502 51.9581 20.3295 52.0911 20.5213C52.8604 20.6873 53.6124 20.9167 54.3383 21.2069L54.4271 21.247L54.241 21.0355ZM47.5567 19.6028L47.7628 20.208C47.8372 20.4169 47.9088 20.6284 47.9717 20.8079L47.7628 20.208L47.5509 19.6055C46.8982 18.0978 46.861 18.0389 45.8333 16.5125C45.5273 16.4355 45.2371 16.3116 44.9745 16.1457C44.9504 16.1323 44.9291 16.1151 44.9115 16.0948V16.1135C44.9301 16.5323 44.9215 16.9517 44.8858 17.3694C45.5327 18.0389 46.3772 18.9494 46.9984 19.643C47.1718 19.569 47.3675 19.5548 47.5509 19.6028H47.5567ZM48.6445 25.8905C49.1712 26.2091 49.8726 26.6323 50.3936 26.9616C50.4161 26.8768 50.4566 26.7971 50.5126 26.7272C50.5687 26.6573 50.6392 26.5986 50.7199 26.5546C50.7829 26.7233 50.8573 26.9349 50.9289 27.1277L50.7199 26.5546C50.2557 25.3293 49.7137 24.1311 49.0968 22.9662H49.0424C48.8834 22.9777 48.7236 22.9586 48.5729 22.91L48.3954 21.7076L48.5672 22.9073C48.6616 23.8687 48.6616 23.8687 48.6387 25.8905H48.6445ZM47.4679 46.4807L46.8753 46.7191L47.4679 46.4807C49.7094 45.5649 50.4365 45.2168 51.885 44.5205C51.9318 44.3597 51.9882 44.2015 52.0539 44.0465C52.1443 43.8376 52.2495 43.6345 52.3688 43.4387L52.6036 43.6529L52.3688 43.4387C51.5765 42.8043 50.7269 42.2354 49.8296 41.7382L49.7953 41.7918C49.2685 42.5496 48.6731 42.7049 48.4412 42.7371H48.3926C48.0584 43.8728 47.6492 44.9881 47.1673 46.0764C47.262 46.0952 47.3456 46.1467 47.4013 46.2207C47.4571 46.2947 47.4808 46.3857 47.4679 46.4754V46.4807ZM48.4498 49.1934C48.4985 49.1318 48.5386 49.089 48.5615 49.0649L48.6445 49.2095L48.5615 49.0649C48.1664 48.4008 47.757 48.0259 47.0127 47.3484L46.9898 47.3671C46.8846 47.4638 46.765 47.5458 46.6349 47.6108C46.111 49.3086 45.8934 50.0209 44.7455 51.6865C46.4373 50.685 46.7208 50.4949 48.2952 49.4505C48.3335 49.3584 48.3856 49.2719 48.4498 49.1934ZM52.8183 47.4582L53.1045 47.0859C53.3164 46.8048 53.5368 46.5263 53.7601 46.2585C53.7458 46.3683 53.7372 46.4995 53.7229 46.628C53.74 46.4995 53.7572 46.3602 53.7601 46.2585C53.6857 45.4551 53.6713 45.3051 53.4881 44.8874L53.4366 44.9463C52.8641 45.5836 52.3144 45.8755 52.0053 45.6908C52.3402 45.2302 52.7982 44.6196 53.116 44.151L53.2935 44.4937C53.2405 44.3768 53.1813 44.2623 53.116 44.151C52.7982 44.6196 52.3402 45.2221 52.0053 45.6881C51.1761 46.7594 50.2744 47.78 49.3058 48.7435C49.3123 48.8075 49.2983 48.8718 49.2657 48.9283L49.0367 49.0087L49.2657 48.9283C50.4818 48.5151 51.6659 48.0239 52.8097 47.4582H52.8183ZM47.2389 47.0886L47.2074 47.1315C47.8271 47.6276 48.3577 48.2134 48.779 48.8667C48.8959 48.7508 49.0556 48.6809 49.2256 48.6712L48.8706 49.0247L49.2256 48.6712C50.1813 47.7044 51.0696 46.6812 51.885 45.6077C51.8421 45.5435 51.7047 45.3534 51.7934 44.8338C51.7968 44.8104 51.8016 44.7872 51.8077 44.7642C50.0901 45.5944 49.343 45.913 47.4107 46.7084C47.3716 46.843 47.3108 46.9712 47.2303 47.0886H47.2389ZM46.7952 46.4486C46.7351 46.5771 46.6778 46.7164 46.6263 46.8181L46.7952 46.4486ZM50.01 41.3954C50.01 41.4222 49.9871 41.4463 49.9728 41.4731C50.876 41.9713 51.7304 42.543 52.5263 43.1816C52.7727 42.8024 53.1013 42.4759 53.491 42.2229C53.9748 39.0255 53.9032 37.5741 53.4137 34.2374H53.3851C53.2681 34.2715 53.1437 34.2763 53.0242 34.2514C52.9047 34.2265 52.7942 34.1728 52.7038 34.0955L52.6723 34.0714C52.7181 33.9402 52.7725 33.8036 52.8268 33.6456L52.6723 34.0714C51.9145 35.9438 50.9804 37.7495 49.8811 39.4674C50.3707 40.0244 50.2676 40.8277 50.01 41.3954ZM53.8402 31.431L53.554 31.8488C53.4538 31.9961 53.3507 32.1433 53.2677 32.2665L53.554 31.8488L53.8402 31.431C54.3595 30.6653 54.8068 29.8589 55.1771 29.0209C54.9303 28.5824 54.7382 28.1187 54.6046 27.6391C54.4621 27.1558 54.388 26.657 54.3841 26.1556C52.9318 24.7756 51.3669 23.5034 49.7037 22.3503V22.4012C49.6837 22.5129 49.6343 22.6182 49.5598 22.7076C49.4853 22.7969 49.3881 22.8674 49.2771 22.9127C49.9017 24.0754 50.4495 25.2729 50.9174 26.4984C51.4442 26.4743 52.0625 27.133 52.0625 28.0194C52.0639 28.2513 51.9755 28.4758 51.8135 28.6514C52.1226 29.3503 52.4948 30.2956 52.7725 31.0052C53.1446 30.8392 53.5339 30.9945 53.8402 31.431ZM51.6932 20.6204V20.4463V20.6204ZM52.3001 21.5469C52.0138 21.6005 51.5587 21.2149 51.2352 20.8079L51.2066 20.773C50.2304 20.9926 50.1731 21.006 49.4117 21.1479C49.5112 21.3177 49.5899 21.4973 49.6464 21.6835C49.6935 21.835 49.7185 21.9917 49.7208 22.1495C51.3872 23.2901 52.9542 24.5527 54.407 25.9253C54.4089 25.6636 54.4958 25.4087 54.6561 25.1942C53.7658 23.5741 53.6542 23.4188 52.3202 21.5362L52.3001 21.5469ZM45.7703 16.2635L45.3438 15.744L45.7703 16.2635ZM44.7111 15.2941C44.7312 15.345 44.7484 15.4039 44.7655 15.4601V15.4173C44.7504 15.3725 44.7322 15.3287 44.7111 15.2861V15.2941ZM46.3314 16.4188C46.3114 16.4536 46.2599 16.55 46.0452 16.5447H46.0108C46.9354 17.8622 46.9841 17.9639 47.7685 19.6698C48.391 19.9315 48.9147 20.3626 49.2714 20.9069L48.7275 21.0033L49.2714 20.9069C50.3793 20.69 50.4709 20.674 51.0491 20.5374C50.892 20.3173 50.7849 20.0694 50.7342 19.809L51.0777 20.125L51.4241 20.4437L51.0777 20.125L50.7342 19.809C49.3532 18.5865 47.8893 17.4487 46.3515 16.4027L46.3314 16.4188ZM51.4413 19.8331C51.344 19.1717 51.3354 19.1529 50.8888 18.1005C50.8029 18.0255 50.7342 17.9613 50.6999 17.9264L50.6054 17.8327L49.8268 17.431C50.448 18.1969 50.4623 18.2344 51.3068 19.734C51.3898 19.7822 51.4413 19.8251 51.4413 19.8251V19.8331ZM54.5359 21.5014L54.5187 21.4773C53.7875 21.1834 53.0297 20.9513 52.2543 20.7838L52.2715 20.8132C52.4662 21.1881 52.4518 21.3756 52.4032 21.4666C53.5139 22.9689 53.5826 23.0894 54.7506 25.1166C55.2086 24.8488 55.7697 25.5611 55.7725 25.5691C55.5865 24.0909 55.4863 23.3518 54.7821 21.8201C54.7477 21.7853 54.659 21.6728 54.5359 21.4987V21.5014ZM55.8384 27.8052C56.033 28.4934 56.2993 29.4119 56.4596 30.1081H56.4195C56.0016 30.1322 55.6151 29.6931 55.3632 29.3208C55.3489 29.2994 55.3317 29.27 55.3174 29.2512C54.9338 30.1162 54.8794 30.2019 53.9776 31.6613C54.1654 32.0796 54.2325 32.5367 54.1723 32.9869C54.1723 33.0431 54.158 33.094 54.1437 33.169C55.1803 34.0002 56.0964 34.9544 56.869 36.0075C56.8916 35.9466 56.9214 35.8883 56.9577 35.8335C57.0378 33.3886 56.8346 32.2183 56.4596 30.0948C56.3193 29.4065 56.033 28.4907 55.8384 27.8025V27.8052ZM52.6121 47.7447C52.6293 47.7206 52.6494 47.6992 52.6665 47.6778C51.5208 48.2382 50.3347 48.7232 49.1168 49.1292C49.0179 49.2547 48.9014 49.3673 48.7704 49.4639C48.2294 50.6957 48.2208 50.7198 47.6941 51.4161C48.2666 51.1269 48.2666 51.2902 48.238 51.3491C48.2093 51.408 48.238 51.3813 47.3792 51.8847L48.238 51.3732C49.6245 50.4947 50.9393 49.5208 52.1713 48.4597C52.3052 48.2137 52.4523 47.9741 52.6121 47.742V47.7447ZM46.4803 52.2141C46.797 51.97 47.1297 51.7446 47.4765 51.5393C47.3706 51.6571 47.2446 51.8071 47.1244 51.9409L47.4765 51.5393C48.1836 50.4976 48.2924 50.3369 48.55 49.6032H48.53C48.341 49.6862 48.2809 49.6406 48.2637 49.5898L48.6445 49.322L48.2637 49.5898C46.5461 50.7279 46.0537 51.0144 44.5995 51.8686C43.5546 53.0576 43.4945 53.1273 42.6214 53.7914L42.0116 54.1904C42.2292 54.0565 42.4468 53.9226 42.6214 53.7914C43.068 53.6896 42.9993 53.8422 42.9678 53.8931C42.9282 53.9603 42.8657 54.0131 42.7903 54.0431L42.8475 54.0217C44.1272 53.5048 44.2961 53.4272 45.9192 52.6827C46.0975 52.5168 46.2848 52.3595 46.4803 52.2114V52.2141ZM40.9267 54.5037C41.4172 54.243 41.9305 54.0218 42.4611 53.8422C42.2292 53.9922 41.9515 54.1797 41.6796 54.351C41.9503 54.1957 42.2113 54.0258 42.4611 53.8422C43.6749 52.83 43.7207 52.7898 44.3447 52.0186C42.7645 52.905 41.6967 53.4272 40.566 53.9815C40.467 54.1205 40.3396 54.2397 40.191 54.3323C40.4114 54.3778 40.7063 54.4474 40.9267 54.501V54.5037ZM40.4601 53.7646C40.5603 53.7646 40.6089 53.8155 40.6003 53.8904L40.1223 54.1207L40.6003 53.8904C42.2492 53.0871 43.2855 52.506 44.4879 51.8338C45.2951 50.61 45.8791 49.729 46.4001 47.6885H46.3658C46.309 47.7019 46.2497 47.7027 46.1926 47.6909C46.1354 47.679 46.082 47.6548 46.0367 47.6202C45.9913 47.5856 45.9553 47.5415 45.9314 47.4915C45.9075 47.4415 45.8965 47.387 45.8992 47.3323C45.8977 47.3207 45.8977 47.3091 45.8992 47.2975C45.3266 47.5064 44.5852 47.7795 44.0241 47.9857C43.9643 48.2838 43.8321 48.5651 43.6376 48.8078C43.3372 49.2081 42.9154 49.5149 42.4267 49.6888C41.8656 51.9195 41.2502 52.7336 40.4601 53.7619V53.7646ZM43.8094 47.1984C43.9584 47.3575 44.039 47.5627 44.0356 47.7742L42.8905 48.1812L44.0356 47.7742C44.6081 47.5706 45.361 47.2895 45.9278 47.0806C45.9278 47.0485 45.9507 47.0029 45.9707 46.9467C46.0522 46.7418 46.1832 46.5574 46.3536 46.4078C46.5239 46.2582 46.7289 46.1475 46.9526 46.0844C47.4288 44.9946 47.8332 43.8785 48.1635 42.7424H48.1378C47.9945 42.7253 47.8574 42.6777 47.737 42.6032L47.7084 42.5844C46.2083 44.5071 45.5871 45.2195 43.8094 47.1957V47.1984ZM48.487 41.5213L48.2179 41.8882L48.487 41.5213ZM48.633 39.229C48.8052 39.1564 48.9945 39.1267 49.1826 39.1426C49.3706 39.1586 49.5511 39.2197 49.7065 39.3201C50.9776 37.2099 51.5301 36.2592 52.4976 33.9054C52.3015 33.6472 52.1713 33.3504 52.1169 33.0378C52.1169 33.0163 52.1169 32.9896 52.1169 32.9708C50.4623 33.2841 49.1512 33.493 47.6339 33.7367C47.6339 33.7688 47.6339 33.7983 47.6196 33.8304C47.5898 33.9732 47.5138 34.1041 47.4021 34.2053C47.9186 35.8528 48.3296 37.5277 48.633 39.221V39.229ZM49.1598 40.1502L49.4661 39.6843L49.1598 40.1502ZM52.9013 32.8128L52.615 32.8717L52.9013 32.8128ZM46.9412 33.6162L47.0614 33.1984C47.0185 33.3296 46.9755 33.4823 46.9412 33.5974V33.6162ZM47.3734 33.1101C47.4783 33.1925 47.5541 33.3027 47.591 33.426C49.7122 33.094 50.8058 32.8905 52.0711 32.6628C52.0539 32.2772 52.0997 31.5703 52.5864 31.1338C52.7152 31.5328 52.8898 32.0657 53.0215 32.4727L52.5864 31.1338C52.3202 30.4215 51.928 29.4815 51.6331 28.7772L51.5873 28.7933C51.0548 28.9272 50.531 28.3541 50.3793 27.7222C50.3366 27.5557 50.3221 27.384 50.3363 27.2134L50.5367 27.3446L50.3363 27.2134C49.8239 26.8974 49.1426 26.4743 48.6187 26.1663C48.4498 29.0102 47.9488 30.9195 47.3734 33.0993V33.1101ZM48.4011 25.7619C48.4011 24.8836 48.3868 23.7134 48.3324 22.8377C47.8003 22.5702 47.359 22.1684 47.0585 21.6782L47.0271 21.6273C45.5385 21.9352 45.1635 22.0049 43.5918 22.2941L42.338 22.5137L43.5918 22.2941C43.6572 22.4854 43.6901 22.6851 43.6892 22.8859C43.6889 22.9857 43.6784 23.0852 43.6577 23.1831C45.3982 24.0802 46.549 24.6801 48.4011 25.7512V25.7619ZM42.6758 22.9528L41.8943 22.5592L42.6758 22.9528ZM42.962 21.3622C43.1731 21.5589 43.3464 21.7881 43.4745 22.0397C45.1921 21.7237 45.5241 21.6594 46.8811 21.3809C46.8811 21.3622 46.8582 21.3354 46.8467 21.314C46.7637 21.1319 46.3658 20.1973 46.8753 19.734L47.5939 20.6177C47.3505 20.3098 47.0958 19.9911 46.8753 19.734C46.2828 19.0619 45.4812 18.1808 44.8715 17.5328C44.548 19.0538 43.818 20.1196 42.9735 21.3515L42.962 21.3622ZM40.7292 13.8775L40.7005 13.9016L40.7292 13.8775ZM41.2673 14.1453C41.2801 14.1652 41.2882 14.1875 41.2911 14.2105C41.2941 14.2336 41.2918 14.257 41.2845 14.2792C42.4854 15.1696 43.6189 16.1368 44.6768 17.174C44.7026 16.7771 44.7026 16.3792 44.6768 15.9823C44.3797 15.7801 44.1002 15.5563 43.8409 15.3128C43.6817 15.1656 43.5317 15.0101 43.3915 14.8469L43.9039 15.0263L43.3915 14.8469C42.0431 14.3702 42.0431 14.3702 41.2788 14.1212L41.2673 14.1453ZM44.777 15.2111L45.3495 15.4199L44.777 15.2111ZM46.091 15.8082L46.1196 15.8457C46.2344 15.9744 46.3096 16.13 46.3371 16.2956C47.8837 17.328 49.3546 18.4561 50.74 19.6724C50.8172 19.4475 51.1264 19.6215 51.1293 19.6242C50.7085 18.7727 50.6884 18.7459 49.6693 17.348C48.5643 16.8258 47.8372 16.4884 46.1053 15.8082H46.091ZM50.3592 17.4685C48.7017 15.9957 48.6931 15.9877 47.7828 15.353C47.7294 15.344 47.6775 15.3287 47.6282 15.3075C48.4269 15.9234 48.487 15.9957 49.6722 17.2436L50.4537 17.6346C50.3821 17.5382 50.3592 17.4846 50.385 17.4685L50.6712 17.7363L50.3592 17.4685ZM53.6713 19.9027C53.6026 19.8224 53.4767 19.6778 53.2906 19.4689L53.1017 19.2627C52.489 18.7271 52.1055 18.5531 51.1779 18.1139L51.2209 18.1701C52.2735 18.9945 53.2503 19.9001 54.1408 20.8775C54.1408 20.8507 54.1093 20.7838 54.1609 20.8105C54.2406 20.8713 54.3135 20.9395 54.3784 21.0141C54.2067 20.6713 53.9118 20.2294 53.6856 19.9027H53.6713ZM55.0483 22.045C55.0483 22.045 55.0483 22.1066 54.9767 22.045L54.9252 21.9995C54.9252 21.9995 54.9252 21.9834 54.9109 21.9781C55.4834 23.3652 55.7697 24.0615 55.9042 25.7405C55.9042 25.9708 55.9042 26.2386 55.9042 26.5064C55.9042 26.2386 55.9042 25.9708 55.9042 25.7405C56.1253 26.0445 56.3115 26.3694 56.4596 26.7099L56.1504 27.0098C56.2621 26.9081 56.3737 26.8036 56.4596 26.7099C56.8546 26.1743 57.055 25.9065 57.0321 25.371L57.0149 25.3362C56.9462 25.1755 56.8117 24.8675 56.7287 24.6185L56.8718 24.905L56.7287 24.6185C56.2592 23.8419 55.5922 22.8002 55.0626 22.0397L55.0483 22.045ZM57.2812 25.9521C57.2382 25.8664 57.1982 25.778 57.1581 25.6843C57.1503 25.6663 57.1455 25.6474 57.1438 25.628V25.6655C57.1471 26.1646 56.9416 26.6452 56.5712 27.0045C56.4682 27.1036 56.3479 27.2214 56.2248 27.3365C56.3508 27.2241 56.4739 27.1089 56.5712 27.0045C56.7231 27.3934 56.8344 27.7952 56.9033 28.2042C56.9414 28.4256 56.9624 28.6494 56.9663 28.8736C57.3098 29.4092 57.7278 30.1242 58.0255 30.6759C57.9768 28.7987 57.9425 27.9444 57.2955 25.9467L57.2812 25.9521ZM58.0312 30.9383C57.7449 30.3813 57.3098 29.6609 56.972 29.128V29.2164C56.9205 29.669 56.7974 29.9314 56.5741 30.068C57.0693 32.4085 57.0722 33.5894 57.0779 35.7317C57.0917 35.7251 57.1069 35.7217 57.1223 35.7217C57.1377 35.7217 57.1529 35.7251 57.1667 35.7317C57.6877 33.9241 57.9711 32.9306 58.0455 30.9329L58.0312 30.9383ZM57.0808 36.369L57.0321 36.4976L57.0808 36.369ZM57.1438 37.0573L57.1266 37.0867C56.9606 37.3545 56.8403 37.2474 56.8117 37.1885C55.9958 39.4995 55.4405 40.4475 54.3355 42.3354C54.431 42.5886 54.4439 42.8626 54.3727 43.1227L53.4194 43.7011L54.3727 43.1227C56.1819 41.9578 56.7659 41.2803 57.4415 40.4957L57.4758 40.3912C57.4987 40.3189 57.536 40.2118 57.5846 40.0859L57.5617 40.3323L57.5846 40.0859C57.5875 38.6078 57.5875 38.6078 57.1581 37.0519L57.1438 37.0573ZM56.8231 42.7906C56.8575 42.713 56.9434 42.5228 57.0665 42.255L57.2382 41.8587C57.3442 41.5534 57.4329 41.133 57.5073 40.817V40.8331C57.4129 41.0366 57.3699 41.0634 57.3556 41.0634C57.4129 40.9214 57.4873 40.7286 57.5445 40.584L57.3556 41.0634C56.514 42.9861 56.4367 43.1066 55.1742 45.1284C55.1553 45.2715 55.1118 45.4107 55.0454 45.5408C55.9615 44.3652 55.9958 44.309 56.8375 42.7853L56.8231 42.7906ZM53.5225 47.2546C53.4137 47.3644 53.2935 47.4823 53.1675 47.6028C53.1904 47.5813 53.2162 47.5626 53.2362 47.5412C53.3278 47.4582 53.4366 47.3403 53.5225 47.2546C53.199 47.6965 52.7753 48.291 52.4232 48.7141C52.7868 48.2963 53.199 47.6911 53.5225 47.2546ZM52.4232 48.7141L52.3831 48.7435C52.2858 48.8105 51.9967 49.0113 52.0396 48.7677C52.0515 48.7241 52.0659 48.6812 52.0826 48.6391C52.0923 48.6236 52.1009 48.6075 52.1083 48.5909C50.872 49.6501 49.5534 50.6222 48.1635 51.4991C48.0419 51.6407 47.9058 51.7707 47.757 51.8874L47.2818 52.0293L47.757 51.8874C48.5563 51.6578 49.33 51.3565 50.0672 50.9876L50.1388 50.9474L50.0672 50.9876C50.156 50.918 50.2476 50.851 50.3392 50.7841C50.9833 50.2003 51.822 49.3568 52.4232 48.7087V48.7141ZM46.2513 53.2504C47.4895 52.6597 48.673 51.9736 49.7895 51.1992L49.8153 51.1777H49.8325H49.8182C49.087 51.5407 48.3201 51.8367 47.528 52.0615C47.4421 52.123 47.299 52.2302 47.0528 52.3828L46.8324 52.5167C46.556 52.8092 46.2616 53.0864 45.9507 53.3468C46.0549 53.2837 46.1702 53.2384 46.2913 53.2129C46.2913 53.2317 46.2913 53.2317 45.7732 53.4807L46.2513 53.2504ZM45.57 53.5182L45.6329 53.4995L45.57 53.5182L45.6845 53.462C45.9994 53.2106 46.2986 52.9423 46.5805 52.6586L46.5232 52.6881C46.315 52.8022 46.0954 52.8973 45.8677 52.9719C45.3581 53.2665 44.6825 53.6735 44.1501 53.944C44.6768 53.7967 44.6768 53.7967 45.57 53.5236V53.5182ZM44.0298 53.9627C44.5537 53.6735 45.2579 53.296 45.7646 52.98H45.7503C45.6959 52.98 45.6415 52.9585 45.7847 52.8005L45.8047 52.7818C44.5451 53.3763 44.3046 53.4727 42.733 54.1207C42.5829 54.2235 42.4262 54.3174 42.2636 54.4019L41.5393 54.5626L42.2636 54.4019C43.0107 54.2171 43.0336 54.2172 44.0298 53.9681V53.9627ZM43.7751 54.0886C43.1166 54.2546 42.9506 54.2921 42.0574 54.501C41.7732 54.6362 41.4818 54.7577 41.1843 54.8652C41.004 54.9295 40.8637 54.9803 40.629 55.0526C39.6786 55.5079 39.1375 55.607 37.9466 55.8266L38.1041 55.8078C40.3513 55.3874 41.2931 55.2133 43.7751 54.094V54.0886Z" fill="#276899"/>
<path d="M46.3955 36.6069C45.0996 36.6069 43.8271 36.4054 42.6212 36.0092C42.0304 35.8088 41.304 35.9926 40.9434 36.3609L38.5633 38.1472C35.803 36.6823 34.1027 34.9924 32.6494 32.2687L34.3933 29.964C34.8464 29.5142 35.0089 28.8571 34.8142 28.2405C34.414 27.0353 34.2107 25.7708 34.2107 24.4818C34.2107 23.5505 33.4488 22.793 32.5122 22.793H28.6248C27.6883 22.793 26.9263 23.5505 26.9263 24.4817C26.9263 35.1551 35.6601 43.8384 46.3955 43.8384C47.3321 43.8384 48.0941 43.0808 48.0941 42.1497V38.2956C48.094 37.3645 47.3321 36.6069 46.3955 36.6069Z" fill="white"/>
</g>
<defs>
<filter id="filter0_dd_3971_10424" x="0" y="0" width="76" height="75" filterUnits="userSpaceOnUse" color-interpolation-filters="sRGB">
<feFlood flood-opacity="0" result="BackgroundImageFix"/>
<feColorMatrix in="SourceAlpha" type="matrix" values="0 0 0 0 0 0 0 0 0 0 0 0 0 0 0 0 0 0 127 0" result="hardAlpha"/>
<feOffset dx="2" dy="4"/>
<feGaussianBlur stdDeviation="2"/>
<feColorMatrix type="matrix" values="0 0 0 0 0 0 0 0 0 0 0 0 0 0 0 0 0 0 0.25 0"/>
<feBlend mode="normal" in2="BackgroundImageFix" result="effect1_dropShadow_3971_10424"/>
<feColorMatrix in="SourceAlpha" type="matrix" values="0 0 0 0 0 0 0 0 0 0 0 0 0 0 0 0 0 0 127 0" result="hardAlpha"/>
<feOffset dy="4"/>
<feGaussianBlur stdDeviation="2"/>
<feColorMatrix type="matrix" values="0 0 0 0 0 0 0 0 0 0 0 0 0 0 0 0 0 0 0.25 0"/>
<feBlend mode="normal" in2="effect1_dropShadow_3971_10424" result="effect2_dropShadow_3971_10424"/>
<feBlend mode="normal" in="SourceGraphic" in2="effect2_dropShadow_3971_10424" result="shape"/>
</filter>
</defs>
</svg>
