<svg width="74" height="74" viewBox="0 0 74 74" fill="none" xmlns="http://www.w3.org/2000/svg">
<rect width="74" height="74" rx="37" fill="#67CE67"/>
<path d="M29.7012 44.4141C34.5879 49.3008 40.6875 53.1504 45.7148 53.1504C48.0176 53.1504 49.9863 52.3594 51.6035 50.6191C52.5 49.6699 53.168 48.4395 53.168 47.2617C53.168 46.418 52.8516 45.6094 51.9902 45.0117L46.6289 41.2324C45.8906 40.7227 45.2402 40.4414 44.625 40.4414C43.834 40.4414 43.0957 40.8633 42.2871 41.6543L41.0039 42.9023C40.8105 43.0957 40.582 43.166 40.3359 43.166C40.0898 43.166 39.8613 43.0781 39.668 42.9902C38.6309 42.4453 36.7324 40.9512 34.957 39.1582C33.1641 37.3652 31.6348 35.502 31.125 34.4297C31.0371 34.2363 30.9492 34.0078 30.9492 33.7969C30.9492 33.5684 31.0195 33.3574 31.2129 33.1641L32.4609 31.8457C33.2344 31.002 33.6562 30.2637 33.6562 29.4902C33.6562 28.8574 33.3926 28.207 32.8652 27.4688L29.1738 22.248C28.5586 21.3867 27.6973 21 26.748 21C25.6406 21 24.4453 21.5449 23.4258 22.5469C21.7383 24.1816 21 26.2031 21 28.4355C21 33.4629 24.7969 39.5098 29.7012 44.4141Z" fill="white"/>
</svg>
