<svg width="21" height="23" viewBox="0 0 21 23" fill="none" xmlns="http://www.w3.org/2000/svg">
<rect x="4" width="13" height="23" rx="1" fill="#979797"/>
<rect x="5" y="1" width="11" height="19" rx="1" fill="#D9D9D9"/>
<circle cx="10.5" cy="21.5" r="0.5" fill="#D9D9D9"/>
<rect x="0.95" y="5.95" width="19.1" height="8.1" rx="1.05" fill="#DADADA" stroke="#DADADA" stroke-width="0.1"/>
<path d="M3.94318 13H3.20455L5.34091 7.18182H6.06818L8.20455 13H7.46591L5.72727 8.10227H5.68182L3.94318 13ZM4.21591 10.7273H7.19318V11.3523H4.21591V10.7273ZM9.1108 13V7.18182H11.0767C11.5331 7.18182 11.9063 7.2642 12.196 7.42898C12.4877 7.59186 12.7036 7.8125 12.8438 8.09091C12.9839 8.36932 13.054 8.67992 13.054 9.02273C13.054 9.36553 12.9839 9.67708 12.8438 9.95739C12.7055 10.2377 12.4915 10.4612 12.2017 10.6278C11.9119 10.7926 11.5407 10.875 11.0881 10.875H9.67898V10.25H11.0653C11.3778 10.25 11.6288 10.196 11.8182 10.0881C12.0076 9.98011 12.1449 9.83428 12.2301 9.65057C12.3172 9.46496 12.3608 9.25568 12.3608 9.02273C12.3608 8.78977 12.3172 8.58144 12.2301 8.39773C12.1449 8.21402 12.0066 8.07008 11.8153 7.96591C11.6241 7.85985 11.3703 7.80682 11.054 7.80682H9.81534V13H9.1108ZM14.1889 13V7.18182H16.1548C16.6113 7.18182 16.9844 7.2642 17.2741 7.42898C17.5658 7.59186 17.7817 7.8125 17.9219 8.09091C18.062 8.36932 18.1321 8.67992 18.1321 9.02273C18.1321 9.36553 18.062 9.67708 17.9219 9.95739C17.7836 10.2377 17.5696 10.4612 17.2798 10.6278C16.9901 10.7926 16.6188 10.875 16.1662 10.875H14.7571V10.25H16.1435C16.456 10.25 16.7069 10.196 16.8963 10.0881C17.0857 9.98011 17.223 9.83428 17.3082 9.65057C17.3954 9.46496 17.4389 9.25568 17.4389 9.02273C17.4389 8.78977 17.3954 8.58144 17.3082 8.39773C17.223 8.21402 17.0848 8.07008 16.8935 7.96591C16.7022 7.85985 16.4484 7.80682 16.1321 7.80682H14.8935V13H14.1889Z" fill="#231F20"/>
</svg>
