<svg width="28" height="28" viewBox="0 0 28 28" fill="none" xmlns="http://www.w3.org/2000/svg">
<path d="M23.8995 4.10047C21.2552 1.45627 17.7395 0 14 0C10.2605 0 6.74477 1.45627 4.10047 4.10047C1.45627 6.74477 0 10.2605 0 14C0 17.7395 1.45627 21.2552 4.10047 23.8995C6.74477 26.5437 10.2605 28 14 28C16.5601 28 19.065 27.3024 21.244 25.9824C21.7606 25.6694 21.9258 24.9969 21.6128 24.4803C21.2999 23.9635 20.6273 23.7984 20.1107 24.1114C18.2734 25.2243 16.1604 25.8125 14 25.8125C7.48656 25.8125 2.1875 20.5134 2.1875 14C2.1875 7.48656 7.48656 2.1875 14 2.1875C20.5134 2.1875 25.8125 7.48656 25.8125 14C25.8125 16.3291 25.1199 18.5962 23.8095 20.5562C23.4737 21.0584 23.6086 21.7376 24.1108 22.0734C24.613 22.4091 25.2923 22.2741 25.628 21.772C27.1797 19.4509 28 16.7634 28 14C28 10.2605 26.5437 6.74477 23.8995 4.10047Z" fill="white"/>
<path d="M14 4.15625C13.3959 4.15625 12.9062 4.64592 12.9062 5.25V13.547L8.89557 17.5576C8.4684 17.9847 8.4684 18.6773 8.89557 19.1044C9.10912 19.318 9.38901 19.4248 9.66896 19.4248C9.9489 19.4248 10.2288 19.318 10.4423 19.1044L14.7734 14.7734C14.9785 14.5683 15.0937 14.2901 15.0937 14V5.25C15.0937 4.64592 14.6041 4.15625 14 4.15625Z" fill="white"/>
</svg>
