<svg width="28" height="28" viewBox="0 0 28 28" fill="none" xmlns="http://www.w3.org/2000/svg">
<path d="M6.5625 11.1016H4.4013C4.7664 6.125 8.93189 2.1875 14 2.1875C18.0105 2.1875 21.6394 4.71352 23.0303 8.47323C23.2398 9.03973 23.869 9.32909 24.4356 9.11958C25.0021 8.90996 25.2915 8.28084 25.0819 7.71427C24.253 5.4734 22.7803 3.55584 20.8232 2.16885C18.8211 0.749984 16.4616 0 14 0C10.8448 0 7.87839 1.22872 5.6473 3.4598C3.44531 5.6618 2.22059 8.58014 2.18898 11.6893C0.881836 12.4467 0 13.8602 0 15.4766V19.1953C0 21.6077 1.96263 23.5703 4.375 23.5703H6.5625C7.16658 23.5703 7.65625 23.0806 7.65625 22.4766V12.1953C7.65625 11.5912 7.16658 11.1016 6.5625 11.1016ZM5.46875 21.3828H4.375C3.16881 21.3828 2.1875 20.4015 2.1875 19.1953V15.4766C2.1875 14.2704 3.16881 13.2891 4.375 13.2891H5.46875V21.3828Z" fill="white"/>
<path d="M23.625 11.1016H21.4375C20.8334 11.1016 20.3438 11.5912 20.3438 12.1953V19.6875V22.4766V23.625C20.3438 24.2281 19.8531 24.7188 19.25 24.7188H15.9141V24.7534C15.541 24.0806 14.8238 23.625 14 23.625C12.7919 23.625 11.8125 24.6044 11.8125 25.8125C11.8125 27.0206 12.7919 28 14 28C14.8238 28 15.541 27.5444 15.9141 26.8716V26.9062H19.25C21.0593 26.9062 22.5312 25.4343 22.5312 23.625V23.5703H23.625C26.0374 23.5703 28 21.6077 28 19.1953V15.4766C28 13.0642 26.0374 11.1016 23.625 11.1016ZM25.8125 19.1953C25.8125 20.4015 24.8312 21.3828 23.625 21.3828H22.5312V19.6875V13.2891H23.625C24.8312 13.2891 25.8125 14.2704 25.8125 15.4766V19.1953Z" fill="white"/>
</svg>
