<svg width="19" height="18" viewBox="0 0 19 18" fill="none" xmlns="http://www.w3.org/2000/svg">
<path fill-rule="evenodd" clip-rule="evenodd" d="M10.5726 8.1063L10.5703 1.53154C10.5701 0.932726 10.086 0.448603 9.4872 0.448398C8.88838 0.448191 8.40459 0.931981 8.4048 1.5308L8.40706 8.10556L1.8323 8.1033C1.23348 8.10309 0.74969 8.58688 0.749896 9.1857C0.750101 9.78452 1.23422 10.2686 1.83304 10.2688L8.4078 10.2711L8.41006 16.8459C8.41026 17.4447 8.89439 17.9288 9.49321 17.929C9.79185 17.9291 10.0629 17.8082 10.2589 17.6123C10.4548 17.4163 10.5757 17.1453 10.5756 16.8466L10.5733 10.2719L17.1481 10.2741C17.4468 10.2742 17.7178 10.1533 17.9138 9.95735C18.1097 9.76139 18.2306 9.49035 18.2305 9.19171C18.2303 8.59289 17.7462 8.10877 17.1474 8.10856L10.5726 8.1063Z" fill="white"/>
</svg>
