<svg width="15" height="15" viewBox="0 0 15 15" fill="none" xmlns="http://www.w3.org/2000/svg">
<path fill-rule="evenodd" clip-rule="evenodd" d="M14.0625 6.5625H8.4375V0.9375C8.4375 0.419062 8.0175 0 7.5 0C6.9825 0 6.5625 0.419062 6.5625 0.9375V6.5625H0.9375C0.42 6.5625 0 6.98156 0 7.5C0 8.01844 0.42 8.4375 0.9375 8.4375H6.5625V14.0625C6.5625 14.5809 6.9825 15 7.5 15C8.0175 15 8.4375 14.5809 8.4375 14.0625V8.4375H14.0625C14.58 8.4375 15 8.01844 15 7.5C15 6.98156 14.58 6.5625 14.0625 6.5625Z" fill="#276899"/>
</svg>
