<svg width="6" height="6" viewBox="0 0 6 6" fill="none" xmlns="http://www.w3.org/2000/svg">
<path fill-rule="evenodd" clip-rule="evenodd" d="M1.94998 2.25007C1.94998 1.67107 2.42098 1.20007 2.99998 1.20007C3.57898 1.20007 4.04998 1.67107 4.04998 2.25007C4.04998 2.72407 3.73198 3.12097 3.29998 3.25117V3.60007C3.29998 3.76597 3.16588 3.90007 2.99998 3.90007C2.83408 3.90007 2.69998 3.76597 2.69998 3.60007V3.00007C2.69998 2.83417 2.83408 2.70007 2.99998 2.70007C3.24808 2.70007 3.44998 2.49817 3.44998 2.25007C3.44998 2.00197 3.24808 1.80007 2.99998 1.80007C2.75188 1.80007 2.54998 2.00197 2.54998 2.25007C2.54998 2.41597 2.41588 2.55007 2.24998 2.55007C2.08408 2.55007 1.94998 2.41597 1.94998 2.25007ZM2.70001 4.49995C2.70001 4.33405 2.83411 4.19995 3.00001 4.19995C3.16591 4.19995 3.30001 4.33405 3.30001 4.49995C3.30001 4.66585 3.16591 4.79995 3.00001 4.79995C2.83411 4.79995 2.70001 4.66585 2.70001 4.49995ZM3.00059 5.39985C1.67729 5.39985 0.600586 4.32315 0.600586 2.99985C0.600586 1.67655 1.67729 0.599854 3.00059 0.599854C4.32389 0.599854 5.40059 1.67655 5.40059 2.99985C5.40059 4.32315 4.32389 5.39985 3.00059 5.39985ZM3 0C1.3458 0 0 1.3458 0 3C0 4.6542 1.3458 6 3 6C4.6542 6 6 4.6542 6 3C6 1.3458 4.6542 0 3 0Z" fill="white"/>
</svg>
