<svg width="10" height="10" viewBox="0 0 10 10" fill="none" xmlns="http://www.w3.org/2000/svg">
<path fill-rule="evenodd" clip-rule="evenodd" d="M3.25012 3.74951C3.25012 2.78451 4.03512 1.99951 5.00012 1.99951C5.96512 1.99951 6.75012 2.78451 6.75012 3.74951C6.75012 4.53951 6.22012 5.20101 5.50012 5.41801V5.99951C5.50012 6.27601 5.27662 6.49951 5.00012 6.49951C4.72362 6.49951 4.50012 6.27601 4.50012 5.99951V4.99951C4.50012 4.72301 4.72362 4.49951 5.00012 4.49951C5.41362 4.49951 5.75012 4.16301 5.75012 3.74951C5.75012 3.33601 5.41362 2.99951 5.00012 2.99951C4.58662 2.99951 4.25012 3.33601 4.25012 3.74951C4.25012 4.02601 4.02662 4.24951 3.75012 4.24951C3.47362 4.24951 3.25012 4.02601 3.25012 3.74951ZM4.50024 7.49902C4.50024 7.22252 4.72374 6.99902 5.00024 6.99902C5.27674 6.99902 5.50024 7.22252 5.50024 7.49902C5.50024 7.77552 5.27674 7.99902 5.00024 7.99902C4.72374 7.99902 4.50024 7.77552 4.50024 7.49902ZM5.00098 8.99976C2.79548 8.99976 1.00098 7.20526 1.00098 4.99976C1.00098 2.79426 2.79548 0.999756 5.00098 0.999756C7.20648 0.999756 9.00098 2.79426 9.00098 4.99976C9.00098 7.20526 7.20648 8.99976 5.00098 8.99976ZM5 0C2.243 0 0 2.243 0 5C0 7.757 2.243 10 5 10C7.757 10 10 7.757 10 5C10 2.243 7.757 0 5 0Z" fill="#276899"/>
</svg>
