<svg width="26" height="22" viewBox="0 0 26 22" fill="none" xmlns="http://www.w3.org/2000/svg">
<path d="M2.35538 19.8533C3.65588 19.8533 22.5136 19.8533 22.5136 19.8533V22L26 18.1814L22.5136 14.3628V16.5086C22.5136 16.5086 4.07994 16.5086 2.35579 16.5086C0.631626 16.5086 0.196255 14 0.196255 14C-0.567347 16.9604 1.05488 19.8533 2.35538 19.8533Z" fill="#454D54"/>
<mask id="path-2-inside-1" fill="white">
<path fill-rule="evenodd" clip-rule="evenodd" d="M22.4505 11.3325C22.4505 11.7004 22.1591 11.9991 21.7986 11.9991C21.4381 11.9991 21.1467 11.7004 21.1467 11.3325C21.1467 9.49473 19.6846 7.99959 17.8873 7.99959C16.0901 7.99959 14.628 9.49473 14.628 11.3325C14.628 11.7004 14.3366 11.9991 13.9761 11.9991C13.6156 11.9991 13.3242 11.7004 13.3242 11.3325C13.3242 8.75949 15.3718 6.66643 17.8873 6.66643C20.4029 6.66643 22.4505 8.75949 22.4505 11.3325ZM17.8874 1.50178C18.6064 1.50178 19.1912 2.17445 19.1912 3.0016C19.1912 3.82875 18.6064 4.50142 17.8874 4.50142C17.1684 4.50142 16.5837 3.82875 16.5837 3.0016C16.5837 2.17445 17.1684 1.50178 17.8874 1.50178ZM17.8873 5.99928C19.3254 5.99928 20.4948 4.65394 20.4948 2.99964C20.4948 1.34534 19.3254 0 17.8873 0C16.4493 0 15.2798 1.34534 15.2798 2.99964C15.2798 4.65394 16.4493 5.99928 17.8873 5.99928Z"/>
</mask>
<path fill-rule="evenodd" clip-rule="evenodd" d="M22.4505 11.3325C22.4505 11.7004 22.1591 11.9991 21.7986 11.9991C21.4381 11.9991 21.1467 11.7004 21.1467 11.3325C21.1467 9.49473 19.6846 7.99959 17.8873 7.99959C16.0901 7.99959 14.628 9.49473 14.628 11.3325C14.628 11.7004 14.3366 11.9991 13.9761 11.9991C13.6156 11.9991 13.3242 11.7004 13.3242 11.3325C13.3242 8.75949 15.3718 6.66643 17.8873 6.66643C20.4029 6.66643 22.4505 8.75949 22.4505 11.3325ZM17.8874 1.50178C18.6064 1.50178 19.1912 2.17445 19.1912 3.0016C19.1912 3.82875 18.6064 4.50142 17.8874 4.50142C17.1684 4.50142 16.5837 3.82875 16.5837 3.0016C16.5837 2.17445 17.1684 1.50178 17.8874 1.50178ZM17.8873 5.99928C19.3254 5.99928 20.4948 4.65394 20.4948 2.99964C20.4948 1.34534 19.3254 0 17.8873 0C16.4493 0 15.2798 1.34534 15.2798 2.99964C15.2798 4.65394 16.4493 5.99928 17.8873 5.99928Z" fill="#454D54"/>
<path d="M20.4505 11.3325C20.4505 10.6395 21.0114 9.99907 21.7986 9.99907V13.9991C23.3068 13.9991 24.4505 12.7614 24.4505 11.3325H20.4505ZM21.7986 9.99907C22.5858 9.99907 23.1467 10.6395 23.1467 11.3325H19.1467C19.1467 12.7614 20.2904 13.9991 21.7986 13.9991V9.99907ZM23.1467 11.3325C23.1467 8.43246 20.831 5.99959 17.8873 5.99959V9.99959C18.5382 9.99959 19.1467 10.557 19.1467 11.3325H23.1467ZM17.8873 5.99959C14.9437 5.99959 12.628 8.43246 12.628 11.3325H16.628C16.628 10.557 17.2365 9.99959 17.8873 9.99959V5.99959ZM12.628 11.3325C12.628 10.6395 13.1889 9.99907 13.9761 9.99907V13.9991C15.4843 13.9991 16.628 12.7614 16.628 11.3325H12.628ZM13.9761 9.99907C14.7633 9.99907 15.3242 10.6395 15.3242 11.3325H11.3242C11.3242 12.7614 12.4679 13.9991 13.9761 13.9991V9.99907ZM15.3242 11.3325C15.3242 9.82195 16.518 8.66643 17.8873 8.66643V4.66643C14.2255 4.66643 11.3242 7.69703 11.3242 11.3325H15.3242ZM17.8873 8.66643C19.2567 8.66643 20.4505 9.82195 20.4505 11.3325H24.4505C24.4505 7.69703 21.5491 4.66643 17.8873 4.66643V8.66643ZM17.8874 3.50178C17.5944 3.50178 17.3922 3.36027 17.2995 3.25361C17.21 3.15064 17.1912 3.05599 17.1912 3.0016H21.1912C21.1912 1.34217 19.9649 -0.498223 17.8874 -0.498223V3.50178ZM17.1912 3.0016C17.1912 2.9472 17.21 2.85255 17.2995 2.74958C17.3922 2.64292 17.5944 2.50142 17.8874 2.50142V6.50142C19.9649 6.50142 21.1912 4.66103 21.1912 3.0016H17.1912ZM17.8874 2.50142C18.1805 2.50142 18.3826 2.64292 18.4753 2.74958C18.5648 2.85255 18.5837 2.9472 18.5837 3.0016H14.5837C14.5837 4.66103 15.8099 6.50142 17.8874 6.50142V2.50142ZM18.5837 3.0016C18.5837 3.05599 18.5648 3.15064 18.4753 3.25361C18.3826 3.36027 18.1805 3.50178 17.8874 3.50178V-0.498223C15.8099 -0.498223 14.5837 1.34217 14.5837 3.0016H18.5837ZM17.8873 7.99928C20.6839 7.99928 22.4948 5.48622 22.4948 2.99964H18.4948C18.4948 3.35882 18.3675 3.63912 18.2209 3.80772C18.0776 3.97262 17.9538 3.99928 17.8873 3.99928V7.99928ZM22.4948 2.99964C22.4948 0.51306 20.6839 -2 17.8873 -2V2C17.9538 2 18.0776 2.02666 18.2209 2.19156C18.3675 2.36015 18.4948 2.64046 18.4948 2.99964H22.4948ZM17.8873 -2C15.0908 -2 13.2798 0.51306 13.2798 2.99964H17.2798C17.2798 2.64046 17.4072 2.36015 17.5538 2.19156C17.6971 2.02666 17.8209 2 17.8873 2V-2ZM13.2798 2.99964C13.2798 5.48622 15.0908 7.99928 17.8873 7.99928V3.99928C17.8209 3.99928 17.6971 3.97262 17.5538 3.80772C17.4072 3.63912 17.2798 3.35882 17.2798 2.99964H13.2798Z" fill="#454D54" mask="url(#path-2-inside-1)"/>
<mask id="path-4-inside-2" fill="white">
<path fill-rule="evenodd" clip-rule="evenodd" d="M15.9309 14.3325C15.9309 14.7004 15.6395 14.9991 15.2791 14.9991C14.9186 14.9991 14.6272 14.7004 14.6272 14.3325C14.6272 12.4947 13.165 10.9996 11.3678 10.9996C9.57059 10.9996 8.10844 12.4947 8.10844 14.3325C8.10844 14.7004 7.81705 14.9991 7.45656 14.9991C7.09608 14.9991 6.80469 14.7004 6.80469 14.3325C6.80469 11.7595 8.85223 9.66643 11.3678 9.66643C13.8834 9.66643 15.9309 11.7595 15.9309 14.3325ZM11.3679 4.50178C12.0869 4.50178 12.6716 5.17445 12.6716 6.0016C12.6716 6.82875 12.0869 7.50142 11.3679 7.50142C10.6489 7.50142 10.0641 6.82875 10.0641 6.0016C10.0641 5.17445 10.6489 4.50178 11.3679 4.50178ZM11.3679 8.99928C12.8059 8.99928 13.9754 7.65394 13.9754 5.99964C13.9754 4.34534 12.8059 3 11.3679 3C9.92983 3 8.76037 4.34534 8.76037 5.99964C8.76037 7.65394 9.92983 8.99928 11.3679 8.99928Z"/>
</mask>
<path fill-rule="evenodd" clip-rule="evenodd" d="M15.9309 14.3325C15.9309 14.7004 15.6395 14.9991 15.2791 14.9991C14.9186 14.9991 14.6272 14.7004 14.6272 14.3325C14.6272 12.4947 13.165 10.9996 11.3678 10.9996C9.57059 10.9996 8.10844 12.4947 8.10844 14.3325C8.10844 14.7004 7.81705 14.9991 7.45656 14.9991C7.09608 14.9991 6.80469 14.7004 6.80469 14.3325C6.80469 11.7595 8.85223 9.66643 11.3678 9.66643C13.8834 9.66643 15.9309 11.7595 15.9309 14.3325ZM11.3679 4.50178C12.0869 4.50178 12.6716 5.17445 12.6716 6.0016C12.6716 6.82875 12.0869 7.50142 11.3679 7.50142C10.6489 7.50142 10.0641 6.82875 10.0641 6.0016C10.0641 5.17445 10.6489 4.50178 11.3679 4.50178ZM11.3679 8.99928C12.8059 8.99928 13.9754 7.65394 13.9754 5.99964C13.9754 4.34534 12.8059 3 11.3679 3C9.92983 3 8.76037 4.34534 8.76037 5.99964C8.76037 7.65394 9.92983 8.99928 11.3679 8.99928Z" fill="#454D54"/>
<path d="M13.9309 14.3325C13.9309 13.6395 14.4919 12.9991 15.2791 12.9991V16.9991C16.7872 16.9991 17.9309 15.7614 17.9309 14.3325H13.9309ZM15.2791 12.9991C16.0663 12.9991 16.6272 13.6395 16.6272 14.3325H12.6272C12.6272 15.7614 13.7709 16.9991 15.2791 16.9991V12.9991ZM16.6272 14.3325C16.6272 11.4325 14.3114 8.99959 11.3678 8.99959V12.9996C12.0186 12.9996 12.6272 13.557 12.6272 14.3325H16.6272ZM11.3678 8.99959C8.42419 8.99959 6.10844 11.4325 6.10844 14.3325H10.1084C10.1084 13.557 10.717 12.9996 11.3678 12.9996V8.99959ZM6.10844 14.3325C6.10844 13.6395 6.66936 12.9991 7.45656 12.9991V16.9991C8.96473 16.9991 10.1084 15.7614 10.1084 14.3325H6.10844ZM7.45656 12.9991C8.24376 12.9991 8.80469 13.6395 8.80469 14.3325H4.80469C4.80469 15.7614 5.94839 16.9991 7.45656 16.9991V12.9991ZM8.80469 14.3325C8.80469 12.822 9.99844 11.6664 11.3678 11.6664V7.66643C7.70601 7.66643 4.80469 10.697 4.80469 14.3325H8.80469ZM11.3678 11.6664C12.7372 11.6664 13.9309 12.822 13.9309 14.3325H17.9309C17.9309 10.697 15.0296 7.66643 11.3678 7.66643V11.6664ZM11.3679 6.50178C11.0748 6.50178 10.8727 6.36027 10.7799 6.25361C10.6904 6.15064 10.6716 6.05599 10.6716 6.0016H14.6716C14.6716 4.34217 13.4454 2.50178 11.3679 2.50178V6.50178ZM10.6716 6.0016C10.6716 5.9472 10.6904 5.85255 10.7799 5.74958C10.8727 5.64292 11.0748 5.50142 11.3679 5.50142V9.50142C13.4454 9.50142 14.6716 7.66103 14.6716 6.0016H10.6716ZM11.3679 5.50142C11.6609 5.50142 11.8631 5.64292 11.9558 5.74958C12.0453 5.85255 12.0641 5.9472 12.0641 6.0016H8.06412C8.06412 7.66103 9.29037 9.50142 11.3679 9.50142V5.50142ZM12.0641 6.0016C12.0641 6.05599 12.0453 6.15064 11.9558 6.25361C11.8631 6.36027 11.6609 6.50178 11.3679 6.50178V2.50178C9.29037 2.50178 8.06412 4.34217 8.06412 6.0016H12.0641ZM11.3679 10.9993C14.1644 10.9993 15.9754 8.48622 15.9754 5.99964H11.9754C11.9754 6.35882 11.848 6.63912 11.7014 6.80772C11.5581 6.97262 11.4343 6.99928 11.3679 6.99928V10.9993ZM15.9754 5.99964C15.9754 3.51306 14.1644 1 11.3679 1V5C11.4343 5 11.5581 5.02666 11.7014 5.19156C11.848 5.36015 11.9754 5.64046 11.9754 5.99964H15.9754ZM11.3679 1C8.57135 1 6.76037 3.51306 6.76037 5.99964H10.7604C10.7604 5.64046 10.8877 5.36015 11.0343 5.19156C11.1776 5.02666 11.3014 5 11.3679 5V1ZM6.76037 5.99964C6.76037 8.48622 8.57135 10.9993 11.3679 10.9993V6.99928C11.3014 6.99928 11.1776 6.97262 11.0343 6.80772C10.8877 6.63912 10.7604 6.35882 10.7604 5.99964H6.76037Z" fill="#454D54" mask="url(#path-4-inside-2)"/>
<mask id="path-6-inside-3" fill="white">
<path fill-rule="evenodd" clip-rule="evenodd" d="M9.4114 11.3325C9.4114 11.7004 9.12001 11.9991 8.75953 11.9991C8.39904 11.9991 8.10765 11.7004 8.10765 11.3325C8.10765 9.49473 6.6455 7.99959 4.84828 7.99959C3.05106 7.99959 1.58891 9.49473 1.58891 11.3325C1.58891 11.7004 1.29752 11.9991 0.937031 11.9991C0.576544 11.9991 0.285156 11.7004 0.285156 11.3325C0.285156 8.75949 2.33269 6.66643 4.84828 6.66643C7.36386 6.66643 9.4114 8.75949 9.4114 11.3325ZM4.84839 1.50178C5.56741 1.50178 6.15214 2.17445 6.15214 3.0016C6.15214 3.82875 5.56741 4.50142 4.84839 4.50142C4.12938 4.50142 3.54464 3.82875 3.54464 3.0016C3.54464 2.17445 4.12938 1.50178 4.84839 1.50178ZM4.84834 5.99928C6.28637 5.99928 7.45583 4.65394 7.45583 2.99964C7.45583 1.34534 6.28637 0 4.84834 0C3.4103 0 2.24084 1.34534 2.24084 2.99964C2.24084 4.65394 3.4103 5.99928 4.84834 5.99928Z"/>
</mask>
<path fill-rule="evenodd" clip-rule="evenodd" d="M9.4114 11.3325C9.4114 11.7004 9.12001 11.9991 8.75953 11.9991C8.39904 11.9991 8.10765 11.7004 8.10765 11.3325C8.10765 9.49473 6.6455 7.99959 4.84828 7.99959C3.05106 7.99959 1.58891 9.49473 1.58891 11.3325C1.58891 11.7004 1.29752 11.9991 0.937031 11.9991C0.576544 11.9991 0.285156 11.7004 0.285156 11.3325C0.285156 8.75949 2.33269 6.66643 4.84828 6.66643C7.36386 6.66643 9.4114 8.75949 9.4114 11.3325ZM4.84839 1.50178C5.56741 1.50178 6.15214 2.17445 6.15214 3.0016C6.15214 3.82875 5.56741 4.50142 4.84839 4.50142C4.12938 4.50142 3.54464 3.82875 3.54464 3.0016C3.54464 2.17445 4.12938 1.50178 4.84839 1.50178ZM4.84834 5.99928C6.28637 5.99928 7.45583 4.65394 7.45583 2.99964C7.45583 1.34534 6.28637 0 4.84834 0C3.4103 0 2.24084 1.34534 2.24084 2.99964C2.24084 4.65394 3.4103 5.99928 4.84834 5.99928Z" fill="#454D54"/>
<path d="M7.4114 11.3325C7.4114 10.6395 7.97232 9.99907 8.75953 9.99907V13.9991C10.2677 13.9991 11.4114 12.7614 11.4114 11.3325H7.4114ZM8.75953 9.99907C9.54672 9.99907 10.1076 10.6395 10.1076 11.3325H6.10765C6.10765 12.7614 7.25135 13.9991 8.75953 13.9991V9.99907ZM10.1076 11.3325C10.1076 8.43246 7.79189 5.99959 4.84828 5.99959V9.99959C5.4991 9.99959 6.10765 10.557 6.10765 11.3325H10.1076ZM4.84828 5.99959C1.90466 5.99959 -0.411095 8.43246 -0.411095 11.3325H3.58891C3.58891 10.557 4.19746 9.99959 4.84828 9.99959V5.99959ZM-0.411095 11.3325C-0.411095 10.6395 0.149831 9.99907 0.937031 9.99907V13.9991C2.4452 13.9991 3.58891 12.7614 3.58891 11.3325H-0.411095ZM0.937031 9.99907C1.72423 9.99907 2.28516 10.6395 2.28516 11.3325H-1.71484C-1.71484 12.7614 -0.571142 13.9991 0.937031 13.9991V9.99907ZM2.28516 11.3325C2.28516 9.82195 3.47891 8.66643 4.84828 8.66643V4.66643C1.18648 4.66643 -1.71484 7.69703 -1.71484 11.3325H2.28516ZM4.84828 8.66643C6.21765 8.66643 7.4114 9.82195 7.4114 11.3325H11.4114C11.4114 7.69703 8.51008 4.66643 4.84828 4.66643V8.66643ZM4.84839 3.50178C4.55535 3.50178 4.35318 3.36027 4.26047 3.25361C4.17096 3.15064 4.15214 3.05599 4.15214 3.0016H8.15214C8.15214 1.34217 6.92589 -0.498223 4.84839 -0.498223V3.50178ZM4.15214 3.0016C4.15214 2.9472 4.17096 2.85255 4.26047 2.74958C4.35318 2.64292 4.55535 2.50142 4.84839 2.50142V6.50142C6.92589 6.50142 8.15214 4.66103 8.15214 3.0016H4.15214ZM4.84839 2.50142C5.14144 2.50142 5.3436 2.64292 5.43632 2.74958C5.52582 2.85255 5.54464 2.9472 5.54464 3.0016H1.54464C1.54464 4.66103 2.77089 6.50142 4.84839 6.50142V2.50142ZM5.54464 3.0016C5.54464 3.05599 5.52582 3.15064 5.43632 3.25361C5.3436 3.36027 5.14144 3.50178 4.84839 3.50178V-0.498223C2.77089 -0.498223 1.54464 1.34217 1.54464 3.0016H5.54464ZM4.84834 7.99928C7.64485 7.99928 9.45583 5.48622 9.45583 2.99964H5.45583C5.45583 3.35882 5.32847 3.63912 5.18192 3.80772C5.03857 3.97262 4.9148 3.99928 4.84834 3.99928V7.99928ZM9.45583 2.99964C9.45583 0.51306 7.64485 -2 4.84834 -2V2C4.9148 2 5.03857 2.02666 5.18192 2.19156C5.32847 2.36015 5.45583 2.64046 5.45583 2.99964H9.45583ZM4.84834 -2C2.05182 -2 0.240838 0.51306 0.240838 2.99964H4.24084C4.24084 2.64046 4.3682 2.36015 4.51476 2.19156C4.6581 2.02666 4.78188 2 4.84834 2V-2ZM0.240838 2.99964C0.240838 5.48622 2.05182 7.99928 4.84834 7.99928V3.99928C4.78188 3.99928 4.6581 3.97262 4.51476 3.80772C4.3682 3.63912 4.24084 3.35882 4.24084 2.99964H0.240838Z" fill="#454D54" mask="url(#path-6-inside-3)"/>
</svg>
