<svg width="34" height="30" viewBox="0 0 34 30" fill="none" xmlns="http://www.w3.org/2000/svg">
<g filter="url(#filter0_d)">
<path d="M6.35538 19.8533C7.65588 19.8533 26.5136 19.8533 26.5136 19.8533V22L30 18.1814L26.5136 14.3628V16.5086C26.5136 16.5086 8.07994 16.5086 6.35579 16.5086C4.63163 16.5086 4.19625 14 4.19625 14C3.43265 16.9604 5.05488 19.8533 6.35538 19.8533Z" fill="#8B9095"/>
</g>
<g filter="url(#filter1_d)">
<mask id="path-2-inside-1" fill="white">
<path fill-rule="evenodd" clip-rule="evenodd" d="M26.4502 11.3325C26.4502 11.7004 26.1588 11.9991 25.7983 11.9991C25.4379 11.9991 25.1465 11.7004 25.1465 11.3325C25.1465 9.49473 23.6843 7.99959 21.8871 7.99959C20.0899 7.99959 18.6277 9.49473 18.6277 11.3325C18.6277 11.7004 18.3363 11.9991 17.9758 11.9991C17.6154 11.9991 17.324 11.7004 17.324 11.3325C17.324 8.75949 19.3715 6.66643 21.8871 6.66643C24.4027 6.66643 26.4502 8.75949 26.4502 11.3325ZM21.8872 1.50178C22.6062 1.50178 23.1909 2.17445 23.1909 3.0016C23.1909 3.82875 22.6062 4.50142 21.8872 4.50142C21.1681 4.50142 20.5834 3.82875 20.5834 3.0016C20.5834 2.17445 21.1681 1.50178 21.8872 1.50178ZM21.8871 5.99928C23.3251 5.99928 24.4946 4.65394 24.4946 2.99964C24.4946 1.34534 23.3251 0 21.8871 0C20.4491 0 19.2796 1.34534 19.2796 2.99964C19.2796 4.65394 20.4491 5.99928 21.8871 5.99928Z"/>
</mask>
<path fill-rule="evenodd" clip-rule="evenodd" d="M26.4502 11.3325C26.4502 11.7004 26.1588 11.9991 25.7983 11.9991C25.4379 11.9991 25.1465 11.7004 25.1465 11.3325C25.1465 9.49473 23.6843 7.99959 21.8871 7.99959C20.0899 7.99959 18.6277 9.49473 18.6277 11.3325C18.6277 11.7004 18.3363 11.9991 17.9758 11.9991C17.6154 11.9991 17.324 11.7004 17.324 11.3325C17.324 8.75949 19.3715 6.66643 21.8871 6.66643C24.4027 6.66643 26.4502 8.75949 26.4502 11.3325ZM21.8872 1.50178C22.6062 1.50178 23.1909 2.17445 23.1909 3.0016C23.1909 3.82875 22.6062 4.50142 21.8872 4.50142C21.1681 4.50142 20.5834 3.82875 20.5834 3.0016C20.5834 2.17445 21.1681 1.50178 21.8872 1.50178ZM21.8871 5.99928C23.3251 5.99928 24.4946 4.65394 24.4946 2.99964C24.4946 1.34534 23.3251 0 21.8871 0C20.4491 0 19.2796 1.34534 19.2796 2.99964C19.2796 4.65394 20.4491 5.99928 21.8871 5.99928Z" fill="#8B9095"/>
<path d="M24.4502 11.3325C24.4502 10.6395 25.0111 9.99907 25.7983 9.99907V13.9991C27.3065 13.9991 28.4502 12.7614 28.4502 11.3325H24.4502ZM25.7983 9.99907C26.5855 9.99907 27.1465 10.6395 27.1465 11.3325H23.1465C23.1465 12.7614 24.2902 13.9991 25.7983 13.9991V9.99907ZM27.1465 11.3325C27.1465 8.43246 24.8307 5.99959 21.8871 5.99959V9.99959C22.5379 9.99959 23.1465 10.557 23.1465 11.3325H27.1465ZM21.8871 5.99959C18.9435 5.99959 16.6277 8.43246 16.6277 11.3325H20.6277C20.6277 10.557 21.2363 9.99959 21.8871 9.99959V5.99959ZM16.6277 11.3325C16.6277 10.6395 17.1886 9.99907 17.9758 9.99907V13.9991C19.484 13.9991 20.6277 12.7614 20.6277 11.3325H16.6277ZM17.9758 9.99907C18.763 9.99907 19.324 10.6395 19.324 11.3325H15.324C15.324 12.7614 16.4677 13.9991 17.9758 13.9991V9.99907ZM19.324 11.3325C19.324 9.82195 20.5177 8.66643 21.8871 8.66643V4.66643C18.2253 4.66643 15.324 7.69703 15.324 11.3325H19.324ZM21.8871 8.66643C23.2565 8.66643 24.4502 9.82195 24.4502 11.3325H28.4502C28.4502 7.69703 25.5489 4.66643 21.8871 4.66643V8.66643ZM21.8872 3.50178C21.5941 3.50178 21.392 3.36027 21.2992 3.25361C21.2097 3.15064 21.1909 3.05599 21.1909 3.0016H25.1909C25.1909 1.34217 23.9647 -0.498223 21.8872 -0.498223V3.50178ZM21.1909 3.0016C21.1909 2.9472 21.2097 2.85255 21.2992 2.74958C21.392 2.64292 21.5941 2.50142 21.8872 2.50142V6.50142C23.9647 6.50142 25.1909 4.66103 25.1909 3.0016H21.1909ZM21.8872 2.50142C22.1802 2.50142 22.3824 2.64292 22.4751 2.74958C22.5646 2.85255 22.5834 2.9472 22.5834 3.0016H18.5834C18.5834 4.66103 19.8097 6.50142 21.8872 6.50142V2.50142ZM22.5834 3.0016C22.5834 3.05599 22.5646 3.15064 22.4751 3.25361C22.3824 3.36027 22.1802 3.50178 21.8872 3.50178V-0.498223C19.8097 -0.498223 18.5834 1.34217 18.5834 3.0016H22.5834ZM21.8871 7.99928C24.6836 7.99928 26.4946 5.48622 26.4946 2.99964H22.4946C22.4946 3.35882 22.3672 3.63912 22.2207 3.80772C22.0773 3.97262 21.9536 3.99928 21.8871 3.99928V7.99928ZM26.4946 2.99964C26.4946 0.51306 24.6836 -2 21.8871 -2V2C21.9536 2 22.0773 2.02666 22.2207 2.19156C22.3672 2.36015 22.4946 2.64046 22.4946 2.99964H26.4946ZM21.8871 -2C19.0906 -2 17.2796 0.51306 17.2796 2.99964H21.2796C21.2796 2.64046 21.407 2.36015 21.5535 2.19156C21.6969 2.02666 21.8206 2 21.8871 2V-2ZM17.2796 2.99964C17.2796 5.48622 19.0906 7.99928 21.8871 7.99928V3.99928C21.8206 3.99928 21.6969 3.97262 21.5535 3.80772C21.407 3.63912 21.2796 3.35882 21.2796 2.99964H17.2796Z" fill="#8B9095" mask="url(#path-2-inside-1)"/>
</g>
<g filter="url(#filter2_d)">
<mask id="path-4-inside-2" fill="white">
<path fill-rule="evenodd" clip-rule="evenodd" d="M19.9315 14.3325C19.9315 14.7004 19.6402 14.9991 19.2797 14.9991C18.9192 14.9991 18.6278 14.7004 18.6278 14.3325C18.6278 12.4947 17.1656 10.9996 15.3684 10.9996C13.5712 10.9996 12.109 12.4947 12.109 14.3325C12.109 14.7004 11.8177 14.9991 11.4572 14.9991C11.0967 14.9991 10.8053 14.7004 10.8053 14.3325C10.8053 11.7595 12.8528 9.66643 15.3684 9.66643C17.884 9.66643 19.9315 11.7595 19.9315 14.3325ZM15.3685 4.50178C16.0875 4.50178 16.6722 5.17445 16.6722 6.0016C16.6722 6.82875 16.0875 7.50142 15.3685 7.50142C14.6495 7.50142 14.0647 6.82875 14.0647 6.0016C14.0647 5.17445 14.6495 4.50178 15.3685 4.50178ZM15.3685 8.99928C16.8065 8.99928 17.976 7.65394 17.976 5.99964C17.976 4.34534 16.8065 3 15.3685 3C13.9304 3 12.761 4.34534 12.761 5.99964C12.761 7.65394 13.9304 8.99928 15.3685 8.99928Z"/>
</mask>
<path fill-rule="evenodd" clip-rule="evenodd" d="M19.9315 14.3325C19.9315 14.7004 19.6402 14.9991 19.2797 14.9991C18.9192 14.9991 18.6278 14.7004 18.6278 14.3325C18.6278 12.4947 17.1656 10.9996 15.3684 10.9996C13.5712 10.9996 12.109 12.4947 12.109 14.3325C12.109 14.7004 11.8177 14.9991 11.4572 14.9991C11.0967 14.9991 10.8053 14.7004 10.8053 14.3325C10.8053 11.7595 12.8528 9.66643 15.3684 9.66643C17.884 9.66643 19.9315 11.7595 19.9315 14.3325ZM15.3685 4.50178C16.0875 4.50178 16.6722 5.17445 16.6722 6.0016C16.6722 6.82875 16.0875 7.50142 15.3685 7.50142C14.6495 7.50142 14.0647 6.82875 14.0647 6.0016C14.0647 5.17445 14.6495 4.50178 15.3685 4.50178ZM15.3685 8.99928C16.8065 8.99928 17.976 7.65394 17.976 5.99964C17.976 4.34534 16.8065 3 15.3685 3C13.9304 3 12.761 4.34534 12.761 5.99964C12.761 7.65394 13.9304 8.99928 15.3685 8.99928Z" fill="#8B9095"/>
<path d="M17.9315 14.3325C17.9315 13.6395 18.4925 12.9991 19.2797 12.9991V16.9991C20.7878 16.9991 21.9315 15.7614 21.9315 14.3325H17.9315ZM19.2797 12.9991C20.0669 12.9991 20.6278 13.6395 20.6278 14.3325H16.6278C16.6278 15.7614 17.7715 16.9991 19.2797 16.9991V12.9991ZM20.6278 14.3325C20.6278 11.4325 18.312 8.99959 15.3684 8.99959V12.9996C16.0192 12.9996 16.6278 13.557 16.6278 14.3325H20.6278ZM15.3684 8.99959C12.4248 8.99959 10.109 11.4325 10.109 14.3325H14.109C14.109 13.557 14.7176 12.9996 15.3684 12.9996V8.99959ZM10.109 14.3325C10.109 13.6395 10.67 12.9991 11.4572 12.9991V16.9991C12.9653 16.9991 14.109 15.7614 14.109 14.3325H10.109ZM11.4572 12.9991C12.2444 12.9991 12.8053 13.6395 12.8053 14.3325H8.8053C8.8053 15.7614 9.949 16.9991 11.4572 16.9991V12.9991ZM12.8053 14.3325C12.8053 12.822 13.999 11.6664 15.3684 11.6664V7.66643C11.7066 7.66643 8.8053 10.697 8.8053 14.3325H12.8053ZM15.3684 11.6664C16.7378 11.6664 17.9315 12.822 17.9315 14.3325H21.9315C21.9315 10.697 19.0302 7.66643 15.3684 7.66643V11.6664ZM15.3685 6.50178C15.0754 6.50178 14.8733 6.36027 14.7806 6.25361C14.6911 6.15064 14.6722 6.05599 14.6722 6.0016H18.6722C18.6722 4.34217 17.446 2.50178 15.3685 2.50178V6.50178ZM14.6722 6.0016C14.6722 5.9472 14.6911 5.85255 14.7806 5.74958C14.8733 5.64292 15.0754 5.50142 15.3685 5.50142V9.50142C17.446 9.50142 18.6722 7.66103 18.6722 6.0016H14.6722ZM15.3685 5.50142C15.6615 5.50142 15.8637 5.64292 15.9564 5.74958C16.0459 5.85255 16.0647 5.9472 16.0647 6.0016H12.0647C12.0647 7.66103 13.291 9.50142 15.3685 9.50142V5.50142ZM16.0647 6.0016C16.0647 6.05599 16.0459 6.15064 15.9564 6.25361C15.8637 6.36027 15.6615 6.50178 15.3685 6.50178V2.50178C13.291 2.50178 12.0647 4.34217 12.0647 6.0016H16.0647ZM15.3685 10.9993C18.165 10.9993 19.976 8.48622 19.976 5.99964H15.976C15.976 6.35882 15.8486 6.63912 15.7021 6.80772C15.5587 6.97262 15.4349 6.99928 15.3685 6.99928V10.9993ZM19.976 5.99964C19.976 3.51306 18.165 1 15.3685 1V5C15.4349 5 15.5587 5.02666 15.7021 5.19156C15.8486 5.36015 15.976 5.64046 15.976 5.99964H19.976ZM15.3685 1C12.572 1 10.761 3.51306 10.761 5.99964H14.761C14.761 5.64046 14.8883 5.36015 15.0349 5.19156C15.1782 5.02666 15.302 5 15.3685 5V1ZM10.761 5.99964C10.761 8.48622 12.572 10.9993 15.3685 10.9993V6.99928C15.302 6.99928 15.1782 6.97262 15.0349 6.80772C14.8883 6.63912 14.761 6.35882 14.761 5.99964H10.761Z" fill="#8B9095" mask="url(#path-4-inside-2)"/>
</g>
<g filter="url(#filter3_d)">
<mask id="path-6-inside-3" fill="white">
<path fill-rule="evenodd" clip-rule="evenodd" d="M13.4127 11.3325C13.4127 11.7004 13.1214 11.9991 12.7609 11.9991C12.4004 11.9991 12.109 11.7004 12.109 11.3325C12.109 9.49473 10.6468 7.99959 8.84962 7.99959C7.0524 7.99959 5.59025 9.49473 5.59025 11.3325C5.59025 11.7004 5.29886 11.9991 4.93837 11.9991C4.57789 11.9991 4.2865 11.7004 4.2865 11.3325C4.2865 8.75949 6.33404 6.66643 8.84962 6.66643C11.3652 6.66643 13.4127 8.75949 13.4127 11.3325ZM8.84974 1.50178C9.56875 1.50178 10.1535 2.17445 10.1535 3.0016C10.1535 3.82875 9.56875 4.50142 8.84974 4.50142C8.13072 4.50142 7.54599 3.82875 7.54599 3.0016C7.54599 2.17445 8.13072 1.50178 8.84974 1.50178ZM8.84968 5.99928C10.2877 5.99928 11.4572 4.65394 11.4572 2.99964C11.4572 1.34534 10.2877 0 8.84968 0C7.41164 0 6.24218 1.34534 6.24218 2.99964C6.24218 4.65394 7.41164 5.99928 8.84968 5.99928Z"/>
</mask>
<path fill-rule="evenodd" clip-rule="evenodd" d="M13.4127 11.3325C13.4127 11.7004 13.1214 11.9991 12.7609 11.9991C12.4004 11.9991 12.109 11.7004 12.109 11.3325C12.109 9.49473 10.6468 7.99959 8.84962 7.99959C7.0524 7.99959 5.59025 9.49473 5.59025 11.3325C5.59025 11.7004 5.29886 11.9991 4.93837 11.9991C4.57789 11.9991 4.2865 11.7004 4.2865 11.3325C4.2865 8.75949 6.33404 6.66643 8.84962 6.66643C11.3652 6.66643 13.4127 8.75949 13.4127 11.3325ZM8.84974 1.50178C9.56875 1.50178 10.1535 2.17445 10.1535 3.0016C10.1535 3.82875 9.56875 4.50142 8.84974 4.50142C8.13072 4.50142 7.54599 3.82875 7.54599 3.0016C7.54599 2.17445 8.13072 1.50178 8.84974 1.50178ZM8.84968 5.99928C10.2877 5.99928 11.4572 4.65394 11.4572 2.99964C11.4572 1.34534 10.2877 0 8.84968 0C7.41164 0 6.24218 1.34534 6.24218 2.99964C6.24218 4.65394 7.41164 5.99928 8.84968 5.99928Z" fill="#8B9095"/>
<path d="M11.4127 11.3325C11.4127 10.6395 11.9737 9.99907 12.7609 9.99907V13.9991C14.269 13.9991 15.4127 12.7614 15.4127 11.3325H11.4127ZM12.7609 9.99907C13.5481 9.99907 14.109 10.6395 14.109 11.3325H10.109C10.109 12.7614 11.2527 13.9991 12.7609 13.9991V9.99907ZM14.109 11.3325C14.109 8.43246 11.7932 5.99959 8.84962 5.99959V9.99959C9.50044 9.99959 10.109 10.557 10.109 11.3325H14.109ZM8.84962 5.99959C5.90601 5.99959 3.59025 8.43246 3.59025 11.3325H7.59025C7.59025 10.557 8.1988 9.99959 8.84962 9.99959V5.99959ZM3.59025 11.3325C3.59025 10.6395 4.15117 9.99907 4.93837 9.99907V13.9991C6.44655 13.9991 7.59025 12.7614 7.59025 11.3325H3.59025ZM4.93837 9.99907C5.72557 9.99907 6.2865 10.6395 6.2865 11.3325H2.2865C2.2865 12.7614 3.4302 13.9991 4.93837 13.9991V9.99907ZM6.2865 11.3325C6.2865 9.82195 7.48025 8.66643 8.84962 8.66643V4.66643C5.18782 4.66643 2.2865 7.69703 2.2865 11.3325H6.2865ZM8.84962 8.66643C10.219 8.66643 11.4127 9.82195 11.4127 11.3325H15.4127C15.4127 7.69703 12.5114 4.66643 8.84962 4.66643V8.66643ZM8.84974 3.50178C8.55669 3.50178 8.35453 3.36027 8.26181 3.25361C8.1723 3.15064 8.15348 3.05599 8.15348 3.0016H12.1535C12.1535 1.34217 10.9272 -0.498223 8.84974 -0.498223V3.50178ZM8.15348 3.0016C8.15348 2.9472 8.1723 2.85255 8.26181 2.74958C8.35453 2.64292 8.55669 2.50142 8.84974 2.50142V6.50142C10.9272 6.50142 12.1535 4.66103 12.1535 3.0016H8.15348ZM8.84974 2.50142C9.14278 2.50142 9.34494 2.64292 9.43766 2.74958C9.52717 2.85255 9.54599 2.9472 9.54599 3.0016H5.54599C5.54599 4.66103 6.77223 6.50142 8.84974 6.50142V2.50142ZM9.54599 3.0016C9.54599 3.05599 9.52717 3.15064 9.43766 3.25361C9.34494 3.36027 9.14278 3.50178 8.84974 3.50178V-0.498223C6.77223 -0.498223 5.54599 1.34217 5.54599 3.0016H9.54599ZM8.84968 7.99928C11.6462 7.99928 13.4572 5.48622 13.4572 2.99964H9.45718C9.45718 3.35882 9.32981 3.63912 9.18326 3.80772C9.03992 3.97262 8.91614 3.99928 8.84968 3.99928V7.99928ZM13.4572 2.99964C13.4572 0.51306 11.6462 -2 8.84968 -2V2C8.91614 2 9.03992 2.02666 9.18326 2.19156C9.32981 2.36015 9.45718 2.64046 9.45718 2.99964H13.4572ZM8.84968 -2C6.05316 -2 4.24218 0.51306 4.24218 2.99964H8.24218C8.24218 2.64046 8.36954 2.36015 8.5161 2.19156C8.65944 2.02666 8.78322 2 8.84968 2V-2ZM4.24218 2.99964C4.24218 5.48622 6.05316 7.99928 8.84968 7.99928V3.99928C8.78322 3.99928 8.65944 3.97262 8.5161 3.80772C8.36954 3.63912 8.24218 3.35882 8.24218 2.99964H4.24218Z" fill="#8B9095" mask="url(#path-6-inside-3)"/>
</g>
<defs>
<filter id="filter0_d" x="0" y="14" width="34" height="16" filterUnits="userSpaceOnUse" color-interpolation-filters="sRGB">
<feFlood flood-opacity="0" result="BackgroundImageFix"/>
<feColorMatrix in="SourceAlpha" type="matrix" values="0 0 0 0 0 0 0 0 0 0 0 0 0 0 0 0 0 0 127 0"/>
<feOffset dy="4"/>
<feGaussianBlur stdDeviation="2"/>
<feColorMatrix type="matrix" values="0 0 0 0 0 0 0 0 0 0 0 0 0 0 0 0 0 0 0.25 0"/>
<feBlend mode="normal" in2="BackgroundImageFix" result="effect1_dropShadow"/>
<feBlend mode="normal" in="SourceGraphic" in2="effect1_dropShadow" result="shape"/>
</filter>
<filter id="filter1_d" x="13.324" y="0" width="17.1262" height="19.9991" filterUnits="userSpaceOnUse" color-interpolation-filters="sRGB">
<feFlood flood-opacity="0" result="BackgroundImageFix"/>
<feColorMatrix in="SourceAlpha" type="matrix" values="0 0 0 0 0 0 0 0 0 0 0 0 0 0 0 0 0 0 127 0"/>
<feOffset dy="4"/>
<feGaussianBlur stdDeviation="2"/>
<feColorMatrix type="matrix" values="0 0 0 0 0 0 0 0 0 0 0 0 0 0 0 0 0 0 0.25 0"/>
<feBlend mode="normal" in2="BackgroundImageFix" result="effect1_dropShadow"/>
<feBlend mode="normal" in="SourceGraphic" in2="effect1_dropShadow" result="shape"/>
</filter>
<filter id="filter2_d" x="6.8053" y="3" width="17.1262" height="19.9991" filterUnits="userSpaceOnUse" color-interpolation-filters="sRGB">
<feFlood flood-opacity="0" result="BackgroundImageFix"/>
<feColorMatrix in="SourceAlpha" type="matrix" values="0 0 0 0 0 0 0 0 0 0 0 0 0 0 0 0 0 0 127 0"/>
<feOffset dy="4"/>
<feGaussianBlur stdDeviation="2"/>
<feColorMatrix type="matrix" values="0 0 0 0 0 0 0 0 0 0 0 0 0 0 0 0 0 0 0.25 0"/>
<feBlend mode="normal" in2="BackgroundImageFix" result="effect1_dropShadow"/>
<feBlend mode="normal" in="SourceGraphic" in2="effect1_dropShadow" result="shape"/>
</filter>
<filter id="filter3_d" x="0.286499" y="0" width="17.1262" height="19.9991" filterUnits="userSpaceOnUse" color-interpolation-filters="sRGB">
<feFlood flood-opacity="0" result="BackgroundImageFix"/>
<feColorMatrix in="SourceAlpha" type="matrix" values="0 0 0 0 0 0 0 0 0 0 0 0 0 0 0 0 0 0 127 0"/>
<feOffset dy="4"/>
<feGaussianBlur stdDeviation="2"/>
<feColorMatrix type="matrix" values="0 0 0 0 0 0 0 0 0 0 0 0 0 0 0 0 0 0 0.25 0"/>
<feBlend mode="normal" in2="BackgroundImageFix" result="effect1_dropShadow"/>
<feBlend mode="normal" in="SourceGraphic" in2="effect1_dropShadow" result="shape"/>
</filter>
</defs>
</svg>
