<svg width="36" height="30" viewBox="0 0 36 30" fill="none" xmlns="http://www.w3.org/2000/svg">
<path d="M3.2613 27.1021C5.06199 27.1021 31.1727 27.1021 31.1727 27.1021V30.0001L36 24.845L31.1727 19.6899V22.5867C31.1727 22.5867 5.64916 22.5867 3.26186 22.5867C0.874561 22.5867 0.27174 19.2002 0.27174 19.2002C-0.785553 23.1968 1.4606 27.1021 3.2613 27.1021Z" fill="#8AA8D4"/>
<mask id="path-2-inside-1_3477_10594" fill="white">
<path fill-rule="evenodd" clip-rule="evenodd" d="M31.579 15.3392C31.579 15.8372 31.1846 16.2414 30.6967 16.2414C30.2087 16.2414 29.8143 15.8372 29.8143 15.3392C29.8143 12.8517 27.8352 10.8279 25.4026 10.8279C22.9699 10.8279 20.9908 12.8517 20.9908 15.3392C20.9908 15.8372 20.5964 16.2414 20.1084 16.2414C19.6205 16.2414 19.2261 15.8372 19.2261 15.3392C19.2261 11.8565 21.9975 9.02339 25.4026 9.02339C28.8076 9.02339 31.579 11.8565 31.579 15.3392ZM25.4028 2.03274C26.376 2.03274 27.1675 2.94324 27.1675 4.06283C27.1675 5.18243 26.376 6.09292 25.4028 6.09292C24.4295 6.09292 23.6381 5.18243 23.6381 4.06283C23.6381 2.94324 24.4295 2.03274 25.4028 2.03274ZM25.4027 8.12037C27.3492 8.12037 28.9321 6.29937 28.9321 4.06018C28.9321 1.82099 27.3492 0 25.4027 0C23.4562 0 21.8733 1.82099 21.8733 4.06018C21.8733 6.29937 23.4562 8.12037 25.4027 8.12037Z"/>
</mask>
<path fill-rule="evenodd" clip-rule="evenodd" d="M31.579 15.3392C31.579 15.8372 31.1846 16.2414 30.6967 16.2414C30.2087 16.2414 29.8143 15.8372 29.8143 15.3392C29.8143 12.8517 27.8352 10.8279 25.4026 10.8279C22.9699 10.8279 20.9908 12.8517 20.9908 15.3392C20.9908 15.8372 20.5964 16.2414 20.1084 16.2414C19.6205 16.2414 19.2261 15.8372 19.2261 15.3392C19.2261 11.8565 21.9975 9.02339 25.4026 9.02339C28.8076 9.02339 31.579 11.8565 31.579 15.3392ZM25.4028 2.03274C26.376 2.03274 27.1675 2.94324 27.1675 4.06283C27.1675 5.18243 26.376 6.09292 25.4028 6.09292C24.4295 6.09292 23.6381 5.18243 23.6381 4.06283C23.6381 2.94324 24.4295 2.03274 25.4028 2.03274ZM25.4027 8.12037C27.3492 8.12037 28.9321 6.29937 28.9321 4.06018C28.9321 1.82099 27.3492 0 25.4027 0C23.4562 0 21.8733 1.82099 21.8733 4.06018C21.8733 6.29937 23.4562 8.12037 25.4027 8.12037Z" fill="#8AA8D4"/>
<path d="M29.579 15.3392C29.579 14.7763 30.0369 14.2414 30.6967 14.2414V18.2414C32.3323 18.2414 33.579 16.8982 33.579 15.3392H29.579ZM30.6967 14.2414C31.3564 14.2414 31.8143 14.7763 31.8143 15.3392H27.8143C27.8143 16.8982 29.0611 18.2414 30.6967 18.2414V14.2414ZM31.8143 15.3392C31.8143 11.7894 28.9816 8.8279 25.4026 8.8279V12.8279C26.6888 12.8279 27.8143 13.9139 27.8143 15.3392H31.8143ZM25.4026 8.8279C21.8235 8.8279 18.9908 11.7894 18.9908 15.3392H22.9908C22.9908 13.9139 24.1163 12.8279 25.4026 12.8279V8.8279ZM18.9908 15.3392C18.9908 14.7763 19.4487 14.2414 20.1084 14.2414V18.2414C21.744 18.2414 22.9908 16.8982 22.9908 15.3392H18.9908ZM20.1084 14.2414C20.7682 14.2414 21.2261 14.7763 21.2261 15.3392H17.2261C17.2261 16.8982 18.4728 18.2414 20.1084 18.2414V14.2414ZM21.2261 15.3392C21.2261 12.9189 23.1438 11.0234 25.4026 11.0234V7.02339C20.8513 7.02339 17.2261 10.794 17.2261 15.3392H21.2261ZM25.4026 11.0234C27.6614 11.0234 29.579 12.9189 29.579 15.3392H33.579C33.579 10.794 29.9538 7.02339 25.4026 7.02339V11.0234ZM25.4028 4.03274C25.329 4.03274 25.2624 4.01448 25.213 3.99039C25.1663 3.96765 25.145 3.94509 25.1407 3.94005C25.1346 3.93309 25.1675 3.97101 25.1675 4.06283H29.1675C29.1675 2.11095 27.7345 0.0327418 25.4028 0.0327418V4.03274ZM25.1675 4.06283C25.1675 4.15466 25.1346 4.19257 25.1407 4.18562C25.145 4.18057 25.1663 4.15802 25.213 4.13528C25.2624 4.11118 25.329 4.09292 25.4028 4.09292V8.09292C27.7345 8.09292 29.1675 6.01472 29.1675 4.06283H25.1675ZM25.4028 4.09292C25.4766 4.09292 25.5431 4.11118 25.5926 4.13528C25.6392 4.15802 25.6605 4.18057 25.6649 4.18562C25.6709 4.19257 25.6381 4.15466 25.6381 4.06283H21.6381C21.6381 6.01472 23.0711 8.09292 25.4028 8.09292V4.09292ZM25.6381 4.06283C25.6381 3.97101 25.6709 3.93309 25.6649 3.94005C25.6605 3.94509 25.6392 3.96765 25.5926 3.99039C25.5431 4.01448 25.4766 4.03274 25.4028 4.03274V0.0327418C23.0711 0.0327418 21.6381 2.11095 21.6381 4.06283H25.6381ZM25.4027 10.1204C28.7076 10.1204 30.9321 7.13166 30.9321 4.06018H26.9321C26.9321 5.46708 25.9907 6.12037 25.4027 6.12037V10.1204ZM30.9321 4.06018C30.9321 0.988704 28.7076 -2 25.4027 -2V2C25.9907 2 26.9321 2.65328 26.9321 4.06018H30.9321ZM25.4027 -2C22.0977 -2 19.8733 0.988704 19.8733 4.06018H23.8733C23.8733 2.65328 24.8147 2 25.4027 2V-2ZM19.8733 4.06018C19.8733 7.13166 22.0977 10.1204 25.4027 10.1204V6.12037C24.8147 6.12037 23.8733 5.46708 23.8733 4.06018H19.8733Z" fill="#8AA8D4" mask="url(#path-2-inside-1_3477_10594)"/>
<mask id="path-4-inside-2_3477_10594" fill="white">
<path fill-rule="evenodd" clip-rule="evenodd" d="M22.756 19.3997C22.756 19.8978 22.3616 20.302 21.8737 20.302C21.3857 20.302 20.9913 19.8978 20.9913 19.3997C20.9913 16.9122 19.0122 14.8884 16.5796 14.8884C14.1469 14.8884 12.1678 16.9122 12.1678 19.3997C12.1678 19.8978 11.7734 20.302 11.2854 20.302C10.7975 20.302 10.4031 19.8978 10.4031 19.3997C10.4031 15.917 13.1745 13.0839 16.5796 13.0839C19.9846 13.0839 22.756 15.917 22.756 19.3997ZM16.5794 6.09329C17.5526 6.09329 18.3441 7.00378 18.3441 8.12338C18.3441 9.24298 17.5526 10.1535 16.5794 10.1535C15.6061 10.1535 14.8147 9.24298 14.8147 8.12338C14.8147 7.00378 15.6061 6.09329 16.5794 6.09329ZM16.5793 12.1809C18.5258 12.1809 20.1087 10.3599 20.1087 8.12073C20.1087 5.88154 18.5258 4.06055 16.5793 4.06055C14.6328 4.06055 13.0499 5.88154 13.0499 8.12073C13.0499 10.3599 14.6328 12.1809 16.5793 12.1809Z"/>
</mask>
<path fill-rule="evenodd" clip-rule="evenodd" d="M22.756 19.3997C22.756 19.8978 22.3616 20.302 21.8737 20.302C21.3857 20.302 20.9913 19.8978 20.9913 19.3997C20.9913 16.9122 19.0122 14.8884 16.5796 14.8884C14.1469 14.8884 12.1678 16.9122 12.1678 19.3997C12.1678 19.8978 11.7734 20.302 11.2854 20.302C10.7975 20.302 10.4031 19.8978 10.4031 19.3997C10.4031 15.917 13.1745 13.0839 16.5796 13.0839C19.9846 13.0839 22.756 15.917 22.756 19.3997ZM16.5794 6.09329C17.5526 6.09329 18.3441 7.00378 18.3441 8.12338C18.3441 9.24298 17.5526 10.1535 16.5794 10.1535C15.6061 10.1535 14.8147 9.24298 14.8147 8.12338C14.8147 7.00378 15.6061 6.09329 16.5794 6.09329ZM16.5793 12.1809C18.5258 12.1809 20.1087 10.3599 20.1087 8.12073C20.1087 5.88154 18.5258 4.06055 16.5793 4.06055C14.6328 4.06055 13.0499 5.88154 13.0499 8.12073C13.0499 10.3599 14.6328 12.1809 16.5793 12.1809Z" fill="#8AA8D4"/>
<path d="M20.756 19.3997C20.756 18.8368 21.2139 18.302 21.8737 18.302V22.302C23.5093 22.302 24.756 20.9587 24.756 19.3997H20.756ZM21.8737 18.302C22.5334 18.302 22.9913 18.8368 22.9913 19.3997H18.9913C18.9913 20.9587 20.2381 22.302 21.8737 22.302V18.302ZM22.9913 19.3997C22.9913 15.8499 20.1586 12.8884 16.5796 12.8884V16.8884C17.8658 16.8884 18.9913 17.9745 18.9913 19.3997H22.9913ZM16.5796 12.8884C13.0005 12.8884 10.1678 15.8499 10.1678 19.3997H14.1678C14.1678 17.9745 15.2933 16.8884 16.5796 16.8884V12.8884ZM10.1678 19.3997C10.1678 18.8368 10.6257 18.302 11.2854 18.302V22.302C12.921 22.302 14.1678 20.9587 14.1678 19.3997H10.1678ZM11.2854 18.302C11.9452 18.302 12.4031 18.8368 12.4031 19.3997H8.40308C8.40308 20.9587 9.64981 22.302 11.2854 22.302V18.302ZM12.4031 19.3997C12.4031 16.9795 14.3208 15.0839 16.5796 15.0839V11.0839C12.0283 11.0839 8.40308 14.8545 8.40308 19.3997H12.4031ZM16.5796 15.0839C18.8384 15.0839 20.756 16.9795 20.756 19.3997H24.756C24.756 14.8545 21.1308 11.0839 16.5796 11.0839V15.0839ZM16.5794 8.09329C16.5056 8.09329 16.439 8.07503 16.3896 8.05093C16.3429 8.02819 16.3216 8.00564 16.3173 8.00059C16.3112 7.99364 16.3441 8.03156 16.3441 8.12338H20.3441C20.3441 6.1715 18.9111 4.09329 16.5794 4.09329V8.09329ZM16.3441 8.12338C16.3441 8.2152 16.3112 8.25312 16.3173 8.24617C16.3216 8.24112 16.3429 8.21857 16.3896 8.19583C16.439 8.17173 16.5056 8.15347 16.5794 8.15347V12.1535C18.9111 12.1535 20.3441 10.0753 20.3441 8.12338H16.3441ZM16.5794 8.15347C16.6532 8.15347 16.7197 8.17173 16.7692 8.19583C16.8158 8.21857 16.8371 8.24112 16.8415 8.24617C16.8475 8.25312 16.8147 8.2152 16.8147 8.12338H12.8147C12.8147 10.0753 14.2477 12.1535 16.5794 12.1535V8.15347ZM16.8147 8.12338C16.8147 8.03156 16.8475 7.99364 16.8415 8.00059C16.8371 8.00564 16.8158 8.02819 16.7692 8.05093C16.7197 8.07503 16.6532 8.09329 16.5794 8.09329V4.09329C14.2477 4.09329 12.8147 6.1715 12.8147 8.12338H16.8147ZM16.5793 14.1809C19.8842 14.1809 22.1087 11.1922 22.1087 8.12073H18.1087C18.1087 9.52763 17.1673 10.1809 16.5793 10.1809V14.1809ZM22.1087 8.12073C22.1087 5.04925 19.8842 2.06055 16.5793 2.06055V6.06055C17.1673 6.06055 18.1087 6.71383 18.1087 8.12073H22.1087ZM16.5793 2.06055C13.2743 2.06055 11.0499 5.04925 11.0499 8.12073H15.0499C15.0499 6.71383 15.9913 6.06055 16.5793 6.06055V2.06055ZM11.0499 8.12073C11.0499 11.1922 13.2743 14.1809 16.5793 14.1809V10.1809C15.9913 10.1809 15.0499 9.52763 15.0499 8.12073H11.0499Z" fill="#8AA8D4" mask="url(#path-4-inside-2_3477_10594)"/>
<mask id="path-6-inside-3_3477_10594" fill="white">
<path fill-rule="evenodd" clip-rule="evenodd" d="M13.9321 15.3392C13.9321 15.8372 13.5376 16.2414 13.0497 16.2414C12.5618 16.2414 12.1673 15.8372 12.1673 15.3392C12.1673 12.8517 10.1882 10.8279 7.75558 10.8279C5.32293 10.8279 3.34381 12.8517 3.34381 15.3392C3.34381 15.8372 2.9494 16.2414 2.46146 16.2414C1.97351 16.2414 1.5791 15.8372 1.5791 15.3392C1.5791 11.8565 4.35058 9.02339 7.75558 9.02339C11.1606 9.02339 13.9321 11.8565 13.9321 15.3392ZM7.75566 2.03274C8.72889 2.03274 9.52037 2.94324 9.52037 4.06283C9.52037 5.18243 8.72889 6.09292 7.75566 6.09292C6.78242 6.09292 5.99095 5.18243 5.99095 4.06283C5.99095 2.94324 6.78242 2.03274 7.75566 2.03274ZM7.75532 8.12037C9.70179 8.12037 11.2847 6.29937 11.2847 4.06018C11.2847 1.82099 9.70179 0 7.75532 0C5.80884 0 4.2259 1.82099 4.2259 4.06018C4.2259 6.29937 5.80884 8.12037 7.75532 8.12037Z"/>
</mask>
<path fill-rule="evenodd" clip-rule="evenodd" d="M13.9321 15.3392C13.9321 15.8372 13.5376 16.2414 13.0497 16.2414C12.5618 16.2414 12.1673 15.8372 12.1673 15.3392C12.1673 12.8517 10.1882 10.8279 7.75558 10.8279C5.32293 10.8279 3.34381 12.8517 3.34381 15.3392C3.34381 15.8372 2.9494 16.2414 2.46146 16.2414C1.97351 16.2414 1.5791 15.8372 1.5791 15.3392C1.5791 11.8565 4.35058 9.02339 7.75558 9.02339C11.1606 9.02339 13.9321 11.8565 13.9321 15.3392ZM7.75566 2.03274C8.72889 2.03274 9.52037 2.94324 9.52037 4.06283C9.52037 5.18243 8.72889 6.09292 7.75566 6.09292C6.78242 6.09292 5.99095 5.18243 5.99095 4.06283C5.99095 2.94324 6.78242 2.03274 7.75566 2.03274ZM7.75532 8.12037C9.70179 8.12037 11.2847 6.29937 11.2847 4.06018C11.2847 1.82099 9.70179 0 7.75532 0C5.80884 0 4.2259 1.82099 4.2259 4.06018C4.2259 6.29937 5.80884 8.12037 7.75532 8.12037Z" fill="#8AA8D4"/>
<path d="M11.9321 15.3392C11.9321 14.7763 12.39 14.2414 13.0497 14.2414V18.2414C14.6853 18.2414 15.9321 16.8982 15.9321 15.3392H11.9321ZM13.0497 14.2414C13.7094 14.2414 14.1673 14.7763 14.1673 15.3392H10.1673C10.1673 16.8982 11.4141 18.2414 13.0497 18.2414V14.2414ZM14.1673 15.3392C14.1673 11.7894 11.3346 8.8279 7.75558 8.8279V12.8279C9.04184 12.8279 10.1673 13.9139 10.1673 15.3392H14.1673ZM7.75558 8.8279C4.17654 8.8279 1.34381 11.7894 1.34381 15.3392H5.34381C5.34381 13.9139 6.46932 12.8279 7.75558 12.8279V8.8279ZM1.34381 15.3392C1.34381 14.7763 1.80172 14.2414 2.46146 14.2414V18.2414C4.09707 18.2414 5.34381 16.8982 5.34381 15.3392H1.34381ZM2.46146 14.2414C3.12119 14.2414 3.5791 14.7763 3.5791 15.3392H-0.420898C-0.420898 16.8982 0.825837 18.2414 2.46146 18.2414V14.2414ZM3.5791 15.3392C3.5791 12.9189 5.49678 11.0234 7.75558 11.0234V7.02339C3.20437 7.02339 -0.420898 10.794 -0.420898 15.3392H3.5791ZM7.75558 11.0234C10.0144 11.0234 11.9321 12.9189 11.9321 15.3392H15.9321C15.9321 10.794 12.3068 7.02339 7.75558 7.02339V11.0234ZM7.75566 4.03274C7.68186 4.03274 7.6153 4.01448 7.56585 3.99039C7.51918 3.96765 7.49793 3.94509 7.49355 3.94005C7.4875 3.93309 7.52037 3.97101 7.52037 4.06283H11.5204C11.5204 2.11095 10.0874 0.0327418 7.75566 0.0327418V4.03274ZM7.52037 4.06283C7.52037 4.15465 7.4875 4.19257 7.49355 4.18562C7.49793 4.18057 7.51918 4.15802 7.56585 4.13528C7.6153 4.11118 7.68186 4.09292 7.75566 4.09292V8.09292C10.0874 8.09292 11.5204 6.01472 11.5204 4.06283H7.52037ZM7.75566 4.09292C7.82945 4.09292 7.89602 4.11118 7.94547 4.13528C7.99213 4.15802 8.01338 4.18057 8.01777 4.18562C8.02381 4.19257 7.99095 4.15465 7.99095 4.06283H3.99095C3.99095 6.01472 5.42395 8.09292 7.75566 8.09292V4.09292ZM7.99095 4.06283C7.99095 3.97101 8.02381 3.93309 8.01777 3.94005C8.01338 3.94509 7.99213 3.96765 7.94547 3.99039C7.89602 4.01448 7.82945 4.03274 7.75566 4.03274V0.0327418C5.42395 0.0327418 3.99095 2.11095 3.99095 4.06283H7.99095ZM7.75532 10.1204C11.0603 10.1204 13.2847 7.13166 13.2847 4.06018H9.28473C9.28473 5.46708 8.34332 6.12037 7.75532 6.12037V10.1204ZM13.2847 4.06018C13.2847 0.988703 11.0603 -2 7.75532 -2V2C8.34332 2 9.28473 2.65328 9.28473 4.06018H13.2847ZM7.75532 -2C4.45037 -2 2.2259 0.988703 2.2259 4.06018H6.2259C6.2259 2.65328 7.16732 2 7.75532 2V-2ZM2.2259 4.06018C2.2259 7.13166 4.45037 10.1204 7.75532 10.1204V6.12037C7.16732 6.12037 6.2259 5.46708 6.2259 4.06018H2.2259Z" fill="#8AA8D4" mask="url(#path-6-inside-3_3477_10594)"/>
</svg>
