<svg width="21" height="21" viewBox="0 0 21 21" fill="none" xmlns="http://www.w3.org/2000/svg">
<g filter="url(#filter0_d_2207)">
<path d="M7 6H11H14V8H11H7V6ZM10.5 0C9.64641 0 8.80117 0.168127 8.01256 0.494783C7.22394 0.821439 6.50739 1.30023 5.90381 1.90381C4.68482 3.12279 4 4.77609 4 6.5C4 8.22391 4.68482 9.87721 5.90381 11.0962C6.50739 11.6998 7.22394 12.1786 8.01256 12.5052C8.80117 12.8319 9.64641 13 10.5 13C12.2239 13 13.8772 12.3152 15.0962 11.0962C16.3152 9.87721 17 8.22391 17 6.5C17 5.64641 16.8319 4.80117 16.5052 4.01256C16.1786 3.22394 15.6998 2.50739 15.0962 1.90381C14.4926 1.30023 13.7761 0.821439 12.9874 0.494783C12.1988 0.168127 11.3536 0 10.5 0Z" fill="#BF0000"/>
</g>
<defs>
<filter id="filter0_d_2207" x="0" y="0" width="21" height="21" filterUnits="userSpaceOnUse" color-interpolation-filters="sRGB">
<feFlood flood-opacity="0" result="BackgroundImageFix"/>
<feColorMatrix in="SourceAlpha" type="matrix" values="0 0 0 0 0 0 0 0 0 0 0 0 0 0 0 0 0 0 127 0" result="hardAlpha"/>
<feOffset dy="4"/>
<feGaussianBlur stdDeviation="2"/>
<feColorMatrix type="matrix" values="0 0 0 0 0 0 0 0 0 0 0 0 0 0 0 0 0 0 0.5 0"/>
<feBlend mode="normal" in2="BackgroundImageFix" result="effect1_dropShadow_2207"/>
<feBlend mode="normal" in="SourceGraphic" in2="effect1_dropShadow_2207" result="shape"/>
</filter>
</defs>
</svg>
