<svg width="29" height="30" viewBox="0 0 29 30" fill="none" xmlns="http://www.w3.org/2000/svg">
<path d="M17.2103 11.4326C17.2379 11.3944 17.2687 11.3586 17.3025 11.3257L22.9769 5.65129L22.7956 5.71748C22.6174 5.78118 22.4295 5.8133 22.2403 5.81243L19.0578 5.81243C18.6481 5.82195 18.2911 5.53533 18.2118 5.13335C18.1431 4.68913 18.4475 4.27336 18.8918 4.20467C18.9277 4.19913 18.9639 4.19599 19.0002 4.19529L24.7552 4.19529C25.2047 4.19503 25.5692 4.55922 25.5695 5.00872C25.5695 5.009 25.5695 5.00933 25.5695 5.00961L25.5695 10.7646C25.5689 11.2141 25.204 11.5779 24.7545 11.5773C24.7191 11.5773 24.6838 11.5749 24.6487 11.5703C24.2467 11.491 23.9601 11.1339 23.9696 10.7243L23.9639 7.5418C23.9638 7.37284 23.99 7.20488 24.0416 7.044L24.1365 6.79366L18.4851 12.445C18.2021 12.7499 17.7388 12.8025 17.3946 12.5688C17.03 12.3059 16.9475 11.7973 17.2103 11.4326Z" fill="white"/>
<path fill-rule="evenodd" clip-rule="evenodd" d="M20.7913 27.3C10.8162 27.3 2.7 19.1838 2.7 9.20865C2.7 7.2741 4.2741 5.7 6.21 5.7C6.35715 5.7 6.5043 5.7081 6.6528 5.72835L8.08515 11.9654C7.84755 12.0896 7.58835 12.2246 7.3494 12.3501C6.17355 12.9643 5.3244 13.4099 5.7591 14.4926C7.34535 19.011 10.989 22.6546 15.4534 24.2206C16.5969 24.6783 17.0343 23.8251 17.6486 22.6506C17.7754 22.4103 17.9104 22.1524 18.0347 21.9148L24.2717 23.3472C24.2906 23.4916 24.3 23.6402 24.3 23.79C24.3 25.7259 22.7259 27.3 20.7913 27.3ZM26.9136 22.7613C26.8596 22.4238 26.7745 22.0931 26.6639 21.7758C26.5126 21.337 26.1441 21.0063 25.6919 20.9023L17.6405 19.0542C17.1963 18.9557 16.7319 19.0812 16.4039 19.3958C16.2108 19.5807 16.2067 19.5847 15.3292 21.2614C12.4402 19.9452 10.0791 17.5881 8.74125 14.6694C10.4139 13.7933 10.4193 13.7892 10.6042 13.5962C10.9188 13.2681 11.047 12.8024 10.9458 12.3595L9.09765 4.30815C8.99235 3.85455 8.66295 3.48735 8.2242 3.33615C7.90425 3.2241 7.57215 3.1404 7.24275 3.08775C6.9066 3.0297 6.56235 3 6.21 3C2.7864 3 0 5.78505 0 9.20865C0 20.6728 9.3258 30 20.7913 30C24.215 30 27 27.2136 27 23.79C27 23.4403 26.9703 23.0961 26.9136 22.7613Z" fill="white"/>
</svg>
