<svg width="32" height="32" viewBox="0 0 32 32" fill="none" xmlns="http://www.w3.org/2000/svg">
<path fill-rule="evenodd" clip-rule="evenodd" d="M15.9999 0C14.8999 0 13.9999 0.847059 13.9999 1.88235V30.1176C13.9999 31.1529 14.8999 32 15.9999 32C17.0999 32 17.9999 31.1529 17.9999 30.1176V1.88235C17.9999 0.847059 17.0999 0 15.9999 0ZM30 15.0594C28.9 15.0594 28 15.9064 28 16.9417V30.1182C28 31.1535 28.9 32.0005 30 32.0005C31.1 32.0005 32 31.1535 32 30.1182V16.9417C32 15.9064 31.1 15.0594 30 15.0594ZM0 9.41204C0 8.37675 0.9 7.52969 2 7.52969C3.1 7.52969 4 8.37675 4 9.41204V30.1179C4 31.1532 3.1 32.0003 2 32.0003C0.9 32.0003 0 31.1532 0 30.1179V9.41204Z" fill="#454D54"/>
</svg>
