<svg width="27" height="18" viewBox="0 0 27 18" fill="none" xmlns="http://www.w3.org/2000/svg">
<path d="M16.5132 10.9797L15.6194 10.0313C16.1373 9.48164 16.7718 9.0717 17.4698 8.83585L17.7782 10.1315C17.218 10.3452 16.8341 10.6457 16.5132 10.9797ZM20.2957 11.2268L22.1523 9.00075L22.0579 8.8826L20.2957 7.01929C20.2513 6.97314 20.1951 6.94196 20.134 6.92967C20.073 6.91739 20.0099 6.92456 19.9527 6.95027C19.8955 6.97598 19.8467 7.01909 19.8125 7.07416C19.7784 7.12922 19.7603 7.19379 19.7607 7.25972V8.46853C19.2509 8.48189 19.0999 8.23498 18.7034 8.30844V9.89106C19.0055 9.84431 19.3642 9.81091 19.7607 9.80424V10.993C19.7616 11.0584 19.7805 11.122 19.8151 11.1761C19.8498 11.2301 19.8986 11.2722 19.9555 11.2971C20.0125 11.322 20.0751 11.3286 20.1356 11.3161C20.196 11.3036 20.2517 11.2725 20.2957 11.2268ZM20.2957 17.9053L22.0516 16.042C22.1775 15.9084 22.1775 15.7014 22.0516 15.5678L20.2957 13.7045C20.1006 13.4908 19.7607 13.6377 19.7607 13.9382V15.127C17.4446 15.0602 16.7712 14.2722 16.06 13.4307C15.7831 13.0968 15.481 12.7561 15.0845 12.4623C15.3929 12.2352 15.6383 11.9748 15.8649 11.7076L14.9775 10.7659C14.4425 11.387 14.0083 11.7944 12.8376 11.7944H10.3201C9.97399 11.7944 9.69078 12.095 9.69078 12.4623C9.69078 12.8296 9.97399 13.1301 10.3201 13.1301H12.8376C14.109 13.1301 14.5118 13.6043 15.1222 14.3256C15.9027 15.2472 16.8719 16.3826 19.7607 16.4627V17.6649C19.7603 17.7308 19.7784 17.7954 19.8125 17.8504C19.8467 17.9055 19.8955 17.9486 19.9527 17.9743C20.0099 18 20.073 18.0072 20.134 17.9949C20.1951 17.9826 20.2513 17.9514 20.2957 17.9053Z" fill="#276899"/>
<path d="M16.5132 7.02034L15.6195 7.96869C16.1374 8.51836 16.7719 8.9283 17.4698 9.16415L17.7782 7.86852C17.2181 7.6548 16.8342 7.35427 16.5132 7.02034ZM20.2957 6.77324L22.0579 8.89027C22.1838 9.02384 22.1838 8.98383 22.0579 9.1174L20.2957 10.9807C20.2513 11.0269 20.1951 11.058 20.134 11.0703C20.073 11.0826 20.0099 11.0754 19.9527 11.0497C19.8955 11.024 19.8467 10.9809 19.8126 10.9258C19.7784 10.8708 19.7604 10.8062 19.7607 10.7403V9.53147C19.2509 9.51811 19.0999 9.60493 18.7034 9.53147V8.10894C19.0055 8.15569 19.3642 8.18909 19.7607 8.19576V7.00699C19.7616 6.94163 19.7805 6.87798 19.8152 6.82392C19.8498 6.76987 19.8986 6.72779 19.9556 6.7029C20.0125 6.67801 20.0751 6.67141 20.1356 6.68392C20.196 6.69642 20.2517 6.72748 20.2957 6.77324ZM20.2957 0.0947104L22.0516 1.95802C22.1775 2.09159 22.1775 2.29862 22.0516 2.43219L20.2957 4.2955C20.1006 4.50922 19.7607 4.36229 19.7607 4.06176V2.87298C17.4447 2.93976 16.7712 3.72783 16.06 4.56932C15.7831 4.90325 15.481 5.24385 15.0845 5.53771C15.3929 5.76478 15.6384 6.02524 15.8649 6.29238L14.9775 7.23406C14.4426 6.61295 14.0083 6.20556 12.8377 6.20556H10.3202C9.97402 6.20556 9.69081 5.90503 9.69081 5.53771C9.69081 5.17039 9.97402 4.86986 10.3202 4.86986H12.8377C14.109 4.86986 14.5118 4.39568 15.1223 3.6744C15.9027 2.75276 16.8719 1.61741 19.7607 1.53727V0.335135C19.7604 0.269209 19.7784 0.204645 19.8126 0.149577C19.8467 0.0945091 19.8955 0.0514021 19.9527 0.0256901C20.0099 -2.09808e-05 20.073 -0.00718784 20.134 0.00509453C20.1951 0.0173779 20.2513 0.0485592 20.2957 0.0947104Z" fill="#276899"/>
<circle cx="6.23077" cy="9.0003" r="5.48077" stroke="#276899" stroke-width="1.5"/>
<circle cx="24.2293" cy="9.00075" r="1.72692" stroke="#276899" stroke-width="0.7"/>
<circle cx="24.2293" cy="15.9226" r="1.72692" stroke="#276899" stroke-width="0.7"/>
<circle cx="24.2293" cy="2.07692" r="1.72692" stroke="#276899" stroke-width="0.7"/>
</svg>
