<svg width="41" height="32" viewBox="0 0 41 32" fill="none" xmlns="http://www.w3.org/2000/svg">
<path d="M5.58571 15.9486C5.58571 11.4545 5.58571 6.96039 5.58571 2.43888C5.58571 0.602869 6.16742 0 7.96543 0C14.4435 0 20.9481 0 27.4262 0C29.2242 0 29.8059 0.602869 29.8059 2.43888C29.8059 7.28923 29.8059 12.167 29.8059 17.0173C29.8059 17.4832 30.0439 18.0587 29.4622 18.3601C28.9598 18.6067 28.6689 18.1135 28.2988 17.949C27.6642 17.6202 27.9815 17.127 28.1137 16.6611C29.5415 11.2353 26.6594 5.75466 21.6091 4.30229C16.4531 2.79512 11.2177 5.80946 9.73699 11.1531C8.60002 15.2635 10.2129 19.7577 13.6767 22.1143C17.2199 24.5258 21.7942 24.2518 25.0729 21.4566C26.3421 20.3879 27.1618 20.7168 27.4526 22.3884C27.6377 23.4845 28.193 24.3614 29.092 24.9094C29.753 25.2931 29.8852 25.7589 29.8588 26.444C29.8059 27.5675 29.8588 28.7185 29.8324 29.842C29.8059 31.2944 29.2242 31.9794 27.8493 31.9794C21.1067 32.0069 14.3378 32.0069 7.59525 31.9794C6.19386 31.9794 5.61215 31.267 5.61215 29.705C5.55927 25.1287 5.58571 20.5523 5.58571 15.9486Z" fill="#454D54"/>
<path d="M18.8592 4.82138C24.8878 4.79398 29.0656 10.8775 27.1354 16.8514C27.0032 17.2898 26.3421 17.8653 27.1354 18.2215C27.9815 18.6052 28.5103 19.8657 29.7266 19.2628C30.7049 18.7696 31.6833 18.8792 32.5823 19.5095C34.9091 21.044 37.2624 22.5512 39.5628 24.1132C41.017 25.0997 41.4137 26.8809 40.5411 28.2236C39.6685 29.539 38.0556 29.8404 36.5749 28.8539C34.2745 27.3741 32.0006 25.8396 29.7002 24.3324C28.7483 23.7021 28.1666 22.88 28.193 21.6469C28.193 20.2493 26.8709 20.2493 26.157 19.6465C25.5224 19.1258 25.2845 20.0301 24.9672 20.3315C22.1115 23.1541 17.8016 23.6473 14.3907 21.5373C11.0326 19.4546 9.47258 15.3442 10.5038 11.3981C11.535 7.50689 14.9459 4.82138 18.8592 4.82138ZM11.8259 13.7822C11.7994 17.8927 14.9459 21.2084 18.8857 21.2084C22.8254 21.2084 26.0513 17.8927 26.0248 13.837C25.9984 9.83615 22.8519 6.52038 19.0179 6.49297C15.0517 6.43817 11.8523 9.69914 11.8259 13.7822ZM30.9693 20.633C30.3348 20.6604 29.991 20.9892 29.8588 21.5373C29.7002 22.2224 30.1232 22.6334 30.6256 22.9622C32.8467 24.4146 35.0677 25.867 37.2624 27.3467C37.9498 27.8126 38.6373 28.1414 39.1926 27.2645C39.7479 26.3876 39.1661 25.8396 38.4787 25.4011C36.3105 23.9762 34.1159 22.5512 31.9477 21.1262C31.6304 20.8522 31.3395 20.5782 30.9693 20.633Z" fill="#276899"/>
<path d="M4.58098 16.003C4.58098 20.0038 4.58098 23.9773 4.58098 27.9782C4.58098 28.444 4.87183 29.1565 3.91995 29.1017C3.20603 29.0743 2.73009 28.8277 2.70365 28.0056C2.6772 27.7315 2.70365 27.4575 2.70365 27.1835C2.70365 19.7298 2.70365 12.3036 2.70365 4.84992C2.70365 4.52108 2.6772 4.21965 2.73009 3.89081C2.80941 3.06872 3.36468 2.9043 4.05215 2.9043C4.92471 2.9043 4.60742 3.58938 4.60742 3.97302C4.60742 8.00128 4.58098 12.0021 4.58098 16.003Z" fill="#6D6D6D"/>
<path d="M1.72529 16.0048C1.72529 18.8273 1.72529 21.6225 1.72529 24.445C1.72529 24.8286 1.96327 25.4315 1.19647 25.4041C0.641201 25.3767 0.138817 25.2671 0.0330514 24.582C-0.0198312 24.2806 0.00661052 23.9517 0.00661052 23.6229C0.00661052 18.5259 0.00661052 13.4563 0.00661052 8.35935C0.00661052 8.03052 0.00661012 7.72908 0.0330514 7.40024C0.138817 6.71517 0.641201 6.57815 1.19647 6.55075C1.93682 6.52334 1.75173 7.09881 1.75173 7.50986C1.72529 10.3872 1.72529 13.2097 1.72529 16.0048Z" fill="#979797"/>
<path d="M11.8259 13.7835C11.8524 9.72788 15.0518 6.46691 18.9915 6.49431C22.8255 6.52172 25.9985 9.83749 25.9985 13.8383C26.0249 17.8666 22.7991 21.2098 18.8593 21.2098C14.9724 21.1824 11.8259 17.8666 11.8259 13.7835Z" fill="#6D6D6D"/>
<path d="M30.9695 20.635C31.3132 20.5802 31.6305 20.8542 31.9743 21.0735C34.1425 22.4984 36.3371 23.9234 38.5053 25.3484C39.1927 25.7868 39.748 26.3349 39.2192 27.2118C38.6639 28.0887 37.9764 27.7598 37.289 27.294C35.0943 25.8142 32.8733 24.3618 30.6522 22.9095C30.1498 22.5806 29.7268 22.197 29.8854 21.4845C29.9912 20.9913 30.3349 20.6624 30.9695 20.635Z" fill="#F8F8F8"/>
<path d="M18.0558 16.029C18.9993 16.029 19.9162 16 20.8596 16C21.5782 16 21.5772 16.0001 21.5782 16.4174C21.5789 16.7619 21.579 16.7495 20.9072 16.7528C19.0614 16.7619 16.9035 16.7619 15.0996 16.7528C14.3867 16.7492 14.3868 16.7528 14.3867 16.3644C14.3867 16.0113 14.3867 16.0113 15.1415 16.0113C16.1269 16.0113 17.0914 16.029 18.0558 16.029Z" fill="#276899"/>
<path d="M17.6222 13.714C16.7191 13.714 15.816 13.6959 14.9128 13.714C14.386 13.7165 14.386 13.7165 14.386 13.2816C14.386 12.9541 14.386 12.9541 14.7456 12.9541C16.5707 12.9541 18.563 12.9573 20.3881 12.9573C20.8597 12.9546 20.8573 12.9573 20.8585 13.3356C20.8597 13.7165 20.8585 13.7233 20.3881 13.714C19.485 13.6959 18.5442 13.714 17.6222 13.714Z" fill="#276899"/>
<path d="M18.4349 12.1855C17.331 12.1855 16.2271 12.1855 15.1232 12.1855C14.3872 12.1855 14.3862 12.1896 14.3873 11.8217C14.3862 11.4277 14.3862 11.4283 15.0772 11.4396C17.239 11.4396 19.4238 11.4396 21.5856 11.4396C22.2985 11.4396 22.2985 11.44 22.2985 11.7853C22.2985 12.1901 22.2985 12.1901 21.5792 12.1901C20.5443 12.2083 19.4468 12.1855 18.4349 12.1855Z" fill="#276899"/>
<path d="M18.2152 15.2368C17.1544 15.2368 16.0937 15.2368 15.0329 15.2368C14.386 15.2368 14.3872 15.2368 14.3872 14.8126C14.3872 14.4805 14.386 14.4749 15.0329 14.4805C17.2467 14.4805 19.4374 14.4805 21.6512 14.4805C22.2969 14.4805 22.2983 14.475 22.2969 14.7941C22.2969 15.2368 22.2969 15.2368 21.6512 15.2368C20.4982 15.2368 19.3452 15.2368 18.2152 15.2368Z" fill="#276899"/>
</svg>
