<svg width="16" height="16" viewBox="0 0 16 16" fill="none" xmlns="http://www.w3.org/2000/svg">
<path opacity="0.7" fill-rule="evenodd" clip-rule="evenodd" d="M1.77843 7.11112C1.77843 4.16979 4.17044 1.77778 7.11177 1.77778C10.0531 1.77778 12.4451 4.16979 12.4451 7.11112C12.4451 10.0525 10.0531 12.4445 7.11177 12.4445C4.17044 12.4445 1.77843 10.0525 1.77843 7.11112ZM15.7396 14.4827L12.7218 11.464C13.6578 10.2605 14.2222 8.75202 14.2222 7.11112C14.2222 3.19023 11.032 0 7.11112 0C3.19023 0 0 3.19023 0 7.11112C0 11.032 3.19023 14.2222 7.11112 14.2222C8.75202 14.2222 10.2605 13.6578 11.464 12.7218L14.4827 15.7396C14.656 15.9129 14.8836 16 15.1111 16C15.3387 16 15.5662 15.9129 15.7396 15.7396C16.0871 15.392 16.0871 14.8302 15.7396 14.4827Z" fill="#515A63"/>
<path d="M5.28784 9.99414L10.995 4.28697L11.9165 5.20842L6.20929 10.9156L5.28784 9.99414Z" fill="#00C82C" fill-opacity="0.6"/>
<path d="M3 7.70703L3.82635 6.88068L6.11381 9.16814L5.28746 9.99449L3 7.70703Z" fill="#00C82C" fill-opacity="0.6"/>
</svg>
