<svg width="26" height="26" viewBox="0 0 26 26" fill="none" xmlns="http://www.w3.org/2000/svg">
<path fill-rule="evenodd" clip-rule="evenodd" d="M8.98573 0.0697657C6.65122 0.389028 4.56304 1.44838 2.9169 3.14858C1.34215 4.77501 0.400793 6.70505 0.0718608 8.98163C-0.057194 9.87467 -0.00627269 11.5726 0.175379 12.4348C0.586252 14.3849 1.49725 16.1503 2.81653 17.553C4.8446 19.7094 7.83551 20.9262 10.788 20.7962C12.7877 20.7082 14.5886 20.1209 16.2386 19.0189L16.7647 18.6675L17.1927 19.0956L17.6207 19.5237L17.5181 19.7497C17.401 20.0079 17.3911 20.1456 17.4691 20.4328C17.5159 20.6055 17.8832 20.996 19.9184 23.0373C21.2352 24.3581 22.4268 25.5174 22.5664 25.6134C23.4575 26.2266 24.7039 26.0974 25.4196 25.3177C25.8677 24.8296 26.0137 24.415 25.9837 23.716C25.9451 22.8121 26.044 22.9414 23.2047 20.0843C21.5363 18.4055 20.6731 17.5723 20.5357 17.5083C20.2734 17.3859 20.0328 17.3883 19.7512 17.5161L19.5252 17.6187L19.0957 17.189L18.6662 16.7594L18.9118 16.3998L19.1574 16.0402L22.0804 16.0391C25.3115 16.0379 25.1749 16.0508 25.5818 15.7074C25.9999 15.3544 26.1227 14.6252 25.8518 14.1036C25.6977 13.8069 25.3696 13.5442 25.0377 13.4521C24.9238 13.4204 23.9831 13.4001 22.624 13.3999L20.3969 13.3996L20.4234 13.2853C20.5577 12.7049 20.7127 11.9304 20.713 11.8381L20.7134 11.7238H22.7724C24.0532 11.7238 24.9119 11.7035 25.0443 11.67C25.8343 11.4706 26.2384 10.5287 25.8515 9.78814C25.6931 9.48472 25.3803 9.21669 25.0909 9.13631C24.9748 9.10401 24.0936 9.08365 22.8076 9.08349L20.7134 9.08319L20.7128 8.96893C20.7124 8.87453 20.5271 7.94447 20.425 7.5241L20.3978 7.41223L22.7006 7.39715C25.3306 7.37988 25.2575 7.39111 25.6625 6.94063C25.9158 6.65879 25.9929 6.44764 25.9926 6.03631C25.9922 5.509 25.6094 4.96716 25.1375 4.82574C24.9987 4.78415 24.0907 4.76602 22.0529 4.76414L19.1649 4.76155L18.8722 4.34083C17.2545 2.0153 14.5438 0.40868 11.627 0.046711C11.051 -0.0247891 9.58338 -0.0119414 8.98573 0.0697657ZM11.4747 0.960672C14.7217 1.36271 17.4841 3.31367 18.9129 6.21405C20.4196 9.2722 20.1819 12.8377 18.2827 15.6664C16.6903 18.0383 14.1571 19.5609 11.3284 19.8465C9.24165 20.0572 7.06133 19.5261 5.28411 18.3743C1.5272 15.9394 -0.0422679 11.2549 1.50771 7.10272C2.75236 3.76862 5.72463 1.42431 9.29247 0.962704C9.77336 0.900497 10.9796 0.899379 11.4747 0.960672ZM9.34111 1.77201C6.65477 2.14449 4.4154 3.5816 3.01164 5.8339C1.2097 8.72508 1.32225 12.6135 3.28787 15.3783C3.74957 16.0278 4.58147 16.8811 5.22882 17.3692C6.22704 18.1219 7.64786 18.7292 8.96034 18.9643C9.71416 19.0993 11.1456 19.0886 11.9522 18.9419C14.2822 18.5182 16.3226 17.171 17.654 15.1769C19.4207 12.5309 19.5523 8.98132 17.9878 6.1751C16.717 3.89563 14.4825 2.30414 11.9049 1.84274C11.3714 1.74722 9.82707 1.70462 9.34111 1.77201ZM11.9049 2.77874C13.2026 3.05408 14.5627 3.72124 15.4334 4.50957L15.7126 4.76236L14.1622 4.7646L12.6119 4.76678L12.3651 4.51607C12.2293 4.3782 11.9674 4.1897 11.7831 4.09713C11.4591 3.93447 11.4278 3.92889 10.8388 3.92945C10.284 3.92996 10.2033 3.94224 9.93607 4.06701C9.77468 4.14232 9.50987 4.33062 9.34766 4.4854L9.05269 4.76678H7.83236C6.488 4.76678 6.40413 4.78176 6.06037 5.08371C5.69021 5.40876 5.54095 5.99 5.69534 6.50533C5.77515 6.77173 6.13901 7.16985 6.4088 7.28594C6.59405 7.36566 6.80231 7.38161 7.86419 7.39725L9.10336 7.41548L9.33634 7.64852C10.1308 8.44319 11.535 8.43796 12.347 7.63729L12.5811 7.40644L15.0816 7.41965L17.5821 7.4328L17.7057 7.78827C17.8511 8.2063 18.0226 8.8567 18.0226 8.98975C18.0226 9.07633 17.9668 9.08319 17.2635 9.08319H16.5044L16.2551 8.8339C15.4141 7.99266 14.0076 8.0113 13.1766 8.87468L12.9759 9.08319L8.93735 9.0837L4.89882 9.0842L4.64498 9.2042C4.16242 9.43241 3.91182 9.84222 3.90995 10.4062C3.90792 11.0116 4.29518 11.528 4.85785 11.67C4.99853 11.7056 6.40748 11.7238 9.0138 11.7238H12.9569L13.2372 11.9801C13.5634 12.2782 13.7943 12.4058 14.1987 12.5112C14.9336 12.7026 15.698 12.4998 16.2393 11.9695L16.4902 11.7238H17.2565C17.9523 11.7238 18.0226 11.732 18.0225 11.8127C18.0223 11.9399 17.7967 12.7634 17.6678 13.1076L17.5584 13.3996H15.0665H12.5747L12.4106 13.2092C12.0778 12.8231 11.4079 12.5363 10.8388 12.5363C10.2731 12.5363 9.61694 12.816 9.26029 13.2092L9.08752 13.3996H7.94217C7.30426 13.3996 6.70254 13.4234 6.584 13.4534C5.79398 13.6528 5.38996 14.5947 5.77677 15.3353C5.93522 15.6387 6.24801 15.9067 6.53739 15.9871C6.64218 16.0163 7.24496 16.0398 7.88927 16.0399L9.05208 16.0402L9.32309 16.2966C9.47215 16.4376 9.74848 16.6261 9.93719 16.7156C10.2586 16.8678 10.3158 16.8781 10.8388 16.8781C11.3618 16.8781 11.419 16.8678 11.7404 16.7156C11.9291 16.6261 12.2054 16.4376 12.3545 16.2966L12.6255 16.0402H14.1626C15.5628 16.0402 15.6937 16.0474 15.6326 16.1211C15.5956 16.1656 15.328 16.3803 15.0379 16.5982C13.5132 17.7433 11.5798 18.3016 9.73716 18.129C6.22024 17.7995 3.41063 15.2305 2.75993 11.7492C2.62046 11.0033 2.63174 9.60319 2.78282 8.89794C3.48501 5.62082 5.97147 3.24923 9.26998 2.71054C9.88678 2.60985 11.2786 2.64585 11.9049 2.77874ZM11.3476 4.91257C11.7917 5.11438 12.0899 5.5743 12.0899 6.05749C12.0899 6.54519 11.8527 6.93986 11.4171 7.17701C10.6859 7.57509 9.78788 7.14471 9.59003 6.30144C9.52698 6.03281 9.62186 5.6261 9.81423 5.34046C10.1308 4.87032 10.8271 4.67603 11.3476 4.91257ZM8.65979 6.09014L8.66319 6.49944L7.73691 6.4837C6.83673 6.46841 6.80688 6.4645 6.6797 6.34486C6.51566 6.19053 6.50703 5.96039 6.65919 5.79835C6.76692 5.68369 6.79251 5.68084 7.713 5.68084H8.65639L8.65979 6.09014ZM16.8446 6.09979L17.115 6.49334H15.0625H13.0099L13.0125 6.08643L13.0151 5.67957L14.7947 5.69288L16.5742 5.70623L16.8446 6.09979ZM24.962 5.79124C25.1242 5.94369 25.1183 6.18525 24.9485 6.34486L24.8175 6.46795L22.4447 6.48207L20.0719 6.49619L19.8886 6.08852L19.7053 5.68084H22.2749C24.8433 5.68084 24.8445 5.68089 24.962 5.79124ZM15.2557 9.25498C16.3015 9.74954 16.2098 11.2377 15.1111 11.6028C14.6648 11.751 14.1638 11.6167 13.8272 11.2586C13.5682 10.9831 13.4823 10.7708 13.4812 10.4035C13.4784 9.47405 14.4243 8.86183 15.2557 9.25498ZM12.5649 10.4045V10.8116L8.79083 10.798L5.01676 10.7844L4.91969 10.6645C4.78459 10.4976 4.79602 10.2732 4.94731 10.1219L5.0719 9.99725H8.81844H12.5649V10.4045ZM18.1749 10.4035V10.8098H17.5403H16.9057V10.4035V9.99725H17.5403H18.1749V10.4035ZM24.9549 10.1219C25.1062 10.2732 25.1176 10.4976 24.9825 10.6645L24.8855 10.7844L22.8502 10.7987L20.8149 10.8131V10.4052V9.99725H22.8226H24.8303L24.9549 10.1219ZM11.4427 13.6223C11.8717 13.8738 12.0928 14.247 12.0928 14.7199C12.0928 15.0589 12.0027 15.2941 11.772 15.5568C11.4486 15.9253 10.9254 16.0727 10.4482 15.9297C10.2208 15.8616 9.82992 15.5382 9.72157 15.3287C9.36213 14.6334 9.69187 13.7996 10.4356 13.523C10.7233 13.416 11.1651 13.4596 11.4427 13.6223ZM8.65974 14.7199L8.65639 15.1262H7.72722C6.8084 15.1262 6.79667 15.1248 6.67345 15.0015C6.47652 14.8046 6.52739 14.4617 6.76789 14.3648C6.82891 14.3402 7.2803 14.3186 7.77098 14.3169L8.66314 14.3137L8.65974 14.7199ZM17.058 14.3565C17.058 14.38 16.9432 14.5628 16.8028 14.7627L16.5477 15.1262H14.7788H13.0098V14.7199V14.3137H15.0339C16.1472 14.3137 17.058 14.3329 17.058 14.3565ZM24.9825 14.4589C25.1176 14.6259 25.1062 14.8502 24.9549 15.0015L24.8303 15.1262H22.2641C20.8527 15.1262 19.698 15.1171 19.698 15.1061C19.698 15.095 19.7808 14.9115 19.882 14.6984L20.066 14.3108L22.4757 14.3249L24.8855 14.3391L24.9825 14.4589ZM18.5949 18.591L18.3045 18.8845L17.8845 18.4666L17.4645 18.0487L17.7549 17.7551L18.0454 17.4616L18.4653 17.8795L18.8853 18.2974L18.5949 18.591ZM20.448 18.6438L20.7123 18.9115L19.8105 19.8124L18.9088 20.7133L18.6318 20.4328L18.3549 20.1523L19.2417 19.2642C19.7294 18.7758 20.1409 18.3762 20.1561 18.3762C20.1713 18.3762 20.3027 18.4966 20.448 18.6438ZM21.6665 19.8626L21.9308 20.1302L21.029 21.0312L20.1273 21.9321L19.8503 21.6516L19.5733 21.371L20.4601 20.483C20.9479 19.9946 21.3594 19.5949 21.3745 19.5949C21.3898 19.5949 21.5212 19.7154 21.6665 19.8626ZM23.7453 21.9435C24.5433 22.7448 24.9005 23.1399 24.9739 23.3019C25.3647 24.1658 24.6327 25.1724 23.6942 25.0616C23.2672 25.0111 23.0205 24.8234 21.8781 23.6798L20.7905 22.5911L21.6779 21.7024C22.166 21.2136 22.5777 20.8137 22.5928 20.8137C22.6079 20.8137 23.1265 21.3221 23.7453 21.9435Z" fill="#276899"/>
</svg>
