<svg width="17" height="20" viewBox="0 0 17 20" fill="none" xmlns="http://www.w3.org/2000/svg">
<path d="M11.5298 0.190362C10.643 -0.183545 9.6641 0.00157259 8.97508 0.673448C8.95887 0.689268 8.94336 0.705752 8.92859 0.722901L4.50398 5.85954H3.12766C1.40523 5.85954 0.00390625 7.26087 0.00390625 8.98329V11.0137C0.00390625 12.7361 1.40523 14.1375 3.12766 14.1375H4.50402L8.92863 19.2741C8.9434 19.2913 8.95891 19.3078 8.97512 19.3236C9.43051 19.7676 10.0115 20 10.6089 20C10.9188 20 11.2331 19.9374 11.5364 19.8095C12.4191 19.4374 12.9674 18.6105 12.9674 17.6517C12.9674 17.2203 12.6178 16.8707 12.1864 16.8707C11.7551 16.8707 11.4055 17.2203 11.4055 17.6517C11.4055 18.1324 11.0412 18.3233 10.9296 18.3704C10.8181 18.4174 10.4329 18.5431 10.0865 18.2252L5.45371 12.8469C5.30539 12.6747 5.08934 12.5757 4.86203 12.5757H3.12766C2.26645 12.5757 1.56578 11.875 1.56578 11.0138V8.98337C1.56578 8.12216 2.26645 7.42149 3.12766 7.42149H4.86203C5.08934 7.42149 5.30535 7.32243 5.45371 7.15024L10.0864 1.77192C10.4291 1.45767 10.8121 1.58286 10.923 1.62958C11.0362 1.67728 11.4055 1.87083 11.4055 2.35673V13.747C11.4055 14.1784 11.7551 14.528 12.1864 14.528C12.6178 14.528 12.9674 14.1784 12.9674 13.747V2.35673C12.9675 1.39435 12.4166 0.564268 11.5298 0.190362Z" fill="white"/>
<path d="M16.272 12.2457L16.29 12.2128C16.4942 11.8382 16.8743 11.141 16.8743 9.99895C16.8743 8.81426 16.463 8.08856 16.2653 7.73977C16.0526 7.36457 15.5761 7.23273 15.2009 7.44543C14.8257 7.65812 14.6939 8.13469 14.9065 8.50992C15.0682 8.79508 15.3125 9.2261 15.3125 9.99895C15.3125 10.7429 15.0755 11.1775 14.9187 11.4652L14.8995 11.5003C14.6937 11.8793 14.8341 12.3534 15.213 12.5593C15.3315 12.6236 15.4591 12.6541 15.5851 12.6541C15.8621 12.6541 16.1305 12.5063 16.272 12.2457Z" fill="white"/>
</svg>
