<svg width="18" height="17" viewBox="0 0 18 17" fill="none" xmlns="http://www.w3.org/2000/svg">
<path d="M16.7679 2.8058L16.2568 0.228704C16.2262 0.0748761 16.0768 -0.0250376 15.923 0.00548668C15.9229 0.00548668 15.9229 0.00548668 15.9229 0.00552218L1.85446 2.80268H1.41974C1.26293 2.80268 1.13579 2.92982 1.13579 3.08662V4.53475C0.473946 4.66849 -0.00145189 5.25086 3.33175e-06 5.92609V15.5803C0.000926158 16.364 0.636043 16.9991 1.41974 17H16.7528C16.9097 17 17.0368 16.8729 17.0368 16.7161V3.08662C17.0354 2.9367 16.9176 2.81372 16.7679 2.8058ZM15.7545 0.617995L16.1884 2.80268H4.76661L15.7545 0.617995ZM0.814078 5.32355L0.815498 5.32469C0.906147 5.23475 1.0155 5.16593 1.13579 5.12309V6.72597C1.12954 6.72398 1.1233 6.72256 1.11705 6.72029C1.08038 6.7057 1.04482 6.68852 1.01057 6.66889C0.993532 6.65952 0.975359 6.65214 0.95889 6.6405C0.907851 6.60838 0.86029 6.57107 0.816917 6.52919C0.484097 6.19665 0.482819 5.65762 0.814078 5.32355ZM16.4689 13.0247H12.4936V10.7532H16.4689V13.0247ZM16.4689 10.1853H12.2097C12.0529 10.1853 11.9258 10.3124 11.9258 10.4692V13.3087C11.9258 13.4655 12.0529 13.5926 12.2097 13.5926H16.4689V16.4321H1.41974C0.949272 16.4321 0.567896 16.0507 0.567896 15.5803V7.06187C0.580674 7.07153 0.594871 7.07806 0.607933 7.08715C0.63292 7.10475 0.658759 7.1198 0.684598 7.1357C0.732408 7.16491 0.781921 7.19125 0.832818 7.21464C0.861213 7.22742 0.889608 7.23991 0.918002 7.2507C0.972626 7.27111 1.02849 7.28797 1.08525 7.30124C1.11165 7.30777 1.13721 7.31601 1.1639 7.32083C1.24823 7.33688 1.33388 7.34525 1.41974 7.34582H16.4689V10.1853ZM7.11882 6.77793C7.27478 5.69134 8.28205 4.93689 9.36867 5.09285C10.2422 5.21821 10.9284 5.90447 11.0538 6.77793H7.11882ZM16.4689 6.77793H11.6251C11.4637 5.3758 10.1963 4.36996 8.79414 4.53131C7.61417 4.66711 6.68329 5.59795 6.54752 6.77793H1.70368V3.37057H16.4689V6.77793Z" fill="white"/>
<path d="M15.6138 3.93945H13.9102V4.50735H15.3299V5.92708H15.8978V4.2234C15.8978 4.06655 15.7706 3.93945 15.6138 3.93945Z" fill="white"/>
<path d="M2.54957 3.94141C2.39276 3.94141 2.26562 4.06854 2.26562 4.22535V5.92903H2.83352V4.5093H4.25325V3.94141H2.54957Z" fill="white"/>
<path d="M13.6226 11.6035H13.0547V12.1714H13.6226V11.6035Z" fill="white"/>
</svg>
