<svg width="22" height="21" viewBox="0 0 22 21" fill="none" xmlns="http://www.w3.org/2000/svg">
<path d="M18.88 16.47C19.32 15.77 19.58 14.96 19.58 14.08C19.58 11.59 17.57 9.58 15.08 9.58C12.59 9.58 10.58 11.59 10.58 14.08C10.58 16.57 12.59 18.58 15.07 18.58C15.95 18.58 16.77 18.32 17.46 17.88L19.8706 20.2906C20.2624 20.6824 20.8976 20.6824 21.2894 20.2906C21.6817 19.8983 21.6812 19.2622 21.2883 18.8706L18.88 16.47ZM15.08 16.58C14.417 16.58 13.7811 16.3166 13.3122 15.8478C12.8434 15.3789 12.58 14.743 12.58 14.08C12.58 13.417 12.8434 12.7811 13.3122 12.3122C13.7811 11.8434 14.417 11.58 15.08 11.58C15.743 11.58 16.3789 11.8434 16.8478 12.3122C17.3166 12.7811 17.58 13.417 17.58 14.08C17.58 14.743 17.3166 15.3789 16.8478 15.8478C16.3789 16.3166 15.743 16.58 15.08 16.58ZM14.72 8.08C13.98 8.1 13.27 8.26 12.62 8.53L12.07 7.7L8.27 13.88L5.26 10.36L2.1956 15.2647C1.88927 15.755 1.2325 15.8847 0.762839 15.5476C0.333869 15.2396 0.217816 14.6515 0.497676 14.2037L5 7L8 10.5L12 4L14.72 8.08ZM17.31 8.58C16.67 8.3 15.98 8.13 15.26 8.09L19.8093 0.901732C20.1183 0.41353 20.7756 0.288136 21.2426 0.6283C21.6686 0.938596 21.7805 1.52632 21.4984 1.97147L17.31 8.58Z" fill="#454D54"/>
</svg>
