<svg width="23" height="26" viewBox="0 0 23 26" fill="none" xmlns="http://www.w3.org/2000/svg">
<path fill-rule="evenodd" clip-rule="evenodd" d="M5.00033 20.8187V5.03066L14.6443 12.9987L5.00033 20.8187ZM20 1.00299C18.896 1.00299 18 1.89699 18 3.00299V10.639C17.906 10.541 17.824 10.439 17.716 10.351L7.518 1.92299C6.3 0.918986 4.564 0.714986 3.1 1.40499C1.804 2.01699 1 3.23099 1 4.57699V21.429C1 22.775 1.804 23.989 3.1 24.601C3.678 24.871 4.298 25.005 4.912 25.005C5.854 25.005 6.782 24.691 7.518 24.081L17.718 15.655C17.824 15.567 17.906 15.463 18 15.365V23.003C18 24.109 18.896 25.003 20 25.003C21.104 25.003 22 24.109 22 23.003V3.00299C22 1.89699 21.104 1.00299 20 1.00299Z" fill="#276899"/>
<path d="M5.00033 20.8187H4.50033V21.8678L5.31525 21.207L5.00033 20.8187ZM5.00033 5.03066L5.3188 4.6452L4.50033 3.96897V5.03066H5.00033ZM14.6443 12.9987L14.9592 13.387L15.4337 13.0023L14.9628 12.6132L14.6443 12.9987ZM18 10.639L17.6392 10.9851L18.5 11.8826V10.639H18ZM17.716 10.351L17.3975 10.7364L17.4002 10.7386L17.716 10.351ZM7.518 1.92299L7.83652 1.53757L7.83603 1.53717L7.518 1.92299ZM3.1 1.40499L2.88683 0.952703L2.8865 0.952862L3.1 1.40499ZM3.1 24.601L2.88649 25.0531L2.88839 25.054L3.1 24.601ZM7.518 24.081L7.19956 23.6955L7.19894 23.696L7.518 24.081ZM17.718 15.655L18.0364 16.0405L18.0374 16.0397L17.718 15.655ZM18 15.365H18.5V14.1214L17.6392 15.0189L18 15.365ZM5.50033 20.8187V5.03066H4.50033V20.8187H5.50033ZM4.68186 5.41611L14.3259 13.3841L14.9628 12.6132L5.3188 4.6452L4.68186 5.41611ZM14.3294 12.6103L4.68542 20.4303L5.31525 21.207L14.9592 13.387L14.3294 12.6103ZM20 0.502986C18.6202 0.502986 17.5 1.62052 17.5 3.00299H18.5C18.5 2.17345 19.1718 1.50299 20 1.50299V0.502986ZM17.5 3.00299V10.639H18.5V3.00299H17.5ZM18.3608 10.2929C18.3057 10.2353 18.171 10.0768 18.0318 9.96337L17.4002 10.7386C17.477 10.8012 17.5063 10.8466 17.6392 10.9851L18.3608 10.2929ZM18.0345 9.96557L7.83652 1.53757L7.19948 2.3084L17.3975 10.7364L18.0345 9.96557ZM7.83603 1.53717C6.46408 0.406269 4.52032 0.18282 2.88683 0.952703L3.31317 1.85727C4.60768 1.24715 6.13592 1.4317 7.19997 2.30881L7.83603 1.53717ZM2.8865 0.952862C1.4301 1.64061 0.5 3.02199 0.5 4.57699H1.5C1.5 3.43998 2.1779 2.39337 3.3135 1.85711L2.8865 0.952862ZM0.5 4.57699V21.429H1.5V4.57699H0.5ZM0.5 21.429C0.5 22.984 1.4301 24.3654 2.8865 25.0531L3.3135 24.1489C2.1779 23.6126 1.5 22.566 1.5 21.429H0.5ZM2.88839 25.054C3.53313 25.3552 4.22542 25.505 4.912 25.505V24.505C4.37058 24.505 3.82287 24.3868 3.31161 24.148L2.88839 25.054ZM4.912 25.505C5.96399 25.505 7.00647 25.1544 7.83706 24.466L7.19894 23.696C6.55753 24.2276 5.74401 24.505 4.912 24.505V25.505ZM7.83644 24.4665L18.0364 16.0405L17.3996 15.2695L7.19956 23.6955L7.83644 24.4665ZM18.0374 16.0397C18.1709 15.9289 18.3117 15.7623 18.3608 15.7111L17.6392 15.0189C17.5003 15.1637 17.4771 15.2051 17.3986 15.2703L18.0374 16.0397ZM17.5 15.365V23.003H18.5V15.365H17.5ZM17.5 23.003C17.5 24.3855 18.6202 25.503 20 25.503V24.503C19.1718 24.503 18.5 23.8325 18.5 23.003H17.5ZM20 25.503C21.3798 25.503 22.5 24.3855 22.5 23.003H21.5C21.5 23.8325 20.8282 24.503 20 24.503V25.503ZM22.5 23.003V3.00299H21.5V23.003H22.5ZM22.5 3.00299C22.5 1.62052 21.3798 0.502986 20 0.502986V1.50299C20.8282 1.50299 21.5 2.17345 21.5 3.00299H22.5Z" fill="#17212B"/>
</svg>
