<svg width="23" height="26" viewBox="0 0 23 26" fill="none" xmlns="http://www.w3.org/2000/svg">
<path fill-rule="evenodd" clip-rule="evenodd" d="M17.999 20.9732L8.35501 13.0072L17.999 5.18517V20.9732ZM19.9 1.40486C18.432 0.714864 16.698 0.918864 15.482 1.92486L5.282 10.3489C5.176 10.4369 5.094 10.5409 5 10.6389V3.00286C5 1.89686 4.104 1.00286 3 1.00286C1.896 1.00286 1 1.89686 1 3.00286V23.0029C1 24.1069 1.896 25.0029 3 25.0029C4.104 25.0029 5 24.1069 5 23.0029V15.3649C5.094 15.4629 5.176 15.5669 5.284 15.6549L15.482 24.0829C16.218 24.6889 17.146 25.0049 18.088 25.0049C18.702 25.0049 19.322 24.8709 19.9 24.5989C21.196 23.9889 22 22.7729 22 21.4289V4.57686C22 3.23086 21.196 2.01486 19.9 1.40486Z" fill="#276899"/>
<path d="M17.999 20.9732L17.6806 21.3587L18.499 22.0347V20.9732H17.999ZM8.35501 13.0072L8.04004 12.6188L7.56561 13.0036L8.03658 13.3927L8.35501 13.0072ZM17.999 5.18517H18.499V4.13585L17.684 4.79685L17.999 5.18517ZM15.482 1.92486L15.8004 2.31038L15.8007 2.31011L15.482 1.92486ZM5.282 10.3489L4.96361 9.96334L4.96262 9.96416L5.282 10.3489ZM5 10.6389H4.5V11.8824L5.36084 10.985L5 10.6389ZM5 15.3649L5.36084 15.0188L4.5 14.1213V15.3649H5ZM5.284 15.6549L5.60253 15.2694L5.59984 15.2672L5.284 15.6549ZM15.482 24.0829L15.1635 24.4683L15.1642 24.4689L15.482 24.0829ZM19.9 24.5989L20.1129 25.0513L20.1129 25.0513L19.9 24.5989ZM18.3174 20.5877L8.67343 12.6217L8.03658 13.3927L17.6806 21.3587L18.3174 20.5877ZM8.66997 13.3955L18.314 5.5735L17.684 4.79685L8.04004 12.6188L8.66997 13.3955ZM17.499 5.18517V20.9732H18.499V5.18517H17.499ZM20.1127 0.952357C18.4758 0.182957 16.5337 0.405829 15.1633 1.53961L15.8007 2.31011C16.8623 1.4319 18.3882 1.24677 19.6873 1.85737L20.1127 0.952357ZM15.1636 1.53934L4.96361 9.96334L5.60039 10.7344L15.8004 2.31038L15.1636 1.53934ZM4.96262 9.96416C4.82911 10.075 4.68827 10.2416 4.63916 10.2928L5.36084 10.985C5.49973 10.8402 5.52289 10.7987 5.60138 10.7336L4.96262 9.96416ZM5.5 10.6389V3.00286H4.5V10.6389H5.5ZM5.5 3.00286C5.5 1.6204 4.37982 0.502864 3 0.502864V1.50286C3.82818 1.50286 4.5 2.17333 4.5 3.00286H5.5ZM3 0.502864C1.62018 0.502864 0.5 1.6204 0.5 3.00286H1.5C1.5 2.17333 2.17182 1.50286 3 1.50286V0.502864ZM0.5 3.00286V23.0029H1.5V3.00286H0.5ZM0.5 23.0029C0.5 24.383 1.61986 25.5029 3 25.5029V24.5029C2.17214 24.5029 1.5 23.8307 1.5 23.0029H0.5ZM3 25.5029C4.38014 25.5029 5.5 24.383 5.5 23.0029H4.5C4.5 23.8307 3.82786 24.5029 3 24.5029V25.5029ZM5.5 23.0029V15.3649H4.5V23.0029H5.5ZM4.63916 15.711C4.68913 15.7631 4.82955 15.9295 4.96816 16.0425L5.59984 15.2672C5.52245 15.2042 5.49887 15.1627 5.36084 15.0188L4.63916 15.711ZM4.96548 16.0403L15.1635 24.4683L15.8005 23.6975L5.60252 15.2694L4.96548 16.0403ZM15.1642 24.4689C15.9937 25.1519 17.0354 25.5049 18.088 25.5049V24.5049C17.2566 24.5049 16.4423 24.2258 15.7998 23.6969L15.1642 24.4689ZM18.088 25.5049C18.7746 25.5049 19.4674 25.355 20.1129 25.0513L19.6871 24.1465C19.1766 24.3867 18.6294 24.5049 18.088 24.5049V25.5049ZM20.1129 25.0513C21.5701 24.3654 22.5 22.9816 22.5 21.4289H21.5C21.5 22.5641 20.8219 23.6123 19.6871 24.1465L20.1129 25.0513ZM22.5 21.4289V4.57686H21.5V21.4289H22.5ZM22.5 4.57686C22.5 3.02228 21.5702 1.6384 20.1129 0.952471L19.6871 1.85726C20.8218 2.39133 21.5 3.43945 21.5 4.57686H22.5Z" fill="#17212B"/>
</svg>
