<svg width="32" height="32" viewBox="0 0 32 32" fill="none" xmlns="http://www.w3.org/2000/svg">
<g filter="url(#filter0_d_4319)">
<path d="M13.6 18L7.6 12L9.292 10.296L13.6 14.604L22.708 5.496L24.4 7.2L13.6 18ZM16 0C14.4241 0 12.8637 0.310389 11.4078 0.913446C9.95189 1.5165 8.62902 2.40042 7.51472 3.51472C5.26428 5.76515 4 8.8174 4 12C4 15.1826 5.26428 18.2348 7.51472 20.4853C8.62902 21.5996 9.95189 22.4835 11.4078 23.0866C12.8637 23.6896 14.4241 24 16 24C19.1826 24 22.2348 22.7357 24.4853 20.4853C26.7357 18.2348 28 15.1826 28 12C28 10.4241 27.6896 8.86371 27.0866 7.4078C26.4835 5.95189 25.5996 4.62902 24.4853 3.51472C23.371 2.40042 22.0481 1.5165 20.5922 0.913446C19.1363 0.310389 17.5759 0 16 0Z" fill="#00C82C" fill-opacity="0.6"/>
</g>
<defs>
<filter id="filter0_d_4319" x="0" y="0" width="32" height="32" filterUnits="userSpaceOnUse" color-interpolation-filters="sRGB">
<feFlood flood-opacity="0" result="BackgroundImageFix"/>
<feColorMatrix in="SourceAlpha" type="matrix" values="0 0 0 0 0 0 0 0 0 0 0 0 0 0 0 0 0 0 127 0" result="hardAlpha"/>
<feOffset dy="4"/>
<feGaussianBlur stdDeviation="2"/>
<feColorMatrix type="matrix" values="0 0 0 0 0 0 0 0 0 0 0 0 0 0 0 0 0 0 0.1 0"/>
<feBlend mode="normal" in2="BackgroundImageFix" result="effect1_dropShadow_4319"/>
<feBlend mode="normal" in="SourceGraphic" in2="effect1_dropShadow_4319" result="shape"/>
</filter>
</defs>
</svg>
