<svg width="30" height="30" viewBox="0 0 30 30" fill="none" xmlns="http://www.w3.org/2000/svg">
<g filter="url(#filter0_d)">
<path d="M15 4.4C15.2917 4.4 15.5715 4.28411 15.7778 4.07782C15.9841 3.87153 16.1 3.59174 16.1 3.3V1.1C16.1 0.808262 15.9841 0.528472 15.7778 0.322183C15.5715 0.115892 15.2917 0 15 0C14.7083 0 14.4285 0.115892 14.2222 0.322183C14.0159 0.528472 13.9 0.808262 13.9 1.1V3.3C13.9 3.59174 14.0159 3.87153 14.2222 4.07782C14.4285 4.28411 14.7083 4.4 15 4.4ZM24.9 9.9H22.7C22.4083 9.9 22.1285 10.0159 21.9222 10.2222C21.7159 10.4285 21.6 10.7083 21.6 11C21.6 11.2917 21.7159 11.5715 21.9222 11.7778C22.1285 11.9841 22.4083 12.1 22.7 12.1H24.9C25.1917 12.1 25.4715 11.9841 25.6778 11.7778C25.8841 11.5715 26 11.2917 26 11C26 10.7083 25.8841 10.4285 25.6778 10.2222C25.4715 10.0159 25.1917 9.9 24.9 9.9ZM8.4 11C8.4 10.7083 8.28411 10.4285 8.07782 10.2222C7.87153 10.0159 7.59174 9.9 7.3 9.9H5.1C4.80826 9.9 4.52847 10.0159 4.32218 10.2222C4.11589 10.4285 4 10.7083 4 11C4 11.2917 4.11589 11.5715 4.32218 11.7778C4.52847 11.9841 4.80826 12.1 5.1 12.1H7.3C7.59174 12.1 7.87153 11.9841 8.07782 11.7778C8.28411 11.5715 8.4 11.2917 8.4 11ZM8.642 3.3C8.42757 3.09724 8.14138 2.98797 7.84639 2.99622C7.55139 3.00447 7.27176 3.12957 7.069 3.344C6.86624 3.55843 6.75697 3.84462 6.76522 4.13961C6.77347 4.43461 6.89857 4.71424 7.113 4.917L8.697 6.446C8.8033 6.54864 8.92919 6.62881 9.06715 6.68173C9.20512 6.73465 9.35233 6.75923 9.5 6.754C9.64818 6.75344 9.79471 6.72294 9.93081 6.66434C10.0669 6.60574 10.1898 6.52025 10.292 6.413C10.4969 6.2069 10.6119 5.9281 10.6119 5.6375C10.6119 5.3469 10.4969 5.0681 10.292 4.862L8.642 3.3ZM20.5 6.754C20.7832 6.75287 21.0551 6.64255 21.259 6.446L22.843 4.917C23.0362 4.7151 23.1454 4.44721 23.1483 4.16776C23.1511 3.8883 23.0475 3.61823 22.8585 3.41239C22.6695 3.20655 22.4092 3.08038 22.1305 3.0595C21.8518 3.03863 21.5756 3.12462 21.358 3.3L19.774 4.862C19.5691 5.0681 19.4541 5.3469 19.4541 5.6375C19.4541 5.9281 19.5691 6.2069 19.774 6.413C19.9645 6.61399 20.2237 6.73576 20.5 6.754ZM15 17.6C14.7083 17.6 14.4285 17.7159 14.2222 17.9222C14.0159 18.1285 13.9 18.4083 13.9 18.7V20.9C13.9 21.1917 14.0159 21.4715 14.2222 21.6778C14.4285 21.8841 14.7083 22 15 22C15.2917 22 15.5715 21.8841 15.7778 21.6778C15.9841 21.4715 16.1 21.1917 16.1 20.9V18.7C16.1 18.4083 15.9841 18.1285 15.7778 17.9222C15.5715 17.7159 15.2917 17.6 15 17.6ZM21.303 15.554C21.0929 15.3512 20.811 15.2402 20.5191 15.2454C20.2272 15.2505 19.9493 15.3714 19.7465 15.5815C19.5437 15.7916 19.4327 16.0735 19.4379 16.3654C19.443 16.6573 19.5639 16.9352 19.774 17.138L21.358 18.7C21.5619 18.8965 21.8338 19.0069 22.117 19.008C22.2644 19.0089 22.4104 18.9801 22.5465 18.9234C22.6826 18.8667 22.8058 18.7833 22.909 18.678C23.0121 18.5757 23.0939 18.4541 23.1498 18.32C23.2056 18.186 23.2344 18.0422 23.2344 17.897C23.2344 17.7518 23.2056 17.608 23.1498 17.474C23.0939 17.3399 23.0121 17.2183 22.909 17.116L21.303 15.554ZM8.697 15.554L7.113 17.083C7.0099 17.1853 6.92807 17.3069 6.87222 17.441C6.81637 17.575 6.78762 17.7188 6.78762 17.864C6.78762 18.0092 6.81637 18.153 6.87222 18.287C6.92807 18.4211 7.0099 18.5427 7.113 18.645C7.21617 18.7503 7.33944 18.8337 7.4755 18.8904C7.61155 18.9471 7.75761 18.9759 7.905 18.975C8.17617 18.9773 8.43863 18.8794 8.642 18.7L10.226 17.171C10.4361 16.9682 10.557 16.6903 10.5621 16.3984C10.5673 16.1065 10.4563 15.8246 10.2535 15.6145C10.0507 15.4044 9.77285 15.2835 9.48095 15.2784C9.18904 15.2732 8.90705 15.3842 8.697 15.587V15.554ZM15 6.6C14.1298 6.6 13.2791 6.85806 12.5555 7.34153C11.8319 7.82501 11.268 8.5122 10.9349 9.31619C10.6019 10.1202 10.5148 11.0049 10.6845 11.8584C10.8543 12.7119 11.2734 13.4959 11.8887 14.1113C12.5041 14.7266 13.2881 15.1457 14.1416 15.3155C14.9951 15.4852 15.8798 15.3981 16.6838 15.0651C17.4878 14.732 18.175 14.1681 18.6585 13.4445C19.1419 12.7209 19.4 11.8702 19.4 11C19.4 9.83305 18.9364 8.71389 18.1113 7.88873C17.2861 7.06357 16.167 6.6 15 6.6Z" fill="white"/>
</g>
<defs>
<filter id="filter0_d" x="0" y="0" width="30" height="30" filterUnits="userSpaceOnUse" color-interpolation-filters="sRGB">
<feFlood flood-opacity="0" result="BackgroundImageFix"/>
<feColorMatrix in="SourceAlpha" type="matrix" values="0 0 0 0 0 0 0 0 0 0 0 0 0 0 0 0 0 0 127 0"/>
<feOffset dy="4"/>
<feGaussianBlur stdDeviation="2"/>
<feColorMatrix type="matrix" values="0 0 0 0 0 0 0 0 0 0 0 0 0 0 0 0 0 0 0.25 0"/>
<feBlend mode="normal" in2="BackgroundImageFix" result="effect1_dropShadow"/>
<feBlend mode="normal" in="SourceGraphic" in2="effect1_dropShadow" result="shape"/>
</filter>
</defs>
</svg>
