<svg width="62" height="48" viewBox="0 0 62 48" fill="none" xmlns="http://www.w3.org/2000/svg">
<path d="M53.9712 11.8251H25.773C24.8742 4.94569 18.9765 0.155005 12.6 1.12471C6.22361 2.09442 1.78319 8.45737 2.682 15.3368C3.29088 19.9971 6.26012 23.9009 10.3778 25.4549V39.4509C10.3778 43.5789 12.4607 48 18.3018 48H53.9712C57.7974 48 61.8952 45.7528 61.8952 39.4509V20.3621C61.8839 14.0601 57.7974 11.8251 53.9712 11.8251ZM25.9202 13.6204H53.9712C55.3626 13.6186 56.7241 14.0558 57.8879 14.8783L36.1308 30.0835L30.9802 26.4196C30.8902 26.3257 30.782 26.2547 30.6633 26.2119L23.4977 21.2046C25.0552 19.0323 25.9065 16.3669 25.9202 13.6204ZM4.26497 13.5838C4.26497 7.64811 8.72491 2.83636 14.2266 2.83636C19.7283 2.83636 24.1882 7.64811 24.1882 13.5838C24.1882 19.5194 19.7283 24.3312 14.2266 24.3312C8.72746 24.3244 4.27119 19.5167 4.26497 13.5838ZM12.0871 39.4508H12.0758V25.9555C15.7924 26.7266 19.6234 25.4857 22.3317 22.6336L29.0105 27.2989L13.7625 44.397C12.6465 43.0348 12.0482 41.2684 12.0871 39.4508ZM53.8693 46.1923L18.2905 46.1557C17.2145 46.185 16.1465 45.9511 15.1662 45.4718L30.4595 28.3736L35.6554 32.0375H35.712C35.8245 32.0987 35.9483 32.132 36.0742 32.1352C36.2002 32.132 36.324 32.0987 36.4365 32.0375H36.4931L41.7229 28.3736L57.005 45.4718C56.0194 45.9507 54.9502 46.1965 53.8693 46.1923ZM58.5219 44.336L43.2738 27.2378L59.1218 16.1607C59.8672 17.3962 60.2353 18.8526 60.1746 20.3253V39.4508C60.2766 41.2563 59.6779 43.0261 58.5219 44.336Z" fill="#9799A6"/>
<path fill-rule="evenodd" clip-rule="evenodd" d="M14.3167 1C6.97386 1 1 6.97386 1 14.3167C1 21.6595 6.97386 27.6333 14.3167 27.6333C21.6595 27.6333 27.6333 21.6595 27.6333 14.3167C27.6333 6.97386 21.6595 1 14.3167 1Z" fill="#EFEFF5" stroke="#9799A6" stroke-width="2"/>
<path fill-rule="evenodd" clip-rule="evenodd" d="M10.9014 12.4164C10.9014 10.441 12.5084 8.83398 14.4838 8.83398C16.4593 8.83398 18.0663 10.441 18.0663 12.4164C18.0663 14.0337 16.9813 15.3878 15.5074 15.8321V17.0225C15.5074 17.5885 15.0499 18.046 14.4838 18.046C13.9178 18.046 13.4603 17.5885 13.4603 17.0225V14.9754C13.4603 14.4093 13.9178 13.9518 14.4838 13.9518C15.3303 13.9518 16.0192 13.2629 16.0192 12.4164C16.0192 11.57 15.3303 10.8811 14.4838 10.8811C13.6373 10.8811 12.9485 11.57 12.9485 12.4164C12.9485 12.9825 12.491 13.44 11.9249 13.44C11.3589 13.44 10.9014 12.9825 10.9014 12.4164ZM13.4604 20.093C13.4604 19.527 13.9179 19.0695 14.4839 19.0695C15.05 19.0695 15.5075 19.527 15.5075 20.093C15.5075 20.6591 15.05 21.1166 14.4839 21.1166C13.9179 21.1166 13.4604 20.6591 13.4604 20.093Z" fill="#9799A6"/>
</svg>
