<svg width="61" height="47" viewBox="0 0 61 47" fill="none" xmlns="http://www.w3.org/2000/svg">
<path d="M52.9712 10.8251H24.773C23.8742 3.94569 17.9765 -0.844995 11.6 0.124714C5.22361 1.09442 0.783192 7.45737 1.682 14.3368C2.29088 18.9971 5.26012 22.9009 9.37778 24.4549V38.4509C9.37778 42.5789 11.4607 47 17.3018 47H52.9712C56.7974 47 60.8952 44.7528 60.8952 38.4509V19.3621C60.8839 13.0601 56.7974 10.8251 52.9712 10.8251ZM24.9202 12.6204H52.9712C54.3626 12.6186 55.7241 13.0558 56.8879 13.8783L35.1308 29.0835L29.9802 25.4196C29.8902 25.3257 29.782 25.2547 29.6633 25.2119L22.4977 20.2046C24.0552 18.0323 24.9065 15.3669 24.9202 12.6204ZM3.26497 12.5838C3.26497 6.64811 7.72491 1.83636 13.2266 1.83636C18.7283 1.83636 23.1882 6.64811 23.1882 12.5838C23.1882 18.5194 18.7283 23.3312 13.2266 23.3312C7.72746 23.3244 3.27119 18.5167 3.26497 12.5838ZM11.0871 38.4508H11.0758V24.9555C14.7924 25.7266 18.6234 24.4857 21.3317 21.6336L28.0105 26.2989L12.7625 43.397C11.6465 42.0348 11.0482 40.2684 11.0871 38.4508ZM52.8693 45.1923L17.2905 45.1557C16.2145 45.185 15.1465 44.9511 14.1662 44.4718L29.4595 27.3736L34.6554 31.0375H34.712C34.8245 31.0987 34.9483 31.132 35.0742 31.1352C35.2002 31.132 35.324 31.0987 35.4365 31.0375H35.4931L40.7229 27.3736L56.005 44.4718C55.0194 44.9507 53.9502 45.1965 52.8693 45.1923ZM57.5219 43.336L42.2738 26.2378L58.1218 15.1607C58.8672 16.3962 59.2353 17.8526 59.1746 19.3253V38.4508C59.2766 40.2563 58.6779 42.0261 57.5219 43.336Z" fill="#454D54"/>
<path fill-rule="evenodd" clip-rule="evenodd" d="M13.3167 0C5.97386 0 0 5.97386 0 13.3167C0 20.6595 5.97386 26.6333 13.3167 26.6333C20.6595 26.6333 26.6333 20.6595 26.6333 13.3167C26.6333 5.97386 20.6595 0 13.3167 0Z" fill="#454D54"/>
<path fill-rule="evenodd" clip-rule="evenodd" d="M9.90137 11.4158C9.90137 9.44033 11.5084 7.83334 13.4838 7.83334C15.4593 7.83334 17.0663 9.44033 17.0663 11.4158C17.0663 13.033 15.9813 14.3872 14.5074 14.8314V16.0218C14.5074 16.5879 14.0499 17.0454 13.4838 17.0454C12.9178 17.0454 12.4603 16.5879 12.4603 16.0218V13.9747C12.4603 13.4087 12.9178 12.9511 13.4838 12.9511C14.3303 12.9511 15.0192 12.2623 15.0192 11.4158C15.0192 10.5693 14.3303 9.88047 13.4838 9.88047C12.6373 9.88047 11.9485 10.5693 11.9485 11.4158C11.9485 11.9818 11.491 12.4394 10.9249 12.4394C10.3589 12.4394 9.90137 11.9818 9.90137 11.4158ZM12.4604 19.0924C12.4604 18.5264 12.9179 18.0688 13.4839 18.0688C14.05 18.0688 14.5075 18.5264 14.5075 19.0924C14.5075 19.6584 14.05 20.1159 13.4839 20.1159C12.9179 20.1159 12.4604 19.6584 12.4604 19.0924Z" fill="#17212B"/>
</svg>
