<svg width="27" height="27" viewBox="0 0 27 27" fill="none" xmlns="http://www.w3.org/2000/svg">
    <circle cx="13.5" cy="13.5" r="13.5" fill="#FF3A29"/>
    <path fill-rule="evenodd" clip-rule="evenodd"
          d="M15.0318 13.5001L19.6823 8.84948C20.1059 8.42591 20.1059 7.74126 19.6823 7.31768C19.2588 6.89411 18.5741 6.89411 18.1506 7.31768L13.5 11.9683L8.84944 7.31768C8.42588 6.89411 7.74124 6.89411 7.31767 7.31768C6.89411 7.74126 6.89411 8.42591 7.31767 8.84948L11.9682 13.5001L7.31767 18.1508C6.89411 18.5744 6.89411 19.259 7.31767 19.6826C7.52892 19.8938 7.80624 20 8.08356 20C8.36088 20 8.6382 19.8938 8.84944 19.6826L13.5 15.0319L18.1506 19.6826C18.3618 19.8938 18.6391 20 18.9164 20C19.1938 20 19.4711 19.8938 19.6823 19.6826C20.1059 19.259 20.1059 18.5744 19.6823 18.1508L15.0318 13.5001Z"
          fill="white"/>
</svg>
