<svg width="28" height="28" viewBox="0 0 28 28" fill="none" xmlns="http://www.w3.org/2000/svg">
    <path d="M13.24 14.5226L20.31 7.41708L18.9 6L13.24 11.6884L10.41 8.84422L9 10.2613L13.24 14.5226Z" fill="#048025"/>
    <g filter="url(#filter0_d_2853_1)">
        <path d="M6 10C6 7.65829 7.02 5.55779 8.62 4.09045L11 6.48241V0.452261H5L7.2 2.66332C5.24 4.49246 4 7.09548 4 10C4 15.2161 7.95 19.4975 13 20V17.9698C9.06 17.4774 6 14.0905 6 10ZM24 10C24 4.78392 20.05 0.502513 15 0V2.03015C18.94 2.52261 22 5.90955 22 10C22 12.3417 20.98 14.4422 19.38 15.9095L17 13.5176V19.5477H23L20.8 17.3367C22.76 15.5075 24 12.9045 24 10Z" fill="#276899"/>
    </g>
    <defs>
        <filter id="filter0_d_2853_1" x="0" y="0" width="28" height="28" filterUnits="userSpaceOnUse" color-interpolation-filters="sRGB">
            <feFlood flood-opacity="0" result="BackgroundImageFix"/>
            <feColorMatrix in="SourceAlpha" type="matrix" values="0 0 0 0 0 0 0 0 0 0 0 0 0 0 0 0 0 0 127 0" result="hardAlpha"/>
            <feOffset dy="4"/>
            <feGaussianBlur stdDeviation="2"/>
            <feColorMatrix type="matrix" values="0 0 0 0 0 0 0 0 0 0 0 0 0 0 0 0 0 0 0.25 0"/>
            <feBlend mode="normal" in2="BackgroundImageFix" result="effect1_dropShadow_2853_1"/>
            <feBlend mode="normal" in="SourceGraphic" in2="effect1_dropShadow_2853_1" result="shape"/>
        </filter>
    </defs>
</svg>
