<svg width="30" height="39" viewBox="0 0 30 39" fill="none" xmlns="http://www.w3.org/2000/svg">
<path fill-rule="evenodd" clip-rule="evenodd" d="M2.14286 34.6667C2.14286 37.05 4.07143 39 6.42857 39H23.5714C25.9286 39 27.8571 37.05 27.8571 34.6667V9.66667C27.8571 9.11438 27.4094 8.66667 26.8571 8.66667H3.14286C2.59057 8.66667 2.14286 9.11438 2.14286 9.66667V34.6667ZM30 3.16667C30 2.61438 29.5523 2.16667 29 2.16667H22.5L20.6507 0.296811C20.4628 0.10688 20.2068 0 19.9397 0H10.0603C9.79318 0 9.53715 0.10688 9.34931 0.296811L7.5 2.16667H1C0.447715 2.16667 0 2.61438 0 3.16667V5.5C0 6.05228 0.447715 6.5 1 6.5H29C29.5523 6.5 30 6.05228 30 5.5V3.16667ZM10 1H20V2H10V1ZM8 12H6V35H8V12ZM14 12H16V35H14V12ZM24 12H22V35H24V12Z" fill="#276899"/>
</svg>
