<svg width="27" height="29" viewBox="0 0 27 29" fill="none" xmlns="http://www.w3.org/2000/svg">
<path d="M7.75 23.7304H9.734L10.1585 22.0228C10.3516 21.2452 10.751 20.5348 11.315 19.9684L13.5363 17.7328H7.74881V23.7328L7.75 23.7304ZM15.4976 9.93281V15.7588L18.3496 12.8884C18.7534 12.4813 19.241 12.1682 19.7781 11.9712C20.3151 11.7742 20.8885 11.6982 21.458 11.7484V9.93041H15.4964L15.4976 9.93281ZM21.4592 8.13281V6.03281C21.4592 4.99847 21.0509 4.00649 20.3242 3.2751C19.5975 2.5437 18.6119 2.13281 17.5842 2.13281H15.4976V8.13281H21.4592ZM13.7092 2.13281H7.74762V8.13281H13.7092V2.13281ZM5.95915 2.13281H3.875C2.84729 2.13281 1.86166 2.5437 1.13496 3.2751C0.408258 4.00649 0 4.99847 0 6.03281V8.13281H5.96154V2.13281H5.95915ZM0 9.93281V15.9316H5.96154V9.93161H0V9.93281ZM0 17.7316V19.8316C0 20.866 0.408258 21.8579 1.13496 22.5893C1.86166 23.3207 2.84729 23.7316 3.875 23.7316H5.96154V17.7316H0ZM13.7103 9.93161V15.9316H7.74881V9.93161H13.7103Z" fill="#276899"/>
<mask id="path-2-inside-1" fill="white">
<path fill-rule="evenodd" clip-rule="evenodd" d="M22.3774 19.4322L19.7664 16.8006L21.6537 14.8975L24.2638 17.5281L22.3774 19.4322ZM15.65 26.2147L12.7657 26.4794L13.0215 23.5929L18.4635 18.1082L21.0755 20.7407L15.65 26.2147ZM25.6564 16.1712L25.6555 16.1703L23.0028 13.4967C22.2849 12.7751 21.0515 12.7409 20.3714 13.4293L11.6556 22.2136C11.3398 22.5309 11.1441 22.9528 11.1034 23.399L10.7362 27.4708C10.711 27.7589 10.8127 28.044 11.0162 28.2491C11.1993 28.4336 11.4464 28.5352 11.7012 28.5352C11.7312 28.5352 11.7603 28.5342 11.7893 28.5313L15.8294 28.1612C16.2732 28.1202 16.6907 27.9239 17.0056 27.6066L25.7223 18.8214C26.4277 18.1085 26.3976 16.9192 25.6564 16.1712Z"/>
</mask>
<path fill-rule="evenodd" clip-rule="evenodd" d="M22.3774 19.4322L19.7664 16.8006L21.6537 14.8975L24.2638 17.5281L22.3774 19.4322ZM15.65 26.2147L12.7657 26.4794L13.0215 23.5929L18.4635 18.1082L21.0755 20.7407L15.65 26.2147ZM25.6564 16.1712L25.6555 16.1703L23.0028 13.4967C22.2849 12.7751 21.0515 12.7409 20.3714 13.4293L11.6556 22.2136C11.3398 22.5309 11.1441 22.9528 11.1034 23.399L10.7362 27.4708C10.711 27.7589 10.8127 28.044 11.0162 28.2491C11.1993 28.4336 11.4464 28.5352 11.7012 28.5352C11.7312 28.5352 11.7603 28.5342 11.7893 28.5313L15.8294 28.1612C16.2732 28.1202 16.6907 27.9239 17.0056 27.6066L25.7223 18.8214C26.4277 18.1085 26.3976 16.9192 25.6564 16.1712Z" fill="#276899"/>
<path d="M22.3774 19.4322L22.1644 19.6435L22.3776 19.8583L22.5905 19.6433L22.3774 19.4322ZM19.7664 16.8006L19.5533 16.5893L19.3438 16.8006L19.5534 17.0119L19.7664 16.8006ZM21.6537 14.8975L21.8666 14.6862L21.6536 14.4715L21.4407 14.6862L21.6537 14.8975ZM24.2638 17.5281L24.4769 17.7392L24.6862 17.5279L24.4767 17.3168L24.2638 17.5281ZM15.65 26.2147L15.6774 26.5135L15.7862 26.5035L15.8631 26.4259L15.65 26.2147ZM12.7657 26.4794L12.4669 26.4529L12.4352 26.8109L12.7931 26.7781L12.7657 26.4794ZM13.0215 23.5929L12.8085 23.3816L12.7322 23.4585L12.7227 23.5665L13.0215 23.5929ZM18.4635 18.1082L18.6765 17.8969L18.4635 17.6822L18.2506 17.8969L18.4635 18.1082ZM21.0755 20.7407L21.2886 20.9519L21.498 20.7406L21.2885 20.5294L21.0755 20.7407ZM25.6564 16.1712L25.8695 15.9601L25.8694 15.9599L25.6564 16.1712ZM25.6555 16.1703L25.4425 16.3816L25.4425 16.3816L25.6555 16.1703ZM23.0028 13.4967L23.2157 13.2854L23.2155 13.2851L23.0028 13.4967ZM20.3714 13.4293L20.5843 13.6406L20.5848 13.6402L20.3714 13.4293ZM11.6556 22.2136L11.8683 22.4252L11.8686 22.4249L11.6556 22.2136ZM11.1034 23.399L10.8046 23.3717L10.8046 23.372L11.1034 23.399ZM10.7362 27.4708L10.4374 27.4439L10.4373 27.4447L10.7362 27.4708ZM11.0162 28.2491L10.8032 28.4604L11.0162 28.2491ZM11.7893 28.5313L11.762 28.2325L11.7593 28.2328L11.7893 28.5313ZM15.8294 28.1612L15.8568 28.4599L15.857 28.4599L15.8294 28.1612ZM17.0056 27.6066L17.2186 27.8179L17.0056 27.6066ZM25.7223 18.8214L25.9353 19.0327L25.9356 19.0324L25.7223 18.8214ZM22.5904 19.2209L19.9793 16.5893L19.5534 17.0119L22.1644 19.6435L22.5904 19.2209ZM19.9794 17.0118L21.8667 15.1087L21.4407 14.6862L19.5533 16.5893L19.9794 17.0118ZM21.4407 15.1088L24.0508 17.7394L24.4767 17.3168L21.8666 14.6862L21.4407 15.1088ZM24.0506 17.3169L22.1643 19.221L22.5905 19.6433L24.4769 17.7392L24.0506 17.3169ZM15.6226 25.916L12.7383 26.1806L12.7931 26.7781L15.6774 26.5135L15.6226 25.916ZM13.0646 26.5058L13.3203 23.6194L12.7227 23.5665L12.4669 26.4529L13.0646 26.5058ZM13.2345 23.8042L18.6765 18.3195L18.2506 17.8969L12.8085 23.3816L13.2345 23.8042ZM18.2506 18.3195L20.8626 20.952L21.2885 20.5294L18.6765 17.8969L18.2506 18.3195ZM20.8625 20.5295L15.4369 26.0035L15.8631 26.4259L21.2886 20.9519L20.8625 20.5295ZM25.8694 15.9599L25.8684 15.9589L25.4425 16.3816L25.4435 16.3826L25.8694 15.9599ZM25.8684 15.959L23.2157 13.2854L22.7898 13.708L25.4425 16.3816L25.8684 15.959ZM23.2155 13.2851C22.3913 12.4568 20.9663 12.4004 20.158 13.2185L20.5848 13.6402C21.1367 13.0815 22.1784 13.0934 22.7901 13.7083L23.2155 13.2851ZM20.1584 13.218L11.4427 22.0023L11.8686 22.4249L20.5843 13.6406L20.1584 13.218ZM11.443 22.0019C11.0774 22.3693 10.8516 22.8565 10.8046 23.3717L11.4022 23.4262C11.4365 23.049 11.6022 22.6926 11.8683 22.4252L11.443 22.0019ZM10.8046 23.372L10.4374 27.4439L11.035 27.4978L11.4022 23.4259L10.8046 23.372ZM10.4373 27.4447C10.4046 27.8196 10.5368 28.1919 10.8032 28.4604L11.2292 28.0378C11.0886 27.8961 11.0175 27.6982 11.0351 27.497L10.4373 27.4447ZM10.8032 28.4604C11.0428 28.7018 11.3666 28.8352 11.7012 28.8352V28.2352C11.5261 28.2352 11.3558 28.1654 11.2292 28.0378L10.8032 28.4604ZM11.7012 28.8352C11.7375 28.8352 11.7772 28.834 11.8194 28.8298L11.7593 28.2328C11.7433 28.2344 11.7249 28.2352 11.7012 28.2352V28.8352ZM11.8167 28.83L15.8568 28.4599L15.8021 27.8624L11.762 28.2325L11.8167 28.83ZM15.857 28.4599C16.3707 28.4124 16.854 28.1853 17.2186 27.8179L16.7926 27.3953C16.5275 27.6625 16.1756 27.8279 15.8018 27.8625L15.857 28.4599ZM17.2186 27.8179L25.9353 19.0327L25.5094 18.6101L16.7926 27.3953L17.2186 27.8179ZM25.9356 19.0324C26.7663 18.1929 26.7167 16.815 25.8695 15.9601L25.4434 16.3824C26.0786 17.0235 26.0891 18.0242 25.5091 18.6103L25.9356 19.0324Z" fill="#202933" mask="url(#path-2-inside-1)"/>
<g filter="url(#filter0_d)">
<path d="M7.38965 16.6055L19.606 4.38913L21.3748 6.15795L9.15847 18.3743L7.38965 16.6055Z" fill="#048025"/>
<path d="M3 12.2168L4.76882 10.448L9.15985 14.839L7.39103 16.6078L3 12.2168Z" fill="#048025"/>
</g>
<defs>
<filter id="filter0_d" x="0" y="1.38867" width="26.3748" height="21.9852" filterUnits="userSpaceOnUse" color-interpolation-filters="sRGB">
<feFlood flood-opacity="0" result="BackgroundImageFix"/>
<feColorMatrix in="SourceAlpha" type="matrix" values="0 0 0 0 0 0 0 0 0 0 0 0 0 0 0 0 0 0 127 0"/>
<feOffset dx="1" dy="1"/>
<feGaussianBlur stdDeviation="2"/>
<feColorMatrix type="matrix" values="0 0 0 0 0 0 0 0 0 0 0 0 0 0 0 0 0 0 0.61 0"/>
<feBlend mode="normal" in2="BackgroundImageFix" result="effect1_dropShadow"/>
<feBlend mode="normal" in="SourceGraphic" in2="effect1_dropShadow" result="shape"/>
</filter>
</defs>
</svg>
