<svg width="68" height="90" viewBox="0 0 68 90" fill="none" xmlns="http://www.w3.org/2000/svg">
    <path fill-rule="evenodd" clip-rule="evenodd"
          d="M66 83.2228C66 85.8601 63.9566 88.0005 61.4286 88.0005C58.9006 88.0005 56.8571 85.8601 56.8571 83.2228C56.8571 70.0505 46.6034 59.3339 34 59.3339C21.3966 59.3339 11.1429 70.0505 11.1429 83.2228C11.1429 85.8601 9.09943 88.0005 6.57143 88.0005C4.04343 88.0005 2 85.8601 2 83.2228C2 64.7806 16.3589 49.7784 34 49.7784C51.6411 49.7784 66 64.7806 66 83.2228M34 11.5584C39.0423 11.5584 43.1429 15.8441 43.1429 21.114C43.1429 26.3838 39.0423 30.6695 34 30.6695C28.9578 30.6695 24.8572 26.3838 24.8572 21.114C24.8572 15.8441 28.9578 11.5584 34 11.5584M34.0001 40.2221C44.0847 40.2221 52.2858 31.6508 52.2858 21.111C52.2858 10.5713 44.0847 2 34.0001 2C23.9156 2 15.7144 10.5713 15.7144 21.111C15.7144 31.6508 23.9156 40.2221 34.0001 40.2221"
          fill="#232C36"/>
    <path d="M64 83.2228C64 84.841 62.7684 86.0005 61.4286 86.0005V90.0005C65.1447 90.0005 68 86.8792 68 83.2228H64ZM61.4286 86.0005C60.0887 86.0005 58.8571 84.841 58.8571 83.2228H54.8571C54.8571 86.8792 57.7124 90.0005 61.4286 90.0005V86.0005ZM58.8571 83.2228C58.8571 69.03 47.7903 57.3339 34 57.3339V61.3339C45.4166 61.3339 54.8571 71.0709 54.8571 83.2228H58.8571ZM34 57.3339C20.2097 57.3339 9.14286 69.03 9.14286 83.2228H13.1429C13.1429 71.0709 22.5834 61.3339 34 61.3339V57.3339ZM9.14286 83.2228C9.14286 84.841 7.91129 86.0005 6.57143 86.0005V90.0005C10.2876 90.0005 13.1429 86.8792 13.1429 83.2228H9.14286ZM6.57143 86.0005C5.23156 86.0005 4 84.841 4 83.2228H0C0 86.8792 2.85529 90.0005 6.57143 90.0005V86.0005ZM4 83.2228C4 65.8012 17.5455 51.7784 34 51.7784V47.7784C15.1722 47.7784 0 63.76 0 83.2228H4ZM34 51.7784C50.4545 51.7784 64 65.8012 64 83.2228H68C68 63.76 52.8278 47.7784 34 47.7784V51.7784ZM34 13.5584C37.8555 13.5584 41.1429 16.8645 41.1429 21.114H45.1429C45.1429 14.8237 40.2292 9.55844 34 9.55844V13.5584ZM41.1429 21.114C41.1429 25.3634 37.8555 28.6695 34 28.6695V32.6695C40.2292 32.6695 45.1429 27.4043 45.1429 21.114H41.1429ZM34 28.6695C30.1446 28.6695 26.8572 25.3634 26.8572 21.114H22.8572C22.8572 27.4043 27.7709 32.6695 34 32.6695V28.6695ZM26.8572 21.114C26.8572 16.8645 30.1446 13.5584 34 13.5584V9.55844C27.7709 9.55844 22.8572 14.8237 22.8572 21.114H26.8572ZM34.0001 42.2221C45.2716 42.2221 54.2858 32.6712 54.2858 21.111H50.2858C50.2858 30.6303 42.8978 38.2221 34.0001 38.2221V42.2221ZM54.2858 21.111C54.2858 9.55086 45.2716 0 34.0001 0V4C42.8978 4 50.2858 11.5917 50.2858 21.111H54.2858ZM34.0001 0C22.7287 0 13.7144 9.55086 13.7144 21.111H17.7144C17.7144 11.5917 25.1024 4 34.0001 4V0ZM13.7144 21.111C13.7144 32.6712 22.7287 42.2221 34.0001 42.2221V38.2221C25.1024 38.2221 17.7144 30.6303 17.7144 21.111H13.7144Z"
          fill="#17212b"/>
</svg>
