<svg width="26" height="30" viewBox="0 0 26 30" fill="none" xmlns="http://www.w3.org/2000/svg">
<mask id="path-1-inside-1_8957_62445" fill="white">
<path fill-rule="evenodd" clip-rule="evenodd" d="M26 28.3334C26 29.2534 25.1699 30.0001 24.1429 30.0001C23.1159 30.0001 22.2857 29.2534 22.2857 28.3334C22.2857 23.7384 18.1201 20 13 20C7.87986 20 3.71429 23.7384 3.71429 28.3334C3.71429 29.2534 2.88414 30.0001 1.85714 30.0001C0.830143 30.0001 0 29.2534 0 28.3334C0 21.9 5.83329 16.6666 13 16.6666C20.1667 16.6666 26 21.9 26 28.3334ZM13.0004 3.75015C15.0488 3.75015 16.7147 5.43205 16.7147 7.50022C16.7147 9.56839 15.0488 11.2503 13.0004 11.2503C10.952 11.2503 9.28613 9.56839 9.28613 7.50022C9.28613 5.43205 10.952 3.75015 13.0004 3.75015ZM13 15.0003C17.0969 15.0003 20.4286 11.6365 20.4286 7.50015C20.4286 3.36382 17.0969 0 13 0C8.90314 0 5.57143 3.36382 5.57143 7.50015C5.57143 11.6365 8.90314 15.0003 13 15.0003Z"/>
</mask>
<path fill-rule="evenodd" clip-rule="evenodd" d="M26 28.3334C26 29.2534 25.1699 30.0001 24.1429 30.0001C23.1159 30.0001 22.2857 29.2534 22.2857 28.3334C22.2857 23.7384 18.1201 20 13 20C7.87986 20 3.71429 23.7384 3.71429 28.3334C3.71429 29.2534 2.88414 30.0001 1.85714 30.0001C0.830143 30.0001 0 29.2534 0 28.3334C0 21.9 5.83329 16.6666 13 16.6666C20.1667 16.6666 26 21.9 26 28.3334ZM13.0004 3.75015C15.0488 3.75015 16.7147 5.43205 16.7147 7.50022C16.7147 9.56839 15.0488 11.2503 13.0004 11.2503C10.952 11.2503 9.28613 9.56839 9.28613 7.50022C9.28613 5.43205 10.952 3.75015 13.0004 3.75015ZM13 15.0003C17.0969 15.0003 20.4286 11.6365 20.4286 7.50015C20.4286 3.36382 17.0969 0 13 0C8.90314 0 5.57143 3.36382 5.57143 7.50015C5.57143 11.6365 8.90314 15.0003 13 15.0003Z" fill="#232C36"/>
<path d="M24 28.3334C24 28.1672 24.0793 28.0605 24.1202 28.0238C24.1578 27.99 24.1717 28.0001 24.1429 28.0001V32.0001C26.0668 32.0001 28 30.5548 28 28.3334H24ZM24.1429 28.0001C24.114 28.0001 24.1279 27.99 24.1655 28.0238C24.2064 28.0605 24.2857 28.1672 24.2857 28.3334H20.2857C20.2857 30.5548 22.219 32.0001 24.1429 32.0001V28.0001ZM24.2857 28.3334C24.2857 22.4358 19.0157 18 13 18V22C17.2246 22 20.2857 25.041 20.2857 28.3334H24.2857ZM13 18C6.98432 18 1.71429 22.4358 1.71429 28.3334H5.71429C5.71429 25.041 8.7754 22 13 22V18ZM1.71429 28.3334C1.71429 28.1672 1.79361 28.0605 1.8345 28.0238C1.87206 27.99 1.88599 28.0001 1.85714 28.0001V32.0001C3.78105 32.0001 5.71429 30.5548 5.71429 28.3334H1.71429ZM1.85714 28.0001C1.82829 28.0001 1.84222 27.99 1.87979 28.0238C1.92067 28.0605 2 28.1672 2 28.3334H-2C-2 30.5548 -0.0667632 32.0001 1.85714 32.0001V28.0001ZM2 28.3334C2 23.2028 6.72863 18.6666 13 18.6666V14.6666C4.93794 14.6666 -2 20.5972 -2 28.3334H2ZM13 18.6666C19.2714 18.6666 24 23.2028 24 28.3334H28C28 20.5972 21.0621 14.6666 13 14.6666V18.6666ZM13.0004 5.75014C13.9262 5.75014 14.7147 6.5185 14.7147 7.50022H18.7147C18.7147 4.34561 16.1715 1.75015 13.0004 1.75015V5.75014ZM14.7147 7.50022C14.7147 8.48194 13.9262 9.25029 13.0004 9.25029V13.2503C16.1715 13.2503 18.7147 10.6548 18.7147 7.50022H14.7147ZM13.0004 9.25029C12.0746 9.25029 11.2861 8.48194 11.2861 7.50022H7.28613C7.28613 10.6548 9.82938 13.2503 13.0004 13.2503V9.25029ZM11.2861 7.50022C11.2861 6.5185 12.0746 5.75014 13.0004 5.75014V1.75015C9.82938 1.75015 7.28613 4.34561 7.28613 7.50022H11.2861ZM13 17.0003C18.2195 17.0003 22.4286 12.7229 22.4286 7.50015H18.4286C18.4286 10.55 15.9742 13.0003 13 13.0003V17.0003ZM22.4286 7.50015C22.4286 2.27737 18.2195 -2 13 -2V2C15.9742 2 18.4286 4.45026 18.4286 7.50015H22.4286ZM13 -2C7.78054 -2 3.57143 2.27737 3.57143 7.50015H7.57143C7.57143 4.45026 10.0258 2 13 2V-2ZM3.57143 7.50015C3.57143 12.7229 7.78054 17.0003 13 17.0003V13.0003C10.0258 13.0003 7.57143 10.55 7.57143 7.50015H3.57143Z" fill="#515960" mask="url(#path-1-inside-1_8957_62445)"/>
</svg>
