<svg width="19" height="21" viewBox="0 0 19 21" fill="none" xmlns="http://www.w3.org/2000/svg">
<mask id="path-1-inside-1" fill="white">
<path fill-rule="evenodd" clip-rule="evenodd" d="M18.8997 19.8333C18.8997 20.4773 18.2962 20.9999 17.5497 20.9999C16.8032 20.9999 16.1997 20.4773 16.1997 19.8333C16.1997 16.6168 13.1717 14 9.44984 14C5.72795 14 2.69995 16.6168 2.69995 19.8333C2.69995 20.4773 2.09651 20.9999 1.34998 20.9999C0.60344 20.9999 0 20.4773 0 19.8333C0 15.3299 4.24028 11.6666 9.44984 11.6666C14.6594 11.6666 18.8997 15.3299 18.8997 19.8333ZM9.44985 2.6249C10.9389 2.6249 12.1498 3.80222 12.1498 5.24991C12.1498 6.69761 10.9389 7.87493 9.44985 7.87493C7.96082 7.87493 6.74989 6.69761 6.74989 5.24991C6.74989 3.80222 7.96082 2.6249 9.44985 2.6249ZM9.44987 10.5001C12.4279 10.5001 14.8498 8.14542 14.8498 5.25003C14.8498 2.35464 12.4279 0 9.44987 0C6.47182 0 4.04996 2.35464 4.04996 5.25003C4.04996 8.14542 6.47182 10.5001 9.44987 10.5001Z"/>
</mask>
<path fill-rule="evenodd" clip-rule="evenodd" d="M18.8997 19.8333C18.8997 20.4773 18.2962 20.9999 17.5497 20.9999C16.8032 20.9999 16.1997 20.4773 16.1997 19.8333C16.1997 16.6168 13.1717 14 9.44984 14C5.72795 14 2.69995 16.6168 2.69995 19.8333C2.69995 20.4773 2.09651 20.9999 1.34998 20.9999C0.60344 20.9999 0 20.4773 0 19.8333C0 15.3299 4.24028 11.6666 9.44984 11.6666C14.6594 11.6666 18.8997 15.3299 18.8997 19.8333ZM9.44985 2.6249C10.9389 2.6249 12.1498 3.80222 12.1498 5.24991C12.1498 6.69761 10.9389 7.87493 9.44985 7.87493C7.96082 7.87493 6.74989 6.69761 6.74989 5.24991C6.74989 3.80222 7.96082 2.6249 9.44985 2.6249ZM9.44987 10.5001C12.4279 10.5001 14.8498 8.14542 14.8498 5.25003C14.8498 2.35464 12.4279 0 9.44987 0C6.47182 0 4.04996 2.35464 4.04996 5.25003C4.04996 8.14542 6.47182 10.5001 9.44987 10.5001Z" fill="#454D54"/>
<path d="M16.8997 19.8333C16.8997 19.5008 17.0603 19.263 17.1964 19.1453C17.3285 19.0311 17.4598 18.9999 17.5497 18.9999V22.9999C19.1182 22.9999 20.8997 21.8447 20.8997 19.8333H16.8997ZM17.5497 18.9999C17.6396 18.9999 17.7709 19.0311 17.903 19.1453C18.0391 19.263 18.1997 19.5008 18.1997 19.8333H14.1997C14.1997 21.8447 15.9812 22.9999 17.5497 22.9999V18.9999ZM18.1997 19.8333C18.1997 15.2482 13.9924 12 9.44984 12V16C12.3511 16 14.1997 17.9854 14.1997 19.8333H18.1997ZM9.44984 12C4.90732 12 0.699954 15.2482 0.699954 19.8333H4.69995C4.69995 17.9854 6.54858 16 9.44984 16V12ZM0.699954 19.8333C0.699954 19.5008 0.860553 19.263 0.996662 19.1453C1.12874 19.0311 1.26006 18.9999 1.34998 18.9999V22.9999C2.91853 22.9999 4.69995 21.8447 4.69995 19.8333H0.699954ZM1.34998 18.9999C1.43989 18.9999 1.57121 19.0311 1.70329 19.1453C1.8394 19.263 2 19.5008 2 19.8333H-2C-2 21.8447 -0.218572 22.9999 1.34998 22.9999V18.9999ZM2 19.8333C2 16.6987 5.06071 13.6666 9.44984 13.6666V9.66663C3.41984 9.66663 -2 13.9612 -2 19.8333H2ZM9.44984 13.6666C13.839 13.6666 16.8997 16.6987 16.8997 19.8333H20.8997C20.8997 13.9612 15.4798 9.66663 9.44984 9.66663V13.6666ZM9.44985 4.6249C9.88775 4.6249 10.1498 4.95948 10.1498 5.24991H14.1498C14.1498 2.64495 11.99 0.624897 9.44985 0.624897V4.6249ZM10.1498 5.24991C10.1498 5.54034 9.88775 5.87493 9.44985 5.87493V9.87493C11.99 9.87493 14.1498 7.85487 14.1498 5.24991H10.1498ZM9.44985 5.87493C9.01195 5.87493 8.7499 5.54034 8.7499 5.24991H4.74989C4.74989 7.85487 6.9097 9.87493 9.44985 9.87493V5.87493ZM8.7499 5.24991C8.7499 4.95948 9.01195 4.6249 9.44985 4.6249V0.624897C6.9097 0.624897 4.74989 2.64495 4.74989 5.24991H8.7499ZM9.44987 12.5001C13.479 12.5001 16.8498 9.30268 16.8498 5.25003H12.8498C12.8498 6.98815 11.3768 8.50006 9.44987 8.50006V12.5001ZM16.8498 5.25003C16.8498 1.19737 13.479 -2 9.44987 -2V2C11.3768 2 12.8498 3.5119 12.8498 5.25003H16.8498ZM9.44987 -2C5.42069 -2 2.04996 1.19737 2.04996 5.25003H6.04996C6.04996 3.5119 7.52295 2 9.44987 2V-2ZM2.04996 5.25003C2.04996 9.30268 5.42069 12.5001 9.44987 12.5001V8.50006C7.52295 8.50006 6.04996 6.98815 6.04996 5.25003H2.04996Z" fill="#454D54" mask="url(#path-1-inside-1)"/>
</svg>
