<svg width="65" height="61" viewBox="0 0 65 61" fill="none" xmlns="http://www.w3.org/2000/svg">
<g filter="url(#filter0_d)">
<rect x="17" y="16" width="33" height="29" rx="8" fill="#17212B"/>
</g>
<g filter="url(#filter1_d)">
<mask id="path-2-inside-1" fill="white">
<path fill-rule="evenodd" clip-rule="evenodd" d="M41.9469 39.0923C41.9469 39.6852 41.4293 40.1663 40.789 40.1663C40.1486 40.1663 39.6311 39.6852 39.6311 39.0923C39.6311 36.1311 37.0339 33.7219 33.8416 33.7219C30.6493 33.7219 28.0521 36.1311 28.0521 39.0923C28.0521 39.6852 27.5345 40.1663 26.8942 40.1663C26.2539 40.1663 25.7363 39.6852 25.7363 39.0923C25.7363 34.9464 29.3733 31.5738 33.8416 31.5738C38.3099 31.5738 41.9469 34.9464 41.9469 39.0923ZM33.8416 23.25C35.1187 23.25 36.1574 24.3339 36.1574 25.6667C36.1574 26.9995 35.1187 28.0833 33.8416 28.0833C32.5644 28.0833 31.5258 26.9995 31.5258 25.6667C31.5258 24.3339 32.5644 23.25 33.8416 23.25ZM33.8425 30.5007C36.3968 30.5007 38.4741 28.3329 38.4741 25.6673C38.4741 23.0017 36.3968 20.834 33.8425 20.834C31.2882 20.834 29.2109 23.0017 29.2109 25.6673C29.2109 28.3329 31.2882 30.5007 33.8425 30.5007Z"/>
</mask>
<path fill-rule="evenodd" clip-rule="evenodd" d="M41.9469 39.0923C41.9469 39.6852 41.4293 40.1663 40.789 40.1663C40.1486 40.1663 39.6311 39.6852 39.6311 39.0923C39.6311 36.1311 37.0339 33.7219 33.8416 33.7219C30.6493 33.7219 28.0521 36.1311 28.0521 39.0923C28.0521 39.6852 27.5345 40.1663 26.8942 40.1663C26.2539 40.1663 25.7363 39.6852 25.7363 39.0923C25.7363 34.9464 29.3733 31.5738 33.8416 31.5738C38.3099 31.5738 41.9469 34.9464 41.9469 39.0923ZM33.8416 23.25C35.1187 23.25 36.1574 24.3339 36.1574 25.6667C36.1574 26.9995 35.1187 28.0833 33.8416 28.0833C32.5644 28.0833 31.5258 26.9995 31.5258 25.6667C31.5258 24.3339 32.5644 23.25 33.8416 23.25ZM33.8425 30.5007C36.3968 30.5007 38.4741 28.3329 38.4741 25.6673C38.4741 23.0017 36.3968 20.834 33.8425 20.834C31.2882 20.834 29.2109 23.0017 29.2109 25.6673C29.2109 28.3329 31.2882 30.5007 33.8425 30.5007Z" fill="#276899"/>
<path d="M39.9469 39.0923C39.9469 38.4429 40.4676 38.1663 40.789 38.1663V42.1663C42.391 42.1663 43.9469 40.9274 43.9469 39.0923H39.9469ZM40.789 38.1663C41.1104 38.1663 41.6311 38.4429 41.6311 39.0923H37.6311C37.6311 40.9274 39.1869 42.1663 40.789 42.1663V38.1663ZM41.6311 39.0923C41.6311 34.8876 37.9943 31.7219 33.8416 31.7219V35.7219C36.0735 35.7219 37.6311 37.3745 37.6311 39.0923H41.6311ZM33.8416 31.7219C29.6889 31.7219 26.0521 34.8876 26.0521 39.0923H30.0521C30.0521 37.3745 31.6096 35.7219 33.8416 35.7219V31.7219ZM26.0521 39.0923C26.0521 38.4429 26.5728 38.1663 26.8942 38.1663V42.1663C28.4963 42.1663 30.0521 40.9274 30.0521 39.0923H26.0521ZM26.8942 38.1663C27.2156 38.1663 27.7363 38.4429 27.7363 39.0923H23.7363C23.7363 40.9274 25.2922 42.1663 26.8942 42.1663V38.1663ZM27.7363 39.0923C27.7363 36.19 30.3335 33.5738 33.8416 33.5738V29.5738C28.4131 29.5738 23.7363 33.7027 23.7363 39.0923H27.7363ZM33.8416 33.5738C37.3497 33.5738 39.9469 36.19 39.9469 39.0923H43.9469C43.9469 33.7027 39.2701 29.5738 33.8416 29.5738V33.5738ZM33.8416 25.25C33.8982 25.25 33.9661 25.271 34.0344 25.3423C34.104 25.415 34.1574 25.5261 34.1574 25.6667H38.1574C38.1574 23.3105 36.3028 21.25 33.8416 21.25V25.25ZM34.1574 25.6667C34.1574 25.8072 34.104 25.9184 34.0344 25.991C33.9661 26.0623 33.8982 26.0833 33.8416 26.0833V30.0833C36.3028 30.0833 38.1574 28.0228 38.1574 25.6667H34.1574ZM33.8416 26.0833C33.785 26.0833 33.7171 26.0623 33.6488 25.991C33.5792 25.9184 33.5258 25.8072 33.5258 25.6667H29.5258C29.5258 28.0228 31.3804 30.0833 33.8416 30.0833V26.0833ZM33.5258 25.6667C33.5258 25.5261 33.5792 25.415 33.6488 25.3423C33.7171 25.271 33.785 25.25 33.8416 25.25V21.25C31.3804 21.25 29.5258 23.3105 29.5258 25.6667H33.5258ZM33.8425 32.5007C37.5809 32.5007 40.4741 29.3562 40.4741 25.6673H36.4741C36.4741 27.3096 35.2127 28.5007 33.8425 28.5007V32.5007ZM40.4741 25.6673C40.4741 21.9784 37.5809 18.834 33.8425 18.834V22.834C35.2127 22.834 36.4741 24.0251 36.4741 25.6673H40.4741ZM33.8425 18.834C30.1041 18.834 27.2109 21.9784 27.2109 25.6673H31.2109C31.2109 24.0251 32.4723 22.834 33.8425 22.834V18.834ZM27.2109 25.6673C27.2109 29.3562 30.1041 32.5007 33.8425 32.5007V28.5007C32.4723 28.5007 31.2109 27.3096 31.2109 25.6673H27.2109Z" fill="#276899" mask="url(#path-2-inside-1)"/>
</g>
<defs>
<filter id="filter0_d" x="0" y="0" width="65" height="61" filterUnits="userSpaceOnUse" color-interpolation-filters="sRGB">
<feFlood flood-opacity="0" result="BackgroundImageFix"/>
<feColorMatrix in="SourceAlpha" type="matrix" values="0 0 0 0 0 0 0 0 0 0 0 0 0 0 0 0 0 0 127 0"/>
<feOffset dx="-1"/>
<feGaussianBlur stdDeviation="8"/>
<feColorMatrix type="matrix" values="0 0 0 0 0 0 0 0 0 0 0 0 0 0 0 0 0 0 0.15 0"/>
<feBlend mode="normal" in2="BackgroundImageFix" result="effect1_dropShadow"/>
<feBlend mode="normal" in="SourceGraphic" in2="effect1_dropShadow" result="shape"/>
</filter>
<filter id="filter1_d" x="21.7363" y="20.834" width="24.2105" height="27.3323" filterUnits="userSpaceOnUse" color-interpolation-filters="sRGB">
<feFlood flood-opacity="0" result="BackgroundImageFix"/>
<feColorMatrix in="SourceAlpha" type="matrix" values="0 0 0 0 0 0 0 0 0 0 0 0 0 0 0 0 0 0 127 0"/>
<feOffset dy="4"/>
<feGaussianBlur stdDeviation="2"/>
<feColorMatrix type="matrix" values="0 0 0 0 0 0 0 0 0 0 0 0 0 0 0 0 0 0 0.25 0"/>
<feBlend mode="normal" in2="BackgroundImageFix" result="effect1_dropShadow"/>
<feBlend mode="normal" in="SourceGraphic" in2="effect1_dropShadow" result="shape"/>
</filter>
</defs>
</svg>
