<svg width="276" height="84" viewBox="0 0 276 84" fill="none" xmlns="http://www.w3.org/2000/svg">
<g filter="url(#filter0_d)">
<rect x="16" y="8.00098" width="244" height="52" rx="8" fill="#232C36"/>
</g>
<path d="M37.8887 33.1367H41.457V34.6748H37.8887V38.7178H36.2539V34.6748H32.6855V33.1367H36.2539V29.4014H37.8887V33.1367ZM45.6406 32.8115H46.8623C47.6299 32.7998 48.2334 32.5977 48.6729 32.2051C49.1123 31.8125 49.332 31.2822 49.332 30.6143C49.332 29.1143 48.585 28.3643 47.0908 28.3643C46.3877 28.3643 45.8252 28.5664 45.4033 28.9707C44.9873 29.3691 44.7793 29.8994 44.7793 30.5615H43.1533C43.1533 29.5479 43.5225 28.707 44.2607 28.0391C45.0049 27.3652 45.9482 27.0283 47.0908 27.0283C48.2979 27.0283 49.2441 27.3477 49.9297 27.9863C50.6152 28.625 50.958 29.5127 50.958 30.6494C50.958 31.2061 50.7764 31.7451 50.4131 32.2666C50.0557 32.7881 49.5664 33.1777 48.9453 33.4355C49.6484 33.6582 50.1904 34.0273 50.5713 34.543C50.958 35.0586 51.1514 35.6885 51.1514 36.4326C51.1514 37.5811 50.7764 38.4922 50.0264 39.166C49.2764 39.8398 48.3008 40.1768 47.0996 40.1768C45.8984 40.1768 44.9199 39.8516 44.1641 39.2012C43.4141 38.5508 43.0391 37.6924 43.0391 36.626H44.6738C44.6738 37.2998 44.8936 37.8389 45.333 38.2432C45.7725 38.6475 46.3613 38.8496 47.0996 38.8496C47.8848 38.8496 48.4854 38.6445 48.9014 38.2344C49.3174 37.8242 49.5254 37.2354 49.5254 36.4678C49.5254 35.7236 49.2969 35.1523 48.8398 34.7539C48.3828 34.3555 47.7236 34.1504 46.8623 34.1387H45.6406V32.8115ZM61.1445 30.5439C61.1445 31.1826 60.9746 31.751 60.6348 32.249C60.3008 32.7471 59.8467 33.1367 59.2725 33.418C59.9404 33.7051 60.4678 34.124 60.8545 34.6748C61.2471 35.2256 61.4434 35.8496 61.4434 36.5469C61.4434 37.6543 61.0684 38.5361 60.3184 39.1924C59.5742 39.8486 58.5928 40.1768 57.374 40.1768C56.1436 40.1768 55.1562 39.8486 54.4121 39.1924C53.6738 38.5303 53.3047 37.6484 53.3047 36.5469C53.3047 35.8555 53.4922 35.2314 53.8672 34.6748C54.248 34.1182 54.7725 33.6963 55.4404 33.4092C54.8721 33.1279 54.4238 32.7383 54.0957 32.2402C53.7676 31.7422 53.6035 31.1768 53.6035 30.5439C53.6035 29.4658 53.9492 28.6104 54.6406 27.9775C55.332 27.3447 56.2432 27.0283 57.374 27.0283C58.499 27.0283 59.4072 27.3447 60.0986 27.9775C60.7959 28.6104 61.1445 29.4658 61.1445 30.5439ZM59.8174 36.5117C59.8174 35.7969 59.5889 35.2139 59.1318 34.7627C58.6807 34.3115 58.0889 34.0859 57.3564 34.0859C56.624 34.0859 56.0352 34.3086 55.5898 34.7539C55.1504 35.1992 54.9307 35.7852 54.9307 36.5117C54.9307 37.2383 55.1445 37.8096 55.5723 38.2256C56.0059 38.6416 56.6064 38.8496 57.374 38.8496C58.1357 38.8496 58.7334 38.6416 59.167 38.2256C59.6006 37.8037 59.8174 37.2324 59.8174 36.5117ZM57.374 28.3643C56.7354 28.3643 56.2168 28.5635 55.8184 28.9619C55.4258 29.3545 55.2295 29.8906 55.2295 30.5703C55.2295 31.2207 55.4229 31.748 55.8096 32.1523C56.2021 32.5508 56.7236 32.75 57.374 32.75C58.0244 32.75 58.543 32.5508 58.9297 32.1523C59.3223 31.748 59.5186 31.2207 59.5186 30.5703C59.5186 29.9199 59.3164 29.3896 58.9121 28.9795C58.5078 28.5693 57.9951 28.3643 57.374 28.3643ZM63.5967 34.8066C63.5967 33.4824 63.7725 32.2109 64.124 30.9922C64.4814 29.7734 65.0117 28.666 65.7148 27.6699C66.418 26.6738 67.1475 25.9707 67.9033 25.5605L68.2373 26.6328C67.3818 27.2891 66.6787 28.291 66.1279 29.6387C65.583 30.9863 65.2842 32.4951 65.2314 34.165L65.2227 34.9121C65.2227 37.1738 65.6357 39.1367 66.4619 40.8008C66.96 41.7969 67.5518 42.5762 68.2373 43.1387L67.9033 44.1318C67.124 43.6982 66.3799 42.9717 65.6709 41.9521C64.2881 39.96 63.5967 37.5781 63.5967 34.8066ZM77.668 34.543C77.668 36.4473 77.3428 37.8623 76.6924 38.7881C76.042 39.7139 75.0254 40.1768 73.6426 40.1768C72.2773 40.1768 71.2666 39.7256 70.6104 38.8232C69.9541 37.915 69.6143 36.5615 69.5908 34.7627V32.5918C69.5908 30.7109 69.916 29.3135 70.5664 28.3994C71.2168 27.4854 72.2363 27.0283 73.625 27.0283C75.002 27.0283 76.0156 27.4707 76.666 28.3555C77.3164 29.2344 77.6504 30.5938 77.668 32.4336V34.543ZM76.042 32.3193C76.042 30.9424 75.8486 29.9404 75.4619 29.3135C75.0752 28.6807 74.4629 28.3643 73.625 28.3643C72.793 28.3643 72.1865 28.6777 71.8057 29.3047C71.4248 29.9316 71.2285 30.8955 71.2168 32.1963V34.7979C71.2168 36.1807 71.416 37.2031 71.8145 37.8652C72.2188 38.5215 72.8281 38.8496 73.6426 38.8496C74.4453 38.8496 75.04 38.5391 75.4268 37.918C75.8193 37.2969 76.0244 36.3184 76.042 34.9824V32.3193ZM85.9824 34.376C85.6426 34.7803 85.2354 35.1055 84.7607 35.3516C84.292 35.5977 83.7764 35.7207 83.2139 35.7207C82.4756 35.7207 81.8311 35.5391 81.2803 35.1758C80.7354 34.8125 80.3135 34.3027 80.0146 33.6465C79.7158 32.9844 79.5664 32.2549 79.5664 31.458C79.5664 30.6025 79.7275 29.832 80.0498 29.1465C80.3779 28.4609 80.8408 27.9365 81.4385 27.5732C82.0361 27.21 82.7334 27.0283 83.5303 27.0283C84.7959 27.0283 85.792 27.5029 86.5186 28.4521C87.251 29.3955 87.6172 30.6846 87.6172 32.3193V32.7939C87.6172 35.2842 87.125 37.1035 86.1406 38.252C85.1562 39.3945 83.6709 39.9805 81.6846 40.0098H81.3682V38.6387H81.7109C83.0527 38.6152 84.084 38.2666 84.8047 37.5928C85.5254 36.9131 85.918 35.8408 85.9824 34.376ZM83.4775 34.376C84.0225 34.376 84.5234 34.209 84.9805 33.875C85.4434 33.541 85.7803 33.1279 85.9912 32.6357V31.9854C85.9912 30.9189 85.7598 30.0518 85.2969 29.3838C84.834 28.7158 84.248 28.3818 83.5391 28.3818C82.8242 28.3818 82.25 28.6572 81.8164 29.208C81.3828 29.7529 81.166 30.4736 81.166 31.3701C81.166 32.2432 81.374 32.9639 81.79 33.5322C82.2119 34.0947 82.7744 34.376 83.4775 34.376ZM92.2227 32.8115H93.4443C94.2119 32.7998 94.8154 32.5977 95.2549 32.2051C95.6943 31.8125 95.9141 31.2822 95.9141 30.6143C95.9141 29.1143 95.167 28.3643 93.6729 28.3643C92.9697 28.3643 92.4072 28.5664 91.9854 28.9707C91.5693 29.3691 91.3613 29.8994 91.3613 30.5615H89.7354C89.7354 29.5479 90.1045 28.707 90.8428 28.0391C91.5869 27.3652 92.5303 27.0283 93.6729 27.0283C94.8799 27.0283 95.8262 27.3477 96.5117 27.9863C97.1973 28.625 97.54 29.5127 97.54 30.6494C97.54 31.2061 97.3584 31.7451 96.9951 32.2666C96.6377 32.7881 96.1484 33.1777 95.5273 33.4355C96.2305 33.6582 96.7725 34.0273 97.1533 34.543C97.54 35.0586 97.7334 35.6885 97.7334 36.4326C97.7334 37.5811 97.3584 38.4922 96.6084 39.166C95.8584 39.8398 94.8828 40.1768 93.6816 40.1768C92.4805 40.1768 91.502 39.8516 90.7461 39.2012C89.9961 38.5508 89.6211 37.6924 89.6211 36.626H91.2559C91.2559 37.2998 91.4756 37.8389 91.915 38.2432C92.3545 38.6475 92.9434 38.8496 93.6816 38.8496C94.4668 38.8496 95.0674 38.6445 95.4834 38.2344C95.8994 37.8242 96.1074 37.2354 96.1074 36.4678C96.1074 35.7236 95.8789 35.1523 95.4219 34.7539C94.9648 34.3555 94.3057 34.1504 93.4443 34.1387H92.2227V32.8115ZM103.886 34.8945C103.886 36.2012 103.713 37.4551 103.367 38.6562C103.027 39.8516 102.503 40.9561 101.794 41.9697C101.091 42.9834 100.353 43.7041 99.5791 44.1318L99.2363 43.1387C100.139 42.4473 100.862 41.375 101.407 39.9219C101.958 38.4629 102.239 36.8457 102.251 35.0703V34.7891C102.251 33.5586 102.122 32.416 101.864 31.3613C101.606 30.3008 101.246 29.3516 100.783 28.5137C100.326 27.6758 99.8105 27.0225 99.2363 26.5537L99.5791 25.5605C100.353 25.9883 101.088 26.7031 101.785 27.7051C102.488 28.707 103.013 29.8115 103.358 31.0186C103.71 32.2256 103.886 33.5176 103.886 34.8945ZM109.774 35.2285H105.485V33.9014H109.774V35.2285ZM119.223 34.543C119.223 36.4473 118.897 37.8623 118.247 38.7881C117.597 39.7139 116.58 40.1768 115.197 40.1768C113.832 40.1768 112.821 39.7256 112.165 38.8232C111.509 37.915 111.169 36.5615 111.146 34.7627V32.5918C111.146 30.7109 111.471 29.3135 112.121 28.3994C112.771 27.4854 113.791 27.0283 115.18 27.0283C116.557 27.0283 117.57 27.4707 118.221 28.3555C118.871 29.2344 119.205 30.5938 119.223 32.4336V34.543ZM117.597 32.3193C117.597 30.9424 117.403 29.9404 117.017 29.3135C116.63 28.6807 116.018 28.3643 115.18 28.3643C114.348 28.3643 113.741 28.6777 113.36 29.3047C112.979 29.9316 112.783 30.8955 112.771 32.1963V34.7979C112.771 36.1807 112.971 37.2031 113.369 37.8652C113.773 38.5215 114.383 38.8496 115.197 38.8496C116 38.8496 116.595 38.5391 116.981 37.918C117.374 37.2969 117.579 36.3184 117.597 34.9824V32.3193ZM129.33 34.543C129.33 36.4473 129.005 37.8623 128.354 38.7881C127.704 39.7139 126.688 40.1768 125.305 40.1768C123.939 40.1768 122.929 39.7256 122.272 38.8232C121.616 37.915 121.276 36.5615 121.253 34.7627V32.5918C121.253 30.7109 121.578 29.3135 122.229 28.3994C122.879 27.4854 123.898 27.0283 125.287 27.0283C126.664 27.0283 127.678 27.4707 128.328 28.3555C128.979 29.2344 129.312 30.5938 129.33 32.4336V34.543ZM127.704 32.3193C127.704 30.9424 127.511 29.9404 127.124 29.3135C126.737 28.6807 126.125 28.3643 125.287 28.3643C124.455 28.3643 123.849 28.6777 123.468 29.3047C123.087 29.9316 122.891 30.8955 122.879 32.1963V34.7979C122.879 36.1807 123.078 37.2031 123.477 37.8652C123.881 38.5215 124.49 38.8496 125.305 38.8496C126.107 38.8496 126.702 38.5391 127.089 37.918C127.481 37.2969 127.687 36.3184 127.704 34.9824V32.3193ZM139.438 34.543C139.438 36.4473 139.112 37.8623 138.462 38.7881C137.812 39.7139 136.795 40.1768 135.412 40.1768C134.047 40.1768 133.036 39.7256 132.38 38.8232C131.724 37.915 131.384 36.5615 131.36 34.7627V32.5918C131.36 30.7109 131.686 29.3135 132.336 28.3994C132.986 27.4854 134.006 27.0283 135.395 27.0283C136.771 27.0283 137.785 27.4707 138.436 28.3555C139.086 29.2344 139.42 30.5938 139.438 32.4336V34.543ZM137.812 32.3193C137.812 30.9424 137.618 29.9404 137.231 29.3135C136.845 28.6807 136.232 28.3643 135.395 28.3643C134.562 28.3643 133.956 28.6777 133.575 29.3047C133.194 29.9316 132.998 30.8955 132.986 32.1963V34.7979C132.986 36.1807 133.186 37.2031 133.584 37.8652C133.988 38.5215 134.598 38.8496 135.412 38.8496C136.215 38.8496 136.81 38.5391 137.196 37.918C137.589 37.2969 137.794 36.3184 137.812 34.9824V32.3193ZM145.071 35.2285H140.782V33.9014H145.071V35.2285ZM154.52 34.543C154.52 36.4473 154.194 37.8623 153.544 38.7881C152.894 39.7139 151.877 40.1768 150.494 40.1768C149.129 40.1768 148.118 39.7256 147.462 38.8232C146.806 37.915 146.466 36.5615 146.442 34.7627V32.5918C146.442 30.7109 146.768 29.3135 147.418 28.3994C148.068 27.4854 149.088 27.0283 150.477 27.0283C151.854 27.0283 152.867 27.4707 153.518 28.3555C154.168 29.2344 154.502 30.5938 154.52 32.4336V34.543ZM152.894 32.3193C152.894 30.9424 152.7 29.9404 152.313 29.3135C151.927 28.6807 151.314 28.3643 150.477 28.3643C149.645 28.3643 149.038 28.6777 148.657 29.3047C148.276 29.9316 148.08 30.8955 148.068 32.1963V34.7979C148.068 36.1807 148.268 37.2031 148.666 37.8652C149.07 38.5215 149.68 38.8496 150.494 38.8496C151.297 38.8496 151.892 38.5391 152.278 37.918C152.671 37.2969 152.876 36.3184 152.894 34.9824V32.3193ZM164.627 34.543C164.627 36.4473 164.302 37.8623 163.651 38.7881C163.001 39.7139 161.984 40.1768 160.602 40.1768C159.236 40.1768 158.226 39.7256 157.569 38.8232C156.913 37.915 156.573 36.5615 156.55 34.7627V32.5918C156.55 30.7109 156.875 29.3135 157.525 28.3994C158.176 27.4854 159.195 27.0283 160.584 27.0283C161.961 27.0283 162.975 27.4707 163.625 28.3555C164.275 29.2344 164.609 30.5938 164.627 32.4336V34.543ZM163.001 32.3193C163.001 30.9424 162.808 29.9404 162.421 29.3135C162.034 28.6807 161.422 28.3643 160.584 28.3643C159.752 28.3643 159.146 28.6777 158.765 29.3047C158.384 29.9316 158.188 30.8955 158.176 32.1963V34.7979C158.176 36.1807 158.375 37.2031 158.773 37.8652C159.178 38.5215 159.787 38.8496 160.602 38.8496C161.404 38.8496 161.999 38.5391 162.386 37.918C162.778 37.2969 162.983 36.3184 163.001 34.9824V32.3193ZM170.261 35.2285H165.972V33.9014H170.261V35.2285ZM179.709 34.543C179.709 36.4473 179.384 37.8623 178.733 38.7881C178.083 39.7139 177.066 40.1768 175.684 40.1768C174.318 40.1768 173.308 39.7256 172.651 38.8232C171.995 37.915 171.655 36.5615 171.632 34.7627V32.5918C171.632 30.7109 171.957 29.3135 172.607 28.3994C173.258 27.4854 174.277 27.0283 175.666 27.0283C177.043 27.0283 178.057 27.4707 178.707 28.3555C179.357 29.2344 179.691 30.5938 179.709 32.4336V34.543ZM178.083 32.3193C178.083 30.9424 177.89 29.9404 177.503 29.3135C177.116 28.6807 176.504 28.3643 175.666 28.3643C174.834 28.3643 174.228 28.6777 173.847 29.3047C173.466 29.9316 173.27 30.8955 173.258 32.1963V34.7979C173.258 36.1807 173.457 37.2031 173.855 37.8652C174.26 38.5215 174.869 38.8496 175.684 38.8496C176.486 38.8496 177.081 38.5391 177.468 37.918C177.86 37.2969 178.065 36.3184 178.083 34.9824V32.3193ZM189.816 34.543C189.816 36.4473 189.491 37.8623 188.841 38.7881C188.19 39.7139 187.174 40.1768 185.791 40.1768C184.426 40.1768 183.415 39.7256 182.759 38.8232C182.103 37.915 181.763 36.5615 181.739 34.7627V32.5918C181.739 30.7109 182.064 29.3135 182.715 28.3994C183.365 27.4854 184.385 27.0283 185.773 27.0283C187.15 27.0283 188.164 27.4707 188.814 28.3555C189.465 29.2344 189.799 30.5938 189.816 32.4336V34.543ZM188.19 32.3193C188.19 30.9424 187.997 29.9404 187.61 29.3135C187.224 28.6807 186.611 28.3643 185.773 28.3643C184.941 28.3643 184.335 28.6777 183.954 29.3047C183.573 29.9316 183.377 30.8955 183.365 32.1963V34.7979C183.365 36.1807 183.564 37.2031 183.963 37.8652C184.367 38.5215 184.977 38.8496 185.791 38.8496C186.594 38.8496 187.188 38.5391 187.575 37.918C187.968 37.2969 188.173 36.3184 188.19 34.9824V32.3193Z" fill="white"/>
<g filter="url(#filter1_d)">
<circle cx="236" cy="34.001" r="16" fill="#515960"/>
</g>
<path fill-rule="evenodd" clip-rule="evenodd" d="M226.885 32.5475C228.224 33.0071 229.291 34.1279 229.737 35.5487L229.785 35.6927C230.296 37.1999 230.089 38.8223 229.232 40.0391C229.076 40.2599 229.111 40.5239 229.275 40.6487L231.761 42.5375C231.849 42.6035 231.934 42.6035 231.987 42.5975C232.047 42.5879 232.135 42.5555 232.205 42.4547L232.483 42.0611C233.309 40.8887 234.641 40.1651 236.048 40.1243C237.627 40.0919 239.045 40.8155 239.928 42.0911L240.07 42.2963C240.141 42.3971 240.227 42.4307 240.288 42.4403C240.341 42.4511 240.427 42.4475 240.514 42.3803L242.987 40.5143C243.16 40.3847 243.198 40.1075 243.07 39.9215L242.758 39.4715C241.954 38.3099 241.715 36.8027 242.119 35.4407C242.558 33.9575 243.676 32.7839 245.109 32.3039L245.351 32.2223C245.544 32.1587 245.648 31.9187 245.58 31.6979L244.635 28.6727C244.591 28.5311 244.5 28.4675 244.449 28.4411C244.378 28.4039 244.3 28.3979 244.225 28.4231L243.817 28.5587C242.422 29.0231 240.882 28.7711 239.7 27.8819L239.571 27.7847C238.447 26.9399 237.779 25.5779 237.784 24.1427L237.786 23.8067C237.786 23.6471 237.711 23.5475 237.665 23.5019C237.622 23.4575 237.549 23.4047 237.446 23.4047L234.389 23.4011C234.202 23.4011 234.05 23.5799 234.049 23.8007L234.047 24.0911C234.041 25.5491 233.359 26.9363 232.221 27.8039L232.066 27.9215C230.815 28.8731 229.183 29.1419 227.705 28.6379C227.648 28.6187 227.595 28.6223 227.545 28.6487C227.507 28.6679 227.437 28.7171 227.403 28.8263L226.423 31.9415C226.352 32.1683 226.469 32.4047 226.688 32.4803L226.885 32.5475ZM231.938 45.001C231.355 45.001 230.789 44.8114 230.311 44.4478L227.825 42.5602C226.637 41.6602 226.374 39.9286 227.238 38.701C227.687 38.065 227.779 37.2478 227.515 36.4726L227.449 36.271C227.23 35.5726 226.728 35.0302 226.108 34.8178H226.107L225.911 34.7494C224.449 34.249 223.67 32.6998 224.134 31.2214L225.113 28.1074C225.335 27.403 225.814 26.8342 226.462 26.5066C227.095 26.1874 227.812 26.1382 228.481 26.3674C229.2 26.6122 229.998 26.479 230.613 26.011L230.768 25.8934C231.315 25.4758 231.645 24.7978 231.648 24.0814L231.649 23.7922C231.655 22.2514 232.885 21.001 234.388 21.001H234.393L237.449 21.0046C238.172 21.0058 238.853 21.2914 239.367 21.8086C239.898 22.3426 240.189 23.0566 240.186 23.8186L240.184 24.1534C240.182 24.8326 240.492 25.4746 241.017 25.8682L241.145 25.9654C241.696 26.3794 242.414 26.4982 243.058 26.2822L243.465 26.1466C244.157 25.9162 244.894 25.9726 245.543 26.305C246.209 26.6458 246.701 27.2326 246.926 27.9586L247.871 30.9838C248.327 32.4454 247.537 34.0222 246.113 34.4986L245.872 34.579C245.181 34.8118 244.637 35.3878 244.42 36.1222C244.221 36.7954 244.336 37.5358 244.731 38.1046L245.043 38.5546C245.899 39.793 245.626 41.5306 244.433 42.4294L241.96 44.2966C241.366 44.7454 240.638 44.9266 239.907 44.8102C239.17 44.6914 238.527 44.2834 238.096 43.6618L237.955 43.4554C237.535 42.8506 236.863 42.4834 236.158 42.523C235.453 42.5422 234.843 42.877 234.445 43.4434L234.168 43.837C233.733 44.4526 233.089 44.8546 232.356 44.9698C232.215 44.9914 232.076 45.001 231.938 45.001ZM236.001 31.2007C235.009 31.2007 234.201 32.0083 234.201 33.0007C234.201 33.9931 235.009 34.8007 236.001 34.8007C236.993 34.8007 237.801 33.9931 237.801 33.0007C237.801 32.0083 236.993 31.2007 236.001 31.2007ZM236.001 37.2009C233.686 37.2009 231.802 35.3169 231.802 33.0009C231.802 30.6849 233.686 28.8009 236.001 28.8009C238.317 28.8009 240.201 30.6849 240.201 33.0009C240.201 35.3169 238.317 37.2009 236.001 37.2009Z" fill="#232C36"/>
<g filter="url(#filter2_d)">
<rect x="16" y="8.00098" width="244" height="52" rx="8" fill="#232C36"/>
</g>
<g filter="url(#filter3_d)">
<path d="M60.3344 39.478L62.5733 37.2383C62.8748 36.9403 63.2564 36.7364 63.6715 36.6512C64.0867 36.566 64.5177 36.6032 64.9121 36.7583L67.6407 37.8482C68.0393 38.0101 68.3811 38.2863 68.623 38.6422C68.8649 38.9981 68.9961 39.4176 69 39.848V44.8474C68.9977 45.1402 68.9362 45.4294 68.8192 45.6978C68.7022 45.9661 68.5321 46.208 68.3192 46.4088C68.1063 46.6097 67.8549 46.7654 67.5803 46.8665C67.3057 46.9676 67.0134 47.0121 66.7212 46.9972C47.601 45.8073 43.7429 29.6091 43.0133 23.4098C42.9794 23.1053 43.0104 22.7972 43.1041 22.5056C43.1978 22.214 43.3522 21.9455 43.5571 21.7179C43.762 21.4903 44.0127 21.3086 44.2928 21.1849C44.5729 21.0612 44.876 20.9982 45.1822 21H50.0097C50.4405 21.0013 50.8611 21.1315 51.2173 21.3738C51.5735 21.6162 51.8492 21.9596 52.0087 22.3599L53.0981 25.0896C53.2583 25.4826 53.2992 25.9141 53.2156 26.3303C53.1321 26.7464 52.9278 27.1287 52.6284 27.4293L50.3895 29.6691C50.3895 29.6691 51.6789 38.3981 60.3344 39.478Z" fill="#515960"/>
</g>
<path d="M98.8711 37.8281L101.771 28.2041H104.707L100.251 41.001H97.5L93.0615 28.2041H95.9883L98.8711 37.8281ZM109.304 36.5449H104.355V34.4971H109.304V36.5449ZM121.916 41.001H119.279L114.146 32.5811V41.001H111.51V28.2041H114.146L119.288 36.6416V28.2041H121.916V41.001ZM129.747 40.0342C129.12 40.7959 128.253 41.1768 127.146 41.1768C126.126 41.1768 125.347 40.8838 124.808 40.2979C124.274 39.7119 124.002 38.8535 123.99 37.7227V31.4912H126.53V37.6348C126.53 38.625 126.981 39.1201 127.884 39.1201C128.745 39.1201 129.337 38.8213 129.659 38.2236V31.4912H132.208V41.001H129.817L129.747 40.0342ZM136.506 31.4912L136.585 32.5547C137.259 31.7285 138.17 31.3154 139.318 31.3154C140.543 31.3154 141.384 31.7988 141.841 32.7656C142.509 31.7988 143.461 31.3154 144.697 31.3154C145.729 31.3154 146.496 31.6172 147 32.2207C147.504 32.8184 147.756 33.7207 147.756 34.9277V41.001H145.207V34.9365C145.207 34.3975 145.102 34.0049 144.891 33.7588C144.68 33.5068 144.308 33.3809 143.774 33.3809C143.013 33.3809 142.485 33.7441 142.192 34.4707L142.201 41.001H139.661V34.9453C139.661 34.3945 139.553 33.9961 139.336 33.75C139.119 33.5039 138.75 33.3809 138.229 33.3809C137.508 33.3809 136.986 33.6797 136.664 34.2773V41.001H134.124V31.4912H136.506ZM158.285 36.334C158.285 37.8574 157.96 39.0469 157.31 39.9023C156.659 40.752 155.751 41.1768 154.585 41.1768C153.554 41.1768 152.73 40.7812 152.115 39.9902L152.001 41.001H149.716V27.501H152.256V32.3438C152.842 31.6582 153.612 31.3154 154.567 31.3154C155.728 31.3154 156.636 31.7432 157.292 32.5986C157.954 33.4482 158.285 34.6465 158.285 36.1934V36.334ZM155.745 36.1494C155.745 35.1885 155.593 34.4883 155.288 34.0488C154.983 33.6035 154.529 33.3809 153.926 33.3809C153.117 33.3809 152.561 33.7119 152.256 34.374V38.127C152.566 38.7949 153.129 39.1289 153.943 39.1289C154.764 39.1289 155.303 38.7246 155.561 37.916C155.684 37.5293 155.745 36.9404 155.745 36.1494ZM164.235 41.1768C162.841 41.1768 161.704 40.749 160.825 39.8936C159.952 39.0381 159.516 37.8984 159.516 36.4746V36.2285C159.516 35.2734 159.7 34.4209 160.069 33.6709C160.438 32.915 160.96 32.335 161.634 31.9307C162.313 31.5205 163.087 31.3154 163.954 31.3154C165.255 31.3154 166.277 31.7256 167.021 32.5459C167.771 33.3662 168.146 34.5293 168.146 36.0352V37.0723H162.091C162.173 37.6934 162.419 38.1914 162.829 38.5664C163.245 38.9414 163.77 39.1289 164.402 39.1289C165.381 39.1289 166.146 38.7744 166.696 38.0654L167.944 39.4629C167.563 40.002 167.048 40.4238 166.397 40.7285C165.747 41.0273 165.026 41.1768 164.235 41.1768ZM163.945 33.3721C163.441 33.3721 163.031 33.542 162.715 33.8818C162.404 34.2217 162.205 34.708 162.117 35.3408H165.65V35.1387C165.639 34.5762 165.486 34.1426 165.193 33.8379C164.9 33.5273 164.484 33.3721 163.945 33.3721ZM174.94 33.873C174.595 33.8262 174.29 33.8027 174.026 33.8027C173.065 33.8027 172.436 34.1279 172.137 34.7783V41.001H169.597V31.4912H171.996L172.066 32.625C172.576 31.752 173.282 31.3154 174.185 31.3154C174.466 31.3154 174.729 31.3535 174.976 31.4297L174.94 33.873ZM181.321 38.373C181.321 38.0625 181.166 37.8193 180.855 37.6436C180.551 37.4619 180.059 37.3008 179.379 37.1602C177.117 36.6855 175.986 35.7246 175.986 34.2773C175.986 33.4336 176.335 32.7305 177.032 32.168C177.735 31.5996 178.652 31.3154 179.783 31.3154C180.99 31.3154 181.954 31.5996 182.675 32.168C183.401 32.7363 183.765 33.4746 183.765 34.3828H181.225C181.225 34.0195 181.107 33.7207 180.873 33.4863C180.639 33.2461 180.272 33.126 179.774 33.126C179.347 33.126 179.016 33.2227 178.781 33.416C178.547 33.6094 178.43 33.8555 178.43 34.1543C178.43 34.4355 178.562 34.6641 178.825 34.8398C179.095 35.0098 179.546 35.1592 180.179 35.2881C180.812 35.4111 181.345 35.5518 181.778 35.71C183.12 36.2021 183.791 37.0547 183.791 38.2676C183.791 39.1348 183.419 39.8379 182.675 40.377C181.931 40.9102 180.97 41.1768 179.792 41.1768C178.995 41.1768 178.286 41.0361 177.665 40.7549C177.05 40.4678 176.566 40.0781 176.215 39.5859C175.863 39.0879 175.688 38.5518 175.688 37.9775H178.096C178.119 38.4287 178.286 38.7744 178.597 39.0146C178.907 39.2549 179.323 39.375 179.845 39.375C180.331 39.375 180.697 39.2842 180.943 39.1025C181.195 38.915 181.321 38.6719 181.321 38.373Z" fill="white"/>
<g filter="url(#filter4_d)">
<circle cx="224" cy="34.001" r="16" fill="#515960"/>
</g>
<path fill-rule="evenodd" clip-rule="evenodd" d="M214.885 32.5475C216.224 33.0071 217.291 34.1279 217.737 35.5487L217.785 35.6927C218.296 37.1999 218.089 38.8223 217.232 40.0391C217.076 40.2599 217.111 40.5239 217.275 40.6487L219.761 42.5375C219.849 42.6035 219.934 42.6035 219.987 42.5975C220.047 42.5879 220.135 42.5555 220.205 42.4547L220.483 42.0611C221.309 40.8887 222.641 40.1651 224.048 40.1243C225.627 40.0919 227.045 40.8155 227.928 42.0911L228.07 42.2963C228.141 42.3971 228.227 42.4307 228.288 42.4403C228.341 42.4511 228.427 42.4475 228.514 42.3803L230.987 40.5143C231.16 40.3847 231.198 40.1075 231.07 39.9215L230.758 39.4715C229.954 38.3099 229.715 36.8027 230.119 35.4407C230.558 33.9575 231.676 32.7839 233.109 32.3039L233.351 32.2223C233.544 32.1587 233.648 31.9187 233.58 31.6979L232.635 28.6727C232.591 28.5311 232.5 28.4675 232.449 28.4411C232.378 28.4039 232.3 28.3979 232.225 28.4231L231.817 28.5587C230.422 29.0231 228.882 28.7711 227.7 27.8819L227.571 27.7847C226.447 26.9399 225.779 25.5779 225.784 24.1427L225.786 23.8067C225.786 23.6471 225.711 23.5475 225.665 23.5019C225.622 23.4575 225.549 23.4047 225.446 23.4047L222.389 23.4011C222.202 23.4011 222.05 23.5799 222.049 23.8007L222.047 24.0911C222.041 25.5491 221.359 26.9363 220.221 27.8039L220.066 27.9215C218.815 28.8731 217.183 29.1419 215.705 28.6379C215.648 28.6187 215.595 28.6223 215.545 28.6487C215.507 28.6679 215.437 28.7171 215.403 28.8263L214.423 31.9415C214.352 32.1683 214.469 32.4047 214.688 32.4803L214.885 32.5475ZM219.938 45.001C219.355 45.001 218.789 44.8114 218.311 44.4478L215.825 42.5602C214.637 41.6602 214.374 39.9286 215.238 38.701C215.687 38.065 215.779 37.2478 215.515 36.4726L215.449 36.271C215.23 35.5726 214.728 35.0302 214.108 34.8178H214.107L213.911 34.7494C212.449 34.249 211.67 32.6998 212.134 31.2214L213.113 28.1074C213.335 27.403 213.814 26.8342 214.462 26.5066C215.095 26.1874 215.812 26.1382 216.481 26.3674C217.2 26.6122 217.998 26.479 218.613 26.011L218.768 25.8934C219.315 25.4758 219.645 24.7978 219.648 24.0814L219.649 23.7922C219.655 22.2514 220.885 21.001 222.388 21.001H222.393L225.449 21.0046C226.172 21.0058 226.853 21.2914 227.367 21.8086C227.898 22.3426 228.189 23.0566 228.186 23.8186L228.184 24.1534C228.182 24.8326 228.492 25.4746 229.017 25.8682L229.145 25.9654C229.696 26.3794 230.414 26.4982 231.058 26.2822L231.465 26.1466C232.157 25.9162 232.894 25.9726 233.543 26.305C234.209 26.6458 234.701 27.2326 234.926 27.9586L235.871 30.9838C236.327 32.4454 235.537 34.0222 234.113 34.4986L233.872 34.579C233.181 34.8118 232.637 35.3878 232.42 36.1222C232.221 36.7954 232.336 37.5358 232.731 38.1046L233.043 38.5546C233.899 39.793 233.626 41.5306 232.433 42.4294L229.96 44.2966C229.366 44.7454 228.638 44.9266 227.907 44.8102C227.17 44.6914 226.527 44.2834 226.096 43.6618L225.955 43.4554C225.535 42.8506 224.863 42.4834 224.158 42.523C223.453 42.5422 222.843 42.877 222.445 43.4434L222.168 43.837C221.733 44.4526 221.089 44.8546 220.356 44.9698C220.215 44.9914 220.076 45.001 219.938 45.001ZM224.001 31.2007C223.009 31.2007 222.201 32.0083 222.201 33.0007C222.201 33.9931 223.009 34.8007 224.001 34.8007C224.993 34.8007 225.801 33.9931 225.801 33.0007C225.801 32.0083 224.993 31.2007 224.001 31.2007ZM224.001 37.2009C221.686 37.2009 219.802 35.3169 219.802 33.0009C219.802 30.6849 221.686 28.8009 224.001 28.8009C226.317 28.8009 228.201 30.6849 228.201 33.0009C228.201 35.3169 226.317 37.2009 224.001 37.2009Z" fill="#232C36"/>
<defs>
<filter id="filter0_d" x="0" y="0.000976562" width="276" height="84" filterUnits="userSpaceOnUse" color-interpolation-filters="sRGB">
<feFlood flood-opacity="0" result="BackgroundImageFix"/>
<feColorMatrix in="SourceAlpha" type="matrix" values="0 0 0 0 0 0 0 0 0 0 0 0 0 0 0 0 0 0 127 0"/>
<feOffset dy="8"/>
<feGaussianBlur stdDeviation="8"/>
<feColorMatrix type="matrix" values="0 0 0 0 0 0 0 0 0 0 0 0 0 0 0 0 0 0 0.12 0"/>
<feBlend mode="normal" in2="BackgroundImageFix" result="effect1_dropShadow"/>
<feBlend mode="normal" in="SourceGraphic" in2="effect1_dropShadow" result="shape"/>
</filter>
<filter id="filter1_d" x="204" y="2.00098" width="64" height="64" filterUnits="userSpaceOnUse" color-interpolation-filters="sRGB">
<feFlood flood-opacity="0" result="BackgroundImageFix"/>
<feColorMatrix in="SourceAlpha" type="matrix" values="0 0 0 0 0 0 0 0 0 0 0 0 0 0 0 0 0 0 127 0"/>
<feOffset/>
<feGaussianBlur stdDeviation="8"/>
<feColorMatrix type="matrix" values="0 0 0 0 0 0 0 0 0 0 0 0 0 0 0 0 0 0 0.5 0"/>
<feBlend mode="normal" in2="BackgroundImageFix" result="effect1_dropShadow"/>
<feBlend mode="normal" in="SourceGraphic" in2="effect1_dropShadow" result="shape"/>
</filter>
<filter id="filter2_d" x="12" y="8.00098" width="252" height="60" filterUnits="userSpaceOnUse" color-interpolation-filters="sRGB">
<feFlood flood-opacity="0" result="BackgroundImageFix"/>
<feColorMatrix in="SourceAlpha" type="matrix" values="0 0 0 0 0 0 0 0 0 0 0 0 0 0 0 0 0 0 127 0"/>
<feOffset dy="4"/>
<feGaussianBlur stdDeviation="2"/>
<feColorMatrix type="matrix" values="0 0 0 0 0 0 0 0 0 0 0 0 0 0 0 0 0 0 0.25 0"/>
<feBlend mode="normal" in2="BackgroundImageFix" result="effect1_dropShadow"/>
<feBlend mode="normal" in="SourceGraphic" in2="effect1_dropShadow" result="shape"/>
</filter>
<filter id="filter3_d" x="43" y="21" width="34" height="34" filterUnits="userSpaceOnUse" color-interpolation-filters="sRGB">
<feFlood flood-opacity="0" result="BackgroundImageFix"/>
<feColorMatrix in="SourceAlpha" type="matrix" values="0 0 0 0 0 0 0 0 0 0 0 0 0 0 0 0 0 0 127 0"/>
<feOffset dx="4" dy="4"/>
<feGaussianBlur stdDeviation="2"/>
<feColorMatrix type="matrix" values="0 0 0 0 0 0 0 0 0 0 0 0 0 0 0 0 0 0 0.25 0"/>
<feBlend mode="normal" in2="BackgroundImageFix" result="effect1_dropShadow"/>
<feBlend mode="normal" in="SourceGraphic" in2="effect1_dropShadow" result="shape"/>
</filter>
<filter id="filter4_d" x="208" y="18.001" width="40" height="40" filterUnits="userSpaceOnUse" color-interpolation-filters="sRGB">
<feFlood flood-opacity="0" result="BackgroundImageFix"/>
<feColorMatrix in="SourceAlpha" type="matrix" values="0 0 0 0 0 0 0 0 0 0 0 0 0 0 0 0 0 0 127 0"/>
<feOffset dx="4" dy="4"/>
<feGaussianBlur stdDeviation="2"/>
<feColorMatrix type="matrix" values="0 0 0 0 0 0 0 0 0 0 0 0 0 0 0 0 0 0 0.25 0"/>
<feBlend mode="normal" in2="BackgroundImageFix" result="effect1_dropShadow"/>
<feBlend mode="normal" in="SourceGraphic" in2="effect1_dropShadow" result="shape"/>
</filter>
</defs>
</svg>
