<svg width="26" height="19" viewBox="0 0 26 19" fill="none" xmlns="http://www.w3.org/2000/svg">
<path d="M22.4545 0H3.54545C2.60514 0 1.70334 0.375334 1.03844 1.04343C0.373538 1.71153 0 2.61767 0 3.5625V15.4375C0 16.3823 0.373538 17.2885 1.03844 17.9566C1.70334 18.6247 2.60514 19 3.54545 19H22.4545C23.3949 19 24.2967 18.6247 24.9616 17.9566C25.6265 17.2885 26 16.3823 26 15.4375V3.5625C26 2.61767 25.6265 1.71153 24.9616 1.04343C24.2967 0.375334 23.3949 0 22.4545 0ZM23.6364 15.4375C23.6364 15.7524 23.5119 16.0545 23.2902 16.2772C23.0686 16.4999 22.768 16.625 22.4545 16.625H3.54545C3.23202 16.625 2.93142 16.4999 2.70978 16.2772C2.48815 16.0545 2.36364 15.7524 2.36364 15.4375V3.5625C2.36364 3.24756 2.48815 2.94551 2.70978 2.72281C2.93142 2.50011 3.23202 2.375 3.54545 2.375H22.4545C22.768 2.375 23.0686 2.50011 23.2902 2.72281C23.5119 2.94551 23.6364 3.24756 23.6364 3.5625V15.4375ZM17.7273 5.9375C17.1609 5.9391 16.6032 6.07701 16.1007 6.33968C15.5983 6.60235 15.1658 6.98215 14.8395 7.44727C14.5132 7.91239 14.3025 8.44929 14.225 9.01304C14.1476 9.57678 14.2058 10.151 14.3945 10.6875H11.6055C11.8565 9.97411 11.8749 9.19895 11.6581 8.47433C11.4413 7.7497 11.0005 7.11327 10.3996 6.65723C9.79868 6.2012 9.06887 5.94926 8.31591 5.93791C7.56296 5.92657 6.82596 6.15642 6.21172 6.59414C5.59748 7.03187 5.1379 7.65474 4.89956 8.37251C4.66123 9.09027 4.65653 9.86564 4.88614 10.5863C5.11576 11.3069 5.56776 11.9354 6.17665 12.3806C6.78554 12.8258 7.51969 13.0646 8.27273 13.0625H17.7273C18.6676 13.0625 19.5694 12.6872 20.2343 12.0191C20.8992 11.351 21.2727 10.4448 21.2727 9.5C21.2727 8.55517 20.8992 7.64903 20.2343 6.98093C19.5694 6.31283 18.6676 5.9375 17.7273 5.9375ZM8.27273 10.6875C8.03899 10.6875 7.81049 10.6179 7.61614 10.4874C7.4218 10.3569 7.27032 10.1714 7.18087 9.95444C7.09142 9.73745 7.06802 9.49868 7.11362 9.26833C7.15922 9.03798 7.27178 8.82639 7.43706 8.66031C7.60234 8.49424 7.81292 8.38114 8.04217 8.33532C8.27142 8.2895 8.50904 8.31301 8.72499 8.40289C8.94094 8.49277 9.12551 8.64498 9.25537 8.84026C9.38523 9.03554 9.45455 9.26513 9.45455 9.5C9.45455 9.81494 9.33003 10.117 9.1084 10.3397C8.88676 10.5624 8.58616 10.6875 8.27273 10.6875ZM17.7273 10.6875C17.4935 10.6875 17.265 10.6179 17.0707 10.4874C16.8763 10.3569 16.7249 10.1714 16.6354 9.95444C16.546 9.73745 16.5226 9.49868 16.5682 9.26833C16.6138 9.03798 16.7263 8.82639 16.8916 8.66031C17.0569 8.49424 17.2675 8.38114 17.4967 8.33532C17.726 8.2895 17.9636 8.31301 18.1795 8.40289C18.3955 8.49277 18.5801 8.64498 18.7099 8.84026C18.8398 9.03554 18.9091 9.26513 18.9091 9.5C18.9091 9.81494 18.7846 10.117 18.5629 10.3397C18.3413 10.5624 18.0407 10.6875 17.7273 10.6875Z" fill="#8AA8D4"/>
</svg>
