<svg width="36" height="24" viewBox="0 0 36 24" fill="none" xmlns="http://www.w3.org/2000/svg">
<path fill-rule="evenodd" clip-rule="evenodd" d="M15.1509 3.86523L8.70961 8.52907C8.49873 8.67973 8.24997 8.76239 7.9949 8.76239H2.52344V15.2382H7.9949C8.24997 15.2382 8.49873 15.3208 8.70961 15.4715L15.1509 20.1353V3.86523ZM17.6784 1.33481V22.6674C17.6784 23.162 17.4183 23.6153 17.0041 23.846C16.8197 23.9487 16.6177 24.0007 16.4156 24.0007C16.1656 24.0007 15.9156 23.922 15.7022 23.7673L7.6055 17.9049H1.26274C0.565709 17.9049 0 17.3089 0 16.5716V7.42925C0 6.69195 0.565709 6.09597 1.26274 6.09597H7.6055L15.7022 0.233512C16.0886 -0.0464782 16.5899 -0.0771438 17.0041 0.154848C17.4183 0.385506 17.6784 0.838823 17.6784 1.33481ZM34.3666 20.1607C34.1045 20.712 33.7187 21 33.3302 21C33.0362 21 32.7421 20.8357 32.496 20.5027C31.9239 19.7219 31.8335 18.3066 32.2938 17.3391C33.6708 14.4432 33.6708 9.55367 32.2938 6.66002C31.8335 5.69023 31.9239 4.2749 32.496 3.49411C33.0681 2.72008 33.9063 2.87083 34.3666 3.83838C36.5445 8.41511 36.5445 15.5817 34.3666 20.1607ZM28.3666 18.3472C28.1045 18.776 27.7187 19 27.3302 19C27.0362 19 26.7421 18.8722 26.496 18.6132C25.9239 18.006 25.8335 16.9051 26.2938 16.1526C27.6708 13.9002 27.6708 10.0973 26.2938 7.84669C25.8335 7.0924 25.9239 5.99159 26.496 5.38431C27.0681 4.78228 27.9063 4.89954 28.3666 5.65207C30.5445 9.21175 30.5445 14.7858 28.3666 18.3472ZM22.4497 16.8368C22.2009 17.1634 21.8347 17.3341 21.466 17.3341C21.1869 17.3341 20.9079 17.2368 20.6743 17.0394C20.1313 16.5768 20.0454 15.7381 20.4823 15.1648C21.7893 13.4489 21.7893 10.5517 20.4823 8.83705C20.0454 8.26241 20.1313 7.42377 20.6743 6.96112C21.2172 6.50247 22.0128 6.5918 22.4497 7.16511C24.5168 9.87702 24.5168 14.1235 22.4497 16.8368Z" fill="#276899"/>
</svg>
