<svg width="26" height="26" viewBox="0 0 26 26" fill="none" xmlns="http://www.w3.org/2000/svg">
<path d="M13.8087 13.2275V7.3125H12.1833V13.2275C11.8746 13.4072 11.6337 13.6834 11.4977 14.0135C11.3616 14.3436 11.338 14.7093 11.4304 15.0541C11.5229 15.399 11.7262 15.7039 12.0092 15.9218C12.2921 16.1396 12.6388 16.2584 12.996 16.2597C13.3529 16.2597 13.6999 16.1421 13.9834 15.9253C14.2669 15.7084 14.4711 15.4043 14.5645 15.0599C14.6579 14.7155 14.6352 14.3499 14.5001 14.0196C14.365 13.6893 14.1249 13.4127 13.8168 13.2324L13.8087 13.2275Z" fill="#515960"/>
<path d="M12.9953 3.25098C9.97762 3.25098 7.08356 4.44941 4.94975 6.58264C2.81595 8.71586 1.61719 11.6091 1.61719 14.626C1.61719 17.6428 2.81595 20.5361 4.94975 22.6693C7.08356 24.8025 9.97762 26.001 12.9953 26.001C16.0129 26.001 18.907 24.8025 21.0408 22.6693C23.1746 20.5361 24.3734 17.6428 24.3734 14.626C24.3734 11.6091 23.1746 8.71586 21.0408 6.58264C18.907 4.44941 16.0129 3.25098 12.9953 3.25098ZM12.9953 23.5635C10.6243 23.5635 8.35035 22.6219 6.67379 20.9457C4.99723 19.2696 4.05535 16.9964 4.05535 14.626C4.05535 12.2556 4.99723 9.98232 6.67379 8.30621C8.35035 6.6301 10.6243 5.68848 12.9953 5.68848C15.3663 5.68848 17.6402 6.6301 19.3168 8.30621C20.9933 9.98232 21.9352 12.2556 21.9352 14.626C21.9309 16.9947 20.9879 19.2653 19.3126 20.9404C17.6373 22.6156 15.3663 23.5588 12.9969 23.5635H12.9953Z" fill="#515960"/>
<path d="M9.74512 0H16.2469V2.43816H9.74512V0Z" fill="#515960"/>
<path d="M0 7.2124L4.40982 2.43652L6.20106 4.08915L1.79124 8.86502L0 7.2124Z" fill="#515960"/>
<path d="M19.7988 4.09403L21.5901 2.44141L25.9999 7.21728L24.2086 8.86991L19.7988 4.09403Z" fill="#515960"/>
</svg>
