<svg width="25" height="25" viewBox="0 0 25 25" fill="none" xmlns="http://www.w3.org/2000/svg">
<path d="M11 16C11 15.4477 11.4477 15 12 15H22C22.5523 15 23 15.4477 23 16C23 16.5523 22.5523 17 22 17H12C11.4477 17 11 16.5523 11 16Z" fill="#BD3D44"/>
<path d="M3.32531 12.1352C3.73338 11.6479 4.76956 10.8881 5.27826 10.5718C5.94076 10.1604 5.99531 10.1268 6.59009 10.4536C6.98683 10.6718 7.25732 10.8759 7.67728 10.7417C8.09725 10.6075 8.97558 10.015 9.70554 9.15262C10.4355 8.29024 10.8787 7.31952 10.9245 6.90358C10.9702 6.48764 10.6963 6.28638 10.3861 5.96743C9.94904 5.51785 9.96854 5.43274 10.2188 4.73325C10.414 4.18914 10.9883 3.07236 11.4022 2.58989C11.8447 2.0719 11.854 2.15383 12.1875 2.2443C12.4591 2.31923 12.7227 2.41765 12.9749 2.53832C13.4693 2.77781 13.7527 2.99075 13.973 3.33342C14.1933 3.67609 14.3705 4.51681 13.6271 6.20966C12.8837 7.90252 12.3277 8.7875 11.1295 10.2036C9.93129 11.6197 8.97654 12.4153 7.5586 13.3833C5.80437 14.5795 5.06625 14.4653 4.66325 14.3382C4.26025 14.2112 3.97716 13.999 3.62037 13.5959C3.43982 13.3902 3.27978 13.169 3.14229 12.9352C2.97509 12.6486 2.8886 12.6581 3.32531 12.1352Z" stroke="white" stroke-width="0.8" stroke-miterlimit="10"/>
<path d="M1.45312 6.23968C1.45312 2.90534 2.30344 1 5.81201 1C9.20225 1 16.9514 1 17.4357 1C17.92 1 21.3102 1.47633 21.3102 6.23968C21.3102 11.003 21.3102 10.5267 21.3102 10.5267" stroke="white" stroke-linecap="round" stroke-linejoin="round"/>
<path d="M1.45296 10.527C0.655256 10.527 0 9.8825 0 9.09795C0 8.3134 0.655256 7.66895 1.45296 7.66895C2.25066 7.66895 2.90592 8.3134 2.90592 9.09795C2.90592 9.8825 2.25066 10.527 1.45296 10.527ZM1.45296 8.20132C0.96864 8.20132 0.569788 8.59359 0.569788 9.06993C0.569788 9.54626 0.96864 9.93854 1.45296 9.93854C1.93728 9.93854 2.33613 9.54626 2.33613 9.06993C2.33613 8.59359 1.93728 8.20132 1.45296 8.20132Z" fill="white"/>
<path d="M1.45296 15.2896C0.655256 15.2896 0 14.6452 0 13.8606C0 13.0761 0.655256 12.4316 1.45296 12.4316C2.25066 12.4316 2.90592 13.0761 2.90592 13.8606C2.90592 14.6452 2.25066 15.2896 1.45296 15.2896ZM1.45296 12.964C0.96864 12.964 0.569788 13.3563 0.569788 13.8326C0.569788 14.309 0.96864 14.7012 1.45296 14.7012C1.93728 14.7012 2.33613 14.309 2.33613 13.8326C2.33613 13.3563 1.93728 12.964 1.45296 12.964Z" fill="white"/>
<path d="M1.45312 16.9289C1.45312 20.1299 2.32418 21.959 5.91832 21.959C9.39125 21.959 12.0964 21.959 12.5925 21.959" stroke="white" stroke-linecap="round" stroke-linejoin="round"/>
<path d="M24.2004 16.2424C24.2004 20.1677 20.9627 23.3638 16.9513 23.3638C12.9398 23.3638 9.70215 20.1677 9.70215 16.2424C9.70215 12.3172 12.9398 9.12109 16.9513 9.12109C20.9627 9.12109 24.2004 12.3172 24.2004 16.2424Z" stroke="white"/>
</svg>
