<svg width="25" height="25" viewBox="0 0 25 25" fill="none" xmlns="http://www.w3.org/2000/svg">
<g filter="url(#filter0_d)">
<path d="M12.5 0C7.80603 0 4 3.80603 4 8.5C4 13.194 7.80603 17 12.5 17C17.194 17 21 13.194 21 8.5C21 3.80603 17.194 0 12.5 0ZM12.5 15C8.6029 15 6 12.3971 6 8.5C6 4.6029 8.6029 2 12.5 2C16.3971 2 19 4.6029 19 8.5C19 12.3971 16.3971 15 12.5 15Z" fill="white"/>
<path d="M11.5894 5.16071C11.5894 5.40225 11.6853 5.63389 11.8561 5.80469C12.0269 5.97548 12.2585 6.07143 12.5001 6.07143C12.7416 6.07143 12.9732 5.97548 13.144 5.80469C13.3148 5.63389 13.4108 5.40225 13.4108 5.16071C13.4108 4.91918 13.3148 4.68753 13.144 4.51674C12.9732 4.34595 12.7416 4.25 12.5001 4.25C12.2585 4.25 12.0269 4.34595 11.8561 4.51674C11.6853 4.68753 11.5894 4.91918 11.5894 5.16071ZM12.9554 7.28571H12.0447C11.9612 7.28571 11.8929 7.35402 11.8929 7.4375V12.5982C11.8929 12.6817 11.9612 12.75 12.0447 12.75H12.9554C13.0389 12.75 13.1072 12.6817 13.1072 12.5982V7.4375C13.1072 7.35402 13.0389 7.28571 12.9554 7.28571Z" fill="white"/>
</g>
<defs>
<filter id="filter0_d" x="0" y="0" width="25" height="25" filterUnits="userSpaceOnUse" color-interpolation-filters="sRGB">
<feFlood flood-opacity="0" result="BackgroundImageFix"/>
<feColorMatrix in="SourceAlpha" type="matrix" values="0 0 0 0 0 0 0 0 0 0 0 0 0 0 0 0 0 0 127 0"/>
<feOffset dy="4"/>
<feGaussianBlur stdDeviation="2"/>
<feColorMatrix type="matrix" values="0 0 0 0 0 0 0 0 0 0 0 0 0 0 0 0 0 0 0.25 0"/>
<feBlend mode="normal" in2="BackgroundImageFix" result="effect1_dropShadow"/>
<feBlend mode="normal" in="SourceGraphic" in2="effect1_dropShadow" result="shape"/>
</filter>
</defs>
</svg>
