<svg width="276" height="84" viewBox="0 0 276 84" fill="none" xmlns="http://www.w3.org/2000/svg">
<g filter="url(#filter0_d)">
<rect x="16" y="16" width="244" height="52" rx="8" fill="#17212B"/>
<rect x="17" y="17" width="242" height="50" rx="7" stroke="#276899" stroke-width="2"/>
</g>
<path d="M122.552 45.6602H117.19L115.986 49H114.246L119.133 36.2031H120.609L125.505 49H123.773L122.552 45.6602ZM117.7 44.2715H122.051L119.871 38.2861L117.7 44.2715ZM126.577 44.166C126.577 42.707 126.923 41.5352 127.614 40.6504C128.306 39.7598 129.211 39.3145 130.33 39.3145C131.443 39.3145 132.325 39.6953 132.976 40.457V35.5H134.602V49H133.107L133.028 47.9805C132.378 48.7773 131.473 49.1758 130.312 49.1758C129.211 49.1758 128.312 48.7246 127.614 47.8223C126.923 46.9199 126.577 45.7422 126.577 44.2891V44.166ZM128.203 44.3506C128.203 45.4287 128.426 46.2725 128.871 46.8818C129.316 47.4912 129.932 47.7959 130.717 47.7959C131.748 47.7959 132.501 47.333 132.976 46.4072V42.0391C132.489 41.1426 131.742 40.6943 130.734 40.6943C129.938 40.6943 129.316 41.002 128.871 41.6172C128.426 42.2324 128.203 43.1436 128.203 44.3506ZM136.737 44.166C136.737 42.707 137.083 41.5352 137.774 40.6504C138.466 39.7598 139.371 39.3145 140.49 39.3145C141.604 39.3145 142.485 39.6953 143.136 40.457V35.5H144.762V49H143.268L143.188 47.9805C142.538 48.7773 141.633 49.1758 140.473 49.1758C139.371 49.1758 138.472 48.7246 137.774 47.8223C137.083 46.9199 136.737 45.7422 136.737 44.2891V44.166ZM138.363 44.3506C138.363 45.4287 138.586 46.2725 139.031 46.8818C139.477 47.4912 140.092 47.7959 140.877 47.7959C141.908 47.7959 142.661 47.333 143.136 46.4072V42.0391C142.649 41.1426 141.902 40.6943 140.895 40.6943C140.098 40.6943 139.477 41.002 139.031 41.6172C138.586 42.2324 138.363 43.1436 138.363 44.3506ZM156.416 42.1357H159.984V43.6738H156.416V47.7168H154.781V43.6738H151.213V42.1357H154.781V38.4004H156.416V42.1357Z" fill="white"/>
<defs>
<filter id="filter0_d" x="0" y="0" width="276" height="84" filterUnits="userSpaceOnUse" color-interpolation-filters="sRGB">
<feFlood flood-opacity="0" result="BackgroundImageFix"/>
<feColorMatrix in="SourceAlpha" type="matrix" values="0 0 0 0 0 0 0 0 0 0 0 0 0 0 0 0 0 0 127 0"/>
<feOffset/>
<feGaussianBlur stdDeviation="8"/>
<feColorMatrix type="matrix" values="0 0 0 0 0.152941 0 0 0 0 0.407843 0 0 0 0 0.6 0 0 0 0.09 0"/>
<feBlend mode="normal" in2="BackgroundImageFix" result="effect1_dropShadow"/>
<feBlend mode="normal" in="SourceGraphic" in2="effect1_dropShadow" result="shape"/>
</filter>
</defs>
</svg>
