<svg width="12" height="12" viewBox="0 0 12 12" fill="none" xmlns="http://www.w3.org/2000/svg">
<path d="M0 6C0 5.44772 0.447715 5 1 5H11C11.5523 5 12 5.44772 12 6V6C12 6.55228 11.5523 7 11 7H1C0.447715 7 0 6.55228 0 6V6Z" fill="#276899"/>
<path d="M5.99988 0.000488281C6.55216 0.000488281 6.99988 0.448204 6.99988 1.00049L6.99988 11.0005C6.99988 11.5528 6.55216 12.0005 5.99988 12.0005V12.0005C5.44759 12.0005 4.99988 11.5528 4.99988 11.0005L4.99988 1.00049C4.99988 0.448203 5.44759 0.000488281 5.99988 0.000488281V0.000488281Z" fill="#276899"/>
</svg>
