<svg width="31" height="26" viewBox="0 0 31 26" fill="none" xmlns="http://www.w3.org/2000/svg">
<path d="M2.80834 23.4885C4.35894 23.4885 26.8431 23.4885 26.8431 23.4885V26.0001L31 21.5324L26.8431 17.0646V19.5751C26.8431 19.5751 4.86455 19.5751 2.80882 19.5751C0.753096 19.5751 0.233999 16.6401 0.233999 16.6401C-0.676449 20.1039 1.25774 23.4885 2.80834 23.4885Z" fill="#276899"/>
<mask id="path-2-inside-1" fill="white">
<path fill-rule="evenodd" clip-rule="evenodd" d="M27.1931 13.294C27.1931 13.7257 26.8534 14.076 26.4332 14.076C26.0131 14.076 25.6734 13.7257 25.6734 13.294C25.6734 11.1382 23.9692 9.38423 21.8744 9.38423C19.7796 9.38423 18.0754 11.1382 18.0754 13.294C18.0754 13.7257 17.7358 14.076 17.3156 14.076C16.8954 14.076 16.5558 13.7257 16.5558 13.294C16.5558 10.2757 18.9423 7.82031 21.8744 7.82031C24.8065 7.82031 27.1931 10.2757 27.1931 13.294ZM21.8746 1.76172C22.7127 1.76172 23.3942 2.55082 23.3942 3.52114C23.3942 4.49146 22.7127 5.28056 21.8746 5.28056C21.0365 5.28056 20.355 4.49146 20.355 3.52114C20.355 2.55082 21.0365 1.76172 21.8746 1.76172ZM21.8745 7.03769C23.5507 7.03769 24.9138 5.45949 24.9138 3.51884C24.9138 1.5782 23.5507 0 21.8745 0C20.1984 0 18.8353 1.5782 18.8353 3.51884C18.8353 5.45949 20.1984 7.03769 21.8745 7.03769Z"/>
</mask>
<path fill-rule="evenodd" clip-rule="evenodd" d="M27.1931 13.294C27.1931 13.7257 26.8534 14.076 26.4332 14.076C26.0131 14.076 25.6734 13.7257 25.6734 13.294C25.6734 11.1382 23.9692 9.38423 21.8744 9.38423C19.7796 9.38423 18.0754 11.1382 18.0754 13.294C18.0754 13.7257 17.7358 14.076 17.3156 14.076C16.8954 14.076 16.5558 13.7257 16.5558 13.294C16.5558 10.2757 18.9423 7.82031 21.8744 7.82031C24.8065 7.82031 27.1931 10.2757 27.1931 13.294ZM21.8746 1.76172C22.7127 1.76172 23.3942 2.55082 23.3942 3.52114C23.3942 4.49146 22.7127 5.28056 21.8746 5.28056C21.0365 5.28056 20.355 4.49146 20.355 3.52114C20.355 2.55082 21.0365 1.76172 21.8746 1.76172ZM21.8745 7.03769C23.5507 7.03769 24.9138 5.45949 24.9138 3.51884C24.9138 1.5782 23.5507 0 21.8745 0C20.1984 0 18.8353 1.5782 18.8353 3.51884C18.8353 5.45949 20.1984 7.03769 21.8745 7.03769Z" fill="#276899"/>
<path d="M25.1931 13.294C25.1931 12.677 25.6938 12.076 26.4332 12.076V16.076C28.0131 16.076 29.1931 14.7743 29.1931 13.294H25.1931ZM26.4332 12.076C27.1727 12.076 27.6734 12.677 27.6734 13.294H23.6734C23.6734 14.7743 24.8534 16.076 26.4332 16.076V12.076ZM27.6734 13.294C27.6734 10.0882 25.1276 7.38423 21.8744 7.38423V11.3842C22.8108 11.3842 23.6734 12.1882 23.6734 13.294H27.6734ZM21.8744 7.38423C18.6213 7.38423 16.0754 10.0882 16.0754 13.294H20.0754C20.0754 12.1882 20.938 11.3842 21.8744 11.3842V7.38423ZM16.0754 13.294C16.0754 12.677 16.5761 12.076 17.3156 12.076V16.076C18.8954 16.076 20.0754 14.7743 20.0754 13.294H16.0754ZM17.3156 12.076C18.0551 12.076 18.5558 12.677 18.5558 13.294H14.5558C14.5558 14.7743 15.7358 16.076 17.3156 16.076V12.076ZM18.5558 13.294C18.5558 11.3258 20.1005 9.82031 21.8744 9.82031V5.82031C17.7842 5.82031 14.5558 9.22548 14.5558 13.294H18.5558ZM21.8744 9.82031C23.6483 9.82031 25.1931 11.3258 25.1931 13.294H29.1931C29.1931 9.22548 25.9647 5.82031 21.8744 5.82031V9.82031ZM21.8746 3.76172C21.6362 3.76172 21.487 3.64498 21.4351 3.58485C21.3864 3.52848 21.3942 3.50036 21.3942 3.52114H25.3942C25.3942 1.73137 24.0823 -0.238281 21.8746 -0.238281V3.76172ZM21.3942 3.52114C21.3942 3.54192 21.3864 3.5138 21.4351 3.45743C21.487 3.3973 21.6362 3.28056 21.8746 3.28056V7.28056C24.0823 7.28056 25.3942 5.31091 25.3942 3.52114H21.3942ZM21.8746 3.28056C22.113 3.28056 22.2622 3.3973 22.3141 3.45743C22.3628 3.5138 22.355 3.54192 22.355 3.52114H18.355C18.355 5.31091 19.6669 7.28056 21.8746 7.28056V3.28056ZM22.355 3.52114C22.355 3.50036 22.3628 3.52848 22.3141 3.58485C22.2622 3.64498 22.113 3.76172 21.8746 3.76172V-0.238281C19.6669 -0.238281 18.355 1.73137 18.355 3.52114H22.355ZM21.8745 9.03769C24.9203 9.03769 26.9138 6.27893 26.9138 3.51884H22.9138C22.9138 4.02479 22.7356 4.43652 22.5091 4.69871C22.2859 4.95715 22.0551 5.03769 21.8745 5.03769V9.03769ZM26.9138 3.51884C26.9138 0.758752 24.9203 -2 21.8745 -2V2C22.0551 2 22.2859 2.08054 22.5091 2.33897C22.7356 2.60117 22.9138 3.0129 22.9138 3.51884H26.9138ZM21.8745 -2C18.8288 -2 16.8353 0.758752 16.8353 3.51884H20.8353C20.8353 3.0129 21.0135 2.60117 21.24 2.33897C21.4632 2.08054 21.6939 2 21.8745 2V-2ZM16.8353 3.51884C16.8353 6.27893 18.8288 9.03769 21.8745 9.03769V5.03769C21.6939 5.03769 21.4632 4.95715 21.24 4.69871C21.0135 4.43652 20.8353 4.02479 20.8353 3.51884H16.8353Z" fill="#276899" mask="url(#path-2-inside-1)"/>
<mask id="path-4-inside-2" fill="white">
<path fill-rule="evenodd" clip-rule="evenodd" d="M19.5955 16.8136C19.5955 17.2452 19.2559 17.5955 18.8357 17.5955C18.4155 17.5955 18.0759 17.2452 18.0759 16.8136C18.0759 14.6577 16.3717 12.9038 14.2769 12.9038C12.1821 12.9038 10.4779 14.6577 10.4779 16.8136C10.4779 17.2452 10.1382 17.5955 9.71806 17.5955C9.29788 17.5955 8.95825 17.2452 8.95825 16.8136C8.95825 13.7952 11.3448 11.3398 14.2769 11.3398C17.209 11.3398 19.5955 13.7952 19.5955 16.8136ZM14.2767 5.28125C15.1148 5.28125 15.7963 6.07035 15.7963 7.04067C15.7963 8.01099 15.1148 8.80009 14.2767 8.80009C13.4387 8.80009 12.7571 8.01099 12.7571 7.04067C12.7571 6.07035 13.4387 5.28125 14.2767 5.28125ZM14.2767 10.5572C15.9528 10.5572 17.3159 8.97902 17.3159 7.03837C17.3159 5.09773 15.9528 3.51953 14.2767 3.51953C12.6005 3.51953 11.2374 5.09773 11.2374 7.03837C11.2374 8.97902 12.6005 10.5572 14.2767 10.5572Z"/>
</mask>
<path fill-rule="evenodd" clip-rule="evenodd" d="M19.5955 16.8136C19.5955 17.2452 19.2559 17.5955 18.8357 17.5955C18.4155 17.5955 18.0759 17.2452 18.0759 16.8136C18.0759 14.6577 16.3717 12.9038 14.2769 12.9038C12.1821 12.9038 10.4779 14.6577 10.4779 16.8136C10.4779 17.2452 10.1382 17.5955 9.71806 17.5955C9.29788 17.5955 8.95825 17.2452 8.95825 16.8136C8.95825 13.7952 11.3448 11.3398 14.2769 11.3398C17.209 11.3398 19.5955 13.7952 19.5955 16.8136ZM14.2767 5.28125C15.1148 5.28125 15.7963 6.07035 15.7963 7.04067C15.7963 8.01099 15.1148 8.80009 14.2767 8.80009C13.4387 8.80009 12.7571 8.01099 12.7571 7.04067C12.7571 6.07035 13.4387 5.28125 14.2767 5.28125ZM14.2767 10.5572C15.9528 10.5572 17.3159 8.97902 17.3159 7.03837C17.3159 5.09773 15.9528 3.51953 14.2767 3.51953C12.6005 3.51953 11.2374 5.09773 11.2374 7.03837C11.2374 8.97902 12.6005 10.5572 14.2767 10.5572Z" fill="#276899"/>
<path d="M17.5955 16.8136C17.5955 16.1965 18.0962 15.5955 18.8357 15.5955V19.5955C20.4155 19.5955 21.5955 18.2939 21.5955 16.8136H17.5955ZM18.8357 15.5955C19.5752 15.5955 20.0759 16.1965 20.0759 16.8136H16.0759C16.0759 18.2939 17.2559 19.5955 18.8357 19.5955V15.5955ZM20.0759 16.8136C20.0759 13.6077 17.53 10.9038 14.2769 10.9038V14.9038C15.2133 14.9038 16.0759 15.7077 16.0759 16.8136H20.0759ZM14.2769 10.9038C11.0237 10.9038 8.47786 13.6077 8.47786 16.8136H12.4779C12.4779 15.7077 13.3405 14.9038 14.2769 14.9038V10.9038ZM8.47786 16.8136C8.47786 16.1965 8.97858 15.5955 9.71806 15.5955V19.5955C11.2979 19.5955 12.4779 18.2939 12.4779 16.8136H8.47786ZM9.71806 15.5955C10.4575 15.5955 10.9583 16.1965 10.9583 16.8136H6.95825C6.95825 18.2939 8.13824 19.5955 9.71806 19.5955V15.5955ZM10.9583 16.8136C10.9583 14.8454 12.503 13.3398 14.2769 13.3398V9.33984C10.1866 9.33984 6.95825 12.745 6.95825 16.8136H10.9583ZM14.2769 13.3398C16.0508 13.3398 17.5955 14.8454 17.5955 16.8136H21.5955C21.5955 12.745 18.3672 9.33984 14.2769 9.33984V13.3398ZM14.2767 7.28125C14.0383 7.28125 13.8891 7.16451 13.8372 7.10438C13.7885 7.04801 13.7963 7.01989 13.7963 7.04067H17.7963C17.7963 5.2509 16.4844 3.28125 14.2767 3.28125V7.28125ZM13.7963 7.04067C13.7963 7.06145 13.7885 7.03333 13.8372 6.97696C13.8891 6.91683 14.0383 6.80009 14.2767 6.80009V10.8001C16.4844 10.8001 17.7963 8.83044 17.7963 7.04067H13.7963ZM14.2767 6.80009C14.5152 6.80009 14.6643 6.91683 14.7163 6.97696C14.7649 7.03333 14.7571 7.06145 14.7571 7.04067H10.7571C10.7571 8.83044 12.0691 10.8001 14.2767 10.8001V6.80009ZM14.7571 7.04067C14.7571 7.01989 14.7649 7.04801 14.7163 7.10438C14.6643 7.16451 14.5152 7.28125 14.2767 7.28125V3.28125C12.0691 3.28125 10.7571 5.2509 10.7571 7.04067H14.7571ZM14.2767 12.5572C17.3224 12.5572 19.3159 9.79847 19.3159 7.03837H15.3159C15.3159 7.54432 15.1377 7.95605 14.9112 8.21824C14.688 8.47668 14.4573 8.55722 14.2767 8.55722V12.5572ZM19.3159 7.03837C19.3159 4.27828 17.3224 1.51953 14.2767 1.51953V5.51953C14.4573 5.51953 14.688 5.60007 14.9112 5.85851C15.1377 6.1207 15.3159 6.53243 15.3159 7.03837H19.3159ZM14.2767 1.51953C11.2309 1.51953 9.23744 4.27828 9.23744 7.03837H13.2374C13.2374 6.53243 13.4156 6.1207 13.6421 5.85851C13.8653 5.60007 14.0961 5.51953 14.2767 5.51953V1.51953ZM9.23744 7.03837C9.23744 9.79847 11.2309 12.5572 14.2767 12.5572V8.55722C14.0961 8.55722 13.8653 8.47668 13.6421 8.21824C13.4156 7.95605 13.2374 7.54432 13.2374 7.03837H9.23744Z" fill="#276899" mask="url(#path-4-inside-2)"/>
<mask id="path-6-inside-3" fill="white">
<path fill-rule="evenodd" clip-rule="evenodd" d="M11.9971 13.294C11.9971 13.7257 11.6575 14.076 11.2373 14.076C10.8172 14.076 10.4775 13.7257 10.4775 13.294C10.4775 11.1382 8.77328 9.38423 6.6785 9.38423C4.58372 9.38423 2.87947 11.1382 2.87947 13.294C2.87947 13.7257 2.53984 14.076 2.11967 14.076C1.6995 14.076 1.35986 13.7257 1.35986 13.294C1.35986 10.2757 3.74641 7.82031 6.6785 7.82031C9.61058 7.82031 11.9971 10.2757 11.9971 13.294ZM6.67857 1.76172C7.51663 1.76172 8.19818 2.55082 8.19818 3.52114C8.19818 4.49146 7.51663 5.28056 6.67857 5.28056C5.8405 5.28056 5.15896 4.49146 5.15896 3.52114C5.15896 2.55082 5.8405 1.76172 6.67857 1.76172ZM6.67827 7.03769C8.3544 7.03769 9.71749 5.45949 9.71749 3.51884C9.71749 1.5782 8.3544 0 6.67827 0C5.00214 0 3.63905 1.5782 3.63905 3.51884C3.63905 5.45949 5.00214 7.03769 6.67827 7.03769Z"/>
</mask>
<path fill-rule="evenodd" clip-rule="evenodd" d="M11.9971 13.294C11.9971 13.7257 11.6575 14.076 11.2373 14.076C10.8172 14.076 10.4775 13.7257 10.4775 13.294C10.4775 11.1382 8.77328 9.38423 6.6785 9.38423C4.58372 9.38423 2.87947 11.1382 2.87947 13.294C2.87947 13.7257 2.53984 14.076 2.11967 14.076C1.6995 14.076 1.35986 13.7257 1.35986 13.294C1.35986 10.2757 3.74641 7.82031 6.6785 7.82031C9.61058 7.82031 11.9971 10.2757 11.9971 13.294ZM6.67857 1.76172C7.51663 1.76172 8.19818 2.55082 8.19818 3.52114C8.19818 4.49146 7.51663 5.28056 6.67857 5.28056C5.8405 5.28056 5.15896 4.49146 5.15896 3.52114C5.15896 2.55082 5.8405 1.76172 6.67857 1.76172ZM6.67827 7.03769C8.3544 7.03769 9.71749 5.45949 9.71749 3.51884C9.71749 1.5782 8.3544 0 6.67827 0C5.00214 0 3.63905 1.5782 3.63905 3.51884C3.63905 5.45949 5.00214 7.03769 6.67827 7.03769Z" fill="#276899"/>
<path d="M9.99713 13.294C9.99713 12.677 10.4979 12.076 11.2373 12.076V16.076C12.8171 16.076 13.9971 14.7743 13.9971 13.294H9.99713ZM11.2373 12.076C11.9768 12.076 12.4775 12.677 12.4775 13.294H8.47752C8.47752 14.7743 9.65751 16.076 11.2373 16.076V12.076ZM12.4775 13.294C12.4775 10.0882 9.93164 7.38423 6.6785 7.38423V11.3842C7.61492 11.3842 8.47752 12.1882 8.47752 13.294H12.4775ZM6.6785 7.38423C3.42535 7.38423 0.879473 10.0882 0.879473 13.294H4.87947C4.87947 12.1882 5.74208 11.3842 6.6785 11.3842V7.38423ZM0.879473 13.294C0.879473 12.677 1.38019 12.076 2.11967 12.076V16.076C3.69949 16.076 4.87947 14.7743 4.87947 13.294H0.879473ZM2.11967 12.076C2.85914 12.076 3.35986 12.677 3.35986 13.294H-0.640137C-0.640137 14.7743 0.539848 16.076 2.11967 16.076V12.076ZM3.35986 13.294C3.35986 11.3258 4.90459 9.82031 6.6785 9.82031V5.82031C2.58823 5.82031 -0.640137 9.22548 -0.640137 13.294H3.35986ZM6.6785 9.82031C8.4524 9.82031 9.99713 11.3258 9.99713 13.294H13.9971C13.9971 9.22548 10.7688 5.82031 6.6785 5.82031V9.82031ZM6.67857 3.76172C6.44014 3.76172 6.29098 3.64498 6.23905 3.58485C6.19036 3.52848 6.19818 3.50036 6.19818 3.52114H10.1982C10.1982 1.73137 8.88623 -0.238281 6.67857 -0.238281V3.76172ZM6.19818 3.52114C6.19818 3.54192 6.19036 3.5138 6.23905 3.45743C6.29098 3.3973 6.44014 3.28056 6.67857 3.28056V7.28056C8.88623 7.28056 10.1982 5.31091 10.1982 3.52114H6.19818ZM6.67857 3.28056C6.91699 3.28056 7.06616 3.3973 7.11809 3.45743C7.16677 3.5138 7.15896 3.54192 7.15896 3.52114H3.15896C3.15896 5.31091 4.4709 7.28056 6.67857 7.28056V3.28056ZM7.15896 3.52114C7.15896 3.50036 7.16677 3.52848 7.11809 3.58485C7.06616 3.64498 6.91699 3.76172 6.67857 3.76172V-0.238281C4.4709 -0.238281 3.15896 1.73137 3.15896 3.52114H7.15896ZM6.67827 9.03769C9.724 9.03769 11.7175 6.27893 11.7175 3.51884H7.71749C7.71749 4.02479 7.53929 4.43652 7.31283 4.69871C7.08962 4.95715 6.85888 5.03769 6.67827 5.03769V9.03769ZM11.7175 3.51884C11.7175 0.758752 9.724 -2 6.67827 -2V2C6.85888 2 7.08962 2.08054 7.31283 2.33897C7.53929 2.60117 7.71749 3.0129 7.71749 3.51884H11.7175ZM6.67827 -2C3.63254 -2 1.63905 0.758752 1.63905 3.51884H5.63905C5.63905 3.0129 5.81726 2.60117 6.04371 2.33897C6.26693 2.08054 6.49766 2 6.67827 2V-2ZM1.63905 3.51884C1.63905 6.27893 3.63254 9.03769 6.67827 9.03769V5.03769C6.49766 5.03769 6.26693 4.95715 6.04371 4.69871C5.81726 4.43652 5.63905 4.02479 5.63905 3.51884H1.63905Z" fill="#276899" mask="url(#path-6-inside-3)"/>
</svg>
