<svg width="28" height="28" viewBox="0 0 28 28" fill="none" xmlns="http://www.w3.org/2000/svg">
<path d="M8.38254 20.5268C8.38254 19.886 8.38254 19.2977 8.38254 18.686C6.84467 18.686 5.30679 18.686 3.75726 18.686C3.75726 19.3617 3.75726 20.0375 3.75726 20.7482C4.09513 20.3812 4.41552 20.0316 4.74756 19.6705C5.02718 19.9559 5.23689 20.1715 5.4699 20.4103C5.06795 20.7889 4.66601 21.1618 4.22329 21.5812C5.10873 21.9074 5.74369 22.4258 6.15146 23.2006C6.56505 23.9812 6.63496 24.8084 6.39612 25.6531C5.97087 27.1327 4.5728 28.0764 2.97667 27.9773C1.52035 27.89 0.267914 26.7133 0.0349025 25.1404C-0.168983 23.7365 0.565004 22.2336 2.26599 21.5928C1.85239 21.1967 1.45045 20.8122 1.05433 20.4278C1.31064 20.1715 1.52618 19.9617 1.77084 19.7229C2.09123 20.0608 2.41162 20.4103 2.73201 20.754C2.75531 20.7423 2.78444 20.7307 2.80774 20.719C2.80774 20.6084 2.80774 20.4977 2.80774 20.387C2.80774 19.688 2.80774 18.9889 2.80774 18.2899C2.80774 17.8821 2.9592 17.7248 3.36697 17.7248C4.92815 17.7248 6.48932 17.7248 8.04468 17.7248C8.14953 17.7248 8.25439 17.7248 8.37089 17.7248C8.37089 16.6297 8.37089 15.5695 8.37089 14.4801C6.13981 14.4801 3.91455 14.4801 1.60773 14.4801C1.9922 14.8471 2.33589 15.1675 2.68541 15.5054C2.43492 15.7442 2.21939 15.9481 1.9689 16.1811C1.59026 15.7908 1.18831 15.3831 0.79219 14.9811C0.58248 14.7656 0.361119 14.5617 0.157234 14.3403C-0.035001 14.1306 -0.0583022 13.8801 0.128107 13.6879C0.745588 13.0588 1.37472 12.4413 2.0155 11.8063C2.21939 12.0277 2.41745 12.2491 2.62716 12.4821C2.31259 12.7792 1.9689 13.1054 1.63103 13.4316C1.64851 13.4549 1.66016 13.4782 1.67763 13.5015C3.9029 13.5015 6.13398 13.5015 8.37089 13.5015C8.37089 12.4355 8.37089 11.3694 8.37089 10.2626C8.26604 10.2626 8.16701 10.2626 8.06215 10.2626C6.50098 10.2626 4.9398 10.2626 3.38444 10.2626C2.95337 10.2626 2.80192 10.1112 2.80192 9.69176C2.80192 8.88787 2.80192 8.08398 2.80192 7.22766C2.44657 7.6063 2.12618 7.95 1.79414 8.29951C1.54365 8.0199 1.35142 7.79854 1.12423 7.55388C1.4854 7.22183 1.89317 6.84319 2.35337 6.42377C1.34559 6.05095 0.669859 5.4626 0.279565 4.57133C-0.0291757 3.86064 -0.075778 3.12665 0.133932 2.38102C0.512576 1.01207 1.83492 -0.0772554 3.4893 0.0042987C4.86407 0.0800275 6.17476 1.18683 6.46602 2.57908C6.76894 4.0354 6.11651 5.69561 4.26406 6.41212C4.67766 6.80241 5.0796 7.17523 5.48737 7.55388C5.21941 7.79271 5.00388 7.99077 4.77086 8.20048C4.49125 7.90339 4.17086 7.5597 3.85047 7.21601C3.82134 7.23348 3.79221 7.25679 3.76309 7.27426C3.76309 7.95 3.76309 8.62573 3.76309 9.31894C5.28931 9.31894 6.81554 9.31894 8.38837 9.31894C8.38837 9.21991 8.38837 9.11505 8.38837 9.01602C8.38837 7.77524 8.38837 6.52862 8.38837 5.28784C8.38837 4.80434 8.52235 4.67618 9.01168 4.67618C10.4913 4.67618 11.9767 4.67618 13.4797 4.67618C13.4797 3.67423 13.4797 2.68393 13.4797 1.62955C13.1302 2.01402 12.8156 2.35772 12.4835 2.71888C12.2272 2.4451 12.0292 2.22956 11.7845 1.96742C12.035 1.72276 12.3146 1.46062 12.5884 1.19266C12.9263 0.860616 13.2583 0.516924 13.5962 0.184883C13.8175 -0.0306531 14.068 -0.0656048 14.2661 0.12663C14.8952 0.744111 15.5127 1.37324 16.1418 2.01402C15.9205 2.21791 15.6991 2.42179 15.4836 2.62568C15.1807 2.31111 14.8544 1.97325 14.5282 1.62955C14.5049 1.64703 14.4758 1.66451 14.4525 1.67616C14.4525 2.66063 14.4525 3.65093 14.4525 4.67036C14.569 4.67036 14.6797 4.67036 14.7962 4.67036C16.1826 4.67036 17.569 4.67036 18.9554 4.67036C19.3982 4.67036 19.5496 4.81599 19.5496 5.25871C19.5496 6.4995 19.5496 7.74611 19.5496 8.9869C19.5496 9.09175 19.5496 9.19661 19.5496 9.31311C21.105 9.31311 22.6312 9.31311 24.1807 9.31311C24.1807 8.63738 24.1807 7.95582 24.1807 7.20436C23.8254 7.59465 23.5108 7.93835 23.1846 8.29951C22.9283 8.02572 22.7302 7.81019 22.4914 7.5597C22.8759 7.19853 23.2778 6.81406 23.7031 6.41212C21.8098 5.68978 21.1516 3.98297 21.4953 2.52082C21.8623 0.971297 23.2254 -0.0364783 24.8914 0.0159493C26.3011 0.0567263 27.6118 1.22178 27.8681 2.67228C28.1594 4.29754 27.3322 5.72473 25.6837 6.39464C26.0914 6.77911 26.4992 7.15776 26.9128 7.55388C26.6274 7.82184 26.4118 8.02572 26.1846 8.23543C25.8817 7.91504 25.5555 7.57135 25.2293 7.22766C25.206 7.24514 25.1769 7.25679 25.1536 7.27426C25.1477 7.34417 25.1303 7.41407 25.1303 7.48397C25.1303 8.22961 25.1303 8.98107 25.1303 9.72671C25.1303 10.1112 24.9671 10.2743 24.5827 10.2743C23.0215 10.2743 21.4603 10.2743 19.905 10.2743C19.8001 10.2743 19.6953 10.2743 19.5729 10.2743C19.5729 11.3636 19.5729 12.4355 19.5729 13.5248C21.804 13.5248 24.0293 13.5248 26.307 13.5248C25.9283 13.1695 25.5846 12.8374 25.2409 12.517C25.5031 12.2549 25.7186 12.051 25.94 11.8296C26.5575 12.4471 27.1866 13.0646 27.8041 13.6937C27.9846 13.8743 27.9905 14.119 27.8157 14.2996C27.1924 14.9345 26.5575 15.5578 25.9283 16.1753C25.707 15.9656 25.4914 15.7559 25.2351 15.5112C25.5905 15.1792 25.9341 14.8588 26.3361 14.486C24.0293 14.486 21.8098 14.486 19.5671 14.486C19.5671 15.5578 19.5671 16.6297 19.5671 17.7307C19.7127 17.7307 19.8584 17.7307 19.9982 17.7307C21.5186 17.7307 23.039 17.7307 24.5652 17.7307C24.9671 17.7307 25.1303 17.8879 25.1303 18.2899C25.1303 19.0938 25.1303 19.8977 25.1303 20.7598C25.4856 20.3812 25.806 20.0316 26.138 19.6763C26.4118 19.9617 26.6215 20.1773 26.8545 20.4219C26.4642 20.7889 26.0623 21.1676 25.6196 21.587C26.5167 21.9132 27.1575 22.4375 27.5652 23.2297C27.973 24.0161 28.0371 24.8433 27.7866 25.688C27.3497 27.156 25.9574 28.088 24.3788 27.989C22.9166 27.8958 21.6642 26.7191 21.437 25.1521C21.2331 23.7482 21.9729 22.2336 23.6739 21.6045C23.2545 21.2084 22.8526 20.8297 22.439 20.4394C22.7069 20.1773 22.9166 19.9676 23.1613 19.7287C23.4817 20.0724 23.8021 20.4161 24.1225 20.7598C24.14 20.7482 24.1633 20.7365 24.1807 20.719C24.1807 20.0491 24.1807 19.3734 24.1807 18.6802C22.6545 18.6802 21.1166 18.6802 19.5671 18.6802C19.5671 19.2802 19.5671 19.8802 19.5671 20.5268C19.8467 20.5268 20.1322 20.5268 20.4176 20.5268C20.7846 20.5326 20.9419 20.6899 20.9477 21.0627C20.9535 21.6278 20.9535 22.187 20.9477 22.7521C20.9477 23.1715 20.7962 23.3229 20.3652 23.3229C18.5069 23.3229 16.6428 23.3229 14.7845 23.3229C14.6797 23.3229 14.5748 23.3229 14.4525 23.3229C14.4525 24.3365 14.4525 25.321 14.4525 26.4045C14.8137 25.9909 15.1224 25.6298 15.4311 25.2744C15.7166 25.5598 15.9321 25.7637 16.1535 25.9793C15.5243 26.6142 14.9127 27.2434 14.2836 27.8608C14.103 28.0414 13.8583 28.0472 13.6777 27.8725C13.0428 27.2492 12.4195 26.6142 11.7962 25.9851C12.0117 25.7637 12.2214 25.5482 12.4661 25.3035C12.7923 25.6589 13.1127 26.0026 13.4913 26.4103C13.4913 25.3327 13.4913 24.3482 13.4913 23.3229C13.4039 23.3229 13.3107 23.3229 13.2234 23.3229C11.3534 23.3229 9.48352 23.3229 7.61361 23.3229C7.14758 23.3229 7.00195 23.1831 7.00195 22.7229C7.00195 22.1695 7.00195 21.6161 7.00195 21.0627C7.00195 20.6899 7.16506 20.5326 7.53205 20.5268C7.80584 20.521 8.08545 20.5268 8.38254 20.5268ZM9.33207 20.5035C10.2699 20.5035 11.1845 20.5035 12.0991 20.5035C12.0991 19.5714 12.0991 18.6627 12.0991 17.7248C11.7903 17.7248 11.4932 17.7248 11.2078 17.7248C11.2078 17.3986 11.2078 17.1015 11.2078 16.8161C13.0661 16.8161 14.9069 16.8161 16.7477 16.8161C16.7477 17.1248 16.7477 17.4219 16.7477 17.7481C16.4331 17.7481 16.136 17.7481 15.8564 17.7481C15.8564 18.6918 15.8564 19.6006 15.8564 20.5093C16.7884 20.5093 17.703 20.5093 18.6059 20.5093C18.6059 15.5345 18.6059 10.5772 18.6059 5.63153C15.5069 5.63153 12.4253 5.63153 9.33789 5.63153C9.33207 10.5889 9.33207 15.5345 9.33207 20.5035ZM5.59805 3.29559C5.60388 2.01985 4.53785 0.947996 3.27376 0.947996C1.99803 0.953821 0.943648 2.01402 0.949473 3.28976C0.955298 4.54803 2.00968 5.59658 3.27376 5.60823C4.52038 5.61405 5.59223 4.54803 5.59805 3.29559ZM24.6642 5.60823C25.9167 5.61405 26.9769 4.5655 26.9943 3.30141C27.0118 2.03733 25.9516 0.953821 24.6817 0.947996C23.4293 0.942171 22.3632 1.99072 22.3458 3.25481C22.3283 4.5189 23.3943 5.59658 24.6642 5.60823ZM3.27959 22.3909C2.02715 22.3851 0.966949 23.4394 0.949473 24.7035C0.937823 25.9676 2.00385 27.0511 3.26794 27.0511C4.5262 27.0569 5.58058 26.0026 5.59805 24.7385C5.60971 23.4744 4.54368 22.3967 3.27959 22.3909ZM22.3516 24.7268C22.3516 25.9851 23.4118 27.0453 24.6701 27.0453C25.9458 27.0453 27.0002 25.9851 27.0002 24.7094C26.9943 23.4511 25.94 22.3909 24.6817 22.3909C23.4001 22.3909 22.3458 23.4511 22.3516 24.7268ZM7.93982 22.3676C11.9767 22.3676 15.9904 22.3676 19.9982 22.3676C19.9982 22.053 19.9982 21.7559 19.9982 21.4705C15.9671 21.4705 11.9593 21.4705 7.93982 21.4705C7.93982 21.7734 7.93982 22.0647 7.93982 22.3676ZM13.0544 20.5093C13.6836 20.5093 14.2777 20.5093 14.8894 20.5093C14.8894 19.5773 14.8894 18.6627 14.8894 17.7481C14.2719 17.7481 13.6661 17.7481 13.0544 17.7481C13.0544 18.6744 13.0544 19.5831 13.0544 20.5093Z" fill="#276899"/>
<path d="M10.7302 7.92102C10.7302 7.62393 10.7302 7.33267 10.7302 7.02393C11.0215 7.02393 11.3186 7.02393 11.6273 7.02393C11.6273 7.31519 11.6273 7.60646 11.6273 7.92102C11.3361 7.92102 11.0506 7.92102 10.7302 7.92102Z" fill="#276899"/>
<path d="M12.6 7.01807C12.9029 7.01807 13.1883 7.01807 13.4912 7.01807C13.4912 7.32098 13.4912 7.61807 13.4912 7.92681C13.1942 7.92681 12.9087 7.92681 12.6 7.92681C12.6 7.63555 12.6 7.33846 12.6 7.01807Z" fill="#276899"/>
<path d="M15.3438 7.92681C15.0409 7.92681 14.7554 7.92681 14.4525 7.92681C14.4525 7.6239 14.4525 7.32681 14.4525 7.01807C14.7496 7.01807 15.035 7.01807 15.3438 7.01807C15.3438 7.30933 15.3438 7.60642 15.3438 7.92681Z" fill="#276899"/>
<path d="M16.3108 7.91519C16.3108 7.61811 16.3108 7.32684 16.3108 7.02393C16.6137 7.02393 16.905 7.02393 17.2137 7.02393C17.2137 7.32102 17.2137 7.60645 17.2137 7.91519C16.9283 7.91519 16.6312 7.91519 16.3108 7.91519Z" fill="#276899"/>
<path d="M11.6447 8.8877C11.6447 9.19644 11.6447 9.47605 11.6447 9.77897C11.3477 9.77897 11.0564 9.77897 10.7418 9.77897C10.7418 9.49353 10.7418 9.20226 10.7418 8.8877C11.0273 8.8877 11.3244 8.8877 11.6447 8.8877Z" fill="#276899"/>
<path d="M13.4854 9.79644C13.1825 9.79644 12.9029 9.79644 12.6 9.79644C12.6 9.49935 12.6 9.20226 12.6 8.8877C12.8854 8.8877 13.1825 8.8877 13.4854 8.8877C13.4854 9.19644 13.4854 9.49353 13.4854 9.79644Z" fill="#276899"/>
<path d="M15.3438 9.79644C15.0409 9.79644 14.7613 9.79644 14.4584 9.79644C14.4584 9.49935 14.4584 9.20226 14.4584 8.8877C14.7496 8.8877 15.0409 8.8877 15.3438 8.8877C15.3438 9.19644 15.3438 9.49353 15.3438 9.79644Z" fill="#276899"/>
<path d="M17.2136 8.8877C17.2136 9.18479 17.2136 9.47022 17.2136 9.77897C16.9224 9.77897 16.6311 9.77897 16.3165 9.77897C16.3165 9.49353 16.3165 9.19644 16.3165 8.8877C16.6136 8.8877 16.9049 8.8877 17.2136 8.8877Z" fill="#276899"/>
<path d="M11.6447 10.752C11.6447 11.0607 11.6447 11.3403 11.6447 11.6432C11.3477 11.6432 11.0564 11.6432 10.7418 11.6432C10.7418 11.3578 10.7418 11.0607 10.7418 10.752C11.0273 10.752 11.3244 10.752 11.6447 10.752Z" fill="#276899"/>
<path d="M13.4912 11.6607C13.1825 11.6607 12.9029 11.6607 12.6 11.6607C12.6 11.3636 12.6 11.0665 12.6 10.752C12.8854 10.752 13.1767 10.752 13.4912 10.752C13.4912 11.049 13.4912 11.3461 13.4912 11.6607Z" fill="#276899"/>
<path d="M15.3496 11.6607C15.0409 11.6607 14.7613 11.6607 14.4584 11.6607C14.4584 11.3636 14.4584 11.0665 14.4584 10.752C14.7438 10.752 15.0351 10.752 15.3496 10.752C15.3496 11.049 15.3496 11.3403 15.3496 11.6607Z" fill="#276899"/>
<path d="M16.3108 11.649C16.3108 11.3461 16.3108 11.0607 16.3108 10.752C16.6137 10.752 16.9108 10.752 17.2137 10.752C17.2137 11.049 17.2137 11.3403 17.2137 11.649C16.9224 11.649 16.6312 11.649 16.3108 11.649Z" fill="#276899"/>
<path d="M11.6447 12.6157C11.6447 12.9245 11.6447 13.2041 11.6447 13.507C11.3477 13.507 11.0564 13.507 10.7418 13.507C10.7418 13.2216 10.7418 12.9303 10.7418 12.6157C11.0273 12.6157 11.3244 12.6157 11.6447 12.6157Z" fill="#276899"/>
<path d="M12.5884 13.5129C12.5884 13.2158 12.5884 12.9303 12.5884 12.6216C12.8796 12.6216 13.1767 12.6216 13.4855 12.6216C13.4855 12.9128 13.4855 13.2041 13.4855 13.5129C13.1884 13.5129 12.8971 13.5129 12.5884 13.5129Z" fill="#276899"/>
<path d="M15.3554 12.6216C15.3554 12.9245 15.3554 13.2099 15.3554 13.5129C15.0525 13.5129 14.7613 13.5129 14.4525 13.5129C14.4525 13.2158 14.4525 12.9303 14.4525 12.6216C14.7438 12.6216 15.035 12.6216 15.3554 12.6216Z" fill="#276899"/>
<path d="M16.3108 13.5187C16.3108 13.2158 16.3108 12.9303 16.3108 12.6216C16.6021 12.6216 16.8991 12.6216 17.2079 12.6216C17.2079 12.9128 17.2079 13.2099 17.2079 13.5187C16.9108 13.5187 16.6195 13.5187 16.3108 13.5187Z" fill="#276899"/>
<path d="M11.6331 14.4805C11.6331 14.7834 11.6331 15.0688 11.6331 15.3776C11.3361 15.3776 11.0448 15.3776 10.7302 15.3776C10.7302 15.0805 10.7302 14.7892 10.7302 14.4805C11.0273 14.4805 11.3186 14.4805 11.6331 14.4805Z" fill="#276899"/>
<path d="M12.5941 14.4805C12.8912 14.4805 13.1766 14.4805 13.4854 14.4805C13.4854 14.7717 13.4854 15.0688 13.4854 15.3834C13.1941 15.3834 12.9029 15.3834 12.5941 15.3834C12.5941 15.0863 12.5941 14.8009 12.5941 14.4805Z" fill="#276899"/>
<path d="M15.3613 14.4805C15.3613 14.7892 15.3613 15.0688 15.3613 15.3717C15.0642 15.3717 14.7729 15.3717 14.4584 15.3717C14.4584 15.0863 14.4584 14.795 14.4584 14.4805C14.7496 14.4805 15.0467 14.4805 15.3613 14.4805Z" fill="#276899"/>
<path d="M16.3165 14.4805C16.6253 14.4805 16.9107 14.4805 17.2136 14.4805C17.2136 14.7834 17.2136 15.0688 17.2136 15.3776C16.9224 15.3776 16.6311 15.3776 16.3165 15.3776C16.3165 15.0863 16.3165 14.795 16.3165 14.4805Z" fill="#276899"/>
</svg>
