<svg width="66" height="66" viewBox="0 0 66 66" fill="none" xmlns="http://www.w3.org/2000/svg">
<path d="M65 17.0005C65 14.7914 63.2092 13.0006 61.0001 13.0006H15.1797L20.5496 7.82879C22.1693 6.26484 22.1693 3.73691 20.5496 2.17296C18.9257 0.609012 16.2968 0.609012 14.6771 2.17296L2.21789 14.1726C0.594037 15.7365 0.594037 18.2645 2.21789 19.8284L14.6771 31.828C15.487 32.608 16.5502 33 17.6134 33C18.6765 33 19.7397 32.608 20.5496 31.828C22.1693 30.2641 22.1693 27.7362 20.5496 26.1722L15.1797 21.0004H61.0001C63.2092 21.0004 65 19.2096 65 17.0005Z" fill="white" fill-opacity="0.1"/>
<path d="M51.3229 34.173C49.699 32.609 47.0743 32.609 45.4504 34.173C43.8266 35.7369 43.8266 38.2648 45.4504 39.8288L50.8203 45.0006H4.99988C2.79081 45.0006 1 46.7914 1 49.0005C1 51.2096 2.79081 53.0004 4.99988 53.0004H50.8203L45.4504 58.1722C43.8266 59.7362 43.8266 62.2641 45.4504 63.828C46.2603 64.608 47.3234 65 48.3866 65C49.4498 65 50.513 64.608 51.3229 63.828L63.7821 51.8284C65.406 50.2645 65.406 47.7365 63.7821 46.1726L51.3229 34.173Z" fill="white" fill-opacity="0.1"/>
<path d="M65 17.0005C65 14.7914 63.2092 13.0006 61.0001 13.0006H15.1797L20.5496 7.82879C22.1693 6.26484 22.1693 3.73691 20.5496 2.17296C18.9257 0.609012 16.2968 0.609012 14.6771 2.17296L2.21789 14.1726C0.594037 15.7365 0.594037 18.2645 2.21789 19.8284L14.6771 31.828C15.487 32.608 16.5502 33 17.6134 33C18.6765 33 19.7397 32.608 20.5496 31.828C22.1693 30.2641 22.1693 27.7362 20.5496 26.1722L15.1797 21.0004H61.0001C63.2092 21.0004 65 19.2096 65 17.0005Z" stroke="#111920" stroke-width="2"/>
<path d="M51.3229 34.173C49.699 32.609 47.0743 32.609 45.4504 34.173C43.8266 35.7369 43.8266 38.2648 45.4504 39.8288L50.8203 45.0006H4.99988C2.79081 45.0006 1 46.7914 1 49.0005C1 51.2096 2.79081 53.0004 4.99988 53.0004H50.8203L45.4504 58.1722C43.8266 59.7362 43.8266 62.2641 45.4504 63.828C46.2603 64.608 47.3234 65 48.3866 65C49.4498 65 50.513 64.608 51.3229 63.828L63.7821 51.8284C65.406 50.2645 65.406 47.7365 63.7821 46.1726L51.3229 34.173Z" stroke="#111920" stroke-width="2"/>
</svg>
