<svg width="28" height="31" viewBox="0 0 28 31" fill="none" xmlns="http://www.w3.org/2000/svg">
<path d="M1.4707 6.5C1.4707 3 2.33134 1 5.88247 1C9.31384 1 17.157 1 17.6472 1C18.1374 1 21.5687 1.5 21.5687 6.5C21.5687 11.5 21.5687 11 21.5687 11" stroke="white" stroke-linecap="round" stroke-linejoin="round"/>
<path d="M1.47059 11C0.663206 11 0 10.3235 0 9.5C0 8.67647 0.663206 8 1.47059 8C2.27797 8 2.94118 8.67647 2.94118 9.5C2.94118 10.3235 2.27797 11 1.47059 11ZM1.47059 8.55882C0.980392 8.55882 0.576701 8.97059 0.576701 9.47059C0.576701 9.97059 0.980392 10.3824 1.47059 10.3824C1.96078 10.3824 2.36448 9.97059 2.36448 9.47059C2.36448 8.97059 1.96078 8.55882 1.47059 8.55882Z" fill="white"/>
<path d="M1.47059 16C0.663206 16 0 15.3235 0 14.5C0 13.6765 0.663206 13 1.47059 13C2.27797 13 2.94118 13.6765 2.94118 14.5C2.94118 15.3235 2.27797 16 1.47059 16ZM1.47059 13.5588C0.980392 13.5588 0.576701 13.9706 0.576701 14.4706C0.576701 14.9706 0.980392 15.3824 1.47059 15.3824C1.96078 15.3824 2.36448 14.9706 2.36448 14.4706C2.36448 13.9706 1.96078 13.5588 1.47059 13.5588Z" fill="white"/>
<path d="M1.4707 17.72C1.4707 21.08 2.35233 23 5.99007 23C9.50514 23 12.2431 23 12.7452 23" stroke="white" stroke-linecap="round" stroke-linejoin="round"/>
<path d="M24.5002 17C24.5002 21.1515 21.2033 24.5 17.1571 24.5C13.1109 24.5 9.81396 21.1515 9.81396 17C9.81396 12.8485 13.1109 9.5 17.1571 9.5C21.2033 9.5 24.5002 12.8485 24.5002 17Z" stroke="white"/>
<g filter="url(#filter0_d)">
<path fill-rule="evenodd" clip-rule="evenodd" d="M22.3038 16.25H17.8921V11.75C17.8921 11.3352 17.5626 11 17.1568 11C16.7509 11 16.4215 11.3352 16.4215 11.75V16.25H12.0097C11.6038 16.25 11.2744 16.5852 11.2744 17C11.2744 17.4148 11.6038 17.75 12.0097 17.75H16.4215V22.25C16.4215 22.6648 16.7509 23 17.1568 23C17.5626 23 17.8921 22.6648 17.8921 22.25V17.75H22.3038C22.7097 17.75 23.0391 17.4148 23.0391 17C23.0391 16.5852 22.7097 16.25 22.3038 16.25Z" fill="#276899"/>
</g>
<path d="M3.36559 12.686C3.77861 12.1744 4.82736 11.3769 5.34224 11.045C6.01277 10.6131 6.06799 10.5778 6.66998 10.9209C7.07153 11.1499 7.34531 11.3641 7.77036 11.2233C8.19542 11.0824 9.08441 10.4605 9.82323 9.55524C10.562 8.65001 11.0106 7.63106 11.057 7.19446C11.1033 6.75785 10.826 6.54659 10.5121 6.21179C10.0697 5.73987 10.0894 5.65054 10.3427 4.9163C10.5403 4.34515 11.1215 3.17289 11.5404 2.66644C11.9883 2.12272 11.9978 2.20872 12.3353 2.30368C12.6102 2.38234 12.877 2.48565 13.1323 2.61232C13.6326 2.8637 13.9195 3.08722 14.1425 3.44692C14.3655 3.80661 14.5448 4.6891 13.7924 6.46606C13.04 8.24302 12.4772 9.17197 11.2644 10.6584C10.0517 12.1449 9.08538 12.98 7.65024 13.9962C5.87473 15.2517 5.12765 15.1318 4.71976 14.9985C4.31187 14.8651 4.02535 14.6424 3.66423 14.2193C3.48149 14.0034 3.31951 13.7712 3.18035 13.5257C3.01112 13.2249 2.92358 13.2349 3.36559 12.686Z" stroke="white" stroke-width="0.8" stroke-miterlimit="10"/>
<defs>
<filter id="filter0_d" x="7.27441" y="11" width="19.7647" height="20" filterUnits="userSpaceOnUse" color-interpolation-filters="sRGB">
<feFlood flood-opacity="0" result="BackgroundImageFix"/>
<feColorMatrix in="SourceAlpha" type="matrix" values="0 0 0 0 0 0 0 0 0 0 0 0 0 0 0 0 0 0 127 0"/>
<feOffset dy="4"/>
<feGaussianBlur stdDeviation="2"/>
<feColorMatrix type="matrix" values="0 0 0 0 0 0 0 0 0 0 0 0 0 0 0 0 0 0 0.25 0"/>
<feBlend mode="normal" in2="BackgroundImageFix" result="effect1_dropShadow"/>
<feBlend mode="normal" in="SourceGraphic" in2="effect1_dropShadow" result="shape"/>
</filter>
</defs>
</svg>
