<svg width="79" height="73" viewBox="0 0 79 73" fill="none" xmlns="http://www.w3.org/2000/svg">
<g filter="url(#filter0_d)">
<path d="M48.3968 34.7888C49.7673 35.5074 52.8359 36.3159 54.0872 36.3159H54.981L55.0704 38.4718C55.1598 40.4481 55.2193 40.6577 55.8152 40.7475C56.6196 40.8673 56.8877 40.1187 56.7388 38.0227L56.6494 36.4656L58.288 36.256C64.6179 35.4077 65.9689 33.3874 68.8942 30.7464C74.4952 25.147 75.6273 16.2238 71.6053 9.06731C71.0988 8.169 69.7581 6.46222 68.5962 5.29443C64.5742 1.282 59.5095 -0.484665 53.6999 0.114204C49.5885 0.563358 46.3113 2.21025 43.0639 5.44415C40.323 8.19895 38.8334 11.0136 38.0886 14.8464L37.5821 17.4215L35.4966 17.5114C33.6495 17.6012 33.4111 17.6611 33.4111 18.2001C33.4111 18.7391 33.6495 18.7989 35.5264 18.8888L37.6417 18.9786L37.9992 21.0447C38.4163 23.56 40.1983 27.3987 40.1983 27.3987C40.431 28.0034 41.092 28.7461 41.2764 29.0097C41.6041 29.7583 45.1196 33.0221 46.222 33.621L48.3968 34.7888ZM61.4162 2.44979C63.8592 3.31816 66.9874 5.53398 68.5962 7.51025C71.2478 10.7741 72.4097 14.0379 72.4097 18.2001C72.4097 28.6803 63.025 36.4057 52.5976 34.5492C49.1714 33.9504 44.9707 31.3153 42.8256 28.4408C37.6119 21.5238 38.2673 12.3012 44.4046 6.22268C46.3709 4.27635 49.231 2.6594 51.7932 2.00064C54.117 1.40177 59.152 1.64132 61.4162 2.44979Z" fill="#276899"/>
<path d="M48.3968 34.7888C49.7673 35.5074 52.8359 36.3159 54.0872 36.3159H54.981L55.0704 38.4718C55.1598 40.4481 55.2193 40.6577 55.8152 40.7475C56.6196 40.8673 56.8877 40.1187 56.7388 38.0227L56.6494 36.4656L58.288 36.256C64.6179 35.4077 65.9689 33.3874 68.8942 30.7464C74.4952 25.147 75.6273 16.2238 71.6053 9.06731C71.0988 8.169 69.7581 6.46222 68.5962 5.29443C64.5742 1.282 59.5095 -0.484665 53.6999 0.114204C49.5885 0.563358 46.3113 2.21025 43.0639 5.44415C40.323 8.19895 38.8334 11.0136 38.0886 14.8464L37.5821 17.4215L35.4966 17.5114C33.6495 17.6012 33.4111 17.6611 33.4111 18.2001C33.4111 18.7391 33.6495 18.7989 35.5264 18.8888L37.6417 18.9786L37.9992 21.0447C38.4163 23.56 40.1983 27.3987 40.1983 27.3987C40.431 28.0034 41.092 28.7461 41.2764 29.0097C41.6041 29.7583 45.1196 33.0221 46.222 33.621L48.3968 34.7888ZM61.4162 2.44979C63.8592 3.31816 66.9874 5.53398 68.5962 7.51025C71.2478 10.7741 72.4097 14.0379 72.4097 18.2001C72.4097 28.6803 63.025 36.4057 52.5976 34.5492C49.1714 33.9504 44.9707 31.3153 42.8256 28.4408C37.6119 21.5238 38.2673 12.3012 44.4046 6.22268C46.3709 4.27635 49.231 2.6594 51.7932 2.00064C54.117 1.40177 59.152 1.64132 61.4162 2.44979Z" fill="url(#paint0_linear)" fill-opacity="0.3"/>
<path d="M55.3681 4.93517C55.1595 5.14478 55.0106 5.95325 55.0106 6.73178C55.0106 7.92953 54.9212 8.16907 54.4743 8.16907C53.3422 8.16907 50.8098 9.72613 50.0054 10.9239C48.5754 13.1397 49.201 16.2538 51.3163 17.5114C51.8228 17.8109 53.8189 18.4696 55.7554 18.9487C60.0157 20.0267 60.9691 20.7154 60.9691 22.7216C60.9691 24.9674 58.7347 26.734 55.9044 26.734C53.4316 26.734 50.8396 24.9674 50.8396 23.2905C50.8396 22.3323 50.0948 21.7634 49.4989 22.2425C48.9329 22.7216 49.1414 24.0391 50.0054 25.4764C50.6608 26.5544 52.5378 27.7521 54.0572 28.0815C54.9808 28.2612 55.0106 28.3211 55.0106 29.7284C55.0106 31.1357 55.5468 32.064 56.1427 31.7047C56.2917 31.6148 56.53 30.8064 56.6194 29.9081C56.8279 28.3809 56.8875 28.2612 57.7813 28.0516C60.9393 27.3928 63.0844 24.5182 62.4587 21.7934C61.9523 19.4877 60.5222 18.4097 56.8875 17.5713C53.223 16.7329 52.657 16.5533 51.7334 15.7747C50.9886 15.1459 50.8396 14.7866 50.8396 13.7086C50.8396 8.82783 59.9562 8.19902 60.9393 13.0199C61.1479 14.038 62.0416 14.547 62.4587 13.8583C62.7865 13.3493 62.3396 11.6425 61.5947 10.6244C60.9393 9.69619 58.2878 8.16907 57.3344 8.16907C56.8875 8.16907 56.7981 7.92953 56.7981 6.73178C56.7981 5.44421 56.4406 4.57585 55.9044 4.57585C55.815 4.57585 55.5766 4.72557 55.3681 4.93517Z" fill="#276899"/>
<path d="M55.3681 4.93517C55.1595 5.14478 55.0106 5.95325 55.0106 6.73178C55.0106 7.92953 54.9212 8.16907 54.4743 8.16907C53.3422 8.16907 50.8098 9.72613 50.0054 10.9239C48.5754 13.1397 49.201 16.2538 51.3163 17.5114C51.8228 17.8109 53.8189 18.4696 55.7554 18.9487C60.0157 20.0267 60.9691 20.7154 60.9691 22.7216C60.9691 24.9674 58.7347 26.734 55.9044 26.734C53.4316 26.734 50.8396 24.9674 50.8396 23.2905C50.8396 22.3323 50.0948 21.7634 49.4989 22.2425C48.9329 22.7216 49.1414 24.0391 50.0054 25.4764C50.6608 26.5544 52.5378 27.7521 54.0572 28.0815C54.9808 28.2612 55.0106 28.3211 55.0106 29.7284C55.0106 31.1357 55.5468 32.064 56.1427 31.7047C56.2917 31.6148 56.53 30.8064 56.6194 29.9081C56.8279 28.3809 56.8875 28.2612 57.7813 28.0516C60.9393 27.3928 63.0844 24.5182 62.4587 21.7934C61.9523 19.4877 60.5222 18.4097 56.8875 17.5713C53.223 16.7329 52.657 16.5533 51.7334 15.7747C50.9886 15.1459 50.8396 14.7866 50.8396 13.7086C50.8396 8.82783 59.9562 8.19902 60.9393 13.0199C61.1479 14.038 62.0416 14.547 62.4587 13.8583C62.7865 13.3493 62.3396 11.6425 61.5947 10.6244C60.9393 9.69619 58.2878 8.16907 57.3344 8.16907C56.8875 8.16907 56.7981 7.92953 56.7981 6.73178C56.7981 5.44421 56.4406 4.57585 55.9044 4.57585C55.815 4.57585 55.5766 4.72557 55.3681 4.93517Z" fill="url(#paint1_linear)" fill-opacity="0.3"/>
<path d="M45.4747 9.57588C44.9385 10.1747 44.0745 11.5821 43.568 12.6601C42.7934 14.3069 42.6444 15.0555 42.555 17.481C42.4061 20.6849 43.0019 23.5295 43.8957 23.8589C44.8193 24.2182 44.9682 23.5595 44.432 21.5233C43.419 17.7504 44.283 13.5284 46.6664 10.5041C47.1729 9.90525 47.5602 9.18661 47.5602 8.94706C47.5602 8.10865 46.4579 8.43802 45.4747 9.57588Z" fill="#276899"/>
<path d="M45.4747 9.57588C44.9385 10.1747 44.0745 11.5821 43.568 12.6601C42.7934 14.3069 42.6444 15.0555 42.555 17.481C42.4061 20.6849 43.0019 23.5295 43.8957 23.8589C44.8193 24.2182 44.9682 23.5595 44.432 21.5233C43.419 17.7504 44.283 13.5284 46.6664 10.5041C47.1729 9.90525 47.5602 9.18661 47.5602 8.94706C47.5602 8.10865 46.4579 8.43802 45.4747 9.57588Z" fill="url(#paint2_linear)" fill-opacity="0.3"/>
<path d="M67.0749 12.6602C66.9557 12.8399 67.1046 13.8879 67.3728 14.9958C68.3261 18.7987 67.6409 22.332 65.2575 25.5659C64.1552 27.0631 64.0658 28.0512 65.049 27.8715C65.7938 27.7218 67.7303 25.0568 68.4751 23.1405C69.3689 20.7749 69.5476 16.7026 68.8028 14.3071C68.2666 12.5704 67.5515 11.8817 67.0749 12.6602Z" fill="#276899"/>
<path d="M67.0749 12.6602C66.9557 12.8399 67.1046 13.8879 67.3728 14.9958C68.3261 18.7987 67.6409 22.332 65.2575 25.5659C64.1552 27.0631 64.0658 28.0512 65.049 27.8715C65.7938 27.7218 67.7303 25.0568 68.4751 23.1405C69.3689 20.7749 69.5476 16.7026 68.8028 14.3071C68.2666 12.5704 67.5515 11.8817 67.0749 12.6602Z" fill="url(#paint3_linear)" fill-opacity="0.3"/>
<path d="M24.7391 32.5729C24.5007 33.1419 25.4485 39.2262 25.1562 36.9147C25.2753 36.9147 25.1371 36.2859 25.1371 36.9147C25.1669 37.5735 25.8414 40.1486 26.4968 41.526C28.8207 46.4368 34.5408 50.6289 39.5162 51.0481C40.41 51.1379 40.5589 51.0481 40.6483 50.4791C40.7377 49.9701 40.5589 49.7605 39.9035 49.6407C34.1833 48.413 30.1315 45.4786 27.9269 40.9571C26.8841 38.8311 26.1095 35.8667 26.1095 33.8904C26.1095 32.9023 25.9606 32.4232 25.6328 32.3034C24.9774 32.0639 24.9178 32.0639 24.7391 32.5729Z" fill="#276899"/>
<path d="M24.7391 32.5729C24.5007 33.1419 25.4485 39.2262 25.1562 36.9147C25.2753 36.9147 25.1371 36.2859 25.1371 36.9147C25.1669 37.5735 25.8414 40.1486 26.4968 41.526C28.8207 46.4368 34.5408 50.6289 39.5162 51.0481C40.41 51.1379 40.5589 51.0481 40.6483 50.4791C40.7377 49.9701 40.5589 49.7605 39.9035 49.6407C34.1833 48.413 30.1315 45.4786 27.9269 40.9571C26.8841 38.8311 26.1095 35.8667 26.1095 33.8904C26.1095 32.9023 25.9606 32.4232 25.6328 32.3034C24.9774 32.0639 24.9178 32.0639 24.7391 32.5729Z" fill="url(#paint4_linear)" fill-opacity="0.3"/>
<path d="M32.1588 33.9799C31.7119 34.5188 32.1588 37.1239 32.9036 38.6211C33.4994 39.7889 35.3466 41.6454 36.4787 42.2742C36.8064 42.4539 37.6108 42.6934 38.2663 42.8731C39.2196 43.0827 39.5771 43.0527 39.8453 42.6934C40.3219 42.1245 39.7559 41.6155 38.1769 41.1663C35.7637 40.4776 34.1251 38.4714 33.4101 35.2974C33.0525 33.7403 32.6652 33.351 32.1588 33.9799Z" fill="#276899"/>
<path d="M32.1588 33.9799C31.7119 34.5188 32.1588 37.1239 32.9036 38.6211C33.4994 39.7889 35.3466 41.6454 36.4787 42.2742C36.8064 42.4539 37.6108 42.6934 38.2663 42.8731C39.2196 43.0827 39.5771 43.0527 39.8453 42.6934C40.3219 42.1245 39.7559 41.6155 38.1769 41.1663C35.7637 40.4776 34.1251 38.4714 33.4101 35.2974C33.0525 33.7403 32.6652 33.351 32.1588 33.9799Z" fill="url(#paint5_linear)" fill-opacity="0.3"/>
<path d="M45.4708 43.2011C45.2027 43.4706 45.1133 46.2853 45.1133 53.9808C45.1133 63.952 45.1431 64.4011 45.6793 64.7006C46.0666 64.8802 49.9397 65 56.2557 65C64.9254 65 66.2958 64.9401 66.6831 64.5209C67.1002 64.1316 67.1598 62.904 67.1598 55.7774V47.513L69.1857 45.6565C71.0627 43.8898 71.152 43.7701 70.6754 43.261C70.1987 42.7819 70.1093 42.8119 68.6793 44.0096L67.1598 45.2972V44.4288C67.1598 43.9497 67.0109 43.4107 66.8023 43.2011C66.2958 42.6921 45.9773 42.6921 45.4708 43.2011ZM65.3723 45.6266C65.3723 46.7345 65.1935 47.0639 64.1806 48.0819C63.0187 49.2198 62.9889 49.2198 62.9889 48.5011C62.9889 47.0938 62.6909 47.0339 55.928 47.0339C48.5096 47.0339 49.1949 46.5848 49.3438 51.3757C49.4332 54.2203 49.463 54.3701 50.0887 54.4599C50.7441 54.5497 50.7441 54.4599 50.8335 51.6153L50.9228 48.6808H56.1366H61.3503L61.2609 49.7288C61.1715 50.5972 60.7544 51.1362 58.8775 52.9328C57.6262 54.1305 56.4345 55.0588 56.2557 55.0288C56.077 54.9989 55.1534 54.0407 54.2 52.9328C52.5019 50.8966 51.8166 50.5672 51.8166 51.765C51.8166 52.5435 55.4513 57.2147 56.077 57.2147C56.2855 57.2147 57.5368 56.2565 58.7881 55.1186C60.0692 53.9509 61.1715 53.0226 61.2311 53.0226C61.2907 53.0226 61.3205 54.3701 61.2609 56.017L61.1715 59.0113H58.5498C56.5537 59.0113 55.8088 59.1311 55.5407 59.4605C55.2428 59.8198 55.2428 59.9994 55.5407 60.3588C56.0174 60.9277 62.0653 61.0175 62.6313 60.4486C62.8697 60.209 62.9889 58.7119 62.9889 55.7175V51.3458L64.1806 50.178L65.3723 49.0102V56.1068V63.2034H56.1366H46.9008V53.7712V44.339H56.1366H65.3723V45.6266Z" fill="#276899"/>
<path d="M45.4708 43.2011C45.2027 43.4706 45.1133 46.2853 45.1133 53.9808C45.1133 63.952 45.1431 64.4011 45.6793 64.7006C46.0666 64.8802 49.9397 65 56.2557 65C64.9254 65 66.2958 64.9401 66.6831 64.5209C67.1002 64.1316 67.1598 62.904 67.1598 55.7774V47.513L69.1857 45.6565C71.0627 43.8898 71.152 43.7701 70.6754 43.261C70.1987 42.7819 70.1093 42.8119 68.6793 44.0096L67.1598 45.2972V44.4288C67.1598 43.9497 67.0109 43.4107 66.8023 43.2011C66.2958 42.6921 45.9773 42.6921 45.4708 43.2011ZM65.3723 45.6266C65.3723 46.7345 65.1935 47.0639 64.1806 48.0819C63.0187 49.2198 62.9889 49.2198 62.9889 48.5011C62.9889 47.0938 62.6909 47.0339 55.928 47.0339C48.5096 47.0339 49.1949 46.5848 49.3438 51.3757C49.4332 54.2203 49.463 54.3701 50.0887 54.4599C50.7441 54.5497 50.7441 54.4599 50.8335 51.6153L50.9228 48.6808H56.1366H61.3503L61.2609 49.7288C61.1715 50.5972 60.7544 51.1362 58.8775 52.9328C57.6262 54.1305 56.4345 55.0588 56.2557 55.0288C56.077 54.9989 55.1534 54.0407 54.2 52.9328C52.5019 50.8966 51.8166 50.5672 51.8166 51.765C51.8166 52.5435 55.4513 57.2147 56.077 57.2147C56.2855 57.2147 57.5368 56.2565 58.7881 55.1186C60.0692 53.9509 61.1715 53.0226 61.2311 53.0226C61.2907 53.0226 61.3205 54.3701 61.2609 56.017L61.1715 59.0113H58.5498C56.5537 59.0113 55.8088 59.1311 55.5407 59.4605C55.2428 59.8198 55.2428 59.9994 55.5407 60.3588C56.0174 60.9277 62.0653 61.0175 62.6313 60.4486C62.8697 60.209 62.9889 58.7119 62.9889 55.7175V51.3458L64.1806 50.178L65.3723 49.0102V56.1068V63.2034H56.1366H46.9008V53.7712V44.339H56.1366H65.3723V45.6266Z" fill="url(#paint6_linear)" fill-opacity="0.3"/>
<path d="M30.3623 18.1165C30.3623 25.2303 24.6254 30.9908 17.5566 30.9908C10.4878 30.9908 4.75098 25.2303 4.75098 18.1165C4.75098 11.0026 10.4878 5.24219 17.5566 5.24219C24.6254 5.24219 30.3623 11.0026 30.3623 18.1165Z" stroke="#276899" stroke-width="1.5"/>
<rect x="17.1104" y="26.9502" width="1.19171" height="4.19209" rx="0.595853" fill="#276899"/>
<rect x="26.9395" y="18.8652" width="1.19774" height="4.17097" rx="0.59887" transform="rotate(-90 26.9395 18.8652)" fill="#276899"/>
<rect x="18.2998" y="8.68457" width="1.19171" height="4.19209" rx="0.595853" transform="rotate(-180 18.2998 8.68457)" fill="#276899"/>
<path d="M18.2998 17.3203H17.1081V11.3286C17.1081 10.9995 17.3749 10.7327 17.704 10.7327C18.033 10.7327 18.2998 10.9995 18.2998 11.3286V17.3203Z" fill="#276899"/>
<path d="M17.1104 17.3184L17.951 16.4694L24.2348 22.7549C24.4681 22.9882 24.469 23.3674 24.2369 23.6018C24.0047 23.8362 23.6275 23.8371 23.3942 23.6038L17.1104 17.3184Z" fill="#276899"/>
<rect x="8.1709" y="17.3682" width="1.19774" height="4.17097" rx="0.59887" transform="rotate(90 8.1709 17.3682)" fill="#276899"/>
</g>
<defs>
<filter id="filter0_d" x="0" y="0" width="78.0016" height="73" filterUnits="userSpaceOnUse" color-interpolation-filters="sRGB">
<feFlood flood-opacity="0" result="BackgroundImageFix"/>
<feColorMatrix in="SourceAlpha" type="matrix" values="0 0 0 0 0 0 0 0 0 0 0 0 0 0 0 0 0 0 127 0"/>
<feOffset dy="4"/>
<feGaussianBlur stdDeviation="2"/>
<feColorMatrix type="matrix" values="0 0 0 0 0 0 0 0 0 0 0 0 0 0 0 0 0 0 0.11 0"/>
<feBlend mode="normal" in2="BackgroundImageFix" result="effect1_dropShadow"/>
<feBlend mode="normal" in="SourceGraphic" in2="effect1_dropShadow" result="shape"/>
</filter>
<linearGradient id="paint0_linear" x1="53.7064" y1="40.7598" x2="53.7064" y2="0.000247955" gradientUnits="userSpaceOnUse">
<stop stop-color="white"/>
<stop offset="1" stop-color="white" stop-opacity="0"/>
</linearGradient>
<linearGradient id="paint1_linear" x1="55.8752" y1="31.7822" x2="55.8752" y2="4.57585" gradientUnits="userSpaceOnUse">
<stop stop-color="white"/>
<stop offset="1" stop-color="white" stop-opacity="0"/>
</linearGradient>
<linearGradient id="paint2_linear" x1="45.0462" y1="23.9521" x2="45.0462" y2="8.47743" gradientUnits="userSpaceOnUse">
<stop stop-color="white"/>
<stop offset="1" stop-color="white" stop-opacity="0"/>
</linearGradient>
<linearGradient id="paint3_linear" x1="66.8176" y1="27.8926" x2="66.8176" y2="12.3421" gradientUnits="userSpaceOnUse">
<stop stop-color="white"/>
<stop offset="1" stop-color="white" stop-opacity="0"/>
</linearGradient>
<linearGradient id="paint4_linear" x1="32.685" y1="51.0781" x2="32.685" y2="32.1482" gradientUnits="userSpaceOnUse">
<stop stop-color="white"/>
<stop offset="1" stop-color="white" stop-opacity="0"/>
</linearGradient>
<linearGradient id="paint5_linear" x1="35.9948" y1="43.0039" x2="35.9948" y2="33.6928" gradientUnits="userSpaceOnUse">
<stop stop-color="white"/>
<stop offset="1" stop-color="white" stop-opacity="0"/>
</linearGradient>
<linearGradient id="paint6_linear" x1="58.0162" y1="65" x2="58.0162" y2="42.8194" gradientUnits="userSpaceOnUse">
<stop stop-color="white"/>
<stop offset="1" stop-color="white" stop-opacity="0"/>
</linearGradient>
</defs>
</svg>
