<svg width="68" height="66" viewBox="0 0 68 66" fill="none" xmlns="http://www.w3.org/2000/svg">
<g filter="url(#filter0_d)">
<rect x="15" y="15" width="38" height="36" rx="18" fill="#276899"/>
</g>
<path d="M43.1921 36.7908C42.117 36.7908 41.2424 35.916 41.2424 34.8407V30.2437C41.2424 26.2495 37.9935 23 34 23C30.0065 23 26.7576 26.2495 26.7576 30.2437V34.8407C26.7576 35.916 25.883 36.7908 24.8079 36.7908C24.3617 36.7908 24 37.1526 24 37.5989C24 38.0452 24.3617 38.4069 24.8079 38.4069H43.1921C43.6383 38.4069 44 38.0452 44 37.5989C44 37.1526 43.6383 36.7908 43.1921 36.7908ZM27.7919 36.7908C28.1595 36.23 28.3734 35.5598 28.3734 34.8407V30.2437C28.3734 27.1406 30.8975 24.6161 34 24.6161C37.1025 24.6161 39.6266 27.1406 39.6266 30.2437V34.8407C39.6266 35.5598 39.8405 36.2301 40.2081 36.7908H27.7919Z" fill="white"/>
<path d="M35.9954 40.578C35.6095 40.354 35.1151 40.4855 34.8912 40.8715C34.6061 41.3632 33.9743 41.5311 33.4827 41.2459C33.3277 41.156 33.1983 41.0265 33.1084 40.8715C32.8845 40.4855 32.3901 40.3541 32.0042 40.578C31.6183 40.8019 31.4869 41.2964 31.7108 41.6824C31.9416 42.0804 32.274 42.4129 32.672 42.6438C33.0888 42.8857 33.545 43.0006 33.9954 43.0006C34.9088 43.0006 35.7985 42.5279 36.2889 41.6824C36.5127 41.2964 36.3814 40.8019 35.9954 40.578Z" fill="white"/>
<defs>
<filter id="filter0_d" x="0" y="0" width="68" height="66" filterUnits="userSpaceOnUse" color-interpolation-filters="sRGB">
<feFlood flood-opacity="0" result="BackgroundImageFix"/>
<feColorMatrix in="SourceAlpha" type="matrix" values="0 0 0 0 0 0 0 0 0 0 0 0 0 0 0 0 0 0 127 0"/>
<feOffset/>
<feGaussianBlur stdDeviation="7.5"/>
<feColorMatrix type="matrix" values="0 0 0 0 0.152941 0 0 0 0 0.407843 0 0 0 0 0.6 0 0 0 0.35 0"/>
<feBlend mode="normal" in2="BackgroundImageFix" result="effect1_dropShadow"/>
<feBlend mode="normal" in="SourceGraphic" in2="effect1_dropShadow" result="shape"/>
</filter>
</defs>
</svg>
