<svg width="48" height="48" viewBox="0 0 48 48" fill="none" xmlns="http://www.w3.org/2000/svg">
<path d="M1 44.5168V5.8352C1 4.55283 1.49778 3.32297 2.38383 2.4162C3.26988 1.50942 4.47162 1 5.72468 1H29.3481C30.6012 1 31.8029 1.50942 32.689 2.4162C33.575 3.32297 34.0728 4.55283 34.0728 5.8352V44.5168L26.9858 39.6816L22.2611 44.5168L17.5364 39.6816L12.8117 44.5168L8.08702 39.6816L1 44.5168Z" stroke="#454D54" stroke-linecap="round" stroke-linejoin="round"/>
<path d="M12.7512 21.8881V20.4702C15.3243 20.0376 16.6677 18.344 16.6677 16.6608C16.6677 15.1972 15.9888 12.7404 11.4457 12.7404C8.83464 12.7404 8.83464 11.9223 8.83464 11.4336C8.83464 10.8011 9.7498 9.70336 11.4457 9.70336C12.9927 9.70336 13.2551 10.9605 13.2734 11.4571L14.5789 11.4336H15.8844C15.8844 10.0928 15.0149 8.20706 12.7512 7.67127V6.22202H10.1401V7.62422C7.567 8.05678 6.22363 9.75041 6.22363 11.4336C6.22363 12.8972 6.9025 15.354 11.4457 15.354C14.0567 15.354 14.0567 16.2374 14.0567 16.6608C14.0567 17.2032 13.2472 18.4067 11.4457 18.4067C9.04222 18.4067 8.849 16.8477 8.83464 16.6608H6.22363C6.22363 17.8605 7.08657 19.9971 10.1401 20.4767V21.8881H12.7512Z" fill="#454D54"/>
<rect x="18.4053" y="18.4067" width="10.444" height="3.48135" rx="1.74067" fill="#454D54"/>
<rect x="18.4053" y="11.444" width="10.444" height="3.48135" rx="1.74067" fill="#454D54"/>
<rect x="6.22363" y="25.3694" width="22.6288" height="3.48135" rx="1.74067" fill="#454D54"/>
<rect x="6.22363" y="32.3321" width="22.6288" height="3.48135" rx="1.74067" fill="#454D54"/>
<path fill-rule="evenodd" clip-rule="evenodd" d="M35.8156 23.6288C29.0969 23.6288 23.6309 29.0948 23.6309 35.8135C23.6309 42.5321 29.0969 47.9982 35.8156 47.9982C42.5342 47.9982 48.0003 42.5321 48.0003 35.8135C48.0003 29.0948 42.5342 23.6288 35.8156 23.6288Z" fill="#454D54"/>
<path fill-rule="evenodd" clip-rule="evenodd" d="M31.2422 32.4627C31.2422 30.111 33.1552 28.198 35.5068 28.198C37.8585 28.198 39.7715 30.111 39.7715 32.4627C39.7715 34.3878 38.4799 35.9999 36.7253 36.5287V37.9458C36.7253 38.6196 36.1807 39.1643 35.5068 39.1643C34.833 39.1643 34.2884 38.6196 34.2884 37.9458V35.5088C34.2884 34.835 34.833 34.2904 35.5068 34.2904C36.5145 34.2904 37.3345 33.4703 37.3345 32.4627C37.3345 31.455 36.5145 30.635 35.5068 30.635C34.4992 30.635 33.6791 31.455 33.6791 32.4627C33.6791 33.1365 33.1345 33.6811 32.4607 33.6811C31.7868 33.6811 31.2422 33.1365 31.2422 32.4627ZM34.2894 41.6011C34.2894 40.9273 34.834 40.3826 35.5078 40.3826C36.1816 40.3826 36.7263 40.9273 36.7263 41.6011C36.7263 42.2749 36.1816 42.8196 35.5078 42.8196C34.834 42.8196 34.2894 42.2749 34.2894 41.6011Z" fill="#17212B"/>
</svg>
