<svg width="21" height="27" viewBox="0 0 21 27" fill="none" xmlns="http://www.w3.org/2000/svg">
<path d="M1 26V3.77778C1 3.04107 1.28597 2.33453 1.795 1.81359C2.30402 1.29266 2.99441 1 3.71429 1H17.2857C18.0056 1 18.696 1.29266 19.205 1.81359C19.714 2.33453 20 3.04107 20 3.77778V26L15.9286 23.2222L13.2143 26L10.5 23.2222L7.78571 26L5.07143 23.2222L1 26Z" stroke="#276899" stroke-width="2" stroke-linecap="round" stroke-linejoin="round"/>
<path d="M7.75 13V12.1854C9.22825 11.9369 10 10.964 10 9.997C10 9.15616 9.61 7.74474 7 7.74474C5.5 7.74474 5.5 7.27477 5.5 6.99399C5.5 6.63063 6.02575 6 7 6C7.88875 6 8.0395 6.72222 8.05 7.00751L8.8 6.99399H9.55C9.55 6.22372 9.0505 5.14039 7.75 4.83258V4H6.25V4.80556C4.77175 5.05405 4 6.02703 4 6.99399C4 7.83483 4.39 9.24625 7 9.24625C8.5 9.24625 8.5 9.75375 8.5 9.997C8.5 10.3086 8.035 11 7 11C5.61925 11 5.50825 10.1044 5.5 9.997H4C4 10.6862 4.49575 11.9137 6.25 12.1892V13H7.75Z" fill="#276899"/>
<rect x="11" y="11" width="6" height="2" rx="1" fill="#276899"/>
<rect x="11" y="7" width="6" height="2" rx="1" fill="#276899"/>
<rect x="4" y="15" width="13" height="2" rx="1" fill="#276899"/>
<rect x="4" y="19" width="13" height="2" rx="1" fill="#276899"/>
</svg>
