<svg width="25" height="26" viewBox="0 0 25 26" fill="none" xmlns="http://www.w3.org/2000/svg">
<path fill-rule="evenodd" clip-rule="evenodd" d="M11.7813 0.00884631C9.17014 0.198711 6.86767 1.09668 4.84797 2.71289C4.34941 3.11185 3.40361 4.05027 3.00834 4.53816C1.40018 6.52329 0.477076 8.73569 0.160543 11.3636C0.0794095 12.037 0.0792761 13.4947 0.160276 14.1903C0.456676 16.736 1.38178 18.9827 2.93611 20.9317C3.33244 21.4287 4.16344 22.2844 4.63131 22.6772C6.49184 24.2393 8.7365 25.2129 11.148 25.5037C11.7442 25.5757 13.1778 25.5846 13.748 25.5199C16.0102 25.2633 18.0413 24.466 19.8147 23.1385C23.722 20.2135 25.6352 15.2195 24.7103 10.3596C23.9508 6.36866 21.423 3.00088 17.8715 1.2482C16.6042 0.622769 15.3155 0.244078 13.8646 0.0706066C13.4436 0.0202549 12.1512 -0.0180191 11.7813 0.00884631ZM13.6597 1.24241C14.0757 1.28674 14.6437 1.37784 14.6703 1.40454C14.7113 1.44566 13.8845 2.72623 13.572 3.10576L13.498 3.19563L13.1801 3.00215C12.257 2.44032 11.1985 1.97481 10.1373 1.66396L9.70114 1.53619L10.0162 1.46333C10.3921 1.37637 11.0224 1.27159 11.4146 1.23084C11.8852 1.18199 13.1535 1.18852 13.6597 1.24241ZM16.748 2.03643C17.6505 2.41994 18.6042 2.98345 19.3221 3.55746L19.5462 3.73665L19.4893 3.86141C19.2613 4.36161 18.7354 5.23954 18.3087 5.83238C18.057 6.18204 17.4442 6.94464 17.4146 6.94491C17.4055 6.94501 17.3305 6.85143 17.248 6.73694C16.6242 5.87153 15.6579 4.87165 14.5555 3.95094L14.4733 3.88228L14.7523 3.50951C15.0873 3.06193 15.389 2.582 15.6551 2.0736L15.8518 1.69762L16.1416 1.79976C16.3009 1.8559 16.5738 1.96243 16.748 2.03643ZM9.46464 2.71412C10.0706 2.86842 10.688 3.08107 11.2296 3.32202C11.6056 3.48927 12.2812 3.83856 12.5262 3.99235L12.6877 4.09376L12.3762 4.37085C11.7691 4.91076 10.9794 5.47785 10.3783 5.80555L10.1254 5.94346L10.0904 5.86812C9.83344 5.31538 8.58131 2.55531 8.58131 2.54166C8.58131 2.5077 8.89294 2.56855 9.46464 2.71412ZM8.21504 4.60507C8.58707 5.42392 8.92624 6.17227 8.96867 6.26809L9.04587 6.44233L8.62761 6.57889C8.13601 6.73942 7.66644 6.8533 7.18247 6.92935C6.76181 6.99543 6.18131 7.03454 6.18131 6.99676C6.18131 6.98178 6.23371 6.73483 6.29777 6.44805C6.47641 5.64821 6.73497 4.81725 7.03781 4.06977C7.22577 3.60583 7.49094 3.06217 7.51561 3.09017C7.52824 3.10452 7.84297 3.78623 8.21504 4.60507ZM5.91837 3.68693C5.52581 4.65994 5.23347 5.67848 4.99604 6.90064C4.98084 6.9789 4.99771 6.9792 4.53131 6.89231C3.97964 6.78957 3.11464 6.50616 3.11464 6.42821C3.11464 6.37274 3.57567 5.72322 3.90097 5.32037C4.23944 4.90126 4.81537 4.30146 5.20581 3.96151C5.54354 3.66743 6.05551 3.26321 6.07081 3.2786C6.07564 3.28342 6.00704 3.46719 5.91837 3.68693ZM21.1578 5.37457C21.6976 6.05263 22.1398 6.7446 22.5171 7.50155L22.7851 8.03936L22.6533 8.34013C22.0905 9.62355 21.3193 10.8492 20.3949 11.9286C20.22 12.1329 20.0717 12.3 20.0652 12.3C20.0588 12.3 19.99 12.1081 19.9125 11.8735C19.5604 10.8083 18.8532 9.24058 18.3331 8.37205C18.213 8.17138 18.1146 7.99467 18.1146 7.97934C18.1146 7.96402 18.267 7.77442 18.4533 7.55799C19.1681 6.72737 19.7602 5.86541 20.3309 4.82475L20.4581 4.59276L20.6948 4.84148C20.825 4.97828 21.0333 5.21816 21.1578 5.37457ZM14.098 5.11227C14.8344 5.7282 15.7159 6.66324 16.3098 7.45829C16.4443 7.63832 16.5464 7.80627 16.5367 7.83157C16.5126 7.8946 15.9041 8.43318 15.4982 8.75068C15.0071 9.13489 14.417 9.54229 13.8938 9.85851C13.3713 10.1743 12.36 10.7037 12.3108 10.6873C12.2827 10.6779 10.607 7.04106 10.6247 7.02781C10.6283 7.0251 10.811 6.92099 11.0306 6.79643C11.8454 6.33443 12.7214 5.68682 13.3512 5.08075C13.5803 4.86034 13.6781 4.78651 13.7146 4.80631C13.7421 4.82123 13.9146 4.95891 14.098 5.11227ZM2.83741 7.63056C3.30704 7.8126 3.88607 7.97854 4.35401 8.06519C4.59174 8.10922 4.79374 8.15278 4.80291 8.16195C4.81204 8.17115 4.80411 8.37955 4.78524 8.62508C4.70077 9.72379 4.71201 10.8355 4.81757 11.8256C4.83781 12.0155 4.84561 12.1797 4.83494 12.1905C4.77664 12.2489 3.22697 12.0631 2.49797 11.9101C2.11238 11.8292 1.39721 11.6447 1.34591 11.6129C1.31501 11.5937 1.33088 11.4495 1.43418 10.8093C1.52618 10.2393 1.68681 9.58023 1.86591 9.03803C2.06418 8.43769 2.45524 7.51577 2.51164 7.51577C2.52794 7.51577 2.67454 7.56743 2.83741 7.63056ZM10.3601 9.31984C10.8118 10.3121 11.1813 11.1373 11.1813 11.1537C11.1813 11.2002 10.0962 11.5495 9.4322 11.7167C8.43207 11.9687 7.38061 12.1342 6.44241 12.1874L6.05354 12.2095L6.03314 12.0624C5.92617 11.2915 5.88497 9.7989 5.94597 8.90625C5.96837 8.57838 5.99344 8.29243 6.00171 8.27085C6.01134 8.24559 6.20577 8.21718 6.54714 8.19112C7.45924 8.12153 8.34704 7.93772 9.1313 7.65615C9.33297 7.58375 9.50717 7.52256 9.51844 7.52015C9.52967 7.51775 9.9084 8.32759 10.3601 9.31984ZM17.3735 9.07985C17.7146 9.65855 18.1258 10.5084 18.4216 11.2461C18.6925 11.9216 19.0813 13.0998 19.0813 13.2451C19.0813 13.3461 17.9739 14.2364 17.1813 14.7727C16.2994 15.3694 14.8219 16.1742 14.7532 16.0953C14.7382 16.078 14.477 15.5143 14.1728 14.8427C13.8686 14.1711 13.4322 13.2108 13.2031 12.7087L12.7866 11.7959L13.309 11.5333C14.588 10.8905 15.8205 10.0684 16.8146 9.19514C17.0255 9.00996 17.2075 8.85744 17.2192 8.85623C17.2308 8.85503 17.3003 8.95566 17.3735 9.07985ZM23.4608 10.1588C23.6774 11.1152 23.7655 12.0163 23.7403 13.0187L23.7235 13.6885L23.5052 14.1807C22.9682 15.3916 22.1567 16.6289 21.2461 17.6257C21.0961 17.7897 20.9672 17.9177 20.9596 17.9101C20.952 17.9024 20.9309 17.5969 20.9128 17.2312C20.8594 16.154 20.7228 15.0763 20.517 14.1083L20.4214 13.6583L20.7388 13.3221C21.6621 12.3441 22.5758 11.0895 23.1496 10.0117C23.2657 9.79361 23.3328 9.69833 23.3491 9.72854C23.3626 9.7536 23.4129 9.94721 23.4608 10.1588ZM12.6887 14.4329L13.6758 16.5992L13.5369 16.6603C12.9593 16.9148 11.3449 17.3798 10.3313 17.5836C9.58824 17.7331 7.90541 17.9591 7.86537 17.9148C7.85994 17.9088 7.74984 17.6917 7.62071 17.4322C7.11747 16.4213 6.72467 15.3489 6.42871 14.1779C6.32931 13.7846 6.24797 13.4422 6.24797 13.4168C6.24797 13.3829 6.29897 13.3706 6.43964 13.3706C6.90957 13.3705 8.06797 13.2251 8.86464 13.0661C9.54794 12.9298 10.4145 12.6944 11.0778 12.4649C11.3822 12.3596 11.6471 12.2719 11.6664 12.27C11.6858 12.2681 12.1458 13.2414 12.6887 14.4329ZM1.64228 12.934C2.54471 13.1644 3.42581 13.2932 4.75454 13.3889L5.04444 13.4098L5.08097 13.5993C5.31997 14.8385 5.84594 16.4517 6.39594 17.6325C6.48067 17.8144 6.54444 17.9688 6.53767 17.9757C6.51364 17.9997 4.93824 17.9199 4.45491 17.8701C3.95284 17.8183 2.97207 17.6627 2.50051 17.56L2.23634 17.5025L2.14011 17.2683C1.64681 16.068 1.33834 14.6476 1.29064 13.3567C1.27231 12.8607 1.27491 12.8257 1.32874 12.8464C1.36054 12.8587 1.50161 12.8981 1.64228 12.934ZM19.53 15.2944C19.6905 16.3315 19.7251 16.7988 19.7283 17.9706L19.7313 19.0744L19.2416 19.4427C18.9722 19.6453 18.5597 19.9333 18.3249 20.0828C17.8442 20.3889 16.98 20.87 16.9369 20.8556C16.9055 20.8451 15.281 17.293 15.2818 17.2367C15.2821 17.2173 15.4244 17.1354 15.5979 17.0547C16.6188 16.5802 18.0574 15.6706 19.0436 14.876C19.4607 14.54 19.406 14.4929 19.53 15.2944ZM14.9913 19.4898C15.4429 20.4817 15.8167 21.3119 15.8219 21.3348C15.8328 21.3829 15.6257 21.4707 14.9545 21.7022C14.1042 21.9956 13.1696 22.2286 12.2715 22.3713L11.8118 22.4443L11.6882 22.3615C11.0212 21.9149 9.8862 20.8188 9.23777 19.995C8.9195 19.5907 8.54964 19.0797 8.56421 19.0646C8.56964 19.0589 8.81197 19.024 9.1027 18.987C10.2019 18.8471 11.4164 18.5898 12.4786 18.2717C12.9778 18.1222 13.9844 17.7743 14.0813 17.7177C14.1088 17.7016 14.14 17.6881 14.1507 17.6875C14.1613 17.687 14.5396 18.498 14.9913 19.4898ZM22.4641 18.1893C22.1212 18.8746 21.6146 19.6498 21.0964 20.2822C20.8162 20.6242 20.7345 20.7082 20.764 20.624C20.7724 20.6001 20.8017 20.3716 20.8291 20.1164L20.8789 19.6523L21.1551 19.4005C21.5039 19.0824 22.0126 18.5588 22.3407 18.18C22.4801 18.019 22.599 17.8872 22.6048 17.8872C22.6106 17.8872 22.5473 18.0232 22.4641 18.1893ZM3.73191 18.9726C4.68211 19.0992 5.06721 19.1268 6.18761 19.1485L7.21057 19.1683L7.48731 19.59C8.13927 20.5835 8.91557 21.5203 9.66487 22.2177C9.85884 22.3982 10.0106 22.5528 10.0022 22.5613C9.971 22.5926 8.58017 22.5037 8.06447 22.4375C7.19631 22.3259 5.81384 22.0088 5.51994 21.8538C5.36647 21.7729 4.61197 21.0587 4.26464 20.6656C4.08131 20.4582 3.82034 20.1434 3.68471 19.966C3.44237 19.6492 2.94797 18.9152 2.94797 18.8721C2.94797 18.8601 2.98197 18.8588 3.02357 18.8692C3.06514 18.8797 3.38387 18.9262 3.73191 18.9726ZM19.4837 21.1387C19.4461 21.3469 19.3864 21.6373 19.3511 21.7841C19.2774 22.0902 19.2942 22.0722 18.7146 22.4661C18.1718 22.835 17.9138 22.9853 17.8814 22.9515C17.8228 22.8906 17.4216 21.9685 17.4469 21.9529C17.4614 21.9438 17.5764 21.8816 17.7023 21.8145C18.1596 21.571 18.7601 21.217 19.1415 20.966C19.3559 20.8249 19.536 20.7208 19.5417 20.7348C19.5474 20.7488 19.5213 20.9305 19.4837 21.1387ZM16.5846 22.9892C16.7094 23.2652 16.7991 23.5034 16.7839 23.5187C16.7378 23.5649 15.923 23.8577 15.5103 23.9763L15.1226 24.0877L14.7936 23.9788C14.4762 23.8737 13.7211 23.5643 13.4837 23.4421C13.3492 23.3728 13.3119 23.3899 13.9146 23.2448C14.5822 23.0841 15.7128 22.7217 16.1313 22.5344C16.2046 22.5015 16.2856 22.4775 16.3112 22.4811C16.3368 22.4846 16.4598 22.7133 16.5846 22.9892ZM11.8264 23.8818C12.0124 23.9955 12.2846 24.1546 12.4313 24.2354L12.698 24.3824L12.048 24.3652C11.0595 24.3392 10.006 24.1507 9.06464 23.8315L8.7313 23.7185L9.59797 23.732C10.0746 23.7395 10.6371 23.7319 10.848 23.7151C11.5097 23.6626 11.4513 23.6526 11.8264 23.8818Z" fill="#B0B0B0"/>
<rect x="0.441406" y="23.8926" width="32.7281" height="2" rx="1" transform="rotate(-45 0.441406 23.8926)" fill="#4A4A4A"/>
</svg>
