<svg width="14" height="15" viewBox="0 0 14 15" fill="none" xmlns="http://www.w3.org/2000/svg">
<path d="M13.9928 14.4213L13.0354 8.60406H13.3587C13.6189 8.60406 13.8284 8.38325 13.8284 8.10914V4.45431C13.8284 4.1802 13.6189 3.95939 13.3587 3.95939H8.91485V0.494924C8.91485 0.220812 8.7053 0 8.44517 0H5.55484C5.29471 0 5.08517 0.220812 5.08517 0.494924V3.95939H0.641291C0.381162 3.95939 0.171613 4.1802 0.171613 4.45431V8.10914C0.171613 8.38325 0.381162 8.60406 0.641291 8.60406H0.964646L0.00722584 14.4213C0.00180648 14.4499 0 14.4784 0 14.5051C0 14.7792 0.209549 15 0.469678 15H13.5303C13.5574 15 13.5845 14.9981 13.6098 14.9924C13.8663 14.9467 14.0379 14.6897 13.9928 14.4213ZM1.43613 5.29188H6.34968V1.33249H7.65033V5.29188H12.5639V7.27157H1.43613V5.29188ZM9.89033 13.6675V10.698C9.89033 10.6142 9.8253 10.5457 9.74582 10.5457H8.87872C8.79923 10.5457 8.7342 10.6142 8.7342 10.698V13.6675H5.26581V10.698C5.26581 10.6142 5.20078 10.5457 5.1213 10.5457H4.2542C4.17471 10.5457 4.10968 10.6142 4.10968 10.698V13.6675H1.41445L2.22916 8.71827H11.769L12.5838 13.6675H9.89033Z" fill="#276899"/>
</svg>
