<svg width="24" height="25" viewBox="0 0 24 25" fill="none" xmlns="http://www.w3.org/2000/svg">
<path d="M23.9876 24.0355L22.3463 14.3401H22.9007C23.3466 14.3401 23.7058 13.9721 23.7058 13.5152V7.42386C23.7058 6.967 23.3466 6.59898 22.9007 6.59898H15.2826V0.824873C15.2826 0.36802 14.9234 0 14.4774 0H9.52259C9.07665 0 8.71743 0.36802 8.71743 0.824873V6.59898H1.09936C0.65342 6.59898 0.294194 6.967 0.294194 7.42386V13.5152C0.294194 13.9721 0.65342 14.3401 1.09936 14.3401H1.65368L0.0123872 24.0355C0.00309682 24.0831 0 24.1307 0 24.1751C0 24.632 0.359226 25 0.805162 25H23.1949C23.2413 25 23.2878 24.9968 23.3311 24.9873C23.7709 24.9112 24.0651 24.4829 23.9876 24.0355ZM2.46194 8.8198H10.8852V2.22081H13.1149V8.8198H21.5381V12.1193H2.46194V8.8198ZM16.9549 22.7792V17.8299C16.9549 17.6904 16.8434 17.5761 16.7071 17.5761H15.2207C15.0844 17.5761 14.9729 17.6904 14.9729 17.8299V22.7792H9.02711V17.8299C9.02711 17.6904 8.91562 17.5761 8.77936 17.5761H7.29291C7.15665 17.5761 7.04517 17.6904 7.04517 17.8299V22.7792H2.42478L3.82142 14.5305H20.1755L21.5721 22.7792H16.9549Z" fill="#FF3A29"/>
</svg>
