<svg width="24" height="24" viewBox="0 0 24 24" fill="none" xmlns="http://www.w3.org/2000/svg">
<path d="M1.60156 10.4H4.34442L6.40156 8" stroke="#454D54"/>
<path d="M11.1992 11.6L7.19922 8" stroke="#454D54"/>
<circle cx="6.80156" cy="7.59844" r="0.85" fill="#454D54" stroke="#454D54" stroke-width="0.7"/>
<path d="M20 12.4008H17.2571L15.2 14.8008" stroke="#454D54"/>
<path d="M12.8008 13.2008L14.4008 14.8008" stroke="#454D54"/>
<circle cx="14.8" cy="15.1984" r="0.85" transform="rotate(-180 14.8 15.1984)" fill="#454D54" stroke="#454D54" stroke-width="0.7"/>
<g filter="url(#filter0_d)">
<path fill-rule="evenodd" clip-rule="evenodd" d="M6.90326 11.4632C7.06484 11.4014 7.23777 11.3696 7.41238 11.3696C7.57557 11.3609 7.73862 11.3886 7.88808 11.4504C8.01738 11.5086 8.14074 11.5777 8.25663 11.6568C8.36943 11.7332 8.47264 11.8212 8.56433 11.9192C8.65347 12.0152 8.74004 12.1032 8.82489 12.1824C8.90193 12.2551 8.98505 12.322 9.07345 12.3824C9.16271 12.4421 9.27199 12.4698 9.38134 12.4606C9.49069 12.4513 9.59284 12.4057 9.66914 12.332C9.76348 12.2494 9.85719 12.1662 9.95027 12.0824C10.0703 11.9736 10.2177 11.8424 10.3917 11.688C10.5738 11.5268 10.7546 11.3644 10.9342 11.2008L11.5171 10.6696C11.8749 10.343 12.2208 10.0052 12.5542 9.65678C12.6739 9.53394 12.7858 9.40465 12.8893 9.26958C12.9699 9.16158 13.0101 9.08238 13.0101 9.03198C13.0151 8.94168 12.9843 8.85283 12.9236 8.78238C12.861 8.70718 12.7864 8.63038 12.7024 8.55038C12.6167 8.47198 12.5233 8.38798 12.4213 8.30078C12.3185 8.21278 12.2242 8.11918 12.1393 8.01918C12.0553 7.91918 11.9833 7.80478 11.925 7.67518C11.8676 7.54718 11.8385 7.40078 11.8385 7.23838C11.8385 6.90826 11.978 6.59147 12.2267 6.35678C12.3869 6.21006 12.5388 6.05572 12.6819 5.89438C12.8454 5.71263 13.0221 5.54156 13.2107 5.38238C13.3938 5.22599 13.5937 5.08765 13.8073 4.96958C14.0012 4.86 14.2234 4.80166 14.4501 4.80078C14.8035 4.801 15.1425 4.93121 15.3938 5.16318C15.626 5.37998 15.8292 5.57358 16.0032 5.74478C16.1701 5.90688 16.3184 6.08492 16.4454 6.27598C16.5686 6.46556 16.6588 6.67211 16.7128 6.88798C16.7758 7.15482 16.8051 7.4276 16.8003 7.70078C16.8003 8.14238 16.724 8.60078 16.5723 9.07598C16.4206 9.55038 16.2157 10.024 15.9569 10.4944C15.698 10.9656 15.3826 11.428 15.0123 11.8824C14.6421 12.336 14.2401 12.7672 13.8073 13.176C13.3744 13.584 12.9141 13.9616 12.4273 14.3072C11.9413 14.6528 11.4434 14.9512 10.9342 15.2008C10.426 15.4512 9.91428 15.6464 9.40087 15.788C8.91448 15.926 8.40928 15.9977 7.90093 16.0008C7.61039 16.0006 7.32071 15.9711 7.03697 15.9128C6.80313 15.8635 6.57939 15.7792 6.37443 15.6632C6.17729 15.5512 5.98873 15.4136 5.80531 15.2512C5.62189 15.088 5.41704 14.9008 5.18905 14.688C4.94039 14.4532 4.80088 14.1365 4.80078 13.8064C4.81049 13.6661 4.83988 13.5276 4.8882 13.3944C4.93834 13.2549 5.01277 13.1241 5.10848 13.0072C5.2085 12.8846 5.31373 12.7659 5.4239 12.6512C5.5374 12.5325 5.65787 12.4198 5.78474 12.3136C5.90724 12.2111 6.0301 12.109 6.15329 12.0072C6.26111 11.9184 6.36601 11.8267 6.46785 11.732C6.59201 11.6158 6.74014 11.5244 6.90326 11.4632ZM7.21782 15.132C7.44142 15.1821 7.67101 15.2053 7.90093 15.2008C8.3416 15.193 8.77894 15.1278 9.20031 15.0072C9.67178 14.8742 10.1273 14.6962 10.5597 14.476C11.5209 13.9847 12.4007 13.3657 13.1713 12.6384C13.563 12.2686 13.9318 11.8784 14.2761 11.4696C14.6103 11.0743 14.9058 10.6518 15.1589 10.2072C15.3949 9.79604 15.588 9.36474 15.7357 8.91918C15.87 8.51874 15.9399 8.10195 15.9432 7.68238C15.9434 7.46947 15.9163 7.2573 15.8626 7.05038C15.8137 6.87598 15.74 6.71918 15.6415 6.58238C15.5438 6.44478 15.4229 6.31118 15.2806 6.18238C15.1375 6.05278 14.9746 5.90238 14.7921 5.73198C14.7476 5.68933 14.6943 5.65567 14.6353 5.6331C14.5763 5.61052 14.513 5.59952 14.4492 5.60078C14.3961 5.59678 14.3138 5.62958 14.2024 5.70078C14.091 5.77198 13.9701 5.85678 13.8407 5.95678C13.5612 6.17439 13.3033 6.4151 13.0701 6.67598C12.963 6.79598 12.8739 6.90718 12.8027 7.00718C12.7316 7.10718 12.6956 7.18398 12.6956 7.23838C12.6879 7.329 12.719 7.41877 12.7822 7.48798C12.8447 7.55518 12.9193 7.63198 13.0033 7.71998C13.089 7.80718 13.1824 7.89038 13.2844 7.96958C13.3873 8.04878 13.4816 8.14238 13.5664 8.25038C13.6516 8.35938 13.7234 8.4769 13.7807 8.60078C13.8411 8.73769 13.8705 8.88476 13.8673 9.03278C13.863 9.20318 13.827 9.36318 13.7601 9.51278C13.6933 9.66318 13.5973 9.79678 13.4721 9.91278L10.2785 12.8944C10.1557 13.0118 10.0087 13.1049 9.84642 13.1681C9.68414 13.2314 9.50986 13.2634 9.33401 13.2624C9.17318 13.2703 9.01259 13.2429 8.86518 13.1824C8.6077 13.0711 8.37751 12.9115 8.18892 12.7136C8.09464 12.6176 8.00893 12.5296 7.9275 12.4504C7.84779 12.372 7.76465 12.3048 7.6798 12.2504C7.60166 12.1985 7.50829 12.1703 7.41238 12.1696C7.34981 12.1696 7.26496 12.2032 7.15782 12.2696C7.05068 12.336 6.9324 12.4216 6.80298 12.5256C6.67356 12.6296 6.53985 12.7448 6.401 12.8696C6.263 12.9944 6.13958 13.1192 6.03244 13.2448C5.92616 13.3696 5.83616 13.4824 5.76502 13.5824C5.69388 13.6824 5.65789 13.7584 5.65789 13.8136C5.65726 13.8718 5.66941 13.9295 5.69358 13.9832C5.71776 14.0368 5.75344 14.0853 5.79845 14.1256C5.99044 14.3008 6.15329 14.4536 6.287 14.5816C6.41695 14.7077 6.56057 14.8208 6.71555 14.9192C6.86904 15.0159 7.03882 15.0878 7.21782 15.132Z" fill="#454D54"/>
</g>
<path fill-rule="evenodd" clip-rule="evenodd" d="M2.6671 10.668C2.6671 6.25597 6.25505 2.66797 10.667 2.66797C15.0789 2.66797 18.6669 6.25597 18.6669 10.668C18.6669 15.08 15.0789 18.668 10.667 18.668C6.25505 18.668 2.6671 15.08 2.6671 10.668ZM23.609 21.724L19.0824 17.196C20.4864 15.3907 21.333 13.128 21.333 10.6667C21.333 4.78533 16.5478 0 10.6665 0C4.78527 0 0 4.78533 0 10.6667C0 16.548 4.78527 21.3333 10.6665 21.3333C13.1278 21.3333 15.3905 20.4867 17.1958 19.0827L21.7237 23.6093C21.9837 23.8693 22.325 24 22.6664 24C23.0077 24 23.349 23.8693 23.609 23.6093C24.1303 23.088 24.1303 22.2453 23.609 21.724Z" fill="#454D54"/>
<defs>
<filter id="filter0_d" x="0.800781" y="4.80078" width="20" height="19.2" filterUnits="userSpaceOnUse" color-interpolation-filters="sRGB">
<feFlood flood-opacity="0" result="BackgroundImageFix"/>
<feColorMatrix in="SourceAlpha" type="matrix" values="0 0 0 0 0 0 0 0 0 0 0 0 0 0 0 0 0 0 127 0"/>
<feOffset dy="4"/>
<feGaussianBlur stdDeviation="2"/>
<feColorMatrix type="matrix" values="0 0 0 0 0 0 0 0 0 0 0 0 0 0 0 0 0 0 0.25 0"/>
<feBlend mode="normal" in2="BackgroundImageFix" result="effect1_dropShadow"/>
<feBlend mode="normal" in="SourceGraphic" in2="effect1_dropShadow" result="shape"/>
</filter>
</defs>
</svg>
