<svg width="16" height="16" viewBox="0 0 16 16" fill="none" xmlns="http://www.w3.org/2000/svg">
<path fill-rule="evenodd" clip-rule="evenodd" d="M7.00283 8.54195C7.00095 8.51839 7 8.49459 7 8.47059V0.941177C7 0.421647 7.447 0 8 0C8.553 0 9 0.421647 9 0.941177V8.47059C9 8.47061 9 8.47063 9 8.47064L11.4002 6.77654C11.8422 6.46313 12.4692 6.54878 12.8002 6.96478C13.1322 7.38078 13.0422 7.9709 12.6002 8.28242L8.60021 11.106C8.42321 11.2311 8.21121 11.2942 8.00021 11.2942C7.79921 11.2942 7.59821 11.2368 7.42521 11.1229L3.42521 8.47443C2.97321 8.17513 2.86421 7.58784 3.18221 7.16337C3.50021 6.73795 4.12321 6.63537 4.57521 6.93466L7.00283 8.54195ZM2 13.1765V14.1176H14V13.1765C14 12.6588 14.45 12.2353 15 12.2353C15.55 12.2353 16 12.6588 16 13.1765V15.0588C16 15.5765 15.55 16 15 16H1C0.45 16 0 15.5765 0 15.0588V13.1765C0 12.6588 0.45 12.2353 1 12.2353C1.55 12.2353 2 12.6588 2 13.1765Z" fill="white"/>
</svg>
