<svg width="16" height="16" viewBox="0 0 16 16" fill="none" xmlns="http://www.w3.org/2000/svg">
    <path fill-rule="evenodd" clip-rule="evenodd"
          d="M10.4041 4.79506L7.04056 9.21195L5.589 7.35773C5.28589 6.97017 4.72767 6.90262 4.341 7.20573C3.95433 7.50795 3.88589 8.06706 4.189 8.45284L6.34989 11.2146C6.51878 11.4297 6.77656 11.5551 7.05033 11.5551H7.05656C7.33122 11.5542 7.59078 11.4244 7.757 11.2048L11.8183 5.87151C12.1161 5.48039 12.0406 4.92395 11.6494 4.62617C11.2583 4.32839 10.7001 4.40484 10.4041 4.79506ZM14.2223 13.3333C14.2223 13.824 13.8232 14.2222 13.3334 14.2222H2.66672C2.17694 14.2222 1.77783 13.824 1.77783 13.3333V2.66666C1.77783 2.17599 2.17694 1.77777 2.66672 1.77777H13.3334C13.8232 1.77777 14.2223 2.17599 14.2223 2.66666V13.3333ZM13.3333 0H2.66667C1.19644 0 0 1.19644 0 2.66667V13.3333C0 14.8036 1.19644 16 2.66667 16H13.3333C14.8036 16 16 14.8036 16 13.3333V2.66667C16 1.19644 14.8036 0 13.3333 0Z"
          fill="#6C6C6C"/>
</svg>
