<svg width="16" height="16" viewBox="0 0 16 16" fill="none" xmlns="http://www.w3.org/2000/svg">
<path fill-rule="evenodd" clip-rule="evenodd" d="M10.4044 4.79523L7.0408 9.21212L5.58924 7.3579C5.28613 6.97034 4.72791 6.90279 4.34124 7.2059C3.95458 7.50812 3.88613 8.06723 4.18924 8.45301L6.35013 11.2148C6.51902 11.4299 6.7768 11.5552 7.05058 11.5552H7.0568C7.33147 11.5543 7.59102 11.4246 7.75724 11.205L11.8186 5.87168C12.1164 5.48056 12.0408 4.92412 11.6497 4.62634C11.2586 4.32856 10.7004 4.40501 10.4044 4.79523ZM14.2218 13.3332C14.2218 13.8239 13.8227 14.2221 13.3329 14.2221H2.66623C2.17645 14.2221 1.77734 13.8239 1.77734 13.3332V2.66655C1.77734 2.17588 2.17645 1.77766 2.66623 1.77766H13.3329C13.8227 1.77766 14.2218 2.17588 14.2218 2.66655V13.3332ZM13.3333 0H2.66667C1.19644 0 0 1.19644 0 2.66667V13.3333C0 14.8036 1.19644 16 2.66667 16H13.3333C14.8036 16 16 14.8036 16 13.3333V2.66667C16 1.19644 14.8036 0 13.3333 0Z" fill="#276899"/>
</svg>
