<svg width="24" height="24" viewBox="0 0 24 24" fill="none" xmlns="http://www.w3.org/2000/svg">
<path fill-rule="evenodd" clip-rule="evenodd" d="M2.885 11.5453C4.22412 12.0049 5.29085 13.1257 5.73722 14.5465L5.78522 14.6905C6.29639 16.1977 6.0888 17.8201 5.23206 19.0369C5.07607 19.2577 5.11086 19.5217 5.27525 19.6465L7.7615 21.5353C7.84909 21.6013 7.93429 21.6013 7.98708 21.5953C8.04708 21.5857 8.13467 21.5533 8.20547 21.4525L8.48265 21.0589C9.3094 19.8865 10.6413 19.1629 12.0476 19.1221C13.6267 19.0897 15.045 19.8133 15.9282 21.0889L16.0698 21.2941C16.1406 21.3949 16.227 21.4285 16.2882 21.4381C16.341 21.4489 16.4273 21.4453 16.5137 21.3781L18.9868 19.5121C19.1596 19.3825 19.198 19.1053 19.0696 18.9193L18.7576 18.4693C17.9537 17.3077 17.7149 15.8005 18.1192 14.4385C18.5584 12.9553 19.6755 11.7817 21.1095 11.3017L21.3506 11.2201C21.5438 11.1565 21.6482 10.9165 21.5798 10.6957L20.6355 7.67053C20.5911 7.52893 20.4999 7.46533 20.4495 7.43893C20.3775 7.40173 20.2995 7.39573 20.2251 7.42093L19.8171 7.55653C18.4216 8.02093 16.8821 7.76893 15.7002 6.87973L15.5706 6.78253C14.4475 5.93773 13.7791 4.57573 13.7839 3.14053L13.7863 2.80453C13.7863 2.64493 13.7107 2.54533 13.6651 2.49973C13.6219 2.45533 13.5487 2.40253 13.4455 2.40253L10.3893 2.39893C10.2021 2.39893 10.0498 2.57773 10.0486 2.79853L10.0474 3.08893C10.0414 4.54693 9.35859 5.93413 8.22107 6.80173L8.06628 6.91933C6.81476 7.87093 5.18286 8.13973 3.70455 7.63573C3.64816 7.61653 3.59536 7.62013 3.54496 7.64653C3.50656 7.66573 3.43697 7.71493 3.40337 7.82413L2.42303 10.9393C2.35224 11.1661 2.46863 11.4025 2.68822 11.4781L2.885 11.5453ZM7.93819 24C7.35503 24 6.78866 23.8104 6.31109 23.4468L3.82485 21.5592C2.63693 20.6592 2.37414 18.9276 3.23809 17.7C3.68686 17.064 3.77925 16.2468 3.51527 15.4716L3.44927 15.27C3.22969 14.5716 2.72812 14.0292 2.10776 13.8168H2.10656L1.91097 13.7484C0.449464 13.248 -0.330487 11.6988 0.133884 10.2204L1.11302 7.1064C1.33501 6.402 1.81378 5.8332 2.46174 5.5056C3.0953 5.1864 3.81165 5.1372 4.48121 5.3664C5.19996 5.6112 5.99791 5.478 6.61347 5.01L6.76826 4.8924C7.31543 4.4748 7.64541 3.7968 7.64781 3.0804L7.64901 2.7912C7.65501 1.2504 8.88493 0 10.3884 0H10.3932L13.4494 0.0036C14.1718 0.0048 14.8534 0.2904 15.3669 0.8076C15.8985 1.3416 16.1889 2.0556 16.1865 2.8176L16.1841 3.1524C16.1817 3.8316 16.4924 4.4736 17.0168 4.8672L17.1452 4.9644C17.696 5.3784 18.4135 5.4972 19.0579 5.2812L19.4647 5.1456C20.157 4.9152 20.8938 4.9716 21.5429 5.304C22.2089 5.6448 22.7009 6.2316 22.9264 6.9576L23.8708 9.9828C24.3268 11.4444 23.5372 13.0212 22.1129 13.4976L21.8717 13.578C21.1806 13.8108 20.637 14.3868 20.4198 15.1212C20.2206 15.7944 20.3358 16.5348 20.7306 17.1036L21.0426 17.5536C21.8993 18.792 21.6257 20.5296 20.433 21.4284L17.96 23.2956C17.366 23.7444 16.6376 23.9256 15.9069 23.8092C15.1701 23.6904 14.527 23.2824 14.0962 22.6608L13.9546 22.4544C13.5346 21.8496 12.8627 21.4824 12.1583 21.522C11.4528 21.5412 10.8432 21.876 10.4448 22.4424L10.1676 22.836C9.73328 23.4516 9.08892 23.8536 8.35576 23.9688C8.21537 23.9904 8.07618 24 7.93819 24ZM12.003 10.1997C11.0107 10.1997 10.2031 11.0073 10.2031 11.9997C10.2031 12.9921 11.0107 13.7997 12.003 13.7997C12.9953 13.7997 13.8029 12.9921 13.8029 11.9997C13.8029 11.0073 12.9953 10.1997 12.003 10.1997ZM12.0002 16.2004C9.68431 16.2004 7.80043 14.3164 7.80043 12.0004C7.80043 9.68443 9.68431 7.80043 12.0002 7.80043C14.316 7.80043 16.1999 9.68443 16.1999 12.0004C16.1999 14.3164 14.316 16.2004 12.0002 16.2004Z" fill="#276899"/>
</svg>
