<svg width="29" height="18" viewBox="0 0 29 18" fill="none" xmlns="http://www.w3.org/2000/svg">
<path fill-rule="evenodd" clip-rule="evenodd" d="M5.25896 2.94701C4.20922 2.79646 3.23325 3.5276 3.0827 4.57735C2.30705 9.98564 6.07615 15.0177 11.4852 15.7935C12.5342 15.9439 13.5109 15.2129 13.6614 14.1631C13.6731 14.0819 13.6794 14.0014 13.6805 13.9208L10.4098 12.6598C10.3239 12.779 10.23 12.9082 10.1439 13.0289C9.71878 13.6179 9.41085 14.0459 8.83007 13.7093C6.53174 12.5131 4.83943 10.2532 4.33057 7.68044C4.15165 7.06831 4.68681 6.8791 5.36507 6.64018C5.50284 6.5912 5.65159 6.53857 5.78768 6.49085L5.49686 2.99682C5.41708 2.97492 5.33875 2.95846 5.25896 2.94701ZM11.2752 17.2575C5.05874 16.366 0.727073 10.5838 1.61862 4.36737C1.88497 2.51019 3.61176 1.21659 5.46893 1.48294C5.65926 1.51024 5.84509 1.55332 6.02285 1.61094C6.19664 1.665 6.36875 1.73601 6.53437 1.82102C6.76041 1.93786 6.9111 2.16343 6.93219 2.41748L7.30821 6.92708C7.32941 7.17516 7.22375 7.41701 7.02684 7.57106C6.91237 7.66073 6.90986 7.66261 5.934 8.00752C6.44072 9.70438 7.53555 11.1606 8.99296 12.0943C9.59907 11.2541 9.60242 11.2516 9.72065 11.1669C9.92383 11.0212 10.1867 10.9909 10.4178 11.0779L14.6406 12.7063C14.8778 12.7978 15.052 13.0051 15.0999 13.2548C15.1351 13.4361 15.1549 13.6213 15.1586 13.8093C15.1634 13.9945 15.1526 14.1843 15.1255 14.3731C14.8592 16.2303 13.1316 17.5238 11.2752 17.2575Z" fill="#454D54"/>
<path d="M10.5 2C9.12149 2 8 3.11385 8 4.483C8 5.87087 9.13685 7 10.5342 7H12.1435C12.2898 7 12.4083 6.88224 12.4083 6.73702C12.4083 6.59179 12.2898 6.47403 12.1435 6.47403H10.5342C9.42885 6.47403 8.52957 5.58085 8.52957 4.483C8.52957 3.40389 9.41349 2.52597 10.5 2.52597C11.5865 2.52597 12.4704 3.40389 12.4704 4.483V5.02193C12.4704 5.22906 12.3008 5.39755 12.0922 5.39755C11.8837 5.39755 11.714 5.22906 11.714 5.02193V4.4132C11.714 3.69318 11.1242 3.1074 10.3993 3.1074C9.63697 3.1074 9.01682 3.72337 9.01682 4.4805C9.01682 5.23761 9.63699 5.85357 10.3993 5.85357H10.8205C10.9667 5.85357 11.0853 5.73581 11.0853 5.59058C11.0853 5.44536 10.9667 5.3276 10.8205 5.3276H10.3993C9.929 5.3276 9.54638 4.94759 9.54638 4.48047C9.54638 4.01339 9.929 3.63337 10.3993 3.63337C10.8322 3.63337 11.1844 3.98322 11.1844 4.4132V5.02193C11.1844 5.51908 11.5916 5.92352 12.0922 5.92352C12.5928 5.92352 13 5.51908 13 5.02193V4.483C13 3.11385 11.8785 2 10.5 2Z" fill="#454D54"/>
<path fill-rule="evenodd" clip-rule="evenodd" d="M14.6379 4.02928H25.1337C26.5579 4.02928 28.079 4.86118 28.0832 7.2069V14.3121C28.0832 16.6578 26.5579 17.4942 25.1337 17.4942H14.5V16.8104L25.0958 16.8214C25.4982 16.8229 25.8961 16.7314 26.263 16.5532L20.5747 10.1889L18.6281 11.5527H18.607C18.5651 11.5755 18.5191 11.5879 18.4722 11.5891C18.4253 11.5879 18.3792 11.5755 18.3374 11.5527H18.3163L16.3823 10.1889L14.7718 11.9895C14.6899 11.9267 14.6072 11.8635 14.5246 11.8004C14.4299 11.7281 14.3353 11.6558 14.2419 11.5842L15.843 9.7889L13.357 8.05238C12.3489 9.11401 10.923 9.57587 9.53955 9.28885V10.5011C9.52652 10.5004 9.51333 10.5 9.49996 10.5H8.99996C8.99996 10.5 8.96229 10.4981 8.90753 10.496V9.10253C7.37486 8.52412 6.26966 7.07104 6.04303 5.33639C5.70847 2.77576 7.36127 0.407363 9.73469 0.0464206C12.1081 -0.314521 14.3033 1.46865 14.6379 4.02928ZM25.1337 4.69753H14.6927C14.6876 5.71984 14.3707 6.71191 13.791 7.52051L16.4581 9.38432C16.5023 9.40023 16.5426 9.42665 16.5761 9.4616L18.4933 10.8254L26.5916 5.16575C26.1584 4.85959 25.6516 4.69684 25.1337 4.69753ZM10.3401 0.683524C8.2923 0.683524 6.63223 2.47454 6.63223 4.68389C6.63455 6.89221 8.29325 8.68175 10.3401 8.68425C12.3879 8.68425 14.048 6.89324 14.048 4.68389C14.048 2.47454 12.3879 0.683524 10.3401 0.683524ZM21.152 9.76617L26.8276 16.1304C27.2579 15.6428 27.4807 14.9841 27.4427 14.312V7.19321C27.4653 6.64503 27.3284 6.10294 27.0509 5.64307L21.152 9.76617Z" fill="#454D54"/>
</svg>
