<svg width="33" height="33" viewBox="0 0 33 33" fill="none" xmlns="http://www.w3.org/2000/svg">
<g filter="url(#filter0_d_3485)">
<mask id="path-1-inside-1_3485" fill="white">
<path fill-rule="evenodd" clip-rule="evenodd" d="M27.3857 26.6822C26.9177 24.99 25.2097 23.732 23.181 23.732C21.1486 23.732 19.438 24.9946 18.9738 26.6916C19.3043 27.0255 19.6772 27.3225 20.0874 27.5738C20.1136 26.0635 21.4913 24.8422 23.181 24.8422C24.868 24.8422 26.244 26.0596 26.2744 27.5665C26.6839 27.3145 27.056 27.0168 27.3857 26.6822ZM24.4184 20.6784C24.4184 19.9896 23.8633 19.4294 23.1808 19.4294C22.4983 19.4294 21.9432 19.9896 21.9432 20.6784C21.9432 21.3671 22.4983 21.9273 23.1808 21.9273C23.8633 21.9273 24.4184 21.3671 24.4184 20.6784ZM25.6567 20.6785C25.6567 22.056 24.5466 23.1763 23.1815 23.1763C21.8165 23.1763 20.7064 22.056 20.7064 20.6785C20.7064 19.3009 21.8165 18.1807 23.1815 18.1807C24.5466 18.1807 25.6567 19.3009 25.6567 20.6785Z"/>
</mask>
<path fill-rule="evenodd" clip-rule="evenodd" d="M27.3857 26.6822C26.9177 24.99 25.2097 23.732 23.181 23.732C21.1486 23.732 19.438 24.9946 18.9738 26.6916C19.3043 27.0255 19.6772 27.3225 20.0874 27.5738C20.1136 26.0635 21.4913 24.8422 23.181 24.8422C24.868 24.8422 26.244 26.0596 26.2744 27.5665C26.6839 27.3145 27.056 27.0168 27.3857 26.6822ZM24.4184 20.6784C24.4184 19.9896 23.8633 19.4294 23.1808 19.4294C22.4983 19.4294 21.9432 19.9896 21.9432 20.6784C21.9432 21.3671 22.4983 21.9273 23.1808 21.9273C23.8633 21.9273 24.4184 21.3671 24.4184 20.6784ZM25.6567 20.6785C25.6567 22.056 24.5466 23.1763 23.1815 23.1763C21.8165 23.1763 20.7064 22.056 20.7064 20.6785C20.7064 19.3009 21.8165 18.1807 23.1815 18.1807C24.5466 18.1807 25.6567 19.3009 25.6567 20.6785Z" fill="#276899"/>
<path d="M27.3857 26.6822L28.8102 28.0861L29.6213 27.2629L29.3133 26.1491L27.3857 26.6822ZM18.9738 26.6916L17.0446 26.1639L16.7399 27.2779L17.5524 28.0987L18.9738 26.6916ZM20.0874 27.5738L19.0429 29.2793L22.0266 31.1065L22.0871 27.6084L20.0874 27.5738ZM26.2744 27.5665L24.2748 27.6069L24.3454 31.1027L27.3229 29.2697L26.2744 27.5665ZM23.181 25.732C24.4197 25.732 25.2577 26.4908 25.458 27.2153L29.3133 26.1491C28.5777 23.4891 25.9997 21.732 23.181 21.732V25.732ZM20.9029 27.2194C21.1014 26.4936 21.9397 25.732 23.181 25.732V21.732C20.3574 21.732 17.7746 23.4957 17.0446 26.1639L20.9029 27.2194ZM17.5524 28.0987C17.995 28.5458 18.4942 28.9433 19.0429 29.2793L21.1319 25.8682C20.8602 25.7017 20.6136 25.5053 20.3951 25.2846L17.5524 28.0987ZM23.181 22.8422C20.6028 22.8422 18.1361 24.746 18.0877 27.5391L22.0871 27.6084C22.0895 27.4746 22.1491 27.3045 22.3351 27.14C22.5236 26.9733 22.8177 26.8422 23.181 26.8422V22.8422ZM28.274 27.5262C28.2178 24.7398 25.7555 22.8422 23.181 22.8422V26.8422C23.5437 26.8422 23.8374 26.9729 24.026 27.1392C24.2122 27.3034 24.2722 27.4735 24.2748 27.6069L28.274 27.5262ZM27.3229 29.2697C27.8706 28.9325 28.3687 28.534 28.8102 28.0861L25.9612 25.2784C25.7432 25.4995 25.4972 25.6964 25.226 25.8634L27.3229 29.2697ZM23.1808 21.4294C22.7416 21.4294 22.4184 21.0769 22.4184 20.6784H26.4184C26.4184 18.9022 24.985 17.4294 23.1808 17.4294V21.4294ZM23.9432 20.6784C23.9432 21.0769 23.62 21.4294 23.1808 21.4294V17.4294C21.3765 17.4294 19.9432 18.9022 19.9432 20.6784H23.9432ZM23.1808 19.9273C23.62 19.9273 23.9432 20.2798 23.9432 20.6784H19.9432C19.9432 22.4545 21.3765 23.9273 23.1808 23.9273V19.9273ZM22.4184 20.6784C22.4184 20.2798 22.7416 19.9273 23.1808 19.9273V23.9273C24.985 23.9273 26.4184 22.4545 26.4184 20.6784H22.4184ZM23.1815 25.1763C25.6683 25.1763 27.6567 23.1434 27.6567 20.6785H23.6567C23.6567 20.9687 23.4249 21.1763 23.1815 21.1763V25.1763ZM18.7064 20.6785C18.7064 23.1434 20.6948 25.1763 23.1815 25.1763V21.1763C22.9382 21.1763 22.7064 20.9687 22.7064 20.6785H18.7064ZM23.1815 16.1807C20.6948 16.1807 18.7064 18.2136 18.7064 20.6785H22.7064C22.7064 20.3883 22.9382 20.1807 23.1815 20.1807V16.1807ZM27.6567 20.6785C27.6567 18.2136 25.6683 16.1807 23.1815 16.1807V20.1807C23.4249 20.1807 23.6567 20.3883 23.6567 20.6785H27.6567Z" fill="#276899" mask="url(#path-1-inside-1_3485)"/>
<mask id="path-3-inside-2_3485" fill="white">
<path fill-rule="evenodd" clip-rule="evenodd" d="M13.251 26.6822C12.783 24.99 11.075 23.732 9.04636 23.732C7.01394 23.732 5.30337 24.9946 4.83911 26.6916C5.16966 27.0255 5.54255 27.3225 5.95279 27.5738C5.97895 26.0635 7.35665 24.8422 9.04636 24.8422C10.7334 24.8422 12.1094 26.0596 12.1398 27.5665C12.5493 27.3145 12.9213 27.0168 13.251 26.6822ZM10.2837 20.6784C10.2837 19.9896 9.72867 19.4294 9.04614 19.4294C8.36362 19.4294 7.80856 19.9896 7.80856 20.6784C7.80856 21.3671 8.36362 21.9273 9.04614 21.9273C9.72867 21.9273 10.2837 21.3671 10.2837 20.6784ZM11.5218 20.6785C11.5218 22.056 10.4117 23.1763 9.04665 23.1763C7.6816 23.1763 6.57149 22.056 6.57149 20.6785C6.57149 19.3009 7.6816 18.1807 9.04665 18.1807C10.4117 18.1807 11.5218 19.3009 11.5218 20.6785Z"/>
</mask>
<path fill-rule="evenodd" clip-rule="evenodd" d="M13.251 26.6822C12.783 24.99 11.075 23.732 9.04636 23.732C7.01394 23.732 5.30337 24.9946 4.83911 26.6916C5.16966 27.0255 5.54255 27.3225 5.95279 27.5738C5.97895 26.0635 7.35665 24.8422 9.04636 24.8422C10.7334 24.8422 12.1094 26.0596 12.1398 27.5665C12.5493 27.3145 12.9213 27.0168 13.251 26.6822ZM10.2837 20.6784C10.2837 19.9896 9.72867 19.4294 9.04614 19.4294C8.36362 19.4294 7.80856 19.9896 7.80856 20.6784C7.80856 21.3671 8.36362 21.9273 9.04614 21.9273C9.72867 21.9273 10.2837 21.3671 10.2837 20.6784ZM11.5218 20.6785C11.5218 22.056 10.4117 23.1763 9.04665 23.1763C7.6816 23.1763 6.57149 22.056 6.57149 20.6785C6.57149 19.3009 7.6816 18.1807 9.04665 18.1807C10.4117 18.1807 11.5218 19.3009 11.5218 20.6785Z" fill="#276899"/>
<path d="M13.251 26.6822L14.6755 28.0861L15.4867 27.2629L15.1787 26.1491L13.251 26.6822ZM4.83911 26.6916L2.91 26.1639L2.60524 27.2779L3.41775 28.0987L4.83911 26.6916ZM5.95279 27.5738L4.90829 29.2793L7.89192 31.1065L7.95249 27.6084L5.95279 27.5738ZM12.1398 27.5665L10.1402 27.6069L10.2107 31.1027L13.1883 29.2697L12.1398 27.5665ZM9.04636 25.732C10.2851 25.732 11.123 26.4908 11.3234 27.2153L15.1787 26.1491C14.4431 23.4891 11.865 21.732 9.04636 21.732V25.732ZM6.76822 27.2194C6.96677 26.4936 7.8051 25.732 9.04636 25.732V21.732C6.22277 21.732 3.63996 23.4957 2.91 26.1639L6.76822 27.2194ZM3.41775 28.0987C3.86036 28.5458 4.35956 28.9433 4.90829 29.2793L6.9973 25.8682C6.72554 25.7017 6.47896 25.5053 6.26048 25.2846L3.41775 28.0987ZM9.04636 22.8422C6.46817 22.8422 4.00146 24.746 3.95309 27.5391L7.95249 27.6084C7.95481 27.4746 8.01443 27.3045 8.20044 27.14C8.389 26.9733 8.68309 26.8422 9.04636 26.8422V22.8422ZM14.1394 27.5262C14.0832 24.7398 11.6208 22.8422 9.04636 22.8422V26.8422C9.40905 26.8422 9.70279 26.9729 9.8914 27.1392C10.0776 27.3034 10.1375 27.4735 10.1402 27.6069L14.1394 27.5262ZM13.1883 29.2697C13.736 28.9325 14.2341 28.534 14.6755 28.0861L11.8265 25.2784C11.6086 25.4995 11.3626 25.6964 11.0913 25.8634L13.1883 29.2697ZM9.04614 21.4294C8.60695 21.4294 8.28372 21.0769 8.28372 20.6784H12.2837C12.2837 18.9022 10.8504 17.4294 9.04614 17.4294V21.4294ZM9.80856 20.6784C9.80856 21.0769 9.48534 21.4294 9.04614 21.4294V17.4294C7.2419 17.4294 5.80856 18.9022 5.80856 20.6784H9.80856ZM9.04614 19.9273C9.48534 19.9273 9.80856 20.2798 9.80856 20.6784H5.80856C5.80856 22.4545 7.2419 23.9273 9.04614 23.9273V19.9273ZM8.28372 20.6784C8.28372 20.2798 8.60695 19.9273 9.04614 19.9273V23.9273C10.8504 23.9273 12.2837 22.4545 12.2837 20.6784H8.28372ZM9.04665 25.1763C11.5334 25.1763 13.5218 23.1434 13.5218 20.6785H9.52181C9.52181 20.9687 9.28998 21.1763 9.04665 21.1763V25.1763ZM4.57149 20.6785C4.57149 23.1434 6.55988 25.1763 9.04665 25.1763V21.1763C8.80333 21.1763 8.57149 20.9687 8.57149 20.6785H4.57149ZM9.04665 16.1807C6.55988 16.1807 4.57149 18.2136 4.57149 20.6785H8.57149C8.57149 20.3883 8.80333 20.1807 9.04665 20.1807V16.1807ZM13.5218 20.6785C13.5218 18.2136 11.5334 16.1807 9.04665 16.1807V20.1807C9.28998 20.1807 9.52181 20.3883 9.52181 20.6785H13.5218Z" fill="#276899" mask="url(#path-3-inside-2_3485)"/>
<path d="M8.21406 14.5889C8.68671 14.3077 9.27536 14.3077 9.74802 14.5889L14.6598 17.5113C15.1143 17.7818 15.3928 18.2715 15.3928 18.8004V24.7506C15.3928 25.2795 15.1143 25.7693 14.6598 26.0397L9.74802 28.9621C9.27536 29.2433 8.68671 29.2433 8.21406 28.9621L3.30228 26.0397C2.84777 25.7693 2.56926 25.2795 2.56926 24.7506V18.8004C2.56926 18.2715 2.84777 17.7818 3.30228 17.5113L8.21406 14.5889Z" stroke="#276899"/>
<mask id="path-6-inside-3_3485" fill="white">
<path fill-rule="evenodd" clip-rule="evenodd" d="M20.2988 14.0637C19.8045 12.4057 18.1151 11.1812 16.1136 11.1812C14.1084 11.1812 12.4165 12.4102 11.9257 14.0729C12.2522 14.3997 12.6195 14.6906 13.0229 14.9373C13.0985 13.4668 14.4559 12.2914 16.1136 12.2914C17.7686 12.2914 19.1243 13.4631 19.2038 14.9303C19.6065 14.6828 19.973 14.3912 20.2988 14.0637ZM11.8734 15.3572C11.9767 15.4373 12.0825 15.5146 12.1908 15.589C12.0579 15.5461 11.9463 15.4635 11.8734 15.3572ZM20.0151 15.5955C20.1351 15.5133 20.2522 15.4275 20.3661 15.3384C20.2902 15.4595 20.1651 15.5525 20.0151 15.5955ZM17.3509 8.12758C17.3509 7.43881 16.7959 6.87867 16.1134 6.87867C15.4308 6.87867 14.8758 7.43881 14.8758 8.12758C14.8758 8.81636 15.4308 9.3765 16.1134 9.3765C16.7959 9.3765 17.3509 8.81636 17.3509 8.12758ZM18.5891 8.12771C18.5891 9.50527 17.479 10.6255 16.114 10.6255C14.7489 10.6255 13.6388 9.50527 13.6388 8.12771C13.6388 6.75016 14.7489 5.62988 16.114 5.62988C17.479 5.62988 18.5891 6.75016 18.5891 8.12771Z"/>
</mask>
<path fill-rule="evenodd" clip-rule="evenodd" d="M20.2988 14.0637C19.8045 12.4057 18.1151 11.1812 16.1136 11.1812C14.1084 11.1812 12.4165 12.4102 11.9257 14.0729C12.2522 14.3997 12.6195 14.6906 13.0229 14.9373C13.0985 13.4668 14.4559 12.2914 16.1136 12.2914C17.7686 12.2914 19.1243 13.4631 19.2038 14.9303C19.6065 14.6828 19.973 14.3912 20.2988 14.0637ZM11.8734 15.3572C11.9767 15.4373 12.0825 15.5146 12.1908 15.589C12.0579 15.5461 11.9463 15.4635 11.8734 15.3572ZM20.0151 15.5955C20.1351 15.5133 20.2522 15.4275 20.3661 15.3384C20.2902 15.4595 20.1651 15.5525 20.0151 15.5955ZM17.3509 8.12758C17.3509 7.43881 16.7959 6.87867 16.1134 6.87867C15.4308 6.87867 14.8758 7.43881 14.8758 8.12758C14.8758 8.81636 15.4308 9.3765 16.1134 9.3765C16.7959 9.3765 17.3509 8.81636 17.3509 8.12758ZM18.5891 8.12771C18.5891 9.50527 17.479 10.6255 16.114 10.6255C14.7489 10.6255 13.6388 9.50527 13.6388 8.12771C13.6388 6.75016 14.7489 5.62988 16.114 5.62988C17.479 5.62988 18.5891 6.75016 18.5891 8.12771Z" fill="#276899"/>
<path d="M20.2988 14.0637L21.7167 15.4742L22.555 14.6315L22.2154 13.4923L20.2988 14.0637ZM11.9257 14.0729L10.0075 13.5066L9.67112 14.646L10.5108 15.4864L11.9257 14.0729ZM13.0229 14.9373L11.9794 16.6435L14.8477 18.3978L15.0203 15.04L13.0229 14.9373ZM19.2038 14.9303L17.2068 15.0386L17.3887 18.3938L20.2512 16.6341L19.2038 14.9303ZM11.8734 15.3572L13.0984 13.7763L10.224 16.4883L11.8734 15.3572ZM12.1908 15.589L11.5755 17.492L13.3239 13.941L12.1908 15.589ZM20.0151 15.5955L18.8847 13.9456L20.5662 17.5181L20.0151 15.5955ZM20.3661 15.3384L22.0608 16.4005L19.1341 13.7629L20.3661 15.3384ZM16.1136 13.1812C17.3337 13.1812 18.1688 13.9197 18.3822 14.6351L22.2154 13.4923C21.4401 10.8918 18.8964 9.18123 16.1136 9.18123V13.1812ZM13.8438 14.6391C14.0554 13.9224 14.8909 13.1812 16.1136 13.1812V9.18123C13.3259 9.18123 10.7776 10.8981 10.0075 13.5066L13.8438 14.6391ZM10.5108 15.4864C10.9481 15.9241 11.4398 16.3135 11.9794 16.6435L14.0664 13.2311C13.7992 13.0677 13.5563 12.8753 13.3405 12.6593L10.5108 15.4864ZM16.1136 10.2914C13.5797 10.2914 11.165 12.1223 11.0256 14.8347L15.0203 15.04C15.0321 14.8113 15.3321 14.2914 16.1136 14.2914V10.2914ZM21.2009 14.8221C21.0542 12.1164 18.6438 10.2914 16.1136 10.2914V14.2914C16.8934 14.2914 17.1944 14.8098 17.2068 15.0386L21.2009 14.8221ZM20.2512 16.6341C20.7898 16.3031 21.2805 15.9127 21.7167 15.4742L18.8809 12.6532C18.6656 12.8696 18.4232 13.0625 18.1565 13.2265L20.2512 16.6341ZM10.6484 16.9382C10.7816 17.0414 10.9181 17.1411 11.0577 17.2371L13.3239 13.941C13.2469 13.8881 13.1718 13.8331 13.0984 13.7763L10.6484 16.9382ZM12.8061 13.686C13.0696 13.7712 13.3318 13.9475 13.5229 14.2262L10.224 16.4883C10.5608 16.9795 11.0463 17.3209 11.5755 17.492L12.8061 13.686ZM21.1454 17.2454C21.3003 17.1394 21.4512 17.0288 21.598 16.914L19.1341 13.7629C19.0532 13.8262 18.97 13.8871 18.8847 13.9456L21.1454 17.2454ZM18.6713 14.2764C18.874 13.9531 19.1705 13.7571 19.4639 13.673L20.5662 17.5181C21.1598 17.3479 21.7064 16.966 22.0608 16.4005L18.6713 14.2764ZM16.1134 8.87867C15.6742 8.87867 15.3509 8.52614 15.3509 8.12758H19.3509C19.3509 6.35147 17.9176 4.87867 16.1134 4.87867V8.87867ZM16.8758 8.12758C16.8758 8.52615 16.5525 8.87867 16.1134 8.87867V4.87867C14.3091 4.87867 12.8758 6.35147 12.8758 8.12758H16.8758ZM16.1134 7.3765C16.5525 7.3765 16.8758 7.72902 16.8758 8.12758H12.8758C12.8758 9.9037 14.3091 11.3765 16.1134 11.3765V7.3765ZM15.3509 8.12758C15.3509 7.72902 15.6742 7.3765 16.1134 7.3765V11.3765C17.9176 11.3765 19.3509 9.9037 19.3509 8.12758H15.3509ZM16.114 12.6255C18.6008 12.6255 20.5891 10.5926 20.5891 8.12771H16.5891C16.5891 8.41793 16.3573 8.62554 16.114 8.62554V12.6255ZM11.6388 8.12771C11.6388 10.5926 13.6272 12.6255 16.114 12.6255V8.62554C15.8706 8.62554 15.6388 8.41793 15.6388 8.12771H11.6388ZM16.114 3.62988C13.6272 3.62988 11.6388 5.66282 11.6388 8.12771H15.6388C15.6388 7.8375 15.8706 7.62988 16.114 7.62988V3.62988ZM20.5891 8.12771C20.5891 5.66282 18.6008 3.62988 16.114 3.62988V7.62988C16.3573 7.62988 16.5891 7.8375 16.5891 8.12771H20.5891Z" fill="#276899" mask="url(#path-6-inside-3_3485)"/>
<path d="M15.2813 2.03814C15.754 1.75693 16.3426 1.75693 16.8153 2.03814L21.7271 4.96055C22.1816 5.23098 22.4601 5.72077 22.4601 6.24964V12.1998C22.4601 12.7287 22.1816 13.2185 21.7271 13.4889L16.8153 16.4113C16.3426 16.6925 15.754 16.6925 15.2813 16.4113L10.3695 13.4889C9.91503 13.2185 9.63652 12.7287 9.63652 12.1998V6.24964C9.63652 5.72077 9.91503 5.23098 10.3695 4.96055L15.2813 2.03814Z" stroke="#276899"/>
<path d="M22.3485 14.5889C22.8211 14.3077 23.4098 14.3077 23.8824 14.5889L28.7942 17.5113C29.2487 17.7818 29.5272 18.2715 29.5272 18.8004V24.7506C29.5272 25.2795 29.2487 25.7693 28.7942 26.0397L23.8824 28.9621C23.4098 29.2433 22.8211 29.2433 22.3485 28.9621L17.4367 26.0397C16.9822 25.7693 16.7037 25.2795 16.7037 24.7506V18.8004C16.7037 18.2715 16.9822 17.7818 17.4367 17.5113L22.3485 14.5889Z" stroke="#276899"/>
</g>
<defs>
<filter id="filter0_d_3485" x="0.0692139" y="0.327148" width="31.958" height="32.3457" filterUnits="userSpaceOnUse" color-interpolation-filters="sRGB">
<feFlood flood-opacity="0" result="BackgroundImageFix"/>
<feColorMatrix in="SourceAlpha" type="matrix" values="0 0 0 0 0 0 0 0 0 0 0 0 0 0 0 0 0 0 127 0" result="hardAlpha"/>
<feOffset dy="1"/>
<feGaussianBlur stdDeviation="1"/>
<feComposite in2="hardAlpha" operator="out"/>
<feColorMatrix type="matrix" values="0 0 0 0 0 0 0 0 0 0 0 0 0 0 0 0 0 0 0.25 0"/>
<feBlend mode="normal" in2="BackgroundImageFix" result="effect1_dropShadow_3485"/>
<feBlend mode="normal" in="SourceGraphic" in2="effect1_dropShadow_3485" result="shape"/>
</filter>
</defs>
</svg>
