<svg width="45" height="58" viewBox="0 0 45 58" fill="none" xmlns="http://www.w3.org/2000/svg">
<path d="M8.63837 37.7892L15.1173 44.2069L21.6096 37.7759L17.5903 37.78L17.5956 32.7129L12.4802 32.7181L12.4749 37.7852L8.63837 37.7892Z" fill="#276899"/>
<path d="M10.412 47.0793C11.024 47.0793 11.508 47.2333 11.864 47.5413C12.22 47.8453 12.398 48.2813 12.398 48.8493H11.132C11.132 48.6093 11.068 48.4193 10.94 48.2793C10.816 48.1393 10.638 48.0693 10.406 48.0693C10.138 48.0693 9.94 48.1533 9.812 48.3213C9.688 48.4893 9.626 48.7233 9.626 49.0233V49.4073C9.626 49.7033 9.688 49.9373 9.812 50.1093C9.94 50.2773 10.134 50.3613 10.394 50.3613C10.65 50.3613 10.844 50.2953 10.976 50.1633C11.108 50.0313 11.174 49.8453 11.174 49.6053H12.398C12.398 50.1693 12.224 50.6013 11.876 50.9013C11.532 51.2013 11.044 51.3513 10.412 51.3513C9.708 51.3513 9.174 51.1713 8.81 50.8113C8.45 50.4513 8.27 49.9193 8.27 49.2153C8.27 48.5113 8.45 47.9793 8.81 47.6193C9.174 47.2593 9.708 47.0793 10.412 47.0793ZM14.8479 47.0793C15.3759 47.0793 15.8099 47.1873 16.1499 47.4033C16.4899 47.6153 16.6639 47.9313 16.6719 48.3513V48.4233H15.4299V48.3993C15.4299 48.2793 15.3859 48.1793 15.2979 48.0993C15.2099 48.0193 15.0759 47.9793 14.8959 47.9793C14.7199 47.9793 14.5839 48.0053 14.4879 48.0573C14.3959 48.1093 14.3499 48.1733 14.3499 48.2493C14.3499 48.3573 14.4139 48.4373 14.5419 48.4893C14.6699 48.5413 14.8759 48.5953 15.1599 48.6513C15.4919 48.7193 15.7639 48.7913 15.9759 48.8673C16.1919 48.9393 16.3799 49.0593 16.5399 49.2273C16.6999 49.3953 16.7819 49.6233 16.7859 49.9113C16.7859 50.3993 16.6199 50.7613 16.2879 50.9973C15.9599 51.2333 15.5199 51.3513 14.9679 51.3513C14.3239 51.3513 13.8219 51.2433 13.4619 51.0273C13.1059 50.8113 12.9279 50.4293 12.9279 49.8813H14.1819C14.1819 50.0893 14.2359 50.2293 14.3439 50.3013C14.4519 50.3693 14.6199 50.4033 14.8479 50.4033C15.0159 50.4033 15.1539 50.3853 15.2619 50.3493C15.3739 50.3133 15.4299 50.2393 15.4299 50.1273C15.4299 50.0273 15.3679 49.9533 15.2439 49.9053C15.1239 49.8533 14.9259 49.7993 14.6499 49.7433C14.3139 49.6713 14.0359 49.5973 13.8159 49.5213C13.5959 49.4413 13.4039 49.3113 13.2399 49.1313C13.0759 48.9513 12.9939 48.7073 12.9939 48.3993C12.9939 47.9473 13.1679 47.6153 13.5159 47.4033C13.8679 47.1873 14.3119 47.0793 14.8479 47.0793ZM18.566 51.2793L17.102 47.1513H18.518L19.346 49.9113H19.37L20.204 47.1513H21.56L20.102 51.2793H18.566Z" fill="#276899"/>
<path d="M16.7154 2H38.0004V0H16.7154V2ZM43.0004 7V45.9621H45.0004V7H43.0004ZM43.0004 45.9621C43.0004 46.7877 42.3311 47.457 41.5055 47.457V49.457C43.4357 49.457 45.0004 47.8923 45.0004 45.9621H43.0004ZM38.0004 2C40.7618 2 43.0004 4.23858 43.0004 7H45.0004C45.0004 3.13401 41.8664 0 38.0004 0V2ZM14.7051 4.01033C14.7051 2.90006 15.6051 2 16.7154 2V0C14.5006 0 12.7051 1.79549 12.7051 4.01033H14.7051Z" fill="#515960"/>
<path d="M9.69299 8.64648H31.1586V6.64648H9.69299V8.64648ZM36.1586 13.6465V49.7612H38.1586V13.6465H36.1586ZM36.1586 49.7612C36.1586 50.5868 35.4893 51.2561 34.6637 51.2561V53.2561C36.5939 53.2561 38.1586 51.6913 38.1586 49.7612H36.1586ZM31.1586 8.64648C33.92 8.64648 36.1586 10.8851 36.1586 13.6465H38.1586C38.1586 9.78049 35.0246 6.64648 31.1586 6.64648V8.64648ZM7.86328 10.4762C7.86328 9.46567 8.68247 8.64648 9.69299 8.64648V6.64648C7.5779 6.64648 5.86328 8.3611 5.86328 10.4762H7.86328Z" fill="#515960"/>
<path d="M4 56.9984H28.2953C29.9522 56.9984 31.2953 55.6553 31.2953 53.9984V29.8804C31.2953 28.5286 30.7479 27.2343 29.7779 26.2927L18.8649 15.6994C17.9319 14.7937 16.6827 14.2871 15.3823 14.2871H4C2.34315 14.2871 1 15.6303 1 17.2871V53.9984C1 55.6553 2.34315 56.9984 4 56.9984Z" stroke="#515960" stroke-width="2"/>
<path d="M16.6367 14.2871V27.5242C16.6367 28.0765 17.0844 28.5242 17.6367 28.5242H31.2958" stroke="#515960" stroke-width="2"/>
</svg>
