<svg width="32" height="40" viewBox="0 0 32 40" fill="none" xmlns="http://www.w3.org/2000/svg">
<path d="M7.31126 25.7147L11.7356 30.0697L16.169 25.7057L13.4244 25.7085L13.428 22.27L9.93477 22.2735L9.93117 25.712L7.31126 25.7147Z" fill="#276899"/>
<path d="M7.412 31.8C8.024 31.8 8.508 31.954 8.864 32.262C9.22 32.566 9.398 33.002 9.398 33.57H8.132C8.132 33.33 8.068 33.14 7.94 33C7.816 32.86 7.638 32.79 7.406 32.79C7.138 32.79 6.94 32.874 6.812 33.042C6.688 33.21 6.626 33.444 6.626 33.744V34.128C6.626 34.424 6.688 34.658 6.812 34.83C6.94 34.998 7.134 35.082 7.394 35.082C7.65 35.082 7.844 35.016 7.976 34.884C8.108 34.752 8.174 34.566 8.174 34.326H9.398C9.398 34.89 9.224 35.322 8.876 35.622C8.532 35.922 8.044 36.072 7.412 36.072C6.708 36.072 6.174 35.892 5.81 35.532C5.45 35.172 5.27 34.64 5.27 33.936C5.27 33.232 5.45 32.7 5.81 32.34C6.174 31.98 6.708 31.8 7.412 31.8ZM11.8479 31.8C12.3759 31.8 12.8099 31.908 13.1499 32.124C13.4899 32.336 13.6639 32.652 13.6719 33.072V33.144H12.4299V33.12C12.4299 33 12.3859 32.9 12.2979 32.82C12.2099 32.74 12.0759 32.7 11.8959 32.7C11.7199 32.7 11.5839 32.726 11.4879 32.778C11.3959 32.83 11.3499 32.894 11.3499 32.97C11.3499 33.078 11.4139 33.158 11.5419 33.21C11.6699 33.262 11.8759 33.316 12.1599 33.372C12.4919 33.44 12.7639 33.512 12.9759 33.588C13.1919 33.66 13.3799 33.78 13.5399 33.948C13.6999 34.116 13.7819 34.344 13.7859 34.632C13.7859 35.12 13.6199 35.482 13.2879 35.718C12.9599 35.954 12.5199 36.072 11.9679 36.072C11.3239 36.072 10.8219 35.964 10.4619 35.748C10.1059 35.532 9.92792 35.15 9.92792 34.602H11.1819C11.1819 34.81 11.2359 34.95 11.3439 35.022C11.4519 35.09 11.6199 35.124 11.8479 35.124C12.0159 35.124 12.1539 35.106 12.2619 35.07C12.3739 35.034 12.4299 34.96 12.4299 34.848C12.4299 34.748 12.3679 34.674 12.2439 34.626C12.1239 34.574 11.9259 34.52 11.6499 34.464C11.3139 34.392 11.0359 34.318 10.8159 34.242C10.5959 34.162 10.4039 34.032 10.2399 33.852C10.0759 33.672 9.99392 33.428 9.99392 33.12C9.99392 32.668 10.1679 32.336 10.5159 32.124C10.8679 31.908 11.3119 31.8 11.8479 31.8ZM15.566 36L14.102 31.872H15.518L16.346 34.632H16.37L17.204 31.872H18.56L17.102 36H15.566Z" fill="#276899"/>
<path d="M12.0372 2H24.6825V0H12.0372V2ZM29.6825 7V31.5H31.6825V7H29.6825ZM29.6825 31.5C29.6825 31.8886 29.3674 32.2037 28.9788 32.2037V34.2037C30.472 34.2037 31.6825 32.9932 31.6825 31.5H29.6825ZM24.6825 2C27.4439 2 29.6825 4.23858 29.6825 7H31.6825C31.6825 3.13401 28.5485 0 24.6825 0V2ZM10.9944 3.04277C10.9944 2.46686 11.4612 2 12.0372 2V0C10.3567 0 8.99438 1.3623 8.99438 3.04277H10.9944Z" fill="#515960"/>
<path d="M7.24271 6.50879H20.0106V4.50879H7.24271V6.50879ZM25.0106 11.5088V34.0765H27.0106V11.5088H25.0106ZM25.0106 34.0765C25.0106 34.4652 24.6956 34.7803 24.3069 34.7803V36.7803C25.8001 36.7803 27.0106 35.5698 27.0106 34.0765H25.0106ZM20.0106 6.50879C22.7721 6.50879 25.0106 8.74737 25.0106 11.5088H27.0106C27.0106 7.64279 23.8766 4.50879 20.0106 4.50879V6.50879ZM6.32251 7.42899C6.32251 6.92078 6.7345 6.50879 7.24271 6.50879V4.50879C5.62993 4.50879 4.32251 5.81621 4.32251 7.42899H6.32251Z" fill="#515960"/>
<path d="M4.31836 38.9999H19.0065C20.6633 38.9999 22.0065 37.6568 22.0065 35.9999V21.287C22.0065 19.9297 21.4547 18.6307 20.4777 17.6884L13.9772 11.4179C13.0452 10.519 11.8008 10.0166 10.5059 10.0166H4.31836C2.6615 10.0166 1.31836 11.3597 1.31836 13.0166V35.9999C1.31836 37.6568 2.66151 38.9999 4.31836 38.9999Z" stroke="#515960" stroke-width="2"/>
<path d="M11.9958 10.0166V18.6777C11.9958 19.23 12.4436 19.6777 12.9958 19.6777H22.0062" stroke="#515960" stroke-width="2"/>
</svg>
