<svg width="75" height="74" viewBox="0 0 75 74" fill="none" xmlns="http://www.w3.org/2000/svg">
<rect x="0.5" width="74" height="74" rx="37" fill="#EB5545"/>
<path d="M36.842 29.0001C29.4768 29.0177 22.4455 30.5998 18.8772 34.1681C17.26 35.7853 16.4338 37.7365 16.5041 40.0919C16.5569 41.4103 16.926 42.7462 17.7698 43.59C18.3498 44.1876 19.176 44.5216 20.1955 44.3458L26.6819 43.2384C27.5432 43.0802 28.1936 42.799 28.6506 42.3595C29.2131 41.8322 29.4241 40.9884 29.4241 39.8458L29.4592 38.0705C29.4592 37.7892 29.5647 37.5783 29.7405 37.4025C29.8987 37.2091 30.1448 37.1212 30.3381 37.0685C31.4631 36.7697 33.8713 36.4533 36.842 36.4533C39.8127 36.4533 42.2034 36.6994 43.3459 37.0861C43.5393 37.1388 43.7502 37.2443 43.9084 37.4025C44.0842 37.5607 44.1721 37.754 44.1721 38.0177L44.2248 39.8458C44.26 40.9884 44.4885 41.8146 45.0334 42.3595C45.4905 42.8165 46.1409 43.0802 47.0198 43.2384L53.3127 44.3107C54.385 44.504 55.2639 44.1349 55.9319 43.4845C56.7053 42.6935 57.1623 41.463 57.1799 40.0216C57.2151 37.6662 56.3186 35.7326 54.7366 34.1681C51.1682 30.5998 44.2073 28.9826 36.842 29.0001Z" fill="white"/>
</svg>
