<svg width="31" height="29" viewBox="0 0 31 29" fill="none" xmlns="http://www.w3.org/2000/svg">
<mask id="path-1-inside-1" fill="white">
<path fill-rule="evenodd" clip-rule="evenodd" d="M26.3846 25.6832C25.9166 23.9909 24.2086 22.733 22.1799 22.733C20.1475 22.733 18.4369 23.9956 17.9727 25.6926C18.3032 26.0265 18.6761 26.3235 19.0863 26.5747C19.1125 25.0645 20.4902 23.8431 22.1799 23.8431C23.8669 23.8431 25.2429 25.0606 25.2733 26.5675C25.6828 26.3154 26.0549 26.0177 26.3846 25.6832ZM23.4173 19.6793C23.4173 18.9906 22.8622 18.4304 22.1797 18.4304C21.4972 18.4304 20.9421 18.9906 20.9421 19.6793C20.9421 20.3681 21.4972 20.9283 22.1797 20.9283C22.8622 20.9283 23.4173 20.3681 23.4173 19.6793ZM24.6556 19.6795C24.6556 21.057 23.5455 22.1773 22.1804 22.1773C20.8154 22.1773 19.7053 21.057 19.7053 19.6795C19.7053 18.3019 20.8154 17.1816 22.1804 17.1816C23.5455 17.1816 24.6556 18.3019 24.6556 19.6795Z"/>
</mask>
<path fill-rule="evenodd" clip-rule="evenodd" d="M26.3846 25.6832C25.9166 23.9909 24.2086 22.733 22.1799 22.733C20.1475 22.733 18.4369 23.9956 17.9727 25.6926C18.3032 26.0265 18.6761 26.3235 19.0863 26.5747C19.1125 25.0645 20.4902 23.8431 22.1799 23.8431C23.8669 23.8431 25.2429 25.0606 25.2733 26.5675C25.6828 26.3154 26.0549 26.0177 26.3846 25.6832ZM23.4173 19.6793C23.4173 18.9906 22.8622 18.4304 22.1797 18.4304C21.4972 18.4304 20.9421 18.9906 20.9421 19.6793C20.9421 20.3681 21.4972 20.9283 22.1797 20.9283C22.8622 20.9283 23.4173 20.3681 23.4173 19.6793ZM24.6556 19.6795C24.6556 21.057 23.5455 22.1773 22.1804 22.1773C20.8154 22.1773 19.7053 21.057 19.7053 19.6795C19.7053 18.3019 20.8154 17.1816 22.1804 17.1816C23.5455 17.1816 24.6556 18.3019 24.6556 19.6795Z" fill="#276899"/>
<path d="M26.3846 25.6832L27.8091 27.087L28.6202 26.2639L28.3122 25.1501L26.3846 25.6832ZM17.9727 25.6926L16.0435 25.1648L15.7388 26.2788L16.5513 27.0996L17.9727 25.6926ZM19.0863 26.5747L18.0418 28.2803L21.0255 30.1075L21.086 26.6094L19.0863 26.5747ZM25.2733 26.5675L23.2737 26.6079L23.3443 30.1036L26.3218 28.2707L25.2733 26.5675ZM22.1799 24.733C23.4186 24.733 24.2566 25.4918 24.4569 26.2163L28.3122 25.1501C27.5766 22.4901 24.9986 20.733 22.1799 20.733V24.733ZM19.9018 26.2204C20.1003 25.4946 20.9386 24.733 22.1799 24.733V20.733C19.3563 20.733 16.7735 22.4966 16.0435 25.1648L19.9018 26.2204ZM16.5513 27.0996C16.9939 27.5468 17.4931 27.9443 18.0418 28.2803L20.1308 24.8691C19.8591 24.7027 19.6125 24.5063 19.394 24.2856L16.5513 27.0996ZM22.1799 21.8431C19.6017 21.8431 17.135 23.747 17.0866 26.5401L21.086 26.6094C21.0884 26.4756 21.148 26.3054 21.334 26.141C21.5225 25.9743 21.8166 25.8431 22.1799 25.8431V21.8431ZM27.2729 26.5272C27.2167 23.7408 24.7544 21.8431 22.1799 21.8431V25.8431C22.5426 25.8431 22.8363 25.9739 23.0249 26.1402C23.2111 26.3044 23.2711 26.4744 23.2737 26.6079L27.2729 26.5272ZM26.3218 28.2707C26.8695 27.9335 27.3676 27.535 27.8091 27.087L24.9601 24.2794C24.7421 24.5005 24.4961 24.6974 24.2249 24.8644L26.3218 28.2707ZM22.1797 20.4304C21.7405 20.4304 21.4173 20.0779 21.4173 19.6793H25.4173C25.4173 17.9032 23.9839 16.4304 22.1797 16.4304V20.4304ZM22.9421 19.6793C22.9421 20.0779 22.6189 20.4304 22.1797 20.4304V16.4304C20.3754 16.4304 18.9421 17.9032 18.9421 19.6793H22.9421ZM22.1797 18.9283C22.6189 18.9283 22.9421 19.2808 22.9421 19.6793H18.9421C18.9421 21.4555 20.3754 22.9283 22.1797 22.9283V18.9283ZM21.4173 19.6793C21.4173 19.2808 21.7405 18.9283 22.1797 18.9283V22.9283C23.9839 22.9283 25.4173 21.4555 25.4173 19.6793H21.4173ZM22.1804 24.1773C24.6672 24.1773 26.6556 22.1444 26.6556 19.6795H22.6556C22.6556 19.9697 22.4238 20.1773 22.1804 20.1773V24.1773ZM17.7053 19.6795C17.7053 22.1444 19.6937 24.1773 22.1804 24.1773V20.1773C21.9371 20.1773 21.7053 19.9697 21.7053 19.6795H17.7053ZM22.1804 15.1816C19.6937 15.1816 17.7053 17.2146 17.7053 19.6795H21.7053C21.7053 19.3893 21.9371 19.1816 22.1804 19.1816V15.1816ZM26.6556 19.6795C26.6556 17.2146 24.6672 15.1816 22.1804 15.1816V19.1816C22.4238 19.1816 22.6556 19.3893 22.6556 19.6795H26.6556Z" fill="#276899" mask="url(#path-1-inside-1)"/>
<mask id="path-3-inside-2" fill="white">
<path fill-rule="evenodd" clip-rule="evenodd" d="M12.2518 25.6832C11.7838 23.9909 10.0758 22.733 8.0471 22.733C6.01467 22.733 4.3041 23.9956 3.83984 25.6926C4.17039 26.0265 4.54328 26.3235 4.95353 26.5747C4.97968 25.0645 6.35738 23.8431 8.0471 23.8431C9.73412 23.8431 11.1101 25.0606 11.1405 26.5675C11.55 26.3154 11.9221 26.0177 12.2518 25.6832ZM9.28446 19.6793C9.28446 18.9906 8.7294 18.4304 8.04688 18.4304C7.36435 18.4304 6.8093 18.9906 6.8093 19.6793C6.8093 20.3681 7.36435 20.9283 8.04688 20.9283C8.7294 20.9283 9.28446 20.3681 9.28446 19.6793ZM10.5225 19.6795C10.5225 21.057 9.41244 22.1773 8.04739 22.1773C6.68234 22.1773 5.57223 21.057 5.57223 19.6795C5.57223 18.3019 6.68234 17.1816 8.04739 17.1816C9.41244 17.1816 10.5225 18.3019 10.5225 19.6795Z"/>
</mask>
<path fill-rule="evenodd" clip-rule="evenodd" d="M12.2518 25.6832C11.7838 23.9909 10.0758 22.733 8.0471 22.733C6.01467 22.733 4.3041 23.9956 3.83984 25.6926C4.17039 26.0265 4.54328 26.3235 4.95353 26.5747C4.97968 25.0645 6.35738 23.8431 8.0471 23.8431C9.73412 23.8431 11.1101 25.0606 11.1405 26.5675C11.55 26.3154 11.9221 26.0177 12.2518 25.6832ZM9.28446 19.6793C9.28446 18.9906 8.7294 18.4304 8.04688 18.4304C7.36435 18.4304 6.8093 18.9906 6.8093 19.6793C6.8093 20.3681 7.36435 20.9283 8.04688 20.9283C8.7294 20.9283 9.28446 20.3681 9.28446 19.6793ZM10.5225 19.6795C10.5225 21.057 9.41244 22.1773 8.04739 22.1773C6.68234 22.1773 5.57223 21.057 5.57223 19.6795C5.57223 18.3019 6.68234 17.1816 8.04739 17.1816C9.41244 17.1816 10.5225 18.3019 10.5225 19.6795Z" fill="#276899"/>
<path d="M12.2518 25.6832L13.6763 27.087L14.4874 26.2639L14.1794 25.1501L12.2518 25.6832ZM3.83984 25.6926L1.91073 25.1648L1.60597 26.2788L2.41848 27.0996L3.83984 25.6926ZM4.95353 26.5747L3.90903 28.2803L6.89266 30.1075L6.95323 26.6094L4.95353 26.5747ZM11.1405 26.5675L9.14094 26.6079L9.21147 30.1036L12.189 28.2707L11.1405 26.5675ZM8.0471 24.733C9.28579 24.733 10.1238 25.4918 10.3241 26.2163L14.1794 25.1501C13.4438 22.4901 10.8657 20.733 8.0471 20.733V24.733ZM5.76896 26.2204C5.96751 25.4946 6.80584 24.733 8.0471 24.733V20.733C5.2235 20.733 2.64069 22.4966 1.91073 25.1648L5.76896 26.2204ZM2.41848 27.0996C2.86109 27.5468 3.36029 27.9443 3.90903 28.2803L5.99803 24.8691C5.72627 24.7027 5.47969 24.5063 5.26121 24.2856L2.41848 27.0996ZM8.0471 21.8431C5.46891 21.8431 3.00219 23.747 2.95383 26.5401L6.95323 26.6094C6.95554 26.4756 7.01516 26.3054 7.20117 26.141C7.38973 25.9743 7.68382 25.8431 8.0471 25.8431V21.8431ZM13.1401 26.5272C13.0839 23.7408 10.6216 21.8431 8.0471 21.8431V25.8431C8.40978 25.8431 8.70352 25.9739 8.89213 26.1402C9.07829 26.3044 9.13824 26.4744 9.14094 26.6079L13.1401 26.5272ZM12.189 28.2707C12.7367 27.9335 13.2348 27.535 13.6763 27.087L10.8272 24.2794C10.6093 24.5005 10.3633 24.6974 10.0921 24.8644L12.189 28.2707ZM8.04688 20.4304C7.60768 20.4304 7.28446 20.0779 7.28446 19.6793H11.2845C11.2845 17.9032 9.85112 16.4304 8.04688 16.4304V20.4304ZM8.8093 19.6793C8.8093 20.0779 8.48607 20.4304 8.04688 20.4304V16.4304C6.24263 16.4304 4.8093 17.9032 4.8093 19.6793H8.8093ZM8.04688 18.9283C8.48607 18.9283 8.8093 19.2808 8.8093 19.6793H4.8093C4.8093 21.4555 6.24263 22.9283 8.04688 22.9283V18.9283ZM7.28446 19.6793C7.28446 19.2808 7.60768 18.9283 8.04688 18.9283V22.9283C9.85112 22.9283 11.2845 21.4555 11.2845 19.6793H7.28446ZM8.04739 24.1773C10.5342 24.1773 12.5225 22.1444 12.5225 19.6795H8.52255C8.52255 19.9697 8.29072 20.1773 8.04739 20.1773V24.1773ZM3.57223 19.6795C3.57223 22.1444 5.56061 24.1773 8.04739 24.1773V20.1773C7.80406 20.1773 7.57223 19.9697 7.57223 19.6795H3.57223ZM8.04739 15.1816C5.56061 15.1816 3.57223 17.2146 3.57223 19.6795H7.57223C7.57223 19.3893 7.80406 19.1816 8.04739 19.1816V15.1816ZM12.5225 19.6795C12.5225 17.2146 10.5342 15.1816 8.04739 15.1816V19.1816C8.29072 19.1816 8.52255 19.3893 8.52255 19.6795H12.5225Z" fill="#276899" mask="url(#path-3-inside-2)"/>
<path d="M7.21406 13.5889C7.68671 13.3077 8.27536 13.3077 8.74802 13.5889L13.6598 16.5113C14.1143 16.7818 14.3928 17.2715 14.3928 17.8004V23.7506C14.3928 24.2795 14.1143 24.7693 13.6598 25.0397L8.74802 27.9621C8.27536 28.2433 7.68671 28.2433 7.21406 27.9621L2.30228 25.0397C1.84777 24.7693 1.56926 24.2795 1.56926 23.7506V17.8004C1.56926 17.2715 1.84777 16.7818 2.30228 16.5113L7.21406 13.5889Z" stroke="#276899"/>
<mask id="path-6-inside-3" fill="white">
<path fill-rule="evenodd" clip-rule="evenodd" d="M19.3004 13.0627C18.806 11.4048 17.1167 10.1803 15.1152 10.1803C13.11 10.1803 11.4181 11.4093 10.9272 13.0719C11.2538 13.3987 11.6211 13.6896 12.0245 13.9364C12.1001 12.4659 13.4575 11.2904 15.1152 11.2904C16.7702 11.2904 18.1259 12.4621 18.2054 13.9293C18.6081 13.6818 18.9746 13.3902 19.3004 13.0627ZM10.875 14.3563C10.9783 14.4363 11.0841 14.5136 11.1924 14.5881C11.0595 14.5451 10.9479 14.4625 10.875 14.3563ZM19.0166 14.5945C19.1367 14.5123 19.2538 14.4265 19.3676 14.3375C19.2918 14.4585 19.1667 14.5515 19.0166 14.5945ZM16.3525 7.12661C16.3525 6.43783 15.7975 5.87769 15.1149 5.87769C14.4324 5.87769 13.8774 6.43783 13.8774 7.12661C13.8774 7.81538 14.4324 8.37552 15.1149 8.37552C15.7975 8.37552 16.3525 7.81538 16.3525 7.12661ZM17.5907 7.12674C17.5907 8.50429 16.4806 9.62457 15.1156 9.62457C13.7505 9.62457 12.6404 8.50429 12.6404 7.12674C12.6404 5.74918 13.7505 4.62891 15.1156 4.62891C16.4806 4.62891 17.5907 5.74918 17.5907 7.12674Z"/>
</mask>
<path fill-rule="evenodd" clip-rule="evenodd" d="M19.3004 13.0627C18.806 11.4048 17.1167 10.1803 15.1152 10.1803C13.11 10.1803 11.4181 11.4093 10.9272 13.0719C11.2538 13.3987 11.6211 13.6896 12.0245 13.9364C12.1001 12.4659 13.4575 11.2904 15.1152 11.2904C16.7702 11.2904 18.1259 12.4621 18.2054 13.9293C18.6081 13.6818 18.9746 13.3902 19.3004 13.0627ZM10.875 14.3563C10.9783 14.4363 11.0841 14.5136 11.1924 14.5881C11.0595 14.5451 10.9479 14.4625 10.875 14.3563ZM19.0166 14.5945C19.1367 14.5123 19.2538 14.4265 19.3676 14.3375C19.2918 14.4585 19.1667 14.5515 19.0166 14.5945ZM16.3525 7.12661C16.3525 6.43783 15.7975 5.87769 15.1149 5.87769C14.4324 5.87769 13.8774 6.43783 13.8774 7.12661C13.8774 7.81538 14.4324 8.37552 15.1149 8.37552C15.7975 8.37552 16.3525 7.81538 16.3525 7.12661ZM17.5907 7.12674C17.5907 8.50429 16.4806 9.62457 15.1156 9.62457C13.7505 9.62457 12.6404 8.50429 12.6404 7.12674C12.6404 5.74918 13.7505 4.62891 15.1156 4.62891C16.4806 4.62891 17.5907 5.74918 17.5907 7.12674Z" fill="#276899"/>
<path d="M19.3004 13.0627L20.7183 14.4732L21.5566 13.6305L21.217 12.4913L19.3004 13.0627ZM10.9272 13.0719L9.00908 12.5056L8.6727 13.645L9.51241 14.4855L10.9272 13.0719ZM12.0245 13.9364L10.981 15.6426L13.8493 17.3968L14.0219 14.039L12.0245 13.9364ZM18.2054 13.9293L16.2083 14.0376L16.3902 17.3928L19.2528 15.6332L18.2054 13.9293ZM10.875 14.3563L12.1 12.7753L9.22555 15.4873L10.875 14.3563ZM11.1924 14.5881L10.5771 16.4911L12.3255 12.94L11.1924 14.5881ZM19.0166 14.5945L17.8862 12.9446L19.5678 16.5171L19.0166 14.5945ZM19.3676 14.3375L21.0624 15.3995L18.1357 12.762L19.3676 14.3375ZM15.1152 12.1803C16.3353 12.1803 17.1704 12.9187 17.3837 13.6342L21.217 12.4913C20.4417 9.89084 17.898 8.18026 15.1152 8.18026V12.1803ZM12.8454 13.6381C13.057 12.9214 13.8925 12.1803 15.1152 12.1803V8.18026C12.3274 8.18026 9.77915 9.8971 9.00908 12.5056L12.8454 13.6381ZM9.51241 14.4855C9.94966 14.9231 10.4414 15.3125 10.981 15.6426L13.068 12.2302C12.8008 12.0667 12.5579 11.8743 12.3421 11.6583L9.51241 14.4855ZM15.1152 9.2904C12.5813 9.2904 10.1666 11.1214 10.0272 13.8337L14.0219 14.039C14.0337 13.8104 14.3337 13.2904 15.1152 13.2904V9.2904ZM20.2025 13.8211C20.0558 11.1154 17.6454 9.2904 15.1152 9.2904V13.2904C15.895 13.2904 16.1959 13.8088 16.2083 14.0376L20.2025 13.8211ZM19.2528 15.6332C19.7914 15.3021 20.2821 14.9117 20.7183 14.4732L17.8824 11.6522C17.6671 11.8687 17.4248 12.0616 17.1581 12.2255L19.2528 15.6332ZM9.65001 15.9372C9.78319 16.0404 9.91965 16.1401 10.0593 16.2361L12.3255 12.94C12.2485 12.8871 12.1733 12.8322 12.1 12.7753L9.65001 15.9372ZM11.8077 12.6851C12.0712 12.7703 12.3334 12.9465 12.5245 13.2252L9.22555 15.4873C9.56236 15.9785 10.0479 16.3199 10.5771 16.4911L11.8077 12.6851ZM20.147 16.2445C20.3018 16.1384 20.4528 16.0278 20.5996 15.913L18.1357 12.762C18.0548 12.8252 17.9716 12.8862 17.8862 12.9446L20.147 16.2445ZM17.6729 13.2754C17.8756 12.9521 18.172 12.7561 18.4655 12.672L19.5678 16.5171C20.1614 16.3469 20.708 15.965 21.0624 15.3995L17.6729 13.2754ZM15.1149 7.87769C14.6757 7.87769 14.3525 7.52517 14.3525 7.12661H18.3525C18.3525 5.35049 16.9192 3.87769 15.1149 3.87769V7.87769ZM15.8774 7.12661C15.8774 7.52517 15.5541 7.87769 15.1149 7.87769V3.87769C13.3107 3.87769 11.8774 5.35049 11.8774 7.12661H15.8774ZM15.1149 6.37552C15.5541 6.37552 15.8774 6.72804 15.8774 7.12661H11.8774C11.8774 8.90272 13.3107 10.3755 15.1149 10.3755V6.37552ZM14.3525 7.12661C14.3525 6.72804 14.6757 6.37552 15.1149 6.37552V10.3755C16.9192 10.3755 18.3525 8.90272 18.3525 7.12661H14.3525ZM15.1156 11.6246C17.6023 11.6246 19.5907 9.59163 19.5907 7.12674H15.5907C15.5907 7.41695 15.3589 7.62457 15.1156 7.62457V11.6246ZM10.6404 7.12674C10.6404 9.59163 12.6288 11.6246 15.1156 11.6246V7.62457C14.8722 7.62457 14.6404 7.41695 14.6404 7.12674H10.6404ZM15.1156 2.62891C12.6288 2.62891 10.6404 4.66184 10.6404 7.12674H14.6404C14.6404 6.83652 14.8722 6.62891 15.1156 6.62891V2.62891ZM19.5907 7.12674C19.5907 4.66184 17.6023 2.62891 15.1156 2.62891V6.62891C15.3589 6.62891 15.5907 6.83652 15.5907 7.12674H19.5907Z" fill="#276899" mask="url(#path-6-inside-3)"/>
<path d="M14.2805 1.03814C14.7531 0.756926 15.3418 0.756926 15.8144 1.03814L20.7262 3.96055C21.1807 4.23098 21.4592 4.72077 21.4592 5.24964V11.1998C21.4592 11.7287 21.1807 12.2185 20.7262 12.4889L15.8144 15.4113C15.3418 15.6925 14.7531 15.6925 14.2805 15.4113L9.36868 12.4889C8.91418 12.2185 8.63566 11.7287 8.63566 11.1998V5.24964C8.63566 4.72077 8.91417 4.23098 9.36868 3.96055L14.2805 1.03814Z" stroke="#276899"/>
<path d="M21.3469 13.5889C21.8195 13.3077 22.4082 13.3077 22.8808 13.5889L27.7926 16.5113C28.2471 16.7818 28.5256 17.2715 28.5256 17.8004V23.7506C28.5256 24.2795 28.2471 24.7693 27.7926 25.0397L22.8808 27.9621C22.4082 28.2433 21.8195 28.2433 21.3469 27.9621L16.4351 25.0397C15.9806 24.7693 15.7021 24.2795 15.7021 23.7506V17.8004C15.7021 17.2715 15.9806 16.7818 16.4351 16.5113L21.3469 13.5889Z" stroke="#276899"/>
</svg>
