<svg width="16" height="17" viewBox="0 0 16 17" fill="none" xmlns="http://www.w3.org/2000/svg">
<path fill-rule="evenodd" clip-rule="evenodd" d="M14.2218 13.4359C14.2218 13.9266 13.8227 14.3248 13.3329 14.3248H2.66623C2.17645 14.3248 1.77734 13.9266 1.77734 13.4359V2.76928C1.77734 2.27862 2.17645 1.88039 2.66623 1.88039H13.3329C13.8227 1.88039 14.2218 2.27862 14.2218 2.76928V13.4359ZM13.3333 0.101562H2.66667C1.19644 0.101562 0 1.29801 0 2.76823V13.4349C0 14.9051 1.19644 16.1016 2.66667 16.1016H13.3333C14.8036 16.1016 16 14.9051 16 13.4349V2.76823C16 1.29801 14.8036 0.101562 13.3333 0.101562Z" fill="#8F8F8F"/>
</svg>
