<svg width="29" height="21" viewBox="0 0 29 21" fill="none" xmlns="http://www.w3.org/2000/svg">
<path d="M10.6183 4.44244L10.597 4.30862L10.4617 4.31628C8.77269 4.41185 7.15605 5.16909 6.07662 6.57323C4.21781 8.99117 4.57517 12.4461 6.76204 14.6637L6.03348 15.6114C3.28455 12.951 2.81932 8.73627 5.07444 5.8028C6.34832 4.14573 8.24303 3.23666 10.2395 3.10636L10.4038 3.09564L10.3779 2.93309L10.0647 0.966896L13.367 3.50555L10.9664 6.62826L10.6183 4.44244Z" fill="#276899" stroke="#276899" stroke-width="0.3"/>
<path d="M23.4932 5.43323H24.4932V6.43323C24.4932 6.69845 24.5985 6.9528 24.7861 7.14034C24.9736 7.32787 25.2279 7.43323 25.4932 7.43323C25.7584 7.43323 26.0127 7.32787 26.2003 7.14034C26.3878 6.9528 26.4932 6.69845 26.4932 6.43323V5.43323H27.4932C27.7584 5.43323 28.0127 5.32787 28.2003 5.14034C28.3878 4.9528 28.4932 4.69845 28.4932 4.43323C28.4932 4.16802 28.3878 3.91366 28.2003 3.72613C28.0127 3.53859 27.7584 3.43323 27.4932 3.43323H26.4932V2.43323C26.4932 2.16802 26.3878 1.91366 26.2003 1.72613C26.0127 1.53859 25.7584 1.43323 25.4932 1.43323C25.2279 1.43323 24.9736 1.53859 24.7861 1.72613C24.5985 1.91366 24.4932 2.16802 24.4932 2.43323V3.43323H23.4932C23.2279 3.43323 22.9736 3.53859 22.7861 3.72613C22.5985 3.91366 22.4932 4.16802 22.4932 4.43323C22.4932 4.69845 22.5985 4.9528 22.7861 5.14034C22.9736 5.32787 23.2279 5.43323 23.4932 5.43323ZM25.4932 14.4332C24.8725 14.4364 24.268 14.6321 23.7632 14.9932L21.3132 13.5432C21.4288 13.1844 21.4894 12.8102 21.4932 12.4332C21.4903 11.5487 21.1943 10.69 20.6515 9.99159C20.1087 9.29316 19.3496 8.79437 18.4932 8.57323V6.25323C19.1604 6.01734 19.7227 5.55316 20.0808 4.94275C20.4389 4.33234 20.5696 3.61499 20.45 2.9175C20.3303 2.22 19.9679 1.58727 19.4268 1.13113C18.8858 0.674985 18.2009 0.424805 17.4932 0.424805C16.7855 0.424805 16.1006 0.674985 15.5595 1.13113C15.0184 1.58727 14.656 2.22 14.5364 2.9175C14.4167 3.61499 14.5475 4.33234 14.9055 4.94275C15.2636 5.55316 15.826 6.01734 16.4932 6.25323V8.57323C15.6367 8.79437 14.8777 9.29316 14.3349 9.99159C13.792 10.69 13.496 11.5487 13.4932 12.4332C13.4969 12.8102 13.5576 13.1844 13.6732 13.5432L11.2232 14.9932C10.7183 14.6321 10.1139 14.4364 9.49317 14.4332C8.89982 14.4332 8.3198 14.6092 7.82645 14.9388C7.33311 15.2685 6.94859 15.737 6.72153 16.2852C6.49446 16.8334 6.43505 17.4366 6.55081 18.0185C6.66657 18.6004 6.95229 19.135 7.37185 19.5546C7.7914 19.9741 8.32595 20.2598 8.90789 20.3756C9.48984 20.4913 10.093 20.4319 10.6412 20.2049C11.1894 19.9778 11.6579 19.5933 11.9876 19.0999C12.3172 18.6066 12.4932 18.0266 12.4932 17.4332C12.4895 17.1624 12.4491 16.8933 12.3732 16.6332L14.6732 15.2632C15.4226 16.0082 16.4364 16.4264 17.4932 16.4264C18.5499 16.4264 19.5637 16.0082 20.3132 15.2632L22.6132 16.6332C22.4456 17.2388 22.4724 17.8818 22.6899 18.4713C22.9073 19.0608 23.3044 19.5672 23.825 19.919C24.3457 20.2708 24.9636 20.4502 25.5917 20.4319C26.2198 20.4137 26.8263 20.1987 27.3257 19.8172C27.825 19.4358 28.192 18.9072 28.3748 18.306C28.5576 17.7048 28.547 17.0614 28.3445 16.4666C28.1421 15.8717 27.758 15.3555 27.2464 14.9907C26.7348 14.6258 26.1215 14.4308 25.4932 14.4332ZM9.49317 18.4332C9.29538 18.4332 9.10204 18.3746 8.9376 18.2647C8.77315 18.1548 8.64497 17.9986 8.56929 17.8159C8.4936 17.6332 8.47379 17.4321 8.51238 17.2381C8.55097 17.0442 8.64621 16.866 8.78606 16.7261C8.92591 16.5863 9.10409 16.491 9.29808 16.4524C9.49206 16.4139 9.69312 16.4337 9.87585 16.5094C10.0586 16.585 10.2148 16.7132 10.3246 16.8777C10.4345 17.0421 10.4932 17.2355 10.4932 17.4332C10.4932 17.6984 10.3878 17.9528 10.2003 18.1403C10.0127 18.3279 9.75838 18.4332 9.49317 18.4332ZM17.4932 2.43323C17.6909 2.43323 17.8843 2.49188 18.0487 2.60176C18.2132 2.71164 18.3414 2.86782 18.417 3.05055C18.4927 3.23327 18.5125 3.43434 18.474 3.62832C18.4354 3.8223 18.3401 4.00049 18.2003 4.14034C18.0604 4.28019 17.8822 4.37543 17.6883 4.41402C17.4943 4.4526 17.2932 4.4328 17.1105 4.35711C16.9278 4.28142 16.7716 4.15325 16.6617 3.9888C16.5518 3.82435 16.4932 3.63101 16.4932 3.43323C16.4932 3.16802 16.5985 2.91366 16.7861 2.72613C16.9736 2.53859 17.2279 2.43323 17.4932 2.43323ZM17.4932 14.4332C17.0976 14.4332 16.7109 14.3159 16.382 14.0962C16.0531 13.8764 15.7968 13.5641 15.6454 13.1986C15.494 12.8331 15.4544 12.431 15.5316 12.0431C15.6088 11.6551 15.7992 11.2987 16.079 11.019C16.3587 10.7393 16.715 10.5488 17.103 10.4717C17.4909 10.3945 17.8931 10.4341 18.2585 10.5855C18.624 10.7368 18.9363 10.9932 19.1561 11.3221C19.3759 11.651 19.4932 12.0377 19.4932 12.4332C19.4932 12.9637 19.2825 13.4724 18.9074 13.8474C18.5323 14.2225 18.0236 14.4332 17.4932 14.4332ZM25.4932 18.4332C25.2954 18.4332 25.102 18.3746 24.9376 18.2647C24.7731 18.1548 24.645 17.9986 24.5693 17.8159C24.4936 17.6332 24.4738 17.4321 24.5124 17.2381C24.551 17.0442 24.6462 16.866 24.7861 16.7261C24.9259 16.5863 25.1041 16.491 25.2981 16.4524C25.4921 16.4139 25.6931 16.4337 25.8758 16.5094C26.0586 16.585 26.2148 16.7132 26.3246 16.8777C26.4345 17.0421 26.4932 17.2355 26.4932 17.4332C26.4932 17.6984 26.3878 17.9528 26.2003 18.1403C26.0127 18.3279 25.7584 18.4332 25.4932 18.4332Z" fill="#276899"/>
</svg>
