<svg width="29" height="21" viewBox="0 0 29 21" fill="none" xmlns="http://www.w3.org/2000/svg">
<path d="M10.6173 4.44244L10.596 4.30862L10.4607 4.31628C8.77171 4.41185 7.15507 5.16909 6.07564 6.57323C4.21683 8.99117 4.57419 12.4461 6.76106 14.6637L6.0325 15.6114C3.28358 12.951 2.81835 8.73627 5.07346 5.8028C6.34734 4.14573 8.24206 3.23666 10.2386 3.10636L10.4028 3.09564L10.3769 2.93309L10.0638 0.966896L13.3661 3.50555L10.9655 6.62826L10.6173 4.44244Z" fill="white" stroke="white" stroke-width="0.3"/>
<path d="M23.4922 5.43323H24.4922V6.43323C24.4922 6.69845 24.5975 6.9528 24.7851 7.14034C24.9726 7.32787 25.227 7.43323 25.4922 7.43323C25.7574 7.43323 26.0118 7.32787 26.1993 7.14034C26.3868 6.9528 26.4922 6.69845 26.4922 6.43323V5.43323H27.4922C27.7574 5.43323 28.0118 5.32787 28.1993 5.14034C28.3868 4.9528 28.4922 4.69845 28.4922 4.43323C28.4922 4.16802 28.3868 3.91366 28.1993 3.72613C28.0118 3.53859 27.7574 3.43323 27.4922 3.43323H26.4922V2.43323C26.4922 2.16802 26.3868 1.91366 26.1993 1.72613C26.0118 1.53859 25.7574 1.43323 25.4922 1.43323C25.227 1.43323 24.9726 1.53859 24.7851 1.72613C24.5975 1.91366 24.4922 2.16802 24.4922 2.43323V3.43323H23.4922C23.227 3.43323 22.9726 3.53859 22.7851 3.72613C22.5975 3.91366 22.4922 4.16802 22.4922 4.43323C22.4922 4.69845 22.5975 4.9528 22.7851 5.14034C22.9726 5.32787 23.227 5.43323 23.4922 5.43323ZM25.4922 14.4332C24.8715 14.4364 24.267 14.6321 23.7622 14.9932L21.3122 13.5432C21.4278 13.1844 21.4885 12.8102 21.4922 12.4332C21.4893 11.5487 21.1933 10.69 20.6505 9.99159C20.1077 9.29316 19.3487 8.79437 18.4922 8.57323V6.25323C19.1594 6.01734 19.7217 5.55316 20.0798 4.94275C20.4379 4.33234 20.5687 3.61499 20.449 2.9175C20.3293 2.22 19.9669 1.58727 19.4258 1.13113C18.8848 0.674985 18.1999 0.424805 17.4922 0.424805C16.7845 0.424805 16.0996 0.674985 15.5585 1.13113C15.0175 1.58727 14.6551 2.22 14.5354 2.9175C14.4157 3.61499 14.5465 4.33234 14.9046 4.94275C15.2626 5.55316 15.825 6.01734 16.4922 6.25323V8.57323C15.6357 8.79437 14.8767 9.29316 14.3339 9.99159C13.7911 10.69 13.4951 11.5487 13.4922 12.4332C13.4959 12.8102 13.5566 13.1844 13.6722 13.5432L11.2222 14.9932C10.7173 14.6321 10.1129 14.4364 9.49219 14.4332C8.89884 14.4332 8.31883 14.6092 7.82548 14.9388C7.33213 15.2685 6.94761 15.737 6.72055 16.2852C6.49349 16.8334 6.43408 17.4366 6.54983 18.0185C6.66559 18.6004 6.95131 19.135 7.37087 19.5546C7.79043 19.9741 8.32498 20.2598 8.90692 20.3756C9.48886 20.4913 10.0921 20.4319 10.6402 20.2049C11.1884 19.9778 11.657 19.5933 11.9866 19.0999C12.3162 18.6066 12.4922 18.0266 12.4922 17.4332C12.4885 17.1624 12.4481 16.8933 12.3722 16.6332L14.6722 15.2632C15.4216 16.0082 16.4354 16.4264 17.4922 16.4264C18.5489 16.4264 19.5627 16.0082 20.3122 15.2632L22.6122 16.6332C22.4446 17.2388 22.4715 17.8818 22.6889 18.4713C22.9063 19.0608 23.3034 19.5672 23.824 19.919C24.3447 20.2708 24.9627 20.4502 25.5908 20.4319C26.2188 20.4137 26.8253 20.1987 27.3247 19.8172C27.824 19.4358 28.191 18.9072 28.3738 18.306C28.5566 17.7048 28.546 17.0614 28.3436 16.4666C28.1411 15.8717 27.757 15.3555 27.2454 14.9907C26.7338 14.6258 26.1205 14.4308 25.4922 14.4332ZM9.49219 18.4332C9.29441 18.4332 9.10107 18.3746 8.93662 18.2647C8.77217 18.1548 8.644 17.9986 8.56831 17.8159C8.49262 17.6332 8.47282 17.4321 8.5114 17.2381C8.54999 17.0442 8.64523 16.866 8.78508 16.7261C8.92493 16.5863 9.10312 16.491 9.2971 16.4524C9.49108 16.4139 9.69215 16.4337 9.87487 16.5094C10.0576 16.585 10.2138 16.7132 10.3237 16.8777C10.4335 17.0421 10.4922 17.2355 10.4922 17.4332C10.4922 17.6984 10.3868 17.9528 10.1993 18.1403C10.0118 18.3279 9.75741 18.4332 9.49219 18.4332ZM17.4922 2.43323C17.69 2.43323 17.8833 2.49188 18.0478 2.60176C18.2122 2.71164 18.3404 2.86782 18.4161 3.05055C18.4918 3.23327 18.5116 3.43434 18.473 3.62832C18.4344 3.8223 18.3391 4.00049 18.1993 4.14034C18.0594 4.28019 17.8813 4.37543 17.6873 4.41402C17.4933 4.4526 17.2922 4.4328 17.1095 4.35711C16.9268 4.28142 16.7706 4.15325 16.6607 3.9888C16.5508 3.82435 16.4922 3.63101 16.4922 3.43323C16.4922 3.16802 16.5975 2.91366 16.7851 2.72613C16.9726 2.53859 17.227 2.43323 17.4922 2.43323ZM17.4922 14.4332C17.0966 14.4332 16.7099 14.3159 16.381 14.0962C16.0521 13.8764 15.7958 13.5641 15.6444 13.1986C15.4931 12.8331 15.4534 12.431 15.5306 12.0431C15.6078 11.6551 15.7983 11.2987 16.078 11.019C16.3577 10.7393 16.714 10.5488 17.102 10.4717C17.49 10.3945 17.8921 10.4341 18.2576 10.5855C18.623 10.7368 18.9354 10.9932 19.1551 11.3221C19.3749 11.651 19.4922 12.0377 19.4922 12.4332C19.4922 12.9637 19.2815 13.4724 18.9064 13.8474C18.5313 14.2225 18.0226 14.4332 17.4922 14.4332ZM25.4922 18.4332C25.2944 18.4332 25.1011 18.3746 24.9366 18.2647C24.7722 18.1548 24.644 17.9986 24.5683 17.8159C24.4926 17.6332 24.4728 17.4321 24.5114 17.2381C24.55 17.0442 24.6452 16.866 24.7851 16.7261C24.9249 16.5863 25.1031 16.491 25.2971 16.4524C25.4911 16.4139 25.6921 16.4337 25.8749 16.5094C26.0576 16.585 26.2138 16.7132 26.3237 16.8777C26.4335 17.0421 26.4922 17.2355 26.4922 17.4332C26.4922 17.6984 26.3868 17.9528 26.1993 18.1403C26.0118 18.3279 25.7574 18.4332 25.4922 18.4332Z" fill="white"/>
</svg>
