<svg width="16" height="16" viewBox="0 0 16 16" fill="none" xmlns="http://www.w3.org/2000/svg">
<mask id="path-1-inside-1" fill="white">
<path fill-rule="evenodd" clip-rule="evenodd" d="M12.0189 6.6659L9.32393 3.96714L11.2719 2.01542L13.9659 4.71318L12.0189 6.6659ZM5.07856 13.6216L2.10156 13.893L2.36556 10.9329L7.98256 5.30806L10.6786 8.00782L5.07856 13.6216ZM15.4039 3.32033L15.4029 3.31933L12.6649 0.577507C11.9239 -0.162525 10.6509 -0.197573 9.9489 0.508411L0.952896 9.51696C0.626896 9.84242 0.424896 10.275 0.382896 10.7327L0.00389602 14.9085C-0.022104 15.2039 0.082896 15.4963 0.292896 15.7066C0.481896 15.8959 0.736896 16 0.999896 16C1.0309 16 1.0609 15.999 1.0909 15.996L5.2609 15.6165C5.7189 15.5744 6.1499 15.3731 6.4749 15.0477L15.4719 6.03812C16.1999 5.3071 16.1689 4.0874 15.4039 3.32033Z"/>
</mask>
<path fill-rule="evenodd" clip-rule="evenodd" d="M12.0189 6.6659L9.32393 3.96714L11.2719 2.01542L13.9659 4.71318L12.0189 6.6659ZM5.07856 13.6216L2.10156 13.893L2.36556 10.9329L7.98256 5.30806L10.6786 8.00782L5.07856 13.6216ZM15.4039 3.32033L15.4029 3.31933L12.6649 0.577507C11.9239 -0.162525 10.6509 -0.197573 9.9489 0.508411L0.952896 9.51696C0.626896 9.84242 0.424896 10.275 0.382896 10.7327L0.00389602 14.9085C-0.022104 15.2039 0.082896 15.4963 0.292896 15.7066C0.481896 15.8959 0.736896 16 0.999896 16C1.0309 16 1.0609 15.999 1.0909 15.996L5.2609 15.6165C5.7189 15.5744 6.1499 15.3731 6.4749 15.0477L15.4719 6.03812C16.1999 5.3071 16.1689 4.0874 15.4039 3.32033Z" fill="#276899"/>
<path d="M12.0189 6.6659L11.6651 7.01921L12.0192 7.37378L12.373 7.01894L12.0189 6.6659ZM9.32393 3.96714L8.97004 3.61393L8.61741 3.96723L8.97013 4.32045L9.32393 3.96714ZM11.2719 2.01542L11.6257 1.66211L11.2718 1.30773L10.918 1.66221L11.2719 2.01542ZM13.9659 4.71318L14.32 5.06622L14.6723 4.71291L14.3197 4.35987L13.9659 4.71318ZM5.07856 13.6216L5.12395 14.1196L5.30451 14.1031L5.43255 13.9748L5.07856 13.6216ZM2.10156 13.893L1.60354 13.8486L1.55032 14.4453L2.14695 14.391L2.10156 13.893ZM2.36556 10.9329L2.01176 10.5796L1.88365 10.7079L1.86754 10.8885L2.36556 10.9329ZM7.98256 5.30806L8.33636 4.95475L7.98256 4.60046L7.62876 4.95475L7.98256 5.30806ZM10.6786 8.00782L11.0326 8.36094L11.385 8.00763L11.0324 7.65452L10.6786 8.00782ZM15.4039 3.32033L15.7579 2.96725L15.7576 2.96694L15.4039 3.32033ZM15.4029 3.31933L15.0491 3.67263L15.0492 3.67271L15.4029 3.31933ZM12.6649 0.577507L13.0187 0.2242L13.0182 0.223722L12.6649 0.577507ZM9.9489 0.508411L10.3027 0.861718L10.3034 0.860962L9.9489 0.508411ZM0.952896 9.51696L1.30615 9.87082L1.3067 9.87027L0.952896 9.51696ZM0.382896 10.7327L-0.115012 10.687L-0.115057 10.6875L0.382896 10.7327ZM0.00389602 14.9085L-0.494059 14.8633L-0.494179 14.8646L0.00389602 14.9085ZM0.292896 15.7066L-0.0609038 16.0599L0.292896 15.7066ZM1.0909 15.996L1.04557 15.498L1.04108 15.4985L1.0909 15.996ZM5.2609 15.6165L5.30622 16.1144L5.30662 16.1144L5.2609 15.6165ZM6.4749 15.0477L6.8287 15.401L6.4749 15.0477ZM15.4719 6.03812L15.8257 6.39142L15.8262 6.39094L15.4719 6.03812ZM12.3727 6.3126L9.67773 3.61383L8.97013 4.32045L11.6651 7.01921L12.3727 6.3126ZM9.67782 4.32036L11.6258 2.36864L10.918 1.66221L8.97004 3.61393L9.67782 4.32036ZM10.9181 2.36873L13.6121 5.06649L14.3197 4.35987L11.6257 1.66211L10.9181 2.36873ZM13.6119 4.36015L11.6649 6.31287L12.373 7.01894L14.32 5.06622L13.6119 4.36015ZM5.03317 13.1237L2.05617 13.3951L2.14695 14.391L5.12395 14.1196L5.03317 13.1237ZM2.59959 13.9374L2.86359 10.9773L1.86754 10.8885L1.60354 13.8486L2.59959 13.9374ZM2.71936 11.2862L8.33636 5.66137L7.62876 4.95475L2.01176 10.5796L2.71936 11.2862ZM7.62876 5.66137L10.3248 8.36113L11.0324 7.65452L8.33636 4.95475L7.62876 5.66137ZM10.3246 7.65471L4.72457 13.2685L5.43255 13.9748L11.0326 8.36094L10.3246 7.65471ZM15.7576 2.96694L15.7566 2.96594L15.0492 3.67271L15.0502 3.67371L15.7576 2.96694ZM15.7567 2.96602L13.0187 0.2242L12.3111 0.930814L15.0491 3.67263L15.7567 2.96602ZM13.0182 0.223722C12.1004 -0.692917 10.5096 -0.764614 9.59434 0.155859L10.3034 0.860962C10.7922 0.369467 11.7474 0.367868 12.3116 0.931291L13.0182 0.223722ZM9.5951 0.155104L0.599096 9.16366L1.3067 9.87027L10.3027 0.861717L9.5951 0.155104ZM0.599639 9.16312C0.190433 9.57164 -0.0623777 10.1135 -0.115011 10.687L0.880804 10.7784C0.91217 10.4366 1.06336 10.1132 1.30615 9.87081L0.599639 9.16312ZM-0.115057 10.6875L-0.494057 14.8633L0.501849 14.9537L0.880849 10.7779L-0.115057 10.6875ZM-0.494179 14.8646C-0.53302 15.306 -0.376228 15.7441 -0.0609038 16.0599L0.646696 15.3533C0.54202 15.2485 0.488812 15.1018 0.501971 14.9523L-0.494179 14.8646ZM-0.0609038 16.0599C0.222478 16.3437 0.605009 16.5 0.999896 16.5V15.5C0.868783 15.5 0.741314 15.448 0.646696 15.3533L-0.0609038 16.0599ZM0.999896 16.5C1.04133 16.5 1.08896 16.4987 1.14072 16.4935L1.04108 15.4985C1.03283 15.4993 1.02047 15.5 0.999896 15.5V16.5ZM1.13622 16.4939L5.30622 16.1144L5.21558 15.1185L1.04558 15.4981L1.13622 16.4939ZM5.30662 16.1144C5.88035 16.0617 6.42057 15.8097 6.8287 15.401L6.1211 14.6944C5.87923 14.9366 5.55744 15.0871 5.21517 15.1186L5.30662 16.1144ZM6.8287 15.401L15.8257 6.39142L15.1181 5.68481L6.1211 14.6944L6.8287 15.401ZM15.8262 6.39094C16.7648 5.44841 16.7008 3.91266 15.7579 2.96725L15.0499 3.6734C15.637 4.26214 15.635 5.16579 15.1176 5.6853L15.8262 6.39094Z" fill="#17212B" mask="url(#path-1-inside-1)"/>
</svg>
