<svg width="23" height="22" viewBox="0 0 23 22" fill="none" xmlns="http://www.w3.org/2000/svg">
<path fill-rule="evenodd" clip-rule="evenodd" d="M18.1691 13.0869C17.8724 12.9655 17.555 12.903 17.2345 12.903C16.9349 12.886 16.6356 12.9404 16.3612 13.0617C16.1238 13.1761 15.8974 13.3118 15.6846 13.4671C15.4776 13.6172 15.2881 13.7901 15.1198 13.9826C14.9562 14.1711 14.7972 14.344 14.6415 14.4996C14.5001 14.6424 14.3475 14.7738 14.1852 14.8924C14.0213 15.0097 13.8207 15.0642 13.62 15.046C13.4193 15.0278 13.2317 14.9382 13.0917 14.7934C12.9185 14.6312 12.7465 14.4678 12.5756 14.3031C12.3553 14.0894 12.0847 13.8317 11.7653 13.5284C11.431 13.2118 11.099 12.8928 10.7693 12.5714L9.69941 11.528C9.04249 10.8865 8.40752 10.223 7.79559 9.53857C7.57582 9.29727 7.3704 9.04331 7.18039 8.778C7.03249 8.56586 6.95854 8.41029 6.95854 8.31129C6.9494 8.13391 7.00597 7.95938 7.11745 7.821C7.23231 7.67329 7.3692 7.52243 7.52339 7.36528C7.68073 7.21129 7.85223 7.04629 8.03947 6.875C8.22828 6.70214 8.40135 6.51828 8.55712 6.32186C8.71131 6.12543 8.84348 5.90071 8.95047 5.64614C9.05589 5.39471 9.10938 5.10714 9.10938 4.78814C9.10937 4.13969 8.85325 3.51742 8.39663 3.05643C8.10267 2.76823 7.8238 2.46507 7.56115 2.14814C7.26096 1.79113 6.93661 1.4551 6.59036 1.14243C6.25425 0.835222 5.88727 0.563496 5.49527 0.331571C5.13926 0.116331 4.73138 0.0017259 4.31522 0C3.6665 0.00043031 3.04408 0.256197 2.5829 0.711857C2.15651 1.13771 1.78361 1.518 1.46421 1.85429C1.15768 2.17268 0.885554 2.52242 0.652331 2.89771C0.426306 3.2701 0.260628 3.67582 0.161428 4.09986C0.0459323 4.624 -0.00792777 5.15981 0.000940756 5.69643C0.000940756 6.56386 0.140974 7.46428 0.419467 8.39771C0.697959 9.32957 1.074 10.2599 1.54917 11.1839C2.02434 12.1094 2.60335 13.0177 3.28306 13.9103C3.96278 14.8013 4.7007 15.6483 5.49527 16.4513C6.28984 17.2527 7.13476 17.9944 8.02846 18.6733C8.92058 19.3521 9.83472 19.9383 10.7693 20.4286C11.7024 20.9204 12.6417 21.3039 13.5842 21.582C14.477 21.8531 15.4044 21.9938 16.3376 22C16.871 21.9997 17.4027 21.9418 17.9236 21.8271C18.3529 21.7304 18.7636 21.5648 19.1398 21.3369C19.5017 21.1169 19.8479 20.8466 20.1846 20.5276C20.5213 20.207 20.8973 19.8393 21.3159 19.4213C21.7723 18.9602 22.0284 18.338 22.0286 17.6896C22.0108 17.414 21.9568 17.1419 21.8681 16.8803C21.7761 16.6063 21.6395 16.3493 21.4638 16.1197C21.2801 15.879 21.087 15.6457 20.8847 15.4204C20.6764 15.1873 20.4552 14.9659 20.2223 14.7573C19.9975 14.556 19.7719 14.3553 19.5458 14.1554C19.3479 13.9811 19.1553 13.8008 18.9683 13.6149C18.7404 13.3867 18.4685 13.207 18.1691 13.0869ZM17.5916 20.2934C17.1811 20.392 16.7597 20.4374 16.3376 20.4286C15.5287 20.4133 14.7258 20.2853 13.9523 20.0483C13.0868 19.787 12.2506 19.4374 11.4569 19.0049C9.6923 18.0398 8.07739 16.8239 6.66274 15.3953C5.94369 14.669 5.26655 13.9025 4.63462 13.0994C4.02111 12.323 3.47872 11.4931 3.01401 10.6197C2.58089 9.81212 2.2263 8.96491 1.95511 8.08971C1.70871 7.30314 1.5804 6.48444 1.57435 5.66029C1.57395 5.24207 1.6236 4.8253 1.72225 4.41886C1.81193 4.07629 1.94724 3.76829 2.12818 3.49957C2.30755 3.22929 2.5294 2.96686 2.79059 2.71386C3.05335 2.45929 3.35229 2.16386 3.68743 1.82914C3.76902 1.74536 3.867 1.67924 3.97527 1.6349C4.08354 1.59057 4.1998 1.56896 4.31679 1.57143C4.41434 1.56357 4.56539 1.628 4.76993 1.76786C4.97448 1.90771 5.19633 2.07429 5.43391 2.27071C5.947 2.69816 6.42042 3.17098 6.8484 3.68343C7.04508 3.91914 7.20871 4.13757 7.3393 4.334C7.4699 4.53043 7.53598 4.68129 7.53598 4.78814C7.55011 4.96614 7.49296 5.14247 7.37707 5.27843C7.26221 5.41043 7.12532 5.56129 6.97113 5.73414C6.81379 5.90543 6.64229 6.06886 6.45505 6.22443C6.26624 6.38 6.09317 6.56386 5.9374 6.776C5.78105 6.9901 5.64911 7.22095 5.54405 7.46428C5.43319 7.73321 5.37909 8.02209 5.38513 8.31286C5.393 8.64757 5.45908 8.96186 5.58181 9.25571C5.70454 9.55114 5.88076 9.81357 6.11047 10.0414L11.973 15.8981C12.1985 16.1288 12.4683 16.3117 12.7662 16.4359C13.0642 16.5601 13.3841 16.623 13.7069 16.621C14.0021 16.6366 14.2969 16.5828 14.5675 16.4639C15.0402 16.2452 15.4627 15.9317 15.8089 15.543C15.982 15.3544 16.1394 15.1816 16.2888 15.026C16.4352 14.872 16.5878 14.74 16.7435 14.6331C16.887 14.5312 17.0584 14.4757 17.2345 14.4744C17.3493 14.4744 17.5051 14.5404 17.7018 14.6709C17.8984 14.8013 18.1156 14.9694 18.3531 15.1737C18.5907 15.378 18.8362 15.6043 19.0911 15.8494C19.3444 16.0946 19.571 16.3397 19.7676 16.5864C19.9627 16.8316 20.1279 17.0531 20.2585 17.2496C20.3891 17.446 20.4552 17.5953 20.4552 17.7037C20.4564 17.818 20.4341 17.9314 20.3897 18.0368C20.3453 18.1422 20.2798 18.2374 20.1972 18.3166C19.8447 18.6607 19.5458 18.9609 19.3003 19.2123C19.0618 19.4599 18.7981 19.6822 18.5136 19.8754C18.2319 20.0653 17.9202 20.2066 17.5916 20.2934Z" fill="#276899"/>
<path d="M14.2359 10.9991C14.9109 10.9991 15.4581 10.4519 15.4581 9.77691C15.4581 9.10189 14.9109 8.55469 14.2359 8.55469C13.5609 8.55469 13.0137 9.10189 13.0137 9.77691C13.0137 10.4519 13.5609 10.9991 14.2359 10.9991Z" fill="#FFB200"/>
<path d="M13.0137 1.22222C13.0137 0.547208 13.5609 0 14.2359 0C14.9109 0 15.4581 0.547207 15.4581 1.22222V6.11111C15.4581 6.78612 14.9109 7.33333 14.2359 7.33333C13.5609 7.33333 13.0137 6.78613 13.0137 6.11111V1.22222Z" fill="#FFB200"/>
</svg>
