<svg width="34" height="33" viewBox="0 0 34 33" fill="none" xmlns="http://www.w3.org/2000/svg">
<path d="M28.998 1H4.99805C2.78891 1 0.998047 2.79086 0.998047 5V28.5C0.998047 30.7091 2.78891 32.5 4.99805 32.5H28.998C31.2072 32.5 32.998 30.7091 32.998 28.5V5C32.998 2.79086 31.2072 1 28.998 1Z" stroke="#276899"/>
<path d="M6.80932 25.8601C7.23499 25.4344 7.66065 25.0088 8.10269 24.5667C9.59251 23.0769 11.066 21.6035 12.5558 20.1136C12.916 19.7534 13.2631 19.8059 13.7014 20.2114C14.1618 20.6391 14.2201 21.0248 13.8599 21.385C12.3701 22.8748 10.8966 24.3483 9.40678 25.8381C8.98112 26.2638 8.53908 26.7058 8.04793 27.1969C8.74809 27.3405 9.31392 27.2187 9.87504 27.1904C10.1942 27.1821 10.4911 27.1516 10.8102 27.1433C11.2615 27.1361 11.7324 27.5088 11.8959 27.967C12.0313 28.3644 11.8033 28.7257 11.3742 28.7551C10.3677 28.8291 9.37759 28.8868 8.38745 28.9444C7.63929 28.9821 6.89114 29.0198 6.10441 29.0517C5.4112 29.0788 4.85615 28.5237 4.86692 27.8469C4.96226 26.1086 5.03539 24.3481 5.13073 22.6098C5.16011 22.1808 5.53195 21.8978 5.92935 22.0332C6.36532 22.1745 6.71002 22.5847 6.76361 23.0639C6.84164 23.8296 6.6602 24.4995 6.69967 25.2593C6.70662 25.43 6.69136 25.5784 6.68194 25.7655C6.72634 25.8099 6.78712 25.8379 6.80932 25.8601Z" fill="white"/>
<path d="M26.5172 7.9745C26.0918 8.40024 25.6663 8.82598 25.2244 9.26809C23.7353 10.7582 22.2625 12.2319 20.7734 13.722C20.4134 14.0822 20.0973 14.0609 19.7245 13.7211C19.333 13.3625 19.3091 13.0113 19.6691 12.6511C21.1583 11.161 22.631 9.68732 24.1202 8.19724C24.5456 7.77151 24.9875 7.32939 25.4784 6.83816C24.8438 6.76037 24.3126 6.91678 23.793 6.98658C23.498 7.01911 23.2218 7.07038 22.9269 7.10291C22.5102 7.1447 22.1048 6.83767 21.9894 6.42786C21.8953 6.07193 22.1336 5.72095 22.5315 5.66041C23.4654 5.5137 24.3829 5.38337 25.3005 5.25303C25.9933 5.15997 26.6862 5.0669 27.4142 4.97621C28.0555 4.89715 28.5245 5.36577 28.4622 5.99082C28.2398 7.60136 28.0361 9.23065 27.8138 10.8412C27.7535 11.2391 27.3887 11.5291 27.0327 11.4352C26.6416 11.3389 26.3554 10.9875 26.3431 10.5497C26.3303 9.84963 26.5495 9.2177 26.5719 8.52004C26.5787 8.36319 26.6042 8.22508 26.6274 8.05185C26.5899 8.01436 26.536 7.99325 26.5172 7.9745Z" fill="white"/>
<path d="M26.4449 26.5144C26.0212 26.0907 25.5974 25.6669 25.1574 25.2269C23.6742 23.7437 22.2074 22.2769 20.7242 20.7937C20.3657 20.4352 20.3889 20.1185 20.7314 19.7435C21.0927 19.3495 21.4446 19.3237 21.8031 19.6823C23.2863 21.1654 24.7531 22.6322 26.2363 24.1154C26.66 24.5391 27.1001 24.9792 27.589 25.4681C27.6707 24.8323 27.5173 24.3012 27.4505 23.7813C27.4197 23.4861 27.37 23.2098 27.3392 22.9147C27.2998 22.4977 27.6097 22.09 28.0208 21.9723C28.3777 21.8761 28.7278 22.1128 28.786 22.511C28.9273 23.4453 29.0523 24.3634 29.1773 25.2815C29.2664 25.9748 29.3554 26.668 29.4418 27.3965C29.5172 28.0383 29.0451 28.5104 28.4196 28.4513C26.8082 28.2373 25.178 28.0421 23.5667 27.8281C23.1685 27.7698 22.8803 27.4061 22.9765 27.0491C23.0753 26.657 23.4289 26.3686 23.8674 26.3539C24.5684 26.3374 25.1999 26.5534 25.8983 26.5721C26.0554 26.578 26.1935 26.6029 26.3668 26.6251C26.4046 26.5874 26.426 26.5333 26.4449 26.5144Z" fill="white"/>
<path d="M8.49762 6.90528C8.9253 7.33269 9.35298 7.76011 9.79712 8.20396C11.294 9.69991 12.7745 11.1794 14.2713 12.6754C14.6332 13.037 14.6114 13.355 14.2691 13.7304C13.908 14.1246 13.5547 14.1491 13.1928 13.7875C11.6959 12.2915 10.2155 10.812 8.71859 9.31607C8.2909 8.88866 7.84677 8.4448 7.35329 7.95163C7.27423 8.59002 7.43088 9.12415 7.50042 9.64674C7.53276 9.94337 7.58398 10.2211 7.61632 10.5177C7.65782 10.9368 7.34847 11.345 6.93612 11.4615C6.57798 11.5567 6.22525 11.3175 6.16487 10.9173C6.0185 9.97814 5.88858 9.05538 5.75866 8.13262C5.66594 7.43583 5.57322 6.73905 5.48292 6.00693C5.40422 5.3619 5.87619 4.88963 6.50482 4.95149C8.1245 5.17311 9.76307 5.37585 11.3828 5.59747C11.783 5.6576 12.0742 6.02416 11.9792 6.38236C11.8818 6.7759 11.528 7.06416 11.0876 7.07714C10.3835 7.09085 9.74813 6.87124 9.04642 6.84961C8.88866 6.84298 8.74978 6.81746 8.57556 6.79439C8.53781 6.83217 8.5165 6.88639 8.49762 6.90528Z" fill="white"/>
</svg>
