<svg width="23" height="23" viewBox="0 0 23 23" fill="none" xmlns="http://www.w3.org/2000/svg">
<path d="M11.5 14.375C13.0878 14.375 14.375 13.0878 14.375 11.5C14.375 9.91218 13.0878 8.625 11.5 8.625C9.91218 8.625 8.625 9.91218 8.625 11.5C8.625 13.0878 9.91218 14.375 11.5 14.375Z" fill="#276899"/>
<path d="M22.0494 10.7184C20.8607 8.88016 19.3186 7.31867 17.59 6.20236C15.6777 4.96611 13.5663 4.3125 11.4846 4.3125C9.57457 4.3125 7.69638 4.8583 5.9022 5.93463C4.07254 7.03207 2.41492 8.63533 0.975173 10.6995C0.812639 10.9328 0.723125 11.2091 0.718006 11.4934C0.712887 11.7777 0.792394 12.057 0.946423 12.296C2.13281 14.1526 3.6597 15.7164 5.36134 16.8174C7.27726 18.0586 9.33918 18.6875 11.4846 18.6875C13.5829 18.6875 15.6988 18.0393 17.603 16.8134C19.3307 15.7006 20.8697 14.1333 22.0539 12.2798C22.2026 12.0464 22.2812 11.7752 22.2804 11.4984C22.2796 11.2217 22.1994 10.9509 22.0494 10.7184ZM11.4999 15.8125C10.647 15.8125 9.81321 15.5596 9.10402 15.0857C8.39483 14.6118 7.84209 13.9383 7.51569 13.1503C7.18929 12.3623 7.10388 11.4952 7.27028 10.6587C7.43668 9.82213 7.84741 9.05372 8.45052 8.4506C9.05363 7.84749 9.82205 7.43676 10.6586 7.27036C11.4951 7.10397 12.3622 7.18937 13.1502 7.51577C13.9382 7.84217 14.6118 8.39492 15.0856 9.1041C15.5595 9.81329 15.8124 10.6471 15.8124 11.5C15.8111 12.6433 15.3563 13.7395 14.5479 14.548C13.7394 15.3564 12.6433 15.8112 11.4999 15.8125Z" fill="#276899"/>
</svg>
