<svg width="28" height="28" viewBox="0 0 28 28" fill="none" xmlns="http://www.w3.org/2000/svg">
<path d="M26.3227 22.5444C27.4222 21.0473 27.9999 19.3076 27.9999 17.474C27.9999 14.5388 26.4777 11.8137 23.9097 10.1132C23.6729 7.49808 22.4518 5.07286 20.4102 3.20424C18.1527 1.13799 15.1575 0 11.9765 0C8.79555 0 5.80044 1.13799 3.54284 3.2043C1.25823 5.29527 3.64687e-05 8.08313 3.64687e-05 11.0543C3.64687e-05 13.3396 0.736728 15.5062 2.13716 17.36L0.0797705 22.4494C-0.0870803 22.8621 0.0128333 23.3348 0.33248 23.6446C0.540839 23.8465 0.815259 23.9531 1.09405 23.9531C1.24297 23.9531 1.39314 23.9227 1.535 23.8602L7.403 21.2735C8.13969 21.555 8.89864 21.7657 9.67509 21.9051C10.4704 23.2132 11.6048 24.3209 12.9839 25.1272C14.5236 26.0273 16.3013 26.5082 18.1299 26.5221C18.1568 26.524 18.1835 26.5262 18.2109 26.5262C19.4752 26.5262 20.7 26.3078 21.8588 25.8765L26.465 27.907C26.6069 27.9696 26.757 28 26.9059 28C27.1847 28 27.4592 27.8935 27.6675 27.6915C27.9872 27.3816 28.0871 26.9089 27.9202 26.4963L26.3227 22.5444ZM24.0564 22.7749L24.8826 24.8189L22.3212 23.6898C22.0444 23.5678 21.7293 23.5658 21.4508 23.6846C20.4469 24.1129 19.372 24.3324 18.2552 24.3381C18.2404 24.3375 18.2259 24.3359 18.2109 24.3359C16.0554 24.3359 14.0191 23.4936 12.5965 22.0924C14.4002 22.006 16.1683 21.5454 17.7446 20.7449C18.2832 20.4714 18.498 19.813 18.2245 19.2744C17.951 18.7358 17.2926 18.5211 16.754 18.7945C15.3029 19.5315 13.6509 19.9211 11.9765 19.9211C10.5216 19.9211 9.12094 19.6382 7.81353 19.0804C7.53523 18.9616 7.22001 18.9634 6.94313 19.0856L3.11732 20.7721L4.40542 17.5857C4.55816 17.2078 4.48822 16.7763 4.22381 16.4662C2.89168 14.9034 2.18753 13.032 2.18753 11.0543C2.18753 6.16507 6.57886 2.1875 11.9765 2.1875C17.3742 2.1875 21.7656 6.16507 21.7656 11.0543C21.7656 12.6334 21.3013 14.1837 20.4229 15.5375C20.0941 16.0442 20.2384 16.7215 20.7452 17.0503C21.2518 17.3792 21.9291 17.2348 22.258 16.7281C23.0375 15.5267 23.5583 14.2002 23.7992 12.8225C25.0804 14.0772 25.8124 15.73 25.8124 17.474C25.8124 19.0012 25.268 20.4471 24.238 21.6554C23.9736 21.9656 23.9036 22.3971 24.0564 22.7749ZM13.0156 16.6797C13.0156 17.2837 12.5259 17.7734 11.9219 17.7734C11.3178 17.7734 10.8281 17.2837 10.8281 16.6797C10.8281 16.0756 11.3178 15.5859 11.9219 15.5859C12.5259 15.5859 13.0156 16.0756 13.0156 16.6797ZM16.0772 8.48486C16.0778 8.50006 16.0781 8.51526 16.0781 8.53063C16.0785 10.1771 15.1002 11.6588 13.5859 12.3053C13.2725 12.4391 13.07 12.7547 13.07 13.1092V13.1797C13.07 13.7837 12.5803 14.2734 11.9762 14.2734C11.3721 14.2734 10.8825 13.7837 10.8825 13.1797V13.1093C10.8825 11.8771 11.6065 10.7719 12.727 10.2935C13.4244 9.99576 13.8783 9.31868 13.8904 8.56252C13.8901 8.55202 13.8899 8.54146 13.8899 8.53091C13.8899 7.47571 13.0315 6.61723 11.9762 6.61723C10.921 6.61717 10.0625 7.47566 10.0625 8.53085C10.0625 9.13493 9.57282 9.6246 8.96875 9.6246C8.36467 9.6246 7.875 9.13493 7.875 8.53085C7.875 6.26947 9.71479 4.42968 11.9762 4.42968C14.2223 4.42968 16.0525 6.24459 16.0772 8.48486Z" fill="#276899"/>
</svg>
