<svg width="16" height="16" viewBox="0 0 16 16" fill="none" xmlns="http://www.w3.org/2000/svg">
<circle r="8" transform="matrix(-1 0 0 1 8 8)" fill="#276899"/>
<mask id="path-2-inside-1_1278_5881" fill="white">
<path d="M8.00017 2.82349L6.94364 6.40034H3.52461L6.29066 8.61096L5.23412 12.1878L8.00017 9.97719L10.7662 12.1878L9.70968 8.61096L12.4757 6.40034H9.05671L8.00017 2.82349Z"/>
</mask>
<path d="M8.00017 2.82349L6.94364 6.40034H3.52461L6.29066 8.61096L5.23412 12.1878L8.00017 9.97719L10.7662 12.1878L9.70968 8.61096L12.4757 6.40034H9.05671L8.00017 2.82349Z" fill="white"/>
<path d="M8.00017 2.82349L3.20499 1.40708L8.00017 -14.8268L12.7954 1.40708L8.00017 2.82349ZM6.94364 6.40034L11.7388 7.81675L10.6803 11.4003H6.94364V6.40034ZM3.52461 6.40034L0.40305 10.3062L-10.7405 1.40034H3.52461V6.40034ZM6.29066 8.61096L9.41222 4.70508L12.0381 6.80365L11.0858 10.0274L6.29066 8.61096ZM5.23412 12.1878L8.35569 16.0937L-4.06538 26.0206L0.438941 10.7714L5.23412 12.1878ZM8.00017 9.97719L4.87861 6.07132L8.00017 3.57658L11.1217 6.07132L8.00017 9.97719ZM10.7662 12.1878L15.5614 10.7714L20.0657 26.0206L7.64466 16.0937L10.7662 12.1878ZM9.70968 8.61096L4.9145 10.0274L3.96228 6.80365L6.58812 4.70508L9.70968 8.61096ZM12.4757 6.40034V1.40034H26.7408L15.5973 10.3062L12.4757 6.40034ZM9.05671 6.40034V11.4003H5.32005L4.26153 7.81675L9.05671 6.40034ZM12.7954 4.2399L11.7388 7.81675L2.14845 4.98393L3.20499 1.40708L12.7954 4.2399ZM6.94364 11.4003H3.52461V1.40034H6.94364V11.4003ZM6.64617 2.49447L9.41222 4.70508L3.1691 12.5168L0.40305 10.3062L6.64617 2.49447ZM11.0858 10.0274L10.0293 13.6042L0.438941 10.7714L1.49548 7.19455L11.0858 10.0274ZM2.11256 8.28194L4.87861 6.07132L11.1217 13.8831L8.35569 16.0937L2.11256 8.28194ZM11.1217 6.07132L13.8878 8.28194L7.64466 16.0937L4.87861 13.8831L11.1217 6.07132ZM5.97104 13.6042L4.9145 10.0274L14.5049 7.19455L15.5614 10.7714L5.97104 13.6042ZM6.58812 4.70508L9.35417 2.49447L15.5973 10.3062L12.8312 12.5168L6.58812 4.70508ZM12.4757 11.4003H9.05671V1.40034H12.4757V11.4003ZM4.26153 7.81675L3.20499 4.2399L12.7954 1.40708L13.8519 4.98393L4.26153 7.81675Z" fill="white" mask="url(#path-2-inside-1_1278_5881)"/>
</svg>
