<svg width="26" height="27" viewBox="0 0 26 27" fill="none" xmlns="http://www.w3.org/2000/svg">
<path d="M13.3758 9.13369C13.3758 8.93092 13.2931 8.73645 13.1459 8.59307C12.9986 8.44969 12.7989 8.36914 12.5907 8.36914C12.3825 8.36914 12.1828 8.44969 12.0356 8.59307C11.8884 8.73645 11.8057 8.93092 11.8057 9.13369V15.8006L16.4376 18.8588C16.5229 18.9213 16.6204 18.9662 16.7241 18.9908C16.8279 19.0153 16.9357 19.019 17.0409 19.0016C17.1462 18.9841 17.2467 18.946 17.3363 18.8895C17.4259 18.833 17.5027 18.7592 17.5621 18.6728C17.6214 18.5864 17.662 18.489 17.6814 18.3868C17.7009 18.2846 17.6987 18.1795 17.675 18.0782C17.6513 17.9768 17.6066 17.8812 17.5437 17.7972C17.4807 17.7132 17.4009 17.6426 17.309 17.5897L13.3837 14.9978L13.3758 9.13369Z" fill="#8AA8D4"/>
<path d="M24.5242 10.7085C24.0471 10.9213 23.5427 11.0704 23.0247 11.152C23.8531 13.449 23.8558 15.952 23.0322 18.2507C22.2086 20.5494 20.6077 22.5074 18.4917 23.8039C16.3757 25.1004 13.8703 25.6585 11.386 25.3866C8.90173 25.1147 6.58595 24.0291 4.81824 22.3075C3.05053 20.586 1.93573 18.3307 1.65656 15.9114C1.37739 13.492 1.95041 11.052 3.2817 8.99136C4.61299 6.93069 6.62358 5.37155 8.98394 4.56949C11.3443 3.76743 13.9144 3.77001 16.2731 4.57682C16.3568 4.07235 16.51 3.58116 16.7284 3.11652C14.0327 2.20878 11.1006 2.21801 8.41103 3.1427C5.72142 4.0674 3.43323 5.85292 1.92018 8.20765C0.407129 10.5624 -0.241367 13.3472 0.0806061 16.1072C0.402579 18.8672 1.67599 21.4393 3.69287 23.4035C5.70975 25.3677 8.3509 26.6078 11.185 26.9214C14.019 27.2349 16.8785 26.6034 19.2964 25.1299C21.7143 23.6563 23.5478 21.4279 24.4973 18.8086C25.4468 16.1893 25.4563 13.3338 24.5242 10.7085Z" fill="#8AA8D4"/>
<path d="M12.653 5.79199C10.4044 5.79661 8.23761 6.61401 6.5726 8.08577C4.90759 9.55754 3.8629 11.5789 3.641 13.758C3.4191 15.9371 4.03578 18.1189 5.37153 19.8805C6.70729 21.6421 8.66699 22.858 10.8708 23.2926L11.0828 22.0923C9.92928 21.8934 8.83607 21.4456 7.88333 20.7818C6.93059 20.118 6.14247 19.2549 5.57676 18.2559C5.01104 17.2569 4.68207 16.1472 4.61397 15.0083C4.54586 13.8694 4.74034 12.73 5.18315 11.6738C5.62596 10.6176 6.30587 9.67129 7.17305 8.90424C8.04022 8.1372 9.07267 7.56888 10.1947 7.24094C11.3167 6.913 12.4999 6.83376 13.6575 7.00903C14.815 7.1843 15.9176 7.60964 16.8845 8.25386C16.5885 7.72087 16.3818 7.14532 16.2721 6.5489C15.1327 6.05481 13.9002 5.79704 12.653 5.79199Z" fill="#8AA8D4"/>
<path d="M22.0748 9.32522C24.2427 9.32522 26.0001 7.61371 26.0001 5.50246C26.0001 3.3912 24.2427 1.67969 22.0748 1.67969C19.9068 1.67969 18.1494 3.3912 18.1494 5.50246C18.1494 7.61371 19.9068 9.32522 22.0748 9.32522Z" fill="#8AA8D4"/>
<path d="M14.5928 4.80762L17.0531 3.79842L15.4405 1.72643" stroke="#8AA8D4" stroke-width="2" stroke-linecap="round" stroke-linejoin="round"/>
</svg>
