<svg width="26" height="26" viewBox="0 0 26 26" fill="none" xmlns="http://www.w3.org/2000/svg">
<path fill-rule="evenodd" clip-rule="evenodd" d="M4.28683 11.4694C9.08252 6.57893 16.8981 6.43636 21.7081 11.1516C22.641 12.0661 22.6432 13.5819 21.7125 14.531C21.6418 14.6031 21.5671 14.6714 21.486 14.7346L17.7899 12.4887C17.8442 12.3135 17.9037 12.1226 17.9581 11.9461C18.2272 11.0792 18.4206 10.4523 17.6895 10.1537C14.7481 8.79549 11.2394 8.85949 8.33796 10.308C7.56755 10.6523 7.76868 11.27 8.03971 12.1264C8.09458 12.3022 8.15401 12.4902 8.20887 12.6634L4.51967 15.0441C4.44093 14.9851 4.36478 14.9196 4.29252 14.8487C3.35903 13.9336 3.35677 12.4178 4.28683 11.4694ZM3.53204 16.6164C3.72074 16.7494 3.92112 16.8641 4.12732 16.9598C4.41157 17.093 4.74824 17.0687 5.01579 16.8961L9.77779 13.8224C10.0388 13.6512 10.2016 13.3642 10.2076 13.0547C10.2112 12.8726 10.2112 12.8687 9.82459 11.6459C11.8482 10.8517 14.12 10.8084 16.1705 11.5321C15.7889 12.7663 15.7882 12.7709 15.7924 12.9528C15.7994 13.2621 15.9623 13.5451 16.2245 13.7048L20.9954 16.6046C21.2647 16.7674 21.6002 16.7795 21.884 16.6358C22.0919 16.5319 22.2919 16.4087 22.4756 16.2721C22.6652 16.1347 22.8451 15.98 23.0145 15.8072C24.6604 14.1288 24.657 11.4462 23.0062 9.82788C17.4782 4.40877 8.49711 4.57195 2.98489 10.1931C1.33895 11.8716 1.3436 14.5541 2.99446 16.1724C3.16306 16.3377 3.34334 16.4859 3.53204 16.6164Z" fill="#515960"/>
<path d="M22.5 20H13H3.5C3.22386 20 3 20.2239 3 20.5C3 20.7761 3.22386 21 3.5 21H22.5C22.7761 21 23 20.7761 23 20.5C23 20.2239 22.7761 20 22.5 20Z" stroke="#515960"/>
</svg>
