<svg width="27" height="18" viewBox="0 0 27 18" fill="none" xmlns="http://www.w3.org/2000/svg">
<path d="M16.5132 10.9787L15.6194 10.0303C16.1373 9.48066 16.7718 9.07073 17.4698 8.83487L17.7782 10.1305C17.218 10.3442 16.8341 10.6448 16.5132 10.9787ZM20.2957 11.2258L22.1523 8.99977L22.0579 8.88162L20.2957 7.01831C20.2513 6.97216 20.1951 6.94098 20.134 6.9287C20.073 6.91642 20.0099 6.92358 19.9527 6.94929C19.8955 6.975 19.8467 7.01811 19.8125 7.07318C19.7784 7.12825 19.7603 7.19281 19.7607 7.25874V8.46755C19.2509 8.48091 19.0999 8.234 18.7034 8.30747V9.89008C19.0055 9.84333 19.3642 9.80994 19.7607 9.80326V10.992C19.7616 11.0574 19.7805 11.121 19.8151 11.1751C19.8498 11.2292 19.8986 11.2712 19.9555 11.2961C20.0125 11.321 20.0751 11.3276 20.1356 11.3151C20.196 11.3026 20.2517 11.2715 20.2957 11.2258ZM20.2957 17.9043L22.0516 16.041C22.1775 15.9074 22.1775 15.7004 22.0516 15.5668L20.2957 13.7035C20.1006 13.4898 19.7607 13.6367 19.7607 13.9373V15.126C17.4446 15.0593 16.7712 14.2712 16.06 13.4297C15.7831 13.0958 15.481 12.7552 15.0845 12.4613C15.3929 12.2342 15.6383 11.9738 15.8649 11.7066L14.9775 10.765C14.4425 11.3861 14.0083 11.7935 12.8376 11.7935H10.3201C9.97399 11.7935 9.69078 12.094 9.69078 12.4613C9.69078 12.8286 9.97399 13.1292 10.3201 13.1292H12.8376C14.109 13.1292 14.5118 13.6033 15.1222 14.3246C15.9027 15.2463 16.8719 16.3816 19.7607 16.4618V17.6639C19.7603 17.7298 19.7784 17.7944 19.8125 17.8494C19.8467 17.9045 19.8955 17.9476 19.9527 17.9733C20.0099 17.999 20.073 18.0062 20.134 17.9939C20.1951 17.9816 20.2513 17.9505 20.2957 17.9043Z" fill="#276899"/>
<path d="M16.5132 7.02132L15.6195 7.96967C16.1374 8.51934 16.7719 8.92927 17.4698 9.16513L17.7782 7.86949C17.2181 7.65578 16.8342 7.35525 16.5132 7.02132ZM20.2957 6.77421L22.0579 8.89124C22.1838 9.02481 22.1838 8.98481 22.0579 9.11838L20.2957 10.9817C20.2513 11.0278 20.1951 11.059 20.134 11.0713C20.073 11.0836 20.0099 11.0764 19.9527 11.0507C19.8955 11.025 19.8467 10.9819 19.8126 10.9268C19.7784 10.8718 19.7604 10.8072 19.7607 10.7413V9.53245C19.2509 9.51909 19.0999 9.60591 18.7034 9.53245V8.10992C19.0055 8.15667 19.3642 8.19006 19.7607 8.19674V7.00796C19.7616 6.9426 19.7805 6.87895 19.8152 6.8249C19.8498 6.77084 19.8986 6.72877 19.9556 6.70388C20.0125 6.67899 20.0751 6.67239 20.1356 6.68489C20.196 6.69739 20.2517 6.72845 20.2957 6.77421ZM20.2957 0.0956869L22.0516 1.95899C22.1775 2.09256 22.1775 2.2996 22.0516 2.43317L20.2957 4.29648C20.1006 4.51019 19.7607 4.36327 19.7607 4.06273V2.87395C17.4447 2.94074 16.7712 3.72881 16.06 4.5703C15.7831 4.90423 15.481 5.24483 15.0845 5.53869C15.3929 5.76576 15.6384 6.02622 15.8649 6.29336L14.9775 7.23503C14.4426 6.61393 14.0083 6.20654 12.8377 6.20654H10.3202C9.97402 6.20654 9.69081 5.90601 9.69081 5.53869C9.69081 5.17137 9.97402 4.87083 10.3202 4.87083H12.8377C14.109 4.87083 14.5118 4.39666 15.1223 3.67538C15.9027 2.75374 16.8719 1.61839 19.7607 1.53825V0.336112C19.7604 0.270185 19.7784 0.205622 19.8126 0.150554C19.8467 0.0954857 19.8955 0.0523787 19.9527 0.0266666C20.0099 0.000955582 20.073 -0.00621128 20.134 0.00607109C20.1951 0.0183544 20.2513 0.0495358 20.2957 0.0956869Z" fill="#276899"/>
<circle cx="6.23077" cy="9.0003" r="5.48077" stroke="#276899" stroke-width="1.5"/>
<circle cx="24.2293" cy="8.99977" r="1.72692" stroke="#276899" stroke-width="0.7"/>
<circle cx="24.2293" cy="15.9226" r="1.72692" stroke="#276899" stroke-width="0.7"/>
<circle cx="24.2293" cy="2.07692" r="1.72692" stroke="#276899" stroke-width="0.7"/>
</svg>
