<svg width="24" height="22" viewBox="0 0 24 22" fill="none" xmlns="http://www.w3.org/2000/svg">
<path fill-rule="evenodd" clip-rule="evenodd" d="M19.6133 13.0869C19.2931 12.9655 18.9504 12.903 18.6044 12.903C18.281 12.886 17.9579 12.9404 17.6618 13.0617C17.4055 13.1761 17.1611 13.3118 16.9314 13.4671C16.7079 13.6172 16.5034 13.7901 16.3217 13.9826C16.145 14.1711 15.9735 14.344 15.8053 14.4996C15.6527 14.6424 15.488 14.7738 15.3128 14.8924C15.1359 15.0097 14.9193 15.0642 14.7026 15.046C14.4859 15.0278 14.2835 14.9382 14.1323 14.7934C13.9454 14.6312 13.7597 14.4678 13.5752 14.3031C13.3374 14.0894 13.0453 13.8317 12.7005 13.5284C12.3397 13.2118 11.9813 12.8928 11.6254 12.5714L10.4704 11.528C9.76127 10.8865 9.07583 10.223 8.41526 9.53857C8.17802 9.29727 7.95627 9.04331 7.75116 8.778C7.5915 8.56586 7.51167 8.41029 7.51167 8.31129C7.50181 8.13391 7.56287 7.95938 7.68322 7.821C7.80721 7.67329 7.95497 7.52243 8.12142 7.36529C8.29127 7.21129 8.47641 7.04629 8.67852 6.875C8.88234 6.70214 9.06917 6.51829 9.23732 6.32186C9.40377 6.12543 9.54644 5.90071 9.66194 5.64614C9.77574 5.39471 9.83349 5.10714 9.83349 4.78814C9.83347 4.13969 9.55699 3.51742 9.06408 3.05643C8.74675 2.76823 8.44572 2.46507 8.16219 2.14814C7.83813 1.79113 7.48799 1.4551 7.11423 1.14243C6.75139 0.835222 6.35525 0.563496 5.93209 0.331571C5.54777 0.116331 5.10748 0.0017259 4.65823 0C3.95795 0.00043031 3.28606 0.256197 2.78821 0.711857C2.32793 1.13771 1.92539 1.518 1.5806 1.85429C1.2497 2.17268 0.955947 2.52242 0.704184 2.89771C0.460193 3.2701 0.281346 3.67582 0.17426 4.09986C0.0495834 4.624 -0.00855794 5.15981 0.00101554 5.69643C0.00101554 6.56386 0.15218 7.46428 0.45281 8.39771C0.75344 9.32957 1.15938 10.2599 1.67231 11.1839C2.18525 12.1094 2.81029 13.0177 3.54403 13.9103C4.27777 14.8013 5.07436 15.6483 5.93209 16.4513C6.78982 17.2527 7.7019 17.9944 8.66663 18.6733C9.62967 19.3521 10.6165 19.9383 11.6254 20.4286C12.6326 20.9204 13.6466 21.3039 14.6639 21.582C15.6278 21.8531 16.6289 21.9939 17.6363 22C18.212 21.9997 18.7861 21.9418 19.3483 21.8271C19.8117 21.7304 20.2551 21.5648 20.6613 21.3369C21.0519 21.1169 21.4256 20.8466 21.7891 20.5276C22.1525 20.207 22.5585 19.8393 23.0103 19.4213C23.503 18.9602 23.7795 18.338 23.7797 17.6896C23.7604 17.414 23.7022 17.1419 23.6064 16.8803C23.5071 16.6063 23.3596 16.3493 23.1699 16.1197C22.9717 15.879 22.7632 15.6457 22.5449 15.4204C22.3199 15.1873 22.0812 14.9659 21.8298 14.7573C21.587 14.556 21.3436 14.3553 21.0995 14.1554C20.8858 13.9811 20.6779 13.8008 20.4761 13.6149C20.2301 13.3867 19.9366 13.207 19.6133 13.0869ZM18.99 20.2934C18.5469 20.392 18.0919 20.4374 17.6363 20.4286C16.763 20.4133 15.8964 20.2853 15.0614 20.0483C14.1271 19.787 13.2244 19.4374 12.3676 19.0049C10.4627 18.0398 8.71946 16.8239 7.19236 15.3953C6.41615 14.669 5.68519 13.9025 5.00302 13.0994C4.34074 12.323 3.75525 11.4931 3.25359 10.6197C2.78604 9.81212 2.40327 8.96491 2.11052 8.08971C1.84454 7.30314 1.70602 6.48444 1.69949 5.66029C1.69906 5.24207 1.75266 4.8253 1.85915 4.41886C1.95596 4.07629 2.10203 3.76829 2.29735 3.49957C2.49098 3.22929 2.73046 2.96686 3.01241 2.71386C3.29606 2.45929 3.61877 2.16386 3.98054 1.82914C4.06861 1.74536 4.17438 1.67924 4.29126 1.6349C4.40814 1.59057 4.53364 1.56896 4.65993 1.57143C4.76524 1.56357 4.92829 1.628 5.14909 1.76786C5.36989 1.90771 5.60938 2.07429 5.86585 2.27071C6.41972 2.69816 6.93077 3.17098 7.39278 3.68343C7.60509 3.91914 7.78173 4.13757 7.9227 4.334C8.06367 4.53043 8.13501 4.68129 8.13501 4.78814C8.15026 4.96614 8.08857 5.14247 7.96347 5.27843C7.83948 5.41043 7.69171 5.56129 7.52526 5.73414C7.35541 5.90543 7.17028 6.06886 6.96816 6.22443C6.76434 6.38 6.57751 6.56386 6.40936 6.776C6.24058 6.9901 6.09816 7.22095 5.98474 7.46429C5.86507 7.73321 5.80667 8.02209 5.8132 8.31286C5.82169 8.64757 5.89302 8.96186 6.02551 9.25571C6.15799 9.55114 6.34822 9.81357 6.59619 10.0414L12.9247 15.8981C13.1682 16.1288 13.4594 16.3117 13.781 16.4359C14.1026 16.5601 14.448 16.623 14.7964 16.621C15.1151 16.6366 15.4334 16.5828 15.7255 16.4639C16.2357 16.2452 16.6919 15.9317 17.0656 15.543C17.2524 15.3544 17.4223 15.1816 17.5836 15.026C17.7416 14.872 17.9063 14.74 18.0745 14.6331C18.2293 14.5312 18.4143 14.4757 18.6044 14.4744C18.7284 14.4744 18.8965 14.5404 19.1089 14.6709C19.3212 14.8013 19.5556 14.9694 19.812 15.1737C20.0685 15.378 20.3335 15.6043 20.6086 15.8494C20.8821 16.0946 21.1266 16.3397 21.339 16.5864C21.5496 16.8316 21.7279 17.0531 21.8689 17.2496C22.0099 17.446 22.0812 17.5953 22.0812 17.7037C22.0824 17.818 22.0584 17.9314 22.0105 18.0368C21.9625 18.1422 21.8918 18.2374 21.8026 18.3166C21.4222 18.6607 21.0995 18.9609 20.8345 19.2123C20.577 19.4599 20.2924 19.6822 19.9853 19.8754C19.6811 20.0653 19.3447 20.2066 18.99 20.2934Z" fill="#276899"/>
<path fill-rule="evenodd" clip-rule="evenodd" d="M23.2083 0.554156C23.5213 0.85732 23.5213 1.35934 23.2083 1.66255L16.228 8.42569H18.721C19.1558 8.42569 19.5082 8.77811 19.5082 9.21285C19.5082 9.64758 19.1558 10 18.721 10H14.284C13.8187 10 13.4414 9.62275 13.4414 9.15739V4.94596C13.4414 4.49649 13.8058 4.13213 14.2552 4.13213C14.7047 4.13213 15.0691 4.49649 15.0691 4.94596V7.30479L22.0631 0.553195C22.3826 0.244714 22.8892 0.245139 23.2083 0.554156Z" fill="#FF3A29"/>
</svg>
