<svg width="28" height="28" viewBox="0 0 28 20" fill="none" xmlns="http://www.w3.org/2000/svg">
<path d="M17.3908 11.9699L16.4971 11.0215C17.015 10.4719 17.6495 10.0619 18.3475 9.82608L18.6559 11.1217C18.0957 11.3354 17.7118 11.636 17.3908 11.9699ZM21.1734 12.217L23.03 9.99099L22.9356 9.87283L21.1734 8.00952C21.129 7.96337 21.0727 7.93219 21.0117 7.91991C20.9507 7.90763 20.8876 7.91479 20.8303 7.9405C20.7731 7.96622 20.7244 8.00932 20.6902 8.06439C20.6561 8.11946 20.638 8.18402 20.6384 8.24995V9.45876C20.1286 9.47212 19.9776 9.22521 19.581 9.29868V10.8813C19.8831 10.8345 20.2419 10.8011 20.6384 10.7945V11.9832C20.6393 12.0486 20.6582 12.1123 20.6928 12.1663C20.7274 12.2204 20.7763 12.2624 20.8332 12.2873C20.8902 12.3122 20.9528 12.3188 21.0132 12.3063C21.0737 12.2938 21.1294 12.2628 21.1734 12.217ZM21.1734 18.8955L22.9293 17.0322C23.0552 16.8986 23.0552 16.6916 22.9293 16.558L21.1734 14.6947C20.9783 14.481 20.6384 14.6279 20.6384 14.9285V16.1173C18.3223 16.0505 17.6489 15.2624 16.9377 14.4209C16.6608 14.087 16.3587 13.7464 15.9622 13.4525C16.2706 13.2255 16.516 12.965 16.7426 12.6979L15.8552 11.7562C15.3202 12.3773 14.8859 12.7847 13.7153 12.7847H11.1978C10.8517 12.7847 10.5685 13.0852 10.5685 13.4525C10.5685 13.8198 10.8517 14.1204 11.1978 14.1204H13.7153C14.9866 14.1204 15.3894 14.5946 15.9999 15.3158C16.7804 16.2375 17.7496 17.3728 20.6384 17.453V18.6551C20.638 18.721 20.6561 18.7856 20.6902 18.8407C20.7244 18.8957 20.7731 18.9388 20.8303 18.9645C20.8876 18.9903 20.9507 18.9974 21.0117 18.9851C21.0727 18.9729 21.129 18.9417 21.1734 18.8955Z" fill="#454D54"/>
<path d="M17.3909 8.01448L16.4972 8.96284C17.0151 9.5125 17.6496 9.92244 18.3475 10.1583L18.6559 8.86266C18.0958 8.64894 17.7118 8.34841 17.3909 8.01448ZM21.1734 7.76738L22.9356 9.88441C23.0615 10.018 23.0615 9.97797 22.9356 10.1115L21.1734 11.9749C21.129 12.021 21.0728 12.0522 21.0117 12.0645C20.9507 12.0767 20.8876 12.0696 20.8304 12.0439C20.7732 12.0182 20.7244 11.9751 20.6902 11.92C20.6561 11.8649 20.6381 11.8004 20.6384 11.7344V10.5256C20.1286 10.5123 19.9776 10.5991 19.5811 10.5256V9.10308C19.8832 9.14983 20.2419 9.18323 20.6384 9.1899V8.00113C20.6393 7.93577 20.6582 7.87212 20.6928 7.81806C20.7275 7.76401 20.7763 7.72193 20.8333 7.69704C20.8902 7.67216 20.9528 7.66555 21.0133 7.67806C21.0737 7.69056 21.1294 7.72162 21.1734 7.76738ZM21.1734 1.08885L22.9293 2.95216C23.0552 3.08573 23.0552 3.29276 22.9293 3.42634L21.1734 5.28964C20.9783 5.50336 20.6384 5.35643 20.6384 5.0559V3.86712C18.3223 3.9339 17.6489 4.72197 16.9377 5.56346C16.6608 5.89739 16.3587 6.23799 15.9622 6.53185C16.2706 6.75892 16.516 7.01938 16.7426 7.28652L15.8552 8.2282C15.3202 7.60709 14.886 7.1997 13.7153 7.1997H11.1979C10.8517 7.1997 10.5685 6.89917 10.5685 6.53185C10.5685 6.16453 10.8517 5.864 11.1979 5.864H13.7153C14.9867 5.864 15.3895 5.38982 16 4.66854C16.7804 3.7469 17.7496 2.61155 20.6384 2.53141V1.32928C20.6381 1.26335 20.6561 1.19879 20.6902 1.14372C20.7244 1.08865 20.7732 1.04554 20.8304 1.01983C20.8876 0.99412 20.9507 0.986953 21.0117 0.999235C21.0728 1.01152 21.129 1.0427 21.1734 1.08885Z" fill="#454D54"/>
<circle cx="25.107" cy="9.99099" r="1.72692" stroke="#454D54" stroke-width="0.7"/>
<circle cx="25.107" cy="16.9168" r="1.72692" stroke="#454D54" stroke-width="0.7"/>
<circle cx="25.107" cy="3.06911" r="1.72692" stroke="#454D54" stroke-width="0.7"/>
<path fill-rule="evenodd" clip-rule="evenodd" d="M7.10528 14.7233C9.71801 14.7233 11.8361 12.6052 11.8361 9.99249C11.8361 7.37976 9.71801 5.26172 7.10528 5.26172C4.49255 5.26172 2.37451 7.37976 2.37451 9.99249C2.37451 12.6052 4.49255 14.7233 7.10528 14.7233ZM7.10528 16.2233C10.5464 16.2233 13.3361 13.4336 13.3361 9.99249C13.3361 6.55133 10.5464 3.76172 7.10528 3.76172C3.66412 3.76172 0.874512 6.55133 0.874512 9.99249C0.874512 13.4336 3.66412 16.2233 7.10528 16.2233Z" fill="#454D54"/>
<path d="M5.39987 8.40079C5.50595 8.29471 5.64983 8.23511 5.79986 8.23511C5.94989 8.23511 6.09377 8.29471 6.19985 8.40079L8.5998 10.8007C8.70589 10.9068 8.76548 11.0507 8.76548 11.2007C8.76548 11.3508 8.70589 11.4946 8.5998 11.6007C8.49372 11.7068 8.34984 11.7664 8.19981 11.7664C8.04978 11.7664 7.9059 11.7068 7.79982 11.6007L5.39987 9.20077C5.29379 9.09469 5.23419 8.95081 5.23419 8.80078C5.23419 8.65076 5.29379 8.50687 5.39987 8.40079Z" fill="#454D54"/>
<path d="M8.59945 8.39999C8.70554 8.50608 8.76514 8.64996 8.76514 8.79998C8.76514 8.95001 8.70554 9.09389 8.59945 9.19997L6.19951 11.5999C6.09342 11.706 5.94954 11.7656 5.79951 11.7656C5.64949 11.7656 5.50561 11.706 5.39952 11.5999C5.29344 11.4938 5.23384 11.35 5.23384 11.1999C5.23384 11.0499 5.29344 10.906 5.39952 10.7999L7.79947 8.39999C7.90556 8.29391 8.04944 8.23431 8.19946 8.23431C8.34949 8.23431 8.49337 8.29391 8.59945 8.39999Z" fill="#454D54"/>
<path d="M4.54915 14.4446L5.76972 14.6622C5.73807 14.9127 5.40181 16.9059 3.27764 16.8664C3.09111 16.0489 2.25081 15.5254 1.40677 15.6986C1.00096 15.7828 0.647631 16.0194 0.424232 16.3565C0.200834 16.6937 0.12559 17.1039 0.214993 17.4972C0.407343 18.3103 1.24182 18.8382 2.08587 18.665C2.5497 18.5811 2.94157 18.2744 3.15101 17.8683C4.0565 17.9115 4.94143 17.6163 5.6222 17.0437C6.30296 16.4712 6.72731 15.6653 6.80719 14.7934L7.88303 15.02L6.54172 12.7241L4.54915 14.4446ZM1.82203 16.7079C1.95961 16.7253 2.08488 16.7947 2.17028 16.901C2.25569 17.0072 2.29424 17.1415 2.27744 17.2744C2.26065 17.4072 2.1899 17.5277 2.08074 17.6094C1.97159 17.691 1.83297 17.7271 1.6954 17.7097C1.55782 17.6923 1.43255 17.6229 1.34714 17.5167C1.26174 17.4104 1.22319 17.2761 1.23998 17.1432C1.25677 17.0104 1.32753 16.8899 1.43669 16.8082C1.54584 16.7266 1.68445 16.6905 1.82203 16.7079Z" fill="#454D54"/>
<path d="M8.59831 4.96949L7.37774 4.75184C7.40939 4.50138 7.74565 2.50817 9.86982 2.54764C10.0563 3.36515 10.8966 3.88868 11.7407 3.71545C12.1465 3.63126 12.4998 3.39466 12.7232 3.05752C12.9466 2.72038 13.0219 2.3102 12.9325 1.91689C12.7401 1.10374 11.9056 0.575857 11.0616 0.749082C10.5978 0.832955 10.2059 1.13967 9.99645 1.54579C9.09096 1.50252 8.20603 1.79779 7.52527 2.37033C6.8445 2.94287 6.42015 3.74873 6.34027 4.62071L5.26443 4.39404L6.60574 6.68998L8.59831 4.96949ZM11.3254 2.70618C11.1879 2.68879 11.0626 2.61934 10.9772 2.5131C10.8918 2.40686 10.8532 2.27254 10.87 2.13969C10.8868 2.00683 10.9576 1.88633 11.0667 1.80468C11.1759 1.72304 11.3145 1.68694 11.4521 1.70433C11.5896 1.72172 11.7149 1.79117 11.8003 1.89741C11.8857 2.00365 11.9243 2.13797 11.9075 2.27082C11.8907 2.40367 11.8199 2.52418 11.7108 2.60582C11.6016 2.68747 11.463 2.72357 11.3254 2.70618Z" fill="#454D54"/>
</svg>
