<svg width="22" height="22" viewBox="0 0 22 22" fill="none" xmlns="http://www.w3.org/2000/svg">
<path fill-rule="evenodd" clip-rule="evenodd" d="M7.1502 8.25001C7.1502 6.12701 8.8772 4.40001 11.0002 4.40001C13.1232 4.40001 14.8502 6.12701 14.8502 8.25001C14.8502 9.98801 13.6842 11.4433 12.1002 11.9207V13.2C12.1002 13.8083 11.6085 14.3 11.0002 14.3C10.3919 14.3 9.9002 13.8083 9.9002 13.2V11C9.9002 10.3917 10.3919 9.90001 11.0002 9.90001C11.9099 9.90001 12.6502 9.15971 12.6502 8.25001C12.6502 7.34031 11.9099 6.60001 11.0002 6.60001C10.0905 6.60001 9.3502 7.34031 9.3502 8.25001C9.3502 8.85831 8.8585 9.35001 8.25021 9.35001C7.6419 9.35001 7.1502 8.85831 7.1502 8.25001ZM9.90002 16.4997C9.90002 15.8914 10.3917 15.3997 11 15.3997C11.6083 15.3997 12.1 15.8914 12.1 16.4997C12.1 17.108 11.6083 17.5997 11 17.5997C10.3917 17.5997 9.90002 17.108 9.90002 16.4997ZM11.0001 19.8C6.148 19.8 2.2001 15.8521 2.2001 11C2.2001 6.14791 6.148 2.20001 11.0001 2.20001C15.8522 2.20001 19.8001 6.14791 19.8001 11C19.8001 15.8521 15.8522 19.8 11.0001 19.8ZM11 0C4.9346 0 0 4.9346 0 11C0 17.0654 4.9346 22 11 22C17.0654 22 22 17.0654 22 11C22 4.9346 17.0654 0 11 0Z" fill="#276899"/>
</svg>
