<svg width="24" height="22" viewBox="0 0 24 22" fill="none" xmlns="http://www.w3.org/2000/svg">
<path fill-rule="evenodd" clip-rule="evenodd" d="M23.7121 1.10629L16.395 8.11777C16.2845 8.22368 16.3594 8.41029 16.5125 8.41029H18.6146C19.0485 8.41029 19.4003 8.76206 19.4003 9.196C19.4003 9.62994 19.0485 9.98171 18.6146 9.98171H14.1141C13.652 9.98171 13.2773 9.6071 13.2773 9.14498V4.94594C13.2773 4.49231 13.6451 4.12457 14.0987 4.12457C14.5524 4.12457 14.9201 4.49231 14.9201 4.94595V6.86449C14.9201 7.02519 15.1127 7.10758 15.2289 6.99661L22.5572 0L23.7121 1.10471V1.10629Z" fill="#276899"/>
<path fill-rule="evenodd" clip-rule="evenodd" d="M20.7644 1.70631C20.8151 1.65772 20.7807 1.57214 20.7105 1.57214H18.3795C17.9456 1.57214 17.5938 1.22036 17.5938 0.786422C17.5938 0.352484 17.9456 0.000707626 18.3795 0.000707626H23.0365C23.4122 0.000707626 23.7168 0.305302 23.7168 0.681038V5.03648C23.7168 5.49011 23.3491 5.85785 22.8954 5.85785C22.4418 5.85785 22.074 5.49011 22.074 5.03648V2.84412C22.074 2.78648 22.005 2.75693 21.9633 2.79674L15.0149 9.43062C14.6915 9.73934 14.1825 9.73909 13.8595 9.43006C13.5447 9.12896 13.5445 8.6262 13.8589 8.32479L20.7644 1.70631Z" fill="#276899"/>
<path fill-rule="evenodd" clip-rule="evenodd" d="M19.6866 13.0869C19.3769 12.9655 19.0455 12.903 18.7108 12.903C18.398 12.886 18.0855 12.9404 17.7991 13.0617C17.5513 13.1761 17.3148 13.3118 17.0927 13.4671C16.8765 13.6172 16.6787 13.7901 16.5029 13.9826C16.3321 14.1711 16.1662 14.344 16.0036 14.4996C15.8559 14.6424 15.6966 14.7738 15.5272 14.8924C15.3561 15.0097 15.1466 15.0642 14.9371 15.046C14.7275 15.0278 14.5317 14.9382 14.3854 14.7934C14.2046 14.6312 14.025 14.4678 13.8466 14.3031C13.6166 14.0894 13.3341 13.8317 13.0006 13.5284C12.6516 13.2118 12.305 12.8928 11.9607 12.5714L10.8437 11.528C10.1578 10.8865 9.49485 10.223 8.85596 9.53857C8.6265 9.29727 8.41203 9.04331 8.21364 8.778C8.05922 8.56586 7.98201 8.41029 7.98201 8.31129C7.97247 8.13391 8.03154 7.95938 8.14793 7.821C8.26785 7.67329 8.41077 7.52243 8.57176 7.36529C8.73604 7.21129 8.9151 7.04629 9.11058 6.875C9.30771 6.70214 9.48841 6.51829 9.65105 6.32186C9.81203 6.12543 9.95003 5.90071 10.0617 5.64614C10.1718 5.39471 10.2277 5.10714 10.2277 4.78814C10.2276 4.13969 9.96023 3.51742 9.48349 3.05643C9.17657 2.76823 8.88541 2.46507 8.61119 2.14814C8.29777 1.79113 7.95911 1.4551 7.59761 1.14243C7.24668 0.835222 6.86353 0.563496 6.45426 0.331571C6.08255 0.116331 5.6567 0.0017259 5.2222 0C4.54488 0.00043031 3.89504 0.256197 3.41353 0.711857C2.96834 1.13771 2.57901 1.518 2.24554 1.85429C1.9255 2.17268 1.64138 2.52242 1.39788 2.89771C1.16189 3.2701 0.988912 3.67582 0.885339 4.09986C0.764753 4.624 0.70852 5.15981 0.717779 5.69643C0.717779 6.56386 0.863984 7.46428 1.15475 8.39771C1.44552 9.32957 1.83813 10.2599 2.33424 11.1839C2.83035 12.1094 3.43489 13.0177 4.14455 13.9103C4.85422 14.8013 5.62467 15.6483 6.45426 16.4513C7.28384 17.2527 8.166 17.9944 9.09908 18.6733C10.0305 19.3521 10.985 19.9383 11.9607 20.4286C12.9349 20.9204 13.9156 21.3039 14.8996 21.582C15.8318 21.8531 16.8001 21.9939 17.7744 22C18.3313 21.9997 18.8865 21.9418 19.4303 21.8271C19.8785 21.7304 20.3073 21.5648 20.7002 21.3369C21.078 21.1169 21.4394 20.8466 21.791 20.5276C22.1425 20.207 22.5351 19.8393 22.9721 19.4213C23.4487 18.9602 23.7161 18.338 23.7163 17.6896C23.6977 17.414 23.6413 17.1419 23.5487 16.8803C23.4526 16.6063 23.31 16.3493 23.1265 16.1197C22.9348 15.879 22.7331 15.6457 22.522 15.4204C22.3044 15.1873 22.0735 14.9659 21.8304 14.7573C21.5956 14.556 21.3601 14.3553 21.124 14.1554C20.9174 13.9811 20.7163 13.8008 20.5211 13.6149C20.2831 13.3867 19.9992 13.207 19.6866 13.0869ZM19.0837 20.2934C18.6551 20.392 18.2151 20.4374 17.7744 20.4286C16.9298 20.4133 16.0916 20.2853 15.284 20.0483C14.3804 19.787 13.5073 19.4374 12.6786 19.0049C10.8363 18.0398 9.15017 16.8239 7.67318 15.3953C6.92243 14.669 6.21546 13.9025 5.55567 13.0994C4.91512 12.323 4.34883 11.4931 3.86364 10.6197C3.41143 9.81212 3.04121 8.96491 2.75807 8.08971C2.50081 7.30314 2.36684 6.48444 2.36053 5.66029C2.36011 5.24207 2.41195 4.8253 2.51495 4.41886C2.60858 4.07629 2.74986 3.76829 2.93878 3.49957C3.12605 3.22929 3.35768 2.96686 3.63037 2.71386C3.90471 2.45929 4.21683 2.16386 4.56674 1.82914C4.65192 1.74536 4.75422 1.67924 4.86726 1.6349C4.98031 1.59057 5.10169 1.56896 5.22384 1.57143C5.32569 1.56357 5.48339 1.628 5.69695 1.76786C5.91051 1.90771 6.14214 2.07429 6.39019 2.27071C6.92589 2.69816 7.42017 3.17098 7.86702 3.68343C8.07236 3.91914 8.24321 4.13757 8.37956 4.334C8.51591 4.53043 8.5849 4.68129 8.5849 4.78814C8.59966 4.96614 8.53998 5.14247 8.41898 5.27843C8.29906 5.41043 8.15614 5.56129 7.99515 5.73414C7.83088 5.90543 7.65182 6.06886 7.45633 6.22443C7.2592 6.38 7.0785 6.56386 6.91587 6.776C6.75263 6.9901 6.61488 7.22095 6.50518 7.46429C6.38943 7.73321 6.33295 8.02209 6.33926 8.31286C6.34748 8.64757 6.41647 8.96186 6.54461 9.25571C6.67274 9.55114 6.85673 9.81357 7.09657 10.0414L13.2175 15.8981C13.453 16.1288 13.7346 16.3117 14.0457 16.4359C14.3567 16.5601 14.6907 16.623 15.0278 16.621C15.336 16.6366 15.6438 16.5828 15.9263 16.4639C16.4198 16.2452 16.861 15.9317 17.2225 15.543C17.4032 15.3544 17.5675 15.1816 17.7235 15.026C17.8763 14.872 18.0356 14.74 18.1983 14.6331C18.348 14.5312 18.527 14.4757 18.7108 14.4744C18.8307 14.4744 18.9934 14.5404 19.1987 14.6709C19.404 14.8013 19.6307 14.9694 19.8788 15.1737C20.1269 15.378 20.3831 15.6043 20.6492 15.8494C20.9137 16.0946 21.1503 16.3397 21.3556 16.5864C21.5593 16.8316 21.7318 17.0531 21.8682 17.2496C22.0045 17.446 22.0735 17.5953 22.0735 17.7037C22.0747 17.818 22.0514 17.9314 22.0051 18.0368C21.9588 18.1422 21.8904 18.2374 21.8041 18.3166C21.4361 18.6607 21.124 18.9609 20.8677 19.2123C20.6187 19.4599 20.3434 19.6822 20.0464 19.8754C19.7522 20.0653 19.4268 20.2066 19.0837 20.2934Z" fill="#276899"/>
</svg>
