<svg width="28" height="25" viewBox="0 0 28 25" fill="none" xmlns="http://www.w3.org/2000/svg">
<g filter="url(#filter0_d)">
<path d="M19.3535 5.17931C19.3535 4.73712 19.8854 4.51259 20.2023 4.82099L23.6304 8.15733C23.8327 8.35414 23.832 8.67922 23.6291 8.87528L20.2009 12.1865C19.8835 12.4931 19.3535 12.2682 19.3535 11.8269V9.996H12.9007C12.6245 9.996 12.4007 9.77214 12.4007 9.496V7.504C12.4007 7.22786 12.6245 7.004 12.9007 7.004H19.3535V5.17931ZM16.1869 13.0239C16.3948 12.8532 16.7004 12.8588 16.8897 13.05L17.9833 14.1543C18.1808 14.3538 18.176 14.6779 17.9639 14.8617C16.3194 16.2872 14.5491 17 12.6532 17C10.2177 17 8.16667 16.1868 6.5 14.5605C4.83333 12.9342 4 10.9027 4 8.466C4 6.936 4.38159 5.51933 5.14478 4.216C5.90797 2.91267 6.93771 1.88417 8.23401 1.1305C9.5303 0.376833 10.936 0 12.4512 0C14.3709 0 16.1985 0.724755 17.934 2.17426C18.1519 2.35629 18.1611 2.68473 17.9622 2.88743L16.8982 3.97209C16.7091 4.16486 16.4022 4.17122 16.1938 3.99951C15.0209 3.03317 13.7789 2.55 12.468 2.55C10.7957 2.55 9.3844 3.13933 8.23401 4.318C7.08361 5.49667 6.5 6.94442 6.5 8.64442C6.5 10.2311 7.09203 11.5968 8.27609 12.7414C9.46016 13.8861 10.849 14.4584 12.4428 14.4584C13.7736 14.4584 15.0216 13.9802 16.1869 13.0239Z" fill="white"/>
</g>
<defs>
<filter id="filter0_d" x="0" y="0" width="27.7817" height="25" filterUnits="userSpaceOnUse" color-interpolation-filters="sRGB">
<feFlood flood-opacity="0" result="BackgroundImageFix"/>
<feColorMatrix in="SourceAlpha" type="matrix" values="0 0 0 0 0 0 0 0 0 0 0 0 0 0 0 0 0 0 127 0"/>
<feOffset dy="4"/>
<feGaussianBlur stdDeviation="2"/>
<feColorMatrix type="matrix" values="0 0 0 0 0 0 0 0 0 0 0 0 0 0 0 0 0 0 0.25 0"/>
<feBlend mode="normal" in2="BackgroundImageFix" result="effect1_dropShadow"/>
<feBlend mode="normal" in="SourceGraphic" in2="effect1_dropShadow" result="shape"/>
</filter>
</defs>
</svg>
