<svg width="156" height="37" viewBox="0 0 156 37" fill="none" xmlns="http://www.w3.org/2000/svg">
<path d="M17.453 36.9607L17.1679 36.926C16.4084 36.8374 15.6689 36.6232 14.9799 36.292L15.0726 36.3198C15.2372 36.3684 15.768 36.5234 15.8027 36.4702C15.7819 36.4262 15.7309 36.3961 14.9405 35.9635L14.7087 35.8432C14.8779 35.7969 15.1051 35.7391 15.2766 35.6997L15.3461 35.7391C15.7703 35.9704 16.1968 36.1092 16.1249 35.908C16.068 35.7983 15.9891 35.7014 15.8931 35.6234C15.6439 35.386 15.341 35.2121 15.01 35.1167C14.0667 33.909 13.8002 32.8562 13.4896 31.6462C13.4131 31.3107 13.3598 30.8549 13.3041 30.5125C13.3598 30.8549 13.4224 31.3084 13.4896 31.6462H13.5452C14.2405 31.7272 14.5117 31.1603 14.3657 30.5657C14.1339 29.6009 12.975 28.9068 12.3121 29.3302C10.743 27.4793 10.2261 26.7528 9.17615 25.3253C9.30025 25.165 9.38881 24.9802 9.43596 24.7832C9.48311 24.5861 9.48778 24.3813 9.44965 24.1823C9.40941 23.8717 9.30242 23.5734 9.13601 23.3079C8.96959 23.0423 8.74768 22.8158 8.48545 22.6438C8.73785 21.1817 9.07527 19.7355 9.49601 18.3126H9.51687C9.81123 18.3404 10.0013 18.0627 10.0152 17.7758C10.0314 17.4635 9.84368 17.1396 9.51223 17.1604C8.96549 15.1954 8.62144 13.1797 8.48545 11.1449C9.49601 10.5295 10.6387 9.83073 12.3747 8.88213L12.4164 8.97699C13.0631 10.1338 14.7226 9.5207 15.0888 8.29909C15.0888 8.25744 15.1167 8.19729 15.1259 8.15333C15.3763 6.92709 14.2591 6.16821 13.1975 6.8438C13.1489 6.87387 13.0886 6.91783 13.0422 6.95254C11.9065 5.27976 11.7257 4.54634 11.4963 3.61856C12.3623 2.69244 13.2917 1.82737 14.2776 1.02958C14.4515 1.07354 14.7736 0.886129 14.973 0.687155C15.1723 0.48818 15.2488 0.31003 15.0657 0.314657C14.7783 0.377648 14.5176 0.52799 14.3193 0.744996L14.7365 0.603865L14.317 0.744996C13.3366 1.0851 13.1581 1.14526 12.5995 1.34886L12.1522 1.51313L12.6204 1.35349C12.7131 1.2193 12.9936 0.807466 12.5509 0.890758C12.1082 0.974049 11.1834 1.45298 10.5529 2.09849L10.4695 2.18872C9.35462 2.65145 8.74041 2.91521 7.59542 3.49825C8.13546 2.8296 8.1795 2.79027 9.28972 1.79771C9.53773 1.66815 9.78805 1.52701 10.4648 1.11749C11.582 0.446534 11.7535 0.34242 11.7976 0.282265C11.3775 0.357539 10.9807 0.529434 10.6387 0.78433C10.6758 0.754252 10.7152 0.719547 10.7499 0.694097C11.0517 0.480233 11.3749 0.29803 11.7141 0.150386L12.0827 0H12.1012L11.9969 0.0370176L11.7373 0.14576L11.5913 0.210542L11.4615 0.268383C11.3989 0.293833 11.2297 0.365556 11.0814 0.439593H11.0675L11.48 0.254502C11.1462 0.401448 10.8292 0.583728 10.5344 0.798211C10.4208 0.858366 10.1218 1.0157 9.76951 1.23087C9.59737 1.26369 9.43051 1.31973 9.2735 1.39745L9.04172 1.53627C9.20409 1.45377 9.37732 1.39457 9.55627 1.36043L9.5076 1.39282C9 1.73293 8.81226 1.92728 8.89802 1.93884H8.92119C7.46793 3.09567 7.46793 3.09567 6.80968 3.78977C6.6511 3.88932 6.50685 4.00997 6.38089 4.14839C5.81332 4.3867 5.28933 4.71742 4.83029 5.12706L4.97167 4.96279C4.89518 5.04608 4.8187 5.12938 4.73989 5.21498L4.56374 5.41627L4.40149 5.61293L4.21375 5.8443C4.12567 5.95304 4.03992 6.07566 3.95648 6.17746C3.98661 6.13582 4.01906 6.09417 4.05151 6.05484L4.1164 5.96923L4.07468 6.02476C3.86701 6.33849 3.67592 6.66285 3.50219 6.9965C3.42338 7.10524 3.35617 7.20473 3.28895 7.3181C3.22174 7.43147 3.18001 7.50319 3.14293 7.57954C2.71414 8.2343 2.17409 9.132 1.79629 9.81916C1.8102 9.77751 1.8102 9.77057 1.79629 9.76363C1.78238 9.75669 1.79629 9.76363 1.6016 10.2032L1.79165 9.76594L1.86351 9.60862L1.75689 9.82378C1.71285 9.90708 1.65954 10.0228 1.65954 10.0251L1.72212 9.87931C1.6804 9.97186 1.63868 10.0644 1.59928 10.157L1.56683 10.231C1.48339 10.423 1.41385 10.5942 1.37213 10.6937C1.35823 10.7261 1.34432 10.7608 1.33273 10.7932L1.30028 10.8765C1.26088 10.9714 1.22611 11.0685 1.18903 11.1657L1.25161 11.0014V11.0199C1.21684 11.1125 1.1983 11.1703 1.18439 11.2189C0.963682 11.7782 0.783965 12.3527 0.646663 12.938C0.767189 12.5215 0.924799 12.0333 1.17512 11.2698C1.17512 11.2698 1.17512 11.2698 1.21452 11.2074V11.1935C0.811226 12.6904 0.609578 13.4447 0.602625 15.2933C0.101981 16.5311 0.0695323 17.1002 0.00926963 18.2339C0.00926963 18.1946 0.00926963 18.1576 0.00926963 18.1182C0.00926963 18.1853 0.00926963 18.2524 0.00926963 18.3172C0.00926963 18.4329 0.00926963 18.5486 0.00926963 18.6596C0.027812 19.083 0.0602607 19.5041 0.106617 19.9206V19.9877V20.0016C0.106617 19.9877 0.106617 19.9761 0.106617 19.9622C0.0834387 19.7309 0.060261 19.4856 0.0417186 19.208C0.0417186 19.0622 0.0139068 18.7753 0 18.4607C0 17.2182 0.197013 16.6514 0.591039 15.5177C0.704611 17.0632 0.767191 17.9146 1.28638 19.6013C1.21721 19.8379 1.2124 20.0887 1.27247 20.3278C1.27247 20.3625 1.28638 20.3972 1.29565 20.4296C0.950295 21.7484 0.950296 21.7484 0.941024 23.051C0.880762 22.9168 0.841359 22.8659 0.825135 22.8959C0.822273 22.912 0.822273 22.9285 0.825135 22.9445C0.405614 21.7252 0.377799 21.5563 0.118206 20.0016C0.132113 20.1219 0.14602 20.2329 0.162245 20.3625C0.319855 21.443 0.349987 21.5355 0.843677 23.0995C0.881916 23.2839 0.932242 23.4655 0.994333 23.6433V23.6687C1.05084 23.9737 1.12278 24.2756 1.20989 24.5733L1.14035 24.3883C1.17512 24.4854 1.21221 24.5803 1.24929 24.6775C1.28638 24.7746 1.32114 24.8649 1.35823 24.9574C1.42081 25.1101 1.48339 25.2628 1.54829 25.4201C1.59696 25.5312 1.64563 25.6515 1.69662 25.7556L1.70821 25.7765V25.7926V25.7765C2.21581 26.8153 2.28535 26.9148 3.15452 28.1294C3.4591 28.6989 3.82183 29.2355 4.23693 29.7305C4.49784 30.0547 4.78464 30.3572 5.09451 30.6351C5.57893 31.1997 6.25341 31.9192 6.79346 32.4398C6.79346 32.4398 6.79346 32.4398 6.77955 32.4398C6.90651 32.5669 7.04203 32.6852 7.18517 32.7938L7.25006 32.8447L7.05305 32.6711L7.25006 32.8447C7.5282 33.076 7.91759 33.3629 8.20499 33.5827L8.50167 33.784C8.16327 33.5527 7.72985 33.2125 7.40536 32.9604C7.4378 32.9835 7.45171 32.9927 7.45635 32.9904L7.44244 32.9742C8.34829 33.6357 9.30724 34.2215 10.3096 34.7257C10.4023 34.7835 10.5112 34.846 10.641 34.9131C10.823 35.0975 11.0417 35.2417 11.283 35.3365L11.5287 35.4452C11.2839 35.3508 11.0596 35.2102 10.8681 35.0311C11.0675 35.1306 11.2529 35.2231 11.4314 35.3087L11.093 35.1375H11.1185C11.1736 35.166 11.2319 35.1878 11.2923 35.2023C11.1994 35.1279 11.0974 35.0657 10.9887 35.0172C10.9603 35.0026 10.9308 34.9903 10.9006 34.9802L10.9539 34.9987C11.3062 35.1167 11.3502 35.1306 12.085 35.3434C13.7677 36.1162 14.463 36.4355 16.7391 36.8496C16.7391 36.8496 16.9431 36.8889 17.1865 36.9144H17.0891C16.658 36.8704 16.3938 36.8357 16.1388 36.7987L15.7564 36.7316L15.6752 36.7154L15.4018 36.6599L15.0819 36.5951C14.1339 36.3665 13.2043 36.068 12.3005 35.702C13.1658 36.0714 14.0625 36.3626 14.9799 36.572L14.8687 36.5488C15.006 36.5874 15.1453 36.6191 15.2859 36.6437L15.36 36.6599L15.2882 36.6437L15.7888 36.7409L15.3623 36.6622H15.4064L15.5872 36.6969C16.0021 36.7779 16.2593 36.8172 16.5143 36.8542C16.6348 36.8704 17.0057 36.9213 17.3765 36.9584C16.9871 36.9144 16.855 36.8982 16.5491 36.8542L16.2454 36.8103L16.4772 36.8427C16.8365 36.8889 17.103 36.9167 17.4043 36.9445L17.5758 36.963C17.8447 36.9907 17.9861 37 18 37C17.8053 36.9907 17.6292 36.9815 17.453 36.9607ZM15.4018 36.6599L15.7077 36.7247C15.5153 36.6877 15.3206 36.6483 15.1051 36.6021L15.4018 36.6599ZM1.23075 23.8792C1.22568 23.8645 1.21866 23.8505 1.20989 23.8376L1.22843 23.8654C1.93536 24.8394 2.79526 25.4618 3.70847 26.1189C3.80225 26.438 3.93868 26.7431 4.11409 27.0258C4.16276 27.1068 4.19521 27.1577 4.24852 27.2341C4.01674 28.0091 4.01674 28.023 4.01674 28.4279C4.01674 28.5343 4.0376 28.6593 4.05151 28.7819C4.03256 28.6647 4.02095 28.5465 4.01674 28.4279C3.46279 27.7546 3.08962 27.4423 3.01313 27.5765C2.08602 26.0263 2.05357 25.9569 1.25161 24.0574C1.24509 23.999 1.23503 23.9411 1.22148 23.8839L1.23075 23.8792ZM1.72676 20.2098C1.72094 20.1467 1.71088 20.0841 1.69662 20.0224L1.59464 20.182L1.69662 20.0224C2.43368 18.9558 2.89261 18.5254 3.89853 17.5792L3.91476 17.6278C3.98403 17.8323 4.10928 18.0134 4.27633 18.1506C3.8684 20.9872 3.85681 22.4078 4.21839 25.0592C4.14232 25.0188 4.05558 25.0029 3.97009 25.0136C3.88459 25.0244 3.80454 25.0613 3.74092 25.1194L4.49421 26.3225L3.74092 25.1194C2.90068 23.6937 2.22424 22.1779 1.72444 20.6008C1.74131 20.4711 1.74208 20.3397 1.72676 20.2098ZM3.75946 6.83454C4.48375 5.98511 5.27679 5.19658 6.13057 4.47693C6.13057 4.55328 6.23719 4.47692 6.28818 4.43991C6.28818 4.43991 6.3044 4.42371 6.31136 4.41677C6.06335 4.94891 6.06103 4.96742 5.86866 5.92759C5.73122 6.06967 5.60781 6.22463 5.50013 6.39032C4.8773 6.53372 4.26843 6.73192 3.68066 6.98262L3.60881 7.01732L3.75946 6.83454ZM9.17151 5.59673L9.00463 6.11962C8.94437 6.30009 8.88643 6.48287 8.83543 6.63788L9.00463 6.11962L9.17615 5.59905C9.70461 4.29646 9.73474 4.24556 10.5668 2.92677C10.8146 2.86026 11.0496 2.75315 11.2622 2.6098C11.2817 2.5983 11.2989 2.58341 11.3132 2.56584V2.58204C11.2981 2.94383 11.3051 3.3062 11.334 3.66715C10.8102 4.24556 10.1264 5.0322 9.62349 5.63144C9.48315 5.56755 9.32469 5.55525 9.17615 5.59673H9.17151ZM8.29076 11.0292C7.86428 11.3045 7.29642 11.6701 6.87458 11.9547C6.85634 11.8814 6.82355 11.8125 6.77817 11.7521C6.73278 11.6917 6.67572 11.641 6.61035 11.603C6.55936 11.7487 6.4991 11.9315 6.44115 12.0981L6.61035 11.603C6.98624 10.5444 7.42508 9.5091 7.92454 8.50269H7.96858C8.09728 8.51262 8.22666 8.49609 8.3487 8.4541L8.4924 7.41527L8.35333 8.45179C8.27685 9.28239 8.27685 9.28239 8.29539 11.0292H8.29076ZM9.24337 28.8189L9.72315 29.0248L9.24337 28.8189C7.42853 28.0276 6.83981 27.7269 5.66701 27.1253C5.62915 26.9864 5.5835 26.8496 5.53026 26.7158C5.45709 26.5353 5.37191 26.3598 5.2753 26.1906L5.08524 26.3757L5.2753 26.1906C5.91682 25.6425 6.60468 25.151 7.33118 24.7214L7.359 24.7677C7.78547 25.4225 8.26758 25.5567 8.45532 25.5844H8.49472C8.76529 26.5657 9.09659 27.5292 9.48674 28.4695C9.41009 28.4858 9.34242 28.5303 9.29729 28.5942C9.25215 28.6582 9.23289 28.7368 9.24337 28.8143V28.8189ZM8.44836 31.1626C8.40896 31.1094 8.37651 31.0724 8.35797 31.0516L8.29076 31.1765L8.35797 31.0516C8.67783 30.4778 9.00927 30.1539 9.6119 29.5685L9.63044 29.5847C9.71569 29.6682 9.81247 29.7391 9.91784 29.7953C10.342 31.2621 10.5182 31.8776 11.4476 33.3167C10.0778 32.4514 9.84831 32.2871 8.57352 31.3848C8.54251 31.3052 8.50037 31.2304 8.44836 31.1626ZM4.91141 29.6634L4.67963 29.3418C4.50811 29.0989 4.32964 28.8582 4.14885 28.6269C4.16044 28.7217 4.1674 28.8351 4.17899 28.9462C4.16508 28.8351 4.15117 28.7148 4.14885 28.6269C4.20912 27.9328 4.2207 27.8032 4.36904 27.4423L4.41076 27.4932C4.87432 28.0438 5.31934 28.296 5.56966 28.1364C5.29848 27.7384 4.92763 27.2109 4.67036 26.806L4.52665 27.1022C4.5695 27.0011 4.61746 26.9023 4.67036 26.806C4.92763 27.2109 5.29848 27.7315 5.56966 28.1341C6.24102 29.0597 6.97107 29.9415 7.75534 30.7739C7.75007 30.8292 7.76136 30.8848 7.78779 30.9336L7.97322 31.003L7.78779 30.9336C6.80317 30.5766 5.84442 30.1522 4.91836 29.6634H4.91141ZM9.42879 29.3441L9.45429 29.3811C8.95257 29.8098 8.52296 30.3159 8.18182 30.8804C8.08719 30.7802 7.95789 30.7198 7.82024 30.7115L8.10765 31.0169L7.82024 30.7115C7.04643 29.8762 6.32721 28.9921 5.66701 28.0647C5.70178 28.0091 5.81303 27.8449 5.74118 27.396C5.73844 27.3758 5.73457 27.3557 5.72959 27.3359C7.12027 28.0531 7.72521 28.3284 9.28972 29.0156C9.32131 29.1319 9.37055 29.2427 9.43574 29.3441H9.42879ZM9.78805 28.7911C9.83672 28.9022 9.88308 29.0225 9.9248 29.1104L9.78805 28.7911ZM7.18517 24.4253C7.18517 24.4484 7.20371 24.4692 7.21529 24.4924C6.484 24.9228 5.79216 25.4167 5.14782 25.9685C4.94833 25.6409 4.68224 25.3587 4.36673 25.1402C3.97502 22.3777 4.03296 21.1237 4.42931 18.2409H4.45248C4.54715 18.2703 4.64789 18.2744 4.74467 18.2529C4.84145 18.2314 4.9309 18.185 5.00412 18.1182L5.02962 18.0974C4.99253 17.9841 4.94849 17.8661 4.90446 17.7295L5.02962 18.0974C5.64317 19.7151 6.39943 21.2753 7.28947 22.7594C6.89312 23.2407 6.97656 23.9348 7.18517 24.4253ZM4.08395 15.8162L4.31573 16.1771C4.39686 16.3043 4.4803 16.4316 4.54751 16.538L4.31573 16.1771L4.08395 15.8162C3.6635 15.1546 3.30134 14.4579 3.00154 13.7339C3.20134 13.3549 3.35688 12.9544 3.4651 12.54C3.58043 12.1224 3.64044 11.6915 3.64357 11.2583C4.81951 10.066 6.08652 8.96676 7.43317 7.97055V8.01451C7.44931 8.11105 7.48936 8.20203 7.54967 8.2792C7.60998 8.35638 7.68864 8.41729 7.77852 8.45641C7.27279 9.461 6.82926 10.4956 6.45043 11.5544C6.02395 11.5336 5.52331 12.1027 5.52331 12.8686C5.52215 13.0689 5.59379 13.2629 5.72495 13.4146C5.47463 14.0184 5.17332 14.8352 4.94849 15.4483C4.64718 15.3048 4.33196 15.439 4.08395 15.8162ZM5.8223 6.47592V6.32554V6.47592ZM5.33093 7.27645C5.56271 7.32272 5.93124 6.98956 6.19315 6.63788L6.21633 6.6078C7.00669 6.79752 7.05305 6.80909 7.66958 6.93172C7.58902 7.07834 7.52526 7.23357 7.47953 7.39445C7.44142 7.52533 7.42115 7.66074 7.41926 7.79702C6.07006 8.78254 4.80133 9.87339 3.62503 11.0593C3.62351 10.8332 3.55319 10.6129 3.42338 10.4276C4.14422 9.02789 4.23461 8.8937 5.3147 7.2672L5.33093 7.27645ZM10.6178 2.7116L10.9632 2.26276L10.6178 2.7116ZM11.4754 1.87406C11.4592 1.91802 11.4453 1.96892 11.4314 2.01751V1.98049C11.4437 1.94182 11.4584 1.90395 11.4754 1.86712V1.87406ZM10.1635 2.8458C10.1798 2.87587 10.2215 2.95917 10.3953 2.95454H10.4231C9.67448 4.09286 9.63508 4.18078 9 5.65458C8.49598 5.88069 8.07192 6.2532 7.78316 6.72349L8.22354 6.80678L7.78316 6.72349C6.88617 6.53608 6.812 6.5222 6.3438 6.4042C6.47099 6.21403 6.55776 5.99985 6.59876 5.77489L6.32063 6.0479L6.04017 6.32322L6.32063 6.0479L6.59876 5.77489C7.7169 4.71865 8.90222 3.73562 10.1473 2.83192L10.1635 2.8458ZM6.02627 5.79571C6.10507 5.22424 6.11202 5.20804 6.4736 4.29877C6.54313 4.23399 6.59876 4.17846 6.62658 4.14839L6.70306 4.06741L7.3335 3.72036C6.83054 4.38206 6.81895 4.41446 6.1352 5.7101C6.06799 5.75175 6.02627 5.78877 6.02627 5.78877V5.79571ZM3.52073 7.23712L3.53464 7.21629C4.12663 6.96234 4.7402 6.76179 5.36802 6.61706L5.35411 6.64251C5.1965 6.96642 5.20809 7.12838 5.24749 7.20704C4.34818 8.505 4.29256 8.60912 3.3469 10.3606C2.97605 10.1292 2.52176 10.7446 2.51944 10.7516C2.6701 9.47443 2.75122 8.83585 3.3214 7.51244C3.34921 7.48236 3.42107 7.38519 3.52073 7.2348V7.23712ZM2.46613 12.6835C2.30852 13.2781 2.09297 14.0717 1.96317 14.6732H1.99562C2.33402 14.694 2.64692 14.3146 2.85089 13.993C2.86248 13.9745 2.87638 13.949 2.88797 13.9328C3.19856 14.6802 3.2426 14.7542 3.9727 16.0151C3.82067 16.3765 3.76632 16.7714 3.81509 17.1604C3.81509 17.209 3.82668 17.2529 3.83827 17.3177C2.99898 18.0359 2.25719 18.8603 1.63173 19.7702C1.61336 19.7176 1.58927 19.6672 1.55988 19.6198C1.49498 17.5074 1.65954 16.4964 1.96317 14.6616C2.07675 14.067 2.30852 13.2758 2.46613 12.6812V12.6835ZM5.07829 29.911C5.06438 29.8901 5.04816 29.8716 5.03425 29.8531C5.9619 30.3373 6.92225 30.7563 7.90832 31.1071C7.98844 31.2156 8.08276 31.3129 8.18877 31.3963C8.62683 32.4606 8.63379 32.4814 9.06026 33.083C8.5967 32.8331 8.5967 32.9742 8.61988 33.0251C8.64306 33.076 8.61988 33.0529 9.31522 33.4879L8.61988 33.046C7.49723 32.2869 6.43273 31.4455 5.43523 30.5287C5.32682 30.3161 5.20769 30.1092 5.07829 29.9086V29.911ZM10.043 33.7724C9.78657 33.5615 9.51718 33.3668 9.23641 33.1894C9.32217 33.2912 9.42416 33.4208 9.5215 33.5365L9.23641 33.1894C8.66392 32.2894 8.57584 32.1506 8.36724 31.5166H8.38347C8.53644 31.5884 8.58511 31.549 8.59902 31.5051L8.29076 31.2737L8.59902 31.5051C9.9897 32.4884 10.3884 32.7359 11.5658 33.474C12.4118 34.5012 12.4605 34.5614 13.1674 35.1352L13.6611 35.4799C13.4849 35.3642 13.3088 35.2486 13.1674 35.1352C12.8058 35.0473 12.8614 35.1791 12.8869 35.2231C12.919 35.2811 12.9696 35.3267 13.0306 35.3527L12.9843 35.3342C11.9482 34.8876 11.8115 34.8205 10.4973 34.1773C10.3529 34.034 10.2013 33.8981 10.043 33.7701V33.7724ZM14.5395 35.7506C14.1423 35.5254 13.7267 35.3342 13.2972 35.1792C13.4849 35.3087 13.7098 35.4707 13.9299 35.6187C13.7107 35.4845 13.4994 35.3377 13.2972 35.1792C12.3144 34.3046 12.2774 34.2699 11.7721 33.6035C13.0515 34.3694 13.916 34.8205 14.8316 35.2995C14.9117 35.4196 15.0149 35.5226 15.1352 35.6025C14.9567 35.6419 14.718 35.702 14.5395 35.7483V35.7506ZM14.9173 35.1121C14.8362 35.1121 14.7968 35.156 14.8038 35.2208L15.1908 35.4198L14.8038 35.2208C13.4687 34.5267 12.6297 34.0246 11.6562 33.4439C11.0026 32.3866 10.5297 31.6254 10.1079 29.8624H10.1357C10.1817 29.874 10.2297 29.8747 10.276 29.8644C10.3222 29.8542 10.3654 29.8333 10.4022 29.8034C10.4389 29.7735 10.4681 29.7354 10.4874 29.6922C10.5068 29.649 10.5157 29.6019 10.5135 29.5546C10.5147 29.5447 10.5147 29.5346 10.5135 29.5246C10.9771 29.705 11.5774 29.941 12.0317 30.1192C12.0801 30.3768 12.1871 30.6198 12.3446 30.8295C12.5879 31.1753 12.9293 31.4404 13.325 31.5907C13.7793 33.5179 14.2776 34.2213 14.9173 35.1097V35.1121ZM12.2055 29.439C12.0849 29.5764 12.0196 29.7537 12.0224 29.9364L12.9495 30.2881L12.0224 29.9364C11.5588 29.7606 10.9493 29.5176 10.4903 29.3372C10.4903 29.3094 10.4718 29.2701 10.4556 29.2215C10.3896 29.0445 10.2835 28.8852 10.1456 28.7559C10.0077 28.6267 9.84168 28.531 9.66057 28.4765C9.27504 27.5349 8.94762 26.5706 8.68014 25.589H8.701C8.81698 25.5743 8.928 25.5331 9.0255 25.4687L9.04867 25.4525C10.2632 27.1137 10.7662 27.7292 12.2055 29.4367V29.439ZM8.41823 24.534L8.6361 24.851L8.41823 24.534ZM8.30002 22.5535C8.16063 22.4908 8.00737 22.4651 7.85509 22.4789C7.70281 22.4927 7.55668 22.5455 7.43085 22.6322C6.40175 20.809 5.95442 19.9877 5.171 17.954C5.32979 17.7309 5.43524 17.4745 5.47927 17.2044C5.47927 17.1858 5.47927 17.1627 5.47927 17.1465C6.81895 17.4172 7.88051 17.5977 9.10894 17.8082C9.10894 17.836 9.10893 17.8614 9.12052 17.8892C9.14471 18.0126 9.20619 18.1256 9.29668 18.2131C8.87846 19.6365 8.54565 21.0836 8.30002 22.5466V22.5535ZM7.87355 23.3494L7.62555 22.9468L7.87355 23.3494ZM4.84419 17.01L5.07597 17.0609L4.84419 17.01ZM9.66984 17.7041L9.5725 17.3432C9.60726 17.4565 9.64203 17.5884 9.66984 17.6879V17.7041ZM9.31985 17.2668C9.23498 17.3381 9.17359 17.4332 9.1437 17.5398C7.42622 17.2529 6.54082 17.0771 5.51635 16.8804C5.53026 16.5473 5.49318 15.9365 5.09915 15.5593C4.99485 15.9041 4.85346 16.3645 4.74684 16.7162L5.09915 15.5593C5.3147 14.9439 5.63224 14.1318 5.87098 13.5233L5.90806 13.5372C6.33917 13.6529 6.76333 13.1578 6.88617 12.6117C6.92072 12.4679 6.93246 12.3196 6.92094 12.1721L6.75869 12.2855L6.92094 12.1721C7.33582 11.8991 7.88746 11.5336 8.31161 11.2675C8.44836 13.7246 8.85398 15.3742 9.31985 17.2576V17.2668ZM8.48777 10.9181C8.48777 10.1593 8.49936 9.1482 8.54339 8.39163C8.97424 8.16048 9.33156 7.81342 9.57481 7.38982L9.60031 7.34586C10.8056 7.61193 11.1092 7.67209 12.3817 7.92196L13.3969 8.11168L12.3817 7.92196C12.3287 8.08723 12.3021 8.25977 12.3029 8.43328C12.3031 8.5195 12.3116 8.60551 12.3284 8.69009C10.9191 9.46517 9.98738 9.98343 8.48777 10.9089V10.9181ZM13.1234 8.49112L13.7561 8.15101L13.1234 8.49112ZM12.8916 7.11681C12.7207 7.28678 12.5804 7.48478 12.4767 7.70216C11.086 7.42915 10.8172 7.37362 9.71851 7.133C9.71851 7.11681 9.73706 7.09367 9.74633 7.07516C9.81355 6.91783 10.1357 6.11037 9.72315 5.7101L9.14139 6.47361C9.3384 6.20754 9.54468 5.93222 9.72315 5.7101C10.2029 5.12938 10.8519 4.36818 11.3456 3.80828C11.6075 5.12244 12.1986 6.04327 12.8823 7.10755L12.8916 7.11681ZM14.6995 0.650137L14.7226 0.670959L14.6995 0.650137ZM14.2637 0.881503C14.2534 0.898741 14.2469 0.917945 14.2445 0.937872C14.2421 0.957799 14.2439 0.978005 14.2498 0.997186C13.2775 1.7665 12.3597 2.60219 11.5032 3.49825C11.4824 3.15537 11.4824 2.81155 11.5032 2.46867C11.7438 2.294 11.9701 2.10059 12.18 1.89026C12.3089 1.76308 12.4304 1.62867 12.5439 1.48768L12.129 1.6427L12.5439 1.48768C13.6356 1.07585 13.6356 1.07585 14.2544 0.860679L14.2637 0.881503ZM11.4221 1.80234L10.9585 1.9828L11.4221 1.80234ZM10.3582 2.31828L10.335 2.35067C10.2421 2.46189 10.1812 2.59625 10.1589 2.73937C8.90669 3.6313 7.71576 4.60599 6.59413 5.65689C6.53155 5.46254 6.28122 5.61293 6.27891 5.61524C6.61962 4.8795 6.63585 4.85636 7.46098 3.64864C8.35565 3.19747 8.94437 2.90595 10.3466 2.31828H10.3582ZM6.90239 3.75275C8.2444 2.48024 8.25135 2.4733 8.98841 1.92496C9.03162 1.91716 9.07368 1.90395 9.11357 1.88563C8.4669 2.41777 8.41823 2.48024 7.45866 3.5584L6.82591 3.8962C6.88385 3.81291 6.9024 3.76663 6.88154 3.75275L6.64976 3.98412L6.90239 3.75275ZM4.2207 5.85587C4.27633 5.78646 4.37831 5.66152 4.52897 5.48105L4.68195 5.3029C5.17795 4.84017 5.48854 4.68978 6.2395 4.31034L6.20474 4.35893C5.35246 5.07117 4.56163 5.85363 3.84059 6.69804C3.84059 6.6749 3.86608 6.61706 3.82436 6.64019C3.75982 6.69269 3.70079 6.7516 3.64821 6.81603C3.78728 6.51988 4.02601 6.13813 4.20912 5.85587H4.2207ZM3.10584 7.70679C3.10584 7.70679 3.10584 7.76 3.16379 7.70679L3.20551 7.66746C3.20551 7.66746 3.20551 7.65358 3.2171 7.64895C2.75354 8.84742 2.52176 9.44897 2.41283 10.8996C2.41283 11.0986 2.41283 11.33 2.41283 11.5613C2.41283 11.33 2.41283 11.0986 2.41283 10.8996C2.23381 11.1622 2.08309 11.443 1.96317 11.7372L2.2135 11.9963C2.1231 11.9084 2.03271 11.8182 1.96317 11.7372C1.64332 11.2744 1.48107 11.0431 1.49961 10.5804L1.51352 10.5503C1.56915 10.4115 1.67808 10.1454 1.7453 9.93021L1.62941 10.1778L1.7453 9.93021C2.12542 9.25925 2.66546 8.35924 3.09425 7.70216L3.10584 7.70679ZM1.29796 11.0824C1.33273 11.0084 1.36518 10.932 1.39763 10.851C1.40392 10.8355 1.40783 10.8191 1.40922 10.8025V10.8349C1.40655 11.2661 1.57292 11.6813 1.87278 11.9917C1.95622 12.0773 2.05357 12.1791 2.15323 12.2786C2.05125 12.1814 1.95158 12.0819 1.87278 11.9917C1.74978 12.3277 1.65974 12.6748 1.60391 13.0282C1.57309 13.2195 1.55605 13.4128 1.55292 13.6066C1.27479 14.0693 0.936389 14.6871 0.695339 15.1637C0.734741 13.5418 0.762555 12.8038 1.28638 11.0778L1.29796 11.0824ZM0.690702 15.3904C0.922482 14.9092 1.27479 14.2868 1.54829 13.8264V13.9028C1.59001 14.2938 1.68967 14.5205 1.87046 14.6385C1.46948 16.6606 1.46716 17.681 1.46253 19.5319C1.45141 19.5262 1.4391 19.5232 1.4266 19.5232C1.41411 19.5232 1.4018 19.5262 1.39068 19.5319C0.968839 17.9702 0.739375 17.1118 0.679112 15.3858L0.690702 15.3904ZM1.46021 20.0825L1.49961 20.1936L1.46021 20.0825ZM1.40922 20.6771L1.42313 20.7026C1.55756 20.934 1.6549 20.8414 1.67808 20.7905C2.33865 22.7872 2.78831 23.6062 3.68298 25.2374C3.60564 25.4561 3.59515 25.6929 3.65284 25.9176L4.42467 26.4173L3.65284 25.9176C2.188 24.9111 1.71517 24.3258 1.16817 23.6479L1.14035 23.5577C1.12181 23.4952 1.09168 23.4026 1.05228 23.2939L1.07082 23.5068L1.05228 23.2939C1.04996 22.0168 1.04996 22.0168 1.39763 20.6725L1.40922 20.6771ZM1.66881 25.6307C1.641 25.5636 1.57146 25.3993 1.4718 25.168L1.33273 24.8255C1.24697 24.5618 1.17512 24.1985 1.11486 23.9255V23.9394C1.19135 24.1152 1.22611 24.1384 1.2377 24.1384C1.19135 24.0158 1.13108 23.8492 1.08473 23.7242L1.2377 24.1384C1.91913 25.7996 1.98171 25.9037 3.00386 27.6505C3.01919 27.7741 3.05441 27.8944 3.10816 28.0068C2.36647 26.9911 2.33865 26.9425 1.65722 25.6261L1.66881 25.6307ZM4.34123 29.4876C4.42931 29.5824 4.52665 29.6842 4.62864 29.7883C4.6101 29.7698 4.58923 29.7536 4.57301 29.7351C4.49884 29.6634 4.41076 29.5616 4.34123 29.4876C4.60314 29.8693 4.94617 30.3829 5.23126 30.7485C4.9369 30.3876 4.60314 29.8647 4.34123 29.4876ZM5.23126 30.7485L5.26371 30.7739C5.34252 30.8318 5.57662 31.0053 5.54185 30.7948C5.53221 30.7572 5.5206 30.7201 5.50708 30.6837C5.49921 30.6703 5.49224 30.6564 5.48622 30.6421C6.48723 31.5572 7.55479 32.3971 8.68014 33.1547C8.7786 33.277 8.88884 33.3894 9.00927 33.4902L9.39402 33.6128L9.00927 33.4902C8.36214 33.2918 7.73574 33.0315 7.13881 32.7128L7.08087 32.6781L7.13881 32.7128C7.06696 32.6526 6.99279 32.5948 6.91862 32.537C6.39711 32.0326 5.718 31.3038 5.23126 30.7439V30.7485ZM10.2284 34.6678C9.2259 34.1574 8.26766 33.5646 7.36364 32.8956L7.34277 32.8771H7.32887H7.34046C7.93242 33.1907 8.55339 33.4464 9.19469 33.6406C9.26423 33.6938 9.38012 33.7863 9.57945 33.9182L9.75792 34.0339C9.98172 34.2866 10.2201 34.5261 10.4718 34.7511C10.3874 34.6966 10.294 34.6574 10.196 34.6354C10.196 34.6516 10.196 34.6516 10.6155 34.8668L10.2284 34.6678ZM10.7801 34.8992L10.7291 34.883L10.7801 34.8992L10.6874 34.8506C10.4323 34.6334 10.1901 34.4016 9.96188 34.1565L10.0082 34.182C10.1768 34.2806 10.3546 34.3627 10.539 34.4272C10.9516 34.6817 11.4986 35.0334 11.9297 35.2671C11.5032 35.1398 11.5032 35.1398 10.7801 34.9038V34.8992ZM12.027 35.2833C11.6029 35.0334 11.0327 34.7072 10.6225 34.4342H10.634C10.6781 34.4342 10.7221 34.4156 10.6062 34.2791L10.59 34.2629C11.6098 34.7766 11.8045 34.8599 13.077 35.4198C13.1985 35.5086 13.3255 35.5897 13.4571 35.6627L14.0435 35.8015L13.4571 35.6627C12.8522 35.5031 12.8336 35.5031 12.027 35.2879V35.2833ZM12.2333 35.392C12.7664 35.5355 12.9008 35.5678 13.624 35.7483C13.8542 35.8651 14.0901 35.9701 14.3309 36.063C14.477 36.1185 14.5905 36.1625 14.7806 36.2249C15.5501 36.6182 15.9882 36.7038 16.9524 36.8936L16.8249 36.8774C15.0054 36.5141 14.2429 36.3637 12.2333 35.3966V35.392Z" fill="#276899"/>
<path d="M22.3076 30.5115C22.2327 30.6584 22.1181 30.7819 21.9766 30.8681C21.835 30.9543 21.6721 31 21.5058 31C21.3396 31 21.1766 30.9543 21.0351 30.8681C20.8935 30.7819 20.779 30.6584 20.7041 30.5115L13.0132 15.1616C13.0041 15.1448 12.9995 15.1259 13 15.1068C13.0005 15.0877 13.0061 15.0691 13.0161 15.0527C13.0261 15.0364 13.0403 15.023 13.0571 15.0137C13.074 15.0045 13.0931 14.9997 13.1124 15H16.4243C16.5991 15.0012 16.7698 15.0525 16.9157 15.1478C17.0616 15.243 17.1765 15.3781 17.2464 15.5367L20.5583 23.1251C20.7192 23.4896 20.8575 23.8634 20.9723 24.2446C21.1356 24.7466 21.2988 25.341 21.4738 26.0335C21.5826 25.5488 21.7167 25.064 21.8761 24.5793C22.0421 24.0839 22.2368 23.5984 22.4592 23.1251L25.7711 15.5367C25.8398 15.3772 25.9543 15.2413 26.1005 15.1459C26.2467 15.0505 26.4181 14.9997 26.5932 15H29.8877C29.9069 14.9997 29.926 15.0045 29.9429 15.0137C29.9597 15.023 29.9739 15.0364 29.9839 15.0527C29.9939 15.0691 29.9995 15.0877 30 15.1068C30.0005 15.1259 29.9959 15.1448 29.9868 15.1616L22.3076 30.5115Z" fill="#276899"/>
<path d="M32.0001 22.469C31.9955 21.3453 32.2273 20.2325 32.6814 19.1981C33.1355 18.1638 33.8024 17.2295 34.6416 16.4521C35.4716 15.6664 36.455 15.048 37.5344 14.6329C39.7543 13.789 42.2223 13.789 44.4421 14.6329C45.5356 15.0611 46.5292 15.697 47.3641 16.5029C48.2043 17.2802 48.8723 18.2143 49.3277 19.2487C49.7758 20.2668 50.0045 21.3625 49.9998 22.469C50.0074 23.5946 49.7829 24.7105 49.3394 25.7514C48.8921 26.7762 48.2317 27.7011 47.3992 28.4689C46.5369 29.2771 45.5234 29.9194 44.4129 30.3615C42.2107 31.2128 39.7542 31.2128 37.5519 30.3615C35.3637 29.4872 33.6135 27.8236 32.6721 25.7232C32.2255 24.6927 31.9969 23.5862 32.0001 22.469ZM46.0551 22.5029C46.089 21.1224 45.5625 19.7839 44.5882 18.7741C44.1332 18.2935 43.5797 17.9097 42.963 17.6472C42.3462 17.3846 41.6797 17.249 41.0058 17.249C40.3319 17.249 39.6654 17.3846 39.0486 17.6472C38.4318 17.9097 37.8784 18.2935 37.4234 18.7741C36.475 19.7986 35.9507 21.1252 35.9507 22.5C35.9507 23.8749 36.475 25.2015 37.4234 26.226C37.8773 26.7063 38.4298 27.0899 39.0456 27.3523C39.6614 27.6147 40.327 27.7503 40.9999 27.7503C41.6729 27.7503 42.3385 27.6147 42.9543 27.3523C43.5701 27.0899 44.1226 26.7063 44.5765 26.226C45.558 25.222 46.0894 23.8838 46.0551 22.5029Z" fill="#276899"/>
<path d="M71.0001 22.469C70.9937 21.343 71.2264 20.2277 71.6839 19.1922C72.1393 18.1608 72.8051 17.2289 73.6416 16.4521C74.4717 15.6664 75.455 15.048 76.5344 14.6329C78.7542 13.789 81.2222 13.789 83.442 14.6329C84.5356 15.0611 85.5291 15.697 86.364 16.5029C87.1993 17.2723 87.8638 18.1981 88.3169 19.2238C88.77 20.2495 89.0023 21.3536 88.9997 22.469C89.0095 23.5948 88.7849 24.7111 88.3393 25.7514C87.892 26.7762 87.2316 27.7011 86.3991 28.4689C85.5368 29.2771 84.5234 29.9194 83.4128 30.3615C81.2106 31.2128 78.7541 31.2128 76.5519 30.3615C74.3659 29.4898 72.616 27.8306 71.6722 25.7345C71.224 24.7005 70.9954 23.59 71.0001 22.469ZM85.055 22.5029C85.089 21.1224 84.5624 19.7839 83.5881 18.7741C83.1331 18.2935 82.5797 17.9097 81.9629 17.6472C81.3462 17.3846 80.6797 17.249 80.0058 17.249C79.3319 17.249 78.6653 17.3846 78.0486 17.6472C77.4318 17.9097 76.8784 18.2935 76.4234 18.7741C75.475 19.7986 74.9507 21.1252 74.9507 22.5C74.9507 23.8749 75.475 25.2015 76.4234 26.226C76.8778 26.7064 77.4308 27.0901 78.0471 27.3526C78.6633 27.6151 79.3294 27.7507 80.0028 27.7507C80.6763 27.7507 81.3423 27.6151 81.9586 27.3526C82.5748 27.0901 83.1278 26.7064 83.5823 26.226C84.5594 25.2198 85.0884 23.8826 85.055 22.5029Z" fill="#276899"/>
<path d="M95 30.8882V14.685C95.0014 14.6559 95.0138 14.6283 95.0346 14.6077C95.0554 14.5871 95.0833 14.5749 95.1127 14.5735H98.4345C98.4644 14.5735 98.493 14.5852 98.5142 14.6061C98.5353 14.6271 98.5472 14.6554 98.5472 14.685V17.2632C99.2069 16.2194 100.131 15.3649 101.228 14.7849C102.395 14.2323 103.679 13.9644 104.971 14.0038C106.053 13.9762 107.129 14.1764 108.127 14.5911C108.965 14.9503 109.676 15.5496 110.167 16.3118C110.472 16.7962 110.685 17.3316 110.796 17.8916C110.959 18.9347 111.024 19.9904 110.992 21.0453V30.8882C110.992 30.9178 110.98 30.9462 110.959 30.9671C110.938 30.9881 110.909 30.9998 110.879 30.9998H107.273C107.258 31.0007 107.243 30.9984 107.229 30.9931C107.215 30.9878 107.202 30.9796 107.191 30.969C107.181 30.9585 107.172 30.9459 107.167 30.9319C107.162 30.918 107.159 30.9031 107.16 30.8882V22.5605C107.16 20.4052 106.893 18.9663 106.359 18.2557C105.825 17.5451 104.888 17.1927 103.536 17.1927C102.718 17.1765 101.907 17.3431 101.163 17.6802C100.499 17.9762 99.932 18.4502 99.5259 19.0486C99.2163 19.5034 99.0137 20.0212 98.9328 20.5638C98.799 21.5367 98.7434 22.5186 98.7667 23.5002V30.8882C98.7667 30.9178 98.7548 30.9462 98.7337 30.9671C98.7125 30.9881 98.6839 30.9998 98.654 30.9998H95.0949C95.0682 30.9956 95.0439 30.982 95.0265 30.9615C95.0091 30.941 94.9997 30.915 95 30.8882Z" fill="#276899"/>
<path d="M121.134 13.7951C121.29 13.6659 121.421 13.5209 121.522 13.3643C121.648 13.2218 121.748 13.0677 121.82 12.9059C121.926 12.6818 121.986 12.4472 121.999 12.21C122.009 11.9178 121.939 11.6271 121.793 11.3556C121.646 11.0842 121.427 10.8376 121.148 10.6309C120.868 10.4242 120.535 10.2618 120.169 10.1534C119.802 10.0451 119.409 9.99313 119.014 10.0007C118.62 9.99769 118.229 10.0539 117.865 10.1659C117.501 10.2779 117.171 10.4434 116.895 10.6525C116.61 10.8514 116.383 11.092 116.228 11.3591C116.074 11.6262 115.997 11.914 116 12.2045C116.019 12.786 116.34 13.3398 116.895 13.7511C117.451 14.1625 118.199 14.3997 118.985 14.4137C121.223 15.2643 116.612 16.6838 116.612 20.9532V30.8949C116.611 30.9089 116.614 30.9229 116.621 30.936C116.627 30.9491 116.638 30.961 116.651 30.9709C116.664 30.9808 116.681 30.9885 116.698 30.9935C116.716 30.9985 116.735 31.0006 116.754 30.9998H121.231C121.268 30.9998 121.304 30.9888 121.331 30.9691C121.357 30.9494 121.372 30.9227 121.372 30.8949V18.0425C121.372 17.1311 120.29 16.5843 120.29 15.3416C120.29 14.0989 120.723 14.121 121.134 13.7951Z" fill="#276899"/>
<path d="M139 18.7896C139.001 18.8109 138.995 18.832 138.983 18.8498C138.971 18.8676 138.954 18.8812 138.934 18.8887C138.914 18.8962 138.892 18.8972 138.871 18.8916C138.851 18.886 138.832 18.874 138.819 18.8573C138.314 18.3453 137.715 17.935 137.055 17.6488C136.3 17.3248 135.485 17.1613 134.663 17.1687C134.003 17.1391 133.344 17.2513 132.73 17.4978C132.117 17.7443 131.563 18.1193 131.107 18.5976C130.24 19.6891 129.768 21.0416 129.768 22.4351C129.768 23.8286 130.24 25.1811 131.107 26.2726C131.592 26.7534 132.173 27.127 132.812 27.3692C133.451 27.6115 134.134 27.717 134.816 27.6788C135.627 27.693 136.431 27.5251 137.168 27.1875C137.795 26.8849 138.352 26.4539 138.802 25.9224C138.816 25.9068 138.835 25.8957 138.856 25.8907C138.876 25.8856 138.898 25.8868 138.918 25.894C138.938 25.9013 138.955 25.9143 138.968 25.9314C138.98 25.9485 138.988 25.969 138.989 25.9902V29.7967C138.989 29.8163 138.984 29.8357 138.974 29.8526C138.964 29.8695 138.949 29.8834 138.932 29.8927C138.276 30.2562 137.574 30.5315 136.846 30.7116C136.05 30.9056 135.234 31.0005 134.415 30.994C133.296 31.037 132.18 30.8491 131.137 30.442C130.094 30.0348 129.147 29.4172 128.354 28.6276C127.568 27.8183 126.954 26.8578 126.551 25.8045C126.147 24.7511 125.963 23.6269 126.007 22.5C125.959 21.3611 126.15 20.2247 126.569 19.1643C126.988 18.1039 127.625 17.1431 128.439 16.3442C130.056 14.7817 132.17 14.0004 134.782 14.0004C135.543 13.9933 136.302 14.0748 137.044 14.2433C137.7 14.3912 138.332 14.6308 138.921 14.9549C138.94 14.9628 138.956 14.9762 138.967 14.9933C138.978 15.0104 138.983 15.0305 138.983 15.0509L139 18.7896Z" fill="#276899"/>
<path d="M144.023 27.4197L146.693 25.9051C146.706 25.8977 146.72 25.8935 146.735 25.8927C146.749 25.892 146.763 25.8947 146.777 25.9006C146.79 25.9066 146.802 25.9156 146.812 25.9271C146.821 25.9386 146.828 25.9523 146.832 25.967C147.012 26.6516 147.412 27.2489 147.964 27.6561C148.617 28.0915 149.381 28.3057 150.153 28.2698C150.799 28.308 151.437 28.109 151.958 27.7068C152.173 27.5254 152.343 27.2931 152.457 27.029C152.57 26.7648 152.622 26.4762 152.61 26.1866C152.61 25.3308 151.834 24.5988 150.282 23.9908C149.748 23.7937 149.352 23.6248 149.069 23.4953C147.829 23.0312 146.69 22.3072 145.721 21.367C145.13 20.7105 144.791 19.8455 144.771 18.9403C144.746 18.2421 144.878 17.5475 145.157 16.9135C145.435 16.2794 145.852 15.7237 146.373 15.2918C147.568 14.3853 149.019 13.9328 150.49 14.0081C151.517 13.9792 152.535 14.2109 153.459 14.6837C154.219 15.0762 154.837 15.7184 155.221 16.5136C155.233 16.537 155.237 16.5645 155.231 16.5906C155.225 16.6166 155.21 16.6394 155.189 16.6544L152.935 18.2872C152.924 18.2959 152.91 18.3017 152.896 18.3042C152.882 18.3066 152.867 18.3056 152.853 18.3013C152.839 18.297 152.826 18.2894 152.816 18.2792C152.805 18.2689 152.797 18.2563 152.791 18.2421C152.607 17.7962 152.295 17.4221 151.9 17.1724C151.432 16.8726 150.893 16.7202 150.346 16.7332C149.787 16.7046 149.235 16.8773 148.781 17.223C148.59 17.3747 148.437 17.5725 148.333 17.7998C148.23 18.0272 148.181 18.2774 148.188 18.5293C148.188 19.3457 149.075 20.0945 150.858 20.7814C151.392 20.9898 151.846 21.1643 152.151 21.2938C153.266 21.6934 154.277 22.3625 155.103 23.2475C155.707 24.0055 156.025 24.9719 155.995 25.9614C156.027 26.668 155.899 27.3724 155.62 28.0159C155.341 28.6594 154.921 29.2233 154.393 29.6606C153.325 30.5502 151.834 30.9949 149.918 30.9949C148.654 31.0431 147.4 30.7464 146.277 30.1335C145.31 29.5401 144.536 28.6532 144.055 27.5886C144.042 27.5807 144.03 27.5697 144.021 27.5565C144.011 27.5432 144.005 27.5281 144.002 27.512C143.999 27.4959 143.999 27.4793 144.003 27.4633C144.007 27.4474 144.014 27.4325 144.023 27.4197Z" fill="#276899"/>
<path d="M71.5985 33.4252C71.4529 33.2236 71.2776 33.0446 71.0784 32.8942C70.9373 32.7892 70.7841 32.701 70.6219 32.6316C70.4643 32.5399 70.2953 32.4689 70.1192 32.4203C69.6685 32.329 69.4315 32.506 68.715 31.4382C67.9985 30.3705 68.3683 29.4398 67.8424 28.6519L66.5249 26.7106L63.809 22.9136C63.7048 22.7674 63.6488 22.5929 63.6488 22.414C63.6488 22.2352 63.7048 22.0607 63.809 21.9144L68.559 15.1713C68.5705 15.1552 68.5774 15.1364 68.5789 15.1168C68.5805 15.0972 68.5766 15.0775 68.5677 15.0599C68.5588 15.0423 68.5452 15.0275 68.5284 15.0169C68.5116 15.0063 68.4922 15.0005 68.4723 15H65.0918C64.9468 15.0012 64.8043 15.0371 64.6764 15.1048C64.5486 15.1724 64.4393 15.2697 64.3579 15.3883L62.3932 18.3002C62.1216 18.7456 61.8962 19.1224 61.7229 19.4422C61.5495 19.7619 61.3877 20.0131 61.2548 20.2929C61.1046 19.9674 60.9428 19.6477 60.7579 19.3337C60.5729 19.0196 60.3649 18.6942 60.128 18.3573L58.1228 15.4396C58.0422 15.3204 57.933 15.2226 57.805 15.1548C57.677 15.0871 57.5341 15.0516 57.3889 15.0514H53.9969C53.9773 15.0526 53.9583 15.0588 53.9417 15.0694C53.9252 15.0799 53.9117 15.0945 53.9024 15.1116C53.8931 15.1288 53.8885 15.148 53.8888 15.1674C53.8892 15.1868 53.8945 15.2059 53.9044 15.2227L58.6602 21.9259C58.7646 22.0742 58.8206 22.2505 58.8206 22.4312C58.8206 22.6118 58.7646 22.7882 58.6602 22.9365L53.0203 30.8502C53.0085 30.8666 53.0015 30.8859 53.0002 30.906C52.9989 30.9262 53.0033 30.9463 53.0129 30.964C53.0225 30.9818 53.0369 30.9966 53.0546 31.0068C53.0722 31.0169 53.0924 31.022 53.1128 31.0214H56.5279C56.6712 31.0221 56.8124 30.988 56.9393 30.9224C57.0662 30.8567 57.175 30.7613 57.256 30.6446L59.9257 26.8476C60.1395 26.5336 60.3534 26.191 60.5614 25.8256C60.7694 25.4602 60.989 25.0662 61.2201 24.638C61.5199 25.3385 61.8958 26.0047 62.3412 26.625L62.4799 26.8305L63.7859 28.6576C64.2192 29.2857 65.0225 30.4333 65.0225 30.4333C65.9586 31.5239 69.8823 31.3412 68.3856 32.82C68.1296 32.9858 67.9104 33.2015 67.7415 33.4538C67.5726 33.706 67.4575 33.9897 67.4033 34.2874C67.3383 34.5808 67.3351 34.8842 67.3938 35.1788C67.4524 35.4735 67.5717 35.7531 67.7442 36.0003C67.9099 36.2511 68.1264 36.4653 68.38 36.6295C68.6336 36.7936 68.9188 36.904 69.2177 36.9538C69.5152 37.0145 69.8219 37.0154 70.1198 36.9565C70.4176 36.8977 70.7004 36.7803 70.9513 36.6112C71.2094 36.4514 71.4317 36.2413 71.6046 35.9936C71.7775 35.7459 71.8974 35.4659 71.9569 35.1708C72.0164 34.8757 72.0143 34.5717 71.9507 34.2774C71.8871 33.9831 71.7633 33.7048 71.587 33.4595L71.5985 33.4252Z" fill="#276899"/>
</svg>
