<svg width="21" height="24" viewBox="0 0 21 24" fill="none" xmlns="http://www.w3.org/2000/svg">
<path d="M16.0702 13.5193C16.0702 16.5291 13.8032 19.019 10.887 19.3721V18.4132C13.2773 18.0666 15.1196 16.0042 15.1196 13.5193V8.06273L20.3483 2.83402L19.3402 1.82583L15.1196 6.04636V4.94545C15.1196 2.2185 12.9011 0 10.1742 0C7.44727 0 5.22872 2.2185 5.22872 4.94545V13.5193C5.22872 14.2294 5.37942 14.9049 5.65008 15.5158L4.93819 16.2277C4.51673 15.4163 4.27819 14.4951 4.27819 13.5193V11.1288H2.85239V13.5193C2.85239 14.8912 3.23203 16.176 3.89123 17.2747L0 21.1659L1.00819 22.1741L4.75008 18.4322C5.94056 19.7453 7.60003 20.6256 9.4613 20.8063V22.5742H5.94164V24H14.4067V22.5742H10.887V20.8064C14.591 20.4468 17.496 17.3161 17.496 13.5194V11.1289H16.0702V13.5193ZM6.65456 4.94545C6.65456 3.00473 8.2335 1.4258 10.1742 1.4258C12.1149 1.4258 13.6939 3.00473 13.6939 4.94545V7.47216L6.76608 14.3999C6.69333 14.1184 6.65452 13.8233 6.65452 13.5193L6.65456 4.94545ZM9.46125 19.3721C7.99439 19.1945 6.69197 18.4762 5.75953 17.4228L6.43256 16.7498C7.19302 17.6293 8.25764 18.2387 9.46125 18.4132V19.3721ZM10.1742 17.039C9.07388 17.039 8.0903 16.5312 7.44436 15.738L13.6938 9.48853V13.5193C13.6937 15.4601 12.1148 17.039 10.1742 17.039Z" fill="white"/>
</svg>
