<svg width="48" height="48" viewBox="0 0 48 48" fill="none" xmlns="http://www.w3.org/2000/svg">
<path fill-rule="evenodd" clip-rule="evenodd" d="M29.1509 15.8652L22.7096 20.5291C22.4987 20.6797 22.25 20.7624 21.9949 20.7624H16.5234V27.2382H21.9949C22.25 27.2382 22.4987 27.3208 22.7096 27.4715L29.1509 32.1353V15.8652ZM31.6784 13.3348V34.6674C31.6784 35.162 31.4183 35.6153 31.0041 35.846C30.8197 35.9487 30.6177 36.0007 30.4156 36.0007C30.1656 36.0007 29.9156 35.922 29.7022 35.7673L21.6055 29.9049H15.2627C14.5657 29.9049 14 29.3089 14 28.5716V19.4293C14 18.6919 14.5657 18.096 15.2627 18.096H21.6055L29.7022 12.2335C30.0886 11.9535 30.5899 11.9229 31.0041 12.1548C31.4183 12.3855 31.6784 12.8388 31.6784 13.3348ZM36.4497 28.8368C36.2009 29.1634 35.8347 29.3341 35.466 29.3341C35.1869 29.3341 34.9079 29.2368 34.6743 29.0394C34.1313 28.5768 34.0454 27.7381 34.4823 27.1648C35.7893 25.4489 35.7893 22.5517 34.4823 20.8371C34.0454 20.2624 34.1313 19.4238 34.6743 18.9611C35.2172 18.5025 36.0128 18.5918 36.4497 19.1651C38.5168 21.877 38.5168 26.1235 36.4497 28.8368Z" fill="#276899"/>
<path fill-rule="evenodd" clip-rule="evenodd" d="M36.0422 13.7645C36.4347 13.376 36.4379 12.7428 36.0493 12.3503C35.6607 11.9579 35.0276 11.9547 34.6351 12.3433L24.2911 22.5848L14.0496 12.2408C13.661 11.8484 13.0278 11.8452 12.6354 12.2338C12.2429 12.6224 12.2397 13.2555 12.6283 13.648L22.8689 23.991L12.2393 34.5153C11.8468 34.9039 11.8437 35.537 12.2323 35.9295C12.6208 36.322 13.254 36.3251 13.6464 35.9365L23.9904 25.695L34.232 36.039C34.6206 36.4315 35.2537 36.4346 35.6462 36.046C36.0386 35.6575 36.0418 35.0243 35.6532 34.6319L25.4127 24.2888L36.0422 13.7645Z" fill="#276899"/>
</svg>
