<svg width="25" height="25" viewBox="0 0 25 25" fill="none" xmlns="http://www.w3.org/2000/svg">
<path d="M5.87271 15.7877C3.76513 12.9864 2.50009 9.51635 2.50009 5.75006C2.50009 3.95754 3.95764 2.50003 5.74895 2.50003C5.88646 2.50003 6.02146 2.50877 6.15897 2.52753L7.48526 8.30258L7.2725 8.41359C7.11635 8.49498 6.95613 8.5785 6.80399 8.65884C5.7152 9.22759 4.92892 9.63885 5.33144 10.6426C5.80145 11.9801 6.48273 13.2201 7.30526 14.3551L9.09157 12.5689C8.71406 12.0114 8.37654 11.4239 8.09278 10.8064C9.64284 9.99385 9.64784 9.9901 9.81784 9.8126C10.1104 9.50885 10.2279 9.07759 10.1341 8.66759L8.42279 1.21251C8.32654 0.792508 8.02153 0.451255 7.61527 0.311253C7.31776 0.207502 7.01025 0.131251 6.70648 0.0825008C6.39522 0.0287503 6.07521 0 5.74895 0C2.57884 0 0 2.58003 0 5.75006C0 10.2076 1.5363 14.3039 4.08889 17.5714L5.87271 15.7877Z" fill="#FF3A29"/>
<path d="M22.1747 2.82603C21.7409 2.39102 21.0384 2.39102 20.6033 2.82603L2.82522 20.6037C2.60897 20.8212 2.50021 21.105 2.50021 21.39C2.50021 21.6737 2.60897 21.9587 2.82522 22.175C3.25899 22.6087 3.96276 22.6087 4.39653 22.175L22.1747 4.39729C22.6097 3.96229 22.6097 3.25978 22.1747 2.82603Z" fill="#FF3A29"/>
<path d="M24.6887 17.3862C24.7912 17.6799 24.87 17.9862 24.92 18.2987C24.9725 18.6087 25 18.9274 25 19.2512C25 22.4212 22.4212 25 19.251 25C14.7921 25 10.6957 23.4637 7.42938 20.9112L9.2132 19.1274C12.0145 21.235 15.4834 22.5 19.251 22.5C21.0424 22.5 22.4999 21.0425 22.4999 19.2512C22.4999 19.1112 22.4924 18.9749 22.4737 18.8412L16.6985 17.5149L16.3363 18.2074C15.7706 19.2891 15.361 20.0722 14.3084 19.6499C12.9921 19.1887 11.767 18.5137 10.6407 17.6987L12.4283 15.9112C12.9871 16.2912 13.5758 16.6287 14.1934 16.9099C15.0048 15.3583 15.0096 15.3537 15.1877 15.1831C15.4914 14.8906 15.9222 14.7749 16.3334 14.8661L23.7887 16.5774C24.2087 16.6737 24.5487 16.9787 24.6887 17.3862Z" fill="#FF3A29"/>
</svg>
