<svg width="25" height="25" viewBox="0 0 25 25" fill="none" xmlns="http://www.w3.org/2000/svg">
<path fill-rule="evenodd" clip-rule="evenodd" d="M5.75 2.5C3.9575 2.5 2.5 3.9575 2.5 5.75C2.5 14.985 10.0138 22.5 19.25 22.5C21.0413 22.5 22.5 21.0425 22.5 19.25C22.5 19.1112 22.4913 18.975 22.4738 18.84L16.6987 17.515C16.5837 17.735 16.4575 17.9738 16.3425 18.1963C15.7725 19.2838 15.36 20.0737 14.3075 19.65C10.175 18.2 6.80125 14.825 5.3325 10.6425C4.88625 9.66125 5.73625 9.21625 6.81375 8.65375C7.0325 8.53875 7.26875 8.415 7.485 8.3025L6.16 2.52625C6.02125 2.50875 5.88625 2.5 5.75 2.5ZM19.25 25C8.635 25 0 16.365 0 5.75C0 2.57875 2.57875 0 5.75 0C6.075 0 6.39625 0.0275 6.7075 0.08125C7.01125 0.13 7.31625 0.2075 7.61375 0.31C8.02 0.45125 8.32625 0.7925 8.4225 1.2125L10.1338 8.6675C10.2288 9.0775 10.11 9.5075 9.8175 9.8125C9.6475 9.99 9.64375 9.99375 8.09375 10.805C9.34875 13.5225 11.53 15.6963 14.1925 16.9088C15.005 15.3575 15.01 15.3525 15.1875 15.1825C15.4925 14.89 15.925 14.7762 16.3325 14.8662L23.7887 16.5775C24.2075 16.6737 24.5487 16.9788 24.6887 17.385C24.7913 17.68 24.8688 17.985 24.92 18.2987C24.9725 18.6075 25 18.9275 25 19.25C25 22.4212 22.42 25 19.25 25Z" fill="#00C82C"/>
</svg>
