<svg width="23" height="22" viewBox="0 0 23 22" fill="none" xmlns="http://www.w3.org/2000/svg">
<path fill-rule="evenodd" clip-rule="evenodd" d="M12.5157 10.4293C12.2083 10.1245 12.2083 9.6277 12.5156 9.32291L19.3219 2.57214L16.9092 2.57214C16.4753 2.57214 16.1235 2.22036 16.1235 1.78642C16.1235 1.35248 16.4753 1.00071 16.9092 1.00071L21.2175 1.00071C21.6712 1.00071 22.0391 1.36855 22.0391 1.82231L22.0391 6.0643C22.0391 6.50257 21.6838 6.85785 21.2455 6.85785C20.8072 6.85785 20.452 6.50257 20.452 6.0643V3.69099L13.6323 10.4302C13.3228 10.7361 12.8247 10.7357 12.5157 10.4293Z" fill="#00C82C"/>
<path fill-rule="evenodd" clip-rule="evenodd" d="M18.8311 13.0869C18.5319 12.9655 18.2117 12.903 17.8884 12.903C17.5862 12.886 17.2843 12.9404 17.0075 13.0617C16.7681 13.1761 16.5397 13.3118 16.3251 13.4671C16.1162 13.6172 15.9251 13.7901 15.7553 13.9826C15.5902 14.1711 15.4299 14.344 15.2728 14.4996C15.1302 14.6424 14.9763 14.7738 14.8126 14.8924C14.6473 15.0097 14.4449 15.0642 14.2424 15.046C14.04 15.0278 13.8508 14.9382 13.7095 14.7934C13.5348 14.6312 13.3613 14.4678 13.189 14.3031C12.9668 14.0894 12.6938 13.8317 12.3716 13.5284C12.0344 13.2118 11.6995 12.8928 11.367 12.5714L10.2877 11.528C9.62509 10.8865 8.9846 10.223 8.36734 9.53857C8.14566 9.29727 7.93846 9.04331 7.74679 8.778C7.5976 8.56586 7.52301 8.41029 7.52301 8.31129C7.51379 8.13391 7.57085 7.95938 7.6833 7.821C7.79916 7.67329 7.93724 7.52243 8.09278 7.36529C8.25149 7.21129 8.42448 7.04629 8.61335 6.875C8.8038 6.70214 8.97838 6.51829 9.1355 6.32186C9.29104 6.12543 9.42435 5.90071 9.53228 5.64614C9.63861 5.39471 9.69257 5.10714 9.69257 4.78814C9.69256 4.13969 9.43421 3.51742 8.97362 3.05643C8.6771 2.76823 8.3958 2.46507 8.13087 2.14814C7.82806 1.79113 7.50088 1.4551 7.15163 1.14243C6.81259 0.835222 6.44242 0.563496 6.04701 0.331571C5.68789 0.116331 5.27647 0.0017259 4.85668 0C4.20231 0.00043031 3.57448 0.256197 3.10929 0.711857C2.67918 1.13771 2.30304 1.518 1.98086 1.85429C1.67166 2.17268 1.39717 2.52242 1.16191 2.89771C0.933923 3.2701 0.766803 3.67582 0.666739 4.09986C0.550238 4.624 0.495909 5.15981 0.504855 5.69643C0.504855 6.56386 0.646107 7.46428 0.927024 8.39771C1.20794 9.32957 1.58726 10.2599 2.06656 11.1839C2.54586 12.1094 3.12992 13.0177 3.81554 13.9103C4.50117 14.8013 5.24552 15.6483 6.04701 16.4513C6.84849 17.2527 7.70076 17.9944 8.60224 18.6733C9.50212 19.3521 10.4242 19.9383 11.367 20.4286C12.3081 20.9204 13.2556 21.3039 14.2063 21.582C15.1069 21.8531 16.0424 21.9939 16.9837 22C17.5217 21.9997 18.0581 21.9418 18.5835 21.8271C19.0165 21.7304 19.4308 21.5648 19.8103 21.3369C20.1754 21.1169 20.5245 20.8466 20.8642 20.5276C21.2038 20.207 21.5831 19.8393 22.0053 19.4213C22.4657 18.9602 22.7241 18.338 22.7242 17.6896C22.7063 17.414 22.6518 17.1419 22.5624 16.8803C22.4695 16.6063 22.3317 16.3493 22.1545 16.1197C21.9693 15.879 21.7744 15.6457 21.5704 15.4204C21.3602 15.1873 21.1372 14.9659 20.9023 14.7573C20.6754 14.556 20.4479 14.3553 20.2198 14.1554C20.0202 13.9811 19.8259 13.8008 19.6373 13.6149C19.4074 13.3867 19.1331 13.207 18.8311 13.0869ZM18.2486 20.2934C17.8346 20.392 17.4095 20.4374 16.9837 20.4286C16.1677 20.4133 15.3579 20.2853 14.5777 20.0483C13.7046 19.787 12.8611 19.4374 12.0605 19.0049C10.2806 18.0398 8.6516 16.8239 7.22463 15.3953C6.49932 14.669 5.8163 13.9025 5.17886 13.0994C4.56001 12.323 4.01291 11.4931 3.54415 10.6197C3.10726 9.81212 2.74958 8.96491 2.47603 8.08971C2.22749 7.30314 2.09806 6.48444 2.09195 5.66029C2.09155 5.24207 2.14164 4.8253 2.24114 4.41886C2.33161 4.07629 2.4681 3.76829 2.65061 3.49957C2.83154 3.22929 3.05532 2.96686 3.31878 2.71386C3.58383 2.45929 3.88538 2.16386 4.22343 1.82914C4.30573 1.74536 4.40456 1.67924 4.51377 1.6349C4.62299 1.59057 4.74025 1.56896 4.85827 1.57143C4.95667 1.56357 5.10903 1.628 5.31535 1.76786C5.52168 1.90771 5.74546 2.07429 5.98511 2.27071C6.50266 2.69816 6.9802 3.17098 7.41191 3.68343C7.6103 3.91914 7.77536 4.13757 7.90709 4.334C8.03882 4.53043 8.10547 4.68129 8.10547 4.78814C8.11973 4.96614 8.06208 5.14247 7.94518 5.27843C7.82932 5.41043 7.69124 5.56129 7.53571 5.73414C7.377 5.90543 7.204 6.06886 7.01514 6.22443C6.82469 6.38 6.6501 6.56386 6.49298 6.776C6.33527 6.9901 6.20219 7.22095 6.09621 7.46429C5.98438 7.73321 5.92981 8.02209 5.93591 8.31286C5.94384 8.64757 6.0105 8.96186 6.1343 9.25571C6.25809 9.55114 6.43585 9.81357 6.66756 10.0414L12.5811 15.8981C12.8086 16.1288 13.0808 16.3117 13.3813 16.4359C13.6818 16.5601 14.0045 16.623 14.3301 16.621C14.6279 16.6366 14.9253 16.5828 15.1982 16.4639C15.675 16.2452 16.1012 15.9317 16.4504 15.543C16.625 15.3544 16.7837 15.1816 16.9345 15.026C17.0821 14.872 17.2361 14.74 17.3932 14.6331C17.5379 14.5312 17.7108 14.4757 17.8884 14.4744C18.0042 14.4744 18.1613 14.5404 18.3597 14.6709C18.5581 14.8013 18.7771 14.9694 19.0168 15.1737C19.2564 15.378 19.504 15.6043 19.7611 15.8494C20.0167 16.0946 20.2452 16.3397 20.4436 16.5864C20.6404 16.8316 20.807 17.0531 20.9388 17.2496C21.0705 17.446 21.1371 17.5953 21.1371 17.7037C21.1383 17.818 21.1158 17.9314 21.071 18.0368C21.0263 18.1422 20.9602 18.2374 20.8769 18.3166C20.5214 18.6607 20.2198 18.9609 19.9722 19.2123C19.7316 19.4599 19.4657 19.6822 19.1787 19.8754C18.8945 20.0653 18.5801 20.2066 18.2486 20.2934Z" fill="#276899"/>
</svg>
