<svg width="16" height="17" viewBox="0 0 16 17" fill="none" xmlns="http://www.w3.org/2000/svg">
<path fill-rule="evenodd" clip-rule="evenodd" d="M10.9369 1.99652L9.78416 2.32808L10.9058 0.442078L12.858 1.44391L11.7053 1.77547C11.9074 2.39476 11.8477 3.07202 11.5385 3.66674C11.2292 4.26146 10.6943 4.72798 10.0447 4.96951C10.0177 5.3095 9.83294 5.63623 9.53157 5.83236C8.98927 6.20331 8.24605 6.09269 7.86994 5.59506C7.69058 5.35328 7.62201 5.05069 7.67927 4.75362C7.73653 4.45655 7.91495 4.18923 8.17541 4.01026C8.71771 3.63931 9.46374 3.74521 9.83705 4.24755C11.3426 3.6386 10.9888 2.17701 10.9369 1.99652ZM9.06849 4.60264C8.97696 4.55567 8.86828 4.54575 8.76638 4.57506C8.66447 4.60438 8.57768 4.67052 8.5251 4.75894C8.47251 4.84737 8.45844 4.95083 8.48598 5.04656C8.51351 5.1423 8.58041 5.22247 8.67194 5.26944C8.76347 5.31641 8.87214 5.32633 8.97404 5.29702C9.07595 5.26771 9.16274 5.20157 9.21533 5.11314C9.26791 5.02472 9.28198 4.92126 9.25445 4.82552C9.22691 4.72978 9.16002 4.64961 9.06849 4.60264ZM14.0347 7.39657L13.0127 8.41863L15.6914 8.37185L15.7381 5.69315L14.7161 6.7152C14.1655 6.12538 13.4014 5.77824 12.5824 5.7458C11.7634 5.71336 10.9523 5.9981 10.3174 6.54096C9.93551 6.36353 9.47696 6.36149 9.09185 6.56236C8.37943 6.91289 8.06993 7.76852 8.38908 8.46924C8.54609 8.80612 8.83252 9.06229 9.18558 9.18162C9.53864 9.30095 9.92953 9.27369 10.2726 9.10582C10.985 8.7553 11.3012 7.89955 10.9753 7.19895C12.4998 5.97062 13.8702 7.23208 14.0347 7.39657ZM10.1495 7.79915C10.1473 7.92474 10.0953 8.04606 10.005 8.13642C9.91462 8.22677 9.7933 8.27876 9.66771 8.28096C9.54212 8.28315 9.42255 8.23536 9.33529 8.14811C9.24804 8.06086 9.20025 7.94128 9.20245 7.81569C9.20464 7.6901 9.25663 7.56879 9.34699 7.47843C9.43734 7.38808 9.55866 7.33608 9.68425 7.33389C9.80984 7.3317 9.92941 7.37949 10.0167 7.46674C10.1039 7.55399 10.1517 7.67357 10.1495 7.79915ZM13.2653 4.87606C12.8619 4.78603 12.4473 4.75979 12.0316 4.79383L14.1166 2.70884L13.1296 1.72186L15.8083 1.67509L15.7615 4.35379L14.7746 3.36682L13.2653 4.87606Z" fill="#454D54"/>
<path fill-rule="evenodd" clip-rule="evenodd" d="M3.41721 3.25385C2.35193 3.25385 1.48574 4.13551 1.48574 5.21981C1.48574 10.8061 5.95114 15.352 11.4402 15.352C12.5047 15.352 13.3717 14.4704 13.3717 13.3861C13.3717 13.3021 13.3665 13.2197 13.3561 13.1381L9.92402 12.3366C9.85567 12.4696 9.78064 12.6141 9.7123 12.7487C9.37355 13.4065 9.1284 13.8844 8.5029 13.628C6.04697 12.7509 4.04196 10.7094 3.16909 8.17932C2.90388 7.58576 3.40904 7.31657 4.04939 6.97631C4.17939 6.90675 4.3198 6.83189 4.44831 6.76384L3.66087 3.26973C3.57841 3.25914 3.49818 3.25385 3.41721 3.25385ZM11.4402 16.8643C5.13175 16.8643 0 11.6409 0 5.21981C0 3.30149 1.53254 1.74158 3.41721 1.74158C3.61035 1.74158 3.80127 1.75821 3.98625 1.79073C4.16676 1.82022 4.34802 1.8671 4.52483 1.9291C4.76626 2.01454 4.94826 2.22097 5.00547 2.47503L6.02246 6.98463C6.07891 7.23264 6.00834 7.49275 5.83451 7.67725C5.73348 7.78462 5.73125 7.78689 4.81009 8.27762C5.55593 9.92146 6.85224 11.2364 8.43456 11.9698C8.91742 11.0315 8.9204 11.0284 9.02588 10.9256C9.20714 10.7487 9.46418 10.6799 9.70635 10.7343L14.1376 11.7695C14.3864 11.8277 14.5892 12.0122 14.6724 12.2579C14.7334 12.4364 14.7794 12.6209 14.8099 12.8107C14.8411 12.9974 14.8574 13.191 14.8574 13.3861C14.8574 15.3044 13.3241 16.8643 11.4402 16.8643Z" fill="#454D54"/>
</svg>
