<svg width="26" height="26" viewBox="0 0 26 26" fill="none" xmlns="http://www.w3.org/2000/svg">
<path fill-rule="evenodd" clip-rule="evenodd" d="M12.9984 22.5669C7.70524 22.5669 3.39844 18.2619 3.39844 12.971C3.39844 7.68004 7.70524 3.37509 12.9984 3.37509C18.2916 3.37509 22.5984 7.68004 22.5984 12.971C22.5984 18.2619 18.2916 22.5669 12.9984 22.5669ZM13 0.978516C6.3832 0.978516 1 6.35941 1 12.9734C1 19.5873 6.3832 24.9682 13 24.9682C19.6168 24.9682 25 19.5873 25 12.9734C25 6.35941 19.6168 0.978516 13 0.978516Z" fill="#276899"/>
<path d="M12.9984 22.3169C7.84321 22.3169 3.64844 18.1237 3.64844 12.971H3.14844C3.14844 18.4001 7.56727 22.8169 12.9984 22.8169V22.3169ZM3.64844 12.971C3.64844 7.81821 7.84321 3.62509 12.9984 3.62509V3.12509C7.56727 3.12509 3.14844 7.54187 3.14844 12.971H3.64844ZM12.9984 3.62509C18.1537 3.62509 22.3484 7.81821 22.3484 12.971H22.8484C22.8484 7.54187 18.4296 3.12509 12.9984 3.12509V3.62509ZM22.3484 12.971C22.3484 18.1237 18.1537 22.3169 12.9984 22.3169V22.8169C18.4296 22.8169 22.8484 18.4001 22.8484 12.971H22.3484ZM13 0.728516C6.24523 0.728516 0.75 6.22123 0.75 12.9734H1.25C1.25 6.49758 6.52117 1.22852 13 1.22852V0.728516ZM0.75 12.9734C0.75 19.7255 6.24523 25.2182 13 25.2182V24.7182C6.52117 24.7182 1.25 19.4492 1.25 12.9734H0.75ZM13 25.2182C19.7548 25.2182 25.25 19.7255 25.25 12.9734H24.75C24.75 19.4492 19.4788 24.7182 13 24.7182V25.2182ZM25.25 12.9734C25.25 6.22123 19.7548 0.728516 13 0.728516V1.22852C19.4788 1.22852 24.75 6.49758 24.75 12.9734H25.25Z" fill="#17212B"/>
<path fill-rule="evenodd" clip-rule="evenodd" d="M9.5 17.9703C8.6705 17.9703 8 17.5225 8 16.9707V8.97418C8 8.42242 8.6705 7.97461 9.5 7.97461C10.3295 7.97461 11 8.42242 11 8.97418V16.9707C11 17.5225 10.3295 17.9703 9.5 17.9703Z" fill="#276899"/>
<path fill-rule="evenodd" clip-rule="evenodd" d="M16.5 17.9703C15.6705 17.9703 15 17.5225 15 16.9707V8.97418C15 8.42242 15.6705 7.97461 16.5 7.97461C17.3295 7.97461 18 8.42242 18 8.97418V16.9707C18 17.5225 17.3295 17.9703 16.5 17.9703Z" fill="#276899"/>
</svg>
