<svg width="90" height="28" viewBox="0 0 90 28" fill="none" xmlns="http://www.w3.org/2000/svg">
<rect x="0.5" y="0.5" width="89" height="27" rx="1.5" fill="#17212B" stroke="#FFB200"/>
<path d="M38.1729 15.9902V21H36.4854V8.20312H41.2051C42.6055 8.20312 43.7012 8.56055 44.4922 9.27539C45.2891 9.99023 45.6875 10.9365 45.6875 12.1143C45.6875 13.3564 45.2979 14.3145 44.5186 14.9883C43.7451 15.6562 42.6348 15.9902 41.1875 15.9902H38.1729ZM38.1729 14.6104H41.2051C42.1074 14.6104 42.7988 14.3994 43.2793 13.9775C43.7598 13.5498 44 12.9346 44 12.1318C44 11.3701 43.7598 10.7607 43.2793 10.3037C42.7988 9.84668 42.1396 9.60938 41.3018 9.5918H38.1729V14.6104ZM53.3516 21C53.2578 20.8125 53.1816 20.4785 53.123 19.998C52.3672 20.7832 51.4648 21.1758 50.416 21.1758C49.4785 21.1758 48.708 20.9121 48.1045 20.3848C47.5068 19.8516 47.208 19.1777 47.208 18.3633C47.208 17.373 47.583 16.6055 48.333 16.0605C49.0889 15.5098 50.1494 15.2344 51.5146 15.2344H53.0967V14.4873C53.0967 13.9189 52.9268 13.4678 52.5869 13.1338C52.2471 12.7939 51.7461 12.624 51.084 12.624C50.5039 12.624 50.0176 12.7705 49.625 13.0635C49.2324 13.3564 49.0361 13.7109 49.0361 14.127H47.4014C47.4014 13.6523 47.5684 13.1953 47.9023 12.7559C48.2422 12.3105 48.6992 11.959 49.2734 11.7012C49.8535 11.4434 50.4893 11.3145 51.1807 11.3145C52.2764 11.3145 53.1348 11.5898 53.7559 12.1406C54.377 12.6855 54.6992 13.4385 54.7227 14.3994V18.7764C54.7227 19.6494 54.834 20.3438 55.0566 20.8594V21H53.3516ZM50.6533 19.7607C51.1631 19.7607 51.6465 19.6289 52.1035 19.3652C52.5605 19.1016 52.8916 18.7588 53.0967 18.3369V16.3857H51.8223C49.8301 16.3857 48.834 16.9688 48.834 18.1348C48.834 18.6445 49.0039 19.043 49.3438 19.3301C49.6836 19.6172 50.1201 19.7607 50.6533 19.7607ZM63.1426 20.0596C62.5098 20.8037 61.5811 21.1758 60.3564 21.1758C59.3428 21.1758 58.5693 20.8828 58.0361 20.2969C57.5088 19.7051 57.2422 18.832 57.2363 17.6777V11.4902H58.8623V17.6338C58.8623 19.0752 59.4482 19.7959 60.6201 19.7959C61.8623 19.7959 62.6885 19.333 63.0986 18.4072V11.4902H64.7246V21H63.1777L63.1426 20.0596ZM72.7402 18.4775C72.7402 18.0381 72.5732 17.6982 72.2393 17.458C71.9111 17.2119 71.334 17.001 70.5078 16.8252C69.6875 16.6494 69.0342 16.4385 68.5479 16.1924C68.0674 15.9463 67.71 15.6533 67.4756 15.3135C67.2471 14.9736 67.1328 14.5693 67.1328 14.1006C67.1328 13.3213 67.4609 12.6621 68.1172 12.123C68.7793 11.584 69.623 11.3145 70.6484 11.3145C71.7266 11.3145 72.5996 11.5928 73.2676 12.1494C73.9414 12.7061 74.2783 13.418 74.2783 14.2852H72.6436C72.6436 13.8398 72.4531 13.4561 72.0723 13.1338C71.6973 12.8115 71.2227 12.6504 70.6484 12.6504C70.0566 12.6504 69.5938 12.7793 69.2598 13.0371C68.9258 13.2949 68.7588 13.6318 68.7588 14.0479C68.7588 14.4404 68.9141 14.7363 69.2246 14.9355C69.5352 15.1348 70.0947 15.3252 70.9033 15.5068C71.7178 15.6885 72.377 15.9053 72.8809 16.1572C73.3848 16.4092 73.7568 16.7139 73.9971 17.0713C74.2432 17.4229 74.3662 17.8535 74.3662 18.3633C74.3662 19.2129 74.0264 19.8955 73.3467 20.4111C72.667 20.9209 71.7852 21.1758 70.7012 21.1758C69.9395 21.1758 69.2656 21.041 68.6797 20.7715C68.0938 20.502 67.6338 20.127 67.2998 19.6465C66.9717 19.1602 66.8076 18.6357 66.8076 18.0732H68.4336C68.4629 18.6182 68.6797 19.0518 69.084 19.374C69.4941 19.6904 70.0332 19.8486 70.7012 19.8486C71.3164 19.8486 71.8086 19.7256 72.1777 19.4795C72.5527 19.2275 72.7402 18.8936 72.7402 18.4775ZM80.4307 21.1758C79.1416 21.1758 78.0928 20.7539 77.2842 19.9102C76.4756 19.0605 76.0713 17.9268 76.0713 16.5088V16.21C76.0713 15.2666 76.25 14.4258 76.6074 13.6875C76.9707 12.9434 77.4746 12.3633 78.1191 11.9473C78.7695 11.5254 79.4727 11.3145 80.2285 11.3145C81.4648 11.3145 82.4258 11.7217 83.1113 12.5361C83.7969 13.3506 84.1396 14.5166 84.1396 16.0342V16.7109H77.6973C77.7207 17.6484 77.9932 18.4072 78.5146 18.9873C79.042 19.5615 79.71 19.8486 80.5186 19.8486C81.0928 19.8486 81.5791 19.7314 81.9775 19.4971C82.376 19.2627 82.7246 18.9521 83.0234 18.5654L84.0166 19.3389C83.2197 20.5635 82.0244 21.1758 80.4307 21.1758ZM80.2285 12.6504C79.5723 12.6504 79.0215 12.8906 78.5762 13.3711C78.1309 13.8457 77.8555 14.5137 77.75 15.375H82.5137V15.252C82.4668 14.4258 82.2441 13.7871 81.8457 13.3359C81.4473 12.8789 80.9082 12.6504 80.2285 12.6504Z" fill="#FFB200"/>
<circle cx="16" cy="14" r="10.5" stroke="#FFB200"/>
<circle cx="26.5" cy="19.5" r="6" fill="#17212B" stroke="#00C82C"/>
<path d="M24 19.9862L26.0185 22L30 18" stroke="white" stroke-linecap="round" stroke-linejoin="round"/>
<rect x="12" y="9" width="3.06122" height="10" rx="1.53061" fill="white"/>
<rect x="17" y="9" width="3.06122" height="10" rx="1.53061" fill="white"/>
</svg>
