<svg width="21" height="17" viewBox="0 0 21 17" fill="none" xmlns="http://www.w3.org/2000/svg">
<path d="M20.9705 9.61947C20.9705 9.61937 20.9705 9.61932 20.9704 9.61922L17.0056 0.244777C16.9214 0.0455939 16.6816 -0.0516441 16.4701 0.0275923C16.47 0.0276408 16.4698 0.0276893 16.4697 0.0277864L0.384616 6.05888C0.319019 6.08556 0.262131 6.12816 0.219722 6.18232C0.0859512 6.24777 0.00144283 6.37732 0 6.51925V16.6118C0 16.8262 0.184579 17 0.412236 17H17.7261C17.9538 17 18.1384 16.8262 18.1384 16.6118V11.0997L20.7404 10.1239C20.9519 10.0444 21.0549 9.8186 20.9705 9.61947ZM17.3139 16.2236H0.824472V6.90743H17.3139V16.2236ZM6.87816 6.13302L13.7806 3.54311C14.3967 4.15283 15.2503 4.49938 16.144 4.50268L16.8324 6.13302H6.87816ZM18.1384 10.2659V6.51925C18.1384 6.30488 17.9538 6.13108 17.7261 6.13108H17.7196L16.846 4.0652C16.8363 4.04798 16.825 4.03158 16.8122 4.01629C16.768 3.82934 16.5841 3.70177 16.3814 3.7174C15.5498 3.78877 14.7364 3.45892 14.2201 2.8409C14.0916 2.69159 13.8658 2.65448 13.6912 2.75395C13.6716 2.75613 13.6522 2.75953 13.6331 2.76404L5.20613 5.92379C5.10415 5.96144 5.02258 6.03612 4.97981 6.13108H2.42065L16.3922 0.892642L20.0524 9.54702L18.1384 10.2659Z" fill="#4B535A"/>
<path d="M1.94277 13.6029C2.74313 13.8257 3.36942 14.4147 3.60697 15.168C3.65907 15.3325 3.81968 15.4451 4.00189 15.4452C4.02328 15.4439 4.04451 15.4409 4.06538 15.4362C4.08388 15.4412 4.10279 15.4448 4.12185 15.4471H14.0155C14.0325 15.445 14.0493 15.4418 14.0658 15.4374C14.2718 15.4846 14.4793 15.3656 14.5295 15.1717C14.5296 15.171 14.5298 15.1703 14.53 15.1696C14.7669 14.4154 15.3933 13.8256 16.1942 13.6025C16.3884 13.5466 16.5091 13.3644 16.477 13.1755C16.4825 13.1567 16.4865 13.1375 16.4889 13.1181V10.0126C16.4865 9.99319 16.4824 9.97398 16.4766 9.9552C16.5089 9.7663 16.3881 9.58396 16.1938 9.5282C15.3929 9.30515 14.7667 8.71507 14.5304 7.96075C14.4707 7.77661 14.2753 7.66268 14.0736 7.69446C14.0546 7.68946 14.0351 7.68583 14.0155 7.68359H4.12185C4.10109 7.68592 4.08053 7.6898 4.06043 7.69524C3.85993 7.66515 3.66649 7.77875 3.60697 7.96153C3.36988 8.71551 2.74354 9.30515 1.94277 9.5282C1.74856 9.5841 1.62788 9.76635 1.65998 9.9552C1.65462 9.97407 1.65076 9.99324 1.64844 10.0126V13.1181C1.65081 13.1363 1.65467 13.1543 1.65998 13.172C1.62618 13.3621 1.74712 13.5464 1.94277 13.6029ZM2.47291 10.1702C3.30068 9.85718 3.95675 9.2394 4.28922 8.45995H13.8477C14.1804 9.2394 14.8366 9.85718 15.6645 10.1702V12.9605C14.8369 13.2739 14.181 13.8915 13.8481 14.6708H4.28922C3.95639 13.8915 3.30042 13.2739 2.47291 12.9605V10.1702Z" fill="#4B535A"/>
<path d="M9.06912 13.8944C10.4352 13.8944 11.5425 12.8517 11.5425 11.5654C11.5425 10.2791 10.4352 9.23633 9.06912 9.23633C7.70307 9.23633 6.5957 10.2791 6.5957 11.5654C6.59704 12.8512 7.70364 13.8932 9.06912 13.8944ZM9.06912 10.0127C9.9798 10.0127 10.7181 10.7079 10.7181 11.5654C10.7181 12.4229 9.9798 13.1181 9.06912 13.1181C8.15844 13.1181 7.42018 12.4229 7.42018 11.5654C7.42018 10.7079 8.15844 10.0127 9.06912 10.0127Z" fill="#4B535A"/>
<path d="M4.53437 12.1489C4.87586 12.1489 5.15272 11.8882 5.15272 11.5666C5.15272 11.2451 4.87586 10.9844 4.53437 10.9844C4.19288 10.9844 3.91602 11.2451 3.91602 11.5666C3.91602 11.8882 4.19288 12.1489 4.53437 12.1489ZM4.53437 11.3726C4.6482 11.3726 4.74049 11.4595 4.74049 11.5666C4.74049 11.6738 4.6482 11.7607 4.53437 11.7607C4.42054 11.7607 4.32825 11.6738 4.32825 11.5666C4.32825 11.4595 4.42054 11.3726 4.53437 11.3726Z" fill="#4B535A"/>
<path d="M13.6047 12.1489C13.9462 12.1489 14.223 11.8882 14.223 11.5666C14.223 11.2451 13.9462 10.9844 13.6047 10.9844C13.2632 10.9844 12.9863 11.2451 12.9863 11.5666C12.9863 11.8882 13.2632 12.1489 13.6047 12.1489ZM13.6047 11.3726C13.7185 11.3726 13.8108 11.4595 13.8108 11.5666C13.8108 11.6738 13.7185 11.7607 13.6047 11.7607C13.4909 11.7607 13.3986 11.6738 13.3986 11.5666C13.3986 11.4595 13.4909 11.3726 13.6047 11.3726Z" fill="#4B535A"/>
</svg>
