<svg width="21" height="21" viewBox="0 0 21 21" fill="none" xmlns="http://www.w3.org/2000/svg">
<g filter="url(#filter0_d_5912)">
<path fill-rule="evenodd" clip-rule="evenodd" d="M10.5 13C14.0899 13 17 10.0899 17 6.5C17 2.91015 14.0899 0 10.5 0C6.91015 0 4 2.91015 4 6.5C4 10.0899 6.91015 13 10.5 13ZM10.16 3.385H8.702V10H9.719V7.552H10.07C10.886 7.552 11.501 7.363 11.915 6.985C12.329 6.607 12.536 6.064 12.536 5.356C12.536 4.744 12.344 4.264 11.96 3.916C11.582 3.562 10.982 3.385 10.16 3.385ZM11.204 6.31C10.994 6.544 10.625 6.661 10.097 6.661H9.719V4.267H10.187C10.667 4.267 11.009 4.378 11.213 4.6C11.417 4.822 11.519 5.11 11.519 5.464C11.519 5.794 11.414 6.076 11.204 6.31Z" fill="#FFB200"/>
</g>
<defs>
<filter id="filter0_d_5912" x="0" y="0" width="21" height="21" filterUnits="userSpaceOnUse" color-interpolation-filters="sRGB">
<feFlood flood-opacity="0" result="BackgroundImageFix"/>
<feColorMatrix in="SourceAlpha" type="matrix" values="0 0 0 0 0 0 0 0 0 0 0 0 0 0 0 0 0 0 127 0" result="hardAlpha"/>
<feOffset dy="4"/>
<feGaussianBlur stdDeviation="2"/>
<feColorMatrix type="matrix" values="0 0 0 0 0 0 0 0 0 0 0 0 0 0 0 0 0 0 0.5 0"/>
<feBlend mode="normal" in2="BackgroundImageFix" result="effect1_dropShadow_5912"/>
<feBlend mode="normal" in="SourceGraphic" in2="effect1_dropShadow_5912" result="shape"/>
</filter>
</defs>
</svg>
