<svg width="27" height="27" viewBox="0 0 27 27" fill="none" xmlns="http://www.w3.org/2000/svg">
<path fill-rule="evenodd" clip-rule="evenodd" d="M20.7913 24.3C10.8162 24.3 2.7 16.1838 2.7 6.20865C2.7 4.2741 4.2741 2.7 6.21 2.7C6.35715 2.7 6.5043 2.7081 6.6528 2.72835L8.08515 8.96535C7.84755 9.08955 7.58835 9.22455 7.3494 9.3501C6.17355 9.96435 5.3244 10.4099 5.7591 11.4926C7.34535 16.011 10.989 19.6546 15.4534 21.2206C16.5969 21.6783 17.0343 20.8251 17.6486 19.6506C17.7754 19.4103 17.9104 19.1524 18.0347 18.9148L24.2717 20.3472C24.2906 20.4916 24.3 20.6402 24.3 20.79C24.3 22.7259 22.7259 24.3 20.7913 24.3ZM26.9136 19.7613C26.8596 19.4238 26.7745 19.0931 26.6639 18.7758C26.5126 18.337 26.1441 18.0063 25.6919 17.9023L17.6405 16.0542C17.1963 15.9557 16.7319 16.0812 16.4039 16.3958C16.2108 16.5807 16.2067 16.5847 15.3292 18.2614C12.4402 16.9452 10.0791 14.5881 8.74125 11.6694C10.4139 10.7933 10.4193 10.7892 10.6042 10.5962C10.9188 10.2681 11.047 9.80235 10.9458 9.35955L9.09765 1.30815C8.99235 0.85455 8.66295 0.48735 8.2242 0.33615C7.90425 0.2241 7.57215 0.1404 7.24275 0.08775C6.9066 0.0297 6.56235 0 6.21 0C2.7864 0 0 2.78505 0 6.20865C0 17.6728 9.3258 27 20.7913 27C24.215 27 27 24.2136 27 20.79C27 20.4403 26.9703 20.0961 26.9136 19.7613Z" fill="white"/>
<rect x="17.2783" width="2.89286" height="11.5714" rx="1.44643" fill="white"/>
<rect x="22.0986" width="2.89286" height="11.5714" rx="1.44643" fill="white"/>
</svg>
