<svg width="45" height="37" viewBox="0 0 45 37" fill="none" xmlns="http://www.w3.org/2000/svg">
<g filter="url(#filter0_d_3831_9336)">
<path d="M13.4485 0.861075C13.8221 0.321772 14.4365 0 15.0926 0H38.9091C40.0137 0 40.9091 0.89543 40.9091 2V27C40.9091 28.1046 40.0137 29 38.9091 29H15.0926C14.4365 29 13.8222 28.6782 13.4485 28.1389L4.78901 15.6389C4.31439 14.9538 4.31438 14.0462 4.78901 13.3611L13.4485 0.861075Z" fill="#17212B"/>
<path d="M13.654 1.00344C13.981 0.531551 14.5185 0.25 15.0926 0.25H38.9091C39.8756 0.25 40.6591 1.0335 40.6591 2V27C40.6591 27.9665 39.8756 28.75 38.9091 28.75H15.0926C14.5185 28.75 13.981 28.4685 13.654 27.9966L4.99451 15.4966C4.57922 14.8971 4.57922 14.1029 4.99451 13.5034L13.654 1.00344Z" stroke="#276899" stroke-width="0.5"/>
</g>
<path d="M25.377 13.735L25.7306 14.0886L26.0841 13.735L30.7639 9.05528L31.1753 9.46669L26.4955 14.1464L26.142 14.5L26.4955 14.8536L31.1753 19.5333L30.7639 19.9447L26.0841 15.265L25.7306 14.9114L25.377 15.265L20.6972 19.9447L20.2858 19.5333L24.9656 14.8536L25.3191 14.5L24.9656 14.1464L20.2858 9.46669L20.6972 9.05528L25.377 13.735Z" fill="white" stroke="white"/>
<defs>
<filter id="filter0_d_3831_9336" x="0.433105" y="0" width="44.4761" height="37" filterUnits="userSpaceOnUse" color-interpolation-filters="sRGB">
<feFlood flood-opacity="0" result="BackgroundImageFix"/>
<feColorMatrix in="SourceAlpha" type="matrix" values="0 0 0 0 0 0 0 0 0 0 0 0 0 0 0 0 0 0 127 0" result="hardAlpha"/>
<feOffset dy="4"/>
<feGaussianBlur stdDeviation="2"/>
<feColorMatrix type="matrix" values="0 0 0 0 0 0 0 0 0 0 0 0 0 0 0 0 0 0 0.25 0"/>
<feBlend mode="normal" in2="BackgroundImageFix" result="effect1_dropShadow_3831_9336"/>
<feBlend mode="normal" in="SourceGraphic" in2="effect1_dropShadow_3831_9336" result="shape"/>
</filter>
</defs>
</svg>
