<svg width="28" height="28" viewBox="0 0 28 28" fill="none" xmlns="http://www.w3.org/2000/svg">
<path d="M7.37677 0H0.793201C0.356941 0 0 0.350975 0 0.779944V7.25348C0 7.68244 0.356941 8.03342 0.793201 8.03342H7.37677C7.81303 8.03342 8.16997 7.68244 8.16997 7.25348V0.779944C8.16997 0.350975 7.81303 0 7.37677 0ZM6.66289 6.55153H1.5864V1.55989H6.66289V6.55153Z" fill="#ffffff"/>
<path d="M17.2918 0H10.7082C10.272 0 9.91501 0.350975 9.91501 0.779944V7.25348C9.91501 7.68244 10.272 8.03342 10.7082 8.03342H17.2918C17.7281 8.03342 18.085 7.68244 18.085 7.25348V0.779944C18.085 0.350975 17.7281 0 17.2918 0ZM16.5779 6.55153H11.5014V1.55989H16.5779V6.55153Z" fill="#ffffff"/>
<path d="M7.37677 9.82731H0.793201C0.356941 9.82731 0 10.1783 0 10.6072V17.0808C0 17.5098 0.356941 17.8607 0.793201 17.8607H7.37677C7.81303 17.8607 8.16997 17.5098 8.16997 17.0808V10.6072C8.16997 10.1783 7.81303 9.82731 7.37677 9.82731ZM6.66289 16.3008H1.5864V11.3872H6.66289V16.3008Z" fill="#ffffff"/>
<path d="M17.2918 9.82731H10.7082C10.272 9.82731 9.91501 10.1783 9.91501 10.6072V17.0808C9.91501 17.5098 10.272 17.8607 10.7082 17.8607H17.2918C17.7281 17.8607 18.085 17.5098 18.085 17.0808V10.6072C18.085 10.1783 17.7281 9.82731 17.2918 9.82731ZM16.5779 16.3008H11.5014V11.3872H16.5779V16.3008Z" fill="#ffffff"/>
<path d="M27.2068 0H20.6232C20.187 0 19.83 0.350975 19.83 0.779944V7.25348C19.83 7.68244 20.187 8.03342 20.6232 8.03342H27.2068C27.6431 8.03342 28 7.68244 28 7.25348V0.779944C28 0.350975 27.6431 0 27.2068 0ZM26.4929 6.55153H21.4164V1.55989H26.4929V6.55153Z" fill="#ffffff"/>
<path d="M27.2068 9.82731H20.6232C20.187 9.82731 19.83 10.1783 19.83 10.6072V17.0808C19.83 17.5098 20.187 17.8607 20.6232 17.8607H27.2068C27.6431 17.8607 28 17.5098 28 17.0808V10.6072C28 10.1783 27.6431 9.82731 27.2068 9.82731ZM26.4929 16.3008H21.4164V11.3872H26.4929V16.3008Z" fill="#ffffff"/>
<path d="M7.37677 19.9666H0.793201C0.356941 19.9666 0 20.3175 0 20.7465V27.2201C0 27.649 0.356941 28 0.793201 28H7.37677C7.81303 28 8.16997 27.649 8.16997 27.2201V20.7465C8.16997 20.3175 7.81303 19.9666 7.37677 19.9666ZM6.66289 26.5181H1.5864V21.5265H6.66289V26.5181Z" fill="#ffffff"/>
<path d="M17.2918 19.9666H10.7082C10.272 19.9666 9.91501 20.3175 9.91501 20.7465V27.2201C9.91501 27.649 10.272 28 10.7082 28H17.2918C17.7281 28 18.085 27.649 18.085 27.2201V20.7465C18.085 20.3175 17.7281 19.9666 17.2918 19.9666ZM16.5779 26.5181H11.5014V21.5265H16.5779V26.5181Z" fill="#ffffff"/>
<path d="M27.2068 19.9666H20.6232C20.187 19.9666 19.83 20.3175 19.83 20.7465V27.2201C19.83 27.649 20.187 28 20.6232 28H27.2068C27.6431 28 28 27.649 28 27.2201V20.7465C28 20.3175 27.6431 19.9666 27.2068 19.9666ZM26.4929 26.5181H21.4164V21.5265H26.4929V26.5181Z" fill="#ffffff"/>
</svg>
