<svg width="28" height="28" viewBox="0 0 28 28" fill="none" xmlns="http://www.w3.org/2000/svg">
<path d="M28 4.70312C28 3.19539 26.7734 1.96875 25.2656 1.96875H23.5703V1.09375C23.5703 0.489672 23.0806 0 22.4766 0H5.46875C3.65947 0 2.1875 1.47197 2.1875 3.28125V4.89125C0.914484 5.3428 0 6.55851 0 7.98438C0 9.41035 0.91432 10.6268 2.1875 11.0782V11.4538C0.914484 11.9053 0 13.121 0 14.5469C0 15.9729 0.91432 17.1893 2.1875 17.6407V18.0163C0.914484 18.4678 0 19.6835 0 21.1094C0 22.5354 0.91432 23.7518 2.1875 24.2032V24.7188C2.1875 26.528 3.65947 28 5.46875 28H22.4766C23.0806 28 23.5703 27.5103 23.5703 26.9062V25.8125H25.2656C25.8697 25.8125 26.3594 25.3228 26.3594 24.7188C26.3594 24.1147 25.8697 23.625 25.2656 23.625H23.5703V18.5938H25.2656C25.5672 18.5938 25.8125 18.8391 25.8125 19.1406V20.2344C25.8125 20.8385 26.3022 21.3281 26.9062 21.3281C27.5103 21.3281 28 20.8385 28 20.2344V19.1406C28 18.5256 27.7957 17.9574 27.4516 17.5C27.7957 17.0426 28 16.4744 28 15.8594V11.9219C28 11.3068 27.7957 10.7386 27.4516 10.2812C27.7957 9.8239 28 9.2557 28 8.64062V4.70312ZM25.2656 4.15625C25.5672 4.15625 25.8125 4.40158 25.8125 4.70312V8.64062C25.8125 8.94217 25.5672 9.1875 25.2656 9.1875H23.5703V4.15625H25.2656ZM21.3828 25.8125H5.46875C4.86566 25.8125 4.375 25.3218 4.375 24.7188V23.2969C4.375 22.6928 3.88533 22.2031 3.28125 22.2031C2.67816 22.2031 2.1875 21.7125 2.1875 21.1094C2.1875 20.5063 2.67816 20.0156 3.28125 20.0156H5.46875C6.07283 20.0156 6.5625 19.526 6.5625 18.9219C6.5625 18.3178 6.07283 17.8281 5.46875 17.8281H4.375V16.7344C4.375 16.1303 3.88533 15.6406 3.28125 15.6406C2.67816 15.6406 2.1875 15.15 2.1875 14.5469C2.1875 13.9438 2.67816 13.4531 3.28125 13.4531H5.46875C6.07283 13.4531 6.5625 12.9635 6.5625 12.3594C6.5625 11.7553 6.07283 11.2656 5.46875 11.2656H4.375V10.1719C4.375 9.5678 3.88533 9.07812 3.28125 9.07812C2.67816 9.07812 2.1875 8.58747 2.1875 7.98438C2.1875 7.38128 2.67816 6.89062 3.28125 6.89062H5.46875C6.07283 6.89062 6.5625 6.40095 6.5625 5.79688C6.5625 5.1928 6.07283 4.70312 5.46875 4.70312H4.375V3.28125C4.375 2.67816 4.86566 2.1875 5.46875 2.1875H21.3828V25.8125ZM23.5703 16.4062V11.375H25.2656C25.5672 11.375 25.8125 11.6203 25.8125 11.9219V15.8594C25.8125 16.1609 25.5672 16.4062 25.2656 16.4062H23.5703ZM11.0282 16.9111C9.28069 15.1622 8.32125 13.0495 8.31256 11.3008C8.30769 10.3188 8.60256 9.45159 9.22611 8.82804L9.23967 8.8159C9.77096 8.33902 10.5845 8.36834 11.0801 8.88229C12.073 9.912 12.6705 10.9418 11.671 11.9651L10.7935 12.8493C10.7935 12.8493 11.3028 13.993 12.5964 15.2866L12.6588 15.3489C13.9524 16.6426 15.0962 17.1519 15.0962 17.1519L15.9803 16.2743C17.0037 15.2749 18.0334 15.8723 19.0631 16.8653C19.5771 17.3609 19.6064 18.1744 19.1295 18.7057L19.1173 18.7193C18.4938 19.3428 17.6265 19.6377 16.6445 19.6328L16.6385 19.6268C14.8898 19.618 12.7771 18.6586 11.0282 16.9111Z" fill="white"/>
</svg>
