<svg width="24" height="24" viewBox="0 0 24 24" fill="none" xmlns="http://www.w3.org/2000/svg">
<path fill-rule="evenodd" clip-rule="evenodd" d="M2.885 11.5463C4.22412 12.0059 5.29085 13.1267 5.73722 14.5475L5.78522 14.6915C6.29639 16.1987 6.0888 17.8211 5.23206 19.0379C5.07607 19.2587 5.11086 19.5227 5.27525 19.6475L7.7615 21.5363C7.84909 21.6023 7.93429 21.6023 7.98708 21.5963C8.04708 21.5867 8.13467 21.5543 8.20547 21.4535L8.48265 21.0599C9.3094 19.8875 10.6413 19.1639 12.0476 19.1231C13.6267 19.0907 15.045 19.8143 15.9282 21.0899L16.0698 21.2951C16.1406 21.3959 16.227 21.4295 16.2882 21.4391C16.341 21.4499 16.4273 21.4463 16.5137 21.3791L18.9868 19.5131C19.1596 19.3835 19.198 19.1063 19.0696 18.9203L18.7576 18.4703C17.9537 17.3087 17.7149 15.8015 18.1192 14.4395C18.5584 12.9563 19.6755 11.7827 21.1095 11.3027L21.3506 11.2211C21.5438 11.1575 21.6482 10.9175 21.5798 10.6967L20.6355 7.67155C20.5911 7.52995 20.4999 7.46635 20.4495 7.43995C20.3775 7.40275 20.2995 7.39675 20.2251 7.42195L19.8171 7.55755C18.4216 8.02195 16.8821 7.76995 15.7002 6.88075L15.5706 6.78355C14.4475 5.93875 13.7791 4.57675 13.7839 3.14155L13.7863 2.80555C13.7863 2.64595 13.7107 2.54635 13.6651 2.50075C13.6219 2.45635 13.5487 2.40355 13.4455 2.40355L10.3893 2.39995C10.2021 2.39995 10.0498 2.57875 10.0486 2.79955L10.0474 3.08995C10.0414 4.54795 9.35859 5.93515 8.22107 6.80275L8.06628 6.92035C6.81476 7.87195 5.18286 8.14075 3.70455 7.63675C3.64816 7.61755 3.59536 7.62115 3.54496 7.64755C3.50656 7.66675 3.43697 7.71595 3.40337 7.82515L2.42303 10.9403C2.35224 11.1671 2.46863 11.4035 2.68822 11.4791L2.885 11.5463ZM7.93819 24C7.35503 24 6.78866 23.8104 6.31109 23.4468L3.82485 21.5592C2.63693 20.6592 2.37414 18.9276 3.23809 17.7C3.68686 17.064 3.77925 16.2468 3.51527 15.4716L3.44927 15.27C3.22969 14.5716 2.72812 14.0292 2.10776 13.8168H2.10656L1.91097 13.7484C0.449464 13.248 -0.330487 11.6988 0.133884 10.2204L1.11302 7.1064C1.33501 6.402 1.81378 5.8332 2.46174 5.5056C3.0953 5.1864 3.81165 5.1372 4.48121 5.3664C5.19996 5.6112 5.99791 5.478 6.61347 5.01L6.76826 4.8924C7.31543 4.4748 7.64541 3.7968 7.64781 3.0804L7.64901 2.7912C7.65501 1.2504 8.88493 0 10.3884 0H10.3932L13.4494 0.0036C14.1718 0.0048 14.8534 0.2904 15.3669 0.8076C15.8985 1.3416 16.1889 2.0556 16.1865 2.8176L16.1841 3.1524C16.1817 3.8316 16.4924 4.4736 17.0168 4.8672L17.1452 4.9644C17.696 5.3784 18.4135 5.4972 19.0579 5.2812L19.4647 5.1456C20.157 4.9152 20.8938 4.9716 21.5429 5.304C22.2089 5.6448 22.7009 6.2316 22.9264 6.9576L23.8708 9.9828C24.3268 11.4444 23.5372 13.0212 22.1129 13.4976L21.8717 13.578C21.1806 13.8108 20.637 14.3868 20.4198 15.1212C20.2206 15.7944 20.3358 16.5348 20.7306 17.1036L21.0426 17.5536C21.8993 18.792 21.6257 20.5296 20.433 21.4284L17.96 23.2956C17.366 23.7444 16.6376 23.9256 15.9069 23.8092C15.1701 23.6904 14.527 23.2824 14.0962 22.6608L13.9546 22.4544C13.5346 21.8496 12.8627 21.4824 12.1583 21.522C11.4528 21.5412 10.8432 21.876 10.4448 22.4424L10.1676 22.836C9.73328 23.4516 9.08892 23.8536 8.35576 23.9688C8.21537 23.9904 8.07618 24 7.93819 24ZM12.0011 10.1996C11.0087 10.1996 10.2012 11.0072 10.2012 11.9996C10.2012 12.992 11.0087 13.7996 12.0011 13.7996C12.9934 13.7996 13.8009 12.992 13.8009 11.9996C13.8009 11.0072 12.9934 10.1996 12.0011 10.1996ZM12.0015 16.2002C9.68564 16.2002 7.80176 14.3162 7.80176 12.0002C7.80176 9.68416 9.68564 7.80016 12.0015 7.80016C14.3173 7.80016 16.2012 9.68416 16.2012 12.0002C16.2012 14.3162 14.3173 16.2002 12.0015 16.2002Z" fill="white"/>
</svg>
