<svg width="20" height="20" viewBox="0 0 20 20" fill="none" xmlns="http://www.w3.org/2000/svg">
<circle cx="10" cy="10" r="9" fill="#263037" stroke="#17212B" stroke-width="2"/>
<path d="M4 10C4 9.44772 4.44772 9 5 9H15C15.5523 9 16 9.44772 16 10C16 10.5523 15.5523 11 15 11H5C4.44772 11 4 10.5523 4 10Z" fill="#276899"/>
<path d="M9.99988 4.00049C10.5522 4.00049 10.9999 4.4482 10.9999 5.00049L10.9999 15.0005C10.9999 15.5528 10.5522 16.0005 9.99988 16.0005C9.44759 16.0005 8.99988 15.5528 8.99988 15.0005L8.99988 5.00049C8.99988 4.4482 9.44759 4.00049 9.99988 4.00049Z" fill="#276899"/>
</svg>
