<svg width="28" height="27" viewBox="0 0 28 27" fill="none" xmlns="http://www.w3.org/2000/svg">
<ellipse cx="14.2449" cy="13.5" rx="13.491" ry="13.5" fill="#276899"/>
<path fill-rule="evenodd" clip-rule="evenodd" d="M15.5726 12.4178L15.5703 5.84307C15.5701 5.24425 15.086 4.76013 14.4872 4.75992C13.8884 4.75971 13.4046 5.2435 13.4048 5.84232L13.4071 12.4171L6.8323 12.4148C6.23348 12.4146 5.74969 12.8984 5.7499 13.4972C5.7501 14.096 6.23422 14.5802 6.83304 14.5804L13.4078 14.5826L13.4101 21.1574C13.4103 21.7562 13.8944 22.2403 14.4932 22.2405C14.7918 22.2406 15.0629 22.1197 15.2589 21.9238C15.4548 21.7278 15.5757 21.4568 15.5756 21.1581L15.5733 14.5834L22.1481 14.5856C22.4468 14.5857 22.7178 14.4648 22.9138 14.2689C23.1097 14.0729 23.2306 13.8019 23.2305 13.5032C23.2303 12.9044 22.7462 12.4203 22.1474 12.4201L15.5726 12.4178Z" fill="white"/>
</svg>
