<svg width="25" height="24" viewBox="0 0 25 24" fill="none" xmlns="http://www.w3.org/2000/svg">
<path fill-rule="evenodd" clip-rule="evenodd" d="M18.497 15.0947C18.195 14.9733 17.8719 14.9108 17.5455 14.9108C17.2406 14.8938 16.9358 14.9482 16.6565 15.0695C16.4149 15.1839 16.1843 15.3196 15.9678 15.475C15.757 15.625 15.5641 15.7979 15.3927 15.9904C15.2261 16.179 15.0643 16.3518 14.9058 16.5074C14.7618 16.6502 14.6065 16.7816 14.4412 16.9002C14.2744 17.0175 14.0702 17.072 13.8658 17.0538C13.6615 17.0356 13.4706 16.946 13.328 16.8012C13.1517 16.639 12.9765 16.4756 12.8026 16.311C12.5783 16.0972 12.3028 15.8395 11.9777 15.5362C11.6374 15.2196 11.2994 14.9006 10.9637 14.5792L9.87449 13.5358C9.2057 12.8943 8.55927 12.2308 7.9363 11.5464C7.71256 11.3051 7.50344 11.0511 7.31 10.7858C7.15943 10.5737 7.08414 10.4181 7.08414 10.3191C7.07484 10.1417 7.13243 9.96719 7.24592 9.82881C7.36285 9.6811 7.50221 9.53024 7.65919 9.3731C7.81937 9.2191 7.99397 9.0541 8.18458 8.88281C8.3768 8.70996 8.553 8.5261 8.71157 8.32967C8.86855 8.13324 9.0031 7.90853 9.11203 7.65395C9.21935 7.40253 9.27381 7.11495 9.27381 6.79596C9.27379 6.1475 9.01305 5.52523 8.54819 5.06424C8.24892 4.77605 7.96502 4.47288 7.69763 4.15596C7.39202 3.79894 7.06181 3.46291 6.70932 3.15024C6.36714 2.84303 5.99354 2.57131 5.59446 2.33938C5.23202 2.12414 4.81678 2.00954 4.39311 2.00781C3.73268 2.00824 3.09903 2.26401 2.62952 2.71967C2.19543 3.14553 1.8158 3.52581 1.49064 3.8621C1.17857 4.1805 0.901539 4.53023 0.664105 4.90553C0.434001 5.27791 0.265333 5.68363 0.164342 6.10767C0.0467613 6.63181 -0.00807086 7.16763 0.000957736 7.70424C0.000957736 8.57167 0.143518 9.4721 0.427038 10.4055C0.710558 11.3374 1.09339 12.2677 1.57713 13.1917C2.06088 14.1172 2.65034 15.0255 3.34232 15.9181C4.0343 16.8091 4.78555 17.6561 5.59446 18.4591C6.40337 19.2605 7.26354 20.0022 8.17337 20.6811C9.08159 21.36 10.0122 21.9461 10.9637 22.4364C11.9136 22.9282 12.8699 23.3117 13.8293 23.5898C14.7383 23.8609 15.6825 24.0017 16.6325 24.0078C17.1755 24.0075 17.7169 23.9496 18.2471 23.835C18.6841 23.7382 19.1023 23.5726 19.4853 23.3447C19.8537 23.1247 20.2061 22.8544 20.5489 22.5354C20.8917 22.2148 21.2745 21.8471 21.7006 21.4291C22.1653 20.968 22.426 20.3458 22.4262 19.6974C22.4081 19.4218 22.3532 19.1497 22.2628 18.8881C22.1691 18.6141 22.0301 18.3571 21.8512 18.1275C21.6643 17.8868 21.4676 17.6536 21.2617 17.4282C21.0496 17.1951 20.8245 16.9738 20.5874 16.7651C20.3584 16.5638 20.1288 16.3632 19.8986 16.1632C19.6971 15.9889 19.501 15.8087 19.3107 15.6227C19.0787 15.3945 18.8019 15.2149 18.497 15.0947ZM17.9091 22.3012C17.4913 22.3998 17.0622 22.4452 16.6325 22.4364C15.809 22.4211 14.9916 22.2931 14.2042 22.0561C13.323 21.7949 12.4717 21.4452 11.6637 21.0127C9.86724 20.0476 8.22318 18.8318 6.783 17.4031C6.05097 16.6768 5.36161 15.9103 4.71827 15.1072C4.09369 14.3308 3.54151 13.5009 3.06841 12.6275C2.62747 11.8199 2.26648 10.9727 1.9904 10.0975C1.73955 9.31095 1.60892 8.49225 1.60276 7.6681C1.60236 7.24988 1.65291 6.83312 1.75333 6.42667C1.84464 6.0841 1.98239 5.7761 2.1666 5.50738C2.3492 5.2371 2.57506 4.97467 2.84096 4.72167C3.10846 4.4671 3.4128 4.17167 3.75399 3.83696C3.83705 3.75317 3.93679 3.68705 4.04702 3.64272C4.15725 3.59838 4.2756 3.57677 4.39471 3.57924C4.49402 3.57138 4.6478 3.63581 4.85603 3.77567C5.06426 3.91553 5.29012 4.0821 5.53199 4.27853C6.05434 4.70597 6.5363 5.1788 6.97201 5.69124C7.17224 5.92696 7.33883 6.14538 7.47178 6.34181C7.60473 6.53824 7.672 6.6891 7.672 6.79596C7.68639 6.97395 7.6282 7.15028 7.51022 7.28624C7.39329 7.41824 7.25393 7.5691 7.09695 7.74196C6.93677 7.91324 6.76218 8.07667 6.57156 8.23224C6.37935 8.38781 6.20315 8.57167 6.04457 8.78381C5.8854 8.99791 5.75108 9.22877 5.64412 9.4721C5.53125 9.74102 5.47618 10.0299 5.48234 10.3207C5.49034 10.6554 5.55762 10.9697 5.68256 11.2635C5.8075 11.559 5.9869 11.8214 6.22077 12.0492L12.1891 17.906C12.4187 18.1366 12.6934 18.3195 12.9967 18.4437C13.3 18.5679 13.6256 18.6308 13.9543 18.6288C14.2549 18.6445 14.555 18.5906 14.8305 18.4717C15.3117 18.253 15.7418 17.9395 16.0943 17.5508C16.2705 17.3622 16.4307 17.1894 16.5828 17.0338C16.7318 16.8798 16.8872 16.7478 17.0458 16.641C17.1918 16.539 17.3663 16.4836 17.5455 16.4822C17.6625 16.4822 17.821 16.5482 18.0213 16.6787C18.2215 16.8091 18.4425 16.9772 18.6844 17.1815C18.9263 17.3858 19.1762 17.6121 19.4357 17.8572C19.6936 18.1024 19.9242 18.3475 20.1244 18.5942C20.3231 18.8394 20.4912 19.061 20.6242 19.2574C20.7571 19.4538 20.8244 19.6031 20.8244 19.7115C20.8256 19.8259 20.8029 19.9392 20.7577 20.0446C20.7125 20.15 20.6458 20.2452 20.5617 20.3244C20.2029 20.6685 19.8986 20.9687 19.6487 21.2201C19.4058 21.4677 19.1374 21.69 18.8478 21.8832C18.561 22.0731 18.2437 22.2144 17.9091 22.3012Z" fill="#276899"/>
<path d="M16.151 6.47095H14.9981C14.998 5.80279 15.1581 5.14433 15.4649 4.55078L16.4514 5.13942C16.22 5.63062 16.1551 6.06094 16.151 6.47095ZM18.741 4.87148V1.62383H15.4934L16.7193 2.84982C16.3986 3.18676 16.1267 3.50747 15.9156 3.80788L16.902 4.39651C17.0685 4.17324 17.2796 3.92154 17.5313 3.66173L18.741 4.87148ZM22.8006 8.93105L22.8006 5.6834L19.5529 5.6834L20.7667 6.89721C19.2322 8.35054 18.3188 8.30588 17.3486 8.25311C16.967 8.22875 16.5651 8.21657 16.1307 8.2937C16.1916 7.95676 16.1916 7.64011 16.1754 7.33158L15.0306 7.33158C15.063 8.05419 15.0306 8.58193 14.2755 9.33701L12.2457 11.3668L13.0576 12.1787L15.0874 10.1489C15.9074 9.32889 16.4555 9.35731 17.2877 9.40196C18.3513 9.4588 19.6666 9.52375 21.5787 7.70912L22.8006 8.93105Z" fill="#00C82C"/>
<path d="M14.9981 6.47095H16.151C16.1551 6.06094 16.22 5.63062 16.4514 5.13942L15.4649 4.55078C15.1581 5.14433 14.998 5.80279 14.9981 6.47095Z" fill="#00C82C"/>
<path d="M18.741 1.62383V4.87148L17.5313 3.66173C17.2796 3.92154 17.0685 4.17324 16.902 4.39651L15.9156 3.80788C16.1267 3.50747 16.3986 3.18676 16.7193 2.84982L15.4934 1.62383H18.741Z" fill="#00C82C"/>
<path d="M14.9981 6.47095H16.151C16.1551 6.06094 16.22 5.63062 16.4514 5.13942L15.4649 4.55078C15.1581 5.14433 14.998 5.80279 14.9981 6.47095Z" fill="#979797"/>
<path d="M18.741 1.62383V4.87148L17.5313 3.66173C17.2796 3.92154 17.0685 4.17324 16.902 4.39651L15.9156 3.80788C16.1267 3.50747 16.3986 3.18676 16.7193 2.84982L15.4934 1.62383H18.741Z" fill="#979797"/>
</svg>
