<svg width="10" height="10" viewBox="0 0 10 10" fill="none" xmlns="http://www.w3.org/2000/svg">
<path fill-rule="evenodd" clip-rule="evenodd" d="M3.2487 3.7487C3.2487 2.7837 4.0337 1.9987 4.9987 1.9987C5.9637 1.9987 6.7487 2.7837 6.7487 3.7487C6.7487 4.33225 6.45951 4.84568 6.01818 5.16164C5.73747 5.36261 5.4987 5.65347 5.4987 5.9987C5.4987 6.2752 5.2752 6.4987 4.9987 6.4987C4.7222 6.4987 4.4987 6.2752 4.4987 5.9987V4.9987C4.4987 4.7222 4.7222 4.4987 4.9987 4.4987C5.4122 4.4987 5.7487 4.1622 5.7487 3.7487C5.7487 3.3352 5.4122 2.9987 4.9987 2.9987C4.5852 2.9987 4.2487 3.3352 4.2487 3.7487C4.2487 4.0252 4.0252 4.2487 3.7487 4.2487C3.4722 4.2487 3.2487 4.0252 3.2487 3.7487ZM4.49935 7.49935C4.49935 7.22285 4.72285 6.99935 4.99935 6.99935C5.27585 6.99935 5.49935 7.22285 5.49935 7.49935C5.49935 7.77585 5.27585 7.99935 4.99935 7.99935C4.72285 7.99935 4.49935 7.77585 4.49935 7.49935ZM5.0026 8.99826C2.7971 8.99826 1.0026 7.20376 1.0026 4.99826C1.0026 2.79276 2.7971 0.998264 5.0026 0.998264C7.2081 0.998264 9.0026 2.79276 9.0026 4.99826C9.0026 7.20376 7.2081 8.99826 5.0026 8.99826ZM5 0C2.243 0 0 2.243 0 5C0 7.757 2.243 10 5 10C7.757 10 10 7.757 10 5C10 2.243 7.757 0 5 0Z" fill="white"/>
</svg>
