<svg width="27" height="27" viewBox="0 0 27 27" fill="none" xmlns="http://www.w3.org/2000/svg">
<circle cx="13.5" cy="13.5" r="13.5" fill="white"/>
<path fill-rule="evenodd" clip-rule="evenodd" d="M15.8331 20C16.1317 20 16.4304 19.8726 16.6579 19.6191C17.114 19.1107 17.114 18.2891 16.6579 17.7807L12.8022 13.4839L16.5121 9.20271C16.9589 8.68528 16.946 7.86232 16.4829 7.36438C16.0186 6.86644 15.2801 6.88075 14.8333 7.39558L10.3277 12.596C9.88556 13.1069 9.8914 13.9169 10.3417 14.4187L15.0083 19.6191C15.2358 19.8726 15.5344 20 15.8331 20Z" fill="#FF3A29"/>
<path d="M15.8331 20C16.1317 20 16.4304 19.8726 16.6579 19.6191C17.114 19.1107 17.114 18.2891 16.6579 17.7807L12.8022 13.4839L16.5121 9.20271C16.9589 8.68528 16.946 7.86232 16.4829 7.36438C16.0186 6.86644 15.2801 6.88075 14.8333 7.39558L10.3277 12.596C9.88556 13.1069 9.8914 13.9169 10.3417 14.4187L15.0083 19.6191C15.2358 19.8726 15.5344 20 15.8331 20" stroke="white"/>
<path fill-rule="evenodd" clip-rule="evenodd" d="M11.8331 20C12.1317 20 12.4304 19.8726 12.6579 19.6191C13.114 19.1107 13.114 18.2891 12.6579 17.7807L8.80215 13.4839L12.5121 9.20271C12.9589 8.68528 12.946 7.86232 12.4829 7.36438C12.0186 6.86644 11.2801 6.88075 10.8333 7.39558L6.32772 12.596C5.88556 13.1069 5.8914 13.9169 6.34172 14.4187L11.0083 19.6191C11.2358 19.8726 11.5344 20 11.8331 20Z" fill="#FF3A29"/>
<path d="M11.8331 20C12.1317 20 12.4304 19.8726 12.6579 19.6191C13.114 19.1107 13.114 18.2891 12.6579 17.7807L8.80215 13.4839L12.5121 9.20271C12.9589 8.68528 12.946 7.86232 12.4829 7.36438C12.0186 6.86644 11.2801 6.88075 10.8333 7.39558L6.32772 12.596C5.88556 13.1069 5.8914 13.9169 6.34172 14.4187L11.0083 19.6191C11.2358 19.8726 11.5344 20 11.8331 20" stroke="white"/>
<path fill-rule="evenodd" clip-rule="evenodd" d="M19.8331 20C20.1317 20 20.4304 19.8726 20.6579 19.6191C21.114 19.1107 21.114 18.2891 20.6579 17.7807L16.8022 13.4839L20.5121 9.20271C20.9589 8.68528 20.946 7.86232 20.4829 7.36438C20.0186 6.86644 19.2801 6.88075 18.8333 7.39558L14.3277 12.596C13.8856 13.1069 13.8914 13.9169 14.3417 14.4187L19.0083 19.6191C19.2358 19.8726 19.5344 20 19.8331 20Z" fill="#FF3A29"/>
<path d="M19.8331 20C20.1317 20 20.4304 19.8726 20.6579 19.6191C21.114 19.1107 21.114 18.2891 20.6579 17.7807L16.8022 13.4839L20.5121 9.20271C20.9589 8.68528 20.946 7.86232 20.4829 7.36438C20.0186 6.86644 19.2801 6.88075 18.8333 7.39558L14.3277 12.596C13.8856 13.1069 13.8914 13.9169 14.3417 14.4187L19.0083 19.6191C19.2358 19.8726 19.5344 20 19.8331 20" stroke="white"/>
</svg>
