<svg width="36" height="30" viewBox="0 0 36 30" fill="none" xmlns="http://www.w3.org/2000/svg">
<path d="M3.2613 27.1021C5.06199 27.1021 31.1727 27.1021 31.1727 27.1021V30.0001L36 24.845L31.1727 19.6899V22.5867C31.1727 22.5867 5.64916 22.5867 3.26186 22.5867C0.874561 22.5867 0.27174 19.2002 0.27174 19.2002C-0.785553 23.1968 1.4606 27.1021 3.2613 27.1021Z" fill="#515960"/>
<mask id="path-2-inside-1_8957_62457" fill="white">
<path fill-rule="evenodd" clip-rule="evenodd" d="M31.5785 15.3392C31.5785 15.8372 31.1841 16.2414 30.6962 16.2414C30.2082 16.2414 29.8138 15.8372 29.8138 15.3392C29.8138 12.8517 27.8347 10.8279 25.4021 10.8279C22.9694 10.8279 20.9903 12.8517 20.9903 15.3392C20.9903 15.8372 20.5959 16.2414 20.1079 16.2414C19.62 16.2414 19.2256 15.8372 19.2256 15.3392C19.2256 11.8565 21.9971 9.02339 25.4021 9.02339C28.8071 9.02339 31.5785 11.8565 31.5785 15.3392ZM25.4023 2.03274C26.3755 2.03274 27.167 2.94324 27.167 4.06283C27.167 5.18243 26.3755 6.09292 25.4023 6.09292C24.429 6.09292 23.6376 5.18243 23.6376 4.06283C23.6376 2.94324 24.429 2.03274 25.4023 2.03274ZM25.4022 8.12037C27.3487 8.12037 28.9316 6.29937 28.9316 4.06018C28.9316 1.82099 27.3487 0 25.4022 0C23.4557 0 21.8728 1.82099 21.8728 4.06018C21.8728 6.29937 23.4557 8.12037 25.4022 8.12037Z"/>
</mask>
<path fill-rule="evenodd" clip-rule="evenodd" d="M31.5785 15.3392C31.5785 15.8372 31.1841 16.2414 30.6962 16.2414C30.2082 16.2414 29.8138 15.8372 29.8138 15.3392C29.8138 12.8517 27.8347 10.8279 25.4021 10.8279C22.9694 10.8279 20.9903 12.8517 20.9903 15.3392C20.9903 15.8372 20.5959 16.2414 20.1079 16.2414C19.62 16.2414 19.2256 15.8372 19.2256 15.3392C19.2256 11.8565 21.9971 9.02339 25.4021 9.02339C28.8071 9.02339 31.5785 11.8565 31.5785 15.3392ZM25.4023 2.03274C26.3755 2.03274 27.167 2.94324 27.167 4.06283C27.167 5.18243 26.3755 6.09292 25.4023 6.09292C24.429 6.09292 23.6376 5.18243 23.6376 4.06283C23.6376 2.94324 24.429 2.03274 25.4023 2.03274ZM25.4022 8.12037C27.3487 8.12037 28.9316 6.29937 28.9316 4.06018C28.9316 1.82099 27.3487 0 25.4022 0C23.4557 0 21.8728 1.82099 21.8728 4.06018C21.8728 6.29937 23.4557 8.12037 25.4022 8.12037Z" fill="#515960"/>
<path d="M29.5785 15.3392C29.5785 14.7763 30.0365 14.2414 30.6962 14.2414V18.2414C32.3318 18.2414 33.5785 16.8982 33.5785 15.3392H29.5785ZM30.6962 14.2414C31.3559 14.2414 31.8138 14.7763 31.8138 15.3392H27.8138C27.8138 16.8982 29.0606 18.2414 30.6962 18.2414V14.2414ZM31.8138 15.3392C31.8138 11.7894 28.9811 8.8279 25.4021 8.8279V12.8279C26.6883 12.8279 27.8138 13.9139 27.8138 15.3392H31.8138ZM25.4021 8.8279C21.823 8.8279 18.9903 11.7894 18.9903 15.3392H22.9903C22.9903 13.9139 24.1158 12.8279 25.4021 12.8279V8.8279ZM18.9903 15.3392C18.9903 14.7763 19.4482 14.2414 20.1079 14.2414V18.2414C21.7436 18.2414 22.9903 16.8982 22.9903 15.3392H18.9903ZM20.1079 14.2414C20.7677 14.2414 21.2256 14.7763 21.2256 15.3392H17.2256C17.2256 16.8982 18.4723 18.2414 20.1079 18.2414V14.2414ZM21.2256 15.3392C21.2256 12.9189 23.1433 11.0234 25.4021 11.0234V7.02339C20.8509 7.02339 17.2256 10.794 17.2256 15.3392H21.2256ZM25.4021 11.0234C27.6609 11.0234 29.5785 12.9189 29.5785 15.3392H33.5785C33.5785 10.794 29.9533 7.02339 25.4021 7.02339V11.0234ZM25.4023 4.03274C25.3285 4.03274 25.2619 4.01448 25.2125 3.99039C25.1658 3.96765 25.1446 3.94509 25.1402 3.94005C25.1341 3.93309 25.167 3.97101 25.167 4.06283H29.167C29.167 2.11095 27.734 0.0327418 25.4023 0.0327418V4.03274ZM25.167 4.06283C25.167 4.15465 25.1341 4.19257 25.1402 4.18562C25.1446 4.18057 25.1658 4.15802 25.2125 4.13528C25.2619 4.11118 25.3285 4.09292 25.4023 4.09292V8.09292C27.734 8.09292 29.167 6.01472 29.167 4.06283H25.167ZM25.4023 4.09292C25.4761 4.09292 25.5426 4.11118 25.5921 4.13528C25.6388 4.15802 25.66 4.18057 25.6644 4.18562C25.6704 4.19257 25.6376 4.15465 25.6376 4.06283H21.6376C21.6376 6.01472 23.0706 8.09292 25.4023 8.09292V4.09292ZM25.6376 4.06283C25.6376 3.97101 25.6704 3.93309 25.6644 3.94005C25.66 3.94509 25.6388 3.96765 25.5921 3.99039C25.5426 4.01448 25.4761 4.03274 25.4023 4.03274V0.0327418C23.0706 0.0327418 21.6376 2.11095 21.6376 4.06283H25.6376ZM25.4022 10.1204C28.7071 10.1204 30.9316 7.13166 30.9316 4.06018H26.9316C26.9316 5.46708 25.9902 6.12037 25.4022 6.12037V10.1204ZM30.9316 4.06018C30.9316 0.988704 28.7071 -2 25.4022 -2V2C25.9902 2 26.9316 2.65328 26.9316 4.06018H30.9316ZM25.4022 -2C22.0973 -2 19.8728 0.988704 19.8728 4.06018H23.8728C23.8728 2.65328 24.8142 2 25.4022 2V-2ZM19.8728 4.06018C19.8728 7.13166 22.0973 10.1204 25.4022 10.1204V6.12037C24.8142 6.12037 23.8728 5.46708 23.8728 4.06018H19.8728Z" fill="#515960" mask="url(#path-2-inside-1_8957_62457)"/>
<mask id="path-4-inside-2_8957_62457" fill="white">
<path fill-rule="evenodd" clip-rule="evenodd" d="M22.7563 19.3997C22.7563 19.8978 22.3619 20.302 21.8739 20.302C21.386 20.302 20.9916 19.8978 20.9916 19.3997C20.9916 16.9122 19.0124 14.8884 16.5798 14.8884C14.1471 14.8884 12.168 16.9122 12.168 19.3997C12.168 19.8978 11.7736 20.302 11.2857 20.302C10.7977 20.302 10.4033 19.8978 10.4033 19.3997C10.4033 15.917 13.1748 13.0839 16.5798 13.0839C19.9848 13.0839 22.7563 15.917 22.7563 19.3997ZM16.5796 6.09329C17.5529 6.09329 18.3443 7.00378 18.3443 8.12338C18.3443 9.24298 17.5529 10.1535 16.5796 10.1535C15.6064 10.1535 14.8149 9.24298 14.8149 8.12338C14.8149 7.00378 15.6064 6.09329 16.5796 6.09329ZM16.5795 12.1809C18.526 12.1809 20.109 10.3599 20.109 8.12073C20.109 5.88154 18.526 4.06055 16.5795 4.06055C14.6331 4.06055 13.0501 5.88154 13.0501 8.12073C13.0501 10.3599 14.6331 12.1809 16.5795 12.1809Z"/>
</mask>
<path fill-rule="evenodd" clip-rule="evenodd" d="M22.7563 19.3997C22.7563 19.8978 22.3619 20.302 21.8739 20.302C21.386 20.302 20.9916 19.8978 20.9916 19.3997C20.9916 16.9122 19.0124 14.8884 16.5798 14.8884C14.1471 14.8884 12.168 16.9122 12.168 19.3997C12.168 19.8978 11.7736 20.302 11.2857 20.302C10.7977 20.302 10.4033 19.8978 10.4033 19.3997C10.4033 15.917 13.1748 13.0839 16.5798 13.0839C19.9848 13.0839 22.7563 15.917 22.7563 19.3997ZM16.5796 6.09329C17.5529 6.09329 18.3443 7.00378 18.3443 8.12338C18.3443 9.24298 17.5529 10.1535 16.5796 10.1535C15.6064 10.1535 14.8149 9.24298 14.8149 8.12338C14.8149 7.00378 15.6064 6.09329 16.5796 6.09329ZM16.5795 12.1809C18.526 12.1809 20.109 10.3599 20.109 8.12073C20.109 5.88154 18.526 4.06055 16.5795 4.06055C14.6331 4.06055 13.0501 5.88154 13.0501 8.12073C13.0501 10.3599 14.6331 12.1809 16.5795 12.1809Z" fill="#515960"/>
<path d="M20.7563 19.3997C20.7563 18.8368 21.2142 18.302 21.8739 18.302V22.302C23.5095 22.302 24.7563 20.9587 24.7563 19.3997H20.7563ZM21.8739 18.302C22.5337 18.302 22.9916 18.8368 22.9916 19.3997H18.9916C18.9916 20.9587 20.2383 22.302 21.8739 22.302V18.302ZM22.9916 19.3997C22.9916 15.8499 20.1588 12.8884 16.5798 12.8884V16.8884C17.8661 16.8884 18.9916 17.9745 18.9916 19.3997H22.9916ZM16.5798 12.8884C13.0008 12.8884 10.168 15.8499 10.168 19.3997H14.168C14.168 17.9745 15.2935 16.8884 16.5798 16.8884V12.8884ZM10.168 19.3997C10.168 18.8368 10.6259 18.302 11.2857 18.302V22.302C12.9213 22.302 14.168 20.9587 14.168 19.3997H10.168ZM11.2857 18.302C11.9454 18.302 12.4033 18.8368 12.4033 19.3997H8.40332C8.40332 20.9587 9.65006 22.302 11.2857 22.302V18.302ZM12.4033 19.3997C12.4033 16.9795 14.321 15.0839 16.5798 15.0839V11.0839C12.0286 11.0839 8.40332 14.8545 8.40332 19.3997H12.4033ZM16.5798 15.0839C18.8386 15.0839 20.7563 16.9795 20.7563 19.3997H24.7563C24.7563 14.8545 21.131 11.0839 16.5798 11.0839V15.0839ZM16.5796 8.09329C16.5058 8.09329 16.4393 8.07503 16.3898 8.05093C16.3431 8.02819 16.3219 8.00564 16.3175 8.00059C16.3115 7.99364 16.3443 8.03156 16.3443 8.12338H20.3443C20.3443 6.1715 18.9113 4.09329 16.5796 4.09329V8.09329ZM16.3443 8.12338C16.3443 8.2152 16.3115 8.25312 16.3175 8.24617C16.3219 8.24112 16.3431 8.21857 16.3898 8.19583C16.4393 8.17173 16.5058 8.15347 16.5796 8.15347V12.1535C18.9113 12.1535 20.3443 10.0753 20.3443 8.12338H16.3443ZM16.5796 8.15347C16.6534 8.15347 16.72 8.17173 16.7694 8.19583C16.8161 8.21857 16.8373 8.24112 16.8417 8.24617C16.8478 8.25312 16.8149 8.2152 16.8149 8.12338H12.8149C12.8149 10.0753 14.2479 12.1535 16.5796 12.1535V8.15347ZM16.8149 8.12338C16.8149 8.03156 16.8478 7.99364 16.8417 8.00059C16.8373 8.00564 16.8161 8.02819 16.7694 8.05093C16.72 8.07503 16.6534 8.09329 16.5796 8.09329V4.09329C14.2479 4.09329 12.8149 6.1715 12.8149 8.12338H16.8149ZM16.5795 14.1809C19.8845 14.1809 22.109 11.1922 22.109 8.12073H18.109C18.109 9.52763 17.1675 10.1809 16.5795 10.1809V14.1809ZM22.109 8.12073C22.109 5.04925 19.8845 2.06055 16.5795 2.06055V6.06055C17.1675 6.06055 18.109 6.71383 18.109 8.12073H22.109ZM16.5795 2.06055C13.2746 2.06055 11.0501 5.04925 11.0501 8.12073H15.0501C15.0501 6.71383 15.9915 6.06055 16.5795 6.06055V2.06055ZM11.0501 8.12073C11.0501 11.1922 13.2746 14.1809 16.5795 14.1809V10.1809C15.9915 10.1809 15.0501 9.52763 15.0501 8.12073H11.0501Z" fill="#515960" mask="url(#path-4-inside-2_8957_62457)"/>
<mask id="path-6-inside-3_8957_62457" fill="white">
<path fill-rule="evenodd" clip-rule="evenodd" d="M13.9321 15.3392C13.9321 15.8372 13.5376 16.2414 13.0497 16.2414C12.5618 16.2414 12.1673 15.8372 12.1673 15.3392C12.1673 12.8517 10.1882 10.8279 7.75558 10.8279C5.32293 10.8279 3.34381 12.8517 3.34381 15.3392C3.34381 15.8372 2.9494 16.2414 2.46146 16.2414C1.97351 16.2414 1.5791 15.8372 1.5791 15.3392C1.5791 11.8565 4.35058 9.02339 7.75558 9.02339C11.1606 9.02339 13.9321 11.8565 13.9321 15.3392ZM7.75566 2.03274C8.7289 2.03274 9.52037 2.94324 9.52037 4.06283C9.52037 5.18243 8.7289 6.09292 7.75566 6.09292C6.78242 6.09292 5.99095 5.18243 5.99095 4.06283C5.99095 2.94324 6.78242 2.03274 7.75566 2.03274ZM7.75532 8.12037C9.70179 8.12037 11.2847 6.29937 11.2847 4.06018C11.2847 1.82099 9.70179 0 7.75532 0C5.80885 0 4.2259 1.82099 4.2259 4.06018C4.2259 6.29937 5.80885 8.12037 7.75532 8.12037Z"/>
</mask>
<path fill-rule="evenodd" clip-rule="evenodd" d="M13.9321 15.3392C13.9321 15.8372 13.5376 16.2414 13.0497 16.2414C12.5618 16.2414 12.1673 15.8372 12.1673 15.3392C12.1673 12.8517 10.1882 10.8279 7.75558 10.8279C5.32293 10.8279 3.34381 12.8517 3.34381 15.3392C3.34381 15.8372 2.9494 16.2414 2.46146 16.2414C1.97351 16.2414 1.5791 15.8372 1.5791 15.3392C1.5791 11.8565 4.35058 9.02339 7.75558 9.02339C11.1606 9.02339 13.9321 11.8565 13.9321 15.3392ZM7.75566 2.03274C8.7289 2.03274 9.52037 2.94324 9.52037 4.06283C9.52037 5.18243 8.7289 6.09292 7.75566 6.09292C6.78242 6.09292 5.99095 5.18243 5.99095 4.06283C5.99095 2.94324 6.78242 2.03274 7.75566 2.03274ZM7.75532 8.12037C9.70179 8.12037 11.2847 6.29937 11.2847 4.06018C11.2847 1.82099 9.70179 0 7.75532 0C5.80885 0 4.2259 1.82099 4.2259 4.06018C4.2259 6.29937 5.80885 8.12037 7.75532 8.12037Z" fill="#515960"/>
<path d="M11.9321 15.3392C11.9321 14.7763 12.39 14.2414 13.0497 14.2414V18.2414C14.6853 18.2414 15.9321 16.8982 15.9321 15.3392H11.9321ZM13.0497 14.2414C13.7094 14.2414 14.1673 14.7763 14.1673 15.3392H10.1673C10.1673 16.8982 11.4141 18.2414 13.0497 18.2414V14.2414ZM14.1673 15.3392C14.1673 11.7894 11.3346 8.8279 7.75558 8.8279V12.8279C9.04184 12.8279 10.1673 13.9139 10.1673 15.3392H14.1673ZM7.75558 8.8279C4.17654 8.8279 1.34381 11.7894 1.34381 15.3392H5.34381C5.34381 13.9139 6.46932 12.8279 7.75558 12.8279V8.8279ZM1.34381 15.3392C1.34381 14.7763 1.80172 14.2414 2.46146 14.2414V18.2414C4.09707 18.2414 5.34381 16.8982 5.34381 15.3392H1.34381ZM2.46146 14.2414C3.12119 14.2414 3.5791 14.7763 3.5791 15.3392H-0.420898C-0.420898 16.8982 0.825837 18.2414 2.46146 18.2414V14.2414ZM3.5791 15.3392C3.5791 12.9189 5.49678 11.0234 7.75558 11.0234V7.02339C3.20437 7.02339 -0.420898 10.794 -0.420898 15.3392H3.5791ZM7.75558 11.0234C10.0144 11.0234 11.9321 12.9189 11.9321 15.3392H15.9321C15.9321 10.794 12.3068 7.02339 7.75558 7.02339V11.0234ZM7.75566 4.03274C7.68187 4.03274 7.6153 4.01448 7.56585 3.99039C7.51918 3.96765 7.49794 3.94509 7.49355 3.94005C7.48751 3.93309 7.52037 3.97101 7.52037 4.06283H11.5204C11.5204 2.11095 10.0874 0.0327418 7.75566 0.0327418V4.03274ZM7.52037 4.06283C7.52037 4.15466 7.48751 4.19257 7.49355 4.18562C7.49794 4.18057 7.51918 4.15802 7.56585 4.13528C7.6153 4.11118 7.68187 4.09292 7.75566 4.09292V8.09292C10.0874 8.09292 11.5204 6.01472 11.5204 4.06283H7.52037ZM7.75566 4.09292C7.82945 4.09292 7.89602 4.11118 7.94547 4.13528C7.99214 4.15802 8.01338 4.18057 8.01777 4.18562C8.02382 4.19257 7.99095 4.15466 7.99095 4.06283H3.99095C3.99095 6.01472 5.42395 8.09292 7.75566 8.09292V4.09292ZM7.99095 4.06283C7.99095 3.97101 8.02382 3.93309 8.01777 3.94005C8.01338 3.94509 7.99214 3.96765 7.94547 3.99039C7.89602 4.01448 7.82945 4.03274 7.75566 4.03274V0.0327418C5.42395 0.0327418 3.99095 2.11095 3.99095 4.06283H7.99095ZM7.75532 10.1204C11.0603 10.1204 13.2847 7.13166 13.2847 4.06018H9.28473C9.28473 5.46708 8.34332 6.12037 7.75532 6.12037V10.1204ZM13.2847 4.06018C13.2847 0.988704 11.0603 -2 7.75532 -2V2C8.34332 2 9.28473 2.65328 9.28473 4.06018H13.2847ZM7.75532 -2C4.45037 -2 2.2259 0.988704 2.2259 4.06018H6.2259C6.2259 2.65328 7.16732 2 7.75532 2V-2ZM2.2259 4.06018C2.2259 7.13166 4.45037 10.1204 7.75532 10.1204V6.12037C7.16732 6.12037 6.2259 5.46708 6.2259 4.06018H2.2259Z" fill="#515960" mask="url(#path-6-inside-3_8957_62457)"/>
</svg>
