<svg width="23" height="23" viewBox="0 0 23 23" fill="none" xmlns="http://www.w3.org/2000/svg">
<circle cx="11.5" cy="11.5" r="11.5" fill="white"/>
<path fill-rule="evenodd" clip-rule="evenodd" d="M10.3642 17.037C10.1098 17.037 9.85534 16.9284 9.66155 16.7125C9.27297 16.2794 9.27297 15.5795 9.66155 15.1465L12.9461 11.4862L9.78577 7.83928C9.40515 7.3985 9.41608 6.69746 9.81062 6.27329C10.2062 5.84912 10.8352 5.8613 11.2159 6.29987L15.0539 10.7298C15.4306 11.1651 15.4256 11.855 15.042 12.2825L11.0668 16.7125C10.873 16.9284 10.6186 17.037 10.3642 17.037Z" fill="#276899"/>
<path d="M10.3642 17.037C10.1098 17.037 9.85534 16.9284 9.66155 16.7125C9.27297 16.2794 9.27297 15.5795 9.66155 15.1465L12.9461 11.4862L9.78577 7.83928C9.40515 7.3985 9.41608 6.69746 9.81062 6.27329C10.2062 5.84912 10.8352 5.8613 11.2159 6.29987L15.0539 10.7298C15.4306 11.1651 15.4256 11.855 15.042 12.2825L11.0668 16.7125C10.873 16.9284 10.6186 17.037 10.3642 17.037" stroke="white"/>
<path fill-rule="evenodd" clip-rule="evenodd" d="M13.7714 17.037C13.517 17.037 13.2626 16.9284 13.0688 16.7125C12.6802 16.2794 12.6802 15.5795 13.0688 15.1465L16.3533 11.4862L13.193 7.83928C12.8124 7.3985 12.8233 6.69746 13.2178 6.27329C13.6134 5.84912 14.2425 5.8613 14.6231 6.29987L18.4611 10.7298C18.8378 11.1651 18.8328 11.855 18.4492 12.2825L14.474 16.7125C14.2802 16.9284 14.0258 17.037 13.7714 17.037Z" fill="#276899"/>
<path d="M13.7714 17.037C13.517 17.037 13.2626 16.9284 13.0688 16.7125C12.6802 16.2794 12.6802 15.5795 13.0688 15.1465L16.3533 11.4862L13.193 7.83928C12.8124 7.3985 12.8233 6.69746 13.2178 6.27329C13.6134 5.84912 14.2425 5.8613 14.6231 6.29987L18.4611 10.7298C18.8378 11.1651 18.8328 11.855 18.4492 12.2825L14.474 16.7125C14.2802 16.9284 14.0258 17.037 13.7714 17.037" stroke="white"/>
<path fill-rule="evenodd" clip-rule="evenodd" d="M6.95694 17.037C6.70253 17.037 6.44811 16.9284 6.25432 16.7125C5.86575 16.2794 5.86575 15.5795 6.25432 15.1465L9.53883 11.4862L6.37855 7.83928C5.99792 7.3985 6.00885 6.69746 6.40339 6.27329C6.79893 5.84912 7.428 5.8613 7.80863 6.29987L11.6467 10.7298C12.0233 11.1651 12.0184 11.855 11.6348 12.2825L7.65956 16.7125C7.46577 16.9284 7.21135 17.037 6.95694 17.037Z" fill="#276899"/>
<path d="M6.95694 17.037C6.70253 17.037 6.44811 16.9284 6.25432 16.7125C5.86575 16.2794 5.86575 15.5795 6.25432 15.1465L9.53883 11.4862L6.37855 7.83928C5.99792 7.3985 6.00885 6.69746 6.40339 6.27329C6.79893 5.84912 7.428 5.8613 7.80863 6.29987L11.6467 10.7298C12.0233 11.1651 12.0184 11.855 11.6348 12.2825L7.65956 16.7125C7.46577 16.9284 7.21135 17.037 6.95694 17.037" stroke="white"/>
</svg>
