<svg width="252" height="60" viewBox="0 0 252 60" fill="none" xmlns="http://www.w3.org/2000/svg">
<g filter="url(#filter0_d)">
<rect x="4" width="244" height="52" rx="8" fill="#232C36"/>
</g>
<g filter="url(#filter1_d)">
<circle cx="204" cy="26" r="16" fill="#515960"/>
</g>
<path fill-rule="evenodd" clip-rule="evenodd" d="M194.885 24.5465C196.224 25.0061 197.291 26.1269 197.737 27.5477L197.785 27.6917C198.296 29.1989 198.089 30.8213 197.232 32.0381C197.076 32.2589 197.111 32.5229 197.275 32.6477L199.761 34.5365C199.849 34.6025 199.934 34.6025 199.987 34.5965C200.047 34.5869 200.135 34.5545 200.205 34.4537L200.483 34.0601C201.309 32.8877 202.641 32.1641 204.048 32.1233C205.627 32.0909 207.045 32.8145 207.928 34.0901L208.07 34.2953C208.141 34.3961 208.227 34.4297 208.288 34.4393C208.341 34.4501 208.427 34.4465 208.514 34.3793L210.987 32.5133C211.16 32.3837 211.198 32.1065 211.07 31.9205L210.758 31.4705C209.954 30.3089 209.715 28.8017 210.119 27.4397C210.558 25.9565 211.676 24.7829 213.109 24.3029L213.351 24.2213C213.544 24.1577 213.648 23.9177 213.58 23.6969L212.635 20.6717C212.591 20.5301 212.5 20.4665 212.449 20.4401C212.378 20.4029 212.3 20.3969 212.225 20.4221L211.817 20.5577C210.422 21.0221 208.882 20.7701 207.7 19.8809L207.571 19.7837C206.447 18.9389 205.779 17.5769 205.784 16.1417L205.786 15.8057C205.786 15.6461 205.711 15.5465 205.665 15.5009C205.622 15.4565 205.549 15.4037 205.446 15.4037L202.389 15.4001C202.202 15.4001 202.05 15.5789 202.049 15.7997L202.047 16.0901C202.041 17.5481 201.359 18.9353 200.221 19.8029L200.066 19.9205C198.815 20.8721 197.183 21.1409 195.705 20.6369C195.648 20.6177 195.595 20.6213 195.545 20.6477C195.507 20.6669 195.437 20.7161 195.403 20.8253L194.423 23.9405C194.352 24.1673 194.469 24.4037 194.688 24.4793L194.885 24.5465ZM199.938 37C199.355 37 198.789 36.8104 198.311 36.4468L195.825 34.5592C194.637 33.6592 194.374 31.9276 195.238 30.7C195.687 30.064 195.779 29.2468 195.515 28.4716L195.449 28.27C195.23 27.5716 194.728 27.0292 194.108 26.8168H194.107L193.911 26.7484C192.449 26.248 191.67 24.6988 192.134 23.2204L193.113 20.1064C193.335 19.402 193.814 18.8332 194.462 18.5056C195.095 18.1864 195.812 18.1372 196.481 18.3664C197.2 18.6112 197.998 18.478 198.613 18.01L198.768 17.8924C199.315 17.4748 199.645 16.7968 199.648 16.0804L199.649 15.7912C199.655 14.2504 200.885 13 202.388 13H202.393L205.449 13.0036C206.172 13.0048 206.853 13.2904 207.367 13.8076C207.898 14.3416 208.189 15.0556 208.186 15.8176L208.184 16.1524C208.182 16.8316 208.492 17.4736 209.017 17.8672L209.145 17.9644C209.696 18.3784 210.414 18.4972 211.058 18.2812L211.465 18.1456C212.157 17.9152 212.894 17.9716 213.543 18.304C214.209 18.6448 214.701 19.2316 214.926 19.9576L215.871 22.9828C216.327 24.4444 215.537 26.0212 214.113 26.4976L213.872 26.578C213.181 26.8108 212.637 27.3868 212.42 28.1212C212.221 28.7944 212.336 29.5348 212.731 30.1036L213.043 30.5536C213.899 31.792 213.626 33.5296 212.433 34.4284L209.96 36.2956C209.366 36.7444 208.638 36.9256 207.907 36.8092C207.17 36.6904 206.527 36.2824 206.096 35.6608L205.955 35.4544C205.535 34.8496 204.863 34.4824 204.158 34.522C203.453 34.5412 202.843 34.876 202.445 35.4424L202.168 35.836C201.733 36.4516 201.089 36.8536 200.356 36.9688C200.215 36.9904 200.076 37 199.938 37ZM204.001 23.1997C203.009 23.1997 202.201 24.0073 202.201 24.9997C202.201 25.9921 203.009 26.7997 204.001 26.7997C204.993 26.7997 205.801 25.9921 205.801 24.9997C205.801 24.0073 204.993 23.1997 204.001 23.1997ZM204.001 29.1999C201.686 29.1999 199.802 27.3159 199.802 24.9999C199.802 22.6839 201.686 20.7999 204.001 20.7999C206.317 20.7999 208.201 22.6839 208.201 24.9999C208.201 27.3159 206.317 29.1999 204.001 29.1999Z" fill="#232C36"/>
<path d="M85.125 27.6426C85.125 27.1445 84.9492 26.7637 84.5977 26.5C84.2461 26.2305 83.6133 25.9492 82.6992 25.6562C81.7852 25.3574 81.0615 25.0645 80.5283 24.7773C79.0752 23.9922 78.3486 22.9346 78.3486 21.6045C78.3486 20.9131 78.542 20.2979 78.9287 19.7588C79.3213 19.2139 79.8809 18.7891 80.6074 18.4844C81.3398 18.1797 82.1602 18.0273 83.0684 18.0273C83.9824 18.0273 84.7969 18.1943 85.5117 18.5283C86.2266 18.8564 86.7803 19.3223 87.1729 19.9258C87.5713 20.5293 87.7705 21.2148 87.7705 21.9824H85.1338C85.1338 21.3965 84.9492 20.9424 84.5801 20.6201C84.2109 20.292 83.6924 20.1279 83.0244 20.1279C82.3799 20.1279 81.8789 20.2656 81.5215 20.541C81.1641 20.8105 80.9854 21.168 80.9854 21.6133C80.9854 22.0293 81.1934 22.3779 81.6094 22.6592C82.0312 22.9404 82.6494 23.2041 83.4639 23.4502C84.9639 23.9014 86.0566 24.4609 86.7422 25.1289C87.4277 25.7969 87.7705 26.6289 87.7705 27.625C87.7705 28.7324 87.3516 29.6025 86.5137 30.2354C85.6758 30.8623 84.5479 31.1758 83.1299 31.1758C82.1455 31.1758 81.249 30.9971 80.4404 30.6396C79.6318 30.2764 79.0137 29.7812 78.5859 29.1543C78.1641 28.5273 77.9531 27.8008 77.9531 26.9746H80.5986C80.5986 28.3867 81.4424 29.0928 83.1299 29.0928C83.7568 29.0928 84.2461 28.9668 84.5977 28.7148C84.9492 28.457 85.125 28.0996 85.125 27.6426ZM94.9072 31C94.79 30.7715 94.7051 30.4873 94.6523 30.1475C94.0371 30.833 93.2373 31.1758 92.2529 31.1758C91.3213 31.1758 90.5479 30.9062 89.9326 30.3672C89.3232 29.8281 89.0186 29.1484 89.0186 28.3281C89.0186 27.3203 89.3906 26.5469 90.1348 26.0078C90.8848 25.4688 91.9658 25.1963 93.3779 25.1904H94.5469V24.6455C94.5469 24.2061 94.4326 23.8545 94.2041 23.5908C93.9814 23.3271 93.627 23.1953 93.1406 23.1953C92.7129 23.1953 92.376 23.2979 92.1299 23.5029C91.8896 23.708 91.7695 23.9893 91.7695 24.3467H89.2295C89.2295 23.7959 89.3994 23.2861 89.7393 22.8174C90.0791 22.3486 90.5596 21.9824 91.1807 21.7188C91.8018 21.4492 92.499 21.3145 93.2725 21.3145C94.4443 21.3145 95.373 21.6104 96.0586 22.2021C96.75 22.7881 97.0957 23.6143 97.0957 24.6807V28.8027C97.1016 29.7051 97.2275 30.3877 97.4736 30.8506V31H94.9072ZM92.8066 29.2334C93.1816 29.2334 93.5273 29.1514 93.8438 28.9873C94.1602 28.8174 94.3945 28.5918 94.5469 28.3105V26.6758H93.5977C92.3262 26.6758 91.6494 27.1152 91.5674 27.9941L91.5586 28.1436C91.5586 28.46 91.6699 28.7207 91.8926 28.9258C92.1152 29.1309 92.4199 29.2334 92.8066 29.2334ZM101.728 31H99.1787V17.5H101.728V31ZM108.205 31.1758C106.811 31.1758 105.674 30.748 104.795 29.8926C103.922 29.0371 103.485 27.8975 103.485 26.4736V26.2275C103.485 25.2725 103.67 24.4199 104.039 23.6699C104.408 22.9141 104.93 22.334 105.604 21.9297C106.283 21.5195 107.057 21.3145 107.924 21.3145C109.225 21.3145 110.247 21.7246 110.991 22.5449C111.741 23.3652 112.116 24.5283 112.116 26.0342V27.0713H106.061C106.143 27.6924 106.389 28.1904 106.799 28.5654C107.215 28.9404 107.739 29.1279 108.372 29.1279C109.351 29.1279 110.115 28.7734 110.666 28.0645L111.914 29.4619C111.533 30.001 111.018 30.4229 110.367 30.7275C109.717 31.0264 108.996 31.1758 108.205 31.1758ZM107.915 23.3711C107.411 23.3711 107.001 23.541 106.685 23.8809C106.374 24.2207 106.175 24.707 106.087 25.3398H109.62V25.1377C109.608 24.5752 109.456 24.1416 109.163 23.8369C108.87 23.5264 108.454 23.3711 107.915 23.3711ZM118.717 28.3721C118.717 28.0615 118.562 27.8184 118.251 27.6426C117.946 27.4609 117.454 27.2998 116.774 27.1592C114.513 26.6846 113.382 25.7236 113.382 24.2764C113.382 23.4326 113.73 22.7295 114.428 22.167C115.131 21.5986 116.048 21.3145 117.179 21.3145C118.386 21.3145 119.35 21.5986 120.07 22.167C120.797 22.7354 121.16 23.4736 121.16 24.3818H118.62C118.62 24.0186 118.503 23.7197 118.269 23.4854C118.034 23.2451 117.668 23.125 117.17 23.125C116.742 23.125 116.411 23.2217 116.177 23.415C115.942 23.6084 115.825 23.8545 115.825 24.1533C115.825 24.4346 115.957 24.6631 116.221 24.8389C116.49 25.0088 116.941 25.1582 117.574 25.2871C118.207 25.4102 118.74 25.5508 119.174 25.709C120.516 26.2012 121.187 27.0537 121.187 28.2666C121.187 29.1338 120.814 29.8369 120.07 30.376C119.326 30.9092 118.365 31.1758 117.188 31.1758C116.391 31.1758 115.682 31.0352 115.061 30.7539C114.445 30.4668 113.962 30.0771 113.61 29.585C113.259 29.0869 113.083 28.5508 113.083 27.9766H115.491C115.515 28.4277 115.682 28.7734 115.992 29.0137C116.303 29.2539 116.719 29.374 117.24 29.374C117.727 29.374 118.093 29.2832 118.339 29.1016C118.591 28.9141 118.717 28.6709 118.717 28.3721ZM129.87 32.9863H121.863V31H129.87V32.9863ZM140.716 18.2031V26.6318C140.716 28.0322 140.276 29.1396 139.397 29.9541C138.524 30.7686 137.329 31.1758 135.812 31.1758C134.317 31.1758 133.131 30.7803 132.252 29.9893C131.373 29.1982 130.925 28.1113 130.907 26.7285V18.2031H133.544V26.6494C133.544 27.4873 133.743 28.0996 134.142 28.4863C134.546 28.8672 135.103 29.0576 135.812 29.0576C137.294 29.0576 138.047 28.2783 138.07 26.7197V18.2031H140.716ZM149.909 28.3633H145.286L144.407 31H141.604L146.367 18.2031H148.811L153.601 31H150.797L149.909 28.3633ZM145.998 26.2275H149.197L147.589 21.4375L145.998 26.2275Z" fill="white"/>
<g filter="url(#filter2_d)">
<circle cx="34" cy="15" r="2.5" fill="#515960" stroke="#515960"/>
<circle cx="34" cy="25" r="2.5" fill="#515960" stroke="#515960"/>
<circle cx="34" cy="35" r="2.5" fill="#515960" stroke="#515960"/>
<circle cx="44" cy="15" r="2.5" fill="#515960" stroke="#515960"/>
<circle cx="44" cy="25" r="2.5" fill="#515960" stroke="#515960"/>
<circle cx="44" cy="35" r="2.5" fill="#515960" stroke="#515960"/>
<circle cx="54" cy="15" r="2.5" fill="#515960" stroke="#515960"/>
<circle cx="54" cy="25" r="2.5" fill="#515960" stroke="#515960"/>
<circle cx="54" cy="35" r="2.5" fill="#515960" stroke="#515960"/>
</g>
<defs>
<filter id="filter0_d" x="0" y="0" width="252" height="60" filterUnits="userSpaceOnUse" color-interpolation-filters="sRGB">
<feFlood flood-opacity="0" result="BackgroundImageFix"/>
<feColorMatrix in="SourceAlpha" type="matrix" values="0 0 0 0 0 0 0 0 0 0 0 0 0 0 0 0 0 0 127 0"/>
<feOffset dy="4"/>
<feGaussianBlur stdDeviation="2"/>
<feColorMatrix type="matrix" values="0 0 0 0 0 0 0 0 0 0 0 0 0 0 0 0 0 0 0.25 0"/>
<feBlend mode="normal" in2="BackgroundImageFix" result="effect1_dropShadow"/>
<feBlend mode="normal" in="SourceGraphic" in2="effect1_dropShadow" result="shape"/>
</filter>
<filter id="filter1_d" x="188" y="10" width="40" height="40" filterUnits="userSpaceOnUse" color-interpolation-filters="sRGB">
<feFlood flood-opacity="0" result="BackgroundImageFix"/>
<feColorMatrix in="SourceAlpha" type="matrix" values="0 0 0 0 0 0 0 0 0 0 0 0 0 0 0 0 0 0 127 0"/>
<feOffset dx="4" dy="4"/>
<feGaussianBlur stdDeviation="2"/>
<feColorMatrix type="matrix" values="0 0 0 0 0 0 0 0 0 0 0 0 0 0 0 0 0 0 0.25 0"/>
<feBlend mode="normal" in2="BackgroundImageFix" result="effect1_dropShadow"/>
<feBlend mode="normal" in="SourceGraphic" in2="effect1_dropShadow" result="shape"/>
</filter>
<filter id="filter2_d" x="27" y="12" width="34" height="34" filterUnits="userSpaceOnUse" color-interpolation-filters="sRGB">
<feFlood flood-opacity="0" result="BackgroundImageFix"/>
<feColorMatrix in="SourceAlpha" type="matrix" values="0 0 0 0 0 0 0 0 0 0 0 0 0 0 0 0 0 0 127 0"/>
<feOffset dy="4"/>
<feGaussianBlur stdDeviation="2"/>
<feColorMatrix type="matrix" values="0 0 0 0 0 0 0 0 0 0 0 0 0 0 0 0 0 0 0.25 0"/>
<feBlend mode="normal" in2="BackgroundImageFix" result="effect1_dropShadow"/>
<feBlend mode="normal" in="SourceGraphic" in2="effect1_dropShadow" result="shape"/>
</filter>
</defs>
</svg>
