<svg width="25" height="24" viewBox="0 0 25 24" fill="none" xmlns="http://www.w3.org/2000/svg">
<path fill-rule="evenodd" clip-rule="evenodd" d="M15.5649 3.86523L9.12367 8.52907C8.9128 8.67973 8.66404 8.76239 8.40896 8.76239H2.9375V15.2382H8.40896C8.66404 15.2382 8.9128 15.3208 9.12367 15.4715L15.5649 20.1353V3.86523ZM18.0925 1.33481V22.6674C18.0925 23.162 17.8323 23.6153 17.4181 23.846C17.2338 23.9487 17.0317 24.0007 16.8297 24.0007C16.5797 24.0007 16.3297 23.922 16.1163 23.7673L8.01956 17.9049H1.6768C0.979771 17.9049 0.414062 17.3089 0.414062 16.5716V7.42925C0.414062 6.69195 0.979771 6.09597 1.6768 6.09597H8.01956L16.1163 0.233512C16.5027 -0.0464782 17.004 -0.0771438 17.4181 0.154848C17.8323 0.385506 18.0925 0.838823 18.0925 1.33481ZM22.8637 16.8368C22.615 17.1634 22.2488 17.3341 21.8801 17.3341C21.601 17.3341 21.3219 17.2368 21.0883 17.0394C20.5453 16.5768 20.4595 15.7381 20.8964 15.1648C22.2033 13.4489 22.2033 10.5517 20.8964 8.83705C20.4595 8.26241 20.5453 7.42377 21.0883 6.96112C21.6313 6.50247 22.4268 6.5918 22.8637 7.16511C24.9308 9.87702 24.9308 14.1235 22.8637 16.8368Z" fill="#276899"/>
</svg>
