<svg width="52" height="57" viewBox="0 0 52 57" fill="none" xmlns="http://www.w3.org/2000/svg">
<path d="M10.362 30.138C10.362 30.39 10.294 30.618 10.158 30.822C10.022 31.026 9.824 31.176 9.564 31.272L10.482 33H8.994L8.262 31.494H7.77V33H6.444V28.872H8.97C9.266 28.872 9.518 28.93 9.726 29.046C9.938 29.158 10.096 29.312 10.2 29.508C10.308 29.7 10.362 29.91 10.362 30.138ZM9.012 30.192C9.012 30.084 8.976 29.994 8.904 29.922C8.832 29.85 8.744 29.814 8.64 29.814H7.77V30.576H8.64C8.744 30.576 8.832 30.54 8.904 30.468C8.976 30.392 9.012 30.3 9.012 30.192ZM13.8799 33L13.7059 32.418H12.2599L12.0859 33H10.7299L12.2359 28.872H13.7779L15.2839 33H13.8799ZM12.5359 31.494H13.4299L12.9979 30.024H12.9739L12.5359 31.494ZM19.7018 30.138C19.7018 30.39 19.6338 30.618 19.4978 30.822C19.3618 31.026 19.1638 31.176 18.9038 31.272L19.8218 33H18.3338L17.6018 31.494H17.1098V33H15.7838V28.872H18.3098C18.6058 28.872 18.8578 28.93 19.0658 29.046C19.2778 29.158 19.4358 29.312 19.5398 29.508C19.6478 29.7 19.7018 29.91 19.7018 30.138ZM18.3518 30.192C18.3518 30.084 18.3158 29.994 18.2438 29.922C18.1718 29.85 18.0838 29.814 17.9798 29.814H17.1098V30.576H17.9798C18.0838 30.576 18.1718 30.54 18.2438 30.468C18.3158 30.392 18.3518 30.3 18.3518 30.192Z" fill="#276899"/>
<path d="M10 20.7368C10 21.2891 10.4477 21.7368 11 21.7368C11.5523 21.7368 12 21.2891 12 20.7368H10ZM42.1186 4.94737L42.8518 4.26736C42.8385 4.25297 42.8247 4.23898 42.8106 4.22541L42.1186 4.94737ZM46 26C46 26.5523 46.4477 27 47 27C47.5523 27 48 26.5523 48 26H46ZM47 10.2105H48C48 9.95832 47.9047 9.71543 47.7332 9.53051L47 10.2105ZM38 1L38.6919 0.278041C38.5058 0.0996135 38.2579 0 38 0V1ZM38 10.375H37C37 10.9273 37.4477 11.375 38 11.375V10.375ZM12 20.7368V5H10V20.7368H12ZM15 2H29V0H15V2ZM46 13.5V26H48V13.5H46ZM41.3854 5.62738L46.2668 10.8905L47.7332 9.53051L42.8518 4.26736L41.3854 5.62738ZM46 10.2105V10.375H48V10.2105H46ZM46 10.375V13.5H48V10.375H46ZM37.3081 1.72196L41.4267 5.66933L42.8106 4.22541L38.6919 0.278041L37.3081 1.72196ZM29 2H33.5V0H29V2ZM33.5 2H38V0H33.5V2ZM37 1V10.375H39V1H37ZM38 11.375H47V9.375H38V11.375ZM12 5C12 3.34315 13.3431 2 15 2V0C12.2386 0 10 2.23858 10 5H12Z" fill="#515960"/>
<path d="M10 42C10 41.4477 10.4477 41 11 41C11.5523 41 12 41.4477 12 42H10ZM42.2588 52.6621C42.6295 52.2527 43.2619 52.2214 43.6713 52.5921C44.0806 52.9629 44.1119 53.5953 43.7412 54.0046L42.2588 52.6621ZM42.3712 54.0277L43.1124 54.699L42.3712 54.0277ZM12 42V52H10V42H12ZM15 55H37.9239V57H15V55ZM41.63 53.3564L42.2588 52.6621L43.7412 54.0046L43.1124 54.699L41.63 53.3564ZM37.9239 55C39.3359 55 40.6821 54.403 41.63 53.3564L43.1124 54.699C41.7854 56.1642 39.9007 57 37.9239 57V55ZM12 52C12 53.6569 13.3431 55 15 55V57C12.2386 57 10 54.7614 10 52H12Z" fill="#515960"/>
<path d="M45.4252 45.509C45.4252 44.4563 45.4252 43.4037 45.4252 42.3106C45.4252 38.6263 45.4252 34.9826 45.4252 31.2983C45.4252 30.4076 45.7667 30.0432 46.4879 30.0028C47.2469 29.9623 47.6265 30.3671 47.6265 31.2578C47.6265 34.9421 47.6265 38.5858 47.6265 42.2701C47.6265 43.3227 47.6265 44.4158 47.6265 45.6304C48.3476 44.9422 48.7271 44.092 49.1826 43.3632C49.4483 42.9583 49.676 42.5535 49.9417 42.1486C50.3212 41.5818 51.0423 41.4603 51.5737 41.8247C52.0291 42.1486 52.143 42.8774 51.8014 43.4442C51.0044 44.7802 50.2073 46.0758 49.4103 47.3713C48.803 48.343 48.1958 49.3147 47.5506 50.3268C46.9813 51.2175 46.0324 51.2175 45.4631 50.3673C44.0588 48.1001 42.6166 45.8329 41.2123 43.5656C40.8707 42.9988 40.9466 42.1891 41.4021 41.8652C41.8955 41.5008 42.5407 41.5818 42.9961 42.1081C43.7172 42.9583 44.1347 44.011 44.8179 44.9017C44.9697 45.1041 45.0836 45.3065 45.2354 45.5495C45.3113 45.5495 45.3872 45.509 45.4252 45.509Z" fill="white"/>
<rect x="1" y="24" width="27" height="15" rx="2" stroke="#515960" stroke-width="2"/>
</svg>
