<svg width="90" height="28" viewBox="0 0 90 28" fill="none" xmlns="http://www.w3.org/2000/svg">
<rect x="0.5" y="0.5" width="89" height="27" rx="1.5"  stroke="#00C82C"/>
<path d="M41.1787 15.8232H38.1729V21H36.4766V8.20312H40.7129C42.1543 8.20312 43.2617 8.53125 44.0352 9.1875C44.8145 9.84375 45.2041 10.7988 45.2041 12.0527C45.2041 12.8496 44.9873 13.5439 44.5537 14.1357C44.126 14.7275 43.5283 15.1699 42.7607 15.4629L45.7666 20.8945V21H43.9561L41.1787 15.8232ZM38.1729 14.4434H40.7656C41.6035 14.4434 42.2686 14.2266 42.7607 13.793C43.2588 13.3594 43.5078 12.7793 43.5078 12.0527C43.5078 11.2617 43.2705 10.6553 42.7959 10.2334C42.3271 9.81152 41.6475 9.59766 40.7568 9.5918H38.1729V14.4434ZM51.2686 21.1758C49.9795 21.1758 48.9307 20.7539 48.1221 19.9102C47.3135 19.0605 46.9092 17.9268 46.9092 16.5088V16.21C46.9092 15.2666 47.0879 14.4258 47.4453 13.6875C47.8086 12.9434 48.3125 12.3633 48.957 11.9473C49.6074 11.5254 50.3105 11.3145 51.0664 11.3145C52.3027 11.3145 53.2637 11.7217 53.9492 12.5361C54.6348 13.3506 54.9775 14.5166 54.9775 16.0342V16.7109H48.5352C48.5586 17.6484 48.8311 18.4072 49.3525 18.9873C49.8799 19.5615 50.5479 19.8486 51.3564 19.8486C51.9307 19.8486 52.417 19.7314 52.8154 19.4971C53.2139 19.2627 53.5625 18.9521 53.8613 18.5654L54.8545 19.3389C54.0576 20.5635 52.8623 21.1758 51.2686 21.1758ZM51.0664 12.6504C50.4102 12.6504 49.8594 12.8906 49.4141 13.3711C48.9688 13.8457 48.6934 14.5137 48.5879 15.375H53.3516V15.252C53.3047 14.4258 53.082 13.7871 52.6836 13.3359C52.2852 12.8789 51.7461 12.6504 51.0664 12.6504ZM62.7383 21C62.6445 20.8125 62.5684 20.4785 62.5098 19.998C61.7539 20.7832 60.8516 21.1758 59.8027 21.1758C58.8652 21.1758 58.0947 20.9121 57.4912 20.3848C56.8936 19.8516 56.5947 19.1777 56.5947 18.3633C56.5947 17.373 56.9697 16.6055 57.7197 16.0605C58.4756 15.5098 59.5361 15.2344 60.9014 15.2344H62.4834V14.4873C62.4834 13.9189 62.3135 13.4678 61.9736 13.1338C61.6338 12.7939 61.1328 12.624 60.4707 12.624C59.8906 12.624 59.4043 12.7705 59.0117 13.0635C58.6191 13.3564 58.4229 13.7109 58.4229 14.127H56.7881C56.7881 13.6523 56.9551 13.1953 57.2891 12.7559C57.6289 12.3105 58.0859 11.959 58.6602 11.7012C59.2402 11.4434 59.876 11.3145 60.5674 11.3145C61.6631 11.3145 62.5215 11.5898 63.1426 12.1406C63.7637 12.6855 64.0859 13.4385 64.1094 14.3994V18.7764C64.1094 19.6494 64.2207 20.3438 64.4434 20.8594V21H62.7383ZM60.04 19.7607C60.5498 19.7607 61.0332 19.6289 61.4902 19.3652C61.9473 19.1016 62.2783 18.7588 62.4834 18.3369V16.3857H61.209C59.2168 16.3857 58.2207 16.9688 58.2207 18.1348C58.2207 18.6445 58.3906 19.043 58.7305 19.3301C59.0703 19.6172 59.5068 19.7607 60.04 19.7607ZM66.2627 16.166C66.2627 14.707 66.6084 13.5352 67.2998 12.6504C67.9912 11.7598 68.8965 11.3145 70.0156 11.3145C71.1289 11.3145 72.0107 11.6953 72.6611 12.457V7.5H74.2871V21H72.793L72.7139 19.9805C72.0635 20.7773 71.1582 21.1758 69.998 21.1758C68.8965 21.1758 67.9971 20.7246 67.2998 19.8223C66.6084 18.9199 66.2627 17.7422 66.2627 16.2891V16.166ZM67.8887 16.3506C67.8887 17.4287 68.1113 18.2725 68.5566 18.8818C69.002 19.4912 69.6172 19.7959 70.4023 19.7959C71.4336 19.7959 72.1865 19.333 72.6611 18.4072V14.0391C72.1748 13.1426 71.4277 12.6943 70.4199 12.6943C69.623 12.6943 69.002 13.002 68.5566 13.6172C68.1113 14.2324 67.8887 15.1436 67.8887 16.3506ZM79.9297 18.6182L82.1445 11.4902H83.8848L80.0615 22.4678C79.4697 24.0498 78.5293 24.8408 77.2402 24.8408L76.9326 24.8145L76.3262 24.7002V23.3818L76.7656 23.417C77.3164 23.417 77.7441 23.3057 78.0488 23.083C78.3594 22.8604 78.6143 22.4531 78.8135 21.8613L79.1738 20.8945L75.7812 11.4902H77.5566L79.9297 18.6182Z" fill="#00C82C"/>
<circle cx="16" cy="14" r="10.5" stroke="#00C82C"/>
<path d="M11 13.4758L15.037 17L23 10" stroke="white" stroke-width="2" stroke-linecap="round" stroke-linejoin="round"/>
<circle cx="26.5" cy="19.5" r="6" fill="#17212B" stroke="#FFB200"/>
<rect x="24" y="16" width="2.14286" height="7" rx="1.07143" fill="white"/>
<rect x="27" y="16" width="2.14286" height="7" rx="1.07143" fill="white"/>
</svg>
