<svg width="27" height="27" viewBox="0 0 27 27" fill="none" xmlns="http://www.w3.org/2000/svg">
<ellipse cx="13.491" cy="13.5" rx="13.491" ry="13.5" fill="#FF3A29"/>
<path fill-rule="evenodd" clip-rule="evenodd" d="M15.0225 13.5001L19.67 8.84948C20.0933 8.42591 20.0933 7.74126 19.67 7.31768C19.2467 6.89411 18.5625 6.89411 18.1392 7.31768L13.4918 11.9683L8.84431 7.31768C8.42102 6.89411 7.73684 6.89411 7.31356 7.31768C6.89027 7.74126 6.89027 8.42591 7.31356 8.84948L11.961 13.5001L7.31356 18.1508C6.89027 18.5744 6.89027 19.259 7.31356 19.6826C7.52466 19.8938 7.80179 20 8.07893 20C8.35607 20 8.6332 19.8938 8.84431 19.6826L13.4918 15.0319L18.1392 19.6826C18.3503 19.8938 18.6275 20 18.9046 20C19.1817 20 19.4589 19.8938 19.67 19.6826C20.0933 19.259 20.0933 18.5744 19.67 18.1508L15.0225 13.5001Z" fill="white"/>
</svg>
