<svg width="13" height="13" viewBox="0 0 13 13" fill="none" xmlns="http://www.w3.org/2000/svg">
<path fill-rule="evenodd" clip-rule="evenodd" d="M8.03177 6.50013L12.6823 1.84948C13.1059 1.42591 13.1059 0.741255 12.6823 0.317681C12.2588 -0.105894 11.5741 -0.105894 11.1506 0.317681L6.5 4.96833L1.84944 0.317681C1.42588 -0.105894 0.74124 -0.105894 0.317674 0.317681C-0.105891 0.741255 -0.105891 1.42591 0.317674 1.84948L4.96823 6.50013L0.317674 11.1508C-0.105891 11.5744 -0.105891 12.259 0.317674 12.6826C0.528915 12.8938 0.806237 13 1.08356 13C1.36088 13 1.6382 12.8938 1.84944 12.6826L6.5 8.03194L11.1506 12.6826C11.3618 12.8938 11.6391 13 11.9164 13C12.1938 13 12.4711 12.8938 12.6823 12.6826C13.1059 12.259 13.1059 11.5744 12.6823 11.1508L8.03177 6.50013Z" fill="white"/>
</svg>
