<svg width="24" height="24" viewBox="0 0 24 24" fill="none" xmlns="http://www.w3.org/2000/svg">
    <path d="M23.0305 16.5489C21.7404 16.5489 20.6909 15.4992 20.6909 14.2088V8.69249C20.6909 3.89944 16.7922 0 12 0C7.20783 0 3.30914 3.89944 3.30914 8.69249V14.2088C3.30914 15.4992 2.25956 16.5489 0.969469 16.5489C0.434062 16.5489 0 16.9831 0 17.5187C0 18.0542 0.434062 18.4883 0.969469 18.4883H23.0305C23.566 18.4883 24 18.0542 24 17.5187C24 16.9831 23.566 16.5489 23.0305 16.5489ZM4.55025 16.5489C4.99134 15.876 5.24813 15.0718 5.24813 14.2088V8.69249C5.24813 4.96877 8.277 1.93931 12 1.93931C15.723 1.93931 18.7519 4.96877 18.7519 8.69249V14.2088C18.7519 15.0718 19.0087 15.8761 19.4497 16.5489H4.55025Z"
          fill="white"/>
    <path d="M14.3957 21.0929C13.9325 20.8241 13.3393 20.9819 13.0706 21.4451C12.7285 22.0351 11.9703 22.2366 11.3804 21.8943C11.1945 21.7865 11.0391 21.6311 10.9313 21.4451C10.6626 20.9818 10.0693 20.8242 9.6062 21.0929C9.14308 21.3615 8.98544 21.955 9.25408 22.4182C9.53111 22.8958 9.92997 23.2948 10.4075 23.5719C10.9077 23.8621 11.4551 24 11.9956 24C13.0917 24 14.1594 23.4327 14.7478 22.4181C15.0165 21.955 14.8589 21.3615 14.3957 21.0929Z"
          fill="white"/>
    <circle cx="20.1603" cy="3.84" r="3.84" fill="#276899"/>
</svg>
