<svg width="57" height="57" viewBox="0 0 57 57" fill="none" xmlns="http://www.w3.org/2000/svg">
<path fill-rule="evenodd" clip-rule="evenodd" d="M12.88 6.6C8.8648 6.6 5.6 9.8648 5.6 13.88C5.6 34.5664 22.4308 51.4 43.12 51.4C47.1324 51.4 50.4 48.1352 50.4 44.12C50.4 43.8092 50.3804 43.504 50.3412 43.2016L37.4052 40.2336C37.1476 40.7264 36.8648 41.2612 36.6072 41.7596C35.3304 44.1956 34.4064 45.9652 32.0488 45.016C22.792 41.768 15.2348 34.208 11.9448 24.8392C10.9452 22.6412 12.8492 21.6444 15.2628 20.3844C15.7528 20.1268 16.282 19.8496 16.7664 19.5976L13.7984 6.6588C13.4876 6.6196 13.1852 6.6 12.88 6.6ZM43.12 57C19.3424 57 0 37.6576 0 13.88C0 6.7764 5.7764 1 12.88 1C13.608 1 14.3276 1.0616 15.0248 1.182C15.7052 1.2912 16.3884 1.4648 17.0548 1.6944C17.9648 2.0108 18.6508 2.7752 18.8664 3.716L22.6996 20.4152C22.9124 21.3336 22.6464 22.2968 21.9912 22.98C21.6104 23.3776 21.602 23.386 18.13 25.2032C20.9412 31.2904 25.8272 36.1596 31.7912 38.8756C33.6112 35.4008 33.6224 35.3896 34.02 35.0088C34.7032 34.3536 35.672 34.0988 36.5848 34.3004L53.2868 38.1336C54.2248 38.3492 54.9892 39.0324 55.3028 39.9424C55.5324 40.6032 55.706 41.2864 55.8208 41.9892C55.9384 42.6808 56 43.3976 56 44.12C56 51.2236 50.2208 57 43.12 57Z" fill="#78ABCE"/>
<path d="M53.5514 2.27057C53.5514 1.81138 53.7267 1.37099 54.0389 1.04629C54.3512 0.721596 54.7746 0.539184 55.2161 0.539184C55.6576 0.539184 56.0811 0.721596 56.3933 1.04629C56.7055 1.37099 56.8809 1.81138 56.8809 2.27057C56.8809 2.72976 56.7055 3.17015 56.3933 3.49484C56.0811 3.81954 55.6576 4.00195 55.2161 4.00195C54.7746 4.00195 54.3512 3.81954 54.0389 3.49484C53.7267 3.17015 53.5514 2.72976 53.5514 2.27057Z" fill="#78ABCE"/>
<path d="M50.2174 5.73151C50.2174 5.27231 50.3928 4.83193 50.705 4.50723C51.0172 4.18253 51.4406 4.00012 51.8821 4.00012C52.3236 4.00012 52.7471 4.18253 53.0593 4.50723C53.3715 4.83193 53.5469 5.27231 53.5469 5.73151C53.5469 6.1907 53.3715 6.63108 53.0593 6.95578C52.7471 7.28048 52.3236 7.46289 51.8821 7.46289C51.4406 7.46289 51.0172 7.28048 50.705 6.95578C50.3928 6.63108 50.2174 6.1907 50.2174 5.73151Z" fill="#78ABCE"/>
<path d="M46.8932 9.1944C46.8932 8.7352 47.0685 8.29482 47.3807 7.97012C47.6929 7.64543 48.1164 7.46301 48.5579 7.46301C48.9994 7.46301 49.4229 7.64543 49.7351 7.97012C50.0473 8.29482 50.2227 8.7352 50.2227 9.1944C50.2227 9.65359 50.0473 10.094 49.7351 10.4187C49.4229 10.7434 48.9994 10.9258 48.5579 10.9258C48.1164 10.9258 47.6929 10.7434 47.3807 10.4187C47.0685 10.094 46.8932 9.65359 46.8932 9.1944Z" fill="#78ABCE"/>
<path d="M35.2346 4.00073C35.6761 4.00073 36.0996 4.18314 36.4118 4.50784C36.724 4.83253 36.8994 5.27292 36.8994 5.73211V18.8664L44.0445 11.4318C44.199 11.2709 44.3826 11.1431 44.5846 11.0559C44.7866 10.9687 45.0032 10.9237 45.2219 10.9236C45.4407 10.9234 45.6573 10.9681 45.8595 11.055C46.0616 11.1419 46.2453 11.2693 46.4001 11.4301C46.5549 11.5908 46.6777 11.7817 46.7616 11.9918C46.8454 12.202 46.8886 12.4272 46.8888 12.6547C46.889 12.8822 46.846 13.1075 46.7625 13.3177C46.6789 13.528 46.5563 13.719 46.4018 13.88L39.2533 21.3146L51.8821 21.3146C52.3236 21.3146 52.7471 21.497 53.0593 21.8217C53.3715 22.1464 53.5469 22.5868 53.5469 23.046C53.5469 23.5052 53.3715 23.9455 53.0593 24.2702C52.7471 24.5949 52.3236 24.7773 51.8821 24.7773L35.2346 24.7773C34.7931 24.7773 34.3697 24.5949 34.0574 24.2702C33.7452 23.9455 33.5699 23.5052 33.5699 23.046V5.73211C33.5699 5.27292 33.7452 4.83253 34.0574 4.50784C34.3697 4.18314 34.7931 4.00073 35.2346 4.00073Z" fill="#78ABCE"/>
</svg>
