<svg width="24" height="24" viewBox="2 -4 24 24" fill="none" xmlns="http://www.w3.org/2000/svg">
<g opacity="0.7" filter="url(#filter0_d)">
<path fill-rule="evenodd" clip-rule="evenodd" d="M5.77843 7.11112C5.77843 4.16979 8.17044 1.77778 11.1118 1.77778C14.0531 1.77778 16.4451 4.16979 16.4451 7.11112C16.4451 10.0525 14.0531 12.4445 11.1118 12.4445C8.17044 12.4445 5.77843 10.0525 5.77843 7.11112ZM19.7396 14.4827L16.7218 11.464C17.6578 10.2605 18.2222 8.75202 18.2222 7.11112C18.2222 3.19023 15.032 0 11.1111 0C7.19023 0 4 3.19023 4 7.11112C4 11.032 7.19023 14.2222 11.1111 14.2222C12.752 14.2222 14.2605 13.6578 15.464 12.7218L18.4827 15.7396C18.656 15.9129 18.8836 16 19.1111 16C19.3387 16 19.5662 15.9129 19.7396 15.7396C20.0871 15.392 20.0871 14.8302 19.7396 14.4827Z" fill="#276899"/>
</g>
<path d="M9.28711 9.99414L14.9943 4.28697L15.9157 5.20842L10.2086 10.9156L9.28711 9.99414Z" fill="#00C82C" fill-opacity="0.6"/>
<path d="M7 7.70703L7.82635 6.88068L10.1138 9.16814L9.28746 9.99449L7 7.70703Z" fill="#00C82C" fill-opacity="0.6"/>
<defs>
<filter id="filter0_d" x="0" y="0" width="24.0002" height="24" filterUnits="userSpaceOnUse" color-interpolation-filters="sRGB">
<feFlood flood-opacity="0" result="BackgroundImageFix"/>
<feColorMatrix in="SourceAlpha" type="matrix" values="0 0 0 0 0 0 0 0 0 0 0 0 0 0 0 0 0 0 127 0"/>
<feOffset dy="4"/>
<feGaussianBlur stdDeviation="2"/>
<feColorMatrix type="matrix" values="0 0 0 0 0 0 0 0 0 0 0 0 0 0 0 0 0 0 0.25 0"/>
<feBlend mode="normal" in2="BackgroundImageFix" result="effect1_dropShadow"/>
<feBlend mode="normal" in="SourceGraphic" in2="effect1_dropShadow" result="shape"/>
</filter>
</defs>
</svg>
