<svg width="10" height="15" viewBox="0 0 10 15" fill="none" xmlns="http://www.w3.org/2000/svg">
    <path fill-rule="evenodd" clip-rule="evenodd"
          d="M2.33363 14C1.99231 14 1.65098 13.8726 1.39099 13.6191C0.86967 13.1107 0.86967 12.2891 1.39099 11.7807L5.79754 7.48393L1.55765 3.20271C1.047 2.68528 1.06167 1.86232 1.59098 1.36438C2.12164 0.866444 2.96561 0.880745 3.47627 1.39558L8.62546 6.59596C9.13078 7.1069 9.12412 7.91686 8.60946 8.41869L3.27627 13.6191C3.01628 13.8726 2.67496 14 2.33363 14Z"
          fill="white"/>
    <path d="M2.33363 14C1.99231 14 1.65098 13.8726 1.39099 13.6191C0.86967 13.1107 0.86967 12.2891 1.39099 11.7807L5.79754 7.48393L1.55765 3.20271C1.047 2.68528 1.06167 1.86232 1.59098 1.36438C2.12164 0.866444 2.96561 0.880745 3.47627 1.39558L8.62546 6.59596C9.13078 7.1069 9.12412 7.91686 8.60946 8.41869L3.27627 13.6191C3.01628 13.8726 2.67496 14 2.33363 14"
          stroke="#276899"/>
</svg>
