<svg width="24" height="24" viewBox="0 0 24 24" fill="none" xmlns="http://www.w3.org/2000/svg">
<path fill-rule="evenodd" clip-rule="evenodd" d="M18.1691 15.0869C17.8724 14.9655 17.555 14.903 17.2345 14.903C16.9349 14.886 16.6356 14.9404 16.3612 15.0617C16.1238 15.1761 15.8974 15.3118 15.6846 15.4671C15.4776 15.6172 15.2881 15.7901 15.1198 15.9826C14.9562 16.1711 14.7972 16.344 14.6415 16.4996C14.5001 16.6424 14.3475 16.7738 14.1852 16.8924C14.0213 17.0097 13.8207 17.0642 13.62 17.046C13.4193 17.0278 13.2317 16.9382 13.0917 16.7934C12.9185 16.6312 12.7465 16.4678 12.5756 16.3031C12.3553 16.0894 12.0847 15.8317 11.7653 15.5284C11.431 15.2118 11.099 14.8928 10.7693 14.5714L9.69941 13.528C9.04249 12.8865 8.40752 12.223 7.79559 11.5386C7.57582 11.2973 7.3704 11.0433 7.18039 10.778C7.03249 10.5659 6.95854 10.4103 6.95854 10.3113C6.9494 10.1339 7.00597 9.95938 7.11745 9.821C7.23231 9.67329 7.3692 9.52243 7.52339 9.36528C7.68073 9.21129 7.85223 9.04629 8.03947 8.875C8.22828 8.70214 8.40135 8.51828 8.55712 8.32186C8.71131 8.12543 8.84348 7.90071 8.95047 7.64614C9.05589 7.39471 9.10938 7.10714 9.10938 6.78814C9.10937 6.13969 8.85325 5.51742 8.39663 5.05643C8.10267 4.76823 7.8238 4.46507 7.56115 4.14814C7.26096 3.79113 6.93661 3.4551 6.59036 3.14243C6.25425 2.83522 5.88727 2.5635 5.49527 2.33157C5.13926 2.11633 4.73138 2.00173 4.31522 2C3.6665 2.00043 3.04408 2.2562 2.5829 2.71186C2.15651 3.13771 1.78361 3.518 1.46421 3.85429C1.15768 4.17268 0.885554 4.52242 0.652331 4.89771C0.426306 5.2701 0.260628 5.67582 0.161428 6.09986C0.0459323 6.624 -0.00792777 7.15981 0.000940756 7.69643C0.000940756 8.56386 0.140974 9.46428 0.419467 10.3977C0.697959 11.3296 1.074 12.2599 1.54917 13.1839C2.02434 14.1094 2.60335 15.0177 3.28306 15.9103C3.96278 16.8013 4.7007 17.6483 5.49527 18.4513C6.28984 19.2527 7.13476 19.9944 8.02846 20.6733C8.92058 21.3521 9.83472 21.9383 10.7693 22.4286C11.7024 22.9204 12.6417 23.3039 13.5842 23.582C14.477 23.8531 15.4044 23.9938 16.3376 24C16.871 23.9997 17.4027 23.9418 17.9236 23.8271C18.3529 23.7304 18.7636 23.5648 19.1398 23.3369C19.5017 23.1169 19.8479 22.8466 20.1846 22.5276C20.5213 22.207 20.8973 21.8393 21.3159 21.4213C21.7723 20.9602 22.0284 20.338 22.0286 19.6896C22.0108 19.414 21.9568 19.1419 21.8681 18.8803C21.7761 18.6063 21.6395 18.3493 21.4638 18.1197C21.2801 17.879 21.087 17.6457 20.8847 17.4204C20.6764 17.1873 20.4552 16.9659 20.2223 16.7573C19.9975 16.556 19.7719 16.3553 19.5458 16.1554C19.3479 15.9811 19.1553 15.8008 18.9683 15.6149C18.7404 15.3867 18.4685 15.207 18.1691 15.0869ZM17.5916 22.2934C17.1811 22.392 16.7597 22.4374 16.3376 22.4286C15.5287 22.4133 14.7258 22.2853 13.9523 22.0483C13.0868 21.787 12.2506 21.4374 11.4569 21.0049C9.6923 20.0398 8.07739 18.8239 6.66274 17.3953C5.94369 16.669 5.26655 15.9025 4.63462 15.0994C4.02111 14.323 3.47872 13.4931 3.01401 12.6197C2.58089 11.8121 2.2263 10.9649 1.95511 10.0897C1.70871 9.30314 1.5804 8.48444 1.57435 7.66029C1.57395 7.24207 1.6236 6.8253 1.72225 6.41886C1.81193 6.07629 1.94724 5.76829 2.12818 5.49957C2.30755 5.22929 2.5294 4.96686 2.79059 4.71386C3.05335 4.45929 3.35229 4.16386 3.68743 3.82914C3.76902 3.74536 3.867 3.67924 3.97527 3.6349C4.08354 3.59057 4.1998 3.56896 4.31679 3.57143C4.41434 3.56357 4.56539 3.628 4.76993 3.76786C4.97448 3.90771 5.19633 4.07429 5.43391 4.27071C5.947 4.69816 6.42042 5.17098 6.8484 5.68343C7.04508 5.91914 7.20871 6.13757 7.3393 6.334C7.4699 6.53043 7.53598 6.68129 7.53598 6.78814C7.55011 6.96614 7.49296 7.14247 7.37707 7.27843C7.26221 7.41043 7.12532 7.56129 6.97113 7.73414C6.81379 7.90543 6.64229 8.06886 6.45505 8.22443C6.26624 8.38 6.09317 8.56386 5.9374 8.776C5.78105 8.9901 5.64911 9.22095 5.54405 9.46428C5.43319 9.73321 5.37909 10.0221 5.38513 10.3129C5.393 10.6476 5.45908 10.9619 5.58181 11.2557C5.70454 11.5511 5.88076 11.8136 6.11047 12.0414L11.973 17.8981C12.1985 18.1288 12.4683 18.3117 12.7662 18.4359C13.0642 18.5601 13.3841 18.623 13.7069 18.621C14.0021 18.6366 14.2969 18.5828 14.5675 18.4639C15.0402 18.2452 15.4627 17.9317 15.8089 17.543C15.982 17.3544 16.1394 17.1816 16.2888 17.026C16.4352 16.872 16.5878 16.74 16.7435 16.6331C16.887 16.5312 17.0584 16.4757 17.2345 16.4744C17.3493 16.4744 17.5051 16.5404 17.7018 16.6709C17.8984 16.8013 18.1156 16.9694 18.3531 17.1737C18.5907 17.378 18.8362 17.6043 19.0911 17.8494C19.3444 18.0946 19.571 18.3397 19.7676 18.5864C19.9627 18.8316 20.1279 19.0531 20.2585 19.2496C20.3891 19.446 20.4552 19.5953 20.4552 19.7037C20.4564 19.818 20.4341 19.9314 20.3897 20.0368C20.3453 20.1422 20.2798 20.2374 20.1972 20.3166C19.8447 20.6607 19.5458 20.9609 19.3003 21.2123C19.0618 21.4599 18.7981 21.6822 18.5136 21.8754C18.2319 22.0653 17.9202 22.2066 17.5916 22.2934Z" fill="#276899"/>
<path d="M15.7866 8.51789L17.484 9.49788C17.5892 9.56087 17.7224 9.53288 17.7996 9.44188L18.6132 8.40589C18.7675 8.42689 18.9289 8.44089 19.0902 8.44089C19.2515 8.44089 19.4128 8.42689 19.5741 8.40589L20.3878 9.44188C20.4649 9.53288 20.5982 9.56087 20.7034 9.49788L22.4008 8.51789C22.506 8.45489 22.5481 8.32889 22.506 8.21689L22.015 6.9989C22.2114 6.74691 22.3727 6.47391 22.499 6.17291L23.7966 5.99091C23.8533 5.97917 23.9044 5.94852 23.9413 5.90399C23.9783 5.85947 23.999 5.80373 24 5.74592V3.78594C24 3.66694 23.9088 3.56194 23.7896 3.54094L22.492 3.35894C22.3657 3.06494 22.2044 2.78495 22.008 2.53295L22.499 1.31496C22.5411 1.20296 22.499 1.07697 22.3938 1.01397L20.6964 0.0339766C20.5912 -0.0290228 20.4579 -0.00102294 20.3808 0.0899761L19.5671 1.12596C19.4128 1.10497 19.2515 1.09097 19.0902 1.09097C18.9289 1.09097 18.7675 1.10497 18.6062 1.12596L17.7926 0.0899761C17.7154 -0.00102294 17.5822 -0.0290228 17.477 0.0339766L15.7796 1.01397C15.6743 1.07697 15.6323 1.20296 15.6743 1.31496L16.1653 2.53295C15.9689 2.78495 15.8076 3.05794 15.6814 3.35894L14.3838 3.54094C14.2715 3.56194 14.1804 3.66694 14.1804 3.78594V5.74592C14.1804 5.86491 14.2715 5.96991 14.3908 5.99091L15.6884 6.17291C15.8146 6.46691 15.976 6.74691 16.1723 6.9989L15.6814 8.21689C15.6393 8.32889 15.6814 8.45489 15.7866 8.51789ZM17.6874 4.76593C17.6874 3.99593 18.3186 3.36594 19.0902 3.36594C19.8617 3.36594 20.493 3.99593 20.493 4.76593C20.493 5.53592 19.8617 6.16591 19.0902 6.16591C18.3186 6.16591 17.6874 5.53592 17.6874 4.76593ZM12.3076 13.9428L12.8267 13.2708C12.9248 13.2848 13.0301 13.2988 13.1353 13.2988C13.2405 13.2988 13.3457 13.2918 13.4439 13.2708L13.9629 13.9358C14.012 13.9918 14.0962 14.0128 14.1663 13.9708L15.2535 13.3408C15.3236 13.3058 15.3447 13.2218 15.3236 13.1448L15.008 12.3678C15.1343 12.2068 15.2395 12.0318 15.3166 11.8359L16.1443 11.7169C16.1818 11.7141 16.2169 11.6975 16.2428 11.6703C16.2687 11.6432 16.2836 11.6074 16.2846 11.5699V10.3169C16.2846 10.2399 16.2285 10.1699 16.1513 10.1629L15.3236 10.0439C15.2395 9.85487 15.1413 9.67287 15.015 9.51188L15.3307 8.73488C15.3441 8.69921 15.3444 8.65994 15.3316 8.62405C15.3187 8.58817 15.2936 8.55799 15.2605 8.53889L14.1733 7.90889C14.1032 7.87389 14.019 7.88089 13.9699 7.94389L13.4509 8.60889C13.2462 8.58002 13.0384 8.58002 12.8337 8.60889L12.3146 7.94389C12.2655 7.88789 12.1814 7.86689 12.1112 7.90889L11.024 8.53889C10.9539 8.57389 10.9329 8.65788 10.9539 8.73488L11.2695 9.51188C11.1433 9.67287 11.0381 9.84787 10.9609 10.0439L10.1333 10.1629C10.0561 10.1769 10 10.2399 10 10.3169V11.5699C10 11.6469 10.0561 11.7169 10.1333 11.7239L10.9609 11.8429C11.0451 12.0318 11.1433 12.2138 11.2695 12.3678L10.9539 13.1518C10.9259 13.2218 10.9539 13.3058 11.024 13.3478L12.1112 13.9778C12.1743 14.0198 12.2585 13.9988 12.3076 13.9428ZM12.1954 10.9399C12.1955 10.6891 12.2954 10.4487 12.4731 10.2715C12.6508 10.0943 12.8918 9.99478 13.143 9.99487C13.3942 9.99496 13.6351 10.0947 13.8127 10.272C13.9903 10.4494 14.09 10.6898 14.0899 10.9406C14.0898 11.1913 13.9899 11.4317 13.8122 11.6089C13.6345 11.7861 13.3935 11.8856 13.1423 11.8856C12.8911 11.8855 12.6502 11.7858 12.4726 11.6084C12.295 11.4311 12.1953 11.1906 12.1954 10.9399Z" fill="#979797"/>
</svg>
