<svg width="32" height="32" viewBox="0 0 32 32" fill="none" xmlns="http://www.w3.org/2000/svg">
<path fill-rule="evenodd" clip-rule="evenodd" d="M3.84706 15.3952C5.63255 16.008 7.05486 17.5024 7.65002 19.3968L7.71402 19.5888C8.39558 21.5984 8.11879 23.7616 6.97646 25.384C6.76848 25.6784 6.81487 26.0304 7.03406 26.1968L10.3491 28.7152C10.4658 28.8032 10.5794 28.8032 10.6498 28.7952C10.7298 28.7824 10.8466 28.7392 10.941 28.6048L11.3106 28.08C12.4129 26.5168 14.1888 25.552 16.0639 25.4976C18.1694 25.4544 20.0604 26.4192 21.238 28.12L21.4268 28.3936C21.5211 28.528 21.6363 28.5728 21.7179 28.5856C21.7883 28.6 21.9035 28.5952 22.0187 28.5056L25.3161 26.0176C25.5465 25.8448 25.5977 25.4752 25.4265 25.2272L25.0105 24.6272C23.9386 23.0784 23.6202 21.0688 24.1594 19.2528C24.7449 17.2752 26.2344 15.7104 28.1463 15.0704L28.4679 14.9616C28.7255 14.8768 28.8647 14.5568 28.7735 14.2624L27.5144 10.2288C27.4552 10.04 27.3336 9.9552 27.2664 9.92C27.1704 9.8704 27.0664 9.8624 26.9672 9.896L26.4232 10.0768C24.5626 10.696 22.5099 10.36 20.934 9.1744L20.7612 9.0448C19.2637 7.9184 18.3725 6.1024 18.3789 4.1888L18.3821 3.7408C18.3821 3.528 18.2814 3.3952 18.2206 3.3344C18.163 3.2752 18.0654 3.2048 17.9278 3.2048L13.8528 3.2C13.6032 3.2 13.4001 3.4384 13.3985 3.7328L13.3969 4.12C13.3889 6.064 12.4785 7.9136 10.9618 9.0704L10.7554 9.2272C9.08673 10.496 6.91087 10.8544 4.93979 10.1824C4.8646 10.1568 4.7942 10.1616 4.72701 10.1968C4.67581 10.2224 4.58302 10.288 4.53822 10.4336L3.2311 14.5872C3.13671 14.8896 3.2919 15.2048 3.58468 15.3056L3.84706 15.3952ZM16.0018 13.6C14.6787 13.6 13.602 14.6768 13.602 16C13.602 17.3232 14.6787 18.4 16.0018 18.4C17.3249 18.4 18.4016 17.3232 18.4016 16C18.4016 14.6768 17.3249 13.6 16.0018 13.6ZM15.9981 21.6C12.9103 21.6 10.3984 19.088 10.3984 16C10.3984 12.912 12.9103 10.4 15.9981 10.4C19.0859 10.4 21.5977 12.912 21.5977 16C21.5977 19.088 19.0859 21.6 15.9981 21.6ZM10.5843 32C9.8067 32 9.05155 31.7472 8.41479 31.2624L5.0998 28.7456C3.5159 27.5456 3.16552 25.2368 4.31745 23.6C4.91581 22.752 5.039 21.6624 4.68703 20.6288L4.59903 20.36C4.30625 19.4288 3.63749 18.7056 2.81035 18.4224H2.80875L2.54796 18.3312C0.599285 17.664 -0.440649 15.5984 0.178512 13.6272L1.48403 9.4752C1.78001 8.536 2.41837 7.7776 3.28232 7.3408C4.12706 6.9152 5.0822 6.8496 5.97495 7.1552C6.93328 7.4816 7.99722 7.304 8.81797 6.68L9.02435 6.5232C9.75391 5.9664 10.1939 5.0624 10.1971 4.1072L10.1987 3.7216C10.2067 1.6672 11.8466 0 13.8512 0H13.8576L17.9326 0.0048C18.8957 0.0064 19.8045 0.3872 20.4892 1.0768C21.198 1.7888 21.5852 2.7408 21.582 3.7568L21.5788 4.2032C21.5756 5.1088 21.9899 5.9648 22.6891 6.4896L22.8603 6.6192C23.5946 7.1712 24.5514 7.3296 25.4105 7.0416L25.9529 6.8608C26.876 6.5536 27.8584 6.6288 28.7239 7.072C29.6119 7.5264 30.2678 8.3088 30.5686 9.2768L31.8277 13.3104C32.4357 15.2592 31.3829 17.3616 29.4839 17.9968L29.1623 18.104C28.2407 18.4144 27.516 19.1824 27.2264 20.1616C26.9608 21.0592 27.1144 22.0464 27.6408 22.8048L28.0567 23.4048C29.1991 25.056 28.8343 27.3728 27.244 28.5712L23.9466 31.0608C23.1547 31.6592 22.1835 31.9008 21.2092 31.7456C20.2268 31.5872 19.3693 31.0432 18.7949 30.2144L18.6061 29.9392C18.0462 29.1328 17.1502 28.6432 16.2111 28.696C15.2704 28.7216 14.4576 29.168 13.9264 29.9232L13.5569 30.448C12.9777 31.2688 12.1186 31.8048 11.141 31.9584C10.9538 31.9872 10.7682 32 10.5843 32Z" fill="#276899"/>
</svg>
