<svg width="32" height="32" viewBox="0 0 32 32" fill="none" xmlns="http://www.w3.org/2000/svg">
<path fill-rule="evenodd" clip-rule="evenodd" d="M10.4 12C10.4 8.912 12.912 6.4 16 6.4C19.088 6.4 21.6 8.912 21.6 12C21.6 14.528 19.904 16.6448 17.6 17.3392V19.2C17.6 20.0848 16.8848 20.8 16 20.8C15.1152 20.8 14.4 20.0848 14.4 19.2V16C14.4 15.1152 15.1152 14.4 16 14.4C17.3232 14.4 18.4 13.3232 18.4 12C18.4 10.6768 17.3232 9.6 16 9.6C14.6768 9.6 13.6 10.6768 13.6 12C13.6 12.8848 12.8848 13.6 12 13.6C11.1152 13.6 10.4 12.8848 10.4 12ZM14.3999 23.9996C14.3999 23.1148 15.1151 22.3996 15.9999 22.3996C16.8847 22.3996 17.5999 23.1148 17.5999 23.9996C17.5999 24.8844 16.8847 25.5996 15.9999 25.5996C15.1151 25.5996 14.3999 24.8844 14.3999 23.9996ZM16.0031 28.8C8.94553 28.8 3.20312 23.0576 3.20312 16C3.20312 8.9424 8.94553 3.2 16.0031 3.2C23.0607 3.2 28.8031 8.9424 28.8031 16C28.8031 23.0576 23.0607 28.8 16.0031 28.8ZM16 0C7.1776 0 0 7.1776 0 16C0 24.8224 7.1776 32 16 32C24.8224 32 32 24.8224 32 16C32 7.1776 24.8224 0 16 0Z" fill="#276899"/>
</svg>
