<svg width="24" height="24" viewBox="0 0 24 24" fill="none" xmlns="http://www.w3.org/2000/svg">
<circle cx="12" cy="12" r="12" fill="#00C82C"/>
<path d="M12.7621 7.71956L12.7759 7.6064L12.6637 7.56358C11.2399 7.01984 9.70908 7.02576 8.46791 7.75539C6.3322 9.01087 5.82613 11.8993 7.1014 14.4494L6.32512 14.9057C4.67626 11.7761 5.30315 8.28024 7.83161 6.79388C9.26212 5.95296 11.0325 5.92135 12.7137 6.54807L12.8968 6.6163L12.9193 6.43217L13.1132 4.84423L15.2038 8.00335L12.5359 9.57167L12.7621 7.71956Z" fill="#0F1D28" stroke="#17212B" stroke-width="0.3"/>
<path d="M12.5006 17.1413L12.4935 17.2575L12.609 17.2923C13.9427 17.6942 15.3444 17.5797 16.4413 16.8158C18.3262 15.503 18.6331 12.7984 17.3324 10.5309L17.9985 10.0669C19.6641 12.8324 19.2803 16.0914 17.0597 17.6381C15.8014 18.5144 14.1892 18.6692 12.6223 18.2108L12.4385 18.157L12.4273 18.3414L12.3386 19.7924L10.2831 17.0591L12.6045 15.4422L12.5006 17.1413Z" fill="#0F1D28" stroke="#17212B" stroke-width="0.3"/>
</svg>
