<svg width="27" height="27" viewBox="0 0 27 27" fill="none" xmlns="http://www.w3.org/2000/svg">
    <circle cx="13.5" cy="13.5" r="13.5" fill="#276899"/>
    <path fill-rule="evenodd" clip-rule="evenodd"
          d="M15.1669 20C14.8683 20 14.5696 19.8726 14.3421 19.6191C13.886 19.1107 13.886 18.2891 14.3421 17.7807L18.1978 13.4839L14.4879 9.20271C14.0411 8.68528 14.054 7.86232 14.5171 7.36438C14.9814 6.86644 15.7199 6.88075 16.1667 7.39558L20.6723 12.596C21.1144 13.1069 21.1086 13.9169 20.6583 14.4187L15.9917 19.6191C15.7642 19.8726 15.4656 20 15.1669 20Z"
          fill="white"/>
    <path d="M15.1669 20C14.8683 20 14.5696 19.8726 14.3421 19.6191C13.886 19.1107 13.886 18.2891 14.3421 17.7807L18.1978 13.4839L14.4879 9.20271C14.0411 8.68528 14.054 7.86232 14.5171 7.36438C14.9814 6.86644 15.7199 6.88075 16.1667 7.39558L20.6723 12.596C21.1144 13.1069 21.1086 13.9169 20.6583 14.4187L15.9917 19.6191C15.7642 19.8726 15.4656 20 15.1669 20"
          stroke="#276899"/>
    <path fill-rule="evenodd" clip-rule="evenodd"
          d="M9.16693 20C8.86827 20 8.56961 19.8726 8.34212 19.6191C7.88596 19.1107 7.88596 18.2891 8.34212 17.7807L12.1978 13.4839L8.48795 9.20271C8.04112 8.68528 8.05396 7.86232 8.51711 7.36438C8.98143 6.86644 9.71991 6.88075 10.1667 7.39558L14.6723 12.596C15.1144 13.1069 15.1086 13.9169 14.6583 14.4187L9.99174 19.6191C9.76424 19.8726 9.46559 20 9.16693 20Z"
          fill="white"/>
    <path d="M9.16693 20C8.86827 20 8.56961 19.8726 8.34212 19.6191C7.88596 19.1107 7.88596 18.2891 8.34212 17.7807L12.1978 13.4839L8.48795 9.20271C8.04112 8.68528 8.05396 7.86232 8.51711 7.36438C8.98143 6.86644 9.71991 6.88075 10.1667 7.39558L14.6723 12.596C15.1144 13.1069 15.1086 13.9169 14.6583 14.4187L9.99174 19.6191C9.76424 19.8726 9.46559 20 9.16693 20"
          stroke="#276899"/>
</svg>
