<svg width="25" height="27" viewBox="0 0 25 27" fill="none" xmlns="http://www.w3.org/2000/svg">
<path fill-rule="evenodd" clip-rule="evenodd" d="M5.42654 5.16908C3.73488 5.16908 2.35937 6.56915 2.35937 8.29102C2.35937 17.1622 9.45044 24.3811 18.1671 24.3811C19.8576 24.3811 21.2343 22.981 21.2343 21.2591C21.2343 21.1258 21.226 20.995 21.2095 20.8653L15.7594 19.5925C15.6509 19.8038 15.5317 20.0332 15.4232 20.2469C14.8852 21.2915 14.4959 22.0504 13.5027 21.6434C9.60262 20.2505 6.41866 17.0085 5.03253 12.9908C4.61138 12.0482 5.41357 11.6207 6.43045 11.0804C6.6369 10.9699 6.85986 10.851 7.06394 10.743L5.81348 5.19429C5.68253 5.17748 5.55513 5.16908 5.42654 5.16908ZM18.1671 26.7826C8.14925 26.7826 0 18.4878 0 8.29102C0 5.24472 2.43369 2.76758 5.42654 2.76758C5.73326 2.76758 6.03644 2.79399 6.33018 2.84563C6.61684 2.89246 6.90469 2.9669 7.18545 3.06536C7.56885 3.20105 7.85787 3.52885 7.94871 3.9323L9.56369 11.0936C9.65335 11.4874 9.54128 11.9005 9.26523 12.1935C9.1048 12.364 9.10126 12.3676 7.63845 13.1469C8.82285 15.7573 10.8814 17.8454 13.3941 19.0101C14.1609 17.52 14.1656 17.5152 14.3332 17.3519C14.621 17.0709 15.0292 16.9616 15.4137 17.0481L22.4506 18.6919C22.8457 18.7844 23.1678 19.0774 23.2999 19.4676C23.3967 19.751 23.4698 20.044 23.5182 20.3453C23.5677 20.6419 23.5937 20.9493 23.5937 21.2591C23.5937 24.3054 21.1588 26.7826 18.1671 26.7826Z" fill="#276899"/>
<path d="M14.0156 1.2415C13.8004 1.15186 13.5597 1.15321 13.3465 1.24524C13.1333 1.33728 12.965 1.51247 12.8787 1.73227C12.7924 1.95207 12.7952 2.19848 12.8863 2.41729C12.9775 2.6361 13.1496 2.80939 13.3649 2.89903L14.078 3.19686C16.3055 4.12352 18.2839 5.58719 19.8441 7.46279C21.4044 9.33839 22.5 11.5701 23.0374 13.9673L23.1622 14.5202C23.1836 14.6392 23.2283 14.7527 23.2936 14.8538C23.3589 14.9549 23.4434 15.0416 23.5421 15.1085C23.6408 15.1755 23.7516 15.2214 23.8678 15.2434C23.984 15.2654 24.1033 15.2631 24.2183 15.2367C24.3334 15.2103 24.4419 15.1602 24.5373 15.0896C24.6327 15.0189 24.713 14.9291 24.7733 14.8256C24.8337 14.7221 24.8729 14.607 24.8886 14.4873C24.9043 14.3676 24.8961 14.2457 24.8645 14.1291L24.7416 13.5777C24.1412 10.898 22.9166 8.40307 21.1726 6.30636C19.4285 4.20966 17.2169 2.5735 14.7269 1.53778L14.0156 1.2415Z" fill="#276899"/>
<path d="M12.4274 5.63989C12.53 5.40952 12.72 5.22921 12.9557 5.13861C13.1914 5.048 13.4535 5.05452 13.6842 5.15674L13.9359 5.26733C15.5745 5.99176 17.0358 7.06276 18.2188 8.40631C19.4018 9.74985 20.2783 11.3339 20.7877 13.049L20.9333 13.5425C20.9731 13.6633 20.9883 13.7909 20.9778 13.9177C20.9673 14.0445 20.9314 14.168 20.8722 14.2807C20.8131 14.3935 20.7318 14.4932 20.6334 14.5741C20.5349 14.6549 20.4211 14.7152 20.2989 14.7514C20.1767 14.7875 20.0484 14.7988 19.9217 14.7846C19.795 14.7704 19.6725 14.7309 19.5614 14.6686C19.4504 14.6062 19.353 14.5222 19.275 14.4215C19.1971 14.3209 19.1402 14.2056 19.1077 14.0826L18.9603 13.5894C18.5295 12.1383 17.7881 10.7979 16.7875 9.66104C15.7868 8.52414 14.5506 7.61776 13.1644 7.00452L12.9128 6.89392C12.7984 6.84345 12.6951 6.77097 12.6087 6.68062C12.5224 6.59028 12.4548 6.48384 12.4097 6.36739C12.3647 6.25094 12.343 6.12675 12.3461 6.00192C12.3491 5.8771 12.3767 5.75408 12.4274 5.63989Z" fill="#276899"/>
<path d="M11.4079 9.48086C11.4748 9.33056 11.5988 9.21293 11.7525 9.15382C11.9063 9.0947 12.0773 9.09896 12.2278 9.16564L12.392 9.2378C13.4611 9.71042 14.4144 10.4091 15.1863 11.2857C15.9581 12.1622 16.5299 13.1957 16.8622 14.3146L16.9572 14.6366C16.9832 14.7154 16.993 14.7987 16.9862 14.8814C16.9794 14.9641 16.9559 15.0447 16.9174 15.1182C16.8788 15.1918 16.8258 15.2568 16.7615 15.3096C16.6973 15.3623 16.6231 15.4017 16.5433 15.4253C16.4636 15.4489 16.3799 15.4562 16.2972 15.447C16.2146 15.4377 16.1347 15.4119 16.0622 15.3712C15.9897 15.3306 15.9262 15.2758 15.8753 15.2101C15.8245 15.1444 15.7873 15.0692 15.7661 14.989L15.67 14.6672C15.3889 13.7205 14.9053 12.846 14.2524 12.1043C13.5996 11.3626 12.7931 10.7712 11.8887 10.3712L11.7245 10.299C11.6499 10.2661 11.5825 10.2188 11.5262 10.1598C11.4699 10.1009 11.4258 10.0315 11.3963 9.95548C11.3669 9.87951 11.3528 9.79849 11.3548 9.71705C11.3568 9.63561 11.3748 9.55536 11.4079 9.48086Z" fill="#276899"/>
</svg>
