<svg width="19" height="19" viewBox="0 0 19 19" fill="none" xmlns="http://www.w3.org/2000/svg">
<path fill-rule="evenodd" clip-rule="evenodd" d="M18.7067 1.70711C19.0972 1.31658 19.0972 0.683418 18.7067 0.292894C18.3162 -0.0976309 17.683 -0.0976312 17.2925 0.292893L9.50024 8.08515L1.70798 0.292893C1.31746 -0.097631 0.68429 -0.0976307 0.293766 0.292894C-0.0967579 0.683418 -0.0967579 1.31658 0.293768 1.70711L8.08592 9.49925L0.292894 17.2923C-0.0976309 17.6828 -0.0976312 18.316 0.292893 18.7065C0.683417 19.097 1.31658 19.097 1.70711 18.7065L9.49937 10.9142L17.2916 18.7065C17.6822 19.097 18.3153 19.097 18.7058 18.7065C19.0964 18.316 19.0964 17.6828 18.7058 17.2923L10.9137 9.50013L18.7067 1.70711Z" fill="#FF3A29"/>
</svg>
