<svg width="24" height="29" viewBox="0 0 24 29" fill="none" xmlns="http://www.w3.org/2000/svg">
<path fill-rule="evenodd" clip-rule="evenodd" d="M12.0003 0C11.6988 0 11.3973 0.0991159 11.1378 0.295723L5.13782 4.86805C4.45982 5.38476 4.29632 6.39866 4.77332 7.13147C5.25032 7.86591 6.18482 8.04301 6.86282 7.52631L10.5 4.75472V21.1877C10.5 22.3411 11.1705 23.2771 12 23.2771C12.8295 23.2771 13.5 22.3411 13.5 21.1877V4.87458L17.1003 7.79929C17.7633 8.34036 18.7038 8.1925 19.2003 7.47432C19.6983 6.75613 19.5633 5.73735 18.9003 5.19952L12.9003 0.32497C12.6348 0.108865 12.3168 0 12.0003 0ZM24 27.2375C24 28.1388 23.325 28.8763 22.5 28.8763H1.5C0.675 28.8763 0 28.1388 0 27.2375C0 26.3362 0.675 25.5987 1.5 25.5987H22.5C23.325 25.5987 24 26.3362 24 27.2375Z" fill="#276899"/>
</svg>
