<svg width="36" height="40" viewBox="0 0 36 40" fill="none" xmlns="http://www.w3.org/2000/svg">
<g filter="url(#filter0_d_3377)">
<mask id="path-1-inside-1_3377" fill="white">
<path fill-rule="evenodd" clip-rule="evenodd" d="M32 30.2213C32 31.2027 31.106 31.9991 30 31.9991C28.894 31.9991 28 31.2027 28 30.2213C28 25.32 23.514 21.3325 18 21.3325C12.486 21.3325 8 25.32 8 30.2213C8 31.2027 7.106 31.9991 6 31.9991C4.894 31.9991 4 31.2027 4 30.2213C4 23.3592 10.282 17.777 18 17.777C25.718 17.777 32 23.3592 32 30.2213ZM18 4C20.206 4 22 5.794 22 8C22 10.206 20.206 12 18 12C15.794 12 14 10.206 14 8C14 5.794 15.794 4 18 4ZM18 16C22.412 16 26 12.412 26 8C26 3.588 22.412 0 18 0C13.588 0 10 3.588 10 8C10 12.412 13.588 16 18 16Z"/>
</mask>
<path fill-rule="evenodd" clip-rule="evenodd" d="M32 30.2213C32 31.2027 31.106 31.9991 30 31.9991C28.894 31.9991 28 31.2027 28 30.2213C28 25.32 23.514 21.3325 18 21.3325C12.486 21.3325 8 25.32 8 30.2213C8 31.2027 7.106 31.9991 6 31.9991C4.894 31.9991 4 31.2027 4 30.2213C4 23.3592 10.282 17.777 18 17.777C25.718 17.777 32 23.3592 32 30.2213ZM18 4C20.206 4 22 5.794 22 8C22 10.206 20.206 12 18 12C15.794 12 14 10.206 14 8C14 5.794 15.794 4 18 4ZM18 16C22.412 16 26 12.412 26 8C26 3.588 22.412 0 18 0C13.588 0 10 3.588 10 8C10 12.412 13.588 16 18 16Z" fill="#276899"/>
<path d="M30 30.2213C30 30.1583 30.0152 30.0997 30.0367 30.0545C30.0571 30.0116 30.0782 29.9904 30.0855 29.9838C30.098 29.9727 30.0739 29.9991 30 29.9991V33.9991C31.984 33.9991 34 32.521 34 30.2213H30ZM30 29.9991C29.9261 29.9991 29.902 29.9727 29.9145 29.9838C29.9218 29.9904 29.9429 30.0116 29.9633 30.0544C29.9848 30.0997 30 30.1583 30 30.2213H26C26 32.521 28.016 33.9991 30 33.9991V29.9991ZM30 30.2213C30 24.0005 24.3906 19.3325 18 19.3325V23.3325C22.6374 23.3325 26 26.6396 26 30.2213H30ZM18 19.3325C11.6094 19.3325 6 24.0005 6 30.2213H10C10 26.6396 13.3626 23.3325 18 23.3325V19.3325ZM6 30.2213C6 30.1583 6.01522 30.0997 6.03673 30.0545C6.05709 30.0116 6.07819 29.9904 6.08552 29.9838C6.09804 29.9727 6.0739 29.9991 6 29.9991V33.9991C7.98396 33.9991 10 32.521 10 30.2213H6ZM6 29.9991C5.9261 29.9991 5.90196 29.9727 5.91448 29.9838C5.92181 29.9904 5.94291 30.0116 5.96327 30.0545C5.98478 30.0997 6 30.1583 6 30.2213H2C2 32.521 4.01604 33.9991 6 33.9991V29.9991ZM6 30.2213C6 24.6789 11.1584 19.777 18 19.777V15.777C9.4056 15.777 2 22.0395 2 30.2213H6ZM18 19.777C24.8416 19.777 30 24.6789 30 30.2213H34C34 22.0395 26.5944 15.777 18 15.777V19.777ZM18 6C19.1014 6 20 6.89857 20 8H24C24 4.68943 21.3106 2 18 2V6ZM20 8C20 9.10143 19.1014 10 18 10V14C21.3106 14 24 11.3106 24 8H20ZM18 10C16.8986 10 16 9.10143 16 8H12C12 11.3106 14.6894 14 18 14V10ZM16 8C16 6.89857 16.8986 6 18 6V2C14.6894 2 12 4.68943 12 8H16ZM18 18C23.5166 18 28 13.5166 28 8H24C24 11.3074 21.3074 14 18 14V18ZM28 8C28 2.48343 23.5166 -2 18 -2V2C21.3074 2 24 4.69257 24 8H28ZM18 -2C12.4834 -2 8 2.48343 8 8H12C12 4.69257 14.6926 2 18 2V-2ZM8 8C8 13.5166 12.4834 18 18 18V14C14.6926 14 12 11.3074 12 8H8Z" fill="#276899" mask="url(#path-1-inside-1_3377)"/>
</g>
<defs>
<filter id="filter0_d_3377" x="0" y="0" width="36" height="40" filterUnits="userSpaceOnUse" color-interpolation-filters="sRGB">
<feFlood flood-opacity="0" result="BackgroundImageFix"/>
<feColorMatrix in="SourceAlpha" type="matrix" values="0 0 0 0 0 0 0 0 0 0 0 0 0 0 0 0 0 0 127 0" result="hardAlpha"/>
<feOffset dy="4"/>
<feGaussianBlur stdDeviation="2"/>
<feColorMatrix type="matrix" values="0 0 0 0 0 0 0 0 0 0 0 0 0 0 0 0 0 0 0.25 0"/>
<feBlend mode="normal" in2="BackgroundImageFix" result="effect1_dropShadow_3377"/>
<feBlend mode="normal" in="SourceGraphic" in2="effect1_dropShadow_3377" result="shape"/>
</filter>
</defs>
</svg>
