<svg width="25" height="25" viewBox="0 0 25 25" fill="none" xmlns="http://www.w3.org/2000/svg">
<path fill-rule="evenodd" clip-rule="evenodd" d="M19.252 22.5176C10.0157 22.5176 2.5 15.0557 2.5 5.88465C2.5 4.10604 3.9575 2.65883 5.75 2.65883C5.88625 2.65883 6.02266 2.66628 6.16016 2.6849L7.48633 8.41913C7.26633 8.53332 7.02594 8.65743 6.80469 8.77286C5.71594 9.3376 4.92953 9.74719 5.33203 10.7426C6.80078 14.8968 10.1748 18.2468 14.3086 19.6865C15.3673 20.1073 15.773 19.3229 16.3418 18.243C16.4593 18.0221 16.5842 17.785 16.6992 17.5666L22.4746 18.8835C22.4921 19.0163 22.5 19.1528 22.5 19.2906C22.5 21.0704 21.0432 22.5176 19.252 22.5176ZM24.9199 18.3448C24.8699 18.0345 24.792 17.7304 24.6895 17.4388C24.5495 17.0354 24.2078 16.7313 23.7891 16.6357L16.334 14.9365C15.9227 14.8459 15.4932 14.9614 15.1895 15.2506C15.0107 15.4206 15.0059 15.4243 14.1934 16.9659C11.5184 15.7557 9.3325 13.5886 8.09375 10.9052C9.6425 10.0997 9.64711 10.096 9.81836 9.91847C10.1096 9.61686 10.2285 9.18866 10.1348 8.78155L8.42383 1.37918C8.32633 0.962144 8.02148 0.624544 7.61523 0.485533C7.31898 0.382515 7.01203 0.305562 6.70703 0.257156C6.39578 0.203786 6.07625 0.17648 5.75 0.17648C2.58 0.17648 0 2.73703 0 5.88465C0 16.4247 8.6357 25 19.252 25C22.422 25 25 22.4382 25 19.2906C25 18.9691 24.9724 18.6526 24.9199 18.3448Z" fill="#454D54"/>
<path d="M15.1973 2.73059C16.0223 2.73059 16.5723 2.18447 16.5723 1.36529C16.5723 0.546117 16.0223 0 15.1973 0C14.3723 0 13.8223 0.546117 13.8223 1.36529C13.8223 2.18447 14.3723 2.73059 15.1973 2.73059Z" fill="#454D54"/>
<path d="M19.3223 2.73059C20.1473 2.73059 20.6973 2.18447 20.6973 1.36529C20.6973 0.546117 20.1473 0 19.3223 0C18.4973 0 17.9473 0.546117 17.9473 1.36529C17.9473 2.18447 18.4973 2.73059 19.3223 2.73059Z" fill="#454D54"/>
<path d="M23.4473 2.73059C24.2723 2.73059 24.8223 2.18447 24.8223 1.36529C24.8223 0.546117 24.2723 0 23.4473 0C22.6223 0 22.0723 0.546117 22.0723 1.36529C22.0723 2.18447 22.6223 2.73059 23.4473 2.73059Z" fill="#454D54"/>
<path d="M15.1973 6.82647C16.0223 6.82647 16.5723 6.28035 16.5723 5.46117C16.5723 4.642 16.0223 4.09588 15.1973 4.09588C14.3723 4.09588 13.8223 4.642 13.8223 5.46117C13.8223 6.28035 14.3723 6.82647 15.1973 6.82647Z" fill="#454D54"/>
<path d="M19.3223 6.82647C20.1473 6.82647 20.6973 6.28035 20.6973 5.46117C20.6973 4.642 20.1473 4.09588 19.3223 4.09588C18.4973 4.09588 17.9473 4.642 17.9473 5.46117C17.9473 6.28035 18.4973 6.82647 19.3223 6.82647Z" fill="#454D54"/>
<path d="M23.4473 6.82647C24.2723 6.82647 24.8223 6.28035 24.8223 5.46117C24.8223 4.642 24.2723 4.09588 23.4473 4.09588C22.6223 4.09588 22.0723 4.642 22.0723 5.46117C22.0723 6.28035 22.6223 6.82647 23.4473 6.82647Z" fill="#454D54"/>
<path d="M15.1973 10.9223C16.0223 10.9223 16.5723 10.3762 16.5723 9.55706C16.5723 8.73788 16.0223 8.19176 15.1973 8.19176C14.3723 8.19176 13.8223 8.73788 13.8223 9.55706C13.8223 10.3762 14.3723 10.9223 15.1973 10.9223Z" fill="#454D54"/>
<path d="M19.3223 10.9223C20.1473 10.9223 20.6973 10.3762 20.6973 9.55706C20.6973 8.73788 20.1473 8.19176 19.3223 8.19176C18.4973 8.19176 17.9473 8.73788 17.9473 9.55706C17.9473 10.3762 18.4973 10.9223 19.3223 10.9223Z" fill="#454D54"/>
<path d="M23.4473 10.9223C24.2723 10.9223 24.8223 10.3762 24.8223 9.55706C24.8223 8.73788 24.2723 8.19176 23.4473 8.19176C22.6223 8.19176 22.0723 8.73788 22.0723 9.55706C22.0723 10.3762 22.6223 10.9223 23.4473 10.9223Z" fill="#454D54"/>
</svg>
