<svg width="26" height="26" viewBox="0 0 26 26" fill="none" xmlns="http://www.w3.org/2000/svg">
<path d="M13.8087 13.2275V7.3125H12.1833V13.2275C11.8746 13.4072 11.6337 13.6834 11.4977 14.0135C11.3616 14.3436 11.338 14.7093 11.4304 15.0541C11.5229 15.399 11.7262 15.7039 12.0092 15.9218C12.2921 16.1396 12.6388 16.2584 12.996 16.2597C13.3529 16.2597 13.6999 16.1421 13.9834 15.9253C14.2669 15.7084 14.4711 15.4043 14.5645 15.0599C14.6579 14.7155 14.6352 14.3499 14.5001 14.0196C14.365 13.6893 14.1249 13.4127 13.8168 13.2324L13.8087 13.2275Z" fill="#8AA8D4"/>
<path d="M12.9955 3.25098C9.97786 3.25098 7.0838 4.44941 4.95 6.58264C2.81619 8.71586 1.61743 11.6091 1.61743 14.626C1.61743 17.6428 2.81619 20.5361 4.95 22.6693C7.0838 24.8025 9.97786 26.001 12.9955 26.001C16.0132 26.001 18.9072 24.8025 21.041 22.6693C23.1748 20.5361 24.3736 17.6428 24.3736 14.626C24.3736 11.6091 23.1748 8.71586 21.041 6.58264C18.9072 4.44941 16.0132 3.25098 12.9955 3.25098ZM12.9955 23.5635C10.6245 23.5635 8.3506 22.6219 6.67404 20.9457C4.99747 19.2696 4.05559 16.9964 4.05559 14.626C4.05559 12.2556 4.99747 9.98232 6.67404 8.30621C8.3506 6.6301 10.6245 5.68848 12.9955 5.68848C15.3665 5.68848 17.6404 6.6301 19.317 8.30621C20.9936 9.98232 21.9354 12.2556 21.9354 14.626C21.9311 16.9947 20.9881 19.2653 19.3128 20.9404C17.6375 22.6156 15.3666 23.5588 12.9971 23.5635H12.9955Z" fill="#8AA8D4"/>
<path d="M9.74463 0H16.2464V2.43816H9.74463V0Z" fill="#8AA8D4"/>
<path d="M0 7.2124L4.40982 2.43652L6.20106 4.08915L1.79124 8.86502L0 7.2124Z" fill="#8AA8D4"/>
<path d="M19.7988 4.09403L21.5901 2.44141L25.9999 7.21728L24.2086 8.86991L19.7988 4.09403Z" fill="#8AA8D4"/>
</svg>
