<svg width="16" height="18" viewBox="0 0 16 18" fill="none" xmlns="http://www.w3.org/2000/svg">
<path d="M2.37056 8.72177C2.24823 8.24649 2.18473 7.75799 2.18147 7.26723C2.18473 6.77647 2.24823 6.28796 2.37056 5.81268H4.82874C4.76538 6.29502 4.73137 6.78076 4.72693 7.26723C4.73137 7.75369 4.76538 8.23943 4.82874 8.72177H6.29783C6.22599 8.24014 6.18711 7.75416 6.18147 7.26723C6.18681 6.78028 6.22569 6.29428 6.29783 5.81268H9.70147C9.77359 6.29428 9.81247 6.78028 9.81783 7.26723C9.81217 7.75416 9.77329 8.24013 9.70147 8.72177H11.1706C11.2339 8.23943 11.2679 7.75369 11.2724 7.26723C11.2679 6.78076 11.2339 6.29502 11.1706 5.81268H13.6287C13.7511 6.28796 13.8146 6.77646 13.8178 7.26723C13.8146 7.75799 13.7511 8.2465 13.6287 8.72177H15.1262C15.341 7.66541 15.3182 6.57452 15.0596 5.52802C14.801 4.48153 14.313 3.50561 13.6309 2.67088C12.9489 1.83615 12.0897 1.16348 11.1157 0.701557C10.1418 0.239632 9.07726 0 7.99929 0C6.92132 0 5.85682 0.239632 4.88284 0.701557C3.90885 1.16348 3.04973 1.83615 2.36764 2.67088C1.68554 3.50561 1.19754 4.48153 0.938938 5.52802C0.680336 6.57452 0.657602 7.66541 0.872381 8.72177H2.37056ZM13.0324 4.35814H10.8869C10.6593 3.45738 10.3223 2.58788 9.88329 1.76904C11.2099 2.22577 12.3278 3.14484 13.0324 4.35814ZM7.99965 1.47814C8.61057 2.35951 9.07931 3.33135 9.38874 4.35814H6.61056C6.92 3.33135 7.38873 2.35951 7.99965 1.47814ZM6.11602 1.76904C5.67704 2.58787 5.33999 3.45737 5.11238 4.35814H2.96693C3.66935 3.14299 4.78799 2.22328 6.11602 1.76904Z" fill="#454D54"/>
<path d="M8.54688 12.7168H10.0014V13.4441H8.54688V12.7168Z" fill="#454D54"/>
<path d="M14.544 10.1758H1.456C1.06984 10.1758 0.699506 10.3292 0.426453 10.6022C0.1534 10.8753 0 11.2456 0 11.6318V15.9925C0 16.1837 0.0376606 16.373 0.110831 16.5497C0.184002 16.7263 0.29125 16.8869 0.426453 17.0221C0.561655 17.1573 0.722163 17.2645 0.898813 17.3377C1.07546 17.4108 1.2648 17.4485 1.456 17.4485H14.544C14.9302 17.4485 15.3005 17.2951 15.5735 17.0221C15.8466 16.749 16 16.3787 16 15.9925V11.6318C16 11.2456 15.8466 10.8753 15.5735 10.6022C15.3005 10.3292 14.9302 10.1758 14.544 10.1758ZM6.00073 15.9976H4.90982V11.634H6.00073V15.9976ZM11.0902 13.4449C11.0928 13.5889 11.0664 13.7319 11.0126 13.8655C10.9587 13.999 10.8784 14.1204 10.7766 14.2222C10.6748 14.324 10.5534 14.4043 10.4199 14.4582C10.2863 14.512 10.1433 14.5384 9.99927 14.5358H8.54473V15.9903H7.45382V11.6267H9.99927C10.1433 11.624 10.2863 11.6504 10.4199 11.7043C10.5534 11.7582 10.6748 11.8384 10.7766 11.9403C10.8784 12.0421 10.9587 12.1634 11.0126 12.297C11.0664 12.4306 11.0928 12.5736 11.0902 12.7176V13.4449Z" fill="#454D54"/>
</svg>
