<svg width="136" height="132" viewBox="0 0 136 82" fill="none" xmlns="http://www.w3.org/2000/svg">
    <path d="M65.9737 86.0397L65.3183 85.96C63.5721 85.7565 61.8721 85.2642 60.2882 84.5033L60.5013 84.5671C60.8796 84.6787 62.0998 85.0349 62.1798 84.9127C62.1318 84.8116 62.0146 84.7425 60.1976 83.7484L59.6647 83.4719C60.0537 83.3656 60.5759 83.2327 60.9702 83.1423L61.1301 83.2327C62.1052 83.7643 63.0856 84.0833 62.9204 83.6208C62.7896 83.3687 62.6082 83.1461 62.3876 82.9669C61.8147 82.4214 61.1182 82.0219 60.3574 81.8026C58.1887 79.0275 57.576 76.6085 56.8619 73.8281C56.6861 73.0572 56.5635 72.0099 56.4357 71.2231C56.5635 72.0099 56.7074 73.0519 56.8619 73.8281H56.9898C58.5884 74.0141 59.2118 72.7116 58.8761 71.3453C58.3433 69.1284 55.679 67.5335 54.1551 68.5064C50.5477 64.2533 49.3594 62.584 46.9456 59.3038C47.2309 58.9355 47.4345 58.5109 47.5429 58.0581C47.6513 57.6053 47.662 57.1347 47.5744 56.6775C47.4819 55.9637 47.2359 55.2783 46.8533 54.6681C46.4707 54.058 45.9606 53.5374 45.3577 53.1422C45.938 49.7826 46.7137 46.4596 47.6809 43.1899H47.7289C48.4056 43.2537 48.8426 42.6158 48.8745 41.9566C48.9118 41.2389 48.4802 40.4946 47.7182 40.5424C46.4613 36.0272 45.6704 31.3956 45.3577 26.7199C47.6809 25.3058 50.3079 23.7002 54.2989 21.5205L54.3948 21.7385C55.8815 24.3967 59.6967 22.9878 60.5386 20.1808C60.5386 20.0851 60.6025 19.9469 60.6239 19.8459C61.1993 17.0282 58.631 15.2844 56.1906 16.8368C56.0787 16.9059 55.9401 17.0069 55.8335 17.0867C53.2226 13.243 52.807 11.5577 52.2794 9.42582C54.2705 7.29777 56.407 5.31 58.6736 3.47683C59.0733 3.57784 59.8139 3.14721 60.2722 2.69001C60.7304 2.2328 60.9063 1.82344 60.4853 1.83408C59.8247 1.97882 59.2253 2.32428 58.7695 2.82291L59.7287 2.49862L58.7642 2.82291C56.5103 3.60442 56.1 3.74264 54.8158 4.21048L53.7874 4.58794L54.8638 4.22112C55.0769 3.91277 55.7216 2.96646 54.7039 3.15785C53.6862 3.34924 51.5601 4.44972 50.1107 5.93298L49.9189 6.14032C47.3559 7.20359 45.9439 7.80965 43.3116 9.14937C44.5531 7.61295 44.6544 7.52257 47.2067 5.24185C47.7769 4.94414 48.3523 4.61984 49.9083 3.67885C52.4766 2.13711 52.8709 1.89787 52.9721 1.75964C52.0063 1.93261 51.0942 2.32759 50.3079 2.9133C50.3931 2.84418 50.4837 2.76444 50.5637 2.70596C51.2575 2.21454 52.0003 1.79587 52.7803 1.45661L53.6275 1.11105H53.6702L53.4304 1.19611L52.8336 1.44598L52.4979 1.59484L52.1995 1.72775C52.0556 1.78623 51.6667 1.95103 51.3256 2.12116H51.2937L52.2421 1.69585C51.4748 2.03351 50.7459 2.45235 50.0681 2.94519C49.807 3.08342 49.1196 3.44493 48.3097 3.93935C47.914 4.01478 47.5304 4.14355 47.1694 4.32212L46.6366 4.64111C47.0098 4.45155 47.4081 4.31552 47.8195 4.23707L47.7076 4.31149C46.5406 5.093 46.109 5.53957 46.3062 5.56615H46.3595C43.0185 8.22433 43.0185 8.22433 41.5052 9.81923C41.1406 10.048 40.809 10.3252 40.5194 10.6433C39.2146 11.1909 38.01 11.9508 36.9547 12.8921L37.2797 12.5146C37.1039 12.706 36.928 12.8974 36.7469 13.0941L36.3419 13.5566L35.9689 14.0085L35.5373 14.5401C35.3348 14.79 35.1377 15.0718 34.9458 15.3057C35.0151 15.21 35.0897 15.1143 35.1643 15.0239L35.3135 14.8272L35.2176 14.9548C34.7402 15.6757 34.3009 16.421 33.9015 17.1877C33.7203 17.4376 33.5658 17.6662 33.4112 17.9267C33.2567 18.1872 33.1608 18.352 33.0755 18.5274C32.0898 20.0319 30.8482 22.0947 29.9797 23.6736C30.0117 23.5779 30.0117 23.562 29.9797 23.546C29.9477 23.5301 29.9797 23.546 29.5321 24.5561L29.969 23.5514L30.1342 23.1898L29.8891 23.6843C29.7879 23.8757 29.6653 24.1415 29.6653 24.1468L29.8092 23.8119C29.7133 24.0245 29.6173 24.2372 29.5268 24.4498L29.4522 24.6199C29.2603 25.0612 29.1005 25.4546 29.0046 25.6832C28.9726 25.7576 28.9406 25.8374 28.914 25.9118L28.8394 26.1032C28.7488 26.3212 28.6689 26.5445 28.5836 26.7677L28.7275 26.3903V26.4328C28.6476 26.6455 28.6049 26.7784 28.573 26.89C28.0656 28.1751 27.6524 29.4953 27.3367 30.8401C27.6138 29.8831 27.9762 28.7614 28.5516 27.007C28.5516 27.007 28.5516 27.007 28.6422 26.8634V26.8315C27.7151 30.2712 27.2515 32.0044 27.2355 36.2521C26.0845 39.0964 26.0099 40.4042 25.8714 43.0092C25.8714 42.9188 25.8714 42.8338 25.8714 42.7434C25.8714 42.8976 25.8714 43.0517 25.8714 43.2006C25.8714 43.4664 25.8714 43.7322 25.8714 43.9874C25.914 44.9603 25.9886 45.9279 26.0952 46.8848V47.039V47.0709C26.0952 47.039 26.0952 47.0124 26.0952 46.9805C26.0419 46.4489 25.9886 45.8853 25.946 45.2474C25.946 44.9125 25.8821 44.2532 25.8501 43.5302C25.8501 40.6753 26.303 39.3728 27.2089 36.7678C27.47 40.3191 27.6138 42.2755 28.8074 46.1512C28.6484 46.6949 28.6374 47.2711 28.7754 47.8205C28.7754 47.9002 28.8074 47.98 28.8287 48.0544C28.0348 51.0847 28.0348 51.0847 28.0135 54.0778C27.8749 53.7695 27.7843 53.6525 27.747 53.7216C27.7405 53.7586 27.7405 53.7964 27.747 53.8333C26.7826 51.0316 26.7186 50.6435 26.1218 47.0709C26.1538 47.3473 26.1858 47.6025 26.2231 47.9002C26.5854 50.383 26.6547 50.5956 27.7897 54.1895C27.8776 54.613 27.9933 55.0304 28.136 55.4388V55.4973C28.2659 56.1981 28.4313 56.8919 28.6316 57.576L28.4717 57.1507C28.5516 57.374 28.6369 57.5919 28.7222 57.8152C28.8074 58.0385 28.8873 58.2458 28.9726 58.4585C29.1165 58.8094 29.2603 59.1603 29.4095 59.5218C29.5214 59.777 29.6333 60.0534 29.7506 60.2926L29.7772 60.3405V60.3777V60.3405C30.9441 62.7275 31.104 62.9561 33.1022 65.7472C33.8024 67.0558 34.6363 68.2887 35.5906 69.4261C36.1904 70.171 36.8497 70.8662 37.5621 71.5048C38.6758 72.802 40.2264 74.4554 41.4679 75.6516C41.4679 75.6516 41.4679 75.6516 41.4359 75.6516C41.7278 75.9436 42.0394 76.2154 42.3684 76.465L42.5176 76.5819L42.0647 76.1832L42.5176 76.5819C43.1571 77.1136 44.0522 77.7728 44.713 78.2779L45.395 78.7404C44.6171 78.2087 43.6206 77.4272 42.8746 76.8478C42.9492 76.9009 42.9812 76.9222 42.9919 76.9169L42.9599 76.8797C45.0424 78.3996 47.247 79.7457 49.5512 80.9041C49.7644 81.037 50.0148 81.1806 50.3132 81.3348C50.7316 81.7585 51.2344 82.0899 51.7892 82.3076L52.354 82.5575C51.7912 82.3406 51.2756 82.0175 50.8354 81.6059C51.2937 81.8345 51.7199 82.0471 52.1302 82.2439L51.3523 81.8504H51.4109C51.5376 81.916 51.6718 81.966 51.8105 81.9993C51.5971 81.8283 51.3625 81.6854 51.1125 81.574C51.0473 81.5406 50.9796 81.5121 50.91 81.4889L51.0326 81.5315C51.8425 81.8026 51.9437 81.8345 53.6329 82.3236C57.5014 84.0993 59.0999 84.8329 64.3325 85.7845C64.3325 85.7845 64.8014 85.8749 65.3609 85.9334H65.1371C64.146 85.8324 63.5385 85.7526 62.9524 85.6676L62.0732 85.5134L61.8867 85.4762L61.2579 85.3486L60.5226 85.1997C58.3433 84.6744 56.206 83.9885 54.1284 83.1476C56.1176 83.9964 58.1791 84.6654 60.2882 85.1466L60.0324 85.0934C60.3482 85.1821 60.6683 85.2549 60.9915 85.3114L61.162 85.3486L60.9968 85.3114L62.1478 85.5347L61.1674 85.3539H61.2686L61.6842 85.4337C62.638 85.6197 63.2295 85.7101 63.8156 85.7952C64.0927 85.8324 64.9453 85.9493 65.7978 86.0344C64.9026 85.9334 64.5989 85.8962 63.8956 85.7952L63.1975 85.6942L63.7304 85.7686C64.5563 85.8749 65.1691 85.9387 65.8618 86.0025L66.2561 86.045C66.8742 86.1088 67.1992 86.1301 67.2312 86.1301C66.7836 86.1088 66.3786 86.0876 65.9737 86.0397ZM61.2579 85.3486L61.9613 85.4975C61.5191 85.4124 61.0715 85.322 60.5759 85.2157L61.2579 85.3486ZM28.6795 55.9811C28.6679 55.9472 28.6517 55.915 28.6316 55.8854L28.6742 55.9492C30.2994 58.1874 32.2763 59.6175 34.3757 61.1273C34.5913 61.8606 34.9049 62.5616 35.3082 63.2113C35.4201 63.3974 35.4947 63.5144 35.6172 63.6898C35.0844 65.4708 35.0844 65.5027 35.0844 66.433C35.0844 66.6776 35.1323 66.9647 35.1643 67.2464C35.1207 66.9772 35.0941 66.7056 35.0844 66.433C33.8109 64.886 32.953 64.1683 32.7771 64.4766C30.6457 60.9147 30.5711 60.7552 28.7275 56.3904C28.7125 56.2563 28.6894 56.1231 28.6582 55.9917L28.6795 55.9811ZM29.8198 47.5494C29.8065 47.4044 29.7833 47.2606 29.7506 47.1187L29.5161 47.4856L29.7506 47.1187C31.445 44.6679 32.5001 43.6791 34.8126 41.5047L34.8499 41.6163C35.0092 42.0864 35.2971 42.5026 35.6812 42.8178C34.7434 49.3357 34.7167 52.5999 35.548 58.6924C35.3731 58.5995 35.1737 58.563 34.9771 58.5877C34.7806 58.6125 34.5965 58.6973 34.4503 58.8306L36.182 61.5952L34.4503 58.8306C32.5186 55.5546 30.9635 52.0717 29.8145 48.4478C29.8533 48.1497 29.8551 47.8479 29.8198 47.5494ZM34.4929 16.8155C36.158 14.8637 37.9812 13.0518 39.944 11.3982C39.944 11.5736 40.1891 11.3982 40.3063 11.3131C40.3063 11.3131 40.3436 11.2759 40.3596 11.26C39.7894 12.4827 39.7841 12.5253 39.3418 14.7315C39.0259 15.058 38.7422 15.4141 38.4946 15.7948C37.0628 16.1243 35.663 16.5797 34.3117 17.1558L34.1466 17.2355L34.4929 16.8155ZM46.9349 13.9713L46.5513 15.1728C46.4128 15.5875 46.2795 16.0075 46.1623 16.3637L46.5513 15.1728L46.9456 13.9766C48.1605 10.9835 48.2298 10.8665 50.1427 7.83623C50.7123 7.6834 51.2525 7.43727 51.7413 7.10789C51.786 7.08146 51.8257 7.04725 51.8585 7.00688V7.0441C51.8239 7.87542 51.8399 8.70808 51.9064 9.53747C50.7022 10.8666 49.1303 12.6741 47.974 14.051C47.6514 13.9042 47.2871 13.876 46.9456 13.9713H46.9349ZM44.9101 26.4541C43.9297 27.0867 42.6242 27.9267 41.6544 28.5806C41.6125 28.4122 41.5371 28.254 41.4328 28.1152C41.3284 27.9764 41.1972 27.8599 41.047 27.7725C40.9297 28.1075 40.7912 28.5275 40.658 28.9102L41.047 27.7725C41.9111 25.34 42.92 22.9612 44.0682 20.6486H44.1695C44.4653 20.6715 44.7628 20.6335 45.0433 20.537L45.3737 18.1499L45.054 20.5317C44.8782 22.4402 44.8782 22.4402 44.9208 26.4541H44.9101ZM47.1001 67.3315L48.2031 67.8046L47.1001 67.3315C42.9279 65.5133 41.5745 64.8222 38.8783 63.4399C38.7912 63.1206 38.6863 62.8065 38.5639 62.4989C38.3957 62.0841 38.1998 61.6809 37.9778 61.2921L37.5408 61.7174L37.9778 61.2921C39.4526 60.0328 41.0339 58.9033 42.7041 57.9162L42.7681 58.0226C43.7485 59.5271 44.8568 59.8354 45.2884 59.8992H45.379C46.0011 62.154 46.7627 64.3681 47.6596 66.5287C47.4834 66.566 47.3279 66.6684 47.2241 66.8153C47.1203 66.9622 47.0761 67.1428 47.1001 67.3209V67.3315ZM45.2725 72.717C45.1819 72.5947 45.1073 72.5096 45.0647 72.4618L44.9101 72.7489L45.0647 72.4618C45.8 71.1433 46.562 70.399 47.9474 69.054L47.99 69.0912C48.186 69.2831 48.4085 69.446 48.6507 69.575C49.6258 72.9456 50.0308 74.3597 52.1675 77.6665C49.0184 75.6782 48.4909 75.3007 45.5602 73.2273C45.4889 73.0445 45.392 72.8727 45.2725 72.717ZM37.1412 69.272L36.6083 68.533C36.214 67.9748 35.8037 67.4219 35.3881 66.8902C35.4147 67.1082 35.4307 67.3687 35.4574 67.6239C35.4254 67.3687 35.3934 67.0923 35.3881 66.8902C35.5266 65.2953 35.5533 64.9976 35.8943 64.1683L35.9902 64.2852C37.0559 65.5505 38.079 66.13 38.6545 65.7632C38.031 64.8488 37.1785 63.6366 36.587 62.7063L36.2566 63.3868C36.3551 63.1545 36.4654 62.9274 36.587 62.7063C37.1785 63.6366 38.031 64.8328 38.6545 65.7579C40.1979 67.8848 41.8762 69.9109 43.6792 71.8238C43.6671 71.9508 43.6931 72.0784 43.7538 72.1906L44.1801 72.3501L43.7538 72.1906C41.4903 71.3703 39.2861 70.3951 37.1572 69.272H37.1412ZM47.5264 68.5383L47.585 68.6234C46.4316 69.6083 45.444 70.7714 44.6597 72.0684C44.4421 71.8383 44.1449 71.6995 43.8284 71.6803L44.4892 72.382L43.8284 71.6803C42.0495 69.7609 40.396 67.7294 38.8783 65.5984C38.9582 65.4708 39.214 65.0933 39.0488 64.0619C39.0425 64.0154 39.0336 63.9693 39.0221 63.9237C42.2192 65.5718 43.61 66.2044 47.2067 67.7834C47.2793 68.0507 47.3925 68.3052 47.5424 68.5383H47.5264ZM48.3523 67.2677C48.4642 67.5229 48.5708 67.7993 48.6667 68.0014L48.3523 67.2677ZM42.3684 57.2357C42.3684 57.2889 42.4111 57.3368 42.4377 57.3899C40.7565 58.3789 39.166 59.5139 37.6847 60.7817C37.2261 60.0291 36.6143 59.3807 35.889 58.8785C34.9885 52.5308 35.1217 49.6493 36.0329 43.0251H36.0861C36.3038 43.0927 36.5354 43.1023 36.7579 43.0528C36.9803 43.0034 37.186 42.8967 37.3543 42.7434L37.4129 42.6955C37.3277 42.435 37.2264 42.1639 37.1252 41.8502L37.4129 42.6955C38.8235 46.4127 40.5621 49.9976 42.6082 53.408C41.697 54.5138 41.8889 56.1087 42.3684 57.2357ZM35.2389 37.4536L35.7718 38.283C35.9583 38.5754 36.1501 38.8678 36.3046 39.1123L35.7718 38.283L35.2389 37.4536C34.2723 35.9335 33.4397 34.3326 32.7505 32.6689C33.2098 31.7982 33.5674 30.8778 33.8162 29.9257C34.0813 28.966 34.2193 27.9758 34.2265 26.9804C36.9299 24.2408 39.8427 21.715 42.9386 19.4259V19.5269C42.9757 19.7487 43.0678 19.9578 43.2064 20.1351C43.3451 20.3124 43.5259 20.4524 43.7325 20.5423C42.5699 22.8507 41.5502 25.228 40.6793 27.6609C39.6989 27.6131 38.5479 28.9209 38.5479 30.6806C38.5452 31.141 38.7099 31.5867 39.0115 31.9352C38.436 33.3228 37.7433 35.1995 37.2264 36.6083C36.5337 36.2787 35.8091 36.587 35.2389 37.4536ZM39.2353 15.9915V15.6459V15.9915ZM38.1056 17.831C38.6385 17.9373 39.4857 17.1717 40.0878 16.3637L40.1411 16.2945C41.9581 16.7305 42.0647 16.7571 43.4821 17.0388C43.2969 17.3758 43.1503 17.7324 43.0452 18.1021C42.9576 18.4028 42.9109 18.714 42.9066 19.0271C39.8049 21.2917 36.8881 23.7982 34.1839 26.5232C34.1804 26.0037 34.0187 25.4976 33.7203 25.0718C35.3774 21.8554 35.5853 21.5471 38.0683 17.8097L38.1056 17.831ZM50.2599 7.34181L51.0539 6.31044L50.2599 7.34181ZM52.2315 5.41729C52.1942 5.51831 52.1622 5.63526 52.1302 5.74691V5.66185C52.1585 5.57298 52.1923 5.48598 52.2315 5.40135V5.41729ZM49.2155 7.65016C49.2528 7.71927 49.3488 7.91066 49.7484 7.90003H49.8123C48.0912 10.5157 48.0007 10.7177 46.5406 14.1042C45.3819 14.6238 44.407 15.4797 43.7432 16.5604L44.7556 16.7517L43.7432 16.5604C41.6811 16.1297 41.5105 16.0978 40.4342 15.8267C40.7266 15.3897 40.9261 14.8976 41.0203 14.3807L40.3809 15.008L39.7362 15.6406L40.3809 15.008L41.0203 14.3807C43.5909 11.9536 46.3158 9.6948 49.1783 7.61826L49.2155 7.65016ZM39.7042 14.4285C39.8854 13.1154 39.9013 13.0782 40.7326 10.9888C40.8924 10.84 41.0203 10.7124 41.0843 10.6433L41.2601 10.4572L42.7095 9.65974C41.5532 11.1802 41.5265 11.2546 39.9546 14.2318C39.8001 14.3275 39.7042 14.4126 39.7042 14.4126V14.4285ZM33.9441 17.7406L33.9761 17.6927C35.337 17.1092 36.7476 16.6484 38.1909 16.3158L38.1589 16.3743C37.7966 17.1186 37.8232 17.4907 37.9138 17.6715C35.8464 20.6539 35.7185 20.8932 33.5444 24.9177C32.6919 24.386 31.6475 25.8002 31.6422 25.8161C31.9885 22.8815 32.175 21.4142 33.4858 18.3732C33.5498 18.3041 33.715 18.0808 33.9441 17.7353V17.7406ZM31.5196 30.2553C31.1573 31.6216 30.6617 33.4451 30.3633 34.8273H30.4379C31.2159 34.8752 31.9352 34.0033 32.4041 33.2643C32.4308 33.2218 32.4628 33.1633 32.4894 33.1261C33.2034 34.8433 33.3047 35.0134 34.9831 37.9108C34.6336 38.7413 34.5087 39.6487 34.6208 40.5424C34.6208 40.6541 34.6474 40.7551 34.6741 40.9039C32.7446 42.5541 31.0393 44.4486 29.6014 46.5392C29.5591 46.4184 29.5037 46.3025 29.4362 46.1937C29.287 41.3399 29.6653 39.0166 30.3633 34.8008C30.6244 33.4345 31.1573 31.6163 31.5196 30.25V30.2553ZM37.5248 69.8408C37.4929 69.793 37.4556 69.7504 37.4236 69.7079C39.5562 70.8205 41.764 71.7833 44.0309 72.5894C44.2151 72.8386 44.432 73.0621 44.6757 73.2539C45.6828 75.6994 45.6987 75.7473 46.6792 77.1295C45.6135 76.5554 45.6135 76.8796 45.6668 76.9966C45.7201 77.1136 45.6668 77.0604 47.2653 78.0599L45.6668 77.0445C43.0858 75.3003 40.6386 73.3669 38.3454 71.2603C38.0962 70.7718 37.8223 70.2963 37.5248 69.8355V69.8408ZM48.9385 78.7138C48.3489 78.2291 47.7296 77.7817 47.0841 77.3741C47.2813 77.608 47.5158 77.9057 47.7396 78.1715L47.0841 77.3741C45.768 75.306 45.5655 74.987 45.086 73.5304H45.1233C45.4749 73.6952 45.5868 73.6048 45.6188 73.5038L44.9101 72.9721L45.6188 73.5038C48.8159 75.7632 49.7324 76.3321 52.4393 78.028C54.3842 80.3884 54.4961 80.5267 56.1213 81.8451L57.2563 82.6373C56.8513 82.3714 56.4463 82.1056 56.1213 81.8451C55.29 81.6431 55.4179 81.9461 55.4765 82.0471C55.5502 82.1805 55.6665 82.2853 55.8069 82.3449L55.7003 82.3023C53.3185 81.2763 53.0041 81.1221 49.9829 79.6442C49.6509 79.3148 49.3023 79.0024 48.9385 78.7085V78.7138ZM59.2757 83.2593C58.3626 82.7418 57.4072 82.3025 56.4197 81.9461C56.8513 82.2439 57.3681 82.616 57.8744 82.9562C57.3703 82.6478 56.8846 82.3106 56.4197 81.9461C54.1604 79.9366 54.0751 79.8568 52.9135 78.3257C55.8549 80.0854 57.8424 81.1221 59.9471 82.2226C60.1313 82.4985 60.3686 82.7353 60.6452 82.919C60.2349 83.0094 59.686 83.1476 59.2757 83.254V83.2593ZM60.1443 81.792C59.9578 81.792 59.8672 81.893 59.8832 82.0418L60.7731 82.499L59.8832 82.0418C56.814 80.4469 54.8851 79.2933 52.6471 77.9589C51.1445 75.5293 50.0575 73.7802 49.0877 69.7292H49.1516C49.2572 69.7558 49.3676 69.7575 49.474 69.7339C49.5804 69.7104 49.6797 69.6623 49.7642 69.5936C49.8486 69.5249 49.9157 69.4374 49.9601 69.3382C50.0046 69.2389 50.0251 69.1307 50.0202 69.0221C50.0228 68.9991 50.0228 68.9759 50.0202 68.953C51.0859 69.3677 52.4659 69.9099 53.5103 70.3193C53.6216 70.9111 53.8677 71.4696 54.2297 71.9514C54.789 72.746 55.574 73.3552 56.4836 73.7005C57.528 78.129 58.6736 79.7452 60.1443 81.7866V81.792ZM53.91 68.7563C53.6327 69.0721 53.4827 69.4794 53.489 69.8993L55.6204 70.7074L53.489 69.8993C52.4233 69.4952 51.0219 68.937 49.9669 68.5224C49.9669 68.4586 49.9242 68.3682 49.8869 68.2565C49.7353 67.8499 49.4914 67.4837 49.1743 67.1867C48.8573 66.8898 48.4756 66.67 48.0593 66.5447C47.173 64.381 46.4202 62.1653 45.8053 59.9099H45.8533C46.1199 59.876 46.3751 59.7814 46.5993 59.6334L46.6525 59.5962C49.4447 63.4133 50.601 64.8275 53.91 68.751V68.7563ZM45.2032 57.4856L45.7041 58.214L45.2032 57.4856ZM44.9314 52.9348C44.611 52.7907 44.2586 52.7316 43.9085 52.7633C43.5585 52.7949 43.2225 52.9163 42.9333 53.1156C40.5674 48.9263 39.539 47.039 37.738 42.3659C38.103 41.8533 38.3454 41.2641 38.4467 40.6434C38.4467 40.6009 38.4467 40.5477 38.4467 40.5105C41.5265 41.1325 43.967 41.5472 46.7911 42.031C46.7911 42.0948 46.7911 42.1533 46.8177 42.2171C46.8733 42.5006 47.0147 42.7604 47.2227 42.9613C46.2612 46.2321 45.4961 49.5572 44.9314 52.9189V52.9348ZM43.951 54.7636L43.3808 53.8386L43.951 54.7636ZM36.9867 40.1968L37.5195 40.3138L36.9867 40.1968ZM48.0806 41.7918L47.8568 40.9624C47.9367 41.2229 48.0166 41.5259 48.0806 41.7545V41.7918ZM47.276 40.787C47.0808 40.9507 46.9397 41.1693 46.871 41.4143C42.9226 40.7551 40.8871 40.351 38.5319 39.8991C38.5639 39.1336 38.4786 37.7301 37.5728 36.8635C37.333 37.6556 37.008 38.7136 36.7629 39.5217L37.5728 36.8635C38.0683 35.4493 38.7983 33.5833 39.3472 32.1851L39.4324 32.217C40.4235 32.4828 41.3986 31.3451 41.6811 30.0905C41.7605 29.76 41.7875 29.4192 41.761 29.0804L41.388 29.3409L41.761 29.0804C42.7148 28.453 43.983 27.6131 44.9581 27.0017C45.2725 32.6476 46.2049 36.4382 47.276 40.7657V40.787ZM45.363 26.1989C45.363 24.4551 45.3897 22.1319 45.4909 20.3934C46.4814 19.8623 47.3029 19.0648 47.8621 18.0915L47.9207 17.9905C50.6915 18.6018 51.3896 18.7401 54.3149 19.3142L56.6488 19.7502L54.3149 19.3142C54.1932 19.694 54.1321 20.0905 54.1338 20.4891C54.1342 20.6873 54.1539 20.8849 54.1924 21.0793C50.9526 22.8602 48.8106 24.0511 45.363 26.1776V26.1989ZM56.02 20.6221L57.4747 19.8405L56.02 20.6221ZM55.4872 17.4641C55.0944 17.8547 54.7718 18.3097 54.5334 18.8092C51.3363 18.1818 50.7182 18.0543 48.1925 17.5014C48.1925 17.4641 48.2351 17.411 48.2564 17.3684C48.4109 17.0069 49.1516 15.1515 48.2031 14.2318L46.8657 15.9862C47.3186 15.3748 47.7928 14.7422 48.2031 14.2318C49.3061 12.8974 50.7981 11.1483 51.9331 9.86176C52.5352 12.8814 53.894 14.9974 55.4659 17.4429L55.4872 17.4641ZM59.6434 2.60495L59.6967 2.65279L59.6434 2.60495ZM58.6417 3.13658C58.618 3.17619 58.6029 3.22032 58.5974 3.26611C58.5919 3.3119 58.5961 3.35833 58.6097 3.4024C56.3743 5.17014 54.2645 7.0904 52.2954 9.14937C52.2475 8.3615 52.2475 7.57146 52.2954 6.7836C52.8484 6.38224 53.3687 5.93782 53.8513 5.45451C54.1476 5.16229 54.4269 4.85344 54.6879 4.52947L53.7341 4.88566L54.6879 4.52947C57.1976 3.58316 57.1976 3.58315 58.6203 3.08873L58.6417 3.13658ZM52.1089 5.25249L51.0432 5.66716L52.1089 5.25249ZM49.6631 6.43803L49.6099 6.51246C49.3962 6.76801 49.2562 7.07675 49.2049 7.40561C46.3261 9.45509 43.5882 11.6947 41.0097 14.1095C40.8658 13.663 40.2903 14.0085 40.285 14.0138C41.0683 12.3232 41.1056 12.2701 43.0025 9.49493C45.0593 8.45825 46.4128 7.78839 49.6365 6.43803H49.6631ZM41.7184 9.73417C44.8036 6.81018 44.8195 6.79423 46.514 5.53426C46.6133 5.51634 46.71 5.48597 46.8017 5.44387C45.3151 6.66663 45.2032 6.81018 42.9972 9.2876L41.5425 10.0638C41.6757 9.87239 41.7184 9.76607 41.6704 9.73417L41.1376 10.2658L41.7184 9.73417ZM35.5533 14.5667C35.6812 14.4072 35.9156 14.1202 36.262 13.7055L36.6137 13.2961C37.754 12.2329 38.468 11.8873 40.1944 11.0154L40.1145 11.1271C38.1551 12.7637 36.3371 14.5616 34.6794 16.5019C34.6794 16.4487 34.738 16.3158 34.6421 16.369C34.4937 16.4896 34.358 16.625 34.2371 16.773C34.5569 16.0925 35.1057 15.2153 35.5266 14.5667H35.5533ZM32.9903 18.8198C32.9903 18.8198 32.9903 18.9421 33.1235 18.8198L33.2194 18.7294C33.2194 18.7294 33.2194 18.6975 33.246 18.6869C32.1803 21.4408 31.6475 22.823 31.3971 26.1564C31.3971 26.6136 31.3971 27.1452 31.3971 27.6768C31.3971 27.1452 31.3971 26.6136 31.3971 26.1564C30.9855 26.7598 30.639 27.4048 30.3633 28.0809L30.9388 28.6763C30.731 28.4743 30.5232 28.267 30.3633 28.0809C29.628 27.0176 29.255 26.486 29.2976 25.4227L29.3296 25.3536C29.4575 25.0346 29.7079 24.4232 29.8625 23.9288L29.596 24.4977L29.8625 23.9288C30.7363 22.3871 31.9779 20.319 32.9636 18.8092L32.9903 18.8198ZM28.8341 26.5764C28.914 26.4062 28.9886 26.2308 29.0632 26.0447C29.0776 26.0091 29.0866 25.9714 29.0898 25.9331V26.0075C29.0837 26.9984 29.4662 27.9524 30.1555 28.6657C30.3473 28.8624 30.5711 29.0963 30.8003 29.3249C30.5658 29.1016 30.3367 28.873 30.1555 28.6657C29.8728 29.4378 29.6657 30.2354 29.5374 31.0474C29.4665 31.4871 29.4274 31.9312 29.4202 32.3765C28.7808 33.4398 28.0028 34.8592 27.4486 35.9544C27.5392 32.2276 27.6032 30.5317 28.8074 26.5657L28.8341 26.5764ZM27.438 36.4754C27.9708 35.3696 28.7808 33.9395 29.4095 32.8815V33.057C29.5054 33.9555 29.7346 34.4765 30.1502 34.7476C29.2284 39.3941 29.223 41.7386 29.2124 45.9917C29.1868 45.9786 29.1585 45.9718 29.1298 45.9718C29.1011 45.9718 29.0728 45.9786 29.0472 45.9917C28.0774 42.4031 27.5499 40.4308 27.4113 36.4648L27.438 36.4754ZM29.2071 47.257L29.2976 47.5121L29.2071 47.257ZM29.0898 48.6233L29.1218 48.6817C29.4308 49.2134 29.6546 49.0007 29.7079 48.8838C31.2265 53.4718 32.2603 55.3538 34.3171 59.1018C34.1393 59.6044 34.1152 60.1484 34.2478 60.6648L36.0222 61.8131L34.2478 60.6648C30.8802 58.3522 29.7932 57.0071 28.5357 55.4494L28.4717 55.2421C28.4291 55.0986 28.3598 54.8859 28.2692 54.636L28.3119 55.1252L28.2692 54.636C28.2639 51.7014 28.2639 51.7014 29.0632 48.6126L29.0898 48.6233ZM29.6866 60.0056C29.6227 59.8514 29.4628 59.4739 29.2337 58.9423L28.914 58.1555C28.7168 57.5494 28.5516 56.7147 28.4131 56.0874V56.1193C28.5889 56.5234 28.6689 56.5765 28.6955 56.5765C28.5889 56.2948 28.4504 55.912 28.3438 55.6249L28.6955 56.5765C30.2621 60.3937 30.406 60.6329 32.7558 64.6467C32.7911 64.9307 32.872 65.2072 32.9956 65.4655C31.2905 63.1316 31.2265 63.0199 29.66 59.9949L29.6866 60.0056ZM35.8304 68.8679C36.0329 69.0859 36.2566 69.3198 36.4911 69.559C36.4485 69.5165 36.4005 69.4793 36.3632 69.4368C36.1927 69.272 35.9902 69.038 35.8304 68.8679C36.4325 69.7451 37.2211 70.9253 37.8765 71.7653C37.1998 70.936 36.4325 69.7345 35.8304 68.8679ZM37.8765 71.7653L37.9511 71.8238C38.1323 71.9567 38.6705 72.3554 38.5905 71.8717C38.5684 71.7853 38.5417 71.7001 38.5106 71.6165C38.4925 71.5857 38.4765 71.5537 38.4626 71.5208C40.7639 73.6236 43.2182 75.5534 45.8053 77.2943C46.0317 77.5754 46.2851 77.8335 46.562 78.0652L47.4465 78.347L46.562 78.0652C45.0742 77.6094 43.6342 77.0112 42.2619 76.2789L42.1287 76.1992L42.2619 76.2789C42.0967 76.1407 41.9262 76.0078 41.7557 75.8749C40.5567 74.7159 38.9955 73.0412 37.8765 71.7547V71.7653ZM49.3647 80.7712C47.06 79.5984 44.857 78.2363 42.7787 76.6989L42.7308 76.6564H42.6988H42.7254C44.0863 77.377 45.5139 77.9645 46.9882 78.4108C47.1481 78.533 47.4145 78.7457 47.8728 79.0487L48.2831 79.3145C48.7976 79.8952 49.3456 80.4455 49.9242 80.9626C49.7303 80.8373 49.5156 80.7473 49.2901 80.6968C49.2901 80.734 49.2902 80.734 50.2546 81.2284L49.3647 80.7712ZM50.6329 81.3029L50.5157 81.2656L50.6329 81.3029L50.4198 81.1912C49.8335 80.6921 49.2767 80.1595 48.752 79.5963L48.8585 79.6548C49.2462 79.8814 49.6548 80.0701 50.0788 80.2183C51.0272 80.8031 52.2848 81.6112 53.2759 82.1482C52.2954 81.8558 52.2954 81.8558 50.6329 81.3135V81.3029ZM53.4997 82.1854C52.5245 81.6112 51.2137 80.8616 50.2706 80.2343H50.2972C50.3985 80.2343 50.4997 80.1917 50.2333 79.8781L50.196 79.8409C52.5405 81.0211 52.9881 81.2125 55.9135 82.499C56.1928 82.7031 56.4847 82.8895 56.7873 83.0573L58.1354 83.3762L56.7873 83.0573C55.3966 82.6904 55.354 82.6904 53.4997 82.196V82.1854ZM53.9739 82.4352C55.1994 82.7649 55.5085 82.8393 57.171 83.254C57.7001 83.5223 58.2425 83.7636 58.7962 83.977C59.1319 84.1046 59.393 84.2056 59.8299 84.3491C61.599 85.2529 62.6061 85.4496 64.8227 85.8855L64.5296 85.8483C60.3468 85.0137 58.5937 84.6681 53.9739 82.4459V82.4352Z"
          fill="url(#paint0_linear)"/>
    <path d="M27.3364 30.8773C27.1072 31.7014 26.942 32.4031 26.7769 33.2697C27.0113 32.2543 27.1925 31.4887 27.3364 30.8773Z"
          fill="url(#paint1_linear)"/>
    <path d="M26.4522 34.9231C26.3403 35.6249 26.2391 36.3319 26.1592 37.0496C26.4256 35.3431 26.6014 34.2107 26.7773 33.2751C26.7347 33.4611 26.692 33.6525 26.6441 33.8545C26.5748 34.2054 26.5109 34.5616 26.4522 34.9231Z"
          fill="url(#paint2_linear)"/>
    <path d="M34.2848 17.1983C34.3754 17.0442 34.4393 16.9378 34.5033 16.8156L34.1196 17.2781L34.2848 17.1983Z"
          fill="url(#paint3_linear)"/>
    <path d="M34.6846 15.6301L34.9297 15.3217L34.7006 15.6088L34.6846 15.6301Z" fill="url(#paint4_linear)"/>
    <path d="M37.2793 12.5146C37.5137 12.2594 37.7429 11.9829 37.9773 11.7437C37.7482 11.9829 37.5084 12.2434 37.2793 12.5146Z"
          fill="url(#paint5_linear)"/>
    <path d="M56.169 0.149585H56.1157L56.558 0L56.169 0.149585Z" fill="url(#paint6_linear)"/>
    <path d="M53.6753 1.07471L56.1157 0.170929C55.4923 0.383583 54.6557 0.6813 53.6753 1.07471Z"
          fill="url(#paint7_linear)"/>
    <path d="M30.1445 23.2059C30.6454 22.217 31.2102 21.0793 31.775 20.0798C31.1666 21.0868 30.622 22.1309 30.1445 23.2059Z"
          fill="url(#paint8_linear)"/>
    <path d="M32.2336 19.2665C32.0844 19.5217 31.9299 19.7981 31.7754 20.0799C32.1857 19.3994 32.7185 18.5435 33.5231 17.2569C33.0755 17.9161 32.6457 18.586 32.2336 19.2665Z"
          fill="url(#paint9_linear)"/>
    <path d="M54.0911 83.1584C53.4943 82.8925 52.8922 82.6267 52.2368 82.2918C52.8869 82.6161 53.4997 82.9032 54.0911 83.1584Z"
          fill="url(#paint10_linear)"/>
    <path d="M69.501 65.0722C69.3366 65.4052 69.082 65.6857 68.766 65.8818C68.4501 66.0779 68.0854 66.1818 67.7133 66.1818C67.3412 66.1818 66.9766 66.0779 66.6606 65.8818C66.3447 65.6857 66.09 65.4052 65.9256 65.0722L48.8158 30.5637C48.798 30.5259 48.7899 30.4842 48.7924 30.4424C48.795 30.4006 48.808 30.3601 48.8302 30.3247C48.8525 30.2892 48.8834 30.2599 48.9199 30.2395C48.9565 30.219 48.9977 30.208 49.0396 30.2076H56.4249C56.814 30.2072 57.1947 30.3203 57.5203 30.5327C57.8459 30.7452 58.1023 31.0479 58.2579 31.4037L65.6805 48.4692C66.0326 49.2934 66.3386 50.1365 66.597 50.9945C66.9593 52.1162 67.327 53.4559 67.7107 55.0136C67.9664 53.9185 68.2435 52.8233 68.6112 51.7388C68.9678 50.6274 69.384 49.536 69.858 48.4692L77.2433 31.4037C77.3982 31.047 77.6542 30.7431 77.9799 30.5297C78.3055 30.3162 78.6867 30.2024 79.0763 30.2022H86.4243C86.4664 30.2022 86.5077 30.2129 86.5444 30.2334C86.5811 30.2538 86.6119 30.2834 86.6338 30.3191C86.6557 30.3549 86.6681 30.3957 86.6697 30.4376C86.6712 30.4795 86.662 30.5211 86.6428 30.5584L69.501 65.0722Z"
          fill="url(#paint11_linear)"/>
    <defs>
        <linearGradient id="paint0_linear" x1="25.8821" y1="43.6206" x2="67.1832" y2="43.6206"
                        gradientUnits="userSpaceOnUse">
            <stop stop-color="#276899"/>
            <stop offset="1" stop-color="#276899"/>
        </linearGradient>
        <linearGradient id="paint1_linear" x1="102.471" y1="386.836" x2="103.059" y2="386.836"
                        gradientUnits="userSpaceOnUse">
            <stop stop-color="#276899"/>
            <stop offset="1" stop-color="#276899"/>
        </linearGradient>
        <linearGradient id="paint2_linear" x1="109.066" y1="616.79" x2="109.783" y2="616.79"
                        gradientUnits="userSpaceOnUse">
            <stop stop-color="#276899"/>
            <stop offset="1" stop-color="#276899"/>
        </linearGradient>
        <linearGradient id="paint3_linear" x1="91.3072" y1="72.5583" x2="91.5834" y2="72.5583"
                        gradientUnits="userSpaceOnUse">
            <stop stop-color="#276899"/>
            <stop offset="1" stop-color="#276899"/>
        </linearGradient>
        <linearGradient id="paint4_linear" x1="71.4836" y1="51.5742" x2="71.5963" y2="51.5742"
                        gradientUnits="userSpaceOnUse">
            <stop stop-color="#276899"/>
            <stop offset="1" stop-color="#276899"/>
        </linearGradient>
        <linearGradient id="paint5_linear" x1="145.438" y1="97.5496" x2="146.353" y2="97.5496"
                        gradientUnits="userSpaceOnUse">
            <stop stop-color="#276899"/>
            <stop offset="1" stop-color="#276899"/>
        </linearGradient>
        <linearGradient id="paint6_linear" x1="140.3" y1="13.2592" x2="140.667" y2="13.2592"
                        gradientUnits="userSpaceOnUse">
            <stop stop-color="#276899"/>
            <stop offset="1" stop-color="#276899"/>
        </linearGradient>
        <linearGradient id="paint7_linear" x1="507.038" y1="81.1768" x2="518.216" y2="81.1768"
                        gradientUnits="userSpaceOnUse">
            <stop stop-color="#276899"/>
            <stop offset="1" stop-color="#276899"/>
        </linearGradient>
        <linearGradient id="paint8_linear" x1="261.042" y1="423.868" x2="266.031" y2="423.868"
                        gradientUnits="userSpaceOnUse">
            <stop stop-color="#276899"/>
            <stop offset="1" stop-color="#276899"/>
        </linearGradient>
        <linearGradient id="paint9_linear" x1="284.62" y1="366.12" x2="290.353" y2="366.12"
                        gradientUnits="userSpaceOnUse">
            <stop stop-color="#276899"/>
            <stop offset="1" stop-color="#276899"/>
        </linearGradient>
        <linearGradient id="paint10_linear" x1="391.704" y1="293.783" x2="398.157" y2="293.783"
                        gradientUnits="userSpaceOnUse">
            <stop stop-color="#276899"/>
            <stop offset="1" stop-color="#276899"/>
        </linearGradient>
        <linearGradient id="paint11_linear" x1="6738.4" y1="6474.15" x2="9430.76" y2="6474.15"
                        gradientUnits="userSpaceOnUse">
            <stop stop-color="#276899"/>
            <stop offset="1" stop-color="#276899"/>
        </linearGradient>
    </defs>
</svg>
