<svg width="12" height="11" viewBox="0 0 12 11" fill="none" xmlns="http://www.w3.org/2000/svg">
<path fill-rule="evenodd" clip-rule="evenodd" d="M10.8588 9.95683L8.79504 7.8815C9.43513 7.05406 9.82113 6.017 9.82113 4.88889C9.82113 2.19328 7.63948 0 4.95817 0C2.27686 0 0.0952148 2.19328 0.0952148 4.88889C0.0952148 7.5845 2.27686 9.77778 4.95817 9.77778C6.0803 9.77778 7.11185 9.38972 7.93491 8.74622L9.99923 10.8209C10.1178 10.9401 10.2734 11 10.429 11C10.5846 11 10.7402 10.9401 10.8588 10.8209C11.0964 10.582 11.0964 10.1958 10.8588 9.95683Z" fill="#276899"/>
<path fill-rule="evenodd" clip-rule="evenodd" d="M1.31152 4.88932C1.31152 2.86716 2.9473 1.22266 4.95874 1.22266C6.97018 1.22266 8.60596 2.86716 8.60596 4.88932C8.60596 6.91149 6.97018 8.55599 4.95874 8.55599C2.9473 8.55599 1.31152 6.91149 1.31152 4.88932Z" fill="#17212B"/>
</svg>
